<svg width="487" height="591" viewBox="0 0 487 591" fill="none" xmlns="http://www.w3.org/2000/svg">
<rect width="487" height="591" rx="6" fill="#1C1F31"/>
<mask id="mask0" mask-type="alpha" maskUnits="userSpaceOnUse" x="0" y="0" width="487" height="591">
<rect width="487" height="591" rx="6" fill="#222639"/>
</mask>
<g mask="url(#mask0)">
<g opacity="0.7">
<path d="M636.975 288.497C621.544 298.781 606.471 309.669 590.584 319.199C573.548 329.42 555.29 337.283 535.736 341.542C521.923 344.542 509.751 339.617 498.11 332.913C492.271 329.556 486.703 325.704 480.778 322.507C474.42 319.075 467.828 317.952 460.397 319.791C452.126 321.828 443.386 322.865 435.177 319.273C429.325 316.717 424.202 313.076 422.153 306.397C420.338 300.509 421.129 297.028 425.918 293.46C428.424 291.596 431.091 289.781 433.942 288.547C445.731 283.436 451.817 274.202 454.336 261.956C457.002 248.958 459.557 235.885 463.088 223.108C466.038 212.405 470.347 202.085 474.05 191.592C476.84 183.691 476.642 175.544 475.198 167.532C472.519 152.719 462.187 143.917 450.003 136.621C431.918 125.807 412.759 116.783 396.242 103.377C382.255 92.0077 367.985 80.9839 353.653 70.0465C347.308 65.2074 340.444 61.0596 333.963 56.3934C320.816 46.9127 318.557 37.2838 321.125 26.8279C324.198 14.2734 333.494 8.12579 348.135 6.31112C359.689 4.87914 371.614 4.86679 382.12 -1.56477C394.464 -9.10735 403.278 -18.8473 401.636 -34.3028C401.056 -39.7838 399.167 -45.7216 396.094 -50.2397C385.601 -65.7199 379.367 -82.558 376.416 -100.964C373.947 -116.37 364.454 -125.616 349.419 -130.147C336.555 -134.023 323.618 -135.875 310.508 -133.566C289.967 -129.949 279.61 -115.568 274.807 -96.6309C272.079 -85.8911 270.363 -74.892 268.561 -63.9423C266.068 -48.8324 258.71 -36.2162 248.698 -25.1307C238.169 -13.4774 228.663 -0.996906 221.244 12.718C216.072 22.2728 211.887 32.7286 211.751 44.061C211.628 54.7638 216.639 62.2324 225.873 67.6023C238.625 75.0214 252.797 78.157 266.648 82.3542C276.363 85.3045 286.165 88.0697 295.621 91.699C306.62 95.9086 311.669 105.167 312.854 116.29C314.952 136.177 320.001 154.78 331.963 171.297C338.185 179.877 343.641 189.074 348.616 198.443C353.714 208.023 357.813 218.121 362.306 228.009C362.837 229.181 363.319 230.441 363.528 231.712C365.862 245.859 359.442 253.081 345.036 253.377C332.296 253.636 319.915 251.155 307.36 249.834C292.966 248.328 278.573 248.871 266.598 259.426C252.587 271.783 238.366 283.893 224.022 295.855C209.554 307.928 196.567 321.359 186.506 337.308C182.198 344.135 179.149 351.727 175.26 358.825C169.495 369.367 164.483 380.403 154.348 387.909C146.658 393.612 137.942 397.266 128.943 399.365C111.266 403.476 96.526 412.512 82.6877 423.634C69.195 434.473 55.7146 445.521 39.4444 451.916C24.8653 457.656 10.1258 463.31 -5.00873 467.248C-29.8832 473.717 -48.7088 487.407 -61.7694 509.417C-69.3737 522.243 -77.3731 534.884 -88.3475 545.155C-94.9518 551.34 -102.001 557.117 -109.321 562.437C-122.468 572.005 -127.986 584.67 -127.949 600.78C-127.912 616.013 -123.838 630.247 -119.765 644.603C-117.666 651.998 -116.234 659.652 -113.444 666.762C-109.321 677.292 -101.099 684.193 -90.7299 688.39C-73.6943 695.291 -56.8192 702.673 -39.4256 708.524C-30.056 711.672 -19.7976 713.252 -9.8848 713.487C9.37285 713.931 25.6678 701.512 30.3834 682.292C33.6671 668.922 35.8521 655.208 42.4442 642.678C49.1597 629.926 58.3565 619.754 71.0221 613.236C87.8602 604.557 105.328 597.077 122.129 588.3C135.029 581.559 147.053 573.153 159.916 566.338C172.631 559.611 186.617 559.586 200.579 561.277C215.17 563.055 229.947 565.104 244.353 561.684C264.759 556.845 274.61 541.649 279.634 522.391C282.399 511.812 285.103 501.146 289.004 490.962C293.695 478.729 304.509 474.26 316.619 473.087C332.321 471.556 347.184 476.556 362.319 479.654C377.317 482.74 392.563 484.901 407.969 484.049C429.807 482.827 445.929 473.062 455.657 452.706C461.989 439.448 469.594 426.683 480.247 416.277C491.468 405.303 504.393 397.217 520.293 394.55C530.255 392.884 539.242 395.674 548.069 399.575C560.45 405.043 572.844 410.5 585.09 416.265C599.583 423.079 613.915 430.202 628.309 437.213C631.21 438.621 634.074 440.09 636.95 441.534" stroke="#222639" stroke-width="4" stroke-miterlimit="10" stroke-linecap="round" stroke-linejoin="round"/>
<path d="M57.394 922.704C60.7147 909.112 65.0847 895.768 72.9853 884.238C83.1943 869.325 97.5388 859.141 114.155 851.957C127.018 846.389 140.486 841.241 149.868 830.329C166.916 810.503 184.161 790.628 197.16 767.89C202.715 758.162 205.814 746.496 207.702 735.324C210.974 716.042 220.183 700.154 232.096 685.403C240.354 675.181 249.131 665.367 257.316 655.084C267.08 642.814 269.957 629.037 265.438 613.754C262.229 602.866 254.205 597.151 244.378 593.46C229.269 587.781 213.529 584.942 197.53 582.658C179.841 580.14 164.212 585.88 148.806 592.361C132.203 599.348 116.155 607.693 99.9831 615.668C85.0337 623.037 73.7754 633.74 70.393 650.825C69.0227 657.751 68.0228 664.775 67.3068 671.811C66.2081 682.687 61.9245 692.192 55.4929 700.796C41.8397 719.042 24.2609 731.732 1.78131 736.46C-9.14371 738.756 -20.4637 739.151 -31.4998 741.015C-43.7087 743.089 -55.8065 745.817 -67.9289 748.36C-72.0767 749.224 -76.2862 750.052 -80.2612 751.483C-95.6056 757.026 -95.1612 767.099 -88.6556 777.802C-83.4091 786.431 -76.138 793.974 -69.0769 801.319C-61.0528 809.664 -52.9054 818.095 -48.4614 828.687C-44.116 839.056 -40.8817 850.204 -39.1782 861.326C-36.2895 880.177 -33.7219 898.99 -26.6237 916.852C-25.8584 918.766 -25.7596 920.951 -25.3399 923" stroke="#222639" stroke-width="4" stroke-miterlimit="10" stroke-linecap="round" stroke-linejoin="round"/>
<path d="M636.666 466.878C624.42 460.705 612.236 454.422 599.928 448.385C584.535 440.843 568.536 434.954 551.809 431.041C543.254 429.041 534.81 427.14 525.873 427.264C503.418 427.584 483.864 449.533 487.074 471.803C488.32 480.432 493.123 487.629 498.048 494.69C500.616 498.381 503.097 502.282 504.801 506.417C508.467 515.318 505.356 524.107 496.875 530.452C491.357 534.588 479.173 534.835 473.47 530.378C467.273 525.539 461.619 519.997 455.484 515.059C447.966 509.01 438.646 507.01 429.56 505.294C415.475 502.64 401.254 500.43 386.983 499.122C370.787 497.628 354.467 496.455 338.247 496.789C326.914 497.023 317.31 502.541 312.31 513.775C304.842 530.564 303.422 547.895 308.052 565.61C310.903 576.51 318.224 584.028 327.729 589.719C342.086 598.323 357.566 604.027 374.058 606.15C383.169 607.323 392.588 605.866 401.797 606.508C410.142 607.088 419.462 606.372 425.141 614.47C427.523 617.865 429.646 622.112 429.992 626.136C431.103 638.764 429.202 651.294 427.165 663.775C425.054 676.7 423.511 689.711 421.524 702.648C418.981 719.215 423.19 735.201 425.054 751.434C426.832 766.964 427.696 782.691 427.523 798.319C427.313 816.552 432.782 833.156 439.522 849.525C446.645 866.782 459.36 878.646 476.482 885.991C494.517 893.731 508.85 905.853 519.083 922.691" stroke="#222639" stroke-width="4" stroke-miterlimit="10" stroke-linecap="round" stroke-linejoin="round"/>
<path d="M636.666 155.792C632.247 146.324 628.272 136.621 623.272 127.461C617.606 117.067 606.977 111.525 597.966 104.71C573.634 86.3167 552.895 64.5902 536.637 38.9503C531.206 30.3831 528.218 19.989 525.441 10.0639C521.787 -2.97208 517.627 -15.6624 511.084 -27.5503C506.171 -36.4755 499.134 -43.5366 491.246 -49.6719C482.938 -56.1282 474.198 -54.0049 466.038 -49.0793C455.138 -42.5243 446.435 -33.3893 438.263 -23.7975C428.683 -12.5762 419.413 -1.09571 409.796 10.0885C404.488 16.2609 398.451 21.8283 393.242 28.0747C383.626 39.6169 382.564 49.184 392.625 65.6395C402.698 82.1319 417.376 93.847 433.942 103.291C445.781 110.043 458.101 116.006 469.655 123.178C489.567 135.56 501.332 153.2 500.443 177.383C499.999 189.555 498.739 201.764 496.752 213.788C492.295 240.674 500.912 263.45 518.034 283.411C523.095 289.312 528.354 295.176 536.255 298.657C548.994 304.286 560.796 302.78 572.783 297.707C587.596 291.46 599.027 280.844 609.199 268.721C618.495 257.648 627.729 246.513 636.987 235.403" stroke="#222639" stroke-width="4" stroke-miterlimit="10" stroke-linecap="round" stroke-linejoin="round"/>
<path d="M636.975 495.887C620.1 487.036 603.46 477.728 586.251 469.568C579.067 466.161 570.759 463.754 562.895 463.519C551.55 463.199 540.638 467.223 542.613 481.061C544.094 491.406 546.526 501.603 547.995 511.947C548.946 518.663 549.674 525.576 549.155 532.291C548.378 542.439 540.415 548.216 533.218 553.821C516.689 566.696 498.333 577.288 483.951 592.842C474.631 602.915 469.668 615.285 467.36 628.617C466.273 634.876 465.595 641.431 466.175 647.714C467.582 662.96 473.409 666.972 485.124 668.292C500.962 670.082 517.269 667.712 532.638 673.132C541.057 676.094 549.736 679.057 557.229 683.736C571.314 692.537 584.98 696.549 601.287 689.328C612.545 684.341 624.841 681.674 636.667 677.971" stroke="#222639" stroke-width="4" stroke-miterlimit="10" stroke-linecap="round" stroke-linejoin="round"/>
<path d="M51.2224 251.463C49.0498 240.205 43.1738 231.144 35.2362 223.009C25.2864 212.788 15.1883 202.702 1.7944 197.258C-16.9201 189.641 -36.4246 184.926 -56.7933 186.802C-70.3106 188.049 -78.0878 197.135 -81.3097 209.553C-83.6922 218.775 -84.9144 228.391 -85.6798 237.909C-86.655 250.007 -86.8031 262.178 -87.0129 274.313C-87.2722 289.435 -78.5445 295.089 -66.0765 295.509C-47.5718 296.126 -30.351 291.25 -12.9574 286.139C0.683442 282.14 14.6575 279.301 28.323 275.412C33.2979 273.992 38.0506 271.388 42.507 268.672C48.5436 264.993 50.0126 258.524 51.1977 252.093" stroke="#222639" stroke-width="4" stroke-miterlimit="10" stroke-linecap="round" stroke-linejoin="round"/>
<path d="M85.7861 367.503C82.3296 353.48 71.17 347.715 59.2451 342.814C35.4199 333.037 12.3724 337.419 -10.5146 346.468C-26.0194 352.603 -39.4134 361.454 -46.7584 376.823C-52.3012 388.427 -54.6837 400.698 -50.7952 413.833C-47.8571 423.733 -40.9935 428.3 -32.093 431.029C-20.9951 434.423 -9.87259 435.164 1.87952 433.88C13.2489 432.633 24.1368 430.411 34.5187 426.041C48.5422 420.141 60.2697 410.833 69.6517 398.895C74.5031 392.723 78.7003 385.983 82.5641 379.144C84.4035 375.897 84.7615 371.811 85.7861 368.108" stroke="#222639" stroke-width="4" stroke-miterlimit="10" stroke-linecap="round" stroke-linejoin="round"/>
<path d="M384.527 578.596C393.908 577.707 402.846 576.103 411.154 570.72C429.214 559.03 428.461 534.649 408.599 524.897C392.106 516.799 374.737 514.095 356.776 517.614C340.259 520.848 333.667 536.464 340.58 552.117C348.196 569.35 362.133 576.078 379.589 578.016C381.058 578.177 382.477 578.806 383.909 579.213" stroke="#222639" stroke-width="4" stroke-miterlimit="10" stroke-linecap="round" stroke-linejoin="round"/>
<path d="M-27.7842 392.192C-25.772 399.402 -23.4141 406.525 -16.032 410.043C-7.29204 414.215 2.11455 416.289 11.7063 414.907C26.4212 412.796 39.6175 407.018 49.3081 395.217C53.6534 389.933 57.4309 384.107 57.4063 376.762C57.3816 369.268 53.9992 363.911 47.5552 360.047C37.3956 353.936 26.6928 353.27 15.4221 355.751C4.65756 358.121 -5.31685 361.874 -14.2914 368.626C-22.1796 374.552 -25.6362 382.551 -27.7842 391.587" stroke="#222639" stroke-width="4" stroke-miterlimit="10" stroke-linecap="round" stroke-linejoin="round"/>
<path d="M289.474 278.004C271.66 281.893 256.032 290.127 241.243 300.731C218.727 316.877 202.185 337.049 193.654 363.762C189.729 376.021 185.272 388.168 177.853 399.068C169.977 410.635 159.114 415.943 145.658 417.585C132.548 419.19 118.895 418.807 106.835 425.054C97.428 429.93 88.0707 435.275 79.7257 441.744C61.2828 456.039 40.729 466.087 19.1135 474.284C6.16394 479.197 -7.03242 483.703 -18.4636 491.678C-31.5489 500.788 -40.4124 513.663 -48.1772 527.378C-59.5343 547.475 -70.0025 568.153 -84.0507 586.571C-92.9882 598.286 -94.2597 610.458 -90.2601 624.333C-83.1866 648.887 -69.5457 667.762 -45.6218 677.835C-38.2397 680.946 -30.1293 683.439 -22.2164 683.896C-5.9091 684.834 3.016 677.823 9.33646 662.602C13.6077 652.331 17.9408 641.949 23.6193 632.419C33.3716 616.05 48.9258 606.446 66.0231 598.94C83.9723 591.052 103.218 585.793 119.093 573.634C126.512 567.955 133.721 561.956 140.684 555.734C148.979 548.327 157.522 541.402 168.521 538.55C177.236 536.291 185.914 536.118 195.087 536.859C207.604 537.871 220.628 539.254 232.738 533.008C244.008 527.193 249.958 517.676 252.366 505.775C254.057 497.43 254.983 488.925 256.143 480.481C257.773 468.643 265.463 461.705 275.29 456.409C288.782 449.138 303.263 445.682 318.496 446.002C330.47 446.262 341.543 450.237 352.518 455.014C364.998 460.458 377.911 464.544 391.959 464.569C407.353 464.594 419.265 458.767 428.4 446.546C439.511 431.67 448.658 415.585 456.595 398.92C463.101 385.267 459.805 376.49 445.633 370.058C437.572 366.404 428.993 363.836 421.018 360.022C406.649 353.158 396.341 341.357 385.75 329.901C374.195 317.396 364.455 303.237 350.073 293.324C336.519 283.979 322.088 278.189 305.546 278.029C300.399 277.979 295.263 278.016 290.116 278.016" stroke="#222639" stroke-width="4" stroke-miterlimit="10" stroke-linecap="round" stroke-linejoin="round"/>
<path d="M101.835 471.815C72.1585 480.284 45.136 494.394 19.1135 510.676C5.8677 518.959 -4.11907 529.909 -7.83481 545.315C-9.25444 551.191 -9.29145 557.734 -8.42733 563.746C-7.43975 570.572 -0.835433 575.449 7.39845 575.375C33.8777 575.128 60.0113 572.128 84.5154 561.215C95.6133 556.277 103.724 547.327 109.674 537.131C116.97 524.613 122.599 511.195 126.586 497.134C130.968 481.716 120.957 470.556 106.773 471.791C105.341 471.914 103.897 471.803 102.452 471.803" stroke="#222639" stroke-width="4" stroke-miterlimit="10" stroke-linecap="round" stroke-linejoin="round"/>
<path d="M-47.5354 207.64C-62.3243 210.899 -67.7066 228.725 -65.6203 242.23C-64.0772 252.266 -59.88 260.611 -50.4858 263.351C-43.9678 265.265 -36.1413 263.475 -29.0308 262.438C-19.9327 261.117 -12.1679 256.722 -5.52649 250.254C0.115016 244.76 1.00385 234.082 -3.65008 227.342C-12.3654 214.689 -24.0805 207.862 -39.5113 207.64C-41.9803 207.603 -44.4492 207.64 -46.9181 207.64" stroke="#222639" stroke-width="4" stroke-miterlimit="10" stroke-linecap="round" stroke-linejoin="round"/>
<path d="M-69.7561 166.903C-87.5694 169.841 -93.6182 182.259 -95.7662 198.369C-97.8277 213.849 -100.408 229.28 -103.161 244.661C-104.901 254.364 -108.469 263.512 -114.863 271.178C-121.53 279.165 -130.837 283.263 -140.121 287.263C-158.415 295.151 -174.834 305.903 -189.474 319.384C-193.116 322.729 -196.523 326.321 -199.98 329.864C-207.016 337.061 -210.312 345.604 -210.596 355.776C-211.016 370.836 -206.424 383.983 -197.523 395.908C-180.883 418.19 -142.441 421.783 -123.27 401.624C-113.296 391.118 -106.309 378.885 -98.8031 366.861C-92.3592 356.541 -86.6064 345.789 -80.1749 335.456C-74.2001 325.852 -64.1023 321.297 -54.2266 317.754C-35.3763 310.989 -16.1926 305.015 3.1515 299.854C13.4963 297.102 24.52 296.929 35.1734 295.238C43.6542 293.892 52.419 293.015 60.3936 290.102C70.1089 286.547 76.096 278.338 77.6267 268.116C80.1203 251.525 79.1204 235.033 67.0967 222.009C58.7394 212.948 49.0117 205.072 39.4323 197.233C24.2113 184.79 5.97837 179.395 -12.946 175.445C-31.537 171.569 -49.9182 166.594 -69.1388 166.915" stroke="#222639" stroke-width="4" stroke-miterlimit="10" stroke-linecap="round" stroke-linejoin="round"/>
<path d="M70.9729 513.787C61.8502 515.775 54.0854 520.145 48.1723 527.404C44.0739 532.44 46.3329 539.427 52.4559 541.563C62.4427 545.069 77.6637 538.267 81.4658 528.601C84.6507 520.49 80.54 514.318 71.5901 513.787" stroke="#222639" stroke-width="4" stroke-miterlimit="10" stroke-linecap="round" stroke-linejoin="round"/>
<path d="M469.705 -5.92236C446.127 -0.688232 432.856 16.1375 422.129 36.0248C415.771 47.8016 417.648 58.8006 425.4 68.664C432.449 77.6262 441.572 84.5392 451.818 89.7363C462.891 95.3655 474.458 100.155 485.05 106.574C503.036 117.475 514.109 133.696 517.825 154.57C520.01 166.829 520.676 179.025 519.442 191.629C518.244 203.813 518.393 216.578 520.676 228.564C524.318 247.624 535.033 262.265 554.933 267.351C564.87 269.894 573.573 264.734 579.363 257.475C591.856 241.847 601.472 224.318 609.212 205.801C616.175 189.16 611.595 173.507 604.78 158.311C598.053 143.312 588.313 130.19 576.462 118.796C561.772 104.673 546.674 90.9708 532.12 76.7251C522.158 66.9728 514.232 55.7391 509.764 42.2464C506.394 32.0621 502.962 21.8284 498.579 12.0391C493.259 0.151189 483.358 -5.61375 470.323 -5.92236" stroke="#222639" stroke-width="4" stroke-miterlimit="10" stroke-linecap="round" stroke-linejoin="round"/>
<path d="M57.394 -61.4732C51.0119 -59.4116 44.5803 -57.5105 38.2722 -55.2638C29.6433 -52.19 25.6806 -44.8449 24.3103 -36.7468C23.1006 -29.5376 23.829 -21.9703 24.1006 -14.5759C24.6808 1.04012 24.7301 16.4462 14.8421 29.9019C13.0644 32.3215 11.6818 35.1237 10.5215 37.9136C8.4599 42.8638 10.0523 49.3571 13.5582 51.468C16.8789 53.4678 25.4584 51.505 28.3223 47.7276C30.8283 44.4192 33.4455 40.9998 35.0626 37.2346C40.5683 24.3592 50.16 15.9031 62.2701 9.40982C76.0714 2.00303 89.5641 -5.98398 103.007 -14.0327C107.242 -16.5757 111.081 -19.8964 114.747 -23.2418C125.66 -33.2039 121.636 -44.3264 113.389 -51.3999C105.39 -58.2636 95.1316 -61.0535 84.5399 -61.4115C75.7011 -61.6954 66.85 -61.4732 57.9989 -61.4732" stroke="#222639" stroke-width="4" stroke-miterlimit="10" stroke-linecap="round" stroke-linejoin="round"/>
<path d="M46.2833 -89.8663C42.7897 -89.2491 39.2715 -88.7306 35.7903 -88.0023C10.6443 -82.7434 -1.18188 -65.5227 -5.55189 -41.7222C-7.31717 -32.0687 -8.53924 -22.3164 -10.5884 -12.7369C-13.366 0.274334 -20.6 11.4092 -26.5131 23.0996C-30.7226 31.4075 -34.3519 40.0611 -33.8952 49.6159C-33.1545 65.1825 -26.723 77.1815 -12.4279 84.9339C0.0525004 91.6988 13.4218 94.6739 27.1614 96.4392C41.7775 98.3279 54.3073 87.6744 58.6526 70.6141C60.3439 63.9851 61.7017 57.1832 64.3064 50.8997C71.1948 34.2591 83.6876 22.7909 100.032 15.7792C109.636 11.6561 119.672 8.45882 129.622 5.22452C141.238 1.45941 152.904 -2.25634 160.422 -12.7616C170.717 -27.1555 169.829 -44.9071 159.706 -59.5355C149.299 -74.5589 134.165 -82.8299 116.018 -84.8544C104.143 -86.1753 92.156 -86.5703 80.2311 -87.4221C69.1209 -88.2121 58.0107 -89.0639 46.9005 -89.8787" stroke="#222639" stroke-width="4" stroke-miterlimit="10" stroke-linecap="round" stroke-linejoin="round"/>
<path d="M117.882 440.954C102.081 444.015 89.502 453.644 75.8364 461.187C59.4921 470.198 42.7528 478.543 25.8777 486.543C6.82989 495.554 -12.0327 504.912 -23.9329 523.145C-34.5987 539.489 -41.7956 557.524 -45.6719 576.757C-49.2395 594.447 -49.7826 612.014 -43.1659 629.21C-42.0178 632.197 -40.7588 635.333 -38.796 637.802C-33.6729 644.246 -25.4266 645.505 -19.2296 640.221C-12.6128 634.58 -6.56404 628.197 -0.650957 621.778C14.6811 605.15 33.6672 594.756 54.9247 587.806C67.6026 583.658 80.3176 579.448 92.5141 574.116C103.661 569.239 113.574 561.709 120.833 551.957C134.412 533.712 149.633 517.528 168.372 504.331C181.309 495.209 182.692 485.074 175.927 470.593C168.175 453.99 153.842 446.2 137.004 442.349C131.054 440.991 124.697 441.374 118.524 440.966" stroke="#222639" stroke-width="4" stroke-miterlimit="10" stroke-linecap="round" stroke-linejoin="round"/>
<path d="M285.77 301.459C273.969 303.965 262.39 307.076 251.81 313.174C229.01 326.297 215.258 345.542 211.69 371.824C210.122 383.354 207.518 394.822 206.975 406.401C206.209 422.634 211.703 434.893 232.071 435.991C247.403 436.818 261.871 431.918 276.475 428.486C294.301 424.301 311.929 419.277 329.569 414.351C335.26 412.759 340.976 410.845 346.197 408.154C360.073 400.982 363.912 387.81 364.653 373.688C365.937 349.517 354.592 331.123 337.038 315.619C322.323 302.62 304.88 300.398 286.375 301.484" stroke="#222639" stroke-width="4" stroke-miterlimit="10" stroke-linecap="round" stroke-linejoin="round"/>
<path d="M36.4083 -114.555C32.0877 -113.728 27.73 -113.049 23.4464 -112.062C3.31228 -107.408 -10.5384 -95.7545 -16.6737 -75.6698C-20.4265 -63.3375 -24.6977 -51.1286 -27.6481 -38.5988C-31.87 -20.7114 -40.5729 -4.73742 -47.6464 11.9402C-52.0411 22.2974 -54.905 33.2471 -54.5964 44.0733C-54.0409 63.3186 -49.5105 82.0702 -36.3141 97.0566C-27.4877 107.08 -15.3651 112.833 -3.05752 117.388C9.86733 122.166 23.0391 126.536 36.433 129.696C53.7032 133.77 67.3316 143.003 78.9603 155.817C85.8115 163.372 92.3049 171.273 99.3907 178.593C112.612 192.258 119.994 208.887 125.314 226.774C130.647 244.736 135.931 262.746 142.054 280.449C148.473 299.015 156.25 299.756 172.78 292.793C189 285.954 201 273.449 212.073 260.549C223.146 247.649 230.787 232.465 235.268 215.713C240.058 197.789 237.75 181.099 228.96 165.076C216.998 143.263 197.543 129.733 176.458 118.228C154.608 106.303 131.944 96.2542 108.02 89.0325C93.8603 84.749 85.9104 72.5648 90.7865 57.0846C94.0332 46.7768 102.242 40.7156 111.735 36.8147C119.71 33.531 128.055 31.0003 136.388 28.7289C162.558 21.5814 180.668 5.87896 189.457 -20.0942C195.802 -38.8334 202.432 -57.4738 208.468 -76.2994C210.69 -83.2247 208.382 -87.8169 201.148 -89.718C193.679 -91.6808 185.865 -92.3474 178.359 -94.2361C165.731 -97.4334 153.287 -101.371 140.659 -104.544C135.042 -105.951 129.191 -106.642 123.401 -107.05C101.329 -108.581 79.096 -107.778 57.3201 -113.099C50.8144 -114.691 43.7904 -114.099 37.0008 -114.518" stroke="#222639" stroke-width="4" stroke-miterlimit="10" stroke-linecap="round" stroke-linejoin="round"/>
<path d="M226.516 -141.714C213.961 -139.245 201.506 -136.011 188.84 -134.492C172.064 -132.492 155.114 -131.863 138.252 -130.591C128.166 -129.826 118.093 -128.826 108.007 -128.159C91.848 -127.098 76.2197 -130.764 60.4679 -133.616C43.6792 -136.653 26.8041 -136.048 9.85486 -134.455C0.682789 -133.591 -8.64975 -134.307 -17.9082 -134.307C-32.3515 -134.307 -34.6105 -132.159 -35.166 -117.642C-35.2895 -114.358 -35.2401 -111.062 -35.1784 -107.766C-34.5241 -76.7193 -41.8445 -47.6476 -56.0409 -20.045C-61.2133 -9.98411 -65.4351 0.669307 -68.978 11.4215C-73.0765 23.8155 -73.0147 36.8885 -70.8297 49.6035C-68.4719 63.3061 -64.8426 76.7988 -61.7317 90.3655C-56.2137 114.388 -41.0421 129.325 -17.9082 136.646C-6.61288 140.226 4.6331 143.941 16.0519 147.089C34.1862 152.076 51.2835 159.113 65.3564 171.902C77.6516 183.086 90.5271 193.666 99.4893 208.171C106.526 219.54 109.464 232.169 112.859 244.686C116.908 259.623 117.673 275.041 116.439 290.324C115.389 303.298 110.439 314.865 99.3906 323.112C92.0579 328.58 83.5525 329.704 75.3186 328.383C58.2953 325.655 41.309 322.272 24.0636 323.84C8.176 325.284 -6.98316 330.037 -21.698 336.481C-31.7712 340.888 -41.4002 345.542 -49.4489 353.257C-63.8057 367.009 -70.1137 384.748 -74.6318 403.315C-77.681 415.832 -78.7797 428.609 -78.5451 441.571C-78.3723 451.113 -72.5333 456.989 -62.9786 457.113C-43.3506 457.36 -24.1793 454.335 -4.92164 451.002C11.5955 448.151 27.5448 444.398 42.6423 436.769C55.2586 430.387 66.4304 422.029 76.3555 412.388C93.0084 396.204 111.266 382.637 132.079 372.453C142.597 367.305 149.646 358.578 155.448 348.937C166.385 330.753 180.409 315.532 196.086 301.262C219.06 280.387 240.638 258.031 256.773 231.107C261.377 223.416 266.401 215.972 270.907 208.232C276.524 198.554 276.919 188.172 272.71 178.05C264.365 157.99 253.057 139.67 238.194 123.733C228.281 113.092 215.072 107.401 202.468 100.797C190.21 94.3652 177.754 88.0941 167.879 78.0085C156.571 66.4539 158.349 58.7138 166.607 48.3814C175.755 36.9379 185.248 25.7166 193.63 13.7176C200.58 3.76783 205.752 -7.41643 212.418 -17.5761C218.455 -26.7728 224.96 -35.7844 232.17 -44.0924C245.045 -58.9553 252.131 -75.9169 253.711 -95.4091C254.18 -101.199 255.908 -106.927 255.97 -112.692C256.032 -119.469 255.452 -126.382 254.094 -133.023C253.044 -138.146 246.983 -141.603 241.317 -141.689C236.589 -141.751 231.849 -141.702 227.121 -141.702" stroke="#222639" stroke-width="4" stroke-miterlimit="10" stroke-linecap="round" stroke-linejoin="round"/>
<path d="M-149.996 -149.121C-169.315 -143.01 -178.586 -128.332 -180.524 -109.581C-182.129 -94.113 -180.808 -78.3365 -180.858 -62.7082C-180.895 -50.1537 -184.401 -38.5003 -191.412 -28.1926C-201.202 -13.7987 -211.904 -0.0220551 -221.484 14.5199C-233.113 32.1728 -240.322 51.5045 -238.766 73.083C-237.939 84.6375 -233.989 95.0688 -225.99 104.019C-210.139 121.746 -189.573 132.004 -168.501 141.583C-157.44 146.62 -146.107 151.113 -135.232 156.52C-124.344 161.927 -116.9 170.63 -114.863 182.963C-111.345 204.257 -111.086 225.292 -120.998 245.291C-125.356 254.08 -131.985 260.623 -140.737 265.055C-156.181 272.856 -171.723 280.461 -186.993 288.571C-201.152 296.077 -213.472 305.854 -224.237 317.976C-234.088 329.074 -235.964 342.147 -233.545 355.084C-230.15 373.206 -224.138 390.896 -212.312 405.759C-197.572 424.288 -178.265 435.361 -154.909 438.349C-128.356 441.756 -111.024 431.93 -98.8028 407.598C-92.9761 396.007 -87.1987 384.353 -82.1868 372.404C-71.521 346.986 -52.2264 331.728 -26.5371 323.716C-13.4271 319.63 -0.2924 315.581 12.9904 312.1C18.5332 310.643 24.4586 310.446 30.2359 310.162C42.5682 309.557 54.9252 309.409 67.2698 308.841C81.1205 308.199 89.5889 300.163 94.3786 287.868C99.2177 275.449 98.8597 262.623 96.9833 249.611C95.0823 236.403 91.8974 223.712 83.2685 213.256C61.6653 187.073 35.0874 169.05 1.27538 161.755C-17.5255 157.693 -35.9437 151.706 -54.2755 145.781C-65.0277 142.312 -73.9776 135.905 -76.5083 123.708C-77.3971 119.437 -78.3354 115.067 -78.3107 110.759C-78.1872 90.4025 -82.2609 70.6387 -86.4458 50.8873C-90.0627 33.827 -92.0749 16.5444 -86.7667 -0.268962C-83.2485 -11.4162 -78.076 -22.3042 -72.0148 -32.328C-61.5712 -49.6229 -55.4361 -67.7201 -57.4853 -87.99C-58.7197 -100.298 -65.6327 -109.889 -74.7678 -117.531C-89.8036 -130.098 -106.642 -139.751 -125.307 -145.998C-133.109 -148.615 -141.145 -149.627 -149.379 -149.096" stroke="#222639" stroke-width="4" stroke-miterlimit="10" stroke-linecap="round" stroke-linejoin="round"/>
<path d="M275.895 326.148C267.426 328.617 259.057 330.913 251.736 336.53C234.108 350.048 230.973 374.774 240.108 390.945C246.082 401.525 256.39 402.673 266.599 401.253C284.684 398.76 301.14 392.069 314.817 379.268C333.766 361.528 323.989 337.641 304.324 329.136C295.214 325.186 285.844 326.432 276.512 326.148" stroke="#222639" stroke-width="4" stroke-miterlimit="10" stroke-linecap="round" stroke-linejoin="round"/>
<path d="M131.462 137.275C119.673 139.571 119.92 146.682 123.462 154.546C126.833 162.014 131.054 169.149 133.783 176.828C138.029 188.777 141.226 201.085 145.066 213.183C148.781 224.91 151.583 236.983 159.175 247.18C165.348 255.475 171.421 257.179 180.84 252.71C197.555 244.797 204.974 230.329 206.542 213.17C209.11 184.963 194.308 165.705 171.545 151.509C159.447 143.954 146.584 138.251 132.067 137.275" stroke="#222639" stroke-width="4" stroke-miterlimit="10" stroke-linecap="round" stroke-linejoin="round"/>
</g>
</g>
</svg>
