<svg width="487" height="591" fill="none" xmlns="http://www.w3.org/2000/svg"><rect width="487" height="591" rx="6" fill="#1C1F31"/><mask id="a" maskUnits="userSpaceOnUse" x="0" y="0" width="487" height="591"><rect width="487" height="591" rx="6" fill="#222639"/></mask><g opacity=".7" stroke="#222639" stroke-width="4" stroke-miterlimit="10" stroke-linecap="round" stroke-linejoin="round" mask="url(#a)"><path d="M636.975 288.497c-15.431 10.284-30.504 21.172-46.391 30.702-17.036 10.221-35.294 18.084-54.848 22.343-13.813 3-25.985-1.925-37.626-8.629-5.839-3.357-11.407-7.209-17.332-10.406-6.358-3.432-12.95-4.555-20.381-2.716-8.271 2.037-17.011 3.074-25.22-.518-5.852-2.556-10.975-6.197-13.024-12.876-1.815-5.888-1.024-9.369 3.765-12.937 2.506-1.864 5.173-3.679 8.024-4.913 11.789-5.111 17.875-14.345 20.394-26.591 2.666-12.998 5.221-26.071 8.752-38.848 2.95-10.703 7.259-21.023 10.962-31.516 2.79-7.901 2.592-16.048 1.148-24.06-2.679-14.813-13.011-23.615-25.195-30.911-18.085-10.814-37.244-19.838-53.761-33.244-13.987-11.37-28.257-22.393-42.589-33.33-6.345-4.84-13.209-8.987-19.69-13.654-13.147-9.48-15.406-19.11-12.838-29.565 3.073-12.555 12.369-18.702 27.01-20.517 11.554-1.432 23.479-1.444 33.985-7.876 12.344-7.542 21.158-17.282 19.516-32.738-.58-5.48-2.469-11.419-5.542-15.937-10.493-15.48-16.727-32.318-19.678-50.724-2.469-15.406-11.962-24.652-26.997-29.183-12.864-3.876-25.801-5.728-38.911-3.419-20.541 3.617-30.898 17.998-35.701 36.935-2.728 10.74-4.444 21.739-6.246 32.689-2.493 15.11-9.851 27.726-19.863 38.811-10.529 11.654-20.035 24.134-27.454 37.849-5.172 9.555-9.357 20.01-9.493 31.343-.123 10.703 4.888 18.171 14.122 23.541 12.752 7.42 26.924 10.555 40.775 14.752 9.715 2.95 19.517 5.716 28.973 9.345 10.999 4.21 16.048 13.468 17.233 24.591 2.098 19.887 7.147 38.49 19.109 55.007 6.222 8.58 11.678 17.777 16.653 27.146 5.098 9.58 9.197 19.678 13.69 29.566.531 1.172 1.013 2.432 1.222 3.703 2.334 14.147-4.086 21.369-18.492 21.665-12.74.259-25.121-2.222-37.676-3.543-14.394-1.506-28.787-.963-40.762 9.592-14.011 12.357-28.232 24.467-42.576 36.429-14.468 12.073-27.455 25.504-37.516 41.453-4.308 6.827-7.357 14.419-11.246 21.517-5.765 10.542-10.777 21.578-20.912 29.084-7.69 5.703-16.406 9.357-25.405 11.456-17.677 4.111-32.417 13.147-46.255 24.269-13.493 10.839-26.973 21.887-43.244 28.282-14.579 5.74-29.318 11.394-44.453 15.332-24.874 6.469-43.7 20.159-56.76 42.169-7.605 12.826-15.604 25.467-26.578 35.738-6.605 6.185-13.654 11.962-20.974 17.282-13.147 9.568-18.665 22.233-18.628 38.343.037 15.233 4.111 29.467 8.184 43.823 2.099 7.395 3.531 15.049 6.321 22.159 4.123 10.53 12.345 17.431 22.714 21.628 17.036 6.901 33.91 14.283 51.304 20.134 9.37 3.148 19.628 4.728 29.541 4.963 19.258.444 35.553-11.975 40.268-31.195 3.284-13.37 5.47-27.084 12.061-39.614 6.716-12.752 15.912-22.924 28.578-29.442 16.838-8.679 34.306-16.159 51.107-24.936 12.9-6.741 24.924-15.147 37.787-21.962 12.715-6.727 26.701-6.752 40.663-5.061 14.591 1.778 29.368 3.827 43.774.407 20.406-4.839 30.257-20.035 35.281-39.293 2.765-10.579 5.469-21.245 9.37-31.429 4.691-12.233 15.505-16.702 27.615-17.875 15.702-1.531 30.565 3.469 45.7 6.567 14.998 3.086 30.244 5.247 45.65 4.395 21.838-1.222 37.96-10.987 47.688-31.343 6.332-13.258 13.937-26.023 24.59-36.429 11.221-10.974 24.146-19.06 40.046-21.727 9.962-1.666 18.949 1.124 27.776 5.025 12.381 5.468 24.775 10.925 37.021 16.69 14.493 6.814 28.825 13.937 43.219 20.948 2.901 1.408 5.765 2.877 8.641 4.321"/><path d="M57.394 922.704c3.32-13.592 7.69-26.936 15.591-38.466 10.21-14.913 24.554-25.097 41.17-32.281 12.863-5.568 26.331-10.716 35.713-21.628 17.048-19.826 34.293-39.701 47.292-62.439 5.555-9.728 8.654-21.394 10.542-32.566 3.272-19.282 12.481-35.17 24.394-49.921 8.258-10.222 17.035-20.036 25.22-30.319 9.764-12.27 12.641-26.047 8.122-41.33-3.209-10.888-11.233-16.603-21.06-20.294-15.109-5.679-30.849-8.518-46.848-10.802-17.689-2.518-33.318 3.222-48.724 9.703-16.603 6.987-32.651 15.332-48.823 23.307-14.95 7.369-26.208 18.072-29.59 35.157-1.37 6.926-2.37 13.95-3.086 20.986-1.099 10.876-5.383 20.381-11.814 28.985C41.84 719.042 24.26 731.732 1.78 736.46c-10.925 2.296-22.245 2.691-33.28 4.555-12.21 2.074-24.308 4.802-36.43 7.345-4.148.864-8.357 1.692-12.332 3.123-15.345 5.543-14.9 15.616-8.395 26.319 5.247 8.629 12.518 16.172 19.58 23.517 8.023 8.345 16.17 16.776 20.615 27.368 4.345 10.369 7.58 21.517 9.283 32.639 2.889 18.851 5.456 37.664 12.554 55.526.766 1.914.864 4.099 1.284 6.148M636.666 466.878c-12.246-6.173-24.43-12.456-36.738-18.493-15.393-7.542-31.392-13.431-48.119-17.344-8.555-2-16.999-3.901-25.936-3.777-22.455.32-42.009 22.269-38.799 44.539 1.246 8.629 6.049 15.826 10.974 22.887 2.568 3.691 5.049 7.592 6.753 11.727 3.666 8.901.555 17.69-7.926 24.035-5.518 4.136-17.702 4.383-23.405-.074-6.197-4.839-11.851-10.381-17.986-15.319-7.518-6.049-16.838-8.049-25.924-9.765-14.085-2.654-28.306-4.864-42.577-6.172-16.196-1.494-32.516-2.667-48.736-2.333-11.333.234-20.937 5.752-25.937 16.986-7.468 16.789-8.888 34.12-4.258 51.835 2.851 10.9 10.172 18.418 19.677 24.109 14.357 8.604 29.837 14.308 46.329 16.431 9.111 1.173 18.53-.284 27.739.358 8.345.58 17.665-.136 23.344 7.962 2.382 3.395 4.505 7.642 4.851 11.666 1.111 12.628-.79 25.158-2.827 37.639-2.111 12.925-3.654 25.936-5.641 38.873-2.543 16.567 1.666 32.553 3.53 48.786 1.778 15.53 2.642 31.257 2.469 46.885-.21 18.233 5.259 34.837 11.999 51.206 7.123 17.257 19.838 29.121 36.96 36.466 18.035 7.74 32.368 19.862 42.601 36.7M636.666 155.792c-4.419-9.468-8.394-19.171-13.394-28.331-5.666-10.394-16.295-15.936-25.306-22.751-24.332-18.393-45.071-40.12-61.329-65.76-5.431-8.567-8.419-18.961-11.196-28.886-3.654-13.036-7.814-25.726-14.357-37.614-4.913-8.925-11.95-15.987-19.838-22.122-8.308-6.456-17.048-4.333-25.208.593-10.9 6.555-19.603 15.69-27.775 25.282-9.58 11.22-18.85 22.701-28.467 33.885-5.308 6.173-11.345 11.74-16.554 17.987-9.616 11.542-10.678 21.109-.617 37.564 10.073 16.493 24.751 28.208 41.317 37.652 11.839 6.752 24.159 12.715 35.713 19.887 19.912 12.382 31.677 30.022 30.788 54.205-.444 12.172-1.704 24.381-3.691 36.405-4.457 26.886 4.16 49.662 21.282 69.623 5.061 5.901 10.32 11.765 18.221 15.246 12.739 5.629 24.541 4.123 36.528-.95 14.813-6.247 26.244-16.863 36.416-28.986 9.296-11.073 18.53-22.208 27.788-33.318"/><path d="M636.975 495.887c-16.875-8.851-33.515-18.159-50.724-26.319-7.184-3.407-15.492-5.814-23.356-6.049-11.345-.32-22.257 3.704-20.282 17.542 1.481 10.345 3.913 20.542 5.382 30.886.951 6.716 1.679 13.629 1.16 20.344-.777 10.148-8.74 15.925-15.937 21.53-16.529 12.875-34.885 23.467-49.267 39.021-9.32 10.073-14.283 22.443-16.591 35.775-1.087 6.259-1.765 12.814-1.185 19.097 1.407 15.246 7.234 19.258 18.949 20.578 15.838 1.79 32.145-.58 47.514 4.84 8.419 2.962 17.098 5.925 24.591 10.604 14.085 8.801 27.751 12.813 44.058 5.592 11.258-4.987 23.554-7.654 35.38-11.357M51.222 251.463c-2.172-11.258-8.048-20.319-15.986-28.454-9.95-10.221-20.048-20.307-33.442-25.751-18.714-7.617-38.219-12.332-58.587-10.456-13.518 1.247-21.295 10.333-24.517 22.751-2.382 9.222-3.604 18.838-4.37 28.356-.975 12.098-1.123 24.269-1.333 36.404-.26 15.122 8.469 20.776 20.937 21.196 18.504.617 35.725-4.259 53.119-9.37 13.64-3.999 27.614-6.838 41.28-10.727 4.975-1.42 9.728-4.024 14.184-6.74 6.037-3.679 7.506-10.148 8.69-16.579M85.786 367.503c-3.456-14.023-14.616-19.788-26.54-24.689-23.826-9.777-46.874-5.395-69.76 3.654-15.505 6.135-28.9 14.986-36.244 30.355-5.543 11.604-7.926 23.875-4.037 37.01 2.938 9.9 9.802 14.467 18.702 17.196 11.098 3.394 22.22 4.135 33.973 2.851 11.369-1.247 22.257-3.469 32.639-7.839 14.023-5.9 25.75-15.208 35.133-27.146 4.851-6.172 9.048-12.912 12.912-19.751 1.84-3.247 2.198-7.333 3.222-11.036M384.527 578.596c9.381-.889 18.319-2.493 26.627-7.876 18.06-11.69 17.307-36.071-2.555-45.823-16.493-8.098-33.862-10.802-51.823-7.283-16.517 3.234-23.109 18.85-16.196 34.503 7.616 17.233 21.553 23.961 39.009 25.899 1.469.161 2.888.79 4.32 1.197"/><path d="M-27.784 392.192c2.012 7.21 4.37 14.333 11.752 17.851 8.74 4.172 18.147 6.246 27.738 4.864 14.715-2.111 27.912-7.889 37.602-19.69 4.345-5.284 8.123-11.11 8.098-18.455-.024-7.494-3.407-12.851-9.85-16.715-10.16-6.111-20.863-6.777-32.134-4.296-10.764 2.37-20.739 6.123-29.713 12.875-7.889 5.926-11.345 13.925-13.493 22.961M289.474 278.004c-17.814 3.889-33.442 12.123-48.231 22.727-22.516 16.146-39.058 36.318-47.589 63.031-3.925 12.259-8.382 24.406-15.801 35.306-7.876 11.567-18.739 16.875-32.195 18.517-13.11 1.605-26.763 1.222-38.823 7.469-9.407 4.876-18.764 10.221-27.11 16.69-18.442 14.295-38.996 24.343-60.611 32.54-12.95 4.913-26.146 9.419-37.578 17.394-13.085 9.11-21.948 21.985-29.713 35.7-11.357 20.097-21.825 40.775-35.874 59.193-8.937 11.715-10.209 23.887-6.21 37.762 7.074 24.554 20.715 43.429 44.64 53.502 7.381 3.111 15.492 5.604 23.405 6.061 16.307.938 25.232-6.073 31.552-21.294 4.272-10.271 8.605-20.653 14.283-30.183 9.753-16.369 25.307-25.973 42.404-33.479 17.95-7.888 37.195-13.147 53.07-25.306a369.91 369.91 0 0 0 21.591-17.9c8.295-7.407 16.838-14.332 27.837-17.184 8.715-2.259 17.393-2.432 26.566-1.691 12.517 1.012 25.541 2.395 37.651-3.851 11.27-5.815 17.22-15.332 19.628-27.233 1.691-8.345 2.617-16.85 3.777-25.294 1.63-11.838 9.32-18.776 19.147-24.072 13.492-7.271 27.973-10.727 43.206-10.407 11.974.26 23.047 4.235 34.022 9.012 12.48 5.444 25.393 9.53 39.441 9.555 15.394.025 27.306-5.802 36.441-18.023 11.111-14.876 20.258-30.961 28.195-47.626 6.506-13.653 3.21-22.43-10.962-28.862-8.061-3.654-16.64-6.222-24.615-10.036-14.369-6.864-24.677-18.665-35.268-30.121-11.555-12.505-21.295-26.664-35.677-36.577-13.554-9.345-27.985-15.135-44.527-15.295-5.147-.05-10.283-.013-15.43-.013"/><path d="M101.835 471.815c-29.676 8.469-56.699 22.579-82.721 38.861-13.246 8.283-23.233 19.233-26.949 34.639-1.42 5.876-1.456 12.419-.592 18.431.987 6.826 7.592 11.703 15.825 11.629 26.48-.247 52.613-3.247 77.117-14.16 11.098-4.938 19.209-13.888 25.159-24.084 7.296-12.518 12.925-25.936 16.912-39.997 4.382-15.418-5.629-26.578-19.813-25.343-1.432.123-2.876.012-4.321.012M-47.535 207.64c-14.79 3.259-20.172 21.085-18.085 34.59 1.543 10.036 5.74 18.381 15.134 21.121 6.518 1.914 14.345.124 21.455-.913 9.098-1.321 16.863-5.716 23.505-12.184 5.641-5.494 6.53-16.172 1.876-22.912-8.715-12.653-20.43-19.48-35.861-19.702-2.47-.037-4.938 0-7.407 0"/><path d="M-69.756 166.903c-17.813 2.938-23.862 15.356-26.01 31.466-2.062 15.48-4.642 30.911-7.395 46.292-1.74 9.703-5.308 18.851-11.702 26.517-6.667 7.987-15.974 12.085-25.258 16.085-18.294 7.888-34.713 18.64-49.353 32.121-3.642 3.345-7.049 6.937-10.506 10.48-7.036 7.197-10.332 15.74-10.616 25.912-.42 15.06 4.172 28.207 13.073 40.132 16.64 22.282 55.082 25.875 74.253 5.716 9.974-10.506 16.961-22.739 24.467-34.763 6.444-10.32 12.197-21.072 18.628-31.405 5.975-9.604 16.073-14.159 25.948-17.702a717.847 717.847 0 0 1 57.378-17.9c10.345-2.752 21.369-2.925 32.022-4.616 8.481-1.346 17.246-2.223 25.22-5.136 9.716-3.555 15.703-11.764 17.234-21.986 2.493-16.591 1.493-33.083-10.53-46.107-8.358-9.061-18.085-16.937-27.665-24.776-15.22-12.443-33.454-17.838-52.378-21.788-18.591-3.876-36.972-8.851-56.193-8.53M70.973 513.787c-9.123 1.988-16.888 6.358-22.8 13.617-4.1 5.036-1.84 12.023 4.283 14.159 9.987 3.506 25.208-3.296 29.01-12.962 3.185-8.111-.926-14.283-9.876-14.814M469.705-5.922c-23.578 5.234-36.849 22.06-47.576 41.947-6.358 11.777-4.481 22.776 3.271 32.639 7.049 8.962 16.172 15.875 26.418 21.072 11.073 5.63 22.64 10.419 33.232 16.838 17.986 10.901 29.059 27.122 32.775 47.996 2.185 12.259 2.851 24.455 1.617 37.059-1.198 12.184-1.049 24.949 1.234 36.935 3.642 19.06 14.357 33.701 34.257 38.787 9.937 2.543 18.64-2.617 24.43-9.876 12.493-15.628 22.109-33.157 29.849-51.674 6.963-16.641 2.383-32.294-4.432-47.49-6.727-14.999-16.467-28.121-28.318-39.515-14.69-14.123-29.788-27.825-44.342-42.07-9.962-9.753-17.888-20.987-22.356-34.48-3.37-10.184-6.802-20.418-11.185-30.207-5.32-11.888-15.221-17.653-28.256-17.961M57.394-61.473c-6.382 2.061-12.814 3.962-19.122 6.21-8.629 3.073-12.591 10.418-13.962 18.516-1.21 7.21-.481 14.777-.21 22.171.58 15.616.63 31.022-9.258 44.478-1.778 2.42-3.16 5.222-4.32 8.012-2.062 4.95-.47 11.443 3.036 13.554 3.32 2 11.9.037 14.764-3.74 2.506-3.309 5.124-6.728 6.74-10.493C40.569 24.359 50.16 15.903 62.27 9.41c13.801-7.407 27.294-15.394 40.737-23.443 4.235-2.543 8.074-5.863 11.74-9.209 10.913-9.962 6.889-21.084-1.358-28.158-7.999-6.864-18.257-9.654-28.85-10.011-8.838-.284-17.689-.062-26.54-.062"/><path d="M46.283-89.866c-3.493.617-7.011 1.135-10.493 1.864-25.146 5.259-36.972 22.48-41.342 46.28-1.765 9.653-2.987 19.406-5.036 28.985C-13.366.274-20.6 11.41-26.513 23.1c-4.21 8.307-7.839 16.961-7.382 26.516.74 15.567 7.172 27.566 21.467 35.318 12.48 6.765 25.85 9.74 39.59 11.505 14.616 1.889 27.145-8.765 31.49-25.825 1.692-6.629 3.05-13.43 5.654-19.714 6.889-16.64 19.382-28.11 35.726-35.12 9.604-4.124 19.64-7.321 29.59-10.555 11.616-3.766 23.282-7.481 30.8-17.987 10.295-14.393 9.407-32.145-.716-46.773-10.407-15.024-25.541-23.295-43.688-25.32-11.875-1.32-23.862-1.715-35.787-2.567-11.11-.79-22.22-1.642-33.33-2.457M117.882 440.954c-15.801 3.061-28.38 12.69-42.046 20.233-16.344 9.011-33.083 17.356-49.958 25.356-19.048 9.011-37.91 18.369-49.81 36.602-10.667 16.344-17.864 34.379-21.74 53.612-3.568 17.69-4.11 35.257 2.506 52.453 1.148 2.987 2.407 6.123 4.37 8.592 5.123 6.444 13.37 7.703 19.566 2.419 6.617-5.641 12.666-12.024 18.579-18.443 15.332-16.628 34.318-27.022 55.576-33.972 12.678-4.148 25.393-8.358 37.59-13.69 11.146-4.877 21.059-12.407 28.318-22.159 13.579-18.245 28.8-34.429 47.539-47.626 12.937-9.122 14.32-19.257 7.555-33.738-7.752-16.603-22.085-24.393-38.923-28.244-5.95-1.358-12.307-.975-18.48-1.383M285.77 301.459c-11.801 2.506-23.38 5.617-33.96 11.715-22.8 13.123-36.552 32.368-40.12 58.65-1.568 11.53-4.172 22.998-4.715 34.577-.766 16.233 4.728 28.492 25.096 29.59 15.332.827 29.8-4.073 44.404-7.505 17.826-4.185 35.454-9.209 53.094-14.135 5.691-1.592 11.407-3.506 16.628-6.197 13.876-7.172 17.715-20.344 18.456-34.466 1.284-24.171-10.061-42.565-27.615-58.069-14.715-12.999-32.158-15.221-50.663-14.135"/><path d="M36.408-114.555c-4.32.827-8.678 1.506-12.962 2.493-20.134 4.654-33.984 16.308-40.12 36.392-3.753 12.333-8.024 24.541-10.974 37.071-4.222 17.888-12.925 33.862-19.998 50.54-4.395 10.356-7.259 21.306-6.95 32.132.555 19.246 5.085 37.997 18.282 52.984 8.826 10.023 20.949 15.776 33.256 20.331 12.925 4.778 26.097 9.148 39.491 12.308 17.27 4.074 30.899 13.307 42.527 26.121 6.852 7.555 13.345 15.456 20.43 22.776 13.222 13.665 20.604 30.294 25.924 48.181 5.333 17.962 10.617 35.972 16.74 53.675 6.419 18.566 14.196 19.307 30.726 12.344 16.22-6.839 28.22-19.344 39.293-32.244 11.073-12.9 18.714-28.084 23.195-44.836 4.79-17.924 2.482-34.614-6.308-50.637-11.962-21.813-31.417-35.343-52.502-46.848-21.85-11.925-44.514-21.974-68.438-29.195-14.16-4.284-22.11-16.468-17.233-31.948 3.246-10.308 11.455-16.37 20.948-20.27 7.975-3.284 16.32-5.815 24.653-8.086 26.17-7.148 44.28-22.85 53.069-48.823 6.345-18.74 12.975-37.38 19.011-56.205 2.222-6.926-.086-11.518-7.32-13.419-7.469-1.963-15.283-2.63-22.789-4.518-12.628-3.197-25.072-7.135-37.7-10.308-5.617-1.407-11.468-2.098-17.258-2.506-22.072-1.531-44.305-.728-66.08-6.049-6.507-1.592-13.53-1-20.32-1.419"/><path d="M226.516-141.714c-12.555 2.469-25.01 5.703-37.676 7.222-16.776 2-33.726 2.629-50.588 3.901-10.086.765-20.159 1.765-30.245 2.432-16.159 1.061-31.787-2.605-47.54-5.457-16.788-3.037-33.663-2.432-50.612-.839-9.172.864-18.505.148-27.763.148-14.444 0-16.703 2.148-17.258 16.665-.123 3.284-.074 6.58-.012 9.876.654 31.047-6.666 60.118-20.863 87.721-5.172 10.06-9.394 20.714-12.937 31.467-4.099 12.393-4.037 25.466-1.852 38.181 2.358 13.703 5.987 27.196 9.098 40.762 5.518 24.023 20.69 38.96 43.824 46.281 11.295 3.58 22.541 7.295 33.96 10.443 18.134 4.987 35.231 12.024 49.304 24.813 12.296 11.184 25.171 21.764 34.133 36.269 7.037 11.369 9.975 23.998 13.37 36.515 4.049 14.937 4.814 30.355 3.58 45.638-1.05 12.974-6 24.541-17.048 32.788-7.333 5.468-15.839 6.592-24.072 5.271-17.024-2.728-34.01-6.111-51.255-4.543-15.888 1.444-31.047 6.197-45.762 12.641-10.073 4.407-19.702 9.061-27.75 16.776-14.358 13.752-20.666 31.491-25.184 50.058-3.049 12.517-4.148 25.294-3.913 38.256.173 9.542 6.012 15.418 15.566 15.542 19.628.247 38.8-2.778 58.057-6.111 16.518-2.851 32.467-6.604 47.564-14.233 12.617-6.382 23.788-14.74 33.714-24.381 16.652-16.184 34.91-29.751 55.723-39.935 10.518-5.148 17.567-13.875 23.369-23.516 10.937-18.184 24.961-33.405 40.638-47.675 22.974-20.875 44.552-43.231 60.687-70.155 4.604-7.691 9.628-15.135 14.134-22.875 5.617-9.678 6.012-20.06 1.803-30.182-8.345-20.06-19.653-38.38-34.516-54.317-9.913-10.641-23.122-16.332-35.726-22.936-12.258-6.432-24.714-12.703-34.589-22.788-11.308-11.555-9.53-19.295-1.272-29.628 9.148-11.443 18.641-22.664 27.023-34.663 6.95-9.95 12.122-21.134 18.788-31.294 6.037-9.197 12.542-18.208 19.752-26.516 12.875-14.863 19.961-31.825 21.541-51.317.469-5.79 2.197-11.518 2.259-17.283.062-6.777-.518-13.69-1.876-20.331-1.05-5.123-7.111-8.58-12.777-8.666-4.728-.062-9.468-.013-14.196-.013"/><path d="M-149.996-149.121c-19.319 6.111-28.59 20.789-30.528 39.54-1.605 15.468-.284 31.245-.334 46.873-.037 12.554-3.543 24.208-10.554 34.515-9.79 14.394-20.492 28.17-30.072 42.713-11.629 17.653-18.838 36.984-17.282 58.563.827 11.555 4.777 21.986 12.776 30.936 15.851 17.727 36.417 27.985 57.489 37.564 11.061 5.037 22.394 9.53 33.269 14.937 10.888 5.407 18.332 14.11 20.369 26.443 3.518 21.294 3.777 42.329-6.135 62.328-4.358 8.789-10.987 15.332-19.739 19.764-15.444 7.801-30.986 15.406-46.256 23.516-14.159 7.506-26.479 17.283-37.244 29.405-9.851 11.098-11.727 24.171-9.308 37.108 3.395 18.122 9.407 35.812 21.233 50.675 14.74 18.529 34.047 29.602 57.403 32.59 26.553 3.407 43.885-6.419 56.106-30.751 5.827-11.591 11.604-23.245 16.616-35.194 10.666-25.418 29.96-40.676 55.65-48.688 13.11-4.086 26.245-8.135 39.527-11.616 5.543-1.457 11.469-1.654 17.246-1.938 12.332-.605 24.69-.753 37.034-1.321 13.85-.642 22.319-8.678 27.109-20.973 4.839-12.419 4.48-25.245 2.604-38.257-1.9-13.208-5.086-25.899-13.715-36.355-21.603-26.183-48.18-44.206-81.993-51.501-18.8-4.062-37.219-10.049-55.55-15.974-10.753-3.469-19.703-9.876-22.233-22.073-.89-4.271-1.827-8.641-1.803-12.949.124-20.356-3.95-40.12-8.135-59.872-3.617-17.06-5.629-34.343-.32-51.156 3.517-11.147 8.69-22.035 14.751-32.059C-61.57-49.623-55.436-67.72-57.485-87.99c-1.235-12.308-8.148-21.899-17.283-29.541-15.036-12.567-31.874-22.22-50.539-28.467-7.802-2.617-15.838-3.629-24.072-3.098M275.895 326.148c-8.469 2.469-16.838 4.765-24.159 10.382-17.628 13.518-20.763 38.244-11.628 54.415 5.974 10.58 16.282 11.728 26.491 10.308 18.085-2.493 34.541-9.184 48.218-21.985 18.949-17.74 9.172-41.627-10.493-50.132-9.11-3.95-18.48-2.704-27.812-2.988M131.462 137.275c-11.789 2.296-11.542 9.407-8 17.271 3.371 7.468 7.592 14.603 10.321 22.282 4.246 11.949 7.443 24.257 11.283 36.355 3.715 11.727 6.517 23.8 14.109 33.997 6.173 8.295 12.246 9.999 21.665 5.53 16.715-7.913 24.134-22.381 25.702-39.54 2.568-28.207-12.234-47.465-34.997-61.661-12.098-7.555-24.961-13.258-39.478-14.234"/></g></svg>