<svg width="360" height="585" viewBox="0 0 360 585" fill="none" xmlns="http://www.w3.org/2000/svg">
<mask id="mask0" mask-type="alpha" maskUnits="userSpaceOnUse" x="0" y="0" width="360" height="585">
<rect width="360" height="585" fill="#181B2B"/>
</mask>
<g mask="url(#mask0)">
<g opacity="0.7">
<path d="M577.984 328.439C569.966 333.783 562.134 339.441 553.878 344.393C545.026 349.704 535.539 353.79 525.378 356.003C518.2 357.562 511.875 355.002 505.826 351.519C502.792 349.774 499.899 347.773 496.82 346.112C493.516 344.328 490.091 343.745 486.229 344.701C481.932 345.759 477.39 346.298 473.124 344.431C470.084 343.103 467.422 341.211 466.357 337.741C465.414 334.681 465.824 332.872 468.313 331.018C469.616 330.05 471.001 329.107 472.483 328.465C478.609 325.809 481.771 321.011 483.08 314.648C484.465 307.893 485.793 301.1 487.628 294.461C489.161 288.9 491.4 283.537 493.324 278.085C494.774 273.979 494.671 269.746 493.921 265.582C492.529 257.885 487.16 253.311 480.828 249.52C471.431 243.901 461.475 239.212 452.893 232.246C445.625 226.338 438.209 220.609 430.762 214.926C427.465 212.412 423.898 210.256 420.531 207.831C413.699 202.905 412.525 197.902 413.86 192.468C415.457 185.945 420.287 182.75 427.895 181.807C433.899 181.063 440.095 181.057 445.554 177.715C451.969 173.795 456.549 168.734 455.696 160.703C455.394 157.855 454.413 154.77 452.816 152.422C447.363 144.378 444.124 135.628 442.591 126.064C441.308 118.059 436.375 113.254 428.562 110.9C421.878 108.886 415.155 107.924 408.343 109.123C397.669 111.003 392.287 118.476 389.792 128.316C388.374 133.896 387.483 139.612 386.546 145.302C385.25 153.153 381.427 159.709 376.225 165.469C370.753 171.525 365.814 178.01 361.959 185.136C359.271 190.101 357.096 195.535 357.026 201.423C356.962 206.985 359.566 210.866 364.364 213.656C370.99 217.511 378.355 219.14 385.552 221.321C390.6 222.855 395.693 224.291 400.607 226.177C406.322 228.365 408.946 233.176 409.562 238.955C410.652 249.289 413.276 258.956 419.492 267.539C422.725 271.997 425.56 276.776 428.145 281.645C430.794 286.622 432.924 291.87 435.259 297.008C435.535 297.617 435.785 298.271 435.894 298.932C437.106 306.283 433.771 310.036 426.285 310.19C419.665 310.324 413.231 309.035 406.707 308.349C399.228 307.566 391.748 307.848 385.526 313.333C378.245 319.754 370.856 326.047 363.402 332.263C355.884 338.536 349.136 345.515 343.908 353.803C341.669 357.35 340.085 361.295 338.064 364.984C335.069 370.462 332.464 376.196 327.198 380.097C323.202 383.06 318.673 384.959 313.996 386.049C304.811 388.185 297.152 392.881 289.961 398.66C282.95 404.292 275.945 410.034 267.49 413.356C259.915 416.339 252.256 419.277 244.391 421.323C231.466 424.685 221.683 431.798 214.897 443.236C210.945 449.901 206.789 456.469 201.086 461.806C197.654 465.02 193.991 468.022 190.188 470.787C183.356 475.758 180.489 482.339 180.508 490.71C180.527 498.626 182.644 506.022 184.761 513.482C185.851 517.325 186.595 521.302 188.045 524.997C190.188 530.468 194.46 534.054 199.848 536.235C208.7 539.821 217.469 543.657 226.507 546.697C231.376 548.333 236.707 549.154 241.857 549.276C251.864 549.507 260.332 543.054 262.782 533.066C264.488 526.119 265.624 518.993 269.049 512.482C272.539 505.855 277.318 500.57 283.899 497.183C292.649 492.673 301.725 488.786 310.456 484.225C317.159 480.723 323.407 476.354 330.091 472.814C336.698 469.318 343.966 469.305 351.221 470.184C358.803 471.107 366.481 472.172 373.967 470.395C384.57 467.881 389.689 459.984 392.3 449.977C393.737 444.48 395.142 438.938 397.169 433.646C399.606 427.289 405.225 424.967 411.518 424.357C419.678 423.562 427.401 426.16 435.265 427.77C443.059 429.374 450.981 430.496 458.986 430.054C470.334 429.419 478.711 424.345 483.766 413.767C487.057 406.878 491.008 400.245 496.544 394.837C502.375 389.135 509.091 384.933 517.353 383.548C522.53 382.682 527.2 384.131 531.786 386.158C538.22 389 544.66 391.835 551.024 394.831C558.554 398.372 566.002 402.073 573.481 405.717C574.989 406.448 576.477 407.211 577.972 407.962" stroke="#F9FAFC" stroke-width="3" stroke-miterlimit="10" stroke-linecap="round" stroke-linejoin="round"/>
<path d="M-56.4222 658.153C-48.8722 648.249 -41.9764 637.902 -35.9531 627.01C-33.0601 621.788 -29.9939 616.644 -28.4223 610.71C-26.7865 604.527 -27.0111 598.612 -29.1856 592.736C-31.3025 587.021 -33.8683 581.472 -35.8376 575.706C-38.2174 568.733 -40.4305 561.677 -42.2394 554.537C-44.1831 546.859 -46.4218 539.277 -50.4052 532.471C-56.7622 521.598 -55.46 511.72 -48.1216 501.924C-41.0976 492.546 -34.497 482.854 -27.5114 473.443C-24.5799 469.498 -21.3341 465.739 -17.8959 462.224C-12.0008 456.214 -7.86982 449.215 -5.11794 441.332C-3.11016 435.591 0.668048 432.095 6.73629 430.664C11.8295 429.465 17.0511 428.4 21.5221 425.314C27.3465 421.292 31.1697 416.032 32.4462 408.944C33.6906 402.029 32.1447 395.249 31.933 388.405C31.7085 381.425 33.357 374.6 37.2251 368.519C41.2214 362.239 45.4935 356.094 49.0152 349.558C53.9095 340.487 52.0364 334.4 45.8591 327.825C43.0688 324.855 39.8936 322.244 36.9172 319.454C28.437 311.506 23.1385 301.454 17.917 291.268C14.1581 283.936 10.5595 276.463 5.19684 270.029C1.73935 265.885 -4.3225 263.473 -9.5825 264.961C-17.1005 267.085 -24.5607 269.407 -32.0401 271.671C-43.8431 275.25 -52.2013 270.459 -58.3337 262.363C-61.6886 257.937 -64.9344 253.492 -69.5273 250.131C-75.6597 245.634 -86.1155 246.834 -91.4718 252.004C-96.5457 256.898 -99.7338 262.71 -101.889 269.131C-104.603 277.213 -108.791 284.25 -114.763 290.299C-116.624 292.185 -118.311 294.263 -119.901 296.387C-125.463 303.796 -123.346 314.617 -115.405 320.717C-105.95 327.985 -96.6612 335.4 -88.4248 344.105C-84.2745 348.493 -79.3545 352.136 -75.0503 356.383C-67.6606 363.676 -63.0934 372.439 -62.5417 382.971C-62.3365 386.916 -62.035 390.951 -62.6251 394.819C-63.4398 400.15 -66.9037 403.813 -71.4517 406.77C-78.8542 411.587 -86.3529 416.449 -91.9785 423.416C-98.6818 431.716 -105.25 440.139 -111.53 448.76C-117.239 456.592 -122.365 464.848 -127.971 472.751C-134.745 482.302 -144.457 487.697 -155.548 490.301C-165.15 492.559 -174.977 493.848 -184.708 495.542C-192.188 496.844 -199.661 498.21 -207.166 499.365C-213.664 500.366 -220.188 501.251 -226.731 501.931C-237.315 503.028 -247.899 503.919 -258.175 507.043C-266.688 509.628 -275.155 508.301 -283.5 505.812C-291.833 503.329 -300.108 500.616 -308.543 498.531C-313.752 497.242 -319.275 497.229 -324.541 496.113C-331.129 494.714 -337.762 493.226 -344.087 490.955C-355.678 486.799 -367.102 482.219 -379.399 480.461C-384.864 479.678 -390.33 478.902 -395.75 477.87C-400.747 476.92 -404.32 473.758 -406.963 469.556C-409.234 465.958 -408.547 460.563 -405.712 457.368C-402.107 453.314 -397.514 450.659 -392.863 448.093C-386.93 444.821 -380.682 442.082 -375.544 437.502C-372.375 434.68 -369.039 432.043 -365.954 429.131C-361.682 425.096 -356.55 422.736 -350.854 422.569C-346.601 422.447 -342.322 423.865 -338.025 424.307C-330.552 425.077 -323.072 425.982 -315.573 426.174C-307.074 426.399 -298.671 427.014 -290.216 427.977C-283.558 428.727 -276.265 429.741 -270.376 424.647C-268.439 422.967 -266.213 421.325 -264.994 419.163C-260.459 411.119 -252.973 407.013 -245.006 403.53C-239.733 401.227 -234.422 398.931 -228.963 397.154C-221.137 394.608 -213.202 395.364 -205.242 397.019C-199.026 398.309 -192.708 399.733 -186.331 397.719C-177.242 394.851 -172.04 388.033 -168.396 379.751C-166.901 376.352 -166.491 372.83 -169.365 369.854C-170.673 368.5 -172.174 367.14 -173.848 366.358C-179.224 363.843 -184.747 361.636 -190.174 359.231C-201.56 354.183 -208.494 345.536 -210.675 333.258C-212.06 325.439 -211.246 317.67 -210.143 309.838C-208.308 296.836 -209.495 284.006 -214.274 271.697C-216.801 265.186 -219.546 258.733 -222.625 252.466C-226.686 244.21 -233.004 238.931 -242.774 238.956C-252.716 238.989 -262.698 238.443 -272.589 239.136C-279.709 239.636 -286.708 241.792 -293.77 243.12C-299.729 244.236 -305.669 244.518 -311.744 243.537C-316.914 242.703 -322.213 242.234 -327.447 242.273C-332.367 242.311 -337.274 243.389 -342.207 243.729C-347.756 244.114 -353.375 244.768 -358.872 244.268C-366.409 243.581 -373.844 243.434 -381.336 244.39C-386.346 245.031 -391.382 245.474 -396.411 246.019C-397.161 246.102 -397.982 246.064 -398.643 246.359C-406.565 249.855 -407.63 253.21 -403.076 262.017C-400.811 266.398 -398.329 270.6 -397.354 275.52C-395.898 282.833 -400.131 288.24 -405.706 290.299C-412.46 292.794 -419.17 292.044 -425.559 289.536C-431.73 287.118 -437.471 283.615 -443.597 281.069C-447.567 279.42 -451.833 278.022 -456.08 277.573C-465.933 276.533 -475.407 278.631 -484.638 282.191C-488.307 283.609 -489.603 285.963 -489.795 289.638C-490 293.603 -490.411 297.586 -491.065 301.499C-492.258 308.632 -496.402 314.059 -501.591 318.844C-504.035 321.096 -506.467 323.399 -508.628 325.913C-511.829 329.64 -515.325 332.989 -519.912 334.817C-525.839 337.177 -531.477 335.125 -536.141 331.821C-540.907 328.447 -545.096 324.111 -549.021 319.736C-558.303 309.376 -568.708 308.19 -580.139 318.241C-586.72 324.027 -592.718 330.468 -599.139 336.433C-604.123 341.065 -609.402 345.324 -616.106 347.389C-622.976 349.506 -629.217 348.403 -634.689 343.81C-639.089 340.115 -643.195 336.061 -647.582 332.341C-649.167 330.994 -651.181 330.16 -652.996 329.089" stroke="#F9FAFC" stroke-width="3" stroke-miterlimit="10" stroke-linecap="round" stroke-linejoin="round"/>
<path d="M-652.98 65.1206C-639.035 65.7172 -626.725 70.7911 -616.173 79.6433C-609.239 85.4614 -603.216 92.3507 -596.487 98.4254C-588 106.097 -579.148 113.371 -570.578 120.954C-566.678 124.405 -562.714 127.901 -559.41 131.897C-554.497 137.83 -555.382 144.431 -558.32 151.09C-560.064 155.041 -561.925 159.089 -562.72 163.284C-563.875 169.358 -560.821 174.625 -556.992 178.891C-549.621 187.095 -540.955 193.529 -529.826 195.998C-521.615 197.82 -514.251 195.633 -507.4 191.425C-502.833 188.622 -498.753 185.023 -494.173 182.245C-488.881 179.045 -483.089 177.146 -476.912 179.648C-470.369 182.297 -465.57 186.742 -464.442 194.055C-463.8 198.186 -465.622 201.919 -467.277 205.595C-469.727 211.047 -472.607 216.358 -474.557 221.984C-477.784 231.292 -477.822 240.939 -475.558 250.484C-473.942 257.284 -468.906 261.21 -462.44 262.557C-455.609 263.981 -448.578 264.532 -441.612 265.167C-439.412 265.366 -437.102 264.731 -434.889 264.257C-432.157 263.673 -430.412 261.877 -429.764 259.15C-428.853 255.315 -427.961 251.472 -427.198 247.604C-425.133 237.135 -418.237 231.965 -408.262 229.945C-400.327 228.341 -392.431 226.551 -384.522 224.832C-376.952 223.184 -369.492 223.684 -362.064 225.775C-356.323 227.392 -350.543 228.867 -344.744 230.253C-342.448 230.798 -340.055 230.977 -337.695 231.247C-329.997 232.126 -322.197 232.446 -314.628 233.96C-306.071 235.667 -297.821 235.237 -289.591 232.838C-280.149 230.086 -270.534 228.63 -260.726 227.963C-255.241 227.59 -249.84 226.038 -244.355 225.544C-230.346 224.287 -217.35 228.335 -211.75 244.442C-208.927 252.582 -207.163 261.088 -204.918 269.427C-203.308 275.412 -201.3 281.326 -200.229 287.407C-199.228 293.077 -199.107 298.825 -199.562 304.72C-200.236 313.418 -202.012 322.315 -199.126 330.994C-197.233 336.703 -193.596 340.873 -188.279 343.901C-181.543 347.743 -174.211 349.308 -166.745 350.546C-157.642 352.06 -148.303 352.31 -139.502 355.421C-136.724 356.403 -133.985 357.699 -131.496 359.27C-124.96 363.408 -125.479 370.438 -129.578 375.55C-133.087 379.925 -137.667 383.1 -142.703 385.5C-151.17 389.528 -158.239 395.314 -164.512 402.197C-167.867 405.879 -171.697 409.131 -176.399 410.78C-182.262 412.839 -188.291 414.513 -194.34 415.943C-202.975 417.983 -211.955 418.298 -220.333 421.71C-227.523 424.635 -231.763 429.857 -233.412 437.176C-235.522 446.541 -237.274 455.99 -239.243 465.387C-240.442 471.116 -239.981 476.485 -236.01 481.097C-232.726 484.914 -228.21 486.633 -223.508 487.819C-216.734 489.526 -209.909 489.487 -202.981 488.563C-197.15 487.787 -191.223 487.736 -185.354 487.184C-174.827 486.196 -164.147 486.235 -153.922 483.028C-143.71 479.827 -136.115 473.502 -130.771 464.149C-124.819 453.745 -118.455 443.571 -112.22 433.334C-107.775 426.034 -103.49 418.625 -98.6598 411.581C-95.9849 407.688 -92.4568 404.346 -89.102 400.965C-85.6701 397.508 -81.5199 394.705 -79.5185 390.022C-75.9584 381.676 -79.9034 373.196 -85.9524 368.898C-90.6158 365.589 -95.6192 362.76 -100.334 359.52C-103.978 357.019 -107.557 354.376 -110.912 351.496C-116.589 346.608 -122.4 341.803 -127.519 336.357C-131.676 331.931 -135.101 326.761 -138.456 321.655C-140.753 318.159 -142.292 314.175 -144.319 310.487C-147.263 305.124 -145.705 300.544 -141.689 296.734C-136.089 291.416 -130.419 286.13 -124.35 281.371C-117.557 276.034 -113.272 269.119 -109.994 261.402C-106.338 252.781 -101.861 244.769 -93.9322 239.291C-83.0979 231.805 -68.9536 231.029 -58.9981 241.542C-55.3546 245.391 -51.8843 249.4 -48.4075 253.403C-43.1154 259.49 -33.9361 261.152 -25.6612 256.848C-19.1632 253.467 -12.9602 249.516 -6.7124 245.673C-1.46522 242.44 2.03716 243.524 5.54596 246.924C8.90082 250.176 10.8444 254.224 12.8201 258.233C18.6254 270.036 24.1484 281.967 29.8831 293.802C34.8352 304.014 42.1094 312.219 51.3016 318.903C55.253 321.777 58.9927 325.138 62.168 328.846C66.6646 334.099 66.9405 340.341 63.7909 346.377C61.1352 351.47 57.9728 356.313 54.8553 361.15C51.0129 367.109 47.2539 373.107 45.631 380.098C45.0024 382.805 44.7972 385.641 44.6432 388.425C44.2391 395.904 44.6496 403.499 43.495 410.85C41.763 421.89 35.3035 430.299 26.3487 436.874C21.249 440.621 16.1301 444.373 11.3191 448.466C8.34274 450.993 6.08482 454.354 3.20464 457.016C-1.57426 461.442 -6.30187 466.016 -11.5747 469.801C-21.6777 477.062 -27.7716 487.095 -32.6852 498.108C-34.0708 501.213 -35.482 504.305 -36.8483 507.41C-40.7035 516.172 -39.613 524.697 -35.5654 533.068C-32.0502 540.342 -28.2078 547.482 -25.0967 554.929C-23.2878 559.259 -22.5052 564.051 -21.4789 568.676C-19.7726 576.354 -18.2074 584.058 -16.6487 591.762C-15.3016 598.44 -14.1213 605.13 -15.6672 611.968C-16.7513 616.779 -19.3107 620.853 -22.4667 624.426C-29.6896 632.617 -34.9753 642.046 -40.3507 651.425C-41.5824 653.574 -42.5125 655.902 -43.5837 658.147" stroke="#F9FAFC" stroke-width="3" stroke-miterlimit="10" stroke-linecap="round" stroke-linejoin="round"/>
<path d="M117.095 -33.6672C120.732 -26.6753 126.781 -22.2235 133.478 -18.6377C139.88 -15.2123 146.384 -11.9152 153.043 -9.02862C163.454 -4.51272 169.49 3.73008 173.525 13.8139C176.373 20.9405 179.452 28.0993 186.456 31.9416C190.831 34.3407 195.937 35.5274 200.825 36.8488C208.234 38.8566 215.444 40.9991 220.717 47.1443C226.452 53.822 229.563 61.4939 229.986 70.2563C230.333 77.3957 229.518 84.4326 228.119 91.431C227.6 94.0417 227.581 96.7615 227.44 99.4428C227.164 104.825 225.342 106.294 220.05 105.21C211.666 103.49 203.782 100.341 195.989 96.8898C186.925 92.8743 177.912 88.7368 168.707 85.0805C161.087 82.0528 154.043 83.201 148.912 90.1865C147.148 92.5856 145.833 95.3952 144.723 98.1792C140.297 109.315 139.938 121.028 140.188 132.799C140.297 137.822 140.771 142.876 140.419 147.867C139.912 154.949 135.813 160.485 131.541 165.841C127.615 170.761 122.932 175.206 120.674 181.242C118.827 186.175 116.819 191.172 115.966 196.323C114.908 202.738 114.548 209.345 114.619 215.862C114.747 228.024 119.212 238.243 129.251 245.735C133.189 248.679 136.672 252.227 140.534 255.286C146.147 259.732 152.934 261.893 159.425 264.645C165.25 267.115 170.946 269.79 174.852 275.185C182.999 286.429 179.394 303.441 165.243 307.713C155.942 310.523 148.052 309.458 141.137 302.479C140.502 301.837 139.565 301.485 138.918 300.85C131.964 293.96 126.794 298.373 124.568 305.385C123.093 310.035 122.573 314.981 121.579 319.786C120.328 325.841 117.955 331.402 114.972 336.848C112.759 340.896 110.982 345.444 110.263 349.966C109.75 353.206 110.751 357.01 112.066 360.153C116.89 371.68 122.073 383.092 129.039 393.503C133.722 400.501 140.393 405.581 147.577 409.898C156.731 415.396 164.833 422.234 172.947 429.11C178.579 433.876 179.792 439.47 177.393 446.154C175.058 452.678 172.748 459.22 170.324 465.712C166.622 475.642 166.424 485.835 167.758 496.188C168.47 501.737 169.368 507.292 169.618 512.866C169.932 519.973 167.764 526.728 165.506 533.38C164.692 535.779 163.556 538.076 162.652 540.449C159.355 549.077 152.574 553.56 144.03 555.459C131.31 558.288 120.495 564.728 110.392 572.548C102.572 578.597 95.1056 585.095 87.2348 591.067C80.9485 595.839 73.7385 598.809 65.7843 599.419C60.2421 599.848 54.6485 599.675 49.1127 600.163C44.4364 600.573 39.5484 600.477 35.6163 603.928C30.831 608.13 28.1753 613.191 27.8738 619.663C27.6108 625.25 29.1183 630.478 30.5744 635.681C32.6463 643.096 32.4154 650.614 32.4282 658.151" stroke="#F9FAFC" stroke-width="3" stroke-miterlimit="10" stroke-linecap="round" stroke-linejoin="round"/>
<path d="M-274.199 -33.9883C-275.482 -28.8566 -276.579 -23.6671 -278.086 -18.606C-281.903 -5.78313 -281.159 6.73824 -275.732 18.9004C-274.16 22.422 -271.71 25.5459 -269.715 28.8816C-267.226 33.0318 -264.288 37.0089 -262.434 41.4286C-258.194 51.5316 -251.433 59.3767 -242.081 64.7137C-232.112 70.3971 -224.723 78.5757 -218.122 87.6075C-213.401 94.0671 -208.962 100.745 -204.645 107.486C-201.027 113.131 -197.826 119.046 -194.324 124.768C-190.148 131.593 -184.259 136.558 -177.011 139.823C-171.661 142.235 -165.965 142.895 -160.371 141.061C-154.174 139.027 -147.888 136.955 -142.121 133.966C-131.403 128.398 -120.017 127.256 -108.393 128.129C-101.799 128.623 -96.0451 132.202 -90.4002 135.647C-83.0233 140.156 -75.3386 143.851 -66.371 144.063C-54.8182 144.332 -43.2783 145.108 -31.7319 145.198C-27.1391 145.237 -22.4628 144.351 -17.9597 143.299C-12.4367 142.01 -6.91372 141.439 -1.26243 141.414C4.08096 141.394 9.45642 141.285 14.7677 140.746C21.3299 140.086 24.2999 135.64 22.4396 129.598C20.3228 122.715 18.02 115.89 15.7235 109.064C13.6259 102.842 9.81568 97.9159 4.54285 93.9452C-2.34005 88.7686 -9.60785 84.3746 -17.6069 81.1352C-30.6735 75.8431 -42.7651 77.0234 -54.2281 85.5805C-60.1809 90.0259 -67.192 92.2068 -74.7036 91.9887C-77.0706 91.9182 -79.7262 91.5205 -81.6891 90.3402C-85.0889 88.3003 -86.1922 84.4644 -85.4866 80.8593C-84.3384 74.9964 -82.5487 69.2424 -80.7397 63.5334C-79.7904 60.5378 -77.7505 57.8565 -77.0449 54.8352C-75.2745 47.2146 -77.712 42.2176 -86.2563 41.4735C-89.8485 41.1592 -93.5177 41.807 -97.1548 42.0251C-105.269 42.5127 -112.697 40.6845 -118.952 35.277C-126.547 28.7084 -133.737 21.6972 -142.333 16.3025C-151.493 10.5549 -160.993 5.54512 -170.917 1.2858C-177.62 -1.58796 -184.298 -4.46172 -190.193 -8.93913C-196.03 -13.3716 -198.583 -19.6131 -200.392 -26.3035C-201.065 -28.7988 -201.284 -31.4224 -201.713 -33.9883" stroke="#F9FAFC" stroke-width="3" stroke-miterlimit="10" stroke-linecap="round" stroke-linejoin="round"/>
<path d="M-295.687 -33.9883C-296.65 -29.9278 -297.387 -25.7904 -298.625 -21.8197C-300.524 -15.7322 -300.453 -9.52286 -299.094 -3.55084C-296.682 7.06538 -294.546 17.8805 -289.202 27.5473C-286.835 31.8387 -283.75 35.7388 -280.921 39.7672C-276.418 46.1882 -273.557 53.4175 -270.683 60.6276C-268.181 66.9268 -263.775 71.3529 -257.835 74.4191C-253.967 76.414 -250.118 78.4539 -246.288 80.513C-239.739 84.0282 -236.018 89.9104 -233.497 96.5624C-228.969 108.519 -222.881 119.617 -215.819 130.226C-211.893 136.121 -208.275 142.286 -206.659 149.182C-205.575 153.813 -205.478 158.784 -205.639 163.576C-205.902 171.396 -202.419 176.149 -195.311 179.042C-188.364 181.871 -181.269 183.513 -173.796 183.102C-168.305 182.801 -164.649 179.241 -161.634 175.103C-154.148 164.84 -144.321 157.726 -132.396 153.698C-119.65 149.387 -107.732 151.433 -96.7952 159.387C-92.3113 162.646 -87.7377 165.815 -82.9973 168.669C-73.8628 174.173 -63.9779 174.564 -53.8363 172.229C-47.6205 170.799 -41.501 168.554 -35.2146 167.938C-28.1329 167.245 -20.9036 167.887 -13.7448 168.111C-10.7428 168.207 -7.74074 168.599 -4.76435 169.054C6.68577 170.818 18.1102 172.723 29.5604 174.462C35.3143 175.334 41.1195 176.668 46.8735 176.527C52.2425 176.399 57.6116 174.763 62.9036 173.467C67.5607 172.326 72.1215 170.78 76.7015 169.343C81.6023 167.803 82.6414 166.585 82.4297 161.658C82.2309 157.052 81.6729 152.453 81.1789 147.867C80.5952 142.408 79.973 136.949 79.2545 131.509C78.1705 123.337 74.4885 116.3 69.3054 110.033C64.4752 104.189 59.3114 98.6151 54.6223 92.6559C50.3758 87.2611 48.5092 80.7503 47.1814 74.0983C46.604 71.1989 46.232 68.2033 45.2057 65.4578C42.2998 57.7218 38.3933 56.9969 31.4719 59.659C26.1349 61.7117 20.8813 64.0594 15.4096 65.6695C9.48252 67.4079 3.42713 66.4585 -2.52565 65.1242C-12.6672 62.8535 -22.1993 58.9662 -31.3851 54.2001C-37.6522 50.9479 -41.1482 45.6173 -42.63 38.8178C-43.3099 35.7003 -43.7718 32.4802 -44.9264 29.5423C-48.2043 21.2161 -55.5811 18.1114 -63.484 16.4692C-71.8358 14.7309 -80.348 13.7687 -88.8025 12.5307C-96.9363 11.3375 -104.801 9.22711 -112.556 6.48807C-122.627 2.92794 -132.871 -0.125421 -143 -3.53801C-151.91 -6.53364 -160.922 -9.31759 -169.582 -12.929C-178.588 -16.6816 -184.393 -23.6607 -186.645 -33.3404C-186.716 -33.5906 -187.068 -33.7766 -187.28 -33.9883" stroke="#F9FAFC" stroke-width="3" stroke-miterlimit="10" stroke-linecap="round" stroke-linejoin="round"/>
<path d="M-179.578 -33.9877C-178.404 -31.8517 -177.423 -29.5745 -176.012 -27.5987C-171.534 -21.3124 -164.94 -18.4258 -157.781 -16.2962C-150.385 -14.0959 -142.829 -14.0446 -135.324 -14.5321C-126.914 -15.0774 -119.717 -12.3512 -112.866 -8.00845C-103.828 -2.28019 -94.0839 1.40182 -83.3586 2.24855C-77.6945 2.69757 -72.0303 3.13377 -66.3598 3.52506C-62.6201 3.78806 -58.8675 4.23708 -55.1342 4.11521C-48.5014 3.90352 -41.8815 3.26206 -35.2488 2.90284C-25.6012 2.38325 -21.8679 8.86204 -21.5343 16.6815C-21.3355 21.3706 -21.8422 26.0918 -22.1116 30.7873C-22.7339 41.7499 -16.6848 46.1888 -8.98086 49.1395C2.6617 53.5913 12.9893 50.9805 22.7972 44.2644C24.7024 42.9558 26.6268 41.6729 28.5704 40.4156C34.9273 36.3038 41.868 35.3866 48.7188 38.2924C54.5754 40.7748 57.7313 45.9643 58.6999 52.2827C59.6301 58.3638 60.5795 64.4513 61.2466 70.5644C62.1896 79.2498 66.8787 85.9531 72.5556 92.0021C80.0158 99.9499 87.9186 107.461 96.5143 114.235C101.473 118.148 103.288 124.095 105.277 129.874C106.348 132.979 107.772 136.019 109.459 138.835C111.011 141.433 113.744 143.005 116.752 142.62C119.947 142.209 121.781 139.528 122.474 136.616C124.206 129.322 123.725 121.888 123.154 114.505C122.506 106.172 120.479 97.91 122.211 89.4812C123.43 83.5669 126.253 78.4159 129.954 73.7974C137.497 64.3807 145.65 55.644 156.177 49.3256C163.207 45.1047 166.293 36.6374 164.541 28.2342C163.502 23.2501 162.386 18.3108 159.801 13.7692C155.811 6.77728 149.576 2.28062 143.052 -1.88889C135.977 -6.41121 128.696 -10.6 121.595 -15.0966C114.751 -19.4329 109.164 -24.9495 106.168 -32.7048C105.982 -33.1859 105.546 -33.5644 105.225 -33.9941" stroke="#F9FAFC" stroke-width="3" stroke-miterlimit="10" stroke-linecap="round" stroke-linejoin="round"/>
<path d="M95.6079 452.56C94.325 451.598 92.6058 450.899 91.8297 449.629C87.8911 443.176 87.6794 436.036 92.4391 430.141C94.9985 426.972 97.821 423.977 100.765 421.161C106.872 415.33 108.296 408.408 106.93 400.268C105.769 393.347 103.979 386.81 99.4054 381.403C97.1218 378.702 94.6521 375.899 91.695 374.09C83.837 369.285 78.1601 372.191 73.7853 378.785C69.3913 385.412 67.4476 392.795 67.1076 400.608C66.8767 405.945 66.8062 411.314 67.1205 416.638C67.6978 426.619 64.7471 434.586 55.8757 440.116C48.1075 444.959 40.4035 449.988 33.1486 455.562C27.9014 459.591 23.084 464.331 18.7413 469.334C14.8541 473.818 10.5691 477.667 5.81583 481.125C1.6848 484.133 -2.54885 487.058 -6.32707 490.471C-10.8622 494.563 -12.761 500.259 -12.9983 506.129C-13.2998 513.525 -9.64989 519.253 -3.15186 522.762C6.53424 527.99 14.0266 535.04 18.0806 545.547C19.2352 548.542 21.1981 551.307 23.1738 553.879C26.5158 558.216 31.6476 559.819 36.6189 560.846C44.2652 562.43 51.3854 565.066 58.0823 568.992C68.1725 574.907 77.8329 573.066 87.2689 567.382C94.357 563.104 100.881 558.107 106.526 552C112.927 545.072 121.093 540.575 128.938 535.585C137.393 530.216 141.312 522.274 141.55 512.223C141.716 505.263 139.702 498.733 138.605 492.01C137.354 484.338 137.348 476.673 138.175 468.911C139.022 460.938 139.452 452.887 139.452 444.869C139.452 438.268 134.699 432.887 128.329 431.084C124.339 429.955 121.414 432.457 118.431 434.349C117.013 435.247 116.064 436.876 114.858 438.127C109.297 443.907 103.761 449.738 95.9415 452.567" stroke="#F9FAFC" stroke-width="3" stroke-miterlimit="10" stroke-linecap="round" stroke-linejoin="round"/>
<path d="M276.82 657.992C278.546 650.93 280.817 643.996 284.922 638.004C290.227 630.255 297.681 624.963 306.315 621.23C312.999 618.337 319.997 615.662 324.872 609.992C333.731 599.69 342.692 589.362 349.447 577.546C352.333 572.492 353.944 566.43 354.925 560.625C356.625 550.605 361.41 542.349 367.6 534.684C371.892 529.372 376.452 524.273 380.705 518.929C385.779 512.553 387.274 505.395 384.926 497.453C383.258 491.796 379.089 488.826 373.983 486.908C366.131 483.957 357.953 482.481 349.639 481.295C340.447 479.986 332.326 482.969 324.321 486.337C315.693 489.967 307.354 494.304 298.951 498.448C291.183 502.277 285.333 507.839 283.575 516.716C282.863 520.315 282.343 523.965 281.971 527.621C281.4 533.273 279.174 538.212 275.832 542.683C268.738 552.164 259.603 558.758 247.922 561.215C242.245 562.408 236.363 562.613 230.629 563.582C224.284 564.659 217.998 566.077 211.699 567.398C209.544 567.847 207.356 568.277 205.291 569.021C197.317 571.902 197.548 577.136 200.929 582.697C203.655 587.181 207.433 591.101 211.102 594.917C215.272 599.254 219.506 603.635 221.815 609.138C224.073 614.527 225.753 620.319 226.639 626.099C228.14 635.894 229.474 645.67 233.162 654.952C233.56 655.946 233.611 657.081 233.829 658.146" stroke="#F9FAFC" stroke-width="3" stroke-miterlimit="10" stroke-linecap="round" stroke-linejoin="round"/>
<path d="M-284.778 -33.9883C-286.491 -27.0412 -288.64 -20.1583 -289.756 -13.1151C-290.481 -8.54142 -290.186 -3.65988 -289.487 0.958657C-288.217 9.27203 -286.177 17.4507 -281.571 24.7056C-278.376 29.7411 -275.009 34.6676 -271.994 39.8057C-268.921 45.04 -266.073 50.4219 -263.321 55.8295C-260.249 61.8785 -255.046 65.5412 -249.523 68.9987C-244.828 71.9366 -240.113 74.913 -235.764 78.332C-230.453 82.5079 -227.56 88.6339 -224.179 94.3109C-219.541 102.092 -215.083 109.982 -210.343 117.699C-206.218 124.421 -202.106 131.189 -197.456 137.539C-193.62 142.78 -189.271 147.726 -184.639 152.28C-179.861 156.982 -173.529 156.918 -167.41 155.827C-158.923 154.32 -151.373 150.182 -143.682 146.552C-135.625 142.741 -127.357 139.855 -118.331 140.214C-111.025 140.503 -104.11 142.491 -97.8109 146.282C-92.0955 149.727 -86.6109 153.589 -80.7415 156.732C-77.8934 158.258 -74.4359 158.919 -71.1709 159.342C-63.8839 160.285 -56.8534 157.906 -49.6883 157.174C-46.3783 156.834 -43.062 156.289 -39.7456 156.251C-28.3083 156.135 -16.8582 155.956 -5.43372 156.308C1.00016 156.507 7.39556 157.726 13.8166 158.451C18.8393 159.015 23.8555 159.702 28.891 160.003C32.3998 160.208 35.9792 160.138 39.4623 159.682C46.7237 158.733 51.3102 154.038 54.5175 147.86C57.9172 141.324 59.816 134.422 58.0263 127.032C56.7498 121.759 53.6708 117.577 49.4243 114.171C43.1764 109.161 37.7753 103.445 33.9714 96.2545C29.4363 87.6845 21.7066 83.7267 12.5594 81.3469C4.27166 79.1852 -3.82362 76.1767 -11.8227 73.072C-21.6371 69.2681 -31.5734 66.0736 -41.9907 64.4507C-44.2615 64.0979 -46.5195 63.5206 -48.7197 62.8471C-51.9462 61.8656 -54.3132 59.8899 -55.1343 56.4581C-56.3338 51.4418 -57.2319 46.3294 -58.7265 41.4029C-61.3052 32.9228 -67.4889 28.3043 -75.9883 26.6493C-81.9283 25.4946 -87.8554 25.0969 -93.9557 25.8988C-103.045 27.0855 -111.173 23.8204 -118.62 18.9068C-128.229 12.5756 -138.736 8.02759 -149.128 3.2551C-157.48 -0.580854 -166.095 -3.85873 -174.421 -7.746C-182.644 -11.582 -189.354 -17.1242 -192.074 -26.2971C-192.818 -28.8309 -193.37 -31.4224 -194.011 -33.9883" stroke="#F9FAFC" stroke-width="3" stroke-miterlimit="10" stroke-linecap="round" stroke-linejoin="round"/>
<path d="M261.746 658.151C265.486 651.525 269.534 645.046 272.901 638.227C277.783 628.355 285.243 621.222 294.794 616.155C307.175 609.592 318.387 601.548 327.817 591.112C333.956 584.325 338.927 576.884 340.614 567.692C341.32 563.875 341.993 560.014 342.186 556.146C342.551 548.782 346.233 543.066 350.563 537.53C354.418 532.591 358.395 527.703 361.705 522.405C364.085 518.588 366.164 514.284 367.094 509.928C368.338 504.072 364.598 498.087 356.375 494.86C346.022 490.8 335.996 492.776 326.258 496.605C320.164 498.998 313.904 501.416 309.202 506.426C306.373 509.434 304.949 512.866 305.026 517.029C305.135 522.751 305.205 528.531 302.139 533.694C300.689 536.138 299.144 538.57 297.322 540.744C284.153 556.454 267.135 566.499 248.288 573.824C245.03 575.088 241.835 576.525 238.666 577.988C231.706 581.201 228.307 586.031 230.757 594.621C234.189 606.642 235.215 619.054 237.711 631.216C239.372 639.305 242.913 646.547 248.012 652.994C249.546 654.931 251.605 656.451 253.42 658.158" stroke="#F9FAFC" stroke-width="3" stroke-miterlimit="10" stroke-linecap="round" stroke-linejoin="round"/>
<path d="M133.453 -33.9883C138.726 -29.1067 145.558 -27.4518 152.081 -25.4119C163.313 -21.9031 170.921 -14.4172 176.38 -4.4553C178.811 -0.0163695 180.671 4.73046 182.852 9.30409C187.535 19.1506 195.149 25.1739 205.926 27.3228C210.159 28.1695 214.393 29.3113 218.421 30.8637C226.452 33.962 230.641 40.8256 234.131 48.1319C237.152 54.4567 239.519 61.0317 240.558 68.0044C241.18 72.1611 241.764 76.3306 242.156 80.513C243.034 89.9489 249.045 95.8632 258.853 96.5816C268.064 97.2552 277.295 97.3642 286.461 98.9935C293.607 100.27 300.875 100.45 307.957 97.5759C313.345 95.3885 316.873 91.2382 320.029 86.8635C324.641 80.4745 328.663 73.6686 332.948 67.0422C337.176 60.4993 338.491 53.0455 339.677 45.5532C341.031 37.0217 340.338 28.5801 338.394 20.2154C335.636 8.33549 331.017 -2.55015 320.363 -9.50362C316.854 -11.7936 312.55 -12.8905 308.56 -14.4044C303.486 -16.3288 298.162 -17.3423 293.421 -20.4021C288.123 -23.8275 284.781 -28.4717 282.273 -33.9883" stroke="#F9FAFC" stroke-width="3" stroke-miterlimit="10" stroke-linecap="round" stroke-linejoin="round"/>
<path d="M493.313 658.152C488.63 653.289 482.446 650.993 476.269 649.325C469.207 647.42 465.903 642.994 464.421 636.348C462.157 626.175 459.662 616.046 457.436 605.866C456.794 602.941 456.576 599.894 456.461 596.892C456.153 588.983 456.55 581.003 455.62 573.177C454.799 566.243 452.342 559.52 451.034 552.618C449.584 544.972 448.628 537.236 447.435 529.538C447.153 527.717 447.025 525.824 446.428 524.099C445.286 520.802 440.905 518.903 436.21 519.249C432.156 519.551 428.089 519.865 424.022 519.878C415.266 519.904 407.004 521.95 398.998 525.35C391.692 528.454 385.2 532.707 379.761 538.519C374.238 544.414 370.896 551.303 369.78 559.36C368.445 568.988 364.853 577.507 358.034 584.781C352.12 591.087 345.77 597.187 341.645 604.936C338.297 611.222 335.25 617.675 332.337 624.173C329.906 629.594 325.891 632.609 320.105 633.455C316.577 633.975 313.036 634.437 309.521 635.072C300.656 636.669 294.607 641.968 290.61 649.819C289.225 652.545 288.025 655.368 286.742 658.152" stroke="#F9FAFC" stroke-width="3" stroke-miterlimit="10" stroke-linecap="round" stroke-linejoin="round"/>
<path d="M118.697 265.896C118.639 260.424 115.522 256.235 112.545 252.149C108.036 245.953 106.503 239.083 106.092 231.584C105.669 223.861 104.489 216.182 103.616 208.485C102.654 200.024 96.8423 196.169 89.4911 194.103C83.2561 192.352 76.9569 190.601 70.5615 189.696C64.705 188.869 58.765 189.799 52.9341 191.127C47.8473 192.281 42.6643 193.019 37.5518 194.071C32.2598 195.161 27.9363 197.118 26.5379 203.327C24.8508 210.807 22.3428 218.1 20.2388 225.483C17.8974 233.707 18.8981 241.809 21.1945 249.859C25.7233 265.716 33.0359 280.341 41.4583 294.402C46.4618 302.754 54.2235 308.354 62.5882 313.005C69.9201 317.078 77.3354 320.882 83.8014 326.431C91.0371 332.634 96.8231 328.785 99.9534 320.683C102.25 314.75 102.968 308.226 104.989 302.164C107.035 296.038 109.582 290.047 112.34 284.203C115.086 278.379 117.869 272.612 119.011 266.21" stroke="#F9FAFC" stroke-width="3" stroke-miterlimit="10" stroke-linecap="round" stroke-linejoin="round"/>
<path d="M300.875 -33.9883C304.32 -29.6199 309.143 -26.9065 314.076 -25.1553C327.085 -20.5432 335.739 -11.3254 342.532 0.0349443C347.971 9.1309 353.077 18.4514 359.928 26.5979C362.353 29.4781 365.182 32.0311 367.914 34.6419C376.625 42.9617 381.212 53.5073 384.631 64.7843C386.825 72.0264 389.365 79.1723 392.014 86.2669C393.239 89.5512 395.856 91.5782 399.314 92.7585C405.793 94.9715 412.458 96.0171 419.219 96.5239C424.017 96.8831 428.847 97.2616 433.645 97.1397C447.449 96.7869 457.174 90.7251 461.882 77.3121C463.319 73.2259 464.788 69.1526 466.379 65.1307C468.855 58.8764 468.938 52.9813 464.455 47.4712C459.894 41.8648 455.532 36.0916 450.952 30.498C445.474 23.8076 439.887 17.2005 434.28 10.6063C429.264 4.7048 422.958 0.650749 415.684 -1.90228C407.929 -4.62208 400.879 -8.26559 396.094 -15.3666C392.996 -19.9659 391.931 -25.1682 390.988 -30.4602C390.795 -31.5315 390.564 -32.5963 390.353 -33.6675" stroke="#F9FAFC" stroke-width="3" stroke-miterlimit="10" stroke-linecap="round" stroke-linejoin="round"/>
<path d="M330.387 -33.9883C343.832 -20.7228 353.524 -4.51303 365.109 10.2086C369.061 15.2312 373.756 19.7535 378.554 24C385.161 29.8438 388.022 37.4772 390.383 45.5532C392.981 54.4503 395.098 63.4436 399.222 71.9174C405.63 85.1059 425.74 89.6602 437.235 81.5457C442.964 77.5045 445.305 71.7762 446.793 65.4386C449.449 54.1103 445.164 44.6744 438.095 36.3097C433.714 31.1203 428.89 26.2772 424.002 21.5496C418.979 16.6873 412.423 14.9746 405.759 13.8392C399.562 12.7808 393.962 10.927 389.671 5.84661C385.039 0.362092 380.485 -5.25713 379.606 -12.4993C378.747 -19.581 379.035 -26.8103 378.824 -33.969" stroke="#F9FAFC" stroke-width="3" stroke-miterlimit="10" stroke-linecap="round" stroke-linejoin="round"/>
<path d="M77.9675 555.518C85.742 554.992 91.5794 550.912 96.9292 545.614C101.875 540.719 107.058 536.056 112.324 531.508C115.095 529.115 118.546 527.48 121.215 524.991C128.945 517.787 127.642 508.762 121.504 501.706C117.68 497.312 112.183 497.754 106.833 498.389C98.0838 499.428 89.796 499.262 82.6822 492.436C76.9219 486.907 72.3483 480.621 68.0376 474.046C65.3242 469.902 62.2773 466.085 57.7549 463.808C52.0844 460.947 46.7218 462.236 41.3912 465.046C35.9323 467.926 31.9938 472.436 28.6646 477.324C23.8921 484.341 17.7405 489.736 10.9538 494.611C7.4963 497.093 4.72517 500.051 4.77007 504.849C4.78931 507.318 5.98881 509.044 7.45134 510.577C9.74137 512.982 12.1277 515.382 14.8218 517.3C20.5886 521.398 24.1102 527.274 27.5228 533.124C31.4293 539.815 36.9395 544.068 44.297 545.857C53.1685 548.019 61.9117 550.463 70.2956 554.171C72.5471 555.172 75.1835 555.313 77.6403 555.845" stroke="#F9FAFC" stroke-width="3" stroke-miterlimit="10" stroke-linecap="round" stroke-linejoin="round"/>
<path d="M432.054 658.154C432.952 649.187 435.235 640.559 438.475 632.175C441.31 624.843 443.363 617.415 443.023 609.397C442.721 602.353 443.202 595.278 442.882 588.235C442.625 582.66 442.003 577.054 440.97 571.563C438.609 559.048 430.597 551.697 418.576 548.496C414.041 547.29 409.436 546.129 404.785 545.648C393.957 544.532 388.261 551.479 387.812 562.57C387.491 570.441 385.515 577.657 379.415 583.052C376.452 585.675 372.988 587.734 369.844 590.172C364.084 594.63 358.157 598.883 353.763 604.887C350.504 609.345 348.74 614.156 347.874 619.641C347.06 624.792 347.605 629.673 349.087 634.388C351.377 641.656 357.118 646.011 363.385 649.879C367.336 652.317 370.909 655.377 374.649 658.154" stroke="#F9FAFC" stroke-width="3" stroke-miterlimit="10" stroke-linecap="round" stroke-linejoin="round"/>
<path d="M3.55788 407.66C7.61834 407.045 11.8648 406.384 14.0458 402.477C15.6944 399.533 16.958 396.204 17.5803 392.887C19.2866 383.798 21.4612 374.875 25.7269 366.626C28.1709 361.911 31.1215 357.459 33.681 352.802C36.497 347.677 38.4984 342.27 35.8812 336.49C34.6817 333.847 33.1486 331.108 31.0703 329.158C21.0698 319.767 14.7642 307.842 7.644 296.418C5.04607 292.255 1.66556 288.547 -1.61231 284.852C-5.98068 279.926 -12.004 279.342 -17.9183 280.131C-24.5061 281.003 -30.9208 283.184 -37.5086 284.089C-47.1562 285.417 -56.6948 284.916 -64.7131 278.354C-67.0288 276.462 -68.7671 273.87 -70.8647 271.689C-72.385 270.111 -73.9117 268.482 -75.6885 267.225C-79.2294 264.717 -83.4566 265.73 -85.1886 269.791C-86.4202 272.684 -87.1322 275.917 -87.453 279.06C-88.0431 284.91 -87.9084 290.843 -88.6012 296.681C-88.9604 299.747 -90.5769 302.64 -91.3467 305.681C-92.8669 311.659 -90.5448 317.041 -87.7609 321.98C-83.6619 329.241 -78.96 336.246 -72.7249 341.859C-62.3525 351.192 -55.925 362.758 -51.8966 375.908C-50.7548 379.641 -49.2923 383.227 -46.5212 386.223C-43.4614 389.526 -39.7601 391.656 -35.565 392.887C-26.7128 395.473 -18.1813 398.616 -10.1438 403.343C-6.19877 405.665 -1.25952 406.281 3.23073 407.673" stroke="#F9FAFC" stroke-width="3" stroke-miterlimit="10" stroke-linecap="round" stroke-linejoin="round"/>
<path d="M220.691 658.153C220.158 656.12 219.395 654.118 219.139 652.053C218.728 648.762 218.779 645.42 218.42 642.117C217.759 636.016 217.548 629.775 216.066 623.867C213.455 613.469 205.802 607.356 196.302 603.327C193.255 602.032 190.112 600.948 187.008 599.78C181.254 597.618 177.642 593.308 175.147 587.907C172.472 582.108 169.528 576.527 163.254 573.833C161.214 572.96 159.033 572.197 156.846 571.921C137.993 569.561 121.283 574.352 107.152 587.278C101.738 592.23 96.7473 597.682 91.0254 602.243C84.3478 607.567 76.2654 610.217 68.0226 612.333C63.7761 613.424 59.5488 614.784 55.5269 616.509C47.6433 619.896 45.8279 625.843 46.6618 633.11C47.5149 640.558 49.4971 647.883 51.0238 655.254C51.229 656.242 51.646 657.185 51.9667 658.147" stroke="#F9FAFC" stroke-width="3" stroke-miterlimit="10" stroke-linecap="round" stroke-linejoin="round"/>
<path d="M-67.0014 320.1C-66.1931 327.561 -62.107 333.18 -57.0972 338.414C-52.716 342.994 -49.3483 348.235 -47.379 354.4C-45.7433 359.518 -43.5238 364.445 -41.6828 369.5C-39.3992 375.76 -34.2932 378.936 -28.4815 380.597C-21.2137 382.675 -13.7727 384.163 -6.06236 384.016C-1.20648 383.926 2.93735 382.181 5.69564 378.711C12.7902 369.763 16.8379 359.339 18.2684 348.004C18.8521 343.354 17.0752 339.107 14.7595 335.194C9.28784 325.951 3.78412 316.714 -1.9634 307.637C-3.76591 304.789 -6.17141 302.229 -8.67312 299.946C-14.1191 294.962 -20.7583 294.782 -27.5514 296.071C-34.8448 297.463 -42.0934 299.048 -49.3676 300.536C-58.9574 302.499 -64.7691 308.227 -66.6871 317.855C-66.8154 318.49 -66.9052 319.138 -67.0078 319.78" stroke="#F9FAFC" stroke-width="3" stroke-miterlimit="10" stroke-linecap="round" stroke-linejoin="round"/>
<path d="M17.3494 -33.9874C15.5341 -31.4216 13.8984 -28.6953 11.8521 -26.3283C9.38248 -23.4802 6.64979 -20.8374 3.85943 -18.2972C0.504574 -15.2374 -0.842493 -11.4656 -0.945127 -7.04595C-1.09908 -0.31058 -1.50961 6.42478 -1.49678 13.1602C-1.49036 16.0467 -1.00927 19.0167 -0.22027 21.8007C1.24227 26.9837 6.07248 29.3828 11.2427 27.5418C14.7515 26.2909 18.209 24.7963 21.4997 23.0579C27.786 19.7352 34.4444 20.0944 41.0772 20.9411C44.881 21.4286 48.5759 22.7757 52.3156 23.7443C62.4443 26.3679 67.1655 33.4945 69.0514 43.2961C70.4818 50.7243 71.7776 58.2871 74.2922 65.3753C77.3006 73.8426 84.4273 78.243 93.0678 79.7761C96.9422 80.4625 100.541 78.5702 103.601 76.293C108.116 72.9381 112.69 69.5833 116.719 65.6896C123.999 58.6527 130.972 51.2887 137.912 43.9055C140.51 41.1408 142.877 38.1003 144.969 34.9314C150.742 26.1819 148.477 19.3759 142.679 12.2557C136.495 4.66076 128.438 -0.714702 119.721 -5.22419C114.659 -7.84136 109.675 -10.8883 105.333 -14.5447C99.4504 -19.5096 95.948 -26.1231 95.3001 -34.0002" stroke="#F9FAFC" stroke-width="3" stroke-miterlimit="10" stroke-linecap="round" stroke-linejoin="round"/>
<path d="M273.611 309.196C272.482 303.346 269.429 298.637 265.304 294.41C260.134 289.099 254.887 283.858 247.927 281.029C238.203 277.071 228.067 274.621 217.483 275.596C210.459 276.244 206.418 280.965 204.744 287.418C203.506 292.21 202.871 297.207 202.473 302.152C201.966 308.439 201.889 314.764 201.78 321.069C201.646 328.927 206.181 331.865 212.659 332.083C222.275 332.404 231.223 329.87 240.262 327.214C247.35 325.136 254.611 323.661 261.712 321.64C264.297 320.902 266.767 319.549 269.083 318.138C272.219 316.226 272.983 312.865 273.599 309.523" stroke="#F9FAFC" stroke-width="3" stroke-miterlimit="10" stroke-linecap="round" stroke-linejoin="round"/>
<path d="M291.575 369.493C289.779 362.206 283.98 359.21 277.784 356.663C265.404 351.583 253.428 353.86 241.535 358.562C233.478 361.75 226.518 366.349 222.701 374.336C219.821 380.365 218.583 386.742 220.604 393.567C222.131 398.711 225.697 401.085 230.322 402.502C236.089 404.266 241.868 404.651 247.975 403.984C253.883 403.336 259.541 402.182 264.935 399.911C272.222 396.845 278.316 392.008 283.191 385.805C285.712 382.598 287.893 379.095 289.901 375.542C290.857 373.854 291.043 371.731 291.575 369.807" stroke="#F9FAFC" stroke-width="3" stroke-miterlimit="10" stroke-linecap="round" stroke-linejoin="round"/>
<path d="M260.785 -33.6675C263.935 -25.1104 267.777 -17.0344 275.532 -11.5242C280.548 -7.9641 286.405 -6.76457 292.217 -5.44315C297.451 -4.25003 302.749 -3.28783 307.92 -1.8702C316.785 0.567361 323.052 9.12449 323.065 19.2532C323.077 29.26 320.922 38.7601 316.804 47.747C315.104 51.4675 312.57 54.9699 309.78 57.9912C304.045 64.207 297.849 69.9994 291.902 76.0356C287.38 80.6284 281.414 81.5393 275.519 82.354C272.164 82.8222 268.636 82.8158 265.282 82.354C259.573 81.5714 256.198 77.8381 254.351 72.5011C251.311 63.713 248.148 54.9699 245.069 46.1947C242.901 40.0045 240.791 33.7952 238.648 27.5922C237.455 24.1347 235.498 21.4791 231.592 20.8504C229.026 20.4399 226.473 19.869 223.888 19.5996C218.981 19.08 213.971 19.1441 209.154 18.1948C200.705 16.527 194.297 11.825 190.525 3.85807C187.132 -3.31991 183.809 -10.53 180.23 -17.6117C177.44 -23.1604 174.296 -28.5358 171.301 -33.9883" stroke="#F9FAFC" stroke-width="3" stroke-miterlimit="10" stroke-linecap="round" stroke-linejoin="round"/>
<path d="M307.608 25.6688C306.659 22.2754 306.659 18.5678 304.093 15.7133C299.936 11.0947 291.283 9.06128 284.535 11.5951C275.856 14.8537 269.197 20.8129 264.374 28.5874C258.562 37.9528 264.502 47.6068 273.976 50.2048C281.757 52.3408 289.667 51.5198 296.703 46.8307C302.894 42.706 306.127 36.8238 306.98 29.5176C307.114 28.3308 307.397 27.1634 307.608 25.9895" stroke="#F9FAFC" stroke-width="3" stroke-miterlimit="10" stroke-linecap="round" stroke-linejoin="round"/>
<path d="M232.559 382.322C233.604 386.068 234.829 389.769 238.665 391.597C243.207 393.765 248.095 394.843 253.079 394.125C260.725 393.028 267.582 390.026 272.618 383.893C274.876 381.148 276.839 378.12 276.826 374.303C276.813 370.41 275.056 367.626 271.707 365.618C266.428 362.443 260.866 362.096 255.01 363.386C249.416 364.617 244.233 366.567 239.57 370.076C235.471 373.155 233.675 377.312 232.559 382.007" stroke="#F9FAFC" stroke-width="3" stroke-miterlimit="10" stroke-linecap="round" stroke-linejoin="round"/>
<path d="M69.9492 -33.0239C63.5603 -29.4381 56.4465 -28.2322 49.4417 -26.5323C41.8981 -24.7041 36.0094 -20.6565 34.0144 -12.4971C32.8085 -7.57065 35.0087 -2.79175 39.4605 0.0435242C48.1779 5.5986 56.5042 2.67994 60.9175 -4.8316C64.9138 -11.6311 68.6471 -18.6038 72.1174 -25.6856C73.8942 -29.3034 73.0026 -31.4716 70.27 -33.0239" stroke="#F9FAFC" stroke-width="3" stroke-miterlimit="10" stroke-linecap="round" stroke-linejoin="round"/>
<path d="M184.133 -33.9883C186.166 -28.9656 188.155 -23.9237 190.24 -18.9203C192.651 -13.1279 194.736 -7.14303 197.713 -1.65852C201.029 4.44821 206.552 8.24568 213.647 8.55358C217.919 8.7396 222.403 7.98909 226.104 5.70548C233.866 0.920164 240.479 -5.17374 244.065 -13.8078C246.708 -20.1712 247.452 -26.8488 246.034 -33.674" stroke="#F9FAFC" stroke-width="3" stroke-miterlimit="10" stroke-linecap="round" stroke-linejoin="round"/>
<path d="M71.5515 227.089C69.595 221.925 64.9508 220.495 59.7357 223.959C56.4899 226.114 53.706 228.917 52.2435 232.837C51.3069 235.345 51.8329 237.295 53.2634 239.277C54.7708 241.375 57.048 241.086 59.0365 240.816C64.2388 240.111 69.6913 234.652 70.9229 229.334C71.0768 228.68 71.3398 228.051 71.5579 227.41" stroke="#F9FAFC" stroke-width="3" stroke-miterlimit="10" stroke-linecap="round" stroke-linejoin="round"/>
<path d="M337.759 511.898C333.872 511.93 331.409 514.252 329.818 517.389C328.946 519.114 329.253 521.173 330.697 522.803C332.127 524.419 333.763 524.676 335.848 524.13C338.677 523.399 340.671 521.776 341.91 519.262C343.981 515.047 342.923 513.007 338.08 511.577" stroke="#F9FAFC" stroke-width="3" stroke-miterlimit="10" stroke-linecap="round" stroke-linejoin="round"/>
<path d="M397.416 322.985C388.159 325.005 380.038 329.284 372.354 334.794C360.653 343.185 352.058 353.666 347.625 367.547C345.585 373.917 343.27 380.229 339.414 385.893C335.322 391.904 329.677 394.662 322.685 395.515C315.873 396.349 308.778 396.15 302.511 399.396C297.623 401.93 292.761 404.707 288.424 408.069C278.841 415.497 268.161 420.718 256.929 424.978C250.2 427.531 243.342 429.872 237.403 434.016C230.603 438.75 225.997 445.44 221.962 452.567C216.061 463.01 210.621 473.755 203.322 483.325C198.677 489.413 198.017 495.737 200.095 502.947C203.771 515.706 210.859 525.514 223.29 530.749C227.126 532.365 231.341 533.661 235.452 533.898C243.926 534.386 248.564 530.742 251.848 522.833C254.068 517.496 256.319 512.101 259.27 507.149C264.338 498.643 272.42 493.653 281.304 489.753C290.631 485.654 300.632 482.921 308.881 476.603C312.736 473.652 316.482 470.534 320.1 467.301C324.411 463.453 328.85 459.854 334.565 458.372C339.094 457.198 343.603 457.109 348.369 457.493C354.874 458.019 361.641 458.738 367.934 455.492C373.79 452.471 376.882 447.525 378.133 441.341C379.012 437.005 379.493 432.585 380.096 428.198C380.943 422.046 384.939 418.441 390.045 415.689C397.056 411.911 404.581 410.115 412.496 410.282C418.719 410.416 424.472 412.482 430.175 414.964C436.66 417.793 443.37 419.916 450.67 419.929C458.669 419.942 464.859 416.914 469.606 410.564C475.379 402.834 480.132 394.476 484.257 385.816C487.637 378.722 485.925 374.161 478.561 370.819C474.372 368.92 469.914 367.586 465.77 365.604C458.303 362.037 452.947 355.905 447.443 349.952C441.439 343.454 436.378 336.096 428.905 330.945C421.862 326.09 414.363 323.081 405.767 322.998C403.093 322.972 400.424 322.991 397.749 322.991" stroke="#F9FAFC" stroke-width="3" stroke-miterlimit="10" stroke-linecap="round" stroke-linejoin="round"/>
<path d="M299.912 423.698C284.491 428.098 270.449 435.43 256.927 443.891C250.044 448.195 244.855 453.885 242.924 461.89C242.186 464.944 242.167 468.343 242.616 471.467C243.129 475.015 246.561 477.548 250.84 477.51C264.599 477.382 278.179 475.823 290.912 470.152C296.679 467.586 300.893 462.936 303.985 457.637C307.776 451.133 310.701 444.16 312.773 436.854C315.05 428.842 309.848 423.043 302.477 423.685C301.733 423.749 300.983 423.691 300.232 423.691" stroke="#F9FAFC" stroke-width="3" stroke-miterlimit="10" stroke-linecap="round" stroke-linejoin="round"/>
<path d="M222.294 286.423C214.609 288.117 211.812 297.379 212.896 304.397C213.698 309.612 215.879 313.948 220.761 315.372C224.148 316.367 228.214 315.437 231.909 314.898C236.637 314.211 240.672 311.928 244.123 308.566C247.054 305.712 247.516 300.163 245.098 296.661C240.569 290.086 234.482 286.539 226.463 286.423C225.18 286.404 223.897 286.423 222.615 286.423" stroke="#F9FAFC" stroke-width="3" stroke-miterlimit="10" stroke-linecap="round" stroke-linejoin="round"/>
<path d="M210.753 265.255C201.497 266.782 198.354 273.235 197.237 281.606C196.166 289.65 194.825 297.668 193.395 305.661C192.49 310.703 190.637 315.456 187.314 319.439C183.85 323.59 179.013 325.719 174.19 327.798C164.683 331.897 156.152 337.484 148.544 344.489C146.652 346.227 144.881 348.094 143.085 349.935C139.429 353.674 137.716 358.113 137.568 363.399C137.35 371.225 139.737 378.056 144.361 384.253C153.008 395.831 172.984 397.698 182.946 387.223C188.129 381.764 191.759 375.407 195.659 369.159C199.008 363.797 201.997 358.209 205.339 352.84C208.444 347.85 213.691 345.483 218.823 343.642C228.618 340.127 238.586 337.022 248.638 334.341C254.013 332.91 259.742 332.82 265.277 331.941C269.684 331.242 274.239 330.787 278.383 329.273C283.431 327.426 286.542 323.16 287.337 317.849C288.633 309.227 288.113 300.657 281.866 293.89C277.523 289.182 272.468 285.089 267.49 281.016C259.581 274.55 250.107 271.747 240.273 269.694C230.613 267.68 221.061 265.095 211.074 265.261" stroke="#F9FAFC" stroke-width="3" stroke-miterlimit="10" stroke-linecap="round" stroke-linejoin="round"/>
<path d="M283.875 445.506C279.134 446.539 275.1 448.81 272.027 452.582C269.897 455.199 271.071 458.83 274.253 459.939C279.442 461.761 287.352 458.227 289.327 453.204C290.982 448.989 288.846 445.782 284.196 445.506" stroke="#F9FAFC" stroke-width="3" stroke-miterlimit="10" stroke-linecap="round" stroke-linejoin="round"/>
<path d="M65.7809 202.393C61.6114 203.676 57.1596 204.401 53.3236 206.345C41.3411 212.407 34.099 222.542 31.2894 235.461C29.9102 241.811 31.4497 248.373 34.0861 254.326C39.6412 266.88 47.1656 278.169 57.1404 287.689C61.6755 292.012 67.3717 294.424 73.4784 294.629C81.2594 294.892 87.674 291.108 91.7345 283.853C95.0957 277.855 94.9354 271.703 91.3817 265.93C86.4553 257.925 87.0069 249.72 89.4702 241.189C90.9648 236.012 92.6261 230.784 93.2227 225.467C94.0502 218.128 91.3175 209.148 80.836 205.299C76.0956 203.561 71.2461 202.13 66.0888 202.387" stroke="#F9FAFC" stroke-width="3" stroke-miterlimit="10" stroke-linecap="round" stroke-linejoin="round"/>
<path d="M160.071 191.489C152.9 192.361 147.627 196.473 143.791 202.124C137.19 211.862 139.564 220.31 148.23 226.404C155.876 231.779 164.587 233.8 173.856 233.139C178.892 232.78 183.613 227.68 183.754 222.273C184.068 210.361 178.892 201.002 169.674 193.753C166.986 191.636 163.708 191.329 160.392 191.483" stroke="#F9FAFC" stroke-width="3" stroke-miterlimit="10" stroke-linecap="round" stroke-linejoin="round"/>
<path d="M276.821 146.584C273.504 147.656 270.162 148.644 266.884 149.811C262.401 151.408 260.341 155.225 259.629 159.433C259.001 163.179 259.379 167.111 259.52 170.954C259.822 179.068 259.847 187.074 254.709 194.066C253.786 195.323 253.067 196.779 252.464 198.229C251.393 200.801 252.22 204.175 254.042 205.272C255.768 206.311 260.226 205.291 261.714 203.328C263.016 201.609 264.376 199.832 265.217 197.876C268.077 191.185 273.062 186.791 279.354 183.417C286.526 179.569 293.537 175.418 300.523 171.236C302.723 169.915 304.718 168.189 306.623 166.451C312.294 161.274 310.202 155.494 305.917 151.819C301.761 148.252 296.43 146.803 290.926 146.617C286.334 146.469 281.734 146.584 277.135 146.584" stroke="#F9FAFC" stroke-width="3" stroke-miterlimit="10" stroke-linecap="round" stroke-linejoin="round"/>
<path d="M271.047 131.829C269.231 132.149 267.403 132.419 265.594 132.797C252.527 135.53 246.382 144.478 244.111 156.846C243.194 161.862 242.559 166.93 241.494 171.907C240.051 178.668 236.292 184.454 233.219 190.529C231.032 194.846 229.146 199.343 229.384 204.308C229.768 212.396 233.11 218.632 240.538 222.66C247.024 226.175 253.971 227.721 261.11 228.638C268.705 229.62 275.216 224.084 277.474 215.219C278.353 211.774 279.058 208.24 280.412 204.975C283.991 196.328 290.483 190.369 298.976 186.725C303.966 184.583 309.182 182.921 314.352 181.241C320.388 179.284 326.45 177.353 330.356 171.894C335.706 164.415 335.244 155.191 329.984 147.589C324.577 139.783 316.712 135.485 307.283 134.433C301.112 133.747 294.883 133.541 288.687 133.099C282.914 132.688 277.14 132.246 271.367 131.822" stroke="#F9FAFC" stroke-width="3" stroke-miterlimit="10" stroke-linecap="round" stroke-linejoin="round"/>
<path d="M308.254 407.66C300.043 409.25 293.506 414.254 286.405 418.173C277.912 422.856 269.214 427.192 260.445 431.349C250.548 436.032 240.746 440.894 234.562 450.368C229.02 458.861 225.28 468.233 223.266 478.227C221.412 487.419 221.13 496.547 224.568 505.483C225.165 507.035 225.819 508.665 226.839 509.947C229.501 513.296 233.786 513.95 237.006 511.205C240.445 508.273 243.588 504.957 246.66 501.621C254.627 492.981 264.493 487.58 275.539 483.968C282.127 481.813 288.734 479.625 295.072 476.854C300.864 474.321 306.015 470.408 309.787 465.34C316.843 455.859 324.752 447.45 334.49 440.592C341.212 435.852 341.931 430.586 338.415 423.061C334.387 414.434 326.939 410.386 318.19 408.385C315.098 407.679 311.795 407.878 308.587 407.666" stroke="#F9FAFC" stroke-width="3" stroke-miterlimit="10" stroke-linecap="round" stroke-linejoin="round"/>
<path d="M395.488 335.175C389.356 336.477 383.339 338.093 377.841 341.262C365.993 348.081 358.848 358.081 356.994 371.738C356.179 377.729 354.826 383.688 354.543 389.705C354.146 398.141 357 404.51 367.584 405.081C375.551 405.511 383.069 402.964 390.658 401.181C399.92 399.007 409.081 396.396 418.247 393.836C421.204 393.009 424.174 392.015 426.888 390.616C434.098 386.889 436.093 380.045 436.477 372.707C437.145 360.147 431.25 350.589 422.128 342.532C414.482 335.777 405.418 334.623 395.802 335.187" stroke="#F9FAFC" stroke-width="3" stroke-miterlimit="10" stroke-linecap="round" stroke-linejoin="round"/>
<path d="M315.947 548.142C308.801 549.707 303.246 554.069 298.031 558.778C291.501 564.679 284.137 569.259 276.497 573.486C269.127 577.566 261.666 581.716 255.759 587.708C249.806 593.744 247.221 601.364 249.216 610.05C249.947 613.238 250.261 616.535 251.204 619.653C253.218 626.304 257.324 627.818 262.648 623.45C272.424 615.425 283.707 610.075 294.727 604.187C298.114 602.378 301.213 599.818 304.022 597.163C310.668 590.883 318.199 585.443 323.311 577.643C328.577 569.606 329.001 560.49 323.343 551.965C321.598 549.335 319.276 548.2 316.255 548.136" stroke="#F9FAFC" stroke-width="3" stroke-miterlimit="10" stroke-linecap="round" stroke-linejoin="round"/>
<path d="M180.602 339.665C171.852 340.704 164.642 344.842 158.497 350.916C153.968 355.394 150.107 360.301 150.447 367.248C150.78 374.035 156.528 380.327 163.603 380.257C169.979 380.193 174.662 377.344 178.581 373.246C184.04 367.537 188.344 360.885 190.519 353.123C191.013 351.352 191.346 349.505 191.475 347.677C191.738 343.783 189.865 340.229 184.771 339.684C183.501 339.549 182.206 339.665 180.923 339.665" stroke="#F9FAFC" stroke-width="3" stroke-miterlimit="10" stroke-linecap="round" stroke-linejoin="round"/>
<path d="M-15.6881 341.588C-19.9538 342.909 -23.0585 345.373 -25.0599 349.574C-28.2736 356.342 -27.0484 363.237 -17.9204 365.572C-11.2299 367.285 -3.11541 364.809 -2.24302 356.662C-1.39629 348.772 -7.32343 342.063 -15.3738 341.588" stroke="#F9FAFC" stroke-width="3" stroke-miterlimit="10" stroke-linecap="round" stroke-linejoin="round"/>
<path d="M265.914 119C263.669 119.43 261.404 119.783 259.178 120.296C248.716 122.714 241.519 128.769 238.331 139.206C236.381 145.614 234.161 151.958 232.628 158.469C230.434 167.764 225.912 176.065 222.237 184.731C219.953 190.113 218.465 195.802 218.625 201.428C218.914 211.428 221.268 221.172 228.125 228.96C232.712 234.168 239.011 237.158 245.406 239.525C252.122 242.007 258.967 244.278 265.927 245.92C274.901 248.037 281.982 252.835 288.025 259.493C291.585 263.419 294.959 267.524 298.641 271.328C305.511 278.429 309.347 287.07 312.112 296.365C314.883 305.698 317.629 315.057 320.81 324.256C324.146 333.903 328.187 334.288 336.776 330.67C345.205 327.116 351.44 320.618 357.194 313.915C362.948 307.212 366.919 299.322 369.247 290.617C371.736 281.303 370.536 272.631 365.969 264.304C359.753 252.97 349.644 245.939 338.688 239.961C327.334 233.764 315.557 228.543 303.125 224.79C295.767 222.564 291.636 216.233 294.17 208.189C295.857 202.833 300.123 199.683 305.056 197.656C309.2 195.95 313.536 194.635 317.866 193.455C331.465 189.741 340.875 181.581 345.442 168.085C348.74 158.347 352.184 148.661 355.321 138.879C356.476 135.28 355.276 132.894 351.517 131.906C347.636 130.886 343.576 130.54 339.676 129.558C333.113 127.897 326.648 125.851 320.085 124.202C317.167 123.471 314.126 123.112 311.118 122.9C299.648 122.105 288.096 122.522 276.78 119.757C273.4 118.929 269.75 119.237 266.222 119.019" stroke="#F9FAFC" stroke-width="3" stroke-miterlimit="10" stroke-linecap="round" stroke-linejoin="round"/>
<path d="M178.039 116.435C168.526 119.392 166.499 126.326 165.922 134.081C165.55 139.078 165.813 144.127 165.858 149.149C165.947 158.675 162.798 166.815 155.928 173.544C148.987 180.337 141.937 187.047 136.652 195.328C132.328 202.108 130.256 209.472 131.289 217.459C131.789 221.32 133.585 224.765 136.312 227.761C143.079 235.202 151.854 239.198 161.053 242.45C166.762 244.471 172.458 246.543 178.68 246.697C188.071 246.928 192.388 241.103 194.621 234.432C197.353 226.266 196.231 217.94 194.063 209.768C192.19 202.699 189.771 195.739 188.418 188.574C186.878 180.427 187.93 172.492 193.081 165.481C196.224 161.202 199.297 156.86 202.043 152.325C207.27 143.697 207.97 136.038 203.165 129.405C197.315 121.316 189.232 115.755 178.347 116.428" stroke="#F9FAFC" stroke-width="3" stroke-miterlimit="10" stroke-linecap="round" stroke-linejoin="round"/>
<path d="M364.702 104.89C358.179 106.172 351.706 107.853 345.125 108.642C336.407 109.681 327.6 110.008 318.838 110.669C313.597 111.067 308.363 111.586 303.122 111.933C294.725 112.484 286.604 110.579 278.419 109.098C269.695 107.52 260.926 107.834 252.119 108.661C247.353 109.11 242.504 108.738 237.693 108.738C230.187 108.738 229.014 109.854 228.725 117.398C228.661 119.104 228.686 120.817 228.718 122.53C229.058 138.663 225.255 153.769 217.878 168.112C215.19 173.34 212.996 178.876 211.155 184.463C209.026 190.903 209.058 197.696 210.193 204.304C211.418 211.424 213.304 218.435 214.921 225.485C217.788 237.968 225.671 245.729 237.693 249.533C243.562 251.393 249.406 253.324 255.339 254.96C264.762 257.551 273.647 261.208 280.959 267.853C287.348 273.665 294.039 279.162 298.696 286.7C302.352 292.607 303.879 299.17 305.643 305.674C307.747 313.436 308.144 321.448 307.503 329.389C306.958 336.131 304.386 342.141 298.644 346.426C294.834 349.268 290.414 349.852 286.136 349.165C277.29 347.748 268.464 345.99 259.502 346.805C251.247 347.555 243.37 350.025 235.723 353.373C230.489 355.663 225.485 358.082 221.303 362.091C213.843 369.237 210.565 378.455 208.217 388.102C206.633 394.607 206.062 401.246 206.184 407.981C206.274 412.94 209.308 415.993 214.273 416.057C224.472 416.185 234.434 414.614 244.441 412.882C253.024 411.4 261.311 409.45 269.156 405.486C275.712 402.169 281.517 397.827 286.675 392.817C295.328 384.407 304.815 377.358 315.63 372.066C321.096 369.391 324.758 364.855 327.773 359.846C333.457 350.397 340.744 342.488 348.89 335.072C360.828 324.225 372.041 312.608 380.425 298.618C382.817 294.622 385.428 290.754 387.769 286.732C390.688 281.703 390.893 276.308 388.706 271.048C384.37 260.624 378.494 251.105 370.771 242.823C365.62 237.294 358.756 234.337 352.207 230.905C345.837 227.563 339.364 224.304 334.233 219.064C328.357 213.06 329.281 209.038 333.572 203.668C338.325 197.722 343.258 191.891 347.614 185.656C351.225 180.486 353.913 174.674 357.377 169.395C360.514 164.616 363.894 159.934 367.64 155.616C374.331 147.893 378.013 139.08 378.834 128.951C379.078 125.942 379.976 122.966 380.008 119.97C380.04 116.449 379.738 112.857 379.033 109.405C378.487 106.743 375.338 104.947 372.393 104.902C369.937 104.87 367.473 104.896 365.017 104.896" stroke="#F9FAFC" stroke-width="3" stroke-miterlimit="10" stroke-linecap="round" stroke-linejoin="round"/>
<path d="M169.057 101.041C159.018 104.216 154.201 111.843 153.194 121.587C152.36 129.624 153.046 137.822 153.021 145.943C153.001 152.467 151.18 158.522 147.536 163.878C142.449 171.358 136.888 178.517 131.91 186.073C125.867 195.246 122.121 205.291 122.93 216.504C123.359 222.508 125.412 227.928 129.569 232.579C137.805 241.791 148.492 247.121 159.442 252.099C165.189 254.716 171.078 257.051 176.729 259.861C182.387 262.67 186.255 267.192 187.313 273.601C189.141 284.666 189.276 295.596 184.125 305.988C181.861 310.555 178.416 313.955 173.868 316.258C165.843 320.312 157.767 324.263 149.833 328.478C142.475 332.378 136.073 337.458 130.48 343.758C125.361 349.524 124.386 356.317 125.643 363.04C127.407 372.457 130.531 381.649 136.676 389.372C144.335 399 154.368 404.754 166.504 406.307C180.302 408.077 189.308 402.971 195.659 390.328C198.686 384.304 201.688 378.249 204.293 372.04C209.835 358.832 219.861 350.903 233.21 346.74C240.022 344.617 246.847 342.513 253.75 340.704C256.63 339.947 259.709 339.845 262.711 339.697C269.119 339.383 275.54 339.306 281.955 339.011C289.152 338.677 293.552 334.501 296.041 328.112C298.556 321.659 298.37 314.994 297.395 308.233C296.407 301.37 294.752 294.775 290.268 289.342C279.042 275.737 265.232 266.371 247.662 262.58C237.893 260.47 228.322 257.359 218.796 254.28C213.209 252.477 208.559 249.148 207.244 242.81C206.782 240.591 206.294 238.32 206.307 236.081C206.371 225.504 204.254 215.234 202.08 204.971C200.2 196.105 199.155 187.125 201.913 178.388C203.741 172.596 206.429 166.938 209.578 161.729C215.005 152.743 218.193 143.339 217.128 132.806C216.487 126.41 212.895 121.426 208.148 117.456C200.335 110.926 191.585 105.909 181.886 102.663C177.832 101.304 173.656 100.778 169.378 101.053" stroke="#F9FAFC" stroke-width="3" stroke-miterlimit="10" stroke-linecap="round" stroke-linejoin="round"/>
<path d="M135.058 586.629C133.454 586.95 131.844 587.232 130.247 587.598C121.491 589.625 115.327 594.987 111.016 602.672C110.079 604.34 109.258 606.072 108.444 607.797C104.627 615.873 107.456 620.235 114.544 622.192C123.486 624.668 132.595 625.303 141.793 623.828C143.718 623.52 145.751 623.481 147.547 622.814C153.269 620.684 156.611 616.707 157.259 610.37C157.849 604.603 157.439 598.996 154.526 594.064C151.435 588.823 145.989 587.129 140.19 586.648C138.599 586.514 136.982 586.629 135.379 586.629" stroke="#F9FAFC" stroke-width="3" stroke-miterlimit="10" stroke-linecap="round" stroke-linejoin="round"/>
<path d="M186.373 49.7227C184.128 50.2551 181.799 50.5694 179.657 51.3712C173.839 53.5522 172.087 58.6262 174.467 64.4956C178.746 75.0669 187.066 80.654 197.637 82.9376C202.903 84.073 207.984 82.1294 211.351 77.5942C214.693 73.0848 215.822 67.9338 213.609 62.5712C210.402 54.7902 203.699 51.724 195.995 50.4154C192.948 49.8959 189.805 49.9408 186.7 49.7227" stroke="#F9FAFC" stroke-width="3" stroke-miterlimit="10" stroke-linecap="round" stroke-linejoin="round"/>
<path d="M104.909 3.53818C99.8095 4.66716 96.121 7.77826 93.7348 12.2236C90.226 18.7473 86.6402 25.2838 83.8691 32.1346C81.4572 38.0938 82.2141 44.47 84.78 50.3329C86.8006 54.9515 93.4462 58.672 99.1359 57.094C105.358 55.3684 110.894 52.4305 115.506 47.812C120.247 43.0588 125 38.3697 128.361 32.4297C132.582 24.9759 132.3 19.4914 126.642 12.91C121.132 6.50174 113.883 3.19179 105.23 3.54459" stroke="#F9FAFC" stroke-width="3" stroke-miterlimit="10" stroke-linecap="round" stroke-linejoin="round"/>
<path d="M83.0985 351.21C70.8465 355.822 64.3421 365.521 59.9866 377.183C57.7735 383.097 56.7408 389.198 56.0801 395.465C55.2526 403.348 54.7009 411.315 51.9875 418.885C49.9284 424.645 47.0098 429.975 42.6286 434.222C37.9587 438.751 32.7757 442.753 27.9519 447.128C23.4745 451.189 18.9136 455.217 14.8339 459.662C7.87404 467.251 -0.234041 473.383 -8.64363 479.163C-18.2592 485.77 -22.4415 495.565 -24.6289 506.444C-25.9503 513.026 -25.8413 519.453 -22.5185 525.727C-19.4715 531.481 -14.1345 534.027 -8.9451 536.875C-2.04295 540.666 2.77445 545.734 1.53001 554.208C1.01684 557.71 -0.33026 561.136 -1.62602 564.471C-3.73002 569.866 -5.86607 575.273 -5.37856 581.162C-4.7371 589.033 -2.53688 596.531 1.67112 603.267C4.15999 607.25 7.70728 607.847 10.844 604.498C14.2181 600.893 16.9315 596.679 19.9015 592.702C21.2293 590.919 22.3455 588.962 23.7824 587.275C28.9847 581.168 35.4634 579.218 44.29 582.118C48.3376 583.446 52.4237 584.664 56.4713 585.979C65.8816 589.039 74.7274 587.224 82.7136 582.034C90.2701 577.127 97.3775 571.521 104.568 566.068C111.977 560.443 118.398 553.521 126.724 549.102C130.65 547.017 134.717 545.176 138.572 542.969C147.02 538.12 150.895 529.973 153.627 521.179C156.052 513.353 154.981 505.386 153.993 497.457C153.435 492.967 152.71 488.49 152.441 483.987C152.171 479.509 152.171 475 152.441 470.522C152.717 465.91 153.397 461.317 153.999 456.731C155.116 448.174 155.815 439.706 152.428 431.374C149.618 424.459 144.685 419.398 138.54 415.767C126.885 408.878 119.713 398.576 114.524 386.497C111.4 379.223 107.025 372.693 101.996 366.631C98.423 362.32 94.5935 358.221 90.7832 354.116C88.8396 352.025 86.3828 350.896 83.4257 351.21" stroke="#F9FAFC" stroke-width="3" stroke-miterlimit="10" stroke-linecap="round" stroke-linejoin="round"/>
<path d="M315.306 249.859C309.18 251.052 309.309 254.747 311.15 258.833C312.901 262.714 315.095 266.422 316.512 270.412C318.719 276.621 320.38 283.017 322.375 289.303C324.306 295.397 325.762 301.67 329.707 306.969C332.914 311.28 336.07 312.165 340.965 309.843C349.65 305.731 353.505 298.213 354.32 289.297C355.654 274.639 347.963 264.632 336.135 257.255C329.848 253.33 323.164 250.366 315.621 249.859" stroke="#F9FAFC" stroke-width="3" stroke-miterlimit="10" stroke-linecap="round" stroke-linejoin="round"/>
</g>
</g>
</svg>
