<svg width="360" height="650" viewBox="0 0 360 650" fill="none" xmlns="http://www.w3.org/2000/svg">
<mask id="mask0" mask-type="alpha" maskUnits="userSpaceOnUse" x="0" y="0" width="360" height="650">
<rect width="360" height="650" fill="#181B2B"/>
</mask>
<g mask="url(#mask0)">
<g opacity="0.7">
<path d="M577.984 364.933C569.966 370.87 562.134 377.156 553.878 382.658C545.026 388.56 535.539 393.1 525.378 395.559C518.2 397.291 511.875 394.447 505.826 390.577C502.792 388.638 499.899 386.414 496.82 384.568C493.516 382.587 490.091 381.938 486.229 383C481.932 384.176 477.39 384.775 473.124 382.701C470.084 381.226 467.422 379.123 466.357 375.267C465.414 371.867 465.824 369.858 468.313 367.798C469.616 366.721 471.001 365.674 472.483 364.961C478.609 362.01 481.771 356.679 483.08 349.609C484.465 342.104 485.793 334.556 487.628 327.179C489.161 320.999 491.4 315.041 493.324 308.983C494.774 304.421 494.671 299.717 493.921 295.091C492.529 286.539 487.16 281.457 480.828 277.244C471.431 271.001 461.475 265.791 452.893 258.05C445.625 251.486 438.209 245.121 430.762 238.807C427.465 236.013 423.898 233.618 420.531 230.924C413.699 225.45 412.525 219.89 413.86 213.854C415.457 206.605 420.287 203.056 427.895 202.008C433.899 201.181 440.095 201.174 445.554 197.461C451.969 193.106 456.549 187.482 455.696 178.559C455.394 175.394 454.413 171.966 452.816 169.357C447.363 160.42 444.124 150.698 442.591 140.071C441.308 131.176 436.375 125.838 428.562 123.222C421.878 120.984 415.155 119.915 408.343 121.248C397.669 123.336 392.287 131.639 389.792 142.573C388.374 148.774 387.483 155.124 386.546 161.446C385.25 170.17 381.427 177.454 376.225 183.854C370.753 190.583 365.814 197.788 361.959 205.707C359.271 211.224 357.096 217.26 357.026 223.803C356.962 229.983 359.566 234.295 364.364 237.395C370.99 241.679 378.355 243.489 385.552 245.913C390.6 247.616 395.693 249.212 400.607 251.308C406.322 253.738 408.946 259.084 409.562 265.506C410.652 276.988 413.276 287.729 419.492 297.265C422.725 302.219 425.56 307.529 428.145 312.938C430.794 318.469 432.924 324.299 435.259 330.008C435.535 330.685 435.785 331.412 435.894 332.147C437.106 340.315 433.771 344.484 426.285 344.655C419.665 344.805 413.231 343.372 406.707 342.61C399.228 341.74 391.748 342.054 385.526 348.148C378.245 355.282 370.856 362.274 363.402 369.18C355.884 376.151 349.136 383.906 343.908 393.114C341.669 397.056 340.085 401.439 338.064 405.537C335.069 411.624 332.464 417.996 327.198 422.329C323.202 425.622 318.673 427.732 313.996 428.943C304.811 431.317 297.152 436.534 289.961 442.956C282.95 449.214 275.945 455.593 267.49 459.285C259.915 462.599 252.256 465.863 244.391 468.137C231.466 471.872 221.683 479.776 214.897 492.484C210.945 499.889 206.789 507.188 201.086 513.118C197.654 516.688 193.991 520.024 190.188 523.096C183.356 528.62 180.489 535.932 180.508 545.234C180.527 554.029 182.644 562.247 184.761 570.536C185.851 574.805 186.595 579.224 188.045 583.329C190.188 589.409 194.46 593.393 199.848 595.817C208.7 599.801 217.469 604.063 226.507 607.441C231.376 609.259 236.707 610.171 241.857 610.307C251.864 610.563 260.332 603.393 262.782 592.296C264.488 584.577 265.624 576.658 269.049 569.424C272.539 562.061 277.318 556.188 283.899 552.425C292.649 547.415 301.725 543.095 310.456 538.028C317.159 534.136 323.407 529.283 330.091 525.348C336.698 521.464 343.966 521.45 351.221 522.426C358.803 523.452 366.481 524.636 373.967 522.661C384.57 519.867 389.689 511.094 392.3 499.975C393.737 493.867 395.142 487.709 397.169 481.829C399.606 474.765 405.225 472.185 411.518 471.508C419.678 470.624 427.401 473.511 435.265 475.3C443.059 477.082 450.981 478.329 458.986 477.837C470.334 477.132 478.711 471.494 483.766 459.741C487.057 452.086 491.008 444.716 496.544 438.708C502.375 432.372 509.091 427.703 517.353 426.164C522.53 425.202 527.2 426.812 531.786 429.065C538.22 432.222 544.66 435.372 551.024 438.701C558.554 442.635 566.002 446.748 573.481 450.796C574.989 451.608 576.477 452.457 577.972 453.291" stroke="#F9FAFC" stroke-width="3" stroke-miterlimit="10" stroke-linecap="round" stroke-linejoin="round"/>
<path d="M-56.4222 731.281C-48.8722 720.276 -41.9764 708.78 -35.9531 696.678C-33.0601 690.876 -29.9939 685.16 -28.4223 678.567C-26.7865 671.696 -27.0111 665.125 -29.1856 658.596C-31.3025 652.246 -33.8683 646.08 -35.8376 639.673C-38.2174 631.925 -40.4305 624.085 -42.2394 616.153C-44.1831 607.621 -46.4218 599.197 -50.4052 591.634C-56.7622 579.554 -55.46 568.577 -48.1216 557.694C-41.0976 547.274 -34.497 536.504 -27.5114 526.048C-24.5799 521.665 -21.3341 517.488 -17.8959 513.583C-12.0008 506.904 -7.86982 499.128 -5.11794 490.369C-3.11016 483.99 0.668048 480.105 6.73629 478.516C11.8295 477.183 17.0511 476 21.5221 472.572C27.3465 468.103 31.1697 462.258 32.4462 454.383C33.6906 446.699 32.1447 439.166 31.933 431.561C31.7085 423.806 33.357 416.223 37.2251 409.466C41.2214 402.488 45.4935 395.66 49.0152 388.397C53.9095 378.319 52.0364 371.555 45.8591 364.25C43.0688 360.95 39.8936 358.049 36.9172 354.949C28.437 346.118 23.1385 334.949 17.917 323.631C14.1581 315.484 10.5595 307.181 5.19684 300.032C1.73935 295.428 -4.3225 292.748 -9.5825 294.402C-17.1005 296.761 -24.5607 299.341 -32.0401 301.857C-43.8431 305.834 -52.2013 300.51 -58.3337 291.515C-61.6886 286.597 -64.9344 281.658 -69.5273 277.923C-75.6597 272.927 -86.1155 274.26 -91.4718 280.004C-96.5457 285.443 -99.7338 291.9 -101.889 299.034C-104.603 308.015 -108.791 315.834 -114.763 322.555C-116.624 324.65 -118.311 326.959 -119.901 329.319C-125.463 337.551 -123.346 349.575 -115.405 356.353C-105.95 364.428 -96.6612 372.667 -88.4248 382.339C-84.2745 387.214 -79.3545 391.263 -75.0503 395.981C-67.6606 404.085 -63.0934 413.821 -62.5417 425.524C-62.3365 429.907 -62.035 434.39 -62.6251 438.688C-63.4398 444.611 -66.9037 448.681 -71.4517 451.966C-78.8542 457.319 -86.3529 462.722 -91.9785 470.462C-98.6818 479.685 -105.25 489.043 -111.53 498.622C-117.239 507.325 -122.365 516.498 -127.971 525.279C-134.745 535.891 -144.457 541.885 -155.548 544.779C-165.15 547.288 -174.977 548.721 -184.708 550.602C-192.188 552.049 -199.661 553.567 -207.166 554.85C-213.664 555.962 -220.188 556.946 -226.731 557.701C-237.315 558.92 -247.899 559.911 -258.175 563.382C-266.688 566.254 -275.155 564.779 -283.5 562.013C-291.833 559.255 -300.108 556.24 -308.543 553.924C-313.752 552.491 -319.275 552.477 -324.541 551.237C-331.129 549.683 -337.762 548.029 -344.087 545.506C-355.678 540.888 -367.102 535.799 -379.399 533.846C-384.864 532.976 -390.33 532.114 -395.75 530.966C-400.747 529.911 -404.32 526.398 -406.963 521.729C-409.234 517.731 -408.547 511.737 -405.712 508.187C-402.107 503.683 -397.514 500.732 -392.863 497.881C-386.93 494.246 -380.682 491.203 -375.544 486.114C-372.375 482.978 -369.039 480.048 -365.954 476.812C-361.682 472.329 -356.55 469.706 -350.854 469.521C-346.601 469.386 -342.322 470.961 -338.025 471.453C-330.552 472.308 -323.072 473.313 -315.573 473.527C-307.074 473.776 -298.671 474.46 -290.216 475.53C-283.558 476.363 -276.265 477.49 -270.376 471.83C-268.439 469.963 -266.213 468.138 -264.994 465.737C-260.459 456.799 -252.973 452.237 -245.006 448.367C-239.733 445.808 -234.422 443.257 -228.963 441.283C-221.137 438.453 -213.202 439.294 -205.242 441.133C-199.026 442.565 -192.708 444.148 -186.331 441.91C-177.242 438.724 -172.04 431.147 -168.396 421.946C-166.901 418.168 -166.491 414.256 -169.365 410.948C-170.673 409.445 -172.174 407.934 -173.848 407.064C-179.224 404.27 -184.747 401.818 -190.174 399.145C-201.56 393.536 -208.494 383.929 -210.675 370.287C-212.06 361.599 -211.246 352.967 -210.143 344.265C-208.308 329.818 -209.495 315.563 -214.274 301.885C-216.801 294.651 -219.546 287.481 -222.625 280.517C-226.686 271.345 -233.004 265.479 -242.774 265.507C-252.716 265.543 -262.698 264.937 -272.589 265.707C-279.709 266.263 -286.708 268.658 -293.77 270.133C-299.729 271.373 -305.669 271.687 -311.744 270.596C-316.914 269.67 -322.213 269.149 -327.447 269.192C-332.367 269.235 -337.274 270.432 -342.207 270.81C-347.756 271.238 -353.375 271.965 -358.872 271.409C-366.409 270.646 -373.844 270.482 -381.336 271.544C-386.346 272.257 -391.382 272.749 -396.411 273.354C-397.161 273.447 -397.982 273.404 -398.643 273.732C-406.565 277.617 -407.63 281.344 -403.076 291.13C-400.811 295.998 -398.329 300.667 -397.354 306.133C-395.898 314.258 -400.131 320.267 -405.706 322.555C-412.46 325.327 -419.17 324.493 -425.559 321.707C-431.73 319.02 -437.471 315.128 -443.597 312.298C-447.567 310.467 -451.833 308.913 -456.08 308.414C-465.933 307.259 -475.407 309.59 -484.638 313.546C-488.307 315.121 -489.603 317.737 -489.795 321.821C-490 326.225 -490.411 330.651 -491.065 334.999C-492.258 342.925 -496.402 348.955 -501.591 354.272C-504.035 356.773 -506.467 359.332 -508.628 362.126C-511.829 366.267 -515.325 369.987 -519.912 372.019C-525.839 374.642 -531.477 372.361 -536.141 368.69C-540.907 364.941 -545.096 360.123 -549.021 355.262C-558.303 343.752 -568.708 342.433 -580.139 353.602C-586.72 360.03 -592.718 367.186 -599.139 373.815C-604.123 378.961 -609.402 383.693 -616.106 385.988C-622.976 388.34 -629.217 387.115 -634.689 382.011C-639.089 377.906 -643.195 373.401 -647.582 369.268C-649.167 367.771 -651.181 366.844 -652.996 365.654" stroke="#F9FAFC" stroke-width="3" stroke-miterlimit="10" stroke-linecap="round" stroke-linejoin="round"/>
<path d="M-652.98 72.3562C-639.035 73.019 -626.725 78.6568 -616.173 88.4926C-609.239 94.9571 -603.216 102.612 -596.487 109.362C-588 117.886 -579.148 125.968 -570.578 134.393C-566.678 138.227 -562.714 142.112 -559.41 146.552C-554.497 153.145 -555.382 160.479 -558.32 167.877C-560.064 172.268 -561.925 176.765 -562.72 181.426C-563.875 188.176 -560.821 194.028 -556.992 198.767C-549.621 207.883 -540.955 215.032 -529.826 217.776C-521.615 219.8 -514.251 217.37 -507.4 212.694C-502.833 209.58 -498.753 205.581 -494.173 202.495C-488.881 198.938 -483.089 196.829 -476.912 199.608C-470.369 202.552 -465.57 207.491 -464.442 215.616C-463.8 220.206 -465.622 224.355 -467.277 228.439C-469.727 234.497 -472.607 240.398 -474.557 246.649C-477.784 256.991 -477.822 267.71 -475.558 278.316C-473.942 285.871 -468.906 290.233 -462.44 291.73C-455.609 293.312 -448.578 293.925 -441.612 294.63C-439.412 294.851 -437.102 294.146 -434.889 293.618C-432.157 292.97 -430.412 290.974 -429.764 287.945C-428.853 283.683 -427.961 279.414 -427.198 275.116C-425.133 263.484 -418.237 257.739 -408.262 255.494C-400.327 253.712 -392.431 251.724 -384.522 249.814C-376.952 247.982 -369.492 248.538 -362.064 250.861C-356.323 252.657 -350.543 254.297 -344.744 255.836C-342.448 256.442 -340.055 256.642 -337.695 256.941C-329.997 257.917 -322.197 258.274 -314.628 259.956C-306.071 261.852 -297.821 261.374 -289.591 258.708C-280.149 255.651 -270.534 254.033 -260.726 253.292C-255.241 252.878 -249.84 251.153 -244.355 250.605C-230.346 249.208 -217.35 253.705 -211.75 271.602C-208.927 280.647 -207.163 290.097 -204.918 299.363C-203.308 306.013 -201.3 312.584 -200.229 319.341C-199.228 325.642 -199.107 332.028 -199.562 338.578C-200.236 348.243 -202.012 358.128 -199.126 367.772C-197.233 374.115 -193.596 378.748 -188.279 382.112C-181.543 386.381 -174.211 388.12 -166.745 389.496C-157.642 391.178 -148.303 391.456 -139.502 394.913C-136.724 396.003 -133.985 397.443 -131.496 399.189C-124.96 403.786 -125.479 411.598 -129.578 417.278C-133.087 422.139 -137.667 425.667 -142.703 428.333C-151.17 432.809 -158.239 439.238 -164.512 446.885C-167.867 450.976 -171.697 454.59 -176.399 456.422C-182.262 458.71 -188.291 460.57 -194.34 462.159C-202.975 464.426 -211.955 464.775 -220.333 468.567C-227.523 471.817 -231.763 477.619 -233.412 485.751C-235.522 496.157 -237.274 506.656 -239.243 517.097C-240.442 523.462 -239.981 529.427 -236.01 534.552C-232.726 538.793 -228.21 540.703 -223.508 542.022C-216.734 543.917 -209.909 543.875 -202.981 542.848C-197.15 541.986 -191.223 541.929 -185.354 541.316C-174.827 540.218 -164.147 540.261 -153.922 536.697C-143.71 533.141 -136.115 526.113 -130.771 515.722C-124.819 504.161 -118.455 492.857 -112.22 481.482C-107.775 473.371 -103.49 465.139 -98.6598 457.313C-95.9849 452.986 -92.4568 449.273 -89.102 445.517C-85.6701 441.675 -81.5199 438.561 -79.5185 433.358C-75.9584 424.085 -79.9034 414.663 -85.9524 409.887C-90.6158 406.209 -95.6192 403.066 -100.334 399.467C-103.978 396.687 -107.557 393.751 -110.912 390.551C-116.589 385.12 -122.4 379.781 -127.519 373.73C-131.676 368.812 -135.101 363.067 -138.456 357.394C-140.753 353.51 -142.292 349.084 -144.319 344.985C-147.263 339.027 -145.705 333.938 -141.689 329.704C-136.089 323.796 -130.419 317.923 -124.35 312.634C-117.557 306.704 -113.272 299.021 -109.994 290.447C-106.338 280.867 -101.861 271.965 -93.9322 265.879C-83.0979 257.561 -68.9536 256.699 -58.9981 268.38C-55.3546 272.657 -51.8843 277.111 -48.4075 281.559C-43.1154 288.323 -33.9361 290.169 -25.6612 285.386C-19.1632 281.63 -12.9602 277.24 -6.7124 272.97C-1.46522 269.378 2.03716 270.583 5.54596 274.36C8.90082 277.974 10.8444 282.471 12.8201 286.926C18.6254 300.04 24.1484 313.297 29.8831 326.447C34.8352 337.794 42.1094 346.91 51.3016 354.336C55.253 357.53 58.9927 361.264 62.168 365.384C66.6646 371.221 66.9405 378.156 63.7909 384.863C61.1352 390.522 57.9728 395.903 54.8553 401.277C51.0129 407.899 47.2539 414.563 45.631 422.332C45.0024 425.339 44.7972 428.49 44.6432 431.583C44.2391 439.893 44.6496 448.332 43.495 456.5C41.763 468.766 35.3035 478.11 26.3487 485.416C21.249 489.578 16.1301 493.748 11.3191 498.295C8.34274 501.103 6.08482 504.838 3.20464 507.796C-1.57426 512.714 -6.30187 517.796 -11.5747 522.001C-21.6777 530.069 -27.7716 541.216 -32.6852 553.454C-34.0708 556.904 -35.482 560.339 -36.8483 563.789C-40.7035 573.525 -39.613 582.997 -35.5654 592.298C-32.0502 600.38 -28.2078 608.313 -25.0967 616.588C-23.2878 621.399 -22.5052 626.723 -21.4789 631.862C-19.7726 640.394 -18.2074 648.954 -16.6487 657.513C-15.3016 664.933 -14.1213 672.367 -15.6672 679.965C-16.7513 685.31 -19.3107 689.836 -22.4667 693.806C-29.6896 702.908 -34.9753 713.385 -40.3507 723.805C-41.5824 726.193 -42.5125 728.78 -43.5837 731.275" stroke="#F9FAFC" stroke-width="3" stroke-miterlimit="10" stroke-linecap="round" stroke-linejoin="round"/>
<path d="M117.095 -37.4087C120.732 -29.6399 126.781 -24.6935 133.478 -20.7093C139.88 -16.9032 146.384 -13.2398 153.043 -10.0325C163.454 -5.01479 169.49 4.14388 173.525 15.3481C176.373 23.2666 179.452 31.2208 186.456 35.4901C190.831 38.1557 195.937 39.4743 200.825 40.9425C208.234 43.1734 215.444 45.5539 220.717 52.3819C226.452 59.8015 229.563 68.3259 229.986 78.0619C230.333 85.9946 229.518 93.8134 228.119 101.589C227.6 104.49 227.581 107.512 227.44 110.491C227.164 116.471 225.342 118.103 220.05 116.899C211.666 114.989 203.782 111.489 195.989 107.655C186.925 103.193 177.912 98.5958 168.707 94.5332C161.087 91.1691 154.043 92.4449 148.912 100.207C147.148 102.872 145.833 105.994 144.723 109.087C140.297 121.46 139.938 134.475 140.188 147.554C140.297 153.134 140.771 158.751 140.419 164.296C139.912 172.165 135.813 178.315 131.541 184.267C127.615 189.734 122.932 194.673 120.674 201.38C118.827 206.861 116.819 212.413 115.966 218.136C114.908 225.263 114.548 232.605 114.619 239.846C114.747 253.36 119.212 264.713 129.251 273.038C133.189 276.31 136.672 280.251 140.534 283.651C146.147 288.59 152.934 290.992 159.425 294.05C165.25 296.794 170.946 299.766 174.852 305.76C182.999 318.254 179.394 337.156 165.243 341.903C155.942 345.025 148.052 343.842 141.137 336.087C140.502 335.374 139.565 334.982 138.918 334.277C131.964 326.622 126.794 331.525 124.568 339.316C123.093 344.483 122.573 349.978 121.579 355.317C120.328 362.045 117.955 368.224 114.972 374.275C112.759 378.773 110.982 383.826 110.263 388.851C109.75 392.45 110.751 396.677 112.066 400.169C116.89 412.977 122.073 425.657 129.039 437.224C133.722 445 140.393 450.645 147.577 455.442C156.731 461.55 164.833 469.148 172.947 476.788C178.579 482.084 179.792 488.299 177.393 495.726C175.058 502.974 172.748 510.244 170.324 517.457C166.622 528.49 166.424 539.816 167.758 551.319C168.47 557.485 169.368 563.657 169.618 569.851C169.932 577.748 167.764 585.253 165.506 592.644C164.692 595.309 163.556 597.861 162.652 600.498C159.355 610.085 152.574 615.067 144.03 617.176C131.31 620.319 120.495 627.475 110.392 636.164C102.572 642.885 95.1056 650.105 87.2348 656.74C80.9485 662.043 73.7385 665.343 65.7843 666.02C60.2421 666.498 54.6485 666.305 49.1127 666.847C44.4364 667.303 39.5484 667.196 35.6163 671.031C30.831 675.699 28.1753 681.323 27.8738 688.514C27.6108 694.722 29.1183 700.531 30.5744 706.311C32.6463 714.55 32.4154 722.904 32.4282 731.278" stroke="#F9FAFC" stroke-width="3" stroke-miterlimit="10" stroke-linecap="round" stroke-linejoin="round"/>
<path d="M-274.199 -37.7651C-275.482 -32.0632 -276.579 -26.2972 -278.086 -20.6737C-281.903 -6.42608 -281.159 7.48655 -275.732 21.0001C-274.16 24.913 -271.71 28.384 -269.715 32.0902C-267.226 36.7017 -264.288 41.1206 -262.434 46.0314C-258.194 57.257 -251.433 65.9738 -242.081 71.9038C-232.112 78.2186 -224.723 87.306 -218.122 97.3413C-213.401 104.519 -208.962 111.938 -204.645 119.429C-201.027 125.701 -197.826 132.273 -194.324 138.63C-190.148 146.214 -184.259 151.73 -177.011 155.358C-171.661 158.038 -165.965 158.772 -160.371 156.734C-154.174 154.474 -147.888 152.172 -142.121 148.851C-131.403 142.664 -120.017 141.396 -108.393 142.365C-101.799 142.914 -96.0451 146.891 -90.4002 150.718C-83.0233 155.729 -75.3386 159.834 -66.371 160.069C-54.8182 160.369 -43.2783 161.231 -31.7319 161.331C-27.1391 161.374 -22.4628 160.39 -17.9597 159.221C-12.4367 157.789 -6.91372 157.154 -1.26243 157.126C4.08096 157.104 9.45642 156.983 14.7677 156.385C21.3299 155.65 24.2999 150.711 22.4396 143.997C20.3228 136.349 18.02 128.766 15.7235 121.182C13.6259 114.269 9.81568 108.795 4.54285 104.383C-2.34005 98.6314 -9.60785 93.7492 -17.6069 90.1498C-30.6735 84.2697 -42.7651 85.5812 -54.2281 95.0891C-60.1809 100.028 -67.192 102.452 -74.7036 102.209C-77.0706 102.131 -79.7262 101.689 -81.6891 100.378C-85.0889 98.1111 -86.1922 93.8489 -85.4866 89.8433C-84.3384 83.3289 -82.5487 76.9357 -80.7397 70.5923C-79.7904 67.2638 -77.7505 64.2846 -77.0449 60.9276C-75.2745 52.4603 -77.712 46.9081 -86.2563 46.0813C-89.8485 45.732 -93.5177 46.4519 -97.1548 46.6942C-105.269 47.2359 -112.697 45.2046 -118.952 39.1962C-126.547 31.8978 -133.737 24.1076 -142.333 18.1135C-151.493 11.7273 -160.993 6.16087 -170.917 1.42829C-177.62 -1.76477 -184.298 -4.95784 -190.193 -9.93274C-196.03 -14.8578 -198.583 -21.7927 -200.392 -29.2265C-201.065 -31.9991 -201.284 -34.9142 -201.713 -37.7651" stroke="#F9FAFC" stroke-width="3" stroke-miterlimit="10" stroke-linecap="round" stroke-linejoin="round"/>
<path d="M-295.687 -37.7651C-296.65 -33.2535 -297.387 -28.6564 -298.625 -24.2445C-300.524 -17.4806 -300.453 -10.5813 -299.094 -3.94576C-296.682 7.85004 -294.546 19.8668 -289.202 30.6077C-286.835 35.376 -283.75 39.7094 -280.921 44.1854C-276.418 51.3199 -273.557 59.3524 -270.683 67.3636C-268.181 74.3627 -263.775 79.2806 -257.835 82.6875C-253.967 84.9041 -250.118 87.1706 -246.288 89.4585C-239.739 93.3643 -236.018 99.9001 -233.497 107.291C-228.969 120.577 -222.881 132.907 -215.819 144.696C-211.893 151.246 -208.275 158.095 -206.659 165.757C-205.575 170.903 -205.478 176.427 -205.639 181.751C-205.902 190.439 -202.419 195.72 -195.311 198.935C-188.364 202.078 -181.269 203.903 -173.796 203.447C-168.305 203.112 -164.649 199.156 -161.634 194.559C-154.148 183.155 -144.321 175.251 -132.396 170.775C-119.65 165.985 -107.732 168.259 -96.7952 177.097C-92.3113 180.717 -87.7377 184.238 -82.9973 187.41C-73.8628 193.525 -63.9779 193.96 -53.8363 191.366C-47.6205 189.776 -41.501 187.282 -35.2146 186.597C-28.1329 185.828 -20.9036 186.54 -13.7448 186.79C-10.7428 186.897 -7.74074 187.332 -4.76435 187.838C6.68577 189.798 18.1102 191.914 29.5604 193.846C35.3143 194.815 41.1195 196.298 46.8735 196.141C52.2425 195.998 57.6116 194.181 62.9036 192.741C67.5607 191.473 72.1215 189.755 76.7015 188.158C81.6023 186.448 82.6414 185.094 82.4297 179.62C82.2309 174.502 81.6729 169.392 81.1789 164.296C80.5952 158.23 79.973 152.165 79.2545 146.121C78.1705 137.041 74.4885 129.222 69.3054 122.259C64.4752 115.766 59.3114 109.572 54.6223 102.951C50.3758 96.9564 48.5092 89.7222 47.1814 82.3311C46.604 79.1095 46.232 75.781 45.2057 72.7305C42.2998 64.1349 38.3933 63.3295 31.4719 66.2874C26.1349 68.5681 20.8813 71.1767 15.4096 72.9657C9.48252 74.8972 3.42713 73.8424 -2.52565 72.3599C-12.6672 69.8368 -22.1993 65.5176 -31.3851 60.222C-37.6522 56.6084 -41.1482 50.6856 -42.63 43.1305C-43.3099 39.6666 -43.7718 36.0887 -44.9264 32.8244C-48.2043 23.573 -55.5811 20.1234 -63.484 18.2988C-71.8358 16.3673 -80.348 15.2981 -88.8025 13.9226C-96.9363 12.5969 -104.801 10.252 -112.556 7.20858C-122.627 3.25289 -132.871 -0.139739 -143 -3.9315C-151.91 -7.25998 -160.922 -10.3533 -169.582 -14.366C-178.588 -18.5355 -184.393 -26.2901 -186.645 -37.0453C-186.716 -37.3232 -187.068 -37.5299 -187.28 -37.7651" stroke="#F9FAFC" stroke-width="3" stroke-miterlimit="10" stroke-linecap="round" stroke-linejoin="round"/>
<path d="M-179.578 -37.7648C-178.404 -35.3914 -177.423 -32.8612 -176.012 -30.666C-171.534 -23.6812 -164.94 -20.4738 -157.781 -18.1076C-150.385 -15.6629 -142.829 -15.6058 -135.324 -16.1475C-126.914 -16.7534 -119.717 -13.7242 -112.866 -8.89899C-103.828 -2.53425 -94.0839 1.55687 -83.3586 2.49768C-77.6945 2.9966 -72.0303 3.48126 -66.3598 3.91602C-62.6201 4.20825 -58.8675 4.70716 -55.1342 4.57174C-48.5014 4.33654 -41.8815 3.6238 -35.2488 3.22467C-25.6012 2.64735 -21.8679 9.846 -21.5343 18.5343C-21.3355 23.7444 -21.8422 28.9901 -22.1116 34.2074C-22.7339 46.388 -16.6848 51.3202 -8.98086 54.5988C2.6617 59.5452 12.9893 56.6443 22.7972 49.182C24.7024 47.728 26.6268 46.3025 28.5704 44.9055C34.9273 40.3369 41.868 39.3177 48.7188 42.5464C54.5754 45.3047 57.7313 51.0707 58.6999 58.0912C59.6301 64.8479 60.5795 71.6118 61.2466 78.4042C62.1896 88.0547 66.8787 95.5028 72.5556 102.224C80.0158 111.055 87.9186 119.401 96.5143 126.927C101.473 131.275 103.288 137.882 105.277 144.304C106.348 147.754 107.772 151.132 109.459 154.261C111.011 157.147 113.744 158.894 116.752 158.466C119.947 158.01 121.781 155.031 122.474 151.795C124.206 143.691 123.725 135.43 123.154 127.227C122.506 117.968 120.479 108.788 122.211 99.4228C123.43 92.8514 126.253 87.1281 129.954 81.9964C137.497 71.5334 145.65 61.8259 156.177 54.8055C163.207 50.1157 166.293 40.7075 164.541 31.3707C163.502 25.8327 162.386 20.3446 159.801 15.2984C155.811 7.5296 149.576 2.53332 143.052 -2.09948C135.977 -7.12427 128.696 -11.7784 121.595 -16.7747C114.751 -21.5928 109.164 -27.7224 106.168 -36.3394C105.982 -36.8739 105.546 -37.2944 105.225 -37.772" stroke="#F9FAFC" stroke-width="3" stroke-miterlimit="10" stroke-linecap="round" stroke-linejoin="round"/>
<path d="M95.6079 502.845C94.325 501.776 92.6058 500.999 91.8297 499.587C87.8911 492.417 87.6794 484.484 92.4391 477.934C94.9985 474.414 97.821 471.085 100.765 467.956C106.872 461.477 108.296 453.787 106.93 444.742C105.769 437.052 103.979 429.789 99.4054 423.781C97.1218 420.78 94.6521 417.665 91.695 415.655C83.837 410.317 78.1601 413.546 73.7853 420.873C69.3913 428.235 67.4476 436.439 67.1076 445.12C66.8767 451.05 66.8062 457.016 67.1205 462.931C67.6978 474.022 64.7471 482.874 55.8757 489.017C48.1075 494.399 40.4035 499.987 33.1486 506.18C27.9014 510.656 23.084 515.923 18.7413 521.483C14.8541 526.465 10.5691 530.741 5.81583 534.583C1.6848 537.926 -2.54885 541.176 -6.32707 544.967C-10.8622 549.515 -12.761 555.844 -12.9983 562.365C-13.2998 570.583 -9.64989 576.948 -3.15186 580.847C6.53424 586.655 14.0266 594.488 18.0806 606.163C19.2352 609.492 21.1981 612.563 23.1738 615.421C26.5158 620.24 31.6476 622.021 36.6189 623.162C44.2652 624.922 51.3854 627.852 58.0823 632.214C68.1725 638.785 77.8329 636.739 87.2689 630.425C94.357 625.671 100.881 620.118 106.526 613.333C112.927 605.636 121.093 600.639 128.938 595.094C137.393 589.129 141.312 580.305 141.55 569.136C141.716 561.403 139.702 554.147 138.605 546.678C137.354 538.154 137.348 529.636 138.175 521.012C139.022 512.153 139.452 503.208 139.452 494.299C139.452 486.965 134.699 480.985 128.329 478.982C124.339 477.728 121.414 480.507 118.431 482.61C117.013 483.608 116.064 485.418 114.858 486.808C109.297 493.23 103.761 499.709 95.9415 502.852" stroke="#F9FAFC" stroke-width="3" stroke-miterlimit="10" stroke-linecap="round" stroke-linejoin="round"/>
<path d="M276.82 731.103C278.546 723.256 280.817 715.551 284.922 708.894C290.227 700.284 297.681 694.404 306.315 690.256C312.999 687.041 319.997 684.069 324.872 677.769C333.731 666.322 342.692 654.847 349.447 641.718C352.333 636.102 353.944 629.367 354.925 622.916C356.625 611.783 361.41 602.61 367.6 594.093C371.892 588.192 376.452 582.526 380.705 576.588C385.779 569.504 387.274 561.55 384.926 552.726C383.258 546.44 379.089 543.14 373.983 541.009C366.131 537.73 357.953 536.091 349.639 534.772C340.447 533.318 332.326 536.632 324.321 540.374C315.693 544.408 307.354 549.226 298.951 553.831C291.183 558.086 285.333 564.265 283.575 574.13C282.863 578.128 282.343 582.183 281.971 586.246C281.4 592.525 279.174 598.013 275.832 602.981C268.738 613.515 259.603 620.842 247.922 623.572C242.245 624.898 236.363 625.126 230.629 626.202C224.284 627.399 217.998 628.975 211.699 630.443C209.544 630.942 207.356 631.419 205.291 632.246C197.317 635.446 197.548 641.262 200.929 647.442C203.655 652.424 207.433 656.778 211.102 661.019C215.272 665.837 219.506 670.705 221.815 676.821C224.073 682.808 225.753 689.244 226.639 695.665C228.14 706.549 229.474 717.411 233.162 727.724C233.56 728.829 233.611 730.091 233.829 731.274" stroke="#F9FAFC" stroke-width="3" stroke-miterlimit="10" stroke-linecap="round" stroke-linejoin="round"/>
<path d="M-284.778 -37.7651C-286.491 -30.0462 -288.64 -22.3985 -289.756 -14.5727C-290.481 -9.49084 -290.186 -4.06691 -289.487 1.0648C-288.217 10.3019 -286.177 19.3893 -281.571 27.4503C-278.376 33.0453 -275.009 38.5191 -271.994 44.2282C-268.921 50.0441 -266.073 56.024 -263.321 62.0324C-260.249 68.7535 -255.046 72.8232 -249.523 76.6649C-244.828 79.9292 -240.113 83.2363 -235.764 87.0352C-230.453 91.6751 -227.56 98.4817 -224.179 104.789C-219.541 113.435 -215.083 122.202 -210.343 130.776C-206.218 138.245 -202.106 145.765 -197.456 152.821C-193.62 158.644 -189.271 164.139 -184.639 169.2C-179.861 174.424 -173.529 174.353 -167.41 173.141C-158.923 171.466 -151.373 166.869 -143.682 162.835C-135.625 158.601 -127.357 155.394 -118.331 155.793C-111.025 156.114 -104.11 158.323 -97.8109 162.535C-92.0955 166.363 -86.6109 170.654 -80.7415 174.146C-77.8934 175.842 -74.4359 176.576 -71.1709 177.047C-63.8839 178.095 -56.8534 175.45 -49.6883 174.638C-46.3783 174.26 -43.062 173.654 -39.7456 173.611C-28.3083 173.483 -16.8582 173.284 -5.43372 173.676C1.00016 173.896 7.39556 175.251 13.8166 176.056C18.8393 176.683 23.8555 177.446 28.891 177.781C32.3998 178.009 35.9792 177.931 39.4623 177.425C46.7237 176.37 51.3102 171.152 54.5175 164.289C57.9172 157.026 59.816 149.357 58.0263 141.146C56.7498 135.288 53.6708 130.64 49.4243 126.856C43.1764 121.289 37.7753 114.939 33.9714 106.949C29.4363 97.4269 21.7066 93.0293 12.5594 90.385C4.27166 87.9831 -3.82362 84.6404 -11.8227 81.1907C-21.6371 76.9642 -31.5734 73.4148 -41.9907 71.6115C-44.2615 71.2195 -46.5195 70.5781 -48.7197 69.8297C-51.9462 68.7392 -54.3132 66.544 -55.1343 62.7308C-56.3338 57.1572 -57.2319 51.4767 -58.7265 46.0029C-61.3052 36.5805 -67.4889 31.4488 -75.9883 29.6099C-81.9283 28.327 -87.8554 27.8851 -93.9557 28.776C-103.045 30.0946 -111.173 26.4668 -118.62 21.0072C-128.229 13.9725 -138.736 8.91916 -149.128 3.6164C-157.48 -0.645773 -166.095 -4.28786 -174.421 -8.60705C-182.644 -12.8692 -189.354 -19.0273 -192.074 -29.2194C-192.818 -32.0347 -193.37 -34.9142 -194.011 -37.7651" stroke="#F9FAFC" stroke-width="3" stroke-miterlimit="10" stroke-linecap="round" stroke-linejoin="round"/>
<path d="M261.746 731.279C265.486 723.917 269.534 716.718 272.901 709.142C277.783 698.172 285.243 690.247 294.794 684.616C307.175 677.325 318.387 668.387 327.817 656.791C333.956 649.25 338.927 640.982 340.614 630.769C341.32 626.528 341.993 622.237 342.186 617.94C342.551 609.757 346.233 603.407 350.563 597.256C354.418 591.768 358.395 586.337 361.705 580.45C364.085 576.209 366.164 571.426 367.094 566.587C368.338 560.08 364.598 553.43 356.375 549.845C346.022 545.333 335.996 547.528 326.258 551.783C320.164 554.442 313.904 557.129 309.202 562.695C306.373 566.038 304.949 569.851 305.026 574.477C305.135 580.835 305.205 587.256 302.139 592.994C300.689 595.709 299.144 598.411 297.322 600.827C284.153 618.282 267.135 629.443 248.288 637.583C245.03 638.987 241.835 640.583 238.666 642.208C231.706 645.779 228.307 651.146 230.757 660.69C234.189 674.046 235.215 687.838 237.711 701.351C239.372 710.339 242.913 718.386 248.012 725.549C249.546 727.701 251.605 729.39 253.42 731.286" stroke="#F9FAFC" stroke-width="3" stroke-miterlimit="10" stroke-linecap="round" stroke-linejoin="round"/>
<path d="M133.453 -37.7651C138.726 -32.3412 145.558 -30.5023 152.081 -28.2358C163.313 -24.3372 170.921 -16.0195 176.38 -4.95071C178.811 -0.0185674 180.671 5.25569 182.852 10.3375C187.535 21.278 195.149 27.9706 205.926 30.3583C210.159 31.2991 214.393 32.5678 218.421 34.2926C226.452 37.7351 230.641 45.3614 234.131 53.4795C237.152 60.5071 239.519 67.8126 240.558 75.5601C241.18 80.1786 241.764 84.8114 242.156 89.4585C243.034 99.9428 249.045 106.514 258.853 107.313C268.064 108.061 277.295 108.182 286.461 109.992C293.607 111.411 300.875 111.61 307.957 108.417C313.345 105.987 316.873 101.375 320.029 96.5146C324.641 89.4157 328.663 81.8536 332.948 74.491C337.176 67.2211 338.491 58.9391 339.677 50.6143C341.031 41.1349 340.338 31.7553 338.394 22.4612C335.636 9.26127 331.017 -2.83388 320.363 -10.56C316.854 -13.1044 312.55 -14.3232 308.56 -16.0053C303.486 -18.1435 298.162 -19.2696 293.421 -22.6694C288.123 -26.4754 284.781 -31.6356 282.273 -37.7651" stroke="#F9FAFC" stroke-width="3" stroke-miterlimit="10" stroke-linecap="round" stroke-linejoin="round"/>
<path d="M493.313 731.28C488.63 725.877 482.446 723.325 476.269 721.472C469.207 719.355 465.903 714.438 464.421 707.054C462.157 695.75 459.662 684.495 457.436 673.184C456.794 669.934 456.576 666.549 456.461 663.213C456.153 654.425 456.55 645.559 455.62 636.863C454.799 629.159 452.342 621.689 451.034 614.02C449.584 605.524 448.628 596.929 447.435 588.376C447.153 586.352 447.025 584.249 446.428 582.332C445.286 578.668 440.905 576.559 436.21 576.943C432.156 577.278 428.089 577.628 424.022 577.642C415.266 577.67 407.004 579.944 398.998 583.722C391.692 587.171 385.2 591.897 379.761 598.354C374.238 604.904 370.896 612.559 369.78 621.511C368.445 632.209 364.853 641.674 358.034 649.757C352.12 656.763 345.77 663.541 341.645 672.151C338.297 679.136 335.25 686.306 332.337 693.526C329.906 699.548 325.891 702.898 320.105 703.839C316.577 704.416 313.036 704.93 309.521 705.635C300.656 707.41 294.607 713.297 290.61 722.021C289.225 725.05 288.025 728.186 286.742 731.28" stroke="#F9FAFC" stroke-width="3" stroke-miterlimit="10" stroke-linecap="round" stroke-linejoin="round"/>
<path d="M118.697 295.44C118.639 289.36 115.522 284.706 112.545 280.166C108.036 273.281 106.503 265.647 106.092 257.315C105.669 248.734 104.489 240.202 103.616 231.65C102.654 222.249 96.8423 217.965 89.4911 215.67C83.2561 213.724 76.9569 211.778 70.5615 210.773C64.705 209.854 58.765 210.888 52.9341 212.363C47.8473 213.646 42.6643 214.465 37.5518 215.634C32.2598 216.846 27.9363 219.02 26.5379 225.919C24.8508 234.23 22.3428 242.333 20.2388 250.537C17.8974 259.674 18.8981 268.676 21.1945 277.621C25.7233 295.24 33.0359 311.49 41.4583 327.114C46.4618 336.393 54.2235 342.616 62.5882 347.783C69.9201 352.309 77.3354 356.535 83.8014 362.701C91.0371 369.593 96.8231 365.316 99.9534 356.314C102.25 349.722 102.968 342.473 104.989 335.738C107.035 328.931 109.582 322.274 112.34 315.781C115.086 309.309 117.869 302.902 119.011 295.789" stroke="#F9FAFC" stroke-width="3" stroke-miterlimit="10" stroke-linecap="round" stroke-linejoin="round"/>
<path d="M300.875 -37.7651C304.32 -32.9114 309.143 -29.8965 314.076 -27.9507C327.085 -22.8262 335.739 -12.5841 342.532 0.0384483C347.971 10.1451 353.077 20.5011 359.928 29.5529C362.353 32.7531 365.182 35.5898 367.914 38.4906C376.625 47.7348 381.212 59.4522 384.631 71.9821C386.825 80.0289 389.365 87.9688 392.014 95.8517C393.239 99.5009 395.856 101.753 399.314 103.065C405.793 105.524 412.458 106.685 419.219 107.248C424.017 107.648 428.847 108.068 433.645 107.933C447.449 107.541 457.174 100.805 461.882 85.9019C463.319 81.3618 464.788 76.8359 466.379 72.367C468.855 65.4178 468.938 58.8678 464.455 52.7454C459.894 46.516 455.532 40.1014 450.952 33.8863C445.474 26.4525 439.887 19.1113 434.28 11.7844C429.264 5.22717 422.958 0.722676 415.684 -2.11402C407.929 -5.13602 400.879 -9.18437 396.094 -17.0744C392.996 -22.1847 391.931 -27.965 390.988 -33.8451C390.795 -35.0354 390.564 -36.2185 390.353 -37.4088" stroke="#F9FAFC" stroke-width="3" stroke-miterlimit="10" stroke-linecap="round" stroke-linejoin="round"/>
<path d="M330.387 -37.7651C343.832 -23.0257 353.524 -5.01486 365.109 11.3425C369.061 16.9232 373.756 21.948 378.554 26.6663C385.161 33.1594 388.022 41.6409 390.383 50.6143C392.981 60.5 395.098 70.4925 399.222 79.9078C405.63 94.5617 425.74 99.6221 437.235 90.606C442.964 86.1157 445.305 79.751 446.793 72.7091C449.449 60.1222 445.164 49.6378 438.095 40.3437C433.714 34.5777 428.89 29.1965 424.002 23.9437C418.979 18.5411 412.423 16.6381 405.759 15.3766C399.562 14.2005 393.962 12.1407 389.671 6.49585C385.039 0.401946 380.485 -5.84163 379.606 -13.8884C378.747 -21.7571 379.035 -29.7896 378.824 -37.7438" stroke="#F9FAFC" stroke-width="3" stroke-miterlimit="10" stroke-linecap="round" stroke-linejoin="round"/>
<path d="M77.9675 617.242C85.742 616.658 91.5794 612.125 96.9292 606.238C101.875 600.799 107.058 595.618 112.324 590.565C115.095 587.906 118.546 586.088 121.215 583.323C128.945 575.319 127.642 565.291 121.504 557.451C117.68 552.568 112.183 553.06 106.833 553.766C98.0838 554.921 89.796 554.735 82.6822 547.152C76.9219 541.008 72.3483 534.023 68.0376 526.717C65.3242 522.113 62.2773 517.872 57.7549 515.342C52.0844 512.163 46.7218 513.596 41.3912 516.718C35.9323 519.918 31.9938 524.929 28.6646 530.36C23.8921 538.157 17.7405 544.151 10.9538 549.568C7.4963 552.326 4.72517 555.612 4.77007 560.943C4.78931 563.687 5.98881 565.604 7.45134 567.308C9.74137 569.981 12.1277 572.646 14.8218 574.777C20.5886 579.332 24.1102 585.86 27.5228 592.361C31.4293 599.794 36.9395 604.52 44.297 606.508C53.1685 608.91 61.9117 611.626 70.2956 615.746C72.5471 616.857 75.1835 617.014 77.6403 617.606" stroke="#F9FAFC" stroke-width="3" stroke-miterlimit="10" stroke-linecap="round" stroke-linejoin="round"/>
<path d="M432.054 731.283C432.952 721.319 435.235 711.732 438.475 702.417C441.31 694.27 443.363 686.017 443.023 677.108C442.721 669.282 443.202 661.42 442.882 653.594C442.625 647.401 442.003 641.171 440.97 635.07C438.609 621.165 430.597 612.997 418.576 609.44C414.041 608.1 409.436 606.81 404.785 606.276C393.957 605.036 388.261 612.755 387.812 625.078C387.491 633.823 385.515 641.841 379.415 647.835C376.452 650.751 372.988 653.038 369.844 655.747C364.084 660.7 358.157 665.426 353.763 672.097C350.504 677.051 348.74 682.396 347.874 688.49C347.06 694.213 347.605 699.637 349.087 704.876C351.377 712.951 357.118 717.791 363.385 722.088C367.336 724.797 370.909 728.197 374.649 731.283" stroke="#F9FAFC" stroke-width="3" stroke-miterlimit="10" stroke-linecap="round" stroke-linejoin="round"/>
<path d="M3.55788 452.956C7.61834 452.272 11.8648 451.538 14.0458 447.197C15.6944 443.926 16.958 440.227 17.5803 436.542C19.2866 426.442 21.4612 416.528 25.7269 407.362C28.1709 402.124 31.1215 397.177 33.681 392.003C36.497 386.308 38.4984 380.3 35.8812 373.878C34.6817 370.941 33.1486 367.898 31.0703 365.731C21.0698 355.297 14.7642 342.047 7.644 329.353C5.04607 324.728 1.66556 320.608 -1.61231 316.503C-5.98068 311.029 -12.004 310.38 -17.9183 311.257C-24.5061 312.226 -30.9208 314.65 -37.5086 315.654C-47.1562 317.13 -56.6948 316.574 -64.7131 309.283C-67.0288 307.18 -68.7671 304.301 -70.8647 301.877C-72.385 300.124 -73.9117 298.314 -75.6885 296.917C-79.2294 294.13 -83.4566 295.256 -85.1886 299.768C-86.4202 302.982 -87.1322 306.574 -87.453 310.067C-88.0431 316.567 -87.9084 323.16 -88.6012 329.646C-88.9604 333.052 -90.5769 336.267 -91.3467 339.645C-92.8669 346.288 -90.5448 352.268 -87.7609 357.756C-83.6619 365.824 -78.96 373.607 -72.7249 379.844C-62.3525 390.214 -55.925 403.065 -51.8966 417.676C-50.7548 421.824 -49.2923 425.808 -46.5212 429.137C-43.4614 432.807 -39.7601 435.173 -35.565 436.542C-26.7128 439.414 -18.1813 442.907 -10.1438 448.159C-6.19877 450.74 -1.25952 451.424 3.23073 452.97" stroke="#F9FAFC" stroke-width="3" stroke-miterlimit="10" stroke-linecap="round" stroke-linejoin="round"/>
<path d="M220.691 731.281C220.158 729.022 219.395 726.798 219.139 724.503C218.728 720.847 218.779 717.134 218.42 713.463C217.759 706.685 217.548 699.75 216.066 693.186C213.455 681.632 205.802 674.84 196.302 670.364C193.255 668.924 190.112 667.72 187.008 666.422C181.254 664.02 177.642 659.231 175.147 653.23C172.472 646.786 169.528 640.586 163.254 637.592C161.214 636.623 159.033 635.775 156.846 635.468C137.993 632.845 121.283 638.169 107.152 652.531C101.738 658.033 96.7473 664.092 91.0254 669.159C84.3478 675.075 76.2654 678.019 68.0226 680.371C63.7761 681.582 59.5488 683.093 55.5269 685.011C47.6433 688.774 45.8279 695.381 46.6618 703.456C47.5149 711.731 49.4971 719.87 51.0238 728.06C51.229 729.157 51.646 730.205 51.9667 731.274" stroke="#F9FAFC" stroke-width="3" stroke-miterlimit="10" stroke-linecap="round" stroke-linejoin="round"/>
<path d="M-67.0014 355.667C-66.1931 363.956 -62.107 370.2 -57.0972 376.016C-52.716 381.105 -49.3483 386.928 -47.379 393.777C-45.7433 399.465 -43.5238 404.939 -41.6828 410.555C-39.3992 417.511 -34.2932 421.039 -28.4815 422.885C-21.2137 425.195 -13.7727 426.848 -6.06236 426.684C-1.20648 426.585 2.93735 424.646 5.69564 420.79C12.7902 410.847 16.8379 399.265 18.2684 386.671C18.8521 381.504 17.0752 376.786 14.7595 372.438C9.28784 362.167 3.78412 351.904 -1.9634 341.819C-3.76591 338.654 -6.17141 335.81 -8.67312 333.273C-14.1191 327.735 -20.7583 327.535 -27.5514 328.968C-34.8448 330.515 -42.0934 332.275 -49.3676 333.929C-58.9574 336.11 -64.7691 342.474 -66.6871 353.173C-66.8154 353.878 -66.9052 354.598 -67.0078 355.311" stroke="#F9FAFC" stroke-width="3" stroke-miterlimit="10" stroke-linecap="round" stroke-linejoin="round"/>
<path d="M17.3494 -37.7638C15.5341 -34.9129 13.8984 -31.8837 11.8521 -29.2537C9.38248 -26.0892 6.64979 -23.1527 3.85943 -20.3303C0.504574 -16.9305 -0.842493 -12.7396 -0.945127 -7.82886C-1.09908 -0.345115 -1.50961 7.13862 -1.49678 14.6224C-1.49036 17.8297 -1.00927 21.1297 -0.22027 24.2229C1.24227 29.9819 6.07248 32.6475 11.2427 30.6019C14.7515 29.2121 18.209 27.5514 21.4997 25.6199C27.786 21.9279 34.4444 22.3271 41.0772 23.2679C44.881 23.8095 48.5759 25.3063 52.3156 26.3825C62.4443 29.2976 67.1655 37.2161 69.0514 48.1068C70.4818 56.3603 71.7776 64.7634 74.2922 72.6392C77.3006 82.0473 84.4273 86.9367 93.0678 88.6401C96.9422 89.4028 100.541 87.3002 103.601 84.77C108.116 81.0424 112.69 77.3147 116.719 72.9884C123.999 65.1697 130.972 56.9875 137.912 48.7839C140.51 45.712 142.877 42.3336 144.969 38.8127C150.742 29.0909 148.477 21.5288 142.679 13.6174C136.495 5.17859 128.438 -0.794139 119.721 -5.80468C114.659 -8.71265 109.675 -12.0982 105.333 -16.1608C99.4504 -21.6773 95.948 -29.0257 95.3001 -37.7781" stroke="#F9FAFC" stroke-width="3" stroke-miterlimit="10" stroke-linecap="round" stroke-linejoin="round"/>
<path d="M273.611 343.551C272.482 337.051 269.429 331.819 265.304 327.122C260.134 321.221 254.887 315.398 247.927 312.254C238.203 307.857 228.067 305.134 217.483 306.218C210.459 306.937 206.418 312.183 204.744 319.353C203.506 324.677 202.871 330.23 202.473 335.725C201.966 342.71 201.889 349.737 201.78 356.744C201.646 365.475 206.181 368.739 212.659 368.981C222.275 369.338 231.223 366.522 240.262 363.572C247.35 361.262 254.611 359.623 261.712 357.378C264.297 356.558 266.767 355.054 269.083 353.486C272.219 351.362 272.983 347.628 273.599 343.914" stroke="#F9FAFC" stroke-width="3" stroke-miterlimit="10" stroke-linecap="round" stroke-linejoin="round"/>
<path d="M291.575 410.547C289.779 402.45 283.98 399.122 277.784 396.292C265.404 390.648 253.428 393.178 241.535 398.402C233.478 401.944 226.518 407.055 222.701 415.928C219.821 422.628 218.583 429.713 220.604 437.296C222.131 443.012 225.697 445.649 230.322 447.225C236.089 449.185 241.868 449.612 247.975 448.871C253.883 448.151 259.541 446.868 264.935 444.345C272.222 440.938 278.316 435.564 283.191 428.672C285.712 425.108 287.893 421.217 289.901 417.268C290.857 415.394 291.043 413.035 291.575 410.896" stroke="#F9FAFC" stroke-width="3" stroke-miterlimit="10" stroke-linecap="round" stroke-linejoin="round"/>
<path d="M260.785 -37.4088C263.935 -27.9009 267.777 -18.9275 275.532 -12.8051C280.548 -8.84938 286.405 -7.51656 292.217 -6.04833C297.451 -4.72263 302.749 -3.65353 307.92 -2.07838C316.785 0.630023 323.052 10.1379 323.065 21.3921C323.077 32.5108 320.922 43.0664 316.804 53.0519C315.104 57.1857 312.57 61.0773 309.78 64.4343C304.045 71.3407 297.849 77.7767 291.902 84.4836C287.38 89.5868 281.414 90.5989 275.519 91.504C272.164 92.0243 268.636 92.0172 265.282 91.504C259.573 90.6345 256.198 86.4864 254.351 80.5564C251.311 70.7919 248.148 61.0773 245.069 51.327C242.901 44.4491 240.791 37.5498 238.648 30.6576C237.455 26.816 235.498 23.8653 231.592 23.1668C229.026 22.7106 226.473 22.0763 223.888 21.7769C218.981 21.1996 213.971 21.2709 209.154 20.216C200.705 18.3629 194.297 13.1386 190.525 4.28637C187.132 -3.68917 183.809 -11.7003 180.23 -19.569C177.44 -25.7341 174.296 -31.7069 171.301 -37.7651" stroke="#F9FAFC" stroke-width="3" stroke-miterlimit="10" stroke-linecap="round" stroke-linejoin="round"/>
<path d="M307.608 28.5209C306.659 24.7505 306.659 20.6309 304.093 17.4592C299.936 12.3275 291.283 10.0681 284.535 12.8834C275.856 16.5041 269.197 23.1254 264.374 31.7638C258.562 42.1698 264.502 52.8965 273.976 55.7831C281.757 58.1565 289.667 57.2442 296.703 52.0341C302.894 47.4512 306.127 40.9154 306.98 32.7973C307.114 31.4787 307.397 30.1815 307.608 28.8772" stroke="#F9FAFC" stroke-width="3" stroke-miterlimit="10" stroke-linecap="round" stroke-linejoin="round"/>
<path d="M232.559 424.802C233.604 428.964 234.829 433.077 238.665 435.108C243.207 437.517 248.095 438.714 253.079 437.916C260.725 436.697 267.582 433.362 272.618 426.548C274.876 423.497 276.839 420.133 276.826 415.892C276.813 411.566 275.056 408.473 271.707 406.242C266.428 402.714 260.866 402.329 255.01 403.762C249.416 405.13 244.233 407.297 239.57 411.195C235.471 414.617 233.675 419.235 232.559 424.452" stroke="#F9FAFC" stroke-width="3" stroke-miterlimit="10" stroke-linecap="round" stroke-linejoin="round"/>
<path d="M69.9492 -36.6931C63.5603 -32.7089 56.4465 -31.369 49.4417 -29.4802C41.8981 -27.4489 36.0094 -22.9515 34.0144 -13.8855C32.8085 -8.4117 35.0087 -3.1018 39.4605 0.0484962C48.1779 6.2208 56.5042 2.97785 60.9175 -5.36831C64.9138 -12.9233 68.6471 -20.6708 72.1174 -28.5394C73.8942 -32.5592 73.0026 -34.9683 70.27 -36.6931" stroke="#F9FAFC" stroke-width="3" stroke-miterlimit="10" stroke-linecap="round" stroke-linejoin="round"/>
<path d="M184.133 -37.7651C186.166 -32.1844 188.155 -26.5823 190.24 -21.0229C192.651 -14.5869 194.736 -7.93708 197.713 -1.84318C201.029 4.94208 206.552 9.16148 213.647 9.5036C217.919 9.71029 222.403 8.87639 226.104 6.33905C233.866 1.02203 240.479 -5.74898 244.065 -15.3424C246.708 -22.4128 247.452 -29.8324 246.034 -37.4159" stroke="#F9FAFC" stroke-width="3" stroke-miterlimit="10" stroke-linecap="round" stroke-linejoin="round"/>
<path d="M71.5515 252.321C69.595 246.584 64.9508 244.994 59.7357 248.843C56.4899 251.238 53.706 254.352 52.2435 258.707C51.3069 261.494 51.8329 263.661 53.2634 265.863C54.7708 268.194 57.048 267.873 59.0365 267.574C64.2388 266.79 69.6913 260.724 70.9229 254.816C71.0768 254.089 71.3398 253.39 71.5579 252.678" stroke="#F9FAFC" stroke-width="3" stroke-miterlimit="10" stroke-linecap="round" stroke-linejoin="round"/>
<path d="M337.759 568.775C333.872 568.811 331.409 571.391 329.818 574.876C328.946 576.794 329.253 579.081 330.697 580.892C332.127 582.688 333.763 582.973 335.848 582.367C338.677 581.555 340.671 579.751 341.91 576.958C343.981 572.275 342.923 570.008 338.08 568.419" stroke="#F9FAFC" stroke-width="3" stroke-miterlimit="10" stroke-linecap="round" stroke-linejoin="round"/>
<path d="M397.416 358.872C388.159 361.117 380.038 365.871 372.354 371.994C360.653 381.316 352.058 392.962 347.625 408.386C345.585 415.463 343.27 422.477 339.414 428.77C335.322 435.449 329.677 438.513 322.685 439.461C315.873 440.388 308.778 440.167 302.511 443.773C297.623 446.589 292.761 449.675 288.424 453.41C278.841 461.663 268.161 467.465 256.929 472.197C250.2 475.034 243.342 477.636 237.403 482.24C230.603 487.5 225.997 494.934 221.962 502.852C216.061 514.456 210.621 526.394 203.322 537.028C198.677 543.792 198.017 550.819 200.095 558.831C203.771 573.007 210.859 583.905 223.29 589.721C227.126 591.517 231.341 592.956 235.452 593.22C243.926 593.762 248.564 589.714 251.848 580.925C254.068 574.995 256.319 569.001 259.27 563.499C264.338 554.048 272.42 548.503 281.304 544.17C290.631 539.615 300.632 536.579 308.881 529.558C312.736 526.28 316.482 522.816 320.1 519.224C324.411 514.947 328.85 510.949 334.565 509.302C339.094 507.998 343.603 507.898 348.369 508.326C354.874 508.91 361.641 509.709 367.934 506.102C373.79 502.745 376.882 497.25 378.133 490.379C379.012 485.561 379.493 480.65 380.096 475.775C380.943 468.94 384.939 464.935 390.045 461.877C397.056 457.679 404.581 455.683 412.496 455.869C418.719 456.018 424.472 458.313 430.175 461.072C436.66 464.215 443.37 466.574 450.67 466.588C458.669 466.602 464.859 463.238 469.606 456.182C475.379 447.594 480.132 438.307 484.257 428.685C487.637 420.802 485.925 415.734 478.561 412.021C474.372 409.911 469.914 408.429 465.77 406.226C458.303 402.264 452.947 395.45 447.443 388.836C441.439 381.616 436.378 373.44 428.905 367.717C421.862 362.322 414.363 358.979 405.767 358.886C403.093 358.858 400.424 358.879 397.749 358.879" stroke="#F9FAFC" stroke-width="3" stroke-miterlimit="10" stroke-linecap="round" stroke-linejoin="round"/>
<path d="M299.912 470.775C284.491 475.664 270.449 483.811 256.927 493.212C250.044 497.994 244.855 504.316 242.924 513.211C242.186 516.604 242.167 520.381 242.616 523.852C243.129 527.794 246.561 530.609 250.84 530.566C264.599 530.424 278.179 528.692 290.912 522.391C296.679 519.54 300.893 514.373 303.985 508.486C307.776 501.259 310.701 493.511 312.773 485.393C315.05 476.491 309.848 470.048 302.477 470.761C301.733 470.832 300.983 470.768 300.232 470.768" stroke="#F9FAFC" stroke-width="3" stroke-miterlimit="10" stroke-linecap="round" stroke-linejoin="round"/>
<path d="M222.294 318.248C214.609 320.129 211.812 330.421 212.896 338.219C213.698 344.013 215.879 348.831 220.761 350.414C224.148 351.518 228.214 350.485 231.909 349.886C236.637 349.124 240.672 346.586 244.123 342.851C247.054 339.68 247.516 333.515 245.098 329.623C240.569 322.318 234.482 318.376 226.463 318.248C225.18 318.226 223.897 318.248 222.615 318.248" stroke="#F9FAFC" stroke-width="3" stroke-miterlimit="10" stroke-linecap="round" stroke-linejoin="round"/>
<path d="M210.753 294.728C201.497 296.424 198.354 303.594 197.237 312.895C196.166 321.833 194.825 330.742 193.395 339.623C192.49 345.225 190.637 350.507 187.314 354.933C183.85 359.544 179.013 361.91 174.19 364.22C164.683 368.774 156.152 374.982 148.544 382.765C146.652 384.697 144.881 386.771 143.085 388.816C139.429 392.971 137.716 397.904 137.568 403.777C137.35 412.472 139.737 420.063 144.361 426.948C153.008 439.813 172.984 441.887 182.946 430.248C188.129 424.182 191.759 417.119 195.659 410.177C199.008 404.218 201.997 398.01 205.339 392.045C208.444 386.5 213.691 383.87 218.823 381.824C228.618 377.918 238.586 374.469 248.638 371.49C254.013 369.9 259.742 369.8 265.277 368.824C269.684 368.047 274.239 367.541 278.383 365.859C283.431 363.806 286.542 359.066 287.337 353.165C288.633 343.586 288.113 334.064 281.866 326.544C277.523 321.313 272.468 316.766 267.49 312.24C259.581 305.055 250.107 301.941 240.273 299.66C230.613 297.422 221.061 294.55 211.074 294.735" stroke="#F9FAFC" stroke-width="3" stroke-miterlimit="10" stroke-linecap="round" stroke-linejoin="round"/>
<path d="M283.875 495.007C279.134 496.155 275.1 498.678 272.027 502.869C269.897 505.777 271.071 509.811 274.253 511.044C279.442 513.068 287.352 509.141 289.327 503.56C290.982 498.877 288.846 495.314 284.196 495.007" stroke="#F9FAFC" stroke-width="3" stroke-miterlimit="10" stroke-linecap="round" stroke-linejoin="round"/>
<path d="M65.7809 224.881C61.6114 226.307 57.1596 227.112 53.3236 229.272C41.3411 236.007 34.099 247.268 31.2894 261.623C29.9102 268.679 31.4497 275.97 34.0861 282.585C39.6412 296.533 47.1656 309.077 57.1404 319.654C61.6755 324.458 67.3717 327.138 73.4784 327.366C81.2594 327.658 87.674 323.453 91.7345 315.392C95.0957 308.728 94.9354 301.893 91.3817 295.478C86.4553 286.583 87.0069 277.467 89.4702 267.988C90.9648 262.236 92.6261 256.427 93.2227 250.519C94.0502 242.365 91.3175 232.387 80.836 228.11C76.0956 226.179 71.2461 224.589 66.0888 224.874" stroke="#F9FAFC" stroke-width="3" stroke-miterlimit="10" stroke-linecap="round" stroke-linejoin="round"/>
<path d="M160.071 212.765C152.9 213.735 147.627 218.303 143.791 224.583C137.19 235.402 139.564 244.789 148.23 251.56C155.876 257.532 164.587 259.778 173.856 259.043C178.892 258.644 183.613 252.978 183.754 246.97C184.068 233.734 178.892 223.335 169.674 215.281C166.986 212.929 163.708 212.587 160.392 212.758" stroke="#F9FAFC" stroke-width="3" stroke-miterlimit="10" stroke-linecap="round" stroke-linejoin="round"/>
<path d="M276.821 162.872C273.504 164.062 270.162 165.16 266.884 166.457C262.401 168.232 260.341 172.472 259.629 177.148C259.001 181.31 259.379 185.679 259.52 189.949C259.822 198.965 259.847 207.86 254.709 215.629C253.786 217.026 253.067 218.643 252.464 220.254C251.393 223.112 252.22 226.861 254.042 228.08C255.768 229.235 260.226 228.101 261.714 225.92C263.016 224.01 264.376 222.036 265.217 219.862C268.077 212.428 273.062 207.546 279.354 203.797C286.526 199.521 293.537 194.909 300.523 190.262C302.723 188.794 304.718 186.877 306.623 184.945C312.294 179.193 310.202 172.772 305.917 168.688C301.761 164.725 296.43 163.114 290.926 162.907C286.334 162.743 281.734 162.872 277.135 162.872" stroke="#F9FAFC" stroke-width="3" stroke-miterlimit="10" stroke-linecap="round" stroke-linejoin="round"/>
<path d="M271.047 146.476C269.231 146.833 267.403 147.132 265.594 147.553C252.527 150.589 246.382 160.532 244.111 174.273C243.194 179.847 242.559 185.477 241.494 191.008C240.051 198.52 236.292 204.949 233.219 211.699C231.032 216.496 229.146 221.492 229.384 227.009C229.768 235.996 233.11 242.924 240.538 247.4C247.024 251.306 253.971 253.023 261.11 254.043C268.705 255.133 275.216 248.982 277.474 239.132C278.353 235.305 279.058 231.378 280.412 227.75C283.991 218.142 290.483 211.521 298.976 207.472C303.966 205.092 309.182 203.246 314.352 201.379C320.388 199.205 326.45 197.059 330.356 190.994C335.706 182.683 335.244 172.434 329.984 163.988C324.577 155.314 316.712 150.539 307.283 149.37C301.112 148.607 294.883 148.379 288.687 147.888C282.914 147.431 277.14 146.94 271.367 146.469" stroke="#F9FAFC" stroke-width="3" stroke-miterlimit="10" stroke-linecap="round" stroke-linejoin="round"/>
<path d="M308.254 452.955C300.043 454.723 293.506 460.282 286.405 464.637C277.912 469.84 269.214 474.658 260.445 479.276C250.548 484.479 240.746 489.882 234.562 500.409C229.02 509.846 225.28 520.259 223.266 531.363C221.412 541.577 221.13 551.719 224.568 561.648C225.165 563.372 225.819 565.183 226.839 566.608C229.501 570.329 233.786 571.056 237.006 568.005C240.445 564.748 243.588 561.063 246.66 557.357C254.627 547.756 264.493 541.755 275.539 537.742C282.127 535.348 288.734 532.917 295.072 529.838C300.864 527.023 306.015 522.675 309.787 517.044C316.843 506.51 324.752 497.166 334.49 489.547C341.212 484.28 341.931 478.428 338.415 470.068C334.387 460.482 326.939 455.984 318.19 453.76C315.098 452.976 311.795 453.197 308.587 452.962" stroke="#F9FAFC" stroke-width="3" stroke-miterlimit="10" stroke-linecap="round" stroke-linejoin="round"/>
<path d="M395.488 372.416C389.356 373.863 383.339 375.659 377.841 379.18C365.993 386.756 358.848 397.868 356.994 413.042C356.179 419.699 354.826 426.32 354.543 433.006C354.146 442.378 357 449.456 367.584 450.09C375.551 450.568 383.069 447.738 390.658 445.757C399.92 443.341 409.081 440.44 418.247 437.596C421.204 436.676 424.174 435.572 426.888 434.018C434.098 429.877 436.093 422.272 436.477 414.118C437.145 400.163 431.25 389.543 422.128 380.591C414.482 373.086 405.418 371.803 395.802 372.43" stroke="#F9FAFC" stroke-width="3" stroke-miterlimit="10" stroke-linecap="round" stroke-linejoin="round"/>
<path d="M315.947 609.047C308.801 610.786 303.246 615.633 298.031 620.864C291.501 627.421 284.137 632.51 276.497 637.207C269.127 641.74 261.666 646.352 255.759 653.009C249.806 659.715 247.221 668.183 249.216 677.833C249.947 681.376 250.261 685.039 251.204 688.503C253.218 695.894 257.324 697.576 262.648 692.722C272.424 683.806 283.707 677.862 294.727 671.319C298.114 669.309 301.213 666.465 304.022 663.514C310.668 656.537 318.199 650.493 323.311 641.826C328.577 632.895 329.001 622.767 323.343 613.295C321.598 610.373 319.276 609.111 316.255 609.04" stroke="#F9FAFC" stroke-width="3" stroke-miterlimit="10" stroke-linecap="round" stroke-linejoin="round"/>
<path d="M180.602 377.405C171.852 378.56 164.642 383.157 158.497 389.907C153.968 394.882 150.107 400.334 150.447 408.053C150.78 415.594 156.528 422.586 163.603 422.507C169.979 422.436 174.662 419.272 178.581 414.717C184.04 408.374 188.344 400.983 190.519 392.359C191.013 390.391 191.346 388.339 191.475 386.307C191.738 381.981 189.865 378.033 184.771 377.427C183.501 377.277 182.206 377.405 180.923 377.405" stroke="#F9FAFC" stroke-width="3" stroke-miterlimit="10" stroke-linecap="round" stroke-linejoin="round"/>
<path d="M-15.6881 379.542C-19.9538 381.01 -23.0585 383.747 -25.0599 388.416C-28.2736 395.935 -27.0484 403.597 -17.9204 406.191C-11.2299 408.094 -3.11541 405.343 -2.24302 396.292C-1.39629 387.525 -7.32343 380.07 -15.3738 379.542" stroke="#F9FAFC" stroke-width="3" stroke-miterlimit="10" stroke-linecap="round" stroke-linejoin="round"/>
<path d="M265.914 132.222C263.669 132.7 261.404 133.092 259.178 133.662C248.716 136.349 241.519 143.077 238.331 154.673C236.381 161.794 234.161 168.843 232.628 176.077C230.434 186.404 225.912 195.627 222.237 205.256C219.953 211.236 218.465 217.558 218.625 223.809C218.914 234.92 221.268 245.747 228.125 254.4C232.712 260.187 239.011 263.508 245.406 266.138C252.122 268.897 258.967 271.42 265.927 273.244C274.901 275.596 281.982 280.928 288.025 288.326C291.585 292.688 294.959 297.249 298.641 301.476C305.511 309.366 309.347 318.966 312.112 329.294C314.883 339.664 317.629 350.063 320.81 360.284C324.146 371.003 328.187 371.431 336.776 367.411C345.205 363.463 351.44 356.243 357.194 348.795C362.948 341.346 366.919 332.58 369.247 322.908C371.736 312.559 370.536 302.923 365.969 293.671C359.753 281.077 349.644 273.266 338.688 266.623C327.334 259.738 315.557 253.936 303.125 249.767C295.767 247.294 291.636 240.259 294.17 231.321C295.857 225.37 300.123 221.87 305.056 219.618C309.2 217.722 313.536 216.261 317.866 214.95C331.465 210.823 340.875 201.757 345.442 186.761C348.74 175.941 352.184 165.179 355.321 154.31C356.476 150.311 355.276 147.66 351.517 146.562C347.636 145.429 343.576 145.044 339.676 143.954C333.113 142.108 326.648 139.834 320.085 138.002C317.167 137.19 314.126 136.791 311.118 136.556C299.648 135.672 288.096 136.135 276.78 133.063C273.4 132.144 269.75 132.486 266.222 132.244" stroke="#F9FAFC" stroke-width="3" stroke-miterlimit="10" stroke-linecap="round" stroke-linejoin="round"/>
<path d="M178.039 129.372C168.526 132.658 166.499 140.362 165.922 148.979C165.55 154.532 165.813 160.141 165.858 165.721C165.947 176.306 162.798 185.35 155.928 192.827C148.987 200.375 141.937 207.83 136.652 217.031C132.328 224.565 130.256 232.747 131.289 241.621C131.789 245.912 133.585 249.739 136.312 253.067C143.079 261.335 151.854 265.776 161.053 269.389C166.762 271.634 172.458 273.936 178.68 274.107C188.071 274.364 192.388 267.892 194.621 260.48C197.353 251.407 196.231 242.155 194.063 233.075C192.19 225.221 189.771 217.488 188.418 209.526C186.878 200.475 187.93 191.658 193.081 183.868C196.224 179.114 199.297 174.289 202.043 169.25C207.27 159.663 207.97 151.153 203.165 143.783C197.315 134.796 189.232 128.616 178.347 129.365" stroke="#F9FAFC" stroke-width="3" stroke-miterlimit="10" stroke-linecap="round" stroke-linejoin="round"/>
<path d="M364.702 116.544C358.179 117.969 351.706 119.837 345.125 120.713C336.407 121.868 327.6 122.231 318.838 122.965C313.597 123.407 308.363 123.985 303.122 124.37C294.725 124.983 286.604 122.866 278.419 121.219C269.695 119.466 260.926 119.815 252.119 120.735C247.353 121.234 242.504 120.82 237.693 120.82C230.187 120.82 229.014 122.06 228.725 130.442C228.661 132.338 228.686 134.241 228.718 136.144C229.058 154.069 225.255 170.854 217.878 186.791C215.19 192.6 212.996 198.751 211.155 204.959C209.026 212.115 209.058 219.663 210.193 227.004C211.418 234.915 213.304 242.705 214.921 250.538C217.788 264.408 225.671 273.032 237.693 277.259C243.562 279.326 249.406 281.471 255.339 283.289C264.762 286.168 273.647 290.231 280.959 297.615C287.348 304.072 294.039 310.18 298.696 318.555C302.352 325.119 303.879 332.41 305.643 339.638C307.747 348.262 308.144 357.164 307.503 365.987C306.958 373.478 304.386 380.157 298.644 384.918C294.834 388.075 290.414 388.724 286.136 387.961C277.29 386.386 268.464 384.433 259.502 385.338C251.247 386.172 243.37 388.916 235.723 392.637C230.489 395.181 225.485 397.868 221.303 402.323C213.843 410.263 210.565 420.505 208.217 431.224C206.633 438.452 206.062 445.828 206.184 453.312C206.274 458.822 209.308 462.214 214.273 462.285C224.472 462.428 234.434 460.682 244.441 458.757C253.024 457.111 261.311 454.944 269.156 450.54C275.712 446.855 281.517 442.029 286.675 436.463C295.328 427.119 304.815 419.286 315.63 413.406C321.096 410.434 324.758 405.395 327.773 399.828C333.457 389.33 340.744 380.542 348.89 372.302C360.828 360.25 372.041 347.342 380.425 331.798C382.817 327.357 385.428 323.059 387.769 318.59C390.688 313.003 390.893 307.008 388.706 301.164C384.37 289.582 378.494 279.005 370.771 269.804C365.62 263.66 358.756 260.374 352.207 256.561C345.837 252.848 339.364 249.227 334.233 243.404C328.357 236.733 329.281 232.264 333.572 226.298C338.325 219.691 343.258 213.212 347.614 206.284C351.225 200.54 353.913 194.082 357.377 188.217C360.514 182.907 363.894 177.704 367.64 172.907C374.331 164.326 378.013 154.533 378.834 143.278C379.078 139.936 379.976 136.629 380.008 133.3C380.04 129.387 379.738 125.396 379.033 121.561C378.487 118.604 375.338 116.608 372.393 116.558C369.937 116.522 367.473 116.551 365.017 116.551" stroke="#F9FAFC" stroke-width="3" stroke-miterlimit="10" stroke-linecap="round" stroke-linejoin="round"/>
<path d="M169.057 112.267C159.018 115.795 154.201 124.27 153.194 135.096C152.36 144.027 153.046 153.136 153.021 162.159C153.001 169.407 151.18 176.136 147.536 182.087C142.449 190.398 136.888 198.352 131.91 206.748C125.867 216.94 122.121 228.101 122.93 240.56C123.359 247.231 125.412 253.254 129.569 258.421C137.805 268.656 148.492 274.579 159.442 280.11C165.189 283.018 171.078 285.612 176.729 288.734C182.387 291.856 186.255 296.88 187.313 304.001C189.141 316.295 189.276 328.44 184.125 339.987C181.861 345.062 178.416 348.839 173.868 351.398C165.843 355.902 157.767 360.293 149.833 364.975C142.475 369.309 136.073 374.954 130.48 381.953C125.361 388.36 124.386 395.908 125.643 403.378C127.407 413.841 130.531 424.054 136.676 432.636C144.335 443.334 154.368 449.727 166.504 451.452C180.302 453.419 189.308 447.746 195.659 433.698C198.686 427.005 201.688 420.277 204.293 413.377C209.835 398.702 219.861 389.893 233.21 385.267C240.022 382.908 246.847 380.57 253.75 378.56C256.63 377.719 259.709 377.605 262.711 377.441C269.119 377.092 275.54 377.006 281.955 376.679C289.152 376.308 293.552 371.668 296.041 364.569C298.556 357.399 298.37 349.994 297.395 342.481C296.407 334.855 294.752 327.528 290.268 321.491C279.042 306.374 265.232 295.968 247.662 291.756C237.893 289.411 228.322 285.954 218.796 282.533C213.209 280.53 208.559 276.831 207.244 269.789C206.782 267.323 206.294 264.8 206.307 262.313C206.371 250.56 204.254 239.149 202.08 227.745C200.2 217.895 199.155 207.917 201.913 198.209C203.741 191.773 206.429 185.487 209.578 179.699C215.005 169.714 218.193 159.265 217.128 147.562C216.487 140.456 212.895 134.918 208.148 130.506C200.335 123.251 191.585 117.677 181.886 114.07C177.832 112.559 173.656 111.975 169.378 112.282" stroke="#F9FAFC" stroke-width="3" stroke-miterlimit="10" stroke-linecap="round" stroke-linejoin="round"/>
<path d="M186.373 55.2473C184.128 55.8389 181.799 56.1881 179.657 57.0791C173.839 59.5024 172.087 65.1401 174.467 71.6617C178.746 83.4076 187.066 89.6155 197.637 92.1529C202.903 93.4144 207.984 91.2548 211.351 86.2157C214.693 81.2052 215.822 75.4819 213.609 69.5234C210.402 60.8779 203.699 57.4711 195.995 56.0171C192.948 55.4398 189.805 55.4896 186.7 55.2473" stroke="#F9FAFC" stroke-width="3" stroke-miterlimit="10" stroke-linecap="round" stroke-linejoin="round"/>
<path d="M104.909 3.93142C99.8095 5.18584 96.121 8.64261 93.7348 13.5819C90.226 20.8304 86.6402 28.0932 83.8691 35.7053C81.4572 42.3266 82.2141 49.4112 84.78 55.9256C86.8006 61.0573 93.4462 65.1912 99.1359 63.4379C105.358 61.5206 110.894 58.2563 115.506 53.1246C120.247 47.8432 125 42.6331 128.361 36.0331C132.582 27.7511 132.3 21.6572 126.642 14.3445C121.132 7.22427 113.883 3.54654 105.23 3.93855" stroke="#F9FAFC" stroke-width="3" stroke-miterlimit="10" stroke-linecap="round" stroke-linejoin="round"/>
<path d="M83.0985 390.234C70.8465 395.358 64.3421 406.135 59.9866 419.092C57.7735 425.664 56.7408 432.442 56.0801 439.405C55.2526 448.165 54.7009 457.017 51.9875 465.427C49.9284 471.828 47.0098 477.751 42.6286 482.469C37.9587 487.501 32.7757 491.948 27.9519 496.809C23.4745 501.321 18.9136 505.797 14.8339 510.736C7.87404 519.168 -0.234041 525.981 -8.64363 532.403C-18.2592 539.744 -22.4415 550.628 -24.6289 562.716C-25.9503 570.029 -25.8413 577.17 -22.5185 584.141C-19.4715 590.534 -14.1345 593.364 -8.9451 596.528C-2.04295 600.74 2.77445 606.371 1.53001 615.786C1.01684 619.678 -0.33026 623.484 -1.62602 627.19C-3.73002 633.184 -5.86607 639.193 -5.37856 645.736C-4.7371 654.481 -2.53688 662.813 1.67112 670.296C4.15999 674.723 7.70728 675.385 10.844 671.665C14.2181 667.659 16.9315 662.977 19.9015 658.558C21.2293 656.576 22.3455 654.402 23.7824 652.528C28.9847 645.743 35.4634 643.576 44.29 646.798C48.3376 648.273 52.4237 649.627 56.4713 651.088C65.8816 654.488 74.7274 652.471 82.7136 646.705C90.2701 641.252 97.3775 635.023 104.568 628.965C111.977 622.714 118.398 615.024 126.724 610.113C130.65 607.797 134.717 605.751 138.572 603.299C147.02 597.911 150.895 588.859 153.627 579.087C156.052 570.392 154.981 561.54 153.993 552.73C153.435 547.741 152.71 542.766 152.441 537.763C152.171 532.788 152.171 527.778 152.441 522.803C152.717 517.678 153.397 512.575 153.999 507.479C155.116 497.971 155.815 488.563 152.428 479.304C149.618 471.621 144.685 465.998 138.54 461.963C126.885 454.309 119.713 442.862 114.524 429.441C111.4 421.359 107.025 414.103 101.996 407.368C98.423 402.578 94.5935 398.024 90.7832 393.462C88.8396 391.139 86.3828 389.884 83.4257 390.234" stroke="#F9FAFC" stroke-width="3" stroke-miterlimit="10" stroke-linecap="round" stroke-linejoin="round"/>
<path d="M315.306 277.622C309.18 278.947 309.309 283.053 311.15 287.593C312.901 291.905 315.095 296.024 316.512 300.458C318.719 307.357 320.38 314.463 322.375 321.448C324.306 328.219 325.762 335.189 329.707 341.077C332.914 345.866 336.07 346.85 340.965 344.27C349.65 339.701 353.505 331.348 354.32 321.441C355.654 305.155 347.963 294.036 336.135 285.839C329.848 281.477 323.164 278.185 315.621 277.622" stroke="#F9FAFC" stroke-width="3" stroke-miterlimit="10" stroke-linecap="round" stroke-linejoin="round"/>
</g>
</g>
</svg>
