<svg width="360" height="585" fill="none" xmlns="http://www.w3.org/2000/svg"><mask id="a" maskUnits="userSpaceOnUse" x="0" y="0" width="360" height="585"><path fill="#181B2B" d="M0 0h360v585H0z"/></mask><g opacity=".7" stroke="#F9FAFC" stroke-width="3" stroke-miterlimit="10" stroke-linecap="round" stroke-linejoin="round" mask="url(#a)"><path d="M577.984 328.439c-8.018 5.344-15.85 11.002-24.106 15.954-8.852 5.311-18.339 9.397-28.5 11.61-7.178 1.559-13.503-1.001-19.552-4.484-3.034-1.745-5.927-3.746-9.006-5.407-3.304-1.784-6.729-2.367-10.591-1.411-4.297 1.058-8.839 1.597-13.105-.27-3.04-1.328-5.702-3.22-6.767-6.69-.943-3.06-.533-4.869 1.956-6.723 1.303-.968 2.688-1.911 4.17-2.553 6.126-2.656 9.288-7.454 10.597-13.817 1.385-6.755 2.713-13.548 4.548-20.187 1.533-5.561 3.772-10.924 5.696-16.376 1.45-4.106 1.347-8.339.597-12.503-1.392-7.697-6.761-12.271-13.093-16.062-9.397-5.619-19.353-10.308-27.935-17.274-7.268-5.908-14.684-11.637-22.131-17.32-3.297-2.514-6.864-4.67-10.231-7.095-6.832-4.926-8.006-9.929-6.671-15.363 1.597-6.523 6.427-9.718 14.035-10.661 6.004-.744 12.2-.75 17.659-4.092 6.415-3.92 10.995-8.981 10.142-17.012-.302-2.848-1.283-5.933-2.88-8.281-5.453-8.044-8.692-16.794-10.225-26.358-1.283-8.005-6.216-12.81-14.029-15.164-6.684-2.014-13.407-2.976-20.219-1.777-10.674 1.88-16.056 9.353-18.551 19.193-1.418 5.58-2.309 11.296-3.246 16.986-1.296 7.851-5.119 14.407-10.321 20.167-5.472 6.056-10.411 12.541-14.266 19.667-2.688 4.965-4.863 10.399-4.933 16.287-.064 5.562 2.54 9.443 7.338 12.233 6.626 3.855 13.991 5.484 21.188 7.665 5.048 1.534 10.141 2.97 15.055 4.856 5.715 2.188 8.339 6.999 8.955 12.778 1.09 10.334 3.714 20.001 9.93 28.584 3.233 4.458 6.068 9.237 8.653 14.106 2.649 4.977 4.779 10.225 7.114 15.363.276.609.526 1.263.635 1.924 1.212 7.351-2.123 11.104-9.609 11.258-6.62.134-13.054-1.155-19.578-1.841-7.479-.783-14.959-.501-21.181 4.984-7.281 6.421-14.67 12.714-22.124 18.93-7.518 6.273-14.266 13.252-19.494 21.54-2.239 3.547-3.823 7.492-5.844 11.181-2.995 5.478-5.6 11.212-10.866 15.113-3.996 2.963-8.525 4.862-13.202 5.952-9.185 2.136-16.844 6.832-24.035 12.611-7.011 5.632-14.016 11.374-22.471 14.696-7.575 2.983-15.234 5.921-23.099 7.967-12.925 3.362-22.708 10.475-29.494 21.913-3.952 6.665-8.108 13.233-13.811 18.57a114.24 114.24 0 0 1-10.898 8.981c-6.832 4.971-9.699 11.552-9.68 19.923.019 7.916 2.136 15.312 4.253 22.772 1.09 3.843 1.834 7.82 3.284 11.515 2.143 5.471 6.415 9.057 11.803 11.238 8.852 3.586 17.621 7.422 26.659 10.462 4.869 1.636 10.2 2.457 15.35 2.579 10.007.231 18.475-6.222 20.925-16.21 1.706-6.947 2.842-14.073 6.267-20.584 3.49-6.627 8.269-11.912 14.85-15.299 8.75-4.51 17.826-8.397 26.557-12.958 6.703-3.502 12.951-7.871 19.635-11.411 6.607-3.496 13.875-3.509 21.13-2.63 7.582.923 15.26 1.988 22.746.211 10.603-2.514 15.722-10.411 18.333-20.418 1.437-5.497 2.842-11.039 4.869-16.331 2.437-6.357 8.056-8.679 14.349-9.289 8.16-.795 15.883 1.803 23.747 3.413 7.794 1.604 15.716 2.726 23.721 2.284 11.348-.635 19.725-5.709 24.78-16.287 3.291-6.889 7.242-13.522 12.778-18.93 5.831-5.702 12.547-9.904 20.809-11.289 5.177-.866 9.847.583 14.433 2.61 6.434 2.842 12.874 5.677 19.238 8.673 7.53 3.541 14.978 7.242 22.457 10.886 1.508.731 2.996 1.494 4.491 2.245M-56.422 658.153c7.55-9.904 14.446-20.251 20.469-31.143 2.893-5.222 5.96-10.366 7.53-16.3 1.636-6.183 1.412-12.098-.763-17.974-2.116-5.715-4.682-11.264-6.652-17.03-2.38-6.973-4.593-14.029-6.401-21.169-1.944-7.678-4.183-15.26-8.166-22.066-6.357-10.873-5.055-20.751 2.283-30.547 7.024-9.378 13.625-19.07 20.61-28.481 2.932-3.945 6.178-7.704 9.616-11.219 5.895-6.01 10.026-13.009 12.778-20.892 2.008-5.741 5.786-9.237 11.854-10.668 5.093-1.199 10.315-2.264 14.786-5.35 5.825-4.022 9.648-9.282 10.924-16.37 1.245-6.915-.301-13.695-.513-20.539-.224-6.98 1.424-13.805 5.292-19.886 3.996-6.28 8.268-12.425 11.79-18.961 4.895-9.071 3.021-15.158-3.156-21.733-2.79-2.97-5.965-5.581-8.942-8.371-8.48-7.948-13.779-18-19-28.186-3.759-7.332-7.358-14.805-12.72-21.239-3.458-4.144-9.52-6.556-14.78-5.068-7.518 2.124-14.978 4.446-22.457 6.71-11.803 3.579-20.161-1.212-26.294-9.308-3.355-4.426-6.6-8.871-11.193-12.232-6.133-4.497-16.588-3.297-21.945 1.873-5.074 4.894-8.262 10.706-10.417 17.127-2.714 8.082-6.902 15.119-12.874 21.168-1.861 1.886-3.548 3.964-5.138 6.088-5.562 7.409-3.445 18.23 4.496 24.33 9.455 7.268 18.744 14.683 26.98 23.388 4.15 4.388 9.07 8.031 13.375 12.278 7.39 7.293 11.957 16.056 12.508 26.588.206 3.945.507 7.98-.083 11.848-.815 5.331-4.279 8.994-8.827 11.951-7.402 4.817-14.9 9.679-20.526 16.646-6.704 8.3-13.272 16.723-19.552 25.344-5.709 7.832-10.835 16.088-16.441 23.991-6.774 9.551-16.486 14.946-27.577 17.55-9.602 2.258-19.429 3.547-29.16 5.241-7.48 1.302-14.953 2.668-22.458 3.823-6.498 1.001-13.022 1.886-19.565 2.566-10.584 1.097-21.168 1.988-31.444 5.112-8.513 2.585-16.98 1.258-25.325-1.231-8.333-2.483-16.608-5.196-25.043-7.281-5.209-1.289-10.732-1.302-15.998-2.418-6.588-1.399-13.221-2.887-19.546-5.158-11.591-4.156-23.015-8.736-35.312-10.494-5.465-.783-10.931-1.559-16.351-2.591-4.997-.95-8.57-4.112-11.213-8.314-2.271-3.598-1.584-8.993 1.251-12.188 3.605-4.054 8.198-6.709 12.849-9.275 5.933-3.272 12.181-6.011 17.319-10.591 3.169-2.822 6.505-5.459 9.59-8.371 4.272-4.035 9.404-6.395 15.1-6.562 4.253-.122 8.532 1.296 12.829 1.738 7.473.77 14.953 1.675 22.452 1.867 8.499.225 16.902.84 25.357 1.803 6.658.75 13.951 1.764 19.84-3.33 1.937-1.68 4.163-3.322 5.382-5.484 4.535-8.044 12.021-12.15 19.988-15.633 5.273-2.303 10.584-4.599 16.043-6.376 7.826-2.546 15.761-1.79 23.721-.135 6.216 1.29 12.534 2.714 18.911.7 9.089-2.868 14.291-9.686 17.935-17.968 1.495-3.399 1.905-6.921-.969-9.897-1.308-1.354-2.809-2.714-4.483-3.496-5.376-2.515-10.899-4.722-16.326-7.127-11.386-5.048-18.32-13.695-20.501-25.973-1.385-7.819-.571-15.588.532-23.42 1.835-13.002.648-25.832-4.131-38.141-2.527-6.511-5.272-12.964-8.351-19.231-4.061-8.256-10.379-13.535-20.149-13.51-9.942.033-19.924-.513-29.815.18-7.12.5-14.119 2.656-21.181 3.984-5.959 1.116-11.899 1.398-17.974.417-5.17-.834-10.469-1.303-15.703-1.264-4.92.038-9.827 1.116-14.76 1.456-5.549.385-11.168 1.039-16.665.539-7.537-.687-14.972-.834-22.464.122-5.01.641-10.046 1.084-15.075 1.629-.75.083-1.571.045-2.232.34-7.922 3.496-8.987 6.851-4.433 15.658 2.265 4.381 4.747 8.583 5.722 13.503 1.456 7.313-2.777 12.72-8.352 14.779-6.754 2.495-13.464 1.745-19.853-.763-6.171-2.418-11.912-5.921-18.038-8.467-3.97-1.649-8.236-3.047-12.483-3.496-9.853-1.04-19.327 1.058-28.558 4.618-3.669 1.418-4.965 3.772-5.157 7.447a105.027 105.027 0 0 1-1.27 11.861c-1.193 7.133-5.337 12.56-10.526 17.345-2.444 2.252-4.876 4.555-7.037 7.069-3.201 3.727-6.697 7.076-11.284 8.904-5.927 2.36-11.565.308-16.229-2.996-4.766-3.374-8.955-7.71-12.88-12.085-9.282-10.36-19.687-11.546-31.118-1.495-6.581 5.786-12.579 12.227-19 18.192-4.984 4.632-10.263 8.891-16.967 10.956-6.87 2.117-13.111 1.014-18.583-3.579-4.4-3.695-8.506-7.749-12.893-11.469-1.585-1.347-3.599-2.181-5.414-3.252"/><path d="M-652.98 65.12c13.945.597 26.255 5.671 36.807 14.523 6.934 5.818 12.957 12.708 19.686 18.782 8.487 7.672 17.339 14.946 25.909 22.529 3.9 3.451 7.864 6.947 11.168 10.943 4.913 5.933 4.028 12.534 1.09 19.193-1.744 3.951-3.605 7.999-4.4 12.194-1.155 6.074 1.899 11.341 5.728 15.607 7.371 8.204 16.037 14.638 27.166 17.107 8.211 1.822 15.575-.365 22.426-4.573 4.567-2.803 8.647-6.402 13.227-9.18 5.292-3.2 11.084-5.099 17.261-2.597 6.543 2.649 11.342 7.094 12.47 14.407.642 4.131-1.18 7.864-2.835 11.54-2.45 5.452-5.33 10.763-7.28 16.389-3.227 9.308-3.265 18.955-1.001 28.5 1.616 6.8 6.652 10.726 13.118 12.073 6.831 1.424 13.862 1.975 20.828 2.61 2.2.199 4.51-.436 6.723-.91 2.732-.584 4.477-2.38 5.125-5.107.911-3.835 1.803-7.678 2.566-11.546 2.065-10.469 8.961-15.639 18.936-17.659 7.935-1.604 15.831-3.394 23.74-5.113 7.57-1.648 15.03-1.148 22.458.943 5.741 1.617 11.521 3.092 17.32 4.478 2.296.545 4.689.724 7.049.994 7.698.879 15.498 1.199 23.067 2.713 8.557 1.707 16.807 1.277 25.037-1.122 9.442-2.752 19.057-4.208 28.865-4.875 5.485-.373 10.886-1.925 16.371-2.419 14.009-1.257 27.005 2.791 32.605 18.898 2.823 8.14 4.587 16.646 6.832 24.985 1.61 5.985 3.618 11.899 4.689 17.98 1.001 5.67 1.122 11.418.667 17.313-.674 8.698-2.45 17.595.436 26.274 1.893 5.709 5.53 9.879 10.847 12.907 6.736 3.842 14.068 5.407 21.534 6.645 9.103 1.514 18.442 1.764 27.243 4.875 2.778.982 5.517 2.278 8.006 3.849 6.536 4.138 6.017 11.168 1.918 16.28-3.509 4.375-8.089 7.55-13.125 9.95-8.467 4.028-15.536 9.814-21.809 16.697-3.355 3.682-7.185 6.934-11.887 8.583-5.863 2.059-11.892 3.733-17.941 5.163-8.635 2.04-17.615 2.355-25.993 5.767-7.19 2.925-11.43 8.147-13.079 15.466-2.11 9.365-3.862 18.814-5.831 28.211-1.199 5.729-.738 11.098 3.233 15.71 3.284 3.817 7.8 5.536 12.502 6.722 6.774 1.707 13.599 1.668 20.527.744 5.831-.776 11.758-.827 17.627-1.379 10.527-.988 21.207-.949 31.432-4.156 10.212-3.201 17.807-9.526 23.151-18.879 5.952-10.404 12.316-20.578 18.551-30.815 4.445-7.3 8.73-14.709 13.56-21.753 2.675-3.893 6.203-7.235 9.558-10.616 3.432-3.457 7.582-6.26 9.584-10.943 3.56-8.346-.385-16.826-6.434-21.124-4.664-3.309-9.667-6.138-14.382-9.378-3.644-2.501-7.223-5.144-10.578-8.024-5.677-4.888-11.488-9.693-16.607-15.139-4.157-4.426-7.582-9.596-10.937-14.702-2.297-3.496-3.836-7.48-5.863-11.168-2.944-5.363-1.386-9.943 2.63-13.753 5.6-5.318 11.27-10.604 17.339-15.363 6.793-5.337 11.078-12.252 14.356-19.969 3.656-8.621 8.133-16.633 16.062-22.111 10.834-7.486 24.978-8.262 34.934 2.251 3.643 3.849 7.114 7.858 10.59 11.861 5.293 6.087 14.472 7.749 22.747 3.445 6.498-3.381 12.7-7.332 18.949-11.175 5.247-3.233 8.75-2.149 12.258 1.251 3.355 3.252 5.298 7.3 7.274 11.309 5.805 11.803 11.328 23.734 17.063 35.569 4.952 10.212 12.226 18.417 21.419 25.101 3.951 2.874 7.69 6.235 10.866 9.943 4.497 5.253 4.773 11.495 1.623 17.531-2.656 5.093-5.818 9.936-8.936 14.773-3.842 5.959-7.601 11.957-9.224 18.948-.629 2.707-.834 5.543-.988 8.327-.404 7.479.007 15.074-1.148 22.425-1.732 11.04-8.191 19.449-17.146 26.024-5.1 3.747-10.219 7.499-15.03 11.592-2.976 2.527-5.234 5.888-8.114 8.55-4.78 4.426-9.507 9-14.78 12.785-10.103 7.261-16.197 17.294-21.11 28.307-1.386 3.105-2.797 6.197-4.163 9.302-3.855 8.762-2.765 17.287 1.283 25.658 3.515 7.274 7.357 14.414 10.468 21.861 1.81 4.33 2.592 9.122 3.618 13.747 1.706 7.678 3.272 15.382 4.83 23.086 1.347 6.678 2.528 13.368.982 20.206-1.084 4.811-3.644 8.885-6.8 12.458-7.223 8.191-12.508 17.62-17.884 26.999-1.231 2.149-2.162 4.477-3.233 6.722"/><path d="M117.095-33.667c3.637 6.992 9.686 11.444 16.383 15.03 6.402 3.425 12.906 6.722 19.565 9.608 10.411 4.516 16.447 12.76 20.482 22.843 2.848 7.127 5.927 14.285 12.931 18.128 4.375 2.399 9.481 3.585 14.369 4.907 7.409 2.008 14.619 4.15 19.892 10.295 5.735 6.678 8.846 14.35 9.269 23.112.347 7.14-.468 14.177-1.867 21.175-.519 2.61-.538 5.33-.679 8.012-.276 5.382-2.098 6.851-7.39 5.767-8.384-1.72-16.268-4.869-24.061-8.32-9.064-4.016-18.077-8.153-27.282-11.81-7.62-3.027-14.664-1.879-19.795 5.106-1.764 2.4-3.079 5.21-4.189 7.993-4.426 11.136-4.785 22.849-4.535 34.62.109 5.023.583 10.077.231 15.068-.507 7.082-4.606 12.618-8.878 17.974-3.926 4.92-8.609 9.365-10.867 15.401-1.847 4.933-3.855 9.93-4.708 15.081-1.058 6.415-1.418 13.022-1.347 19.539.128 12.162 4.593 22.381 14.632 29.873 3.938 2.944 7.421 6.492 11.283 9.551 5.613 4.446 12.4 6.607 18.891 9.359 5.825 2.47 11.521 5.145 15.427 10.54 8.147 11.244 4.542 28.256-9.609 32.528-9.301 2.81-17.191 1.745-24.106-5.234-.635-.642-1.572-.994-2.219-1.629-6.954-6.89-12.124-2.477-14.35 4.535-1.475 4.65-1.995 9.596-2.989 14.401-1.251 6.055-3.624 11.616-6.607 17.062-2.213 4.048-3.99 8.596-4.709 13.118-.513 3.24.488 7.044 1.803 10.187 4.824 11.527 10.007 22.939 16.973 33.35 4.683 6.998 11.354 12.078 18.538 16.395 9.154 5.498 17.256 12.336 25.37 19.212 5.632 4.766 6.845 10.36 4.446 17.044-2.335 6.524-4.645 13.066-7.069 19.558-3.702 9.93-3.9 20.123-2.566 30.476.712 5.549 1.61 11.104 1.86 16.678.314 7.107-1.854 13.862-4.112 20.514-.814 2.399-1.95 4.696-2.854 7.069-3.297 8.628-10.078 13.111-18.622 15.01-12.72 2.829-23.535 9.269-33.638 17.089-7.82 6.049-15.286 12.547-23.157 18.519-6.287 4.772-13.496 7.742-21.45 8.352-5.543.429-11.136.256-16.672.744-4.677.41-9.565.314-13.497 3.765-4.785 4.202-7.44 9.263-7.742 15.735-.263 5.587 1.244 10.815 2.7 16.018 2.072 7.415 1.841 14.933 1.854 22.47M-274.199-33.988c-1.283 5.131-2.38 10.32-3.887 15.382-3.817 12.823-3.073 25.344 2.354 37.506 1.572 3.522 4.022 6.646 6.017 9.982 2.489 4.15 5.427 8.127 7.281 12.547 4.24 10.103 11.001 17.948 20.353 23.285 9.969 5.683 17.358 13.862 23.959 22.894 4.721 6.46 9.16 13.137 13.477 19.878 3.618 5.645 6.819 11.56 10.321 17.282 4.176 6.825 10.065 11.79 17.313 15.055 5.35 2.412 11.046 3.072 16.64 1.238 6.197-2.034 12.483-4.106 18.25-7.095 10.718-5.568 22.104-6.71 33.728-5.837 6.594.494 12.348 4.073 17.993 7.518 7.377 4.509 15.061 8.204 24.029 8.416 11.553.269 23.093 1.045 34.64 1.135 4.592.039 9.268-.847 13.771-1.899 5.523-1.289 11.046-1.86 16.698-1.885 5.343-.02 10.718-.129 16.03-.668 6.562-.66 9.532-5.106 7.672-11.148-2.117-6.883-4.42-13.708-6.717-20.534-2.097-6.222-5.907-11.148-11.18-15.119-6.883-5.176-14.15-9.57-22.15-12.81-13.067-5.292-25.158-4.112-36.621 4.445-5.953 4.446-12.964 6.627-20.476 6.409-2.367-.07-5.022-.469-6.985-1.649-3.4-2.04-4.503-5.876-3.798-9.48 1.149-5.864 2.938-11.618 4.747-17.327.95-2.995 2.99-5.677 3.695-8.698 1.77-7.62-.667-12.617-9.211-13.361-3.593-.315-7.262.333-10.899.551-8.114.488-15.542-1.34-21.797-6.748-7.595-6.569-14.785-13.58-23.381-18.975-9.16-5.747-18.66-10.757-28.584-15.016-6.703-2.874-13.381-5.748-19.276-10.225-5.837-4.433-8.39-10.674-10.199-17.364-.673-2.496-.892-5.12-1.321-7.685"/><path d="M-295.687-33.988c-.963 4.06-1.7 8.198-2.938 12.168-1.899 6.088-1.828 12.297-.469 18.27 2.412 10.615 4.548 21.43 9.892 31.097 2.367 4.292 5.452 8.192 8.281 12.22 4.503 6.421 7.364 13.65 10.238 20.86 2.502 6.3 6.908 10.726 12.848 13.792a762.592 762.592 0 0 1 11.547 6.094c6.549 3.515 10.27 9.397 12.791 16.05 4.528 11.956 10.616 23.054 17.678 33.663 3.926 5.895 7.544 12.06 9.16 18.956 1.084 4.631 1.181 9.602 1.02 14.394-.263 7.82 3.22 12.573 10.328 15.466 6.947 2.829 14.042 4.471 21.515 4.06 5.491-.301 9.147-3.861 12.162-7.999 7.486-10.263 17.313-17.377 29.238-21.405 12.746-4.311 24.664-2.265 35.6 5.689 4.485 3.259 9.058 6.428 13.799 9.282 9.134 5.504 19.02 5.895 29.16 3.56 6.217-1.43 12.336-3.675 18.622-4.291 7.082-.693 14.311-.051 21.47.173 3.002.096 6.004.488 8.98.943 11.45 1.764 22.875 3.669 34.325 5.408 5.754.872 11.56 2.206 17.314 2.065 5.368-.128 10.738-1.764 16.03-3.06 4.657-1.141 9.217-2.687 13.797-4.124 4.901-1.54 5.94-2.758 5.729-7.685-.2-4.606-.757-9.205-1.251-13.791-.584-5.459-1.206-10.918-1.925-16.358-1.084-8.172-4.766-15.209-9.949-21.476-4.83-5.844-9.994-11.418-14.683-17.377-4.246-5.395-6.113-11.906-7.44-18.558-.578-2.9-.95-5.895-1.976-8.64-2.906-7.736-6.813-8.461-13.734-5.799-5.337 2.053-10.59 4.4-16.062 6.01-5.927 1.739-11.983.79-17.936-.545-10.141-2.27-19.673-6.158-28.86-10.924-6.266-3.252-9.762-8.583-11.244-15.382-.68-3.118-1.142-6.338-2.296-9.276-3.278-8.326-10.655-11.43-18.558-13.073-8.352-1.738-16.864-2.7-25.318-3.938-8.134-1.194-15.999-3.304-23.754-6.043C-122.627 2.928-132.871-.125-143-3.538c-8.91-2.996-17.922-5.78-26.582-9.391-9.006-3.753-14.811-10.732-17.063-20.411-.071-.25-.423-.437-.635-.648"/><path d="M-179.578-33.988c1.174 2.136 2.155 4.413 3.566 6.39 4.478 6.286 11.072 9.172 18.231 11.302 7.396 2.2 14.952 2.251 22.457 1.764 8.41-.545 15.607 2.18 22.458 6.524 9.038 5.728 18.782 9.41 29.507 10.257 5.664.449 11.329.885 17 1.276 3.739.263 7.491.712 11.225.59 6.633-.211 13.252-.853 19.885-1.212 9.648-.52 13.381 5.959 13.715 13.779.198 4.689-.308 9.41-.578 14.105C-22.734 41.75-16.685 46.19-8.98 49.14c11.643 4.452 21.97 1.841 31.778-4.875a250.817 250.817 0 0 1 5.773-3.848c6.357-4.112 13.298-5.03 20.149-2.124 5.856 2.483 9.012 7.672 9.98 13.99.931 6.082 1.88 12.17 2.548 18.282.943 8.686 5.632 15.39 11.309 21.438 7.46 7.948 15.363 15.459 23.958 22.233 4.959 3.913 6.774 9.86 8.763 15.639a48.033 48.033 0 0 0 4.182 8.961c1.552 2.598 4.285 4.17 7.293 3.785 3.195-.411 5.029-3.092 5.722-6.004 1.732-7.294 1.251-14.728.68-22.111-.648-8.333-2.675-16.595-.943-25.024 1.219-5.914 4.042-11.065 7.743-15.684 7.543-9.416 15.696-18.153 26.223-24.471 7.03-4.221 10.116-12.689 8.364-21.092-1.039-4.984-2.155-9.923-4.74-14.465-3.99-6.992-10.225-11.488-16.749-15.658-7.075-4.522-14.356-8.711-21.457-13.208-6.844-4.336-12.431-9.853-15.427-17.608-.186-.48-.622-.86-.943-1.29M95.608 452.56c-1.283-.962-3.002-1.661-3.778-2.931-3.939-6.453-4.15-13.593.61-19.488 2.559-3.169 5.381-6.164 8.325-8.98 6.107-5.831 7.531-12.753 6.165-20.893-1.161-6.921-2.951-13.458-7.525-18.865-2.283-2.701-4.753-5.504-7.71-7.313-7.858-4.805-13.535-1.899-17.91 4.695-4.394 6.627-6.337 14.01-6.677 21.823-.231 5.337-.302 10.706.013 16.03.577 9.981-2.374 17.948-11.245 23.478-7.768 4.843-15.472 9.872-22.727 15.446-5.248 4.029-10.065 8.769-14.408 13.772-3.887 4.484-8.172 8.333-12.925 11.791-4.131 3.008-8.365 5.933-12.143 9.346-4.535 4.092-6.434 9.788-6.671 15.658-.302 7.396 3.348 13.124 9.846 16.633 9.686 5.228 17.179 12.278 21.233 22.785 1.154 2.995 3.117 5.76 5.093 8.332 3.342 4.337 8.474 5.94 13.445 6.967 7.646 1.584 14.766 4.22 21.463 8.146 10.09 5.915 19.75 4.074 29.187-1.61 7.088-4.278 13.612-9.275 19.257-15.382 6.401-6.928 14.567-11.425 22.412-16.415 8.455-5.369 12.374-13.311 12.612-23.362.166-6.96-1.848-13.49-2.945-20.213-1.251-7.672-1.257-15.337-.43-23.099a227.956 227.956 0 0 0 1.277-24.042c0-6.601-4.753-11.982-11.123-13.785-3.99-1.129-6.915 1.373-9.898 3.265-1.418.898-2.367 2.527-3.573 3.778-5.561 5.78-11.097 11.611-18.916 14.44M276.82 657.992c1.726-7.062 3.997-13.996 8.102-19.988 5.305-7.749 12.759-13.041 21.393-16.774 6.684-2.893 13.682-5.568 18.557-11.238 8.859-10.302 17.82-20.63 24.575-32.446 2.886-5.054 4.497-11.116 5.478-16.921 1.7-10.02 6.485-18.276 12.675-25.941 4.292-5.312 8.852-10.411 13.105-15.755 5.074-6.376 6.569-13.534 4.221-21.476-1.668-5.657-5.837-8.627-10.943-10.545-7.852-2.951-16.03-4.427-24.344-5.613-9.192-1.309-17.313 1.674-25.318 5.042-8.628 3.63-16.967 7.967-25.37 12.111-7.768 3.829-13.618 9.391-15.376 18.268a117.559 117.559 0 0 0-1.604 10.905c-.571 5.652-2.797 10.591-6.139 15.062-7.094 9.481-16.229 16.075-27.91 18.532-5.677 1.193-11.559 1.398-17.293 2.367-6.345 1.077-12.631 2.495-18.93 3.816-2.155.449-4.343.879-6.408 1.623-7.974 2.881-7.743 8.115-4.362 13.676 2.726 4.484 6.504 8.404 10.173 12.22 4.17 4.337 8.404 8.718 10.713 14.221 2.258 5.389 3.938 11.181 4.824 16.961 1.501 9.795 2.835 19.571 6.523 28.853.398.994.449 2.129.667 3.194"/><path d="M-284.778-33.988c-1.713 6.947-3.862 13.83-4.978 20.873-.725 4.574-.43 9.455.269 14.074 1.27 8.313 3.31 16.492 7.916 23.747 3.195 5.035 6.562 9.962 9.577 15.1 3.073 5.234 5.921 10.616 8.673 16.024 3.072 6.049 8.275 9.711 13.798 13.169 4.695 2.938 9.41 5.914 13.759 9.333 5.311 4.176 8.204 10.302 11.585 15.979 4.638 7.781 9.096 15.671 13.836 23.388 4.125 6.722 8.237 13.49 12.887 19.84 3.836 5.241 8.185 10.187 12.817 14.741 4.778 4.702 11.11 4.638 17.229 3.547 8.487-1.507 16.037-5.645 23.728-9.275 8.057-3.811 16.325-6.697 25.351-6.338 7.306.289 14.221 2.277 20.52 6.068 5.716 3.445 11.2 7.307 17.07 10.45 2.848 1.526 6.305 2.187 9.57 2.61 7.287.943 14.318-1.436 21.483-2.168 3.31-.34 6.626-.885 9.942-.923 11.438-.116 22.888-.295 34.312.057 6.434.199 12.83 1.418 19.25 2.143 5.023.564 10.04 1.251 15.075 1.552 3.509.205 7.088.135 10.571-.321 7.262-.949 11.848-5.644 15.055-11.822 3.4-6.536 5.299-13.438 3.51-20.828-1.277-5.273-4.356-9.455-8.603-12.861-6.248-5.01-11.649-10.726-15.453-17.917-4.535-8.57-12.264-12.527-21.412-14.907-8.287-2.162-16.383-5.17-24.382-8.275-9.814-3.804-19.75-6.998-30.168-8.621-2.27-.353-4.529-.93-6.729-1.604-3.226-.981-5.593-2.957-6.414-6.389-1.2-5.016-2.098-10.129-3.593-15.055-2.578-8.48-8.762-13.099-17.261-14.754-5.94-1.154-11.867-1.552-17.968-.75-9.089 1.186-17.217-2.079-24.664-6.992-9.609-6.331-20.116-10.88-30.508-15.652-8.352-3.836-16.967-7.114-25.293-11.001-8.223-3.836-14.933-9.378-17.653-18.551-.744-2.534-1.296-5.125-1.937-7.691M261.746 658.151c3.74-6.626 7.788-13.105 11.155-19.924 4.882-9.872 12.342-17.005 21.893-22.072 12.381-6.563 23.593-14.607 33.023-25.043 6.139-6.787 11.11-14.228 12.797-23.42.706-3.817 1.379-7.678 1.572-11.546.365-7.364 4.047-13.08 8.377-18.616 3.855-4.939 7.832-9.827 11.142-15.125 2.38-3.817 4.459-8.121 5.389-12.477 1.244-5.856-2.496-11.841-10.719-15.068-10.353-4.06-20.379-2.084-30.117 1.745-6.094 2.393-12.354 4.811-17.056 9.821-2.829 3.008-4.253 6.44-4.176 10.603.109 5.722.179 11.502-2.887 16.665-1.45 2.444-2.995 4.876-4.817 7.05-13.169 15.71-30.187 25.755-49.034 33.08-3.258 1.264-6.453 2.701-9.622 4.164-6.96 3.213-10.359 8.043-7.909 16.633 3.432 12.021 4.458 24.433 6.954 36.595 1.661 8.089 5.202 15.331 10.301 21.778 1.534 1.937 3.593 3.457 5.408 5.164M133.453-33.988c5.273 4.881 12.105 6.536 18.628 8.576 11.232 3.509 18.84 10.995 24.299 20.957 2.431 4.439 4.291 9.185 6.472 13.76 4.683 9.846 12.297 15.869 23.074 18.018 4.233.846 8.467 1.988 12.495 3.54 8.031 3.099 12.22 9.963 15.71 17.269 3.021 6.325 5.388 12.9 6.427 19.872.622 4.157 1.206 8.327 1.598 12.509.878 9.436 6.889 15.35 16.697 16.069 9.211.673 18.442.782 27.608 2.412 7.146 1.276 14.414 1.456 21.496-1.418 5.388-2.188 8.916-6.338 12.072-10.712 4.612-6.39 8.634-13.195 12.919-19.822 4.228-6.543 5.543-13.997 6.729-21.489 1.354-8.531.661-16.973-1.283-25.338-2.758-11.88-7.377-22.765-18.031-29.719-3.509-2.29-7.813-3.386-11.803-4.9-5.074-1.925-10.398-2.938-15.139-5.998-5.298-3.425-8.64-8.07-11.148-13.586M493.313 658.152c-4.683-4.863-10.867-7.159-17.044-8.827-7.062-1.905-10.366-6.331-11.848-12.977-2.264-10.173-4.759-20.302-6.985-30.482-.642-2.925-.86-5.972-.975-8.974-.308-7.909.089-15.889-.841-23.715-.821-6.934-3.278-13.657-4.586-20.559-1.45-7.646-2.406-15.382-3.599-23.08-.282-1.821-.41-3.714-1.007-5.439-1.142-3.297-5.523-5.196-10.218-4.85-4.054.302-8.121.616-12.188.629-8.756.026-17.018 2.072-25.024 5.472-7.306 3.104-13.798 7.357-19.237 13.169-5.523 5.895-8.865 12.784-9.981 20.841-1.335 9.628-4.927 18.147-11.746 25.421-5.914 6.306-12.264 12.406-16.389 20.155-3.348 6.286-6.395 12.739-9.308 19.237-2.431 5.421-6.446 8.436-12.232 9.282-3.528.52-7.069.982-10.584 1.617-8.865 1.597-14.914 6.896-18.911 14.747-1.385 2.726-2.585 5.549-3.868 8.333M118.697 265.896c-.058-5.472-3.175-9.661-6.152-13.747-4.509-6.196-6.042-13.066-6.453-20.565-.423-7.723-1.603-15.402-2.476-23.099-.962-8.461-6.774-12.316-14.125-14.382-6.235-1.751-12.534-3.502-18.93-4.407-5.856-.827-11.796.103-17.627 1.431-5.087 1.154-10.27 1.892-15.382 2.944-5.292 1.09-9.616 3.047-11.014 9.256-1.687 7.48-4.195 14.773-6.3 22.156-2.34 8.224-1.34 16.326.957 24.376 4.528 15.857 11.84 30.482 20.263 44.543 5.004 8.352 12.766 13.952 21.13 18.603 7.332 4.073 14.747 7.877 21.213 13.426 7.236 6.203 13.022 2.354 16.152-5.748 2.297-5.933 3.015-12.457 5.036-18.519 2.046-6.126 4.593-12.117 7.351-17.961 2.746-5.824 5.529-11.591 6.671-17.993"/><path d="M300.875-33.988c3.445 4.368 8.268 7.081 13.201 8.833 13.009 4.612 21.663 13.83 28.456 25.19 5.439 9.096 10.545 18.416 17.396 26.563 2.425 2.88 5.254 5.433 7.986 8.044 8.711 8.32 13.298 18.865 16.717 30.142 2.194 7.242 4.734 14.388 7.383 21.483 1.225 3.284 3.842 5.311 7.3 6.492 6.479 2.213 13.144 3.258 19.905 3.765 4.798.36 9.628.738 14.426.616 13.804-.353 23.529-6.415 28.237-19.828 1.437-4.086 2.906-8.16 4.497-12.181 2.476-6.255 2.559-12.15-1.924-17.66-4.561-5.606-8.923-11.38-13.503-16.973-5.478-6.69-11.065-13.297-16.672-19.892-5.016-5.901-11.322-9.955-18.596-12.508-7.755-2.72-14.805-6.364-19.59-13.465-3.098-4.599-4.163-9.801-5.106-15.093-.193-1.072-.424-2.136-.635-3.207"/><path d="M330.387-33.988c13.445 13.265 23.137 29.475 34.722 44.197 3.952 5.022 8.647 9.544 13.445 13.791 6.607 5.844 9.468 13.477 11.829 21.553 2.598 8.897 4.715 17.89 8.839 26.364 6.408 13.189 26.518 17.743 38.013 9.629 5.729-4.042 8.07-9.77 9.558-16.107 2.656-11.329-1.629-20.765-8.698-29.13-4.381-5.189-9.205-10.032-14.093-14.76-5.023-4.862-11.579-6.574-18.243-7.71-6.197-1.058-11.797-2.912-16.088-7.992-4.632-5.485-9.186-11.104-10.065-18.346-.859-7.082-.571-14.311-.782-21.47M77.968 555.518c7.774-.526 13.611-4.606 18.961-9.904 4.946-4.895 10.129-9.558 15.395-14.106 2.771-2.393 6.222-4.028 8.891-6.517 7.73-7.204 6.427-16.229.289-23.285-3.824-4.394-9.321-3.952-14.671-3.317-8.75 1.039-17.037.873-24.15-5.953-5.761-5.529-10.335-11.815-14.645-18.39-2.714-4.144-5.76-7.961-10.283-10.238-5.67-2.861-11.033-1.572-16.364 1.238-5.459 2.88-9.397 7.39-12.726 12.278-4.773 7.017-10.924 12.412-17.711 17.287-3.458 2.482-6.229 5.44-6.184 10.238.02 2.469 1.219 4.195 2.681 5.728 2.29 2.405 4.677 4.805 7.37 6.723 5.768 4.098 9.29 9.974 12.702 15.824 3.906 6.691 9.417 10.944 16.774 12.733 8.872 2.162 17.615 4.606 25.999 8.314 2.251 1.001 4.887 1.142 7.344 1.674M432.054 658.154c.898-8.967 3.181-17.595 6.421-25.979 2.835-7.332 4.888-14.76 4.548-22.778-.302-7.044.179-14.119-.141-21.162-.257-5.575-.879-11.181-1.912-16.672-2.361-12.515-10.373-19.866-22.394-23.067-4.535-1.206-9.14-2.367-13.791-2.848-10.828-1.116-16.524 5.831-16.973 16.922-.321 7.871-2.297 15.087-8.397 20.482-2.963 2.623-6.427 4.682-9.571 7.12-5.76 4.458-11.687 8.711-16.081 14.715-3.259 4.458-5.023 9.269-5.889 14.754-.814 5.151-.269 10.032 1.213 14.747 2.29 7.268 8.031 11.623 14.298 15.491 3.951 2.438 7.524 5.498 11.264 8.275M3.558 407.66c4.06-.615 8.307-1.276 10.488-5.183 1.648-2.944 2.912-6.273 3.534-9.59 1.707-9.089 3.881-18.012 8.147-26.261 2.444-4.715 5.395-9.167 7.954-13.824 2.816-5.125 4.817-10.532 2.2-16.312-1.2-2.643-2.732-5.382-4.81-7.332-10.001-9.391-16.307-21.316-23.427-32.74-2.598-4.163-5.978-7.871-9.256-11.566-4.369-4.926-10.392-5.51-16.306-4.721-6.588.872-13.003 3.053-19.59 3.958-9.648 1.328-19.187.827-27.205-5.735-2.316-1.892-4.054-4.484-6.152-6.665-1.52-1.578-3.047-3.207-4.824-4.464-3.54-2.508-7.768-1.495-9.5 2.566-1.231 2.893-1.943 6.126-2.264 9.269-.59 5.85-.455 11.783-1.148 17.621-.36 3.066-1.976 5.959-2.746 9-1.52 5.978.802 11.36 3.586 16.299 4.1 7.261 8.801 14.266 15.036 19.879 10.372 9.333 16.8 20.899 20.828 34.049 1.142 3.733 2.605 7.319 5.376 10.315 3.06 3.303 6.76 5.433 10.956 6.664 8.852 2.586 17.384 5.729 25.421 10.456 3.945 2.322 8.884 2.938 13.375 4.33M220.691 658.153c-.533-2.033-1.296-4.035-1.552-6.1-.411-3.291-.36-6.633-.719-9.936-.661-6.101-.872-12.342-2.354-18.25-2.611-10.398-10.264-16.511-19.764-20.54-3.047-1.295-6.19-2.379-9.294-3.547-5.754-2.162-9.366-6.472-11.861-11.873-2.675-5.799-5.619-11.38-11.893-14.074-2.04-.873-4.221-1.636-6.408-1.912-18.853-2.36-35.563 2.431-49.694 15.357-5.414 4.952-10.405 10.404-16.127 14.965-6.677 5.324-14.76 7.974-23.002 10.09-4.247 1.091-8.474 2.451-12.496 4.176-7.884 3.387-9.7 9.334-8.865 16.601.853 7.448 2.835 14.773 4.362 22.144.205.988.622 1.931.943 2.893"/><path d="M-67.001 320.1c.808 7.461 4.894 13.08 9.904 18.314 4.381 4.58 7.749 9.821 9.718 15.986 1.636 5.118 3.855 10.045 5.696 15.1 2.284 6.26 7.39 9.436 13.201 11.097 7.268 2.078 14.71 3.566 22.42 3.419 4.856-.09 9-1.835 11.758-5.305 7.094-8.948 11.142-19.372 12.572-30.707.584-4.65-1.193-8.897-3.509-12.81-5.471-9.243-10.975-18.48-16.722-27.557-1.803-2.848-4.208-5.408-6.71-7.691-5.446-4.984-12.085-5.164-18.878-3.875-7.294 1.392-14.542 2.977-21.817 4.465-9.59 1.963-15.401 7.691-17.32 17.319-.127.635-.217 1.283-.32 1.925M17.35-33.987c-1.816 2.565-3.452 5.292-5.498 7.659-2.47 2.848-5.202 5.49-7.993 8.03C.505-15.237-.842-11.465-.945-7.045-1.1-.311-1.51 6.424-1.497 13.16c.007 2.887.488 5.857 1.277 8.64 1.462 5.184 6.292 7.583 11.463 5.742A78.316 78.316 0 0 0 21.5 23.058c6.286-3.323 12.944-2.964 19.577-2.117 3.804.488 7.499 1.835 11.239 2.803 10.128 2.624 14.85 9.75 16.735 19.552 1.43 7.428 2.727 14.991 5.241 22.08 3.009 8.467 10.135 12.867 18.776 14.4 3.874.687 7.473-1.206 10.533-3.483 4.515-3.355 9.089-6.71 13.118-10.603 7.28-7.037 14.253-14.401 21.193-21.784 2.598-2.765 4.965-5.806 7.057-8.975 5.773-8.75 3.508-15.555-2.29-22.675-6.184-7.595-14.241-12.97-22.958-17.48-5.062-2.617-10.046-5.664-14.388-9.32C99.45-19.51 95.948-26.125 95.3-34M273.611 309.196c-1.129-5.85-4.182-10.559-8.307-14.786-5.17-5.311-10.417-10.552-17.377-13.381-9.724-3.958-19.86-6.408-30.444-5.433-7.024.648-11.065 5.369-12.739 11.822-1.238 4.792-1.873 9.789-2.271 14.734-.507 6.287-.584 12.612-.693 18.917-.134 7.858 4.401 10.796 10.879 11.014 9.616.321 18.564-2.213 27.603-4.869 7.088-2.078 14.349-3.553 21.45-5.574 2.585-.738 5.055-2.091 7.371-3.502 3.136-1.912 3.9-5.273 4.516-8.615M291.575 369.493c-1.796-7.287-7.595-10.283-13.791-12.83-12.38-5.08-24.356-2.803-36.249 1.899-8.057 3.188-15.017 7.787-18.834 15.774-2.88 6.029-4.118 12.406-2.097 19.231 1.527 5.144 5.093 7.518 9.718 8.935 5.767 1.764 11.546 2.149 17.653 1.482 5.908-.648 11.566-1.802 16.96-4.073 7.287-3.066 13.381-7.903 18.256-14.106 2.521-3.207 4.702-6.71 6.71-10.263.956-1.688 1.142-3.811 1.674-5.735M260.785-33.667c3.15 8.557 6.992 16.633 14.747 22.143 5.016 3.56 10.873 4.76 16.685 6.08 5.234 1.194 10.532 2.156 15.703 3.574 8.865 2.437 15.132 10.994 15.145 21.123.012 10.007-2.143 19.507-6.261 28.494-1.7 3.72-4.234 7.223-7.024 10.244-5.735 6.216-11.931 12.008-17.878 18.045-4.522 4.592-10.488 5.503-16.383 6.318a37.736 37.736 0 0 1-10.237 0c-5.709-.783-9.084-4.516-10.931-9.853-3.04-8.788-6.203-17.531-9.282-26.306-2.168-6.19-4.278-12.4-6.421-18.603-1.193-3.457-3.15-6.113-7.056-6.742-2.566-.41-5.119-.981-7.704-1.25-4.907-.52-9.917-.456-14.734-1.405-8.449-1.668-14.857-6.37-18.629-14.337-3.393-7.178-6.716-14.388-10.295-21.47-2.79-5.548-5.934-10.924-8.929-16.376"/><path d="M307.608 25.669c-.949-3.394-.949-7.101-3.515-9.956-4.157-4.618-12.81-6.652-19.558-4.118-8.679 3.259-15.338 9.218-20.161 16.992-5.812 9.366.128 19.02 9.602 21.618 7.781 2.136 15.691 1.315 22.727-3.374 6.191-4.125 9.424-10.007 10.277-17.313.134-1.187.417-2.355.628-3.529M232.559 382.322c1.045 3.746 2.27 7.447 6.106 9.275 4.542 2.168 9.43 3.246 14.414 2.528 7.646-1.097 14.503-4.099 19.539-10.232 2.258-2.745 4.221-5.773 4.208-9.59-.013-3.893-1.77-6.677-5.119-8.685-5.279-3.175-10.841-3.522-16.697-2.232-5.594 1.231-10.777 3.181-15.44 6.69-4.099 3.079-5.895 7.236-7.011 11.931M69.95-33.024c-6.39 3.586-13.504 4.792-20.508 6.492-7.544 1.828-13.433 5.875-15.428 14.035-1.206 4.926.995 9.705 5.447 12.54C48.178 5.6 56.504 2.68 60.916-4.831c3.997-6.8 7.73-13.772 11.2-20.854 1.777-3.617.886-5.786-1.847-7.338M184.133-33.988c2.033 5.022 4.022 10.064 6.107 15.068 2.411 5.792 4.496 11.777 7.473 17.261 3.316 6.107 8.839 9.905 15.934 10.213 4.272.186 8.756-.565 12.457-2.849 7.762-4.785 14.375-10.879 17.961-19.513 2.643-6.363 3.387-13.04 1.969-19.866M71.552 227.089c-1.957-5.164-6.601-6.594-11.816-3.13-3.246 2.155-6.03 4.958-7.492 8.878-.937 2.508-.411 4.458 1.02 6.44 1.507 2.098 3.784 1.809 5.772 1.539 5.203-.705 10.655-6.164 11.887-11.482.154-.654.417-1.283.635-1.924M337.759 511.898c-3.887.032-6.35 2.354-7.941 5.491-.872 1.725-.565 3.784.879 5.414 1.43 1.616 3.066 1.873 5.151 1.327 2.829-.731 4.823-2.354 6.062-4.868 2.071-4.215 1.013-6.255-3.83-7.685M397.416 322.985c-9.257 2.02-17.378 6.299-25.062 11.809-11.701 8.391-20.296 18.872-24.729 32.753-2.04 6.37-4.355 12.682-8.211 18.346-4.092 6.011-9.737 8.769-16.729 9.622-6.812.834-13.907.635-20.174 3.881-4.888 2.534-9.75 5.311-14.087 8.673-9.583 7.428-20.263 12.649-31.495 16.909-6.729 2.553-13.587 4.894-19.526 9.038-6.8 4.734-11.406 11.424-15.441 18.551-5.901 10.443-11.341 21.188-18.64 30.758-4.645 6.088-5.305 12.412-3.227 19.622 3.676 12.759 10.764 22.567 23.195 27.802 3.836 1.616 8.051 2.912 12.162 3.149 8.474.488 13.112-3.156 16.396-11.065 2.22-5.337 4.471-10.732 7.422-15.684 5.068-8.506 13.15-13.496 22.034-17.396 9.327-4.099 19.328-6.832 27.577-13.15a192.268 192.268 0 0 0 11.219-9.302c4.311-3.848 8.75-7.447 14.465-8.929 4.529-1.174 9.038-1.263 13.804-.879 6.505.526 13.272 1.245 19.565-2.001 5.856-3.021 8.948-7.967 10.199-14.151.879-4.336 1.36-8.756 1.963-13.143.847-6.152 4.843-9.757 9.949-12.509 7.011-3.778 14.536-5.574 22.451-5.407 6.223.134 11.976 2.2 17.679 4.682 6.485 2.829 13.195 4.952 20.495 4.965 7.999.013 14.189-3.015 18.936-9.365 5.773-7.73 10.526-16.088 14.651-24.748 3.38-7.094 1.668-11.655-5.696-14.997-4.189-1.899-8.647-3.233-12.791-5.215-7.467-3.567-12.823-9.699-18.327-15.652-6.004-6.498-11.065-13.856-18.538-19.007-7.043-4.855-14.542-7.864-23.138-7.947-2.674-.026-5.343-.007-8.018-.007"/><path d="M299.912 423.698c-15.421 4.4-29.463 11.732-42.985 20.193-6.883 4.304-12.072 9.994-14.003 17.999-.738 3.054-.757 6.453-.308 9.577.513 3.548 3.945 6.081 8.224 6.043 13.759-.128 27.339-1.687 40.072-7.358 5.767-2.566 9.981-7.216 13.073-12.515 3.791-6.504 6.716-13.477 8.788-20.783 2.277-8.012-2.925-13.811-10.296-13.169-.744.064-1.494.006-2.245.006M222.294 286.423c-7.685 1.694-10.482 10.956-9.398 17.974.802 5.215 2.983 9.551 7.865 10.975 3.387.995 7.453.065 11.148-.474 4.728-.687 8.763-2.97 12.214-6.332 2.931-2.854 3.393-8.403.975-11.905-4.529-6.575-10.616-10.122-18.635-10.238-1.283-.019-2.566 0-3.848 0"/><path d="M210.753 265.255c-9.256 1.527-12.399 7.98-13.516 16.351-1.071 8.044-2.412 16.062-3.842 24.055-.905 5.042-2.758 9.795-6.081 13.778-3.464 4.151-8.301 6.28-13.124 8.359-9.507 4.099-18.038 9.686-25.646 16.691-1.892 1.738-3.663 3.605-5.459 5.446-3.656 3.739-5.369 8.178-5.517 13.464-.218 7.826 2.169 14.657 6.793 20.854 8.647 11.578 28.623 13.445 38.585 2.97 5.183-5.459 8.813-11.816 12.713-18.064 3.349-5.362 6.338-10.95 9.68-16.319 3.105-4.99 8.352-7.357 13.484-9.198a372.743 372.743 0 0 1 29.815-9.301c5.375-1.431 11.104-1.521 16.639-2.4 4.407-.699 8.962-1.154 13.106-2.668 5.048-1.847 8.159-6.113 8.954-11.424 1.296-8.622.776-17.192-5.471-23.959-4.343-4.708-9.398-8.801-14.376-12.874-7.909-6.466-17.383-9.269-27.217-11.322-9.66-2.014-19.212-4.599-29.199-4.433M283.875 445.506c-4.741 1.033-8.775 3.304-11.848 7.076-2.13 2.617-.956 6.248 2.226 7.357 5.189 1.822 13.099-1.712 15.074-6.735 1.655-4.215-.481-7.422-5.131-7.698M65.78 202.393c-4.169 1.283-8.62 2.008-12.456 3.952-11.983 6.062-19.225 16.197-22.035 29.116-1.379 6.35.16 12.912 2.797 18.865 5.555 12.554 13.08 23.843 23.054 33.363 4.535 4.323 10.232 6.735 16.338 6.94 7.781.263 14.196-3.521 18.257-10.776 3.36-5.998 3.2-12.15-.353-17.923-4.927-8.005-4.375-16.21-1.912-24.741 1.495-5.177 3.156-10.405 3.753-15.722.827-7.339-1.906-16.319-12.387-20.168-4.74-1.738-9.59-3.169-14.747-2.912M160.071 191.489c-7.171.872-12.444 4.984-16.28 10.635-6.601 9.738-4.227 18.186 4.439 24.28 7.646 5.375 16.357 7.396 25.626 6.735 5.036-.359 9.757-5.459 9.898-10.866.314-11.912-4.862-21.271-14.08-28.52-2.688-2.117-5.966-2.424-9.282-2.27M276.821 146.584c-3.317 1.072-6.659 2.06-9.937 3.227-4.483 1.597-6.543 5.414-7.255 9.622-.628 3.746-.25 7.678-.109 11.521.302 8.114.327 16.12-4.811 23.112-.923 1.257-1.642 2.713-2.245 4.163-1.071 2.572-.244 5.946 1.578 7.043 1.726 1.039 6.184.019 7.672-1.944 1.302-1.719 2.662-3.496 3.503-5.452 2.86-6.691 7.845-11.085 14.137-14.459 7.172-3.848 14.183-7.999 21.169-12.181 2.2-1.321 4.195-3.047 6.1-4.785 5.671-5.177 3.579-10.957-.706-14.632-4.156-3.567-9.487-5.016-14.991-5.202-4.592-.148-9.192-.033-13.791-.033"/><path d="M271.047 131.829c-1.816.32-3.644.59-5.453.968-13.067 2.733-19.212 11.681-21.483 24.049-.917 5.016-1.552 10.084-2.617 15.061-1.443 6.761-5.202 12.547-8.275 18.622-2.187 4.317-4.073 8.814-3.835 13.779.384 8.088 3.726 14.324 11.154 18.352 6.486 3.515 13.433 5.061 20.572 5.978 7.595.982 14.106-4.554 16.364-13.419.879-3.445 1.584-6.979 2.938-10.244 3.579-8.647 10.071-14.606 18.564-18.25 4.99-2.142 10.206-3.804 15.376-5.484 6.036-1.957 12.098-3.888 16.004-9.347 5.35-7.479 4.888-16.703-.372-24.305-5.407-7.806-13.272-12.104-22.701-13.156-6.171-.686-12.4-.892-18.596-1.334-5.773-.411-11.547-.853-17.32-1.277M308.254 407.66c-8.211 1.59-14.748 6.594-21.849 10.513-8.493 4.683-17.191 9.019-25.96 13.176-9.897 4.683-19.699 9.545-25.883 19.019-5.542 8.493-9.282 17.865-11.296 27.859-1.854 9.192-2.136 18.32 1.302 27.256.597 1.552 1.251 3.182 2.271 4.464 2.662 3.349 6.947 4.003 10.167 1.258 3.439-2.932 6.582-6.248 9.654-9.584 7.967-8.64 17.833-14.041 28.879-17.653 6.588-2.155 13.195-4.343 19.533-7.114 5.792-2.533 10.943-6.446 14.715-11.514 7.056-9.481 14.965-17.89 24.703-24.748 6.722-4.74 7.441-10.006 3.925-17.531-4.028-8.627-11.476-12.675-20.225-14.676-3.092-.706-6.395-.507-9.603-.719M395.488 335.175c-6.132 1.302-12.149 2.918-17.647 6.087-11.848 6.819-18.993 16.819-20.847 30.476-.815 5.991-2.168 11.95-2.451 17.967-.397 8.436 2.457 14.805 13.041 15.376 7.967.43 15.485-2.117 23.074-3.9 9.262-2.174 18.423-4.785 27.589-7.345 2.957-.827 5.927-1.821 8.641-3.22 7.21-3.727 9.205-10.571 9.589-17.909.668-12.56-5.227-22.118-14.349-30.175-7.646-6.755-16.71-7.909-26.326-7.345M315.947 548.142c-7.146 1.565-12.701 5.927-17.916 10.636-6.53 5.901-13.894 10.481-21.534 14.708-7.37 4.08-14.831 8.23-20.738 14.222-5.953 6.036-8.538 13.656-6.543 22.342.731 3.188 1.045 6.485 1.988 9.603 2.014 6.651 6.12 8.165 11.444 3.797 9.776-8.025 21.059-13.375 32.079-19.263 3.387-1.809 6.486-4.369 9.295-7.024 6.646-6.28 14.177-11.72 19.289-19.52 5.266-8.037 5.69-17.153.032-25.678-1.745-2.63-4.067-3.765-7.088-3.829M180.602 339.665c-8.75 1.039-15.96 5.177-22.105 11.251-4.529 4.478-8.39 9.385-8.05 16.332.333 6.787 6.081 13.079 13.156 13.009 6.376-.064 11.059-2.913 14.978-7.011 5.459-5.709 9.763-12.361 11.938-20.123a27.66 27.66 0 0 0 .956-5.446c.263-3.894-1.61-7.448-6.704-7.993-1.27-.135-2.565-.019-3.848-.019M-15.688 341.588c-4.266 1.321-7.37 3.785-9.372 7.986-3.214 6.768-1.988 13.663 7.14 15.998 6.69 1.713 14.805-.763 15.677-8.91.847-7.89-5.08-14.599-13.13-15.074"/><path d="M265.914 119c-2.245.43-4.51.783-6.736 1.296-10.462 2.418-17.659 8.473-20.847 18.91-1.95 6.408-4.17 12.752-5.703 19.263-2.194 9.295-6.716 17.596-10.391 26.262-2.284 5.382-3.772 11.071-3.612 16.697.289 10 2.643 19.744 9.5 27.532 4.587 5.208 10.886 8.198 17.281 10.565 6.716 2.482 13.561 4.753 20.521 6.395 8.974 2.117 16.055 6.915 22.098 13.573 3.56 3.926 6.934 8.031 10.616 11.835 6.87 7.101 10.706 15.742 13.471 25.037 2.771 9.333 5.517 18.692 8.698 27.891 3.336 9.647 7.377 10.032 15.966 6.414 8.429-3.554 14.664-10.052 20.418-16.755 5.754-6.703 9.725-14.593 12.053-23.298 2.489-9.314 1.289-17.986-3.278-26.313-6.216-11.334-16.325-18.365-27.281-24.343-11.354-6.197-23.131-11.418-35.563-15.171-7.358-2.226-11.489-8.557-8.955-16.601 1.687-5.356 5.953-8.506 10.886-10.533 4.144-1.706 8.48-3.021 12.81-4.201 13.599-3.714 23.009-11.874 27.576-25.37 3.298-9.738 6.742-19.424 9.879-29.206 1.155-3.599-.045-5.985-3.804-6.973-3.881-1.02-7.941-1.366-11.841-2.348-6.563-1.661-13.028-3.707-19.591-5.356-2.918-.731-5.959-1.09-8.967-1.302-11.47-.795-23.022-.378-34.338-3.143-3.38-.828-7.03-.52-10.558-.738M178.039 116.435c-9.513 2.957-11.54 9.891-12.117 17.646-.372 4.997-.109 10.046-.064 15.068.089 9.526-3.06 17.666-9.93 24.395-6.941 6.793-13.991 13.503-19.276 21.784-4.324 6.78-6.396 14.144-5.363 22.131.5 3.861 2.296 7.306 5.023 10.302 6.767 7.441 15.542 11.437 24.741 14.689 5.709 2.021 11.405 4.093 17.627 4.247 9.391.231 13.708-5.594 15.941-12.265 2.732-8.166 1.61-16.492-.558-24.664-1.873-7.069-4.292-14.029-5.645-21.194-1.54-8.147-.488-16.082 4.663-23.093 3.143-4.279 6.216-8.621 8.962-13.156 5.227-8.628 5.927-16.287 1.122-22.92-5.85-8.089-13.933-13.65-24.818-12.977"/><path d="M364.702 104.89c-6.523 1.282-12.996 2.963-19.577 3.752-8.718 1.039-17.525 1.366-26.287 2.027-5.241.398-10.475.917-15.716 1.264-8.397.551-16.518-1.354-24.703-2.835-8.724-1.578-17.493-1.264-26.3-.437-4.766.449-9.615.077-14.426.077-7.506 0-8.679 1.116-8.968 8.66-.064 1.706-.039 3.419-.007 5.132.34 16.133-3.463 31.239-10.84 45.582-2.688 5.228-4.882 10.764-6.723 16.351-2.129 6.44-2.097 13.233-.962 19.841 1.225 7.12 3.111 14.131 4.728 21.181 2.867 12.483 10.75 20.244 22.772 24.048 5.869 1.86 11.713 3.791 17.646 5.427 9.423 2.591 18.308 6.248 25.62 12.893 6.389 5.812 13.08 11.309 17.737 18.847 3.656 5.907 5.183 12.47 6.947 18.974 2.104 7.762 2.501 15.774 1.86 23.715-.545 6.742-3.117 12.752-8.859 17.037-3.81 2.842-8.23 3.426-12.508 2.739-8.846-1.417-17.672-3.175-26.634-2.36-8.255.75-16.132 3.22-23.779 6.568-5.234 2.29-10.238 4.709-14.42 8.718-7.46 7.146-10.738 16.364-13.086 26.011-1.584 6.505-2.155 13.144-2.033 19.879.09 4.959 3.124 8.012 8.089 8.076 10.199.128 20.161-1.443 30.168-3.175 8.583-1.482 16.87-3.432 24.715-7.396 6.556-3.317 12.361-7.659 17.519-12.669 8.653-8.41 18.14-15.459 28.955-20.751 5.466-2.675 9.128-7.211 12.143-12.22 5.684-9.449 12.971-17.358 21.117-24.774 11.938-10.847 23.151-22.464 31.535-36.454 2.392-3.996 5.003-7.864 7.344-11.886 2.919-5.029 3.124-10.424.937-15.684-4.336-10.424-10.212-19.943-17.935-28.225-5.151-5.529-12.015-8.486-18.564-11.918-6.37-3.342-12.843-6.601-17.974-11.841-5.876-6.004-4.952-10.026-.661-15.396 4.753-5.946 9.686-11.777 14.042-18.012 3.611-5.17 6.299-10.982 9.763-16.261 3.137-4.779 6.517-9.461 10.263-13.779 6.691-7.723 10.373-16.536 11.194-26.665.244-3.009 1.142-5.985 1.174-8.981.032-3.521-.27-7.113-.975-10.565-.546-2.662-3.695-4.458-6.64-4.503-2.456-.032-4.92-.006-7.376-.006"/><path d="M169.057 101.041c-10.039 3.175-14.856 10.802-15.863 20.546-.834 8.037-.148 16.235-.173 24.356-.02 6.524-1.841 12.579-5.485 17.935-5.087 7.48-10.648 14.639-15.626 22.195-6.043 9.173-9.789 19.218-8.98 30.431.429 6.004 2.482 11.424 6.639 16.075 8.236 9.212 18.923 14.542 29.873 19.52 5.747 2.617 11.636 4.952 17.287 7.762 5.658 2.809 9.526 7.331 10.584 13.74 1.828 11.065 1.963 21.995-3.188 32.387-2.264 4.567-5.709 7.967-10.257 10.27-8.025 4.054-16.101 8.005-24.035 12.22-7.358 3.9-13.76 8.98-19.353 15.28-5.119 5.766-6.094 12.559-4.837 19.282 1.764 9.417 4.888 18.609 11.033 26.332 7.659 9.628 17.692 15.382 29.828 16.935 13.798 1.77 22.804-3.336 29.155-15.979 3.027-6.024 6.029-12.079 8.634-18.288 5.542-13.208 15.568-21.137 28.917-25.3 6.812-2.123 13.637-4.227 20.54-6.036 2.88-.757 5.959-.859 8.961-1.007 6.408-.314 12.829-.391 19.244-.686 7.197-.334 11.597-4.51 14.086-10.899 2.515-6.453 2.329-13.118 1.354-19.879-.988-6.863-2.643-13.458-7.127-18.891-11.226-13.605-25.036-22.971-42.606-26.762-9.769-2.11-19.34-5.221-28.866-8.3-5.587-1.803-10.237-5.132-11.552-11.47-.462-2.219-.95-4.49-.937-6.729.064-10.577-2.053-20.847-4.227-31.11-1.88-8.866-2.925-17.846-.167-26.583 1.828-5.792 4.516-11.45 7.665-16.659 5.427-8.986 8.615-18.39 7.55-28.923-.641-6.396-4.233-11.38-8.98-15.35-7.813-6.53-16.563-11.547-26.262-14.793-4.054-1.359-8.23-1.885-12.508-1.61M135.058 586.629c-1.604.321-3.214.603-4.811.969-8.756 2.027-14.92 7.389-19.231 15.074-.937 1.668-1.758 3.4-2.572 5.125-3.817 8.076-.988 12.438 6.1 14.395 8.942 2.476 18.051 3.111 27.249 1.636 1.925-.308 3.958-.347 5.754-1.014 5.722-2.13 9.064-6.107 9.712-12.444.59-5.767.18-11.374-2.733-16.306-3.091-5.241-8.537-6.935-14.336-7.416-1.591-.134-3.208-.019-4.811-.019M186.373 49.723c-2.245.532-4.574.846-6.716 1.648-5.818 2.181-7.57 7.255-5.19 13.125 4.279 10.57 12.599 16.158 23.17 18.442 5.266 1.135 10.347-.809 13.714-5.344 3.342-4.51 4.471-9.66 2.258-15.023-3.207-7.78-9.91-10.847-17.614-12.156-3.047-.52-6.19-.474-9.295-.692M104.909 3.538c-5.1 1.13-8.788 4.24-11.174 8.686-3.509 6.523-7.095 13.06-9.866 19.91-2.412 5.96-1.655 12.336.911 18.199 2.02 4.619 8.666 8.339 14.356 6.761 6.222-1.726 11.758-4.663 16.37-9.282 4.741-4.753 9.494-9.442 12.855-15.382 4.221-7.454 3.939-12.939-1.719-19.52-5.51-6.408-12.759-9.718-21.412-9.365M83.099 351.21c-12.252 4.612-18.757 14.311-23.112 25.973-2.214 5.914-3.246 12.015-3.907 18.282-.827 7.883-1.38 15.85-4.093 23.42-2.059 5.76-4.977 11.09-9.358 15.337-4.67 4.529-9.853 8.531-14.677 12.906-4.478 4.061-9.038 8.089-13.118 12.534-6.96 7.589-15.068 13.721-23.478 19.501-9.615 6.607-13.798 16.402-15.985 27.281-1.321 6.582-1.212 13.009 2.11 19.283 3.047 5.754 8.384 8.3 13.574 11.148 6.902 3.791 11.72 8.859 10.475 17.333-.513 3.502-1.86 6.928-3.156 10.263-2.104 5.395-4.24 10.802-3.753 16.691.642 7.871 2.842 15.369 7.05 22.105 2.489 3.983 6.036 4.58 9.173 1.231 3.374-3.605 6.088-7.819 9.057-11.796 1.328-1.783 2.445-3.74 3.881-5.427 5.203-6.107 11.681-8.057 20.508-5.157 4.048 1.328 8.134 2.546 12.181 3.861 9.41 3.06 18.256 1.245 26.243-3.945 7.556-4.907 14.663-10.513 21.854-15.966 7.409-5.625 13.83-12.547 22.156-16.966 3.926-2.085 7.993-3.926 11.848-6.133 8.448-4.849 12.323-12.996 15.055-21.79 2.425-7.826 1.354-15.793.366-23.722-.558-4.49-1.283-8.967-1.552-13.47-.27-4.478-.27-8.987 0-13.465.276-4.612.956-9.205 1.558-13.791 1.117-8.557 1.816-17.025-1.571-25.357-2.81-6.915-7.743-11.976-13.888-15.607-11.655-6.889-18.827-17.191-24.016-29.27-3.124-7.274-7.499-13.804-12.528-19.866-3.573-4.311-7.402-8.41-11.213-12.515-1.943-2.091-4.4-3.22-7.357-2.906M315.306 249.859c-6.126 1.193-5.997 4.888-4.156 8.974 1.751 3.881 3.945 7.589 5.362 11.579 2.207 6.209 3.868 12.605 5.863 18.891 1.931 6.094 3.387 12.367 7.332 17.666 3.207 4.311 6.363 5.196 11.258 2.874 8.685-4.112 12.54-11.63 13.355-20.546 1.334-14.658-6.357-24.665-18.185-32.042-6.287-3.925-12.971-6.889-20.514-7.396"/></g></svg>