<svg width="360" height="650" fill="none" xmlns="http://www.w3.org/2000/svg"><mask id="a" maskUnits="userSpaceOnUse" x="0" y="0" width="360" height="650"><path fill="#181B2B" d="M0 0h360v650H0z"/></mask><g opacity=".7" stroke="#F9FAFC" stroke-width="3" stroke-miterlimit="10" stroke-linecap="round" stroke-linejoin="round" mask="url(#a)"><path d="M577.984 364.933c-8.018 5.937-15.85 12.223-24.106 17.725-8.852 5.902-18.339 10.442-28.5 12.901-7.178 1.732-13.503-1.112-19.552-4.982-3.034-1.939-5.927-4.163-9.006-6.009-3.304-1.981-6.729-2.63-10.591-1.568-4.297 1.176-8.839 1.775-13.105-.299-3.04-1.475-5.702-3.578-6.767-7.434-.943-3.4-.533-5.409 1.956-7.469 1.303-1.077 2.688-2.124 4.17-2.837 6.126-2.951 9.288-8.282 10.597-15.352 1.385-7.505 2.713-15.053 4.548-22.43 1.533-6.18 3.772-12.138 5.696-18.196 1.45-4.562 1.347-9.266.597-13.892-1.392-8.552-6.761-13.634-13.093-17.847-9.397-6.243-19.353-11.453-27.935-19.194-7.268-6.564-14.684-12.929-22.131-19.243-3.297-2.794-6.864-5.189-10.231-7.883-6.832-5.474-8.006-11.034-6.671-17.07 1.597-7.249 6.427-10.798 14.035-11.846 6.004-.827 12.2-.834 17.659-4.547 6.415-4.355 10.995-9.979 10.142-18.902-.302-3.165-1.283-6.593-2.88-9.202-5.453-8.937-8.692-18.659-10.225-29.286-1.283-8.895-6.216-14.233-14.029-16.849-6.684-2.238-13.407-3.307-20.219-1.974-10.674 2.088-16.056 10.391-18.551 21.325-1.418 6.201-2.309 12.551-3.246 18.873-1.296 8.724-5.119 16.008-10.321 22.408-5.472 6.729-10.411 13.934-14.266 21.853-2.688 5.517-4.863 11.553-4.933 18.096-.064 6.18 2.54 10.492 7.338 13.592 6.626 4.284 13.991 6.094 21.188 8.518 5.048 1.703 10.141 3.299 15.055 5.395 5.715 2.43 8.339 7.776 8.955 14.198 1.09 11.482 3.714 22.223 9.93 31.759 3.233 4.954 6.068 10.264 8.653 15.673 2.649 5.531 4.779 11.361 7.114 17.07.276.677.526 1.404.635 2.139 1.212 8.168-2.123 12.337-9.609 12.508-6.62.15-13.054-1.283-19.578-2.045-7.479-.87-14.959-.556-21.181 5.538-7.281 7.134-14.67 14.126-22.124 21.032-7.518 6.971-14.266 14.726-19.494 23.934-2.239 3.942-3.823 8.325-5.844 12.423-2.995 6.087-5.6 12.459-10.866 16.792-3.996 3.293-8.525 5.403-13.202 6.614-9.185 2.374-16.844 7.591-24.035 14.013-7.011 6.258-14.016 12.637-22.471 16.329-7.575 3.314-15.234 6.578-23.099 8.852-12.925 3.735-22.708 11.639-29.494 24.347-3.952 7.405-8.108 14.704-13.811 20.634a117.906 117.906 0 0 1-10.898 9.978c-6.832 5.524-9.699 12.836-9.68 22.138.019 8.795 2.136 17.013 4.253 25.302 1.09 4.269 1.834 8.688 3.284 12.793 2.143 6.08 6.415 10.064 11.803 12.488 8.852 3.984 17.621 8.246 26.659 11.624 4.869 1.818 10.2 2.73 15.35 2.866 10.007.256 18.475-6.914 20.925-18.011 1.706-7.719 2.842-15.638 6.267-22.872 3.49-7.363 8.269-13.236 14.85-16.999 8.75-5.01 17.826-9.33 26.557-14.397 6.703-3.892 12.951-8.745 19.635-12.68 6.607-3.884 13.875-3.898 21.13-2.922 7.582 1.026 15.26 2.21 22.746.235 10.603-2.794 15.722-11.567 18.333-22.686 1.437-6.108 2.842-12.266 4.869-18.146 2.437-7.064 8.056-9.644 14.349-10.321 8.16-.884 15.883 2.003 23.747 3.792 7.794 1.782 15.716 3.029 23.721 2.537 11.348-.705 19.725-6.343 24.78-18.096 3.291-7.655 7.242-15.025 12.778-21.033 5.831-6.336 12.547-11.005 20.809-12.544 5.177-.962 9.847.648 14.433 2.901 6.434 3.157 12.874 6.307 19.238 9.636 7.53 3.934 14.978 8.047 22.457 12.095 1.508.812 2.996 1.661 4.491 2.495M-56.422 731.281c7.55-11.005 14.446-22.501 20.469-34.603 2.893-5.802 5.96-11.518 7.53-18.111 1.636-6.871 1.412-13.442-.763-19.971-2.116-6.35-4.682-12.516-6.652-18.923-2.38-7.748-4.593-15.588-6.401-23.52-1.944-8.532-4.183-16.956-8.166-24.519-6.357-12.08-5.055-23.057 2.283-33.94 7.024-10.42 13.625-21.19 20.61-31.646a119.31 119.31 0 0 1 9.616-12.465C-12 506.904-7.87 499.128-5.118 490.369c2.008-6.379 5.786-10.264 11.854-11.853 5.093-1.333 10.315-2.516 14.786-5.944 5.825-4.469 9.648-10.314 10.924-18.189 1.245-7.684-.301-15.217-.513-22.822-.224-7.755 1.424-15.338 5.292-22.095 3.996-6.978 8.268-13.806 11.79-21.069 4.895-10.078 3.021-16.842-3.156-24.147-2.79-3.3-5.965-6.201-8.942-9.301-8.48-8.831-13.779-20-19-31.318-3.759-8.147-7.358-16.45-12.72-23.599-3.458-4.604-9.52-7.284-14.78-5.63-7.518 2.359-14.978 4.939-22.457 7.455-11.803 3.977-20.161-1.347-26.294-10.342-3.355-4.918-6.6-9.857-11.193-13.592-6.133-4.996-16.588-3.663-21.945 2.081-5.074 5.439-8.262 11.896-10.417 19.03-2.714 8.981-6.902 16.8-12.874 23.521-1.861 2.095-3.548 4.404-5.138 6.764-5.562 8.232-3.445 20.256 4.496 27.034 9.455 8.075 18.744 16.314 26.98 25.986 4.15 4.875 9.07 8.924 13.375 13.642 7.39 8.104 11.957 17.84 12.508 29.543.206 4.383.507 8.866-.083 13.164-.815 5.923-4.279 9.993-8.827 13.278-7.402 5.353-14.9 10.756-20.526 18.496-6.704 9.223-13.272 18.581-19.552 28.16-5.709 8.703-10.835 17.876-16.441 26.657-6.774 10.612-16.486 16.606-27.577 19.5-9.602 2.509-19.429 3.942-29.16 5.823-7.48 1.447-14.953 2.965-22.458 4.248-6.498 1.112-13.022 2.096-19.565 2.851-10.584 1.219-21.168 2.21-31.444 5.681-8.513 2.872-16.98 1.397-25.325-1.369-8.333-2.758-16.608-5.773-25.043-8.089-5.209-1.433-10.732-1.447-15.998-2.687-6.588-1.554-13.221-3.208-19.546-5.731-11.591-4.618-23.015-9.707-35.312-11.66-5.465-.87-10.931-1.732-16.351-2.88-4.997-1.055-8.57-4.568-11.213-9.237-2.271-3.998-1.584-9.992 1.251-13.542 3.605-4.504 8.198-7.455 12.849-10.306 5.933-3.635 12.181-6.678 17.319-11.767 3.169-3.136 6.505-6.066 9.59-9.302 4.272-4.483 9.404-7.106 15.1-7.291 4.253-.135 8.532 1.44 12.829 1.932 7.473.855 14.953 1.86 22.452 2.074 8.499.249 16.902.933 25.357 2.003 6.658.833 13.951 1.96 19.84-3.7 1.937-1.867 4.163-3.692 5.382-6.093 4.535-8.938 12.021-13.5 19.988-17.37 5.273-2.559 10.584-5.11 16.043-7.084 7.826-2.83 15.761-1.989 23.721-.15 6.216 1.432 12.534 3.015 18.911.777 9.089-3.186 14.291-10.763 17.935-19.964 1.495-3.778 1.905-7.69-.969-10.998-1.308-1.503-2.809-3.014-4.483-3.884-5.376-2.794-10.899-5.246-16.326-7.919-11.386-5.609-18.32-15.216-20.501-28.858-1.385-8.688-.571-17.32.532-26.022 1.835-14.447.648-28.702-4.131-42.38-2.527-7.234-5.272-14.404-8.351-21.368-4.061-9.172-10.379-15.038-20.149-15.01-9.942.036-19.924-.57-29.815.2-7.12.556-14.119 2.951-21.181 4.426-5.959 1.24-11.899 1.554-17.974.463-5.17-.926-10.469-1.447-15.703-1.404-4.92.043-9.827 1.24-14.76 1.618-5.549.428-11.168 1.155-16.665.599-7.537-.763-14.972-.927-22.464.135-5.01.713-10.046 1.205-15.075 1.81-.75.093-1.571.05-2.232.378-7.922 3.885-8.987 7.612-4.433 17.398 2.265 4.868 4.747 9.537 5.722 15.003 1.456 8.125-2.777 14.134-8.352 16.422-6.754 2.772-13.464 1.938-19.853-.848-6.171-2.687-11.912-6.579-18.038-9.409-3.97-1.831-8.236-3.385-12.483-3.884-9.853-1.155-19.327 1.176-28.558 5.132-3.669 1.575-4.965 4.191-5.157 8.275-.205 4.404-.616 8.83-1.27 13.178-1.193 7.926-5.337 13.956-10.526 19.273-2.444 2.501-4.876 5.06-7.037 7.854-3.201 4.141-6.697 7.861-11.284 9.893-5.927 2.623-11.565.342-16.229-3.329-4.766-3.749-8.955-8.567-12.88-13.428-9.282-11.51-19.687-12.829-31.118-1.66-6.581 6.428-12.579 13.584-19 20.213-4.984 5.146-10.263 9.878-16.967 12.173-6.87 2.352-13.111 1.127-18.583-3.977-4.4-4.105-8.506-8.61-12.893-12.743-1.585-1.497-3.599-2.424-5.414-3.614"/><path d="M-652.98 72.356c13.945.663 26.255 6.3 36.807 16.137 6.934 6.464 12.957 14.119 19.686 20.869 8.487 8.524 17.339 16.606 25.909 25.031 3.9 3.834 7.864 7.719 11.168 12.159 4.913 6.593 4.028 13.927 1.09 21.325-1.744 4.391-3.605 8.888-4.4 13.549-1.155 6.75 1.899 12.602 5.728 17.341 7.371 9.116 16.037 16.265 27.166 19.009 8.211 2.024 15.575-.406 22.426-5.082 4.567-3.114 8.647-7.113 13.227-10.199 5.292-3.557 11.084-5.666 17.261-2.887 6.543 2.944 11.342 7.883 12.47 16.008.642 4.59-1.18 8.739-2.835 12.823-2.45 6.058-5.33 11.959-7.28 18.21-3.227 10.342-3.265 21.061-1.001 31.667 1.616 7.555 6.652 11.917 13.118 13.414 6.831 1.582 13.862 2.195 20.828 2.9 2.2.221 4.51-.484 6.723-1.012 2.732-.648 4.477-2.644 5.125-5.673.911-4.262 1.803-8.531 2.566-12.829 2.065-11.632 8.961-17.377 18.936-19.622 7.935-1.782 15.831-3.77 23.74-5.68 7.57-1.832 15.03-1.276 22.458 1.047 5.741 1.796 11.521 3.436 17.32 4.975 2.296.606 4.689.806 7.049 1.105 7.698.976 15.498 1.333 23.067 3.015 8.557 1.896 16.807 1.418 25.037-1.248 9.442-3.057 19.057-4.675 28.865-5.416 5.485-.414 10.886-2.139 16.371-2.687 14.009-1.397 27.005 3.1 32.605 20.997 2.823 9.045 4.587 18.495 6.832 27.761 1.61 6.65 3.618 13.221 4.689 19.978 1.001 6.301 1.122 12.687.667 19.237-.674 9.665-2.45 19.55.436 29.194 1.893 6.343 5.53 10.976 10.847 14.34 6.736 4.269 14.068 6.008 21.534 7.384 9.103 1.682 18.442 1.96 27.243 5.417a38.55 38.55 0 0 1 8.006 4.276c6.536 4.597 6.017 12.409 1.918 18.089-3.509 4.861-8.089 8.389-13.125 11.055-8.467 4.476-15.536 10.905-21.809 18.552-3.355 4.091-7.185 7.705-11.887 9.537-5.863 2.288-11.892 4.148-17.941 5.737-8.635 2.267-17.615 2.616-25.993 6.408-7.19 3.25-11.43 9.052-13.079 17.184-2.11 10.406-3.862 20.905-5.831 31.346-1.199 6.365-.738 12.33 3.233 17.455 3.284 4.241 7.8 6.151 12.502 7.47 6.774 1.895 13.599 1.853 20.527.826 5.831-.862 11.758-.919 17.627-1.532 10.527-1.098 21.207-1.055 31.432-4.619 10.212-3.556 17.807-10.584 23.151-20.975 5.952-11.561 12.316-22.865 18.551-34.24 4.445-8.111 8.73-16.343 13.56-24.169 2.675-4.327 6.203-8.04 9.558-11.796 3.432-3.842 7.582-6.956 9.584-12.159 3.56-9.273-.385-18.695-6.434-23.471-4.664-3.678-9.667-6.821-14.382-10.42-3.644-2.78-7.223-5.716-10.578-8.916-5.677-5.431-11.488-10.77-16.607-16.821-4.157-4.918-7.582-10.663-10.937-16.336-2.297-3.884-3.836-8.31-5.863-12.409-2.944-5.958-1.386-11.047 2.63-15.281 5.6-5.908 11.27-11.781 17.339-17.07 6.793-5.93 11.078-13.613 14.356-22.187 3.656-9.58 8.133-18.482 16.062-24.568 10.834-8.318 24.978-9.18 34.934 2.501 3.643 4.277 7.114 8.731 10.59 13.179 5.293 6.764 14.472 8.61 22.747 3.827 6.498-3.756 12.7-8.146 18.949-12.416 5.247-3.592 8.75-2.387 12.258 1.39 3.355 3.614 5.298 8.111 7.274 12.566 5.805 13.114 11.328 26.371 17.063 39.521 4.952 11.347 12.226 20.463 21.419 27.889 3.951 3.194 7.69 6.928 10.866 11.048 4.497 5.837 4.773 12.772 1.623 19.479-2.656 5.659-5.818 11.04-8.936 16.414-3.842 6.622-7.601 13.286-9.224 21.055-.629 3.007-.834 6.158-.988 9.251-.404 8.31.007 16.749-1.148 24.917-1.732 12.266-8.191 21.61-17.146 28.916-5.1 4.162-10.219 8.332-15.03 12.879-2.976 2.808-5.234 6.543-8.114 9.501-4.78 4.918-9.507 10-14.78 14.205-10.103 8.068-16.197 19.215-21.11 31.453-1.386 3.45-2.797 6.885-4.163 10.335-3.855 9.736-2.765 19.208 1.283 28.509 3.515 8.082 7.357 16.015 10.468 24.29 1.81 4.811 2.592 10.135 3.618 15.274 1.706 8.532 3.272 17.092 4.83 25.651 1.347 7.42 2.528 14.854.982 22.452-1.084 5.345-3.644 9.871-6.8 13.841-7.223 9.102-12.508 19.579-17.884 29.999-1.231 2.388-2.162 4.975-3.233 7.47"/><path d="M117.095-37.409c3.637 7.77 9.686 12.715 16.383 16.7 6.402 3.806 12.906 7.47 19.565 10.676 10.411 5.018 16.447 14.177 20.482 25.381 2.848 7.919 5.927 15.873 12.931 20.142 4.375 2.666 9.481 3.984 14.369 5.453 7.409 2.23 14.619 4.61 19.892 11.439 5.735 7.42 8.846 15.944 9.269 25.68.347 7.933-.468 15.751-1.867 23.527-.519 2.901-.538 5.923-.679 8.902-.276 5.98-2.098 7.612-7.39 6.408-8.384-1.91-16.268-5.41-24.061-9.244-9.064-4.462-18.077-9.06-27.282-13.122-7.62-3.364-14.664-2.088-19.795 5.674-1.764 2.665-3.079 5.787-4.189 8.88-4.426 12.373-4.785 25.388-4.535 38.467.109 5.58.583 11.197.231 16.742-.507 7.869-4.606 14.019-8.878 19.971-3.926 5.467-8.609 10.406-10.867 17.113-1.847 5.481-3.855 11.033-4.708 16.756-1.058 7.127-1.418 14.469-1.347 21.71.128 13.514 4.593 24.867 14.632 33.192 3.938 3.272 7.421 7.213 11.283 10.613 5.613 4.939 12.4 7.341 18.891 10.399 5.825 2.744 11.521 5.716 15.427 11.71 8.147 12.494 4.542 31.396-9.609 36.143-9.301 3.122-17.191 1.939-24.106-5.816-.635-.713-1.572-1.105-2.219-1.81-6.954-7.655-12.124-2.752-14.35 5.039-1.475 5.167-1.995 10.662-2.989 16.001-1.251 6.728-3.624 12.907-6.607 18.958-2.213 4.498-3.99 9.551-4.709 14.576-.513 3.599.488 7.826 1.803 11.318 4.824 12.808 10.007 25.488 16.973 37.055 4.683 7.776 11.354 13.421 18.538 18.218 9.154 6.108 17.256 13.706 25.37 21.346 5.632 5.296 6.845 11.511 4.446 18.938-2.335 7.248-4.645 14.518-7.069 21.731-3.702 11.033-3.9 22.359-2.566 33.862.712 6.166 1.61 12.338 1.86 18.532.314 7.897-1.854 15.402-4.112 22.793-.814 2.665-1.95 5.217-2.854 7.854-3.297 9.587-10.078 14.569-18.622 16.678-12.72 3.143-23.535 10.299-33.638 18.988-7.82 6.721-15.286 13.941-23.157 20.576-6.287 5.303-13.496 8.603-21.45 9.28-5.543.478-11.136.285-16.672.827-4.677.456-9.565.349-13.497 4.184-4.785 4.668-7.44 10.292-7.742 17.483-.263 6.208 1.244 12.017 2.7 17.797 2.072 8.239 1.841 16.593 1.854 24.967M-274.199-37.765c-1.283 5.702-2.38 11.468-3.887 17.091-3.817 14.248-3.073 28.16 2.354 41.674 1.572 3.913 4.022 7.384 6.017 11.09 2.489 4.612 5.427 9.03 7.281 13.941 4.24 11.226 11.001 19.943 20.353 25.873 9.969 6.315 17.358 15.402 23.959 25.437 4.721 7.178 9.16 14.597 13.477 22.088 3.618 6.272 6.819 12.844 10.321 19.201 4.176 7.584 10.065 13.1 17.313 16.728 5.35 2.68 11.046 3.414 16.64 1.376 6.197-2.26 12.483-4.562 18.25-7.883 10.718-6.187 22.104-7.455 33.728-6.486 6.594.549 12.348 4.526 17.993 8.353 7.377 5.011 15.061 9.116 24.029 9.351 11.553.3 23.093 1.162 34.64 1.262 4.592.043 9.268-.941 13.771-2.11 5.523-1.432 11.046-2.067 16.698-2.095 5.343-.022 10.718-.143 16.03-.741 6.562-.735 9.532-5.674 7.672-12.388-2.117-7.648-4.42-15.231-6.717-22.815-2.097-6.913-5.907-12.387-11.18-16.799-6.883-5.752-14.15-10.634-22.15-14.233-13.067-5.88-25.158-4.569-36.621 4.94-5.953 4.938-12.964 7.362-20.476 7.119-2.367-.078-5.022-.52-6.985-1.831-3.4-2.267-4.503-6.53-3.798-10.535 1.149-6.514 2.938-12.907 4.747-19.25.95-3.33 2.99-6.308 3.695-9.665 1.77-8.468-.667-14.02-9.211-14.847-3.593-.349-7.262.37-10.899.613-8.114.542-15.542-1.49-21.797-7.498-7.595-7.298-14.785-15.088-23.381-21.082-9.16-6.387-18.66-11.953-28.584-16.686-6.703-3.193-13.381-6.386-19.276-11.36-5.837-4.926-8.39-11.86-10.199-19.294-.673-2.773-.892-5.688-1.321-8.54"/><path d="M-295.687-37.765c-.963 4.511-1.7 9.109-2.938 13.52-1.899 6.764-1.828 13.664-.469 20.3 2.412 11.795 4.548 23.812 9.892 34.553 2.367 4.768 5.452 9.101 8.281 13.577 4.503 7.135 7.364 15.167 10.238 23.179 2.502 6.999 6.908 11.917 12.848 15.323a739.871 739.871 0 0 1 11.547 6.772c6.549 3.905 10.27 10.441 12.791 17.832 4.528 13.286 10.616 25.616 17.678 37.405 3.926 6.55 7.544 13.399 9.16 21.061 1.084 5.146 1.181 10.67 1.02 15.994-.263 8.688 3.22 13.969 10.328 17.184 6.947 3.143 14.042 4.968 21.515 4.512 5.491-.335 9.147-4.291 12.162-8.888 7.486-11.404 17.313-19.308 29.238-23.784 12.746-4.79 24.664-2.516 35.6 6.322 4.485 3.62 9.058 7.141 13.799 10.313 9.134 6.115 19.02 6.55 29.16 3.956 6.217-1.59 12.336-4.084 18.622-4.769 7.082-.769 14.311-.057 21.47.193 3.002.107 6.004.542 8.98 1.048 11.45 1.96 22.875 4.076 34.325 6.008 5.754.969 11.56 2.452 17.314 2.295 5.368-.143 10.738-1.96 16.03-3.4 4.657-1.268 9.217-2.986 13.797-4.583 4.901-1.71 5.94-3.064 5.729-8.538-.2-5.118-.757-10.228-1.251-15.324-.584-6.066-1.206-12.131-1.925-18.175-1.084-9.08-4.766-16.899-9.949-23.862-4.83-6.493-9.994-12.687-14.683-19.308-4.246-5.995-6.113-13.229-7.44-20.62-.578-3.222-.95-6.55-1.976-9.6-2.906-8.596-6.813-9.401-13.734-6.444-5.337 2.281-10.59 4.89-16.062 6.679-5.927 1.931-11.983.876-17.936-.606-10.141-2.523-19.673-6.842-28.86-12.138-6.266-3.614-9.762-9.536-11.244-17.092-.68-3.463-1.142-7.041-2.296-10.306-3.278-9.251-10.655-12.7-18.558-14.525-8.352-1.932-16.864-3-25.318-4.376-8.134-1.326-15.999-3.671-23.754-6.714C-122.627 3.253-132.871-.14-143-3.931c-8.91-3.329-17.922-6.422-26.582-10.435-9.006-4.17-14.811-11.924-17.063-22.68-.071-.277-.423-.484-.635-.72"/><path d="M-179.578-37.765c1.174 2.374 2.155 4.904 3.566 7.099 4.478 6.985 11.072 10.192 18.231 12.558 7.396 2.445 14.952 2.502 22.457 1.96 8.41-.605 15.607 2.424 22.458 7.249 9.038 6.365 18.782 10.456 29.507 11.397 5.664.499 11.329.983 17 1.418 3.739.292 7.491.791 11.225.656 6.633-.235 13.252-.948 19.885-1.347 9.648-.578 13.381 6.621 13.715 15.31.198 5.21-.308 10.455-.578 15.672C-22.734 46.388-16.685 51.32-8.98 54.6c11.643 4.946 21.97 2.045 31.778-5.417 1.905-1.454 3.83-2.88 5.773-4.276 6.357-4.57 13.298-5.588 20.149-2.36 5.856 2.759 9.012 8.525 9.98 15.545.931 6.757 1.88 13.52 2.548 20.313.943 9.65 5.632 17.099 11.309 23.82 7.46 8.831 15.363 17.177 23.958 24.703 4.959 4.348 6.774 10.955 8.763 17.377a56.29 56.29 0 0 0 4.182 9.957c1.552 2.886 4.285 4.633 7.293 4.205 3.195-.456 5.029-3.435 5.722-6.671 1.732-8.104 1.251-16.365.68-24.568-.648-9.259-2.675-18.439-.943-27.804 1.219-6.572 4.042-12.295 7.743-17.427 7.543-10.463 15.696-20.17 26.223-27.19 7.03-4.69 10.116-14.098 8.364-23.435-1.039-5.538-2.155-11.026-4.74-16.073-3.99-7.768-10.225-12.765-16.749-17.397-7.075-5.025-14.356-9.68-21.457-14.676-6.844-4.818-12.431-10.947-15.427-19.564-.186-.535-.622-.955-.943-1.433M95.608 502.845c-1.283-1.069-3.002-1.846-3.778-3.258-3.939-7.17-4.15-15.103.61-21.653 2.559-3.52 5.381-6.849 8.325-9.978 6.107-6.479 7.531-14.169 6.165-23.214-1.161-7.69-2.951-14.953-7.525-20.961-2.283-3.001-4.753-6.116-7.71-8.126-7.858-5.338-13.535-2.109-17.91 5.218-4.394 7.362-6.337 15.566-6.677 24.247-.231 5.93-.302 11.896.013 17.811.577 11.091-2.374 19.943-11.245 26.086-7.768 5.382-15.472 10.97-22.727 17.163-5.248 4.476-10.065 9.743-14.408 15.303-3.887 4.982-8.172 9.258-12.925 13.1-4.131 3.343-8.365 6.593-12.143 10.384-4.535 4.548-6.434 10.877-6.671 17.398-.302 8.218 3.348 14.583 9.846 18.482 9.686 5.808 17.179 13.641 21.233 25.316 1.154 3.329 3.117 6.4 5.093 9.258 3.342 4.819 8.474 6.6 13.445 7.741 7.646 1.76 14.766 4.69 21.463 9.052 10.09 6.571 19.75 4.525 29.187-1.789 7.088-4.754 13.612-10.307 19.257-17.092 6.401-7.697 14.567-12.694 22.412-18.239 8.455-5.965 12.374-14.789 12.612-25.958.166-7.733-1.848-14.989-2.945-22.458-1.251-8.524-1.257-17.042-.43-25.666a281.157 281.157 0 0 0 1.277-26.713c0-7.334-4.753-13.314-11.123-15.317-3.99-1.254-6.915 1.525-9.898 3.628-1.418.998-2.367 2.808-3.573 4.198-5.561 6.422-11.097 12.901-18.916 16.044M276.82 731.103c1.726-7.847 3.997-15.552 8.102-22.209 5.305-8.61 12.759-14.49 21.393-18.638 6.684-3.215 13.682-6.187 18.557-12.487 8.859-11.447 17.82-22.922 24.575-36.051 2.886-5.616 4.497-12.351 5.478-18.802 1.7-11.133 6.485-20.306 12.675-28.823 4.292-5.901 8.852-11.567 13.105-17.505 5.074-7.084 6.569-15.038 4.221-23.862-1.668-6.286-5.837-9.586-10.943-11.717-7.852-3.279-16.03-4.918-24.344-6.237-9.192-1.454-17.313 1.86-25.318 5.602-8.628 4.034-16.967 8.852-25.37 13.457-7.768 4.255-13.618 10.434-15.376 20.299a144.137 144.137 0 0 0-1.604 12.116c-.571 6.279-2.797 11.767-6.139 16.735-7.094 10.534-16.229 17.861-27.91 20.591-5.677 1.326-11.559 1.554-17.293 2.63-6.345 1.197-12.631 2.773-18.93 4.241-2.155.499-4.343.976-6.408 1.803-7.974 3.2-7.743 9.016-4.362 15.196 2.726 4.982 6.504 9.336 10.173 13.577 4.17 4.818 8.404 9.686 10.713 15.802 2.258 5.987 3.938 12.423 4.824 18.844 1.501 10.884 2.835 21.746 6.523 32.059.398 1.105.449 2.367.667 3.55"/><path d="M-284.778-37.765c-1.713 7.719-3.862 15.367-4.978 23.192-.725 5.082-.43 10.506.269 15.638 1.27 9.237 3.31 18.324 7.916 26.385 3.195 5.595 6.562 11.07 9.577 16.778 3.073 5.816 5.921 11.796 8.673 17.804 3.072 6.722 8.275 10.791 13.798 14.633 4.695 3.264 9.41 6.571 13.759 10.37 5.311 4.64 8.204 11.447 11.585 17.754 4.638 8.646 9.096 17.413 13.836 25.987 4.125 7.469 8.237 14.989 12.887 22.045 3.836 5.823 8.185 11.318 12.817 16.379 4.778 5.224 11.11 5.153 17.229 3.941 8.487-1.675 16.037-6.272 23.728-10.306 8.057-4.234 16.325-7.441 25.351-7.042 7.306.321 14.221 2.53 20.52 6.742 5.716 3.828 11.2 8.119 17.07 11.611 2.848 1.696 6.305 2.43 9.57 2.901 7.287 1.048 14.318-1.597 21.483-2.409 3.31-.378 6.626-.984 9.942-1.027 11.438-.128 22.888-.327 34.312.065 6.434.22 12.83 1.575 19.25 2.38 5.023.627 10.04 1.39 15.075 1.725 3.509.228 7.088.15 10.571-.356 7.262-1.055 11.848-6.273 15.055-13.136 3.4-7.263 5.299-14.932 3.51-23.143-1.277-5.858-4.356-10.506-8.603-14.29-6.248-5.567-11.649-11.917-15.453-19.907-4.535-9.522-12.264-13.92-21.412-16.564-8.287-2.402-16.383-5.745-24.382-9.194-9.814-4.227-19.75-7.776-30.168-9.58-2.27-.392-4.529-1.033-6.729-1.781-3.226-1.09-5.593-3.286-6.414-7.1-1.2-5.573-2.098-11.253-3.593-16.727-2.578-9.422-8.762-14.554-17.261-16.393-5.94-1.283-11.867-1.725-17.968-.834-9.089 1.319-17.217-2.31-24.664-7.769-9.609-7.035-20.116-12.088-30.508-17.39-8.352-4.263-16.967-7.905-25.293-12.224-8.223-4.262-14.933-10.42-17.653-20.612-.744-2.816-1.296-5.695-1.937-8.546M261.746 731.279c3.74-7.362 7.788-14.561 11.155-22.137 4.882-10.97 12.342-18.895 21.893-24.526 12.381-7.291 23.593-16.229 33.023-27.825 6.139-7.541 11.11-15.809 12.797-26.022.706-4.241 1.379-8.532 1.572-12.829.365-8.183 4.047-14.533 8.377-20.684 3.855-5.488 7.832-10.919 11.142-16.806 2.38-4.241 4.459-9.024 5.389-13.863 1.244-6.507-2.496-13.157-10.719-16.742-10.353-4.512-20.379-2.317-30.117 1.938-6.094 2.659-12.354 5.346-17.056 10.912-2.829 3.343-4.253 7.156-4.176 11.782.109 6.358.179 12.779-2.887 18.517-1.45 2.715-2.995 5.417-4.817 7.833-13.169 17.455-30.187 28.616-49.034 36.756-3.258 1.404-6.453 3-9.622 4.625-6.96 3.571-10.359 8.938-7.909 18.482 3.432 13.356 4.458 27.148 6.954 40.661 1.661 8.988 5.202 17.035 10.301 24.198 1.534 2.152 3.593 3.841 5.408 5.737M133.453-37.765c5.273 5.424 12.105 7.263 18.628 9.53 11.232 3.898 18.84 12.215 24.299 23.284 2.431 4.932 4.291 10.207 6.472 15.288 4.683 10.941 12.297 17.634 23.074 20.021 4.233.941 8.467 2.21 12.495 3.935 8.031 3.442 12.22 11.068 15.71 19.187 3.021 7.027 5.388 14.333 6.427 22.08.622 4.619 1.206 9.251 1.598 13.898.878 10.485 6.889 17.056 16.697 17.855 9.211.748 18.442.869 27.608 2.679 7.146 1.419 14.414 1.618 21.496-1.575 5.388-2.43 8.916-7.042 12.072-11.902 4.612-7.1 8.634-14.661 12.919-22.024 4.228-7.27 5.543-15.552 6.729-23.877 1.354-9.48.661-18.859-1.283-28.153-2.758-13.2-7.377-25.295-18.031-33.021-3.509-2.544-7.813-3.763-11.803-5.445-5.074-2.139-10.398-3.265-15.139-6.664-5.298-3.806-8.64-8.967-11.148-15.096M493.313 731.28c-4.683-5.403-10.867-7.955-17.044-9.808-7.062-2.117-10.366-7.034-11.848-14.418-2.264-11.304-4.759-22.559-6.985-33.87-.642-3.25-.86-6.635-.975-9.971-.308-8.788.089-17.654-.841-26.35-.821-7.704-3.278-15.174-4.586-22.843-1.45-8.496-2.406-17.091-3.599-25.644-.282-2.024-.41-4.127-1.007-6.044-1.142-3.664-5.523-5.773-10.218-5.389-4.054.335-8.121.685-12.188.699-8.756.028-17.018 2.302-25.024 6.08-7.306 3.449-13.798 8.175-19.237 14.632-5.523 6.55-8.865 14.205-9.981 23.157-1.335 10.698-4.927 20.163-11.746 28.246-5.914 7.006-12.264 13.784-16.389 22.394-3.348 6.985-6.395 14.155-9.308 21.375-2.431 6.022-6.446 9.372-12.232 10.313-3.528.577-7.069 1.091-10.584 1.796-8.865 1.775-14.914 7.662-18.911 16.386-1.385 3.029-2.585 6.165-3.868 9.259M118.697 295.44c-.058-6.08-3.175-10.734-6.152-15.274-4.509-6.885-6.042-14.519-6.453-22.851-.423-8.581-1.603-17.113-2.476-25.665-.962-9.401-6.774-13.685-14.125-15.98-6.235-1.946-12.534-3.892-18.93-4.897-5.856-.919-11.796.115-17.627 1.59-5.087 1.283-10.27 2.102-15.382 3.271-5.292 1.212-9.616 3.386-11.014 10.285-1.687 8.311-4.195 16.414-6.3 24.618-2.34 9.137-1.34 18.139.957 27.084 4.528 17.619 11.84 33.869 20.263 49.493 5.004 9.279 12.766 15.502 21.13 20.669 7.332 4.526 14.747 8.752 21.213 14.918 7.236 6.892 13.022 2.615 16.152-6.387 2.297-6.592 3.015-13.841 5.036-20.576 2.046-6.807 4.593-13.464 7.351-19.957 2.746-6.472 5.529-12.879 6.671-19.992"/><path d="M300.875-37.765c3.445 4.854 8.268 7.869 13.201 9.814 13.009 5.125 21.663 15.367 28.456 27.99 5.439 10.106 10.545 20.462 17.396 29.514 2.425 3.2 5.254 6.037 7.986 8.938 8.711 9.244 13.298 20.961 16.717 33.491 2.194 8.047 4.734 15.987 7.383 23.87 1.225 3.649 3.842 5.901 7.3 7.213 6.479 2.459 13.144 3.62 19.905 4.183 4.798.4 9.628.82 14.426.685 13.804-.392 23.529-7.128 28.237-22.031 1.437-4.54 2.906-9.066 4.497-13.535 2.476-6.95 2.559-13.5-1.924-19.622-4.561-6.229-8.923-12.644-13.503-18.859-5.478-7.434-11.065-14.775-16.672-22.102-5.016-6.557-11.322-11.061-18.596-13.898-7.755-3.022-14.805-7.07-19.59-14.96-3.098-5.11-4.163-10.891-5.106-16.771-.193-1.19-.424-2.373-.635-3.564"/><path d="M330.387-37.765c13.445 14.74 23.137 32.75 34.722 49.108 3.952 5.58 8.647 10.605 13.445 15.323 6.607 6.493 9.468 14.975 11.829 23.948 2.598 9.886 4.715 19.879 8.839 29.294 6.408 14.654 26.518 19.714 38.013 10.698 5.729-4.49 8.07-10.855 9.558-17.897 2.656-12.587-1.629-23.071-8.698-32.365-4.381-5.766-9.205-11.148-14.093-16.4-5.023-5.403-11.579-7.306-18.243-8.567-6.197-1.177-11.797-3.236-16.088-8.881-4.632-6.094-9.186-12.338-10.065-20.384-.859-7.87-.571-15.902-.782-23.856M77.968 617.242c7.774-.584 13.611-5.117 18.961-11.004 4.946-5.439 10.129-10.62 15.395-15.673 2.771-2.659 6.222-4.477 8.891-7.242 7.73-8.004 6.427-18.032.289-25.872-3.824-4.883-9.321-4.391-14.671-3.685-8.75 1.155-17.037.969-24.15-6.614-5.761-6.144-10.335-13.129-14.645-20.435-2.714-4.604-5.76-8.845-10.283-11.375-5.67-3.179-11.033-1.746-16.364 1.376-5.459 3.2-9.397 8.211-12.726 13.642-4.773 7.797-10.924 13.791-17.711 19.208-3.458 2.758-6.229 6.044-6.184 11.375.02 2.744 1.219 4.661 2.681 6.365 2.29 2.673 4.677 5.338 7.37 7.469 5.768 4.555 9.29 11.083 12.702 17.584 3.906 7.433 9.417 12.159 16.774 14.147 8.872 2.402 17.615 5.118 25.999 9.238 2.251 1.111 4.887 1.268 7.344 1.86M432.054 731.283c.898-9.964 3.181-19.551 6.421-28.866 2.835-8.147 4.888-16.4 4.548-25.309-.302-7.826.179-15.688-.141-23.514-.257-6.193-.879-12.423-1.912-18.524-2.361-13.905-10.373-22.073-22.394-25.63-4.535-1.34-9.14-2.63-13.791-3.164-10.828-1.24-16.524 6.479-16.973 18.802-.321 8.745-2.297 16.763-8.397 22.757-2.963 2.916-6.427 5.203-9.571 7.912-5.76 4.953-11.687 9.679-16.081 16.35-3.259 4.954-5.023 10.299-5.889 16.393-.814 5.723-.269 11.147 1.213 16.386 2.29 8.075 8.031 12.915 14.298 17.212 3.951 2.709 7.524 6.109 11.264 9.195M3.558 452.956c4.06-.684 8.307-1.418 10.488-5.759 1.648-3.271 2.912-6.97 3.534-10.655 1.707-10.1 3.881-20.014 8.147-29.18 2.444-5.238 5.395-10.185 7.954-15.359 2.816-5.695 4.817-11.703 2.2-18.125-1.2-2.937-2.732-5.98-4.81-8.147-10.001-10.434-16.307-23.684-23.427-36.378-2.598-4.625-5.978-8.745-9.256-12.85-4.369-5.474-10.392-6.123-16.306-5.246-6.588.969-13.003 3.393-19.59 4.397-9.648 1.476-19.187.92-27.205-6.371-2.316-2.103-4.054-4.982-6.152-7.406-1.52-1.753-3.047-3.563-4.824-4.96-3.54-2.787-7.768-1.661-9.5 2.851-1.231 3.214-1.943 6.806-2.264 10.299-.59 6.5-.455 13.093-1.148 19.579-.36 3.406-1.976 6.621-2.746 9.999-1.52 6.643.802 12.623 3.586 18.111 4.1 8.068 8.801 15.851 15.036 22.088 10.372 10.37 16.8 23.221 20.828 37.832 1.142 4.148 2.605 8.132 5.376 11.461 3.06 3.67 6.76 6.036 10.956 7.405 8.852 2.872 17.384 6.365 25.421 11.617 3.945 2.581 8.884 3.265 13.375 4.811M220.691 731.281c-.533-2.259-1.296-4.483-1.552-6.778-.411-3.656-.36-7.369-.719-11.04-.661-6.778-.872-13.713-2.354-20.277-2.611-11.554-10.264-18.346-19.764-22.822-3.047-1.44-6.19-2.644-9.294-3.942-5.754-2.402-9.366-7.191-11.861-13.192-2.675-6.444-5.619-12.644-11.893-15.638-2.04-.969-4.221-1.817-6.408-2.124-18.853-2.623-35.563 2.701-49.694 17.063-5.414 5.502-10.405 11.561-16.127 16.628-6.677 5.916-14.76 8.86-23.002 11.212-4.247 1.211-8.474 2.722-12.496 4.64-7.884 3.763-9.7 10.37-8.865 18.445.853 8.275 2.835 16.414 4.362 24.604.205 1.097.622 2.145.943 3.214"/><path d="M-67.001 355.667c.808 8.289 4.894 14.533 9.904 20.349 4.381 5.089 7.749 10.912 9.718 17.761 1.636 5.688 3.855 11.162 5.696 16.778 2.284 6.956 7.39 10.484 13.201 12.33 7.268 2.31 14.71 3.963 22.42 3.799 4.856-.099 9-2.038 11.758-5.894 7.094-9.943 11.142-21.525 12.572-34.119.584-5.167-1.193-9.885-3.509-14.233-5.471-10.271-10.975-20.534-16.722-30.619-1.803-3.165-4.208-6.009-6.71-8.546-5.446-5.538-12.085-5.738-18.878-4.305-7.294 1.547-14.542 3.307-21.817 4.961-9.59 2.181-15.401 8.545-17.32 19.244-.127.705-.217 1.425-.32 2.138M17.35-37.764c-1.816 2.851-3.452 5.88-5.498 8.51-2.47 3.165-5.202 6.101-7.993 8.924C.505-16.93-.842-12.74-.945-7.83-1.1-.345-1.51 7.14-1.497 14.622c.007 3.208.488 6.508 1.277 9.6 1.462 5.76 6.292 8.425 11.463 6.38A74.51 74.51 0 0 0 21.5 25.62c6.286-3.692 12.944-3.293 19.577-2.352 3.804.541 7.499 2.038 11.239 3.114 10.128 2.916 14.85 10.834 16.735 21.725 1.43 8.253 2.727 16.656 5.241 24.532 3.009 9.408 10.135 14.298 18.776 16.001 3.874.763 7.473-1.34 10.533-3.87 4.515-3.728 9.089-7.455 13.118-11.782 7.28-7.818 14.253-16 21.193-24.204 2.598-3.072 4.965-6.45 7.057-9.971 5.773-9.722 3.508-17.284-2.29-25.196-6.184-8.438-14.241-14.411-22.958-19.422-5.062-2.908-10.046-6.293-14.388-10.356-5.883-5.516-9.385-12.865-10.033-21.617M273.611 343.551c-1.129-6.5-4.182-11.732-8.307-16.429-5.17-5.901-10.417-11.724-17.377-14.868-9.724-4.397-19.86-7.12-30.444-6.036-7.024.719-11.065 5.965-12.739 13.135-1.238 5.324-1.873 10.877-2.271 16.372-.507 6.985-.584 14.012-.693 21.019-.134 8.731 4.401 11.995 10.879 12.237 9.616.357 18.564-2.459 27.603-5.409 7.088-2.31 14.349-3.949 21.45-6.194 2.585-.82 5.055-2.324 7.371-3.892 3.136-2.124 3.9-5.858 4.516-9.572M291.575 410.547c-1.796-8.097-7.595-11.425-13.791-14.255-12.38-5.644-24.356-3.114-36.249 2.11-8.057 3.542-15.017 8.653-18.834 17.526-2.88 6.7-4.118 13.785-2.097 21.368 1.527 5.716 5.093 8.353 9.718 9.929 5.767 1.96 11.546 2.387 17.653 1.646 5.908-.72 11.566-2.003 16.96-4.526 7.287-3.407 13.381-8.781 18.256-15.673 2.521-3.564 4.702-7.455 6.71-11.404.956-1.874 1.142-4.233 1.674-6.372M260.785-37.409c3.15 9.508 6.992 18.482 14.747 24.604 5.016 3.956 10.873 5.288 16.685 6.757 5.234 1.325 10.532 2.394 15.703 3.97 8.865 2.708 15.132 12.216 15.145 23.47.012 11.119-2.143 21.674-6.261 31.66-1.7 4.134-4.234 8.025-7.024 11.382-5.735 6.907-11.931 13.343-17.878 20.05-4.522 5.103-10.488 6.115-16.383 7.02-3.355.52-6.883.513-10.237 0-5.709-.87-9.084-5.018-10.931-10.948-3.04-9.764-6.203-19.479-9.282-29.229-2.168-6.878-4.278-13.777-6.421-20.67-1.193-3.841-3.15-6.792-7.056-7.49-2.566-.456-5.119-1.09-7.704-1.39-4.907-.577-9.917-.506-14.734-1.561-8.449-1.853-14.857-7.077-18.629-15.93-3.393-7.975-6.716-15.986-10.295-23.855-2.79-6.165-5.934-12.138-8.929-18.196"/><path d="M307.608 28.52c-.949-3.77-.949-7.89-3.515-11.06-4.157-5.133-12.81-7.392-19.558-4.577-8.679 3.621-15.338 10.242-20.161 18.88-5.812 10.407.128 21.134 9.602 24.02 7.781 2.373 15.691 1.461 22.727-3.749 6.191-4.583 9.424-11.119 10.277-19.237.134-1.318.417-2.615.628-3.92M232.559 424.802c1.045 4.162 2.27 8.275 6.106 10.306 4.542 2.409 9.43 3.606 14.414 2.808 7.646-1.219 14.503-4.554 19.539-11.368 2.258-3.051 4.221-6.415 4.208-10.656-.013-4.326-1.77-7.419-5.119-9.65-5.279-3.528-10.841-3.913-16.697-2.48-5.594 1.368-10.777 3.535-15.44 7.433-4.099 3.422-5.895 8.04-7.011 13.257M69.95-36.693c-6.39 3.984-13.504 5.324-20.508 7.213-7.544 2.031-13.433 6.529-15.428 15.595-1.206 5.473.995 10.783 5.447 13.933 8.717 6.173 17.043 2.93 21.456-5.416a362.012 362.012 0 0 0 11.2-23.171c1.777-4.02.886-6.43-1.847-8.154M184.133-37.765c2.033 5.58 4.022 11.183 6.107 16.742 2.411 6.436 4.496 13.086 7.473 19.18 3.316 6.785 8.839 11.004 15.934 11.347 4.272.206 8.756-.628 12.457-3.165 7.762-5.317 14.375-12.088 17.961-21.681 2.643-7.07 3.387-14.49 1.969-22.074M71.552 252.321c-1.957-5.737-6.601-7.327-11.816-3.478-3.246 2.395-6.03 5.509-7.492 9.864-.937 2.787-.411 4.954 1.02 7.156 1.507 2.331 3.784 2.01 5.772 1.711 5.203-.784 10.655-6.85 11.887-12.758.154-.727.417-1.426.635-2.138M337.759 568.775c-3.887.036-6.35 2.616-7.941 6.101-.872 1.918-.565 4.205.879 6.016 1.43 1.796 3.066 2.081 5.151 1.475 2.829-.812 4.823-2.616 6.062-5.409 2.071-4.683 1.013-6.95-3.83-8.539M397.416 358.872c-9.257 2.245-17.378 6.999-25.062 13.122-11.701 9.322-20.296 20.968-24.729 36.392-2.04 7.077-4.355 14.091-8.211 20.384-4.092 6.679-9.737 9.743-16.729 10.691-6.812.927-13.907.706-20.174 4.312-4.888 2.816-9.75 5.902-14.087 9.637-9.583 8.253-20.263 14.055-31.495 18.787-6.729 2.837-13.587 5.439-19.526 10.043-6.8 5.26-11.406 12.694-15.441 20.612-5.901 11.604-11.341 23.542-18.64 34.176-4.645 6.764-5.305 13.791-3.227 21.803 3.676 14.176 10.764 25.074 23.195 30.89 3.836 1.796 8.051 3.235 12.162 3.499 8.474.542 13.112-3.506 16.396-12.295 2.22-5.93 4.471-11.924 7.422-17.426 5.068-9.451 13.15-14.996 22.034-19.329 9.327-4.555 19.328-7.591 27.577-14.612a198.152 198.152 0 0 0 11.219-10.334c4.311-4.277 8.75-8.275 14.465-9.922 4.529-1.304 9.038-1.404 13.804-.976 6.505.584 13.272 1.383 19.565-2.224 5.856-3.357 8.948-8.852 10.199-15.723.879-4.818 1.36-9.729 1.963-14.604.847-6.835 4.843-10.84 9.949-13.898 7.011-4.198 14.536-6.194 22.451-6.008 6.223.149 11.976 2.444 17.679 5.203 6.485 3.143 13.195 5.502 20.495 5.516 7.999.014 14.189-3.35 18.936-10.406 5.773-8.588 10.526-17.875 14.651-27.497 3.38-7.883 1.668-12.951-5.696-16.664-4.189-2.11-8.647-3.592-12.791-5.795-7.467-3.962-12.823-10.776-18.327-17.39-6.004-7.22-11.065-15.396-18.538-21.119-7.043-5.395-14.542-8.738-23.138-8.831-2.674-.028-5.343-.007-8.018-.007"/><path d="M299.912 470.775c-15.421 4.889-29.463 13.036-42.985 22.437-6.883 4.782-12.072 11.104-14.003 19.999-.738 3.393-.757 7.17-.308 10.641.513 3.942 3.945 6.757 8.224 6.714 13.759-.142 27.339-1.874 40.072-8.175 5.767-2.851 9.981-8.018 13.073-13.905 3.791-7.227 6.716-14.975 8.788-23.093 2.277-8.902-2.925-15.345-10.296-14.632-.744.071-1.494.007-2.245.007M222.294 318.248c-7.685 1.881-10.482 12.173-9.398 19.971.802 5.794 2.983 10.612 7.865 12.195 3.387 1.104 7.453.071 11.148-.528 4.728-.762 8.763-3.3 12.214-7.035 2.931-3.171 3.393-9.336.975-13.228-4.529-7.305-10.616-11.247-18.635-11.375-1.283-.022-2.566 0-3.848 0"/><path d="M210.753 294.728c-9.256 1.696-12.399 8.866-13.516 18.167-1.071 8.938-2.412 17.847-3.842 26.728-.905 5.602-2.758 10.884-6.081 15.31-3.464 4.611-8.301 6.977-13.124 9.287-9.507 4.554-18.038 10.762-25.646 18.545-1.892 1.932-3.663 4.006-5.459 6.051-3.656 4.155-5.369 9.088-5.517 14.961-.218 8.695 2.169 16.286 6.793 23.171 8.647 12.865 28.623 14.939 38.585 3.3 5.183-6.066 8.813-13.129 12.713-20.071 3.349-5.959 6.338-12.167 9.68-18.132 3.105-5.545 8.352-8.175 13.484-10.221a345.901 345.901 0 0 1 29.815-10.334c5.375-1.59 11.104-1.69 16.639-2.666 4.407-.777 8.962-1.283 13.106-2.965 5.048-2.053 8.159-6.793 8.954-12.694 1.296-9.579.776-19.101-5.471-26.621-4.343-5.231-9.398-9.778-14.376-14.304-7.909-7.185-17.383-10.299-27.217-12.58-9.66-2.238-19.212-5.11-29.199-4.925M283.875 495.007c-4.741 1.148-8.775 3.671-11.848 7.862-2.13 2.908-.956 6.942 2.226 8.175 5.189 2.024 13.099-1.903 15.074-7.484 1.655-4.683-.481-8.246-5.131-8.553M65.78 224.881c-4.169 1.426-8.62 2.231-12.456 4.391-11.983 6.735-19.225 17.996-22.035 32.351-1.379 7.056.16 14.347 2.797 20.962 5.555 13.948 13.08 26.492 23.054 37.069 4.535 4.804 10.232 7.484 16.338 7.712 7.781.292 14.196-3.913 18.257-11.974 3.36-6.664 3.2-13.499-.353-19.914-4.927-8.895-4.375-18.011-1.912-27.49 1.495-5.752 3.156-11.561 3.753-17.469.827-8.154-1.906-18.132-12.387-22.409-4.74-1.931-9.59-3.521-14.747-3.236M160.071 212.765c-7.171.97-12.444 5.538-16.28 11.818-6.601 10.819-4.227 20.206 4.439 26.977 7.646 5.972 16.357 8.218 25.626 7.483 5.036-.399 9.757-6.065 9.898-12.073.314-13.236-4.862-23.635-14.08-31.689-2.688-2.352-5.966-2.694-9.282-2.523M276.821 162.872c-3.317 1.19-6.659 2.288-9.937 3.585-4.483 1.775-6.543 6.015-7.255 10.691-.628 4.162-.25 8.531-.109 12.801.302 9.016.327 17.911-4.811 25.68-.923 1.397-1.642 3.014-2.245 4.625-1.071 2.858-.244 6.607 1.578 7.826 1.726 1.155 6.184.021 7.672-2.16 1.302-1.91 2.662-3.884 3.503-6.058 2.86-7.434 7.845-12.316 14.137-16.065 7.172-4.276 14.183-8.888 21.169-13.535 2.2-1.468 4.195-3.385 6.1-5.317 5.671-5.752 3.579-12.173-.706-16.257-4.156-3.963-9.487-5.574-14.991-5.781-4.592-.164-9.192-.035-13.791-.035"/><path d="M271.047 146.476c-1.816.357-3.644.656-5.453 1.077-13.067 3.036-19.212 12.979-21.483 26.72-.917 5.574-1.552 11.204-2.617 16.735-1.443 7.512-5.202 13.941-8.275 20.691-2.187 4.797-4.073 9.793-3.835 15.31.384 8.987 3.726 15.915 11.154 20.391 6.486 3.906 13.433 5.623 20.572 6.643 7.595 1.09 14.106-5.061 16.364-14.911.879-3.827 1.584-7.754 2.938-11.382 3.579-9.608 10.071-16.229 18.564-20.278 4.99-2.38 10.206-4.226 15.376-6.093 6.036-2.174 12.098-4.32 16.004-10.385 5.35-8.311 4.888-18.56-.372-27.006-5.407-8.674-13.272-13.449-22.701-14.618-6.171-.763-12.4-.991-18.596-1.482-5.773-.457-11.547-.948-17.32-1.419M308.254 452.955c-8.211 1.768-14.748 7.327-21.849 11.682-8.493 5.203-17.191 10.021-25.96 14.639-9.897 5.203-19.699 10.606-25.883 21.133-5.542 9.437-9.282 19.85-11.296 30.954-1.854 10.214-2.136 20.356 1.302 30.285.597 1.724 1.251 3.535 2.271 4.96 2.662 3.721 6.947 4.448 10.167 1.397 3.439-3.257 6.582-6.942 9.654-10.648 7.967-9.601 17.833-15.602 28.879-19.615 6.588-2.394 13.195-4.825 19.533-7.904a37.372 37.372 0 0 0 14.715-12.794c7.056-10.534 14.965-19.878 24.703-27.497 6.722-5.267 7.441-11.119 3.925-19.479-4.028-9.586-11.476-14.084-20.225-16.308-3.092-.784-6.395-.563-9.603-.798M395.488 372.416c-6.132 1.447-12.149 3.243-17.647 6.764-11.848 7.576-18.993 18.688-20.847 33.862-.815 6.657-2.168 13.278-2.451 19.964-.397 9.372 2.457 16.45 13.041 17.084 7.967.478 15.485-2.352 23.074-4.333 9.262-2.416 18.423-5.317 27.589-8.161 2.957-.92 5.927-2.024 8.641-3.578 7.21-4.141 9.205-11.746 9.589-19.9.668-13.955-5.227-24.575-14.349-33.527-7.646-7.505-16.71-8.788-26.326-8.161M315.947 609.047c-7.146 1.739-12.701 6.586-17.916 11.817-6.53 6.557-13.894 11.646-21.534 16.343-7.37 4.533-14.831 9.145-20.738 15.802-5.953 6.706-8.538 15.174-6.543 24.824.731 3.543 1.045 7.206 1.988 10.67 2.014 7.391 6.12 9.073 11.444 4.219 9.776-8.916 21.059-14.86 32.079-21.403 3.387-2.01 6.486-4.854 9.295-7.805 6.646-6.977 14.177-13.021 19.289-21.688 5.266-8.931 5.69-19.059.032-28.531-1.745-2.922-4.067-4.184-7.088-4.255M180.602 377.405c-8.75 1.155-15.96 5.752-22.105 12.502-4.529 4.975-8.39 10.427-8.05 18.146.333 7.541 6.081 14.533 13.156 14.454 6.376-.071 11.059-3.235 14.978-7.79 5.459-6.343 9.763-13.734 11.938-22.358.494-1.968.827-4.02.956-6.052.263-4.326-1.61-8.274-6.704-8.88-1.27-.15-2.565-.022-3.848-.022M-15.688 379.542c-4.266 1.468-7.37 4.205-9.372 8.874-3.214 7.519-1.988 15.181 7.14 17.775 6.69 1.903 14.805-.848 15.677-9.899.847-8.767-5.08-16.222-13.13-16.75"/><path d="M265.914 132.222c-2.245.478-4.51.87-6.736 1.44-10.462 2.687-17.659 9.415-20.847 21.011-1.95 7.121-4.17 14.17-5.703 21.404-2.194 10.327-6.716 19.55-10.391 29.179-2.284 5.98-3.772 12.302-3.612 18.553.289 11.111 2.643 21.938 9.5 30.591 4.587 5.787 10.886 9.108 17.281 11.738 6.716 2.759 13.561 5.282 20.521 7.106 8.974 2.352 16.055 7.684 22.098 15.082 3.56 4.362 6.934 8.923 10.616 13.15 6.87 7.89 10.706 17.49 13.471 27.818 2.771 10.37 5.517 20.769 8.698 30.99 3.336 10.719 7.377 11.147 15.966 7.127 8.429-3.948 14.664-11.168 20.418-18.616 5.754-7.449 9.725-16.215 12.053-25.887 2.489-10.349 1.289-19.985-3.278-29.237-6.216-12.594-16.325-20.405-27.281-27.048-11.354-6.885-23.131-12.687-35.563-16.856-7.358-2.473-11.489-9.508-8.955-18.446 1.687-5.951 5.953-9.451 10.886-11.703 4.144-1.896 8.48-3.357 12.81-4.668 13.599-4.127 23.009-13.193 27.576-28.189 3.298-10.82 6.742-21.582 9.879-32.451 1.155-3.999-.045-6.65-3.804-7.748-3.881-1.133-7.941-1.518-11.841-2.608-6.563-1.846-13.028-4.12-19.591-5.952-2.918-.812-5.959-1.211-8.967-1.446-11.47-.884-23.022-.421-34.338-3.493-3.38-.919-7.03-.577-10.558-.819M178.039 129.372c-9.513 3.286-11.54 10.99-12.117 19.607-.372 5.553-.109 11.162-.064 16.742.089 10.585-3.06 19.629-9.93 27.106-6.941 7.548-13.991 15.003-19.276 24.204-4.324 7.534-6.396 15.716-5.363 24.59.5 4.291 2.296 8.118 5.023 11.446 6.767 8.268 15.542 12.709 24.741 16.322 5.709 2.245 11.405 4.547 17.627 4.718 9.391.257 13.708-6.215 15.941-13.627 2.732-9.073 1.61-18.325-.558-27.405-1.873-7.854-4.292-15.587-5.645-23.549-1.54-9.051-.488-17.868 4.663-25.658 3.143-4.754 6.216-9.579 8.962-14.618 5.227-9.587 5.927-18.097 1.122-25.467-5.85-8.987-13.933-15.167-24.818-14.418"/><path d="M364.702 116.544c-6.523 1.425-12.996 3.293-19.577 4.169-8.718 1.155-17.525 1.518-26.287 2.252-5.241.442-10.475 1.02-15.716 1.405-8.397.613-16.518-1.504-24.703-3.151-8.724-1.753-17.493-1.404-26.3-.484-4.766.499-9.615.085-14.426.085-7.506 0-8.679 1.24-8.968 9.622-.064 1.896-.039 3.799-.007 5.702.34 17.925-3.463 34.71-10.84 50.647-2.688 5.809-4.882 11.96-6.723 18.168-2.129 7.156-2.097 14.704-.962 22.045 1.225 7.911 3.111 15.701 4.728 23.534 2.867 13.87 10.75 22.494 22.772 26.721 5.869 2.067 11.713 4.212 17.646 6.03 9.423 2.879 18.308 6.942 25.62 14.326 6.389 6.457 13.08 12.565 17.737 20.94 3.656 6.564 5.183 13.855 6.947 21.083 2.104 8.624 2.501 17.526 1.86 26.349-.545 7.491-3.117 14.17-8.859 18.931-3.81 3.157-8.23 3.806-12.508 3.043-8.846-1.575-17.672-3.528-26.634-2.623-8.255.834-16.132 3.578-23.779 7.299-5.234 2.544-10.238 5.231-14.42 9.686-7.46 7.94-10.738 18.182-13.086 28.901-1.584 7.228-2.155 14.604-2.033 22.088.09 5.51 3.124 8.902 8.089 8.973 10.199.143 20.161-1.603 30.168-3.528 8.583-1.646 16.87-3.813 24.715-8.217 6.556-3.685 12.361-8.511 17.519-14.077 8.653-9.344 18.14-17.177 28.955-23.057 5.466-2.972 9.128-8.011 12.143-13.578 5.684-10.498 12.971-19.286 21.117-27.526 11.938-12.052 23.151-24.96 31.535-40.504 2.392-4.441 5.003-8.739 7.344-13.208 2.919-5.587 3.124-11.582.937-17.426-4.336-11.582-10.212-22.159-17.935-31.36-5.151-6.144-12.015-9.43-18.564-13.243-6.37-3.713-12.843-7.334-17.974-13.157-5.876-6.671-4.952-11.14-.661-17.106 4.753-6.607 9.686-13.086 14.042-20.014 3.611-5.744 6.299-12.202 9.763-18.067 3.137-5.31 6.517-10.513 10.263-15.31 6.691-8.581 10.373-18.374 11.194-29.629.244-3.342 1.142-6.649 1.174-9.978.032-3.913-.27-7.904-.975-11.739-.546-2.957-3.695-4.953-6.64-5.003-2.456-.036-4.92-.007-7.376-.007"/><path d="M169.057 112.267c-10.039 3.528-14.856 12.003-15.863 22.829-.834 8.931-.148 18.04-.173 27.063-.02 7.248-1.841 13.977-5.485 19.928-5.087 8.311-10.648 16.265-15.626 24.661-6.043 10.192-9.789 21.353-8.98 33.812.429 6.671 2.482 12.694 6.639 17.861 8.236 10.235 18.923 16.158 29.873 21.689 5.747 2.908 11.636 5.502 17.287 8.624 5.658 3.122 9.526 8.146 10.584 15.267 1.828 12.294 1.963 24.439-3.188 35.986-2.264 5.075-5.709 8.852-10.257 11.411-8.025 4.504-16.101 8.895-24.035 13.577-7.358 4.334-13.76 9.979-19.353 16.978-5.119 6.407-6.094 13.955-4.837 21.425 1.764 10.463 4.888 20.676 11.033 29.258 7.659 10.698 17.692 17.091 29.828 18.816 13.798 1.967 22.804-3.706 29.155-17.754 3.027-6.693 6.029-13.421 8.634-20.321 5.542-14.675 15.568-23.484 28.917-28.11 6.812-2.359 13.637-4.697 20.54-6.707 2.88-.841 5.959-.955 8.961-1.119 6.408-.349 12.829-.435 19.244-.762 7.197-.371 11.597-5.011 14.086-12.11 2.515-7.17 2.329-14.575 1.354-22.088-.988-7.626-2.643-14.953-7.127-20.99-11.226-15.117-25.036-25.523-42.606-29.735-9.769-2.345-19.34-5.802-28.866-9.223-5.587-2.003-10.237-5.702-11.552-12.744-.462-2.466-.95-4.989-.937-7.476.064-11.753-2.053-23.164-4.227-34.568-1.88-9.85-2.925-19.828-.167-29.536 1.828-6.436 4.516-12.722 7.665-18.51 5.427-9.985 8.615-20.434 7.55-32.137-.641-7.106-4.233-12.644-8.98-17.056-7.813-7.255-16.563-12.829-26.262-16.436a29.4 29.4 0 0 0-12.508-1.788M186.373 55.247c-2.245.592-4.574.941-6.716 1.832-5.818 2.423-7.57 8.061-5.19 14.583 4.279 11.746 12.599 17.953 23.17 20.49 5.266 1.262 10.347-.897 13.714-5.936 3.342-5.01 4.471-10.734 2.258-16.693-3.207-8.645-9.91-12.052-17.614-13.506-3.047-.577-6.19-.527-9.295-.77M104.909 3.931c-5.1 1.255-8.788 4.712-11.174 9.65-3.509 7.25-7.095 14.512-9.866 22.124-2.412 6.622-1.655 13.706.911 20.22 2.02 5.132 8.666 9.266 14.356 7.513 6.222-1.917 11.758-5.182 16.37-10.313 4.741-5.282 9.494-10.492 12.855-17.092 4.221-8.282 3.939-14.376-1.719-21.689-5.51-7.12-12.759-10.797-21.412-10.405M83.099 390.234c-12.252 5.124-18.757 15.901-23.112 28.858-2.214 6.572-3.246 13.35-3.907 20.313-.827 8.76-1.38 17.612-4.093 26.022-2.059 6.401-4.977 12.324-9.358 17.042-4.67 5.032-9.853 9.479-14.677 14.34-4.478 4.512-9.038 8.988-13.118 13.927-6.96 8.432-15.068 15.245-23.478 21.667-9.615 7.341-13.798 18.225-15.985 30.313-1.321 7.313-1.212 14.454 2.11 21.425 3.047 6.393 8.384 9.223 13.574 12.387 6.902 4.212 11.72 9.843 10.475 19.258-.513 3.892-1.86 7.698-3.156 11.404-2.104 5.994-4.24 12.003-3.753 18.546.642 8.745 2.842 17.077 7.05 24.56 2.489 4.427 6.036 5.089 9.173 1.369 3.374-4.006 6.088-8.688 9.057-13.107 1.328-1.982 2.445-4.156 3.881-6.03 5.203-6.785 11.681-8.952 20.508-5.73 4.048 1.475 8.134 2.829 12.181 4.29 9.41 3.4 18.256 1.383 26.243-4.383 7.556-5.453 14.663-11.682 21.854-17.74 7.409-6.251 13.83-13.941 22.156-18.852 3.926-2.316 7.993-4.362 11.848-6.814 8.448-5.388 12.323-14.44 15.055-24.212 2.425-8.695 1.354-17.547.366-26.357-.558-4.989-1.283-9.964-1.552-14.967a138.25 138.25 0 0 1 0-14.96c.276-5.125.956-10.228 1.558-15.324 1.117-9.508 1.816-18.916-1.571-28.175-2.81-7.683-7.743-13.306-13.888-17.341-11.655-7.654-18.827-19.101-24.016-32.522-3.124-8.082-7.499-15.338-12.528-22.073-3.573-4.79-7.402-9.344-11.213-13.906-1.943-2.323-4.4-3.578-7.357-3.228M315.306 277.622c-6.126 1.325-5.997 5.431-4.156 9.971 1.751 4.312 3.945 8.431 5.362 12.865 2.207 6.899 3.868 14.005 5.863 20.99 1.931 6.771 3.387 13.741 7.332 19.629 3.207 4.789 6.363 5.773 11.258 3.193 8.685-4.569 12.54-12.922 13.355-22.829 1.334-16.286-6.357-27.405-18.185-35.602-6.287-4.362-12.971-7.654-20.514-8.217"/></g></svg>