<svg width="869" height="841" viewBox="0 0 869 841" fill="none" xmlns="http://www.w3.org/2000/svg">
<path d="M667.777 413.442C658.907 417.206 650.162 421.313 641.131 424.648C631.447 428.225 621.367 430.481 610.972 430.771C603.629 430.972 597.889 427.284 592.591 422.739C589.933 420.462 587.461 417.959 584.744 415.755C581.828 413.39 578.57 412.182 574.599 412.405C570.179 412.648 565.616 412.335 561.771 409.71C559.029 407.841 556.764 405.488 556.361 401.88C556.002 398.698 556.741 396.997 559.531 395.637C560.99 394.927 562.526 394.257 564.101 393.901C570.614 392.428 574.611 388.3 577.077 382.289C579.691 375.909 582.256 369.48 585.29 363.296C587.828 358.115 591.022 353.261 593.924 348.26C596.11 344.495 596.794 340.315 596.829 336.085C596.889 328.263 592.461 322.773 586.943 317.874C578.75 310.609 569.837 304.155 562.695 295.718C556.649 288.565 550.425 281.561 544.16 274.595C541.387 271.512 538.282 268.733 535.422 265.726C529.623 259.618 529.397 254.484 531.716 249.392C534.495 243.278 539.834 241.034 547.485 241.519C553.523 241.901 559.613 243.044 565.597 240.772C572.627 238.11 578.066 233.986 578.717 225.936C578.949 223.082 578.557 219.868 577.423 217.265C573.557 208.349 571.996 199.151 572.264 189.468C572.488 181.363 568.531 175.727 561.29 171.965C555.096 168.746 548.668 166.554 541.752 166.469C530.914 166.337 524.24 172.682 519.963 181.889C517.535 187.11 515.599 192.561 513.623 197.978C510.894 205.453 505.921 211.186 499.741 215.882C493.241 220.817 487.185 226.274 482.075 232.562C478.513 236.942 475.369 241.878 474.207 247.652C473.113 253.105 474.952 257.401 479.15 261.033C484.946 266.05 491.88 269.017 498.548 272.495C503.225 274.938 507.963 277.294 512.442 280.058C517.652 283.268 519.338 288.482 518.872 294.275C518.027 304.632 518.812 314.618 523.328 324.205C525.678 329.185 527.578 334.407 529.216 339.671C530.896 345.053 532.015 350.604 533.357 356.086C533.515 356.736 533.639 357.426 533.624 358.095C533.452 365.544 529.478 368.613 522.094 367.376C515.564 366.28 509.481 363.82 503.197 361.936C495.993 359.78 488.591 358.67 481.459 362.905C473.114 367.865 464.686 372.678 456.208 377.404C447.657 382.174 439.732 387.781 433.058 394.955C430.2 398.026 427.912 401.608 425.242 404.858C421.282 409.686 417.66 414.838 411.761 417.694C407.285 419.865 402.482 420.891 397.685 421.095C388.262 421.49 379.865 424.684 371.728 429.03C363.794 433.264 355.846 437.606 346.921 439.304C338.924 440.83 330.853 442.296 322.746 442.849C309.421 443.755 298.489 448.931 289.699 458.911C284.58 464.728 279.277 470.411 272.684 474.598C268.716 477.12 264.56 479.39 260.309 481.402C252.674 485.02 248.636 490.955 247.102 499.185C245.653 506.967 246.362 514.627 247.058 522.35C247.417 526.328 247.411 530.374 248.15 534.274C249.241 540.048 252.774 544.364 257.664 547.506C265.698 552.672 273.603 558.067 281.921 562.731C286.402 565.241 291.488 567.037 296.527 568.112C306.317 570.195 315.834 565.424 320.094 556.064C323.059 549.554 325.497 542.761 330.07 536.999C334.728 531.134 340.404 526.827 347.5 524.719C356.934 521.91 366.574 519.774 375.999 516.911C383.235 514.713 390.185 511.579 397.41 509.339C404.55 507.129 411.694 508.464 418.661 510.673C425.94 512.987 433.287 515.457 440.973 515.1C451.859 514.595 458.353 507.785 462.775 498.436C465.206 493.3 467.614 488.115 470.588 483.29C474.162 477.496 480.114 476.256 486.411 476.824C494.576 477.556 501.684 481.541 509.113 484.582C516.474 487.603 524.051 490.175 531.999 491.225C543.268 492.705 552.441 489.273 559.37 479.816C563.881 473.657 568.994 467.872 575.436 463.585C582.224 459.062 589.602 456.179 597.978 456.35C603.226 456.459 607.546 458.749 611.677 461.592C617.472 465.577 623.275 469.558 628.972 473.682C635.715 478.558 642.347 483.576 649.021 488.543C650.367 489.541 651.688 490.568 653.017 491.582" stroke="#F9FAFC" stroke-width="3" stroke-miterlimit="10" stroke-linecap="round" stroke-linejoin="round"/>
<path d="M-16.7704 619.783C-7.51454 611.451 1.18041 602.562 9.11923 592.976C12.9304 588.382 16.8975 583.895 19.5422 578.356C22.2964 572.583 23.1726 566.73 22.1254 560.552C21.1052 554.544 19.6129 548.615 18.7472 542.583C17.7018 535.29 16.8357 527.946 16.3822 520.595C15.8962 512.69 15.1025 504.824 12.4503 497.397C8.22004 485.534 11.3316 476.068 20.3592 467.804C29.0006 459.891 37.2843 451.591 45.8938 443.639C49.506 440.306 53.3927 437.215 57.4232 434.398C64.3306 429.585 69.6878 423.474 73.854 416.238C76.8917 410.968 81.2527 408.234 87.4809 407.954C92.7083 407.719 98.0367 407.641 103.002 405.439C109.472 402.567 114.204 398.107 116.773 391.378C119.278 384.814 119.016 377.865 120.078 371.1C121.151 364.2 124.037 357.799 128.966 352.541C134.057 347.111 139.395 341.865 144.068 336.095C150.559 328.089 149.848 321.76 144.997 314.154C142.806 310.718 140.17 307.563 137.763 304.269C130.903 294.887 127.561 284.027 124.319 273.049C121.985 265.147 119.835 257.136 115.758 249.819C113.129 245.106 107.62 241.612 102.175 242.099C94.394 242.791 86.6326 243.689 78.8629 244.527C66.6009 245.856 59.2763 239.597 54.7516 230.505C52.2757 225.533 49.9106 220.563 46.0208 216.408C40.8287 210.853 30.3317 210.092 24.1096 214.179C18.216 218.048 14.0054 223.167 10.6967 229.077C6.53144 236.516 1.11034 242.654 -5.8799 247.491C-8.05762 248.999 -10.1008 250.729 -12.0578 252.52C-18.8969 258.769 -18.8236 269.795 -12.1514 277.263C-4.20806 286.158 3.54402 295.167 10.0232 305.248C13.2878 310.329 17.4468 314.822 20.8888 319.793C26.7977 328.33 29.6607 337.788 28.2494 348.24C27.7195 352.155 27.2675 356.176 25.9703 359.867C24.1812 364.954 20.0981 367.911 15.0806 369.973C6.91313 373.334 -1.35723 376.722 -8.1772 382.524C-16.3036 389.437 -24.3202 396.495 -32.09 403.802C-39.1525 410.44 -45.7199 417.602 -52.6947 424.328C-61.1223 432.458 -71.6661 435.958 -83.0476 436.46C-92.9025 436.898 -102.798 436.342 -112.675 436.202C-120.266 436.094 -127.863 436.051 -135.452 435.794C-142.023 435.572 -148.597 435.232 -155.153 434.687C-165.757 433.802 -176.323 432.715 -187 433.879C-195.844 434.841 -203.918 431.966 -211.657 427.972C-219.385 423.988 -227.013 419.787 -234.915 416.174C-239.795 413.941 -245.219 412.904 -250.187 410.83C-256.402 408.235 -262.643 405.542 -268.437 402.138C-279.057 395.904 -289.434 389.284 -301.191 385.277C-306.416 383.494 -311.643 381.718 -316.778 379.698C-321.512 377.838 -324.437 374.068 -326.254 369.449C-327.818 365.492 -326.143 360.318 -322.765 357.705C-318.471 354.39 -313.465 352.632 -308.419 350.973C-301.982 348.859 -295.334 347.326 -289.436 343.778C-285.799 341.592 -282.032 339.62 -278.46 337.331C-273.514 334.158 -268.033 332.79 -262.405 333.683C-258.203 334.352 -254.262 336.538 -250.121 337.77C-242.92 339.912 -235.738 342.188 -228.405 343.768C-220.095 345.565 -211.951 347.728 -203.822 350.242C-197.418 352.214 -190.439 354.563 -183.708 350.65C-181.493 349.358 -179.001 348.157 -177.403 346.258C-171.455 339.195 -163.337 336.549 -154.862 334.604C-149.254 333.319 -143.609 332.047 -137.915 331.314C-129.753 330.263 -122.096 332.478 -114.58 335.58C-108.712 338 -102.767 340.571 -96.1278 339.775C-86.6641 338.643 -80.2875 332.907 -75.1714 325.445C-73.0723 322.381 -72.0158 318.997 -74.2877 315.539C-75.3226 313.967 -76.5453 312.352 -78.0454 311.272C-82.8613 307.805 -87.8793 304.612 -92.7658 301.242C-103.018 294.169 -108.228 284.387 -108.095 271.917C-108.006 263.977 -105.765 256.494 -103.228 249.003C-99.014 236.566 -97.8009 223.739 -100.214 210.757C-101.49 203.89 -102.991 197.04 -104.855 190.31C-107.314 181.445 -112.543 175.085 -122.148 173.299C-131.924 171.487 -141.631 169.1 -151.479 167.946C-158.569 167.117 -165.846 167.937 -173.032 167.932C-179.095 167.924 -184.984 167.1 -190.771 165.009C-195.697 163.231 -200.817 161.788 -205.968 160.855C-210.809 159.98 -215.831 160.129 -220.742 159.548C-226.265 158.898 -231.908 158.498 -237.218 156.987C-244.497 154.915 -251.775 153.391 -259.315 152.941C-264.357 152.642 -269.387 152.143 -274.43 151.747C-275.183 151.689 -275.982 151.499 -276.686 151.667C-285.119 153.633 -286.788 156.732 -283.946 166.231C-282.533 170.956 -280.873 175.545 -280.827 180.561C-280.753 188.017 -285.916 192.545 -291.775 193.535C-298.875 194.734 -305.329 192.752 -311.143 189.103C-316.758 185.582 -321.75 181.076 -327.297 177.437C-330.893 175.081 -334.826 172.916 -338.915 171.687C-348.405 168.839 -358.104 169.143 -367.834 170.929C-371.703 171.642 -373.413 173.715 -374.283 177.291C-375.22 181.148 -376.362 184.987 -377.731 188.71C-380.226 195.498 -385.305 200.063 -391.292 203.802C-394.111 205.562 -396.927 207.374 -399.517 209.444C-403.354 212.512 -407.41 215.154 -412.256 216.1C-418.518 217.321 -423.678 214.258 -427.648 210.147C-431.706 205.948 -435.018 200.91 -438.064 195.883C-445.264 183.981 -455.268 180.886 -468.364 188.643C-475.905 193.108 -482.993 198.325 -490.409 202.996C-496.165 206.623 -502.143 209.829 -509.113 210.615C-516.256 211.422 -522.185 209.18 -526.71 203.652C-530.349 199.205 -533.631 194.46 -537.253 189.99C-538.56 188.373 -540.384 187.18 -541.97 185.791" stroke="#F9FAFC" stroke-width="3" stroke-miterlimit="10" stroke-linecap="round" stroke-linejoin="round"/>
<path d="M-493 -73.5952C-479.408 -70.4228 -468.252 -63.154 -459.525 -52.4984C-453.79 -45.4953 -449.149 -37.6084 -443.663 -30.3912C-436.747 -21.2786 -429.397 -12.4889 -422.382 -3.44899C-419.189 0.665499 -415.942 4.83602 -413.437 9.37566C-409.709 16.1175 -411.803 22.4395 -415.925 28.4375C-418.372 31.9968 -420.951 35.6293 -422.511 39.6042C-424.772 45.3593 -422.748 51.1006 -419.776 56.0026C-414.055 65.4314 -406.732 73.3609 -396.254 77.8516C-388.523 81.1645 -380.882 80.3807 -373.369 77.5162C-368.361 75.6087 -363.685 72.8291 -358.669 70.9491C-352.875 68.7852 -346.831 67.9936 -341.225 71.5975C-335.287 75.4142 -331.397 80.6722 -331.643 88.0675C-331.779 92.2458 -334.262 95.5765 -336.57 98.8814C-339.989 103.785 -343.804 108.47 -346.763 113.636C-351.66 122.184 -353.487 131.657 -353.032 141.457C-352.705 148.438 -348.484 153.229 -342.381 155.752C-335.932 158.418 -329.125 160.264 -322.398 162.18C-320.273 162.784 -317.886 162.588 -315.623 162.532C-312.829 162.465 -310.782 161.024 -309.64 158.465C-308.033 154.865 -306.444 151.254 -304.977 147.595C-301.006 137.691 -293.271 133.889 -283.094 133.753C-275 133.649 -266.908 133.355 -258.817 133.132C-251.074 132.916 -243.836 134.791 -236.924 138.224C-231.583 140.877 -226.177 143.399 -220.736 145.835C-218.58 146.797 -216.262 147.417 -213.993 148.12C-206.592 150.411 -198.986 152.173 -191.829 155.064C-183.737 158.328 -175.551 159.435 -167.019 158.604C-157.23 157.651 -147.511 158.003 -137.749 159.167C-132.291 159.818 -126.696 159.295 -121.215 159.826C-107.215 161.189 -95.1951 167.576 -92.6794 184.443C-91.4156 192.965 -91.2595 201.651 -90.5999 210.261C-90.1276 216.441 -89.2515 222.625 -89.3266 228.799C-89.3949 234.557 -90.341 240.227 -91.8818 245.936C-94.1568 254.358 -97.5528 262.771 -96.3258 271.835C-95.5251 277.796 -92.7243 282.568 -88.0603 286.529C-82.1544 291.554 -75.2399 294.452 -68.1324 297.053C-59.4687 300.229 -50.3374 302.207 -42.2661 306.896C-39.7188 308.375 -37.2675 310.157 -35.1133 312.162C-29.4575 317.44 -31.2719 324.253 -36.2478 328.516C-40.5071 332.164 -45.5966 334.435 -50.9896 335.859C-60.0571 338.247 -68.0765 342.622 -75.5176 348.222C-79.4971 351.218 -83.8633 353.703 -88.7894 354.451C-94.9325 355.387 -101.168 355.914 -107.378 356.198C-116.24 356.601 -125.123 355.245 -133.988 357.044C-141.597 358.585 -146.732 362.93 -149.709 369.816C-153.52 378.628 -156.993 387.588 -160.671 396.457C-162.912 401.864 -163.454 407.225 -160.407 412.494C-157.888 416.853 -153.769 419.38 -149.369 421.418C-143.029 424.351 -136.315 425.579 -129.336 425.956C-123.462 426.275 -117.628 427.323 -111.758 427.87C-101.231 428.851 -90.7434 430.87 -80.1011 429.614C-69.4725 428.363 -60.8363 423.556 -53.8512 415.357C-46.0721 406.237 -37.9325 397.42 -29.907 388.516C-24.185 382.167 -18.6003 375.681 -12.5477 369.656C-9.19708 366.326 -5.11047 363.696 -1.18688 360.996C2.82662 358.235 7.42476 356.251 10.2598 352.02C15.3059 344.48 13.002 335.415 7.85496 330.07C3.88626 325.953 -0.50577 322.245 -4.53799 318.187C-7.65435 315.053 -10.6815 311.793 -13.444 308.34C-18.116 302.484 -22.9358 296.685 -26.9559 290.384C-30.2197 285.264 -32.6268 279.548 -34.9766 273.909C-36.5848 270.048 -37.3589 265.848 -38.6667 261.847C-40.5655 256.032 -38.1843 251.82 -33.5318 248.821C-27.0428 244.634 -20.4904 240.491 -13.6447 236.94C-5.9797 232.955 -0.486648 226.955 4.16547 219.98C9.35723 212.186 15.2428 205.143 24.0497 201.231C36.0844 195.884 50.1272 197.744 57.9602 209.922C60.8268 214.38 63.4934 218.963 66.1675 223.541C70.2388 230.504 78.9508 233.839 87.8804 231.144C94.8926 229.027 101.721 226.295 108.573 223.678C114.329 221.474 117.569 223.189 120.387 227.18C123.08 230.998 124.239 235.336 125.437 239.642C128.953 252.317 132.168 265.065 135.608 277.759C138.58 288.712 144.207 298.123 152 306.396C155.35 309.953 158.401 313.949 160.834 318.181C164.278 324.178 163.392 330.362 159.177 335.709C155.623 340.222 151.617 344.394 147.657 348.569C142.776 353.712 137.97 358.909 135.079 365.478C133.959 368.022 133.232 370.77 132.564 373.477C130.78 380.752 129.775 388.291 127.277 395.3C123.527 405.827 115.62 412.893 105.602 417.693C99.8957 420.429 94.1696 423.167 88.6832 426.296C85.2897 428.228 82.4476 431.112 79.1237 433.194C73.6068 436.657 68.113 440.274 62.2298 443.016C50.9554 448.277 43.1066 457.006 36.2357 466.917C34.2984 469.711 32.3383 472.488 30.4199 475.285C25.0065 483.18 24.4971 491.76 26.9221 500.736C29.0273 508.536 31.479 516.265 33.155 524.16C34.1295 528.75 34.0099 533.604 34.1607 538.339C34.4134 546.2 34.5228 554.061 34.6257 561.92C34.7111 568.732 34.6301 575.525 31.8429 581.958C29.8854 586.484 26.6149 590.012 22.8511 592.938C14.2344 599.648 7.29166 607.934 0.270231 616.152C-1.33854 618.036 -2.68434 620.151 -4.15336 622.159" stroke="#F9FAFC" stroke-width="3" stroke-miterlimit="10" stroke-linecap="round" stroke-linejoin="round"/>
<path d="M282.037 -27.8568C284.314 -20.3116 289.433 -14.8153 295.349 -10.0497C301.004 -5.49651 306.784 -1.05031 312.792 3.02102C322.185 9.38933 326.587 18.6086 328.682 29.2657C330.159 36.7969 331.857 44.4025 338.028 49.4773C341.882 52.646 346.679 54.7591 351.237 56.9641C358.145 60.311 364.833 63.7535 368.875 70.77C373.272 78.3953 374.906 86.5111 373.697 95.2C372.713 102.28 370.608 109.044 367.936 115.661C366.941 118.13 366.418 120.799 365.782 123.408C364.513 128.645 362.45 129.751 357.451 127.704C349.531 124.46 342.368 119.903 335.35 115.067C327.188 109.44 319.099 103.703 310.732 98.4026C303.805 94.0142 296.671 93.8363 290.333 99.749C288.154 101.779 286.341 104.296 284.734 106.826C278.32 116.948 275.795 128.391 273.857 140.004C273.033 144.96 272.562 150.015 271.29 154.854C269.479 161.719 264.424 166.398 259.233 170.869C254.463 174.976 249.037 178.476 245.699 183.989C242.968 188.493 240.069 193.031 238.275 197.935C236.046 204.042 234.467 210.467 233.328 216.885C231.199 228.86 233.691 239.729 242.166 248.953C245.49 252.577 248.255 256.708 251.482 260.431C256.173 265.84 262.441 269.223 268.31 273.131C273.575 276.638 278.677 280.323 281.515 286.349C287.435 298.909 280.738 314.957 266.04 316.531C256.379 317.567 248.823 315.057 243.323 306.917C242.818 306.169 241.963 305.648 241.444 304.904C235.889 296.845 229.99 300.223 226.502 306.7C224.19 310.996 222.762 315.759 220.894 320.296C218.542 326.015 215.178 331.039 211.237 335.838C208.312 339.405 205.723 343.544 204.178 347.855C203.073 350.943 203.351 354.867 204.06 358.199C206.663 370.421 209.639 382.596 214.554 394.118C217.858 401.863 223.471 408.093 229.73 413.667C237.705 420.767 244.398 428.989 251.097 437.251C255.747 442.979 255.901 448.7 252.304 454.823C248.8 460.801 245.318 466.802 241.731 472.731C236.252 481.802 234.167 491.782 233.558 502.203C233.228 507.787 233.081 513.412 232.293 518.936C231.284 525.979 227.9 532.214 224.448 538.332C223.202 540.538 221.661 542.584 220.332 544.749C215.492 552.616 207.998 555.764 199.25 556.045C186.225 556.466 174.404 560.789 163.026 566.599C154.22 571.093 145.678 576.094 136.836 580.502C129.774 584.026 122.138 585.608 114.209 584.731C108.683 584.126 103.219 582.918 97.6884 582.371C93.0171 581.907 88.2317 580.906 83.7277 583.568C78.2462 586.809 74.6981 591.29 73.2015 597.594C71.9069 603.036 72.4186 608.452 72.8847 613.834C73.5455 621.505 71.9244 628.85 70.5392 636.259" stroke="#F9FAFC" stroke-width="3" stroke-miterlimit="10" stroke-linecap="round" stroke-linejoin="round"/>
<path d="M-135.185 -106.924C-137.777 -100.624 -140.785 -94.4423 -141.422 -87.5385C-141.758 -83.8877 -142.114 -80.1687 -141.834 -76.532C-141.005 -65.7743 -139.813 -55.0394 -138.872 -44.2867C-138.355 -38.3793 -136.488 -32.8439 -133.357 -27.9902C-128.291 -20.1407 -127.118 -11.4852 -127.584 -2.64965C-128.098 7.13002 -123.2 12.6892 -115.134 16.7117C-111.274 18.6412 -107.405 20.7618 -104.028 23.4099C-98.2719 27.9167 -96.5779 34.575 -95.997 41.4932C-95.0357 52.9678 -93.2683 64.1834 -88.6478 74.9125C-85.0596 83.2599 -84.1826 92.0683 -86.9633 100.957C-88.5087 105.894 -90.0604 110.83 -91.7157 115.727C-93.6331 121.39 -91.1369 128.709 -85.8406 131.464C-81.0617 133.953 -75.9602 135.803 -71.1616 138.256C-64.6602 141.578 -58.3757 145.323 -51.8841 148.664C-45.1536 152.121 -38.074 154.351 -30.333 153.769C-26.1671 153.452 -23.6463 151.336 -22.253 147.447C-21.0381 144.053 -19.4821 140.789 -18.1269 137.448C-13.4537 125.934 -0.143831 120.541 11.2251 122.007C20.2557 123.17 26.6238 128.582 32.6691 134.39C42.2742 143.612 53.1971 150.935 64.5946 157.577C74.074 163.107 79.8184 170.752 79.4776 182C79.2935 188.095 76.5801 193.34 68.7035 191.044C63.8521 189.633 58.9761 188.282 54.2002 186.643C49.394 184.991 44.4767 184.69 39.511 184.921C31.7778 185.29 24.1194 186.299 16.8609 189.133C11.2659 191.315 7.12844 195.286 3.92001 200.354C0.385083 205.94 -2.99594 211.68 -7.0903 216.841C-13.6295 225.098 -22.7714 229.783 -32.5834 232.899C-43.5137 236.372 -54.6249 239.282 -65.6789 242.372C-68.6352 243.198 -72.48 241.226 -73.5802 237.924C-75.1991 233.082 -76.7285 228.145 -77.6234 223.133C-78.9457 215.715 -80.1808 208.217 -80.4887 200.717C-80.7008 195.442 -79.2817 190.102 -78.6375 184.786C-77.8949 178.672 -77.9958 172.634 -81.5564 167.289C-84.1564 163.39 -86.838 159.509 -89.8822 155.958C-93.2742 152.002 -97.0042 148.315 -100.793 144.734C-106.666 139.186 -113.314 136.848 -121.412 139.772C-127.297 141.899 -133.275 144.106 -139.405 145.11C-150.674 146.953 -162.056 148.219 -173.442 149.157C-179.442 149.65 -185.066 147.283 -190.547 144.78C-200.831 140.085 -211.402 135.981 -221.497 130.916C-227.573 127.864 -233.119 123.664 -238.633 119.607C-244.605 115.21 -249.887 109.611 -257.329 107.776C-261.451 106.756 -265.856 106.819 -270.146 106.584C-272.015 106.486 -274.446 107.47 -275.381 105.472C-276.419 103.259 -274.212 101.698 -272.851 100.159C-262.551 88.5446 -248.958 82.5129 -234.672 77.6562C-227.397 75.1843 -219.973 72.8907 -212.267 73.1894C-203.02 73.5507 -198.495 74.7181 -195.616 83.9891C-194.674 87.0197 -192.671 89.8261 -190.731 92.4181C-188.454 95.4656 -180.582 96.579 -177.181 94.7078C-170.684 91.136 -169.562 86.6085 -173.852 80.3546C-175.48 77.9844 -177.319 75.653 -179.471 73.778C-183.446 70.3123 -185.082 66.152 -184.876 60.9425C-184.434 49.6414 -187.34 38.9616 -191.074 28.4128C-194.2 19.5848 -195.808 10.3969 -195.99 1.05376C-196.088 -4.10209 -195.618 -9.288 -195.047 -14.4222C-194.499 -19.2994 -195.977 -23.6779 -198.208 -27.6959C-204.247 -38.5555 -210.436 -49.3456 -216.942 -59.941C-219.858 -64.6888 -223.979 -68.6913 -226.989 -73.3915C-230.663 -79.1375 -233.861 -85.1982 -237.034 -91.2479C-238.96 -94.9144 -238.622 -98.7804 -237.245 -102.685C-235.05 -108.884 -233.112 -115.177 -231.052 -121.42C-230.676 -122.55 -230.206 -123.656 -229.774 -124.769" stroke="#F9FAFC" stroke-width="3" stroke-miterlimit="10" stroke-linecap="round" stroke-linejoin="round"/>
<path d="M-102.41 -100.739C-104.622 -95.9341 -106.662 -91.0381 -109.082 -86.3443C-115.211 -74.4517 -116.802 -62.0095 -113.724 -49.0519C-112.833 -45.2999 -111.005 -41.7758 -109.663 -38.128C-107.987 -33.5882 -105.838 -29.1353 -104.836 -24.4485C-102.543 -13.7343 -97.3538 -4.77147 -89.1533 2.20739C-80.4118 9.64082 -74.6671 19.048 -69.8559 29.1473C-66.4146 36.3703 -63.2911 43.7553 -60.2992 51.1808C-57.7909 57.3987 -55.7424 63.804 -53.3619 70.0761C-50.5241 77.5573 -45.6584 83.5282 -39.1411 88.0809C-34.3314 91.4431 -28.8566 93.1487 -23.0198 92.3833C-16.5537 91.5343 -9.9921 90.6641 -3.77102 88.7962C7.79448 85.3127 19.1947 86.3023 30.4546 89.3151C36.8428 91.0234 41.8332 95.6078 46.7413 100.04C53.1539 105.839 60.0201 110.895 68.7929 112.766C80.0953 115.173 91.2911 118.076 102.62 120.305C107.127 121.195 111.886 121.192 116.506 120.994C122.172 120.751 127.705 121.214 133.263 122.237C138.518 123.209 143.82 124.099 149.139 124.554C155.71 125.122 159.453 121.305 158.745 115.022C157.942 107.866 156.945 100.732 155.954 93.5994C155.047 87.0961 152.216 81.5485 147.771 76.6689C141.968 70.3056 135.641 64.64 128.381 59.9733C116.523 52.3498 104.422 51.2672 91.5709 57.55C84.8969 60.8143 77.6029 61.6572 70.2621 60.0498C67.9493 59.5415 65.4134 58.6582 63.7035 57.1344C60.741 54.4994 60.3682 50.5254 61.7301 47.1138C63.9458 41.5654 66.7715 36.2432 69.6078 30.9687C71.0962 28.2011 73.5979 25.9446 74.8516 23.1066C78.0046 15.9465 76.536 10.5841 68.278 8.26838C64.8064 7.29333 61.0807 7.24952 57.4662 6.78932C49.4021 5.76352 42.4418 2.58949 37.2989 -3.88412C31.0539 -11.7473 25.2881 -19.9704 17.842 -26.8656C9.90672 -34.2122 1.50053 -40.8969 -7.46087 -46.9227C-13.5149 -50.9897 -19.5438 -55.052 -24.5062 -60.545C-29.4203 -65.9832 -30.7715 -72.5898 -31.3083 -79.4997C-31.5074 -82.0766 -31.2352 -84.6952 -31.1816 -87.2962" stroke="#F9FAFC" stroke-width="3" stroke-miterlimit="10" stroke-linecap="round" stroke-linejoin="round"/>
<path d="M-123.525 -104.724C-125.224 -100.912 -126.716 -96.9834 -128.669 -93.3112C-131.664 -87.6814 -132.746 -81.5667 -132.517 -75.4461C-132.116 -64.5667 -132.023 -53.5431 -128.565 -43.053C-127.035 -38.3971 -124.726 -33.9924 -122.693 -29.5093C-119.459 -22.3645 -117.988 -14.7301 -116.502 -7.11213C-115.212 -0.458278 -111.702 4.70831 -106.434 8.8229C-103.003 11.5006 -99.599 14.2188 -96.2178 16.9524C-90.4339 21.6212 -87.8688 28.0914 -86.6253 35.0955C-84.3925 47.6848 -80.4687 59.7186 -75.4963 71.4541C-72.7319 77.9749 -70.32 84.7034 -70.0104 91.7793C-69.804 96.5314 -70.6314 101.434 -71.6776 106.113C-73.3862 113.748 -70.845 119.065 -64.3974 123.226C-58.0955 127.294 -51.4285 130.223 -44.0089 131.206C-38.5573 131.928 -34.3042 129.108 -30.5743 125.601C-21.3149 116.904 -10.3389 111.736 2.12613 109.989C15.4503 108.117 26.7825 112.338 36.0546 122.182C39.8563 126.216 43.763 130.178 47.8918 133.862C55.8471 140.965 65.488 143.182 75.8866 142.769C82.2599 142.516 88.6896 141.444 94.9811 142.005C102.069 142.638 109.053 144.609 116.046 146.157C118.979 146.808 121.856 147.749 124.696 148.749C135.621 152.606 146.494 156.597 157.423 160.428C162.915 162.353 168.372 164.74 174.052 165.669C179.352 166.538 184.931 165.927 190.372 165.635C195.16 165.377 199.928 164.703 204.695 164.141C209.797 163.537 211.044 162.532 211.749 157.652C212.408 153.089 212.713 148.466 213.078 143.867C213.517 138.395 213.918 132.915 214.22 127.437C214.671 119.205 212.358 111.608 208.427 104.488C204.764 97.8501 200.724 91.4148 197.221 84.6894C194.049 78.6007 193.422 71.8567 193.351 65.0738C193.321 62.1176 193.511 59.105 193.012 56.2168C191.591 48.0761 187.887 46.6393 180.592 47.9716C174.966 48.9989 169.369 50.3316 163.693 50.8991C157.547 51.5081 151.772 49.4522 146.17 47.0371C136.626 42.9249 127.98 37.3373 119.837 30.9504C114.282 26.5924 111.835 20.7059 111.64 13.7496C111.55 10.56 111.693 7.31009 111.104 4.20902C109.427 -4.58063 102.754 -8.99951 95.2925 -12.0788C87.4079 -15.3359 79.2218 -17.86 71.1436 -20.6444C63.3722 -23.3253 56.0357 -26.8576 48.9229 -30.9874C39.6868 -36.3534 30.1866 -41.2536 20.8665 -46.4854C12.6667 -51.0814 4.32674 -55.4885 -3.51305 -60.6433C-11.667 -66.001 -16.0773 -73.9356 -16.4947 -83.8649C-16.5176 -84.1239 -16.8298 -84.3721 -16.9985 -84.6194" stroke="#F9FAFC" stroke-width="3" stroke-miterlimit="10" stroke-linecap="round" stroke-linejoin="round"/>
<path d="M-178.657 465.853C-178.507 470.907 -174.962 474.051 -172.05 477.544C-165.576 485.3 -158.986 492.961 -152.651 500.828C-148.288 506.247 -144.106 511.828 -140.139 517.544C-131.033 530.66 -122.662 544.206 -116.222 558.888C-111.369 569.942 -102.073 571.324 -92.9431 566.493C-88.6938 564.247 -84.9658 561.027 -80.8914 558.428C-78.3376 556.795 -75.6371 555.352 -72.8985 554.055C-65.1334 550.37 -58.628 552.322 -53.9947 559.248C-50.1249 565.031 -46.5848 571.038 -42.5328 576.686C-38.9969 581.61 -34.6821 585.623 -28.7363 587.946C-22.0425 590.56 -14.2041 587.49 -10.4062 582.828C-5.05039 576.24 -4.25651 568.713 -6.45296 561.085C-9.75959 549.586 -14.0715 538.432 -20.6885 528.285C-26.0697 520.03 -27.8436 510.994 -25.4088 501.309C-23.841 495.077 -21.8307 488.922 -20.6927 482.616C-19.5726 476.404 -19.0729 470.055 -18.71 463.739C-18.2576 455.704 -15.2012 450.647 -7.23737 449.852C-4.25643 449.553 -1.33539 448.603 1.61951 447.992C13.9712 445.427 23.7619 439.311 30.5612 428.361C33.7326 423.248 34.2092 418.474 31.6947 413.189C29.286 408.139 25.6186 404.085 20.8231 401.443C14.3669 397.881 8.11591 399.665 2.20552 403.38C-6.74131 409.003 -13.9855 416.292 -19.2277 425.46C-23.6254 433.162 -29.5512 438.584 -38.4388 440.85C-45.7495 442.715 -52.8302 445.471 -60.0279 447.775C-70.0527 450.981 -80.4628 451.732 -90.8628 452.015C-104.151 452.38 -117.464 451.877 -130.732 452.52C-140.773 453.008 -150.775 454.573 -160.761 455.913C-165.598 456.567 -170.39 457.85 -174.382 460.843C-176.032 462.079 -177.203 463.96 -178.586 465.546" stroke="#F9FAFC" stroke-width="3" stroke-miterlimit="10" stroke-linecap="round" stroke-linejoin="round"/>
<path d="M-9.43039 -83.1905C-8.67301 -80.8738 -8.13091 -78.4541 -7.11058 -76.2509C-3.87665 -69.2433 2.06787 -65.1838 8.70747 -61.7635C15.5672 -58.2298 22.9831 -56.778 30.4484 -55.8652C38.8132 -54.8414 45.38 -50.8278 51.3067 -45.2899C59.1258 -37.9848 68.0177 -32.5597 78.3999 -29.7386C83.8825 -28.2469 89.3675 -26.7679 94.8671 -25.3317C98.4932 -24.3798 102.097 -23.2426 105.789 -22.67C112.345 -21.648 118.97 -21.0506 125.554 -20.1736C135.13 -18.8949 137.597 -11.8362 136.475 -4.09053C135.801 0.5541 134.427 5.0994 133.292 9.66349C130.647 20.3205 135.768 25.8043 142.791 30.1325C153.406 36.6662 164.039 36.016 174.922 31.2353C177.037 30.3028 179.166 29.399 181.309 28.524C188.318 25.6624 195.309 26.0482 201.502 30.1741C206.796 33.6997 208.935 39.3844 208.715 45.7728C208.501 51.9209 208.305 58.0788 207.827 64.2097C207.143 72.9193 210.508 80.3759 214.964 87.3728C220.821 96.5662 227.194 105.413 234.384 113.663C238.531 118.428 239.212 124.608 240.094 130.656C240.571 133.906 241.407 137.157 242.542 140.237C243.586 143.078 245.98 145.129 249.007 145.309C252.223 145.498 254.523 143.203 255.743 140.47C258.798 133.625 259.704 126.23 260.512 118.869C261.421 110.56 260.961 102.066 264.226 94.1043C266.521 88.5187 270.249 83.9805 274.743 80.1285C283.902 72.2741 293.534 65.201 305.05 60.9443C312.741 58.1005 317.343 50.3523 317.181 41.7701C317.084 36.6797 316.903 31.6191 315.205 26.6769C312.581 19.0663 307.288 13.4913 301.651 8.18432C295.537 2.42831 289.159 -3.03799 283.015 -8.77355C277.094 -14.3039 272.627 -20.761 271.121 -28.9373C271.028 -29.4446 270.669 -29.8973 270.434 -30.3791" stroke="#F9FAFC" stroke-width="3" stroke-miterlimit="10" stroke-linecap="round" stroke-linejoin="round"/>
<path d="M170.75 445.951C169.668 444.768 168.108 443.762 167.581 442.37C164.908 435.298 166.024 428.243 171.794 423.333C174.897 420.694 178.226 418.274 181.641 416.053C188.724 411.456 191.406 404.918 191.573 396.666C191.716 389.649 191.17 382.894 187.678 376.732C185.935 373.655 184.028 370.443 181.458 368.117C174.627 361.938 168.51 363.741 162.988 369.409C157.441 375.106 154.162 382 152.379 389.615C151.162 394.817 150.097 400.079 149.419 405.369C148.135 415.285 143.758 422.566 134.015 426.354C125.484 429.673 116.981 433.186 108.818 437.318C102.914 440.303 97.3016 444.068 92.1063 448.179C87.4549 451.865 82.5305 454.852 77.2185 457.368C72.6012 459.558 67.8985 461.647 63.553 464.3C58.3375 467.481 55.4153 472.726 54.0936 478.449C52.4257 485.661 54.95 491.967 60.6846 496.62C69.2331 503.554 75.2881 511.87 77.3232 522.947C77.9023 526.105 79.3183 529.186 80.7827 532.08C83.2626 536.961 88.008 539.488 92.7027 541.419C99.9225 544.394 106.43 548.305 112.283 553.404C121.101 561.087 130.936 561.07 141.262 557.235C149.021 554.345 156.358 550.645 163.037 545.691C170.613 540.07 179.471 537.166 188.105 533.717C197.409 530.009 202.733 522.932 204.83 513.099C206.285 506.291 205.517 499.5 205.686 492.691C205.879 484.92 207.294 477.386 209.547 469.913C211.858 462.235 213.773 454.404 215.26 446.525C216.484 440.038 212.812 433.868 206.887 430.916C203.175 429.067 199.837 430.982 196.555 432.289C194.995 432.908 193.76 434.333 192.343 435.339C185.806 439.987 179.285 444.69 171.077 446.019" stroke="#F9FAFC" stroke-width="3" stroke-miterlimit="10" stroke-linecap="round" stroke-linejoin="round"/>
<path d="M310.721 681.426C313.727 674.806 317.244 668.413 322.389 663.287C329.039 656.657 337.345 652.839 346.522 650.771C353.626 649.168 361 647.838 366.842 643.169C377.457 634.689 388.178 626.203 397.007 615.844C400.781 611.413 403.487 605.755 405.528 600.232C409.057 590.702 415.29 583.477 422.794 577.092C427.996 572.669 433.424 568.503 438.594 564.041C444.762 558.717 447.559 551.959 446.724 543.72C446.135 537.852 442.588 534.16 437.927 531.328C430.758 526.973 422.995 524.006 415.046 521.298C406.256 518.308 397.723 519.733 389.232 521.557C380.08 523.525 371.082 526.24 362.056 528.753C353.712 531.076 346.932 535.456 343.559 543.854C342.192 547.258 341.004 550.748 339.961 554.272C338.352 559.719 335.248 564.16 331.135 567.934C322.405 575.934 312.206 580.72 300.272 580.968C294.473 581.088 288.654 580.199 282.84 580.087C276.406 579.969 269.965 580.197 263.53 580.327C261.329 580.368 259.1 580.385 256.932 580.733C248.563 582.085 247.819 587.271 250.11 593.363C251.957 598.275 254.943 602.827 257.841 607.258C261.134 612.292 264.482 617.382 265.73 623.219C266.95 628.932 267.527 634.936 267.325 640.779C266.983 650.683 266.481 660.537 268.384 670.342C268.591 671.393 268.431 672.518 268.448 673.605" stroke="#F9FAFC" stroke-width="3" stroke-miterlimit="10" stroke-linecap="round" stroke-linejoin="round"/>
<path d="M-112.806 -102.701C-115.777 -96.192 -119.165 -89.827 -121.568 -83.1129C-123.128 -78.7531 -123.744 -73.9015 -123.913 -69.2334C-124.207 -60.8287 -123.719 -52.4136 -120.539 -44.4303C-118.334 -38.8898 -115.938 -33.4243 -113.928 -27.8161C-111.88 -22.1028 -110.079 -16.2861 -108.378 -10.462C-106.48 -3.94808 -102.047 0.615912 -97.2615 5.03768C-93.1922 8.79542 -89.1113 12.5945 -85.4717 16.7608C-81.0269 21.8493 -79.3202 28.4055 -77.0511 34.6109C-73.9368 43.117 -71.0192 51.6969 -67.7921 60.159C-64.9857 67.5298 -62.2003 74.9424 -58.8081 82.0452C-56.0106 87.9064 -52.6541 93.5729 -48.9477 98.9072C-45.1237 104.414 -38.8904 105.525 -32.6747 105.588C-24.0558 105.681 -15.8694 103.015 -7.6384 100.874C0.985257 98.6239 9.64559 97.3208 18.4478 99.3476C25.5738 100.986 32 104.223 37.4869 109.116C42.4644 113.561 47.1376 118.373 52.3223 122.55C54.8378 124.578 58.1128 125.869 61.2427 126.89C68.2285 129.168 75.5783 128.134 82.7548 128.744C86.0703 129.023 89.4303 129.103 92.6963 129.68C103.957 131.688 115.241 133.635 126.402 136.1C132.688 137.488 138.746 139.872 144.921 141.775C149.752 143.261 154.554 144.866 159.446 146.096C162.856 146.949 166.387 147.543 169.894 147.742C177.205 148.155 182.583 144.392 186.88 138.916C191.433 133.124 194.579 126.694 194.191 119.1C193.914 113.682 191.664 109.001 188.123 104.867C182.913 98.7851 178.665 92.1671 176.261 84.3956C173.394 75.1333 166.532 69.8106 157.985 65.7757C150.242 62.1145 142.845 57.6569 135.561 53.1226C126.622 47.5646 117.45 42.5828 107.515 39.0561C105.349 38.2883 103.237 37.3023 101.2 36.2324C98.2112 34.6696 96.2517 32.2892 96.0813 28.7646C95.8329 23.6129 95.8985 18.4226 95.3435 13.3045C94.3822 4.49319 89.1623 -1.19202 81.1172 -4.39452C75.4944 -6.63071 69.7439 -8.12072 63.6007 -8.46412C54.4487 -8.98368 47.0679 -13.6993 40.661 -19.9088C32.3927 -27.9123 22.9112 -34.33 13.5848 -40.9469C6.08919 -46.2651 -1.76833 -51.0838 -9.22918 -56.4478C-16.5987 -61.7423 -22.1642 -68.4327 -23.1357 -77.9509C-23.3969 -80.5787 -23.4584 -83.2276 -23.6129 -85.8679" stroke="#F9FAFC" stroke-width="3" stroke-miterlimit="10" stroke-linecap="round" stroke-linejoin="round"/>
<path d="M295.879 678.787C300.783 672.969 305.962 667.353 310.536 661.277C317.163 652.482 325.817 646.856 336.142 643.648C349.525 639.495 362.035 633.67 373.236 625.164C380.527 619.633 386.792 613.243 390.155 604.523C391.556 600.904 392.934 597.234 393.841 593.469C395.566 586.3 400.244 581.367 405.525 576.73C410.229 572.591 415.044 568.526 419.279 563.933C422.325 560.624 425.166 556.78 426.888 552.672C429.197 547.148 426.632 540.573 419.149 535.878C409.729 529.968 399.51 530.05 389.231 532.007C382.799 533.228 376.199 534.443 370.649 538.494C367.312 540.926 365.276 544.034 364.579 548.139C363.625 553.782 362.623 559.475 358.652 563.98C356.774 566.113 354.804 568.215 352.611 570.014C336.757 583.009 318.171 589.724 298.293 593.427C294.857 594.065 291.451 594.884 288.066 595.734C280.631 597.601 276.395 601.717 277.209 610.611C278.352 623.06 277.059 635.448 277.256 647.862C277.388 656.118 279.524 663.891 283.34 671.172C284.487 673.36 286.229 675.236 287.696 677.249" stroke="#F9FAFC" stroke-width="3" stroke-miterlimit="10" stroke-linecap="round" stroke-linejoin="round"/>
<path d="M-40.6326 -89.0798C-40.5414 -79.2904 -41.1378 -69.4544 -35.977 -60.412C-32.8913 -55.0056 -28.0494 -51.572 -23.158 -48.3315C-11.3387 -40.4999 0.377323 -32.6748 10.1049 -22.1308C16.6192 -15.072 22.0295 -7.38596 26.2092 1.21673C29.4726 7.92966 33.2696 14.3059 38.3557 19.8353C41.8606 23.6432 44.7565 27.9106 43.8486 33.2749C43.2736 36.6327 41.6191 39.8651 40.1448 43.0075C37.8737 47.8469 35.165 52.4796 32.9558 57.3372C28.1623 67.8628 19.8477 72.7301 8.58612 74.0841C2.32145 74.8341 -3.78963 76.9839 -9.92887 78.6257C-15.195 80.0341 -20.4067 81.3613 -25.9578 80.5095C-34.357 79.2181 -40.0348 74.2299 -43.5483 66.9736C-46.6819 60.5071 -48.6305 53.4679 -51.6829 46.9515C-55.821 38.1282 -60.7614 29.6822 -64.907 20.864C-70.1406 9.75154 -79.0996 1.74175 -87.0567 -7.14953C-90.9003 -11.4457 -93.9158 -16.2905 -95.4276 -22.0462C-97.8605 -31.2919 -100.596 -40.4575 -103.228 -49.6494C-105.42 -57.3025 -105.706 -64.9158 -102.506 -72.3607C-98.7808 -81.0317 -94.9101 -89.6426 -91.1052 -98.2855" stroke="#F9FAFC" stroke-width="3" stroke-miterlimit="10" stroke-linecap="round" stroke-linejoin="round"/>
<path d="M298.171 -25.1387C302.447 -19.364 308.853 -16.4707 314.885 -13.2564C325.272 -7.72549 331.359 1.04142 334.876 11.8429C336.442 16.6557 337.389 21.6652 338.684 26.5639C341.46 37.108 347.825 44.4389 358.016 48.5491C362.019 50.1663 365.968 52.0734 369.638 54.3459C376.955 58.8798 379.799 66.4013 381.873 74.2279C383.669 81.0034 384.775 87.9033 384.503 94.9477C384.344 99.1477 384.144 103.353 383.753 107.536C382.867 116.971 387.676 123.897 397.181 126.422C406.107 128.792 415.158 130.611 423.863 133.912C430.648 136.492 437.757 138.016 445.249 136.506C450.949 135.355 455.186 131.931 459.098 128.218C464.815 122.795 470.03 116.853 475.469 111.136C480.836 105.491 483.511 98.4101 486.066 91.2679C488.979 83.1354 489.863 74.7117 489.505 66.1317C488.997 53.9463 486.478 42.393 477.298 33.5842C474.274 30.6832 470.248 28.8071 466.608 26.5795C461.979 23.7476 456.935 21.7642 452.845 17.8784C448.273 13.5298 445.85 8.34638 444.409 2.46035" stroke="#F9FAFC" stroke-width="3" stroke-miterlimit="10" stroke-linecap="round" stroke-linejoin="round"/>
<path d="M650.432 504.496C644.774 500.164 639.158 495.781 633.455 491.513C626.322 486.178 618.72 481.63 610.556 478.019C606.38 476.174 602.252 474.389 597.677 473.591C586.18 471.591 574.08 480.914 573.573 492.595C573.378 497.121 575.137 501.259 576.971 505.339C577.927 507.471 578.818 509.702 579.289 511.978C580.303 516.876 577.868 521.064 572.926 523.487C569.71 525.067 563.465 524.018 560.982 521.193C558.284 518.125 555.931 514.75 553.274 511.638C550.019 507.824 545.452 505.905 540.978 504.153C534.042 501.441 526.993 498.942 519.833 496.899C511.707 494.575 503.487 492.404 495.172 491.011C489.363 490.039 483.927 491.931 480.292 497.185C474.86 505.038 472.465 513.751 473.122 523.242C473.528 529.083 476.541 533.627 480.846 537.449C487.348 543.226 494.703 547.63 502.919 550.303C507.458 551.78 512.408 551.944 517.048 553.159C521.254 554.26 526.082 554.792 528.201 559.475C529.09 561.438 529.765 563.81 529.554 565.899C528.904 572.454 526.726 578.669 524.483 584.845C522.16 591.241 520.118 597.736 517.856 604.151C514.961 612.365 515.57 620.933 514.958 629.402C514.369 637.503 513.295 645.617 511.7 653.58C509.836 662.87 511.029 671.875 512.893 680.883C514.867 690.381 520.216 697.664 528.251 703.065C536.714 708.755 542.864 716.326 546.467 725.91" stroke="#F9FAFC" stroke-width="3" stroke-miterlimit="10" stroke-linecap="round" stroke-linejoin="round"/>
<path d="M523.428 721.732C519.729 716.086 514.078 712.682 508.317 709.898C501.731 706.716 499.305 701.754 499.081 694.949C498.743 684.532 498.169 674.116 497.87 663.7C497.782 660.706 498.133 657.672 498.576 654.701C499.741 646.871 501.611 639.104 502.149 631.241C502.628 624.275 501.46 617.213 501.454 610.188C501.448 602.406 501.943 594.627 502.198 586.841C502.259 584.999 502.484 583.116 502.218 581.309C501.707 577.858 497.754 575.18 493.076 574.649C489.036 574.194 484.981 573.748 480.983 573.007C472.374 571.408 463.876 571.886 455.379 573.743C447.623 575.438 440.455 578.414 434.032 583.116C427.512 587.884 422.95 594.034 420.359 601.744C417.263 610.958 412.153 618.663 404.103 624.546C397.122 629.646 389.751 634.463 384.261 641.312C379.804 646.868 375.614 652.645 371.547 658.49C368.153 663.365 363.648 665.583 357.805 665.342C354.242 665.198 350.677 664.996 347.105 664.968C338.097 664.893 331.17 668.978 325.787 675.952C323.92 678.374 322.218 680.925 320.441 683.423" stroke="#F9FAFC" stroke-width="3" stroke-miterlimit="10" stroke-linecap="round" stroke-linejoin="round"/>
<path d="M-76.2506 -95.8018C-80.3606 -90.1083 -84.8403 -84.6348 -87.4303 -78.0017C-91.0682 -68.6876 -92.5022 -59.2904 -89.6954 -49.3279C-87.9265 -43.0668 -86.8982 -36.5472 -86.1221 -30.0752C-85.0289 -20.9257 -80.8603 -13.2325 -74.229 -7.45065C-63.6908 1.73843 -57.4315 13.4688 -51.4438 25.6701C-46.3877 35.9592 -40.7659 45.9829 -34.9693 55.8765C-30.1162 64.1623 -23.9663 66.5111 -14.0091 63.8012C-8.61401 62.3322 -3.29682 60.4113 2.18791 59.4358C15.709 57.0394 22.5082 44.8099 21.5441 32.0357C20.6375 20.0296 17.2678 8.5182 11.5337 -2.22523C6.32495 -11.9817 -1.34894 -19.4683 -9.68185 -26.4721C-18.0034 -33.4673 -27.6016 -38.4708 -36.6802 -44.2903C-41.8974 -47.638 -46.9539 -51.2491 -49.1899 -57.4222C-49.902 -59.3909 -50.355 -61.487 -50.6493 -63.5596C-52.0163 -73.1264 -52.6601 -82.8243 -56.0798 -91.995" stroke="#F9FAFC" stroke-width="3" stroke-miterlimit="10" stroke-linecap="round" stroke-linejoin="round"/>
<path d="M228.056 266.807C229.014 261.419 226.728 256.725 224.561 252.158C221.279 245.233 221.046 238.197 222.033 230.753C223.05 223.085 223.314 215.321 223.884 207.595C224.508 199.102 219.512 194.236 212.671 190.843C206.869 187.966 201.004 185.077 194.887 183.002C189.286 181.103 183.276 180.916 177.3 181.139C172.088 181.33 166.858 181.094 161.639 181.179C156.236 181.27 151.625 182.39 149.099 188.233C146.054 195.27 142.237 201.971 138.8 208.836C134.975 216.483 134.455 224.63 135.219 232.966C136.729 249.388 141.202 265.116 146.871 280.495C150.239 289.63 156.827 296.572 164.184 302.693C170.634 308.056 177.215 313.169 182.54 319.82C188.499 327.257 194.899 324.548 199.477 317.168C202.834 311.763 204.75 305.486 207.86 299.904C211.007 294.264 214.62 288.849 218.414 283.618C222.192 278.403 225.998 273.253 228.307 267.174" stroke="#F9FAFC" stroke-width="3" stroke-miterlimit="10" stroke-linecap="round" stroke-linejoin="round"/>
<path d="M462.688 5.9104C465.263 10.8418 469.5 14.4027 474.023 17.0383C485.951 23.983 492.744 34.6457 497.313 47.0688C500.971 57.0157 504.26 67.1215 509.481 76.3972C511.33 79.6771 513.636 82.7105 515.837 85.7827C522.854 95.5737 525.405 106.787 526.674 118.502C527.486 126.026 528.657 133.519 529.945 140.982C530.54 144.436 532.736 146.913 535.914 148.714C541.87 152.09 548.226 154.354 554.775 156.106C559.424 157.349 564.1 158.616 568.837 159.386C582.468 161.6 593.148 157.446 600.262 145.139C602.432 141.391 604.63 137.66 606.94 134.003C610.533 128.317 611.708 122.539 608.324 116.293C604.882 109.938 601.666 103.456 598.203 97.1103C594.06 89.5199 589.795 81.9913 585.509 74.4717C581.674 67.7424 576.23 62.5893 569.556 58.7315C562.439 54.6206 556.187 49.7329 552.802 41.8677C550.611 36.7736 550.529 31.4641 550.584 26.0889C550.593 25.0006 550.564 23.9114 550.555 22.8195" stroke="#F9FAFC" stroke-width="3" stroke-miterlimit="10" stroke-linecap="round" stroke-linejoin="round"/>
<path d="M491.688 11.3833C502.44 26.9121 508.958 44.6382 517.612 61.2528C520.563 66.9212 524.338 72.2358 528.266 77.2985C533.675 84.2662 535.07 92.2977 535.892 100.671C536.795 109.896 537.207 119.126 539.689 128.218C543.54 142.366 562.456 150.57 575.257 144.729C581.635 141.82 584.998 136.625 587.636 130.673C592.347 120.034 589.886 109.967 584.491 100.437C581.148 94.5247 577.306 88.8711 573.38 83.319C569.346 77.6096 563.221 74.7108 556.883 72.3591C550.99 70.1699 545.831 67.3097 542.556 61.5216C539.022 55.2733 535.589 48.9069 536.068 41.6275C536.537 34.5091 538.162 27.4588 539.281 20.385" stroke="#F9FAFC" stroke-width="3" stroke-miterlimit="10" stroke-linecap="round" stroke-linejoin="round"/>
<path d="M134.322 543.852C142.059 544.777 148.552 541.85 154.792 537.636C160.559 533.743 166.517 530.122 172.536 526.63C175.702 524.792 179.397 523.825 182.481 521.874C191.412 516.229 191.806 507.119 187.083 499.047C184.141 494.02 178.657 493.435 173.282 493.067C164.491 492.466 156.378 490.765 150.654 482.739C146.019 476.237 142.69 469.211 139.674 461.951C137.776 457.376 135.49 453.06 131.468 449.984C126.426 446.121 120.918 446.394 115.158 448.166C109.26 449.984 104.554 453.684 100.376 457.87C94.3846 463.881 87.3392 468.041 79.7661 471.573C75.9082 473.371 72.6368 475.763 71.7911 480.487C71.352 482.917 72.2107 484.835 73.3635 486.613C75.1677 489.401 77.0677 492.201 79.3594 494.586C84.266 499.683 86.6368 506.11 88.9053 512.491C91.5032 519.79 96.1291 524.991 103.027 528.114C111.344 531.884 119.482 535.907 127.033 541.105C129.06 542.506 131.624 543.134 133.94 544.112" stroke="#F9FAFC" stroke-width="3" stroke-miterlimit="10" stroke-linecap="round" stroke-linejoin="round"/>
<path d="M463.232 710.374C465.777 701.728 469.621 693.674 474.359 686.036C478.505 679.357 481.9 672.438 483.053 664.496C484.063 657.519 485.848 650.656 486.839 643.675C487.62 638.15 488.049 632.525 488.052 626.938C488.053 614.203 481.544 605.493 470.325 600.118C466.092 598.092 461.781 596.097 457.301 594.762C446.868 591.657 439.982 597.427 437.484 608.243C435.709 615.917 432.429 622.642 425.434 626.812C422.036 628.84 418.25 630.222 414.709 632.034C408.222 635.346 401.609 638.426 396.178 643.511C392.149 647.288 389.523 651.688 387.655 656.917C385.899 661.828 385.53 666.726 386.112 671.633C387.014 679.2 391.848 684.544 397.289 689.508C400.72 692.636 403.663 696.305 406.823 699.728" stroke="#F9FAFC" stroke-width="3" stroke-miterlimit="10" stroke-linecap="round" stroke-linejoin="round"/>
<path d="M680.408 345.65C679.064 340.389 677.97 335.052 676.299 329.893C674.408 324.04 669.515 320.185 665.57 315.837C654.919 304.101 646.423 291.008 640.592 276.349C638.644 271.451 638.12 265.856 637.659 260.52C637.049 253.512 636.148 246.631 633.952 239.931C632.304 234.9 629.391 230.616 625.955 226.723C622.335 222.626 617.667 222.868 613.026 224.597C606.829 226.893 601.504 230.719 596.407 234.829C590.435 239.636 584.594 244.605 578.606 249.389C575.301 252.029 571.682 254.29 568.42 256.977C562.398 261.944 560.934 266.727 564.485 276.099C568.039 285.491 574.405 292.887 581.954 299.306C587.348 303.895 593.064 308.127 598.273 312.902C607.247 321.143 611.555 331.285 608.77 343.547C607.37 349.72 605.551 355.832 603.377 361.78C598.511 375.079 600.716 387.539 607.535 399.382C609.551 402.883 611.671 406.384 615.37 408.923C621.332 413.025 627.503 413.393 634.113 411.957C642.279 410.195 649.139 405.876 655.501 400.666C661.314 395.908 667.102 391.112 672.901 386.331" stroke="#F9FAFC" stroke-width="3" stroke-miterlimit="10" stroke-linecap="round" stroke-linejoin="round"/>
<path d="M88.6235 384.759C92.7278 384.907 97.0231 385.046 99.8907 381.611C102.057 379.024 103.916 375.987 105.142 372.843C108.505 364.228 112.296 355.863 118.018 348.548C121.294 344.368 125.019 340.541 128.398 336.439C132.115 331.925 135.085 326.983 133.585 320.818C132.896 317.999 131.898 315.023 130.217 312.721C122.132 301.638 118.147 288.751 113.269 276.204C111.488 271.632 108.854 267.361 106.318 263.123C102.939 257.472 97.1286 255.781 91.1706 255.459C84.5353 255.095 77.8274 256.048 71.1861 255.716C61.4596 255.231 52.1793 252.971 45.5171 245.035C43.5925 242.746 42.3649 239.877 40.7082 237.345C39.5069 235.513 38.3089 233.628 36.796 232.063C33.7817 228.942 29.4398 229.154 26.9849 232.823C25.2381 235.437 23.9389 238.482 23.0408 241.511C21.376 247.151 20.408 253.006 18.6447 258.614C17.723 261.56 15.5981 264.103 14.2778 266.948C11.6752 272.541 12.9589 278.26 14.7786 283.63C17.4598 291.526 20.7811 299.281 25.867 305.953C34.3287 317.048 38.4998 329.605 40.0196 343.274C40.4492 347.154 41.2214 350.949 43.3889 354.406C45.7829 358.22 49.025 360.999 52.919 362.987C61.1383 367.169 68.9388 371.84 75.9602 377.976C79.4061 380.99 84.1455 382.511 88.2997 384.711" stroke="#F9FAFC" stroke-width="3" stroke-miterlimit="10" stroke-linecap="round" stroke-linejoin="round"/>
<path d="M255.536 671.175C255.39 669.078 255.011 666.97 255.141 664.892C255.348 661.583 256.019 658.308 256.278 654.995C256.76 648.878 257.71 642.706 257.349 636.626C256.712 625.924 250.326 618.497 241.738 612.777C238.984 610.939 236.096 609.291 233.262 607.568C228.009 604.376 225.26 599.471 223.809 593.7C222.256 587.506 220.398 581.476 214.733 577.665C212.89 576.43 210.888 575.275 208.79 574.599C190.702 568.783 173.394 570.392 157.11 580.473C150.872 584.335 144.957 588.767 138.488 592.188C130.939 596.181 122.505 597.286 114.013 597.837C109.638 598.121 105.232 598.674 100.96 599.623C92.5847 601.489 89.698 606.996 89.1696 614.292C88.6268 621.769 89.2161 629.335 89.3494 636.86C89.3679 637.869 89.6027 638.873 89.7394 639.878" stroke="#F9FAFC" stroke-width="3" stroke-miterlimit="10" stroke-linecap="round" stroke-linejoin="round"/>
<path d="M35.5265 285.633C34.9372 293.114 37.9103 299.393 41.8625 305.466C45.3183 310.779 47.6557 316.553 48.4476 322.976C49.1057 328.31 50.373 333.562 51.2446 338.871C52.3276 345.446 56.7562 349.513 62.1589 352.224C68.9152 355.614 75.9511 358.456 83.5551 359.741C88.3434 360.553 92.7389 359.607 96.093 356.709C104.724 349.231 110.635 339.739 114.142 328.866C115.578 324.405 114.62 319.902 113.07 315.628C109.407 305.53 105.712 295.432 101.748 285.447C100.505 282.314 98.6155 279.353 96.5807 276.645C92.1535 270.737 85.6628 269.33 78.7484 269.337C71.3234 269.352 63.9067 269.565 56.4827 269.678C46.6952 269.828 39.922 274.38 36.2517 283.485C36.0079 284.085 35.7995 284.705 35.5796 285.317" stroke="#F9FAFC" stroke-width="3" stroke-miterlimit="10" stroke-linecap="round" stroke-linejoin="round"/>
<path d="M184.081 -46.6695C181.821 -44.4848 179.709 -42.1092 177.259 -40.1628C174.304 -37.8221 171.128 -35.7319 167.915 -33.7532C164.051 -31.3687 162.028 -27.9121 161.108 -23.5882C159.707 -16.9982 158.055 -10.4558 156.818 -3.83488C156.289 -0.997178 156.211 2.0105 156.47 4.89248C156.946 10.2568 161.248 13.5101 166.67 12.6598C170.349 12.0814 174.024 11.2539 177.58 10.156C184.374 8.05664 190.85 9.64445 197.211 11.7066C200.858 12.8911 204.239 14.9 207.734 16.5453C217.201 21.0018 220.518 28.8804 220.554 38.8617C220.582 46.4262 220.453 54.0982 221.609 61.5298C222.995 70.4081 229.182 76.0539 237.388 79.1628C241.068 80.5558 244.955 79.3637 248.384 77.6934C253.444 75.2342 258.561 72.7858 263.241 69.7067C271.7 64.1422 279.918 58.199 288.107 52.231C291.173 49.996 294.063 47.4472 296.705 44.7212C304.001 37.194 303.038 30.0862 298.66 22.0141C293.992 13.4041 287.072 6.62775 279.342 0.579798C274.854 -2.93058 270.522 -6.849 266.932 -11.2473C262.073 -17.217 259.858 -24.3653 260.682 -32.2259" stroke="#F9FAFC" stroke-width="3" stroke-miterlimit="10" stroke-linecap="round" stroke-linejoin="round"/>
<path d="M647.792 519.34C640.028 513.194 632.428 506.837 624.427 501.013C621.087 498.581 617.077 496.551 613.084 495.673C607.323 494.416 601.363 495.419 601.038 502.676C600.797 508.101 601.056 513.542 600.809 518.965C600.648 522.486 600.353 526.086 599.441 529.465C598.066 534.572 593.444 536.754 589.229 538.923C579.548 543.904 569.154 547.543 560.312 554.1C554.582 558.345 550.856 564.183 548.393 570.768C547.235 573.859 546.257 577.141 545.947 580.405C545.197 588.325 547.785 590.935 553.64 592.739C561.555 595.179 570.11 595.54 577.435 599.789C581.449 602.113 585.594 604.462 588.97 607.573C595.314 613.425 601.905 616.79 610.927 614.674C617.157 613.212 623.692 613.036 630.087 612.284" stroke="#F9FAFC" stroke-width="3" stroke-miterlimit="10" stroke-linecap="round" stroke-linejoin="round"/>
<path d="M626.321 633.113C620.384 631.125 614.292 629.505 608.561 627.046C602.185 624.308 596.488 625.231 590.651 628.314C584.88 631.363 578.988 634.769 572.249 634.195C566.64 633.718 561.079 632.263 555.614 630.781C551.856 629.766 548.319 627.929 544.66 626.527C540.636 624.985 536.526 626.115 534.314 629.81C532.143 633.428 529.993 637.174 528.632 641.134C526.332 647.822 523.972 654.623 522.882 661.571C521.382 671.145 522.682 680.478 529.806 688.01C534.175 692.634 539.753 695.417 545.777 696.776C551.181 697.991 556.839 698.655 562.375 698.583C567.499 698.519 571.415 700.113 574.42 703.977C578.874 709.707 585.037 713.233 590.894 717.165C596.666 721.035 602.501 724.806 608.309 728.624" stroke="#F9FAFC" stroke-width="3" stroke-miterlimit="10" stroke-linecap="round" stroke-linejoin="round"/>
<path d="M721.124 54.6842C716.494 62.2378 709.849 67.9751 703.408 73.8096C694.347 82.0089 687.59 91.596 683.198 103C681.904 106.366 680.186 109.658 677.052 112.011C672.071 115.751 666.384 115.514 660.701 115.394C653.308 115.239 645.897 114.767 638.968 118.173C637.874 118.711 636.667 119.123 635.735 119.874C632.593 122.414 632.474 125.636 635.371 128.585C639.2 132.474 643.876 135.158 648.681 137.612C650.824 138.708 653.191 139.383 655.287 140.556C659.518 142.934 663.882 142.158 668.201 141.27C671.142 140.663 673.987 139.6 676.864 138.707C683.25 136.727 689.28 137.603 695.074 140.832C702.299 144.852 709.557 148.8 716.803 152.779" stroke="#F9FAFC" stroke-width="3" stroke-miterlimit="10" stroke-linecap="round" stroke-linejoin="round"/>
<path d="M372.253 338.085C372.229 332.127 370.101 326.934 366.832 322.015C362.737 315.837 358.552 309.714 352.238 305.644C343.416 299.951 333.911 295.664 323.33 294.659C316.307 293.993 311.461 297.883 308.619 303.913C306.514 308.392 304.963 313.185 303.655 317.971C301.991 324.054 300.743 330.255 299.466 336.431C297.876 344.128 301.788 347.856 308.114 349.272C317.503 351.37 326.766 350.54 336.14 349.606C343.491 348.879 350.9 348.776 358.252 348.107C360.929 347.861 363.607 346.989 366.145 346.032C369.581 344.735 370.955 341.574 372.18 338.404" stroke="#F9FAFC" stroke-width="3" stroke-miterlimit="10" stroke-linecap="round" stroke-linejoin="round"/>
<path d="M714.353 166.667C709.901 166.042 705.469 165.108 700.991 164.863C689.988 164.262 685.894 169.456 683.146 178.409C680.329 187.598 676.083 195.707 669.166 202.607C663.572 208.177 658.395 214.231 655.257 221.759C653.017 227.126 651.543 232.515 651.464 238.368C651.421 241.774 650.822 245.193 650.237 248.568C648.091 260.84 650.078 272.345 656.502 283.029C658.996 287.175 661.546 291.306 664.324 295.264C669.082 302.05 675.733 306.066 683.804 307.779C685.06 308.042 686.325 308.261 687.585 308.499" stroke="#F9FAFC" stroke-width="3" stroke-miterlimit="10" stroke-linecap="round" stroke-linejoin="round"/>
<path d="M378.724 400.667C378.31 393.174 373.167 389.155 367.551 385.503C356.327 378.215 344.137 378.232 331.578 380.646C323.07 382.285 315.378 385.514 310.146 392.654C306.198 398.045 303.799 404.081 304.519 411.162C305.065 416.5 308.129 419.494 312.411 421.745C317.751 424.548 323.359 425.998 329.483 426.475C335.409 426.934 341.182 426.848 346.905 425.617C354.634 423.956 361.519 420.333 367.46 415.142C370.532 412.458 373.325 409.421 375.957 406.301C377.209 404.82 377.785 402.769 378.665 400.976" stroke="#F9FAFC" stroke-width="3" stroke-miterlimit="10" stroke-linecap="round" stroke-linejoin="round"/>
<path d="M627.206 36.9593C624.422 41.9565 619.873 44.5837 614.67 46.35C611.858 47.3077 609.08 48.3632 606.269 49.321C601.95 50.7971 600.461 54.0151 600.3 58.3258C599.986 66.7332 603.49 73.9745 607.173 81.1257C608.97 84.6112 611.375 87.7743 613.381 91.1557C617.944 98.871 624.779 102.394 633.575 101.756C641.736 101.161 649.9 100.208 657.617 97.1933C664.84 94.3722 669.155 88.528 672.864 82.1256C676.487 75.8637 680.423 69.7394 683.478 63.2069C685.643 58.5826 686.565 53.3842 688.04 48.4402" stroke="#F9FAFC" stroke-width="3" stroke-miterlimit="10" stroke-linecap="round" stroke-linejoin="round"/>
<path d="M423.234 -1.20936C424.742 7.78342 427.02 16.4319 433.619 23.2848C437.888 27.7134 443.421 29.9783 448.886 32.3545C453.809 34.4977 458.837 36.4258 463.654 38.7777C471.914 42.817 476.485 52.3879 474.619 62.3433C472.776 72.1789 468.896 81.1145 463.183 89.1818C460.823 92.5225 457.683 95.4942 454.381 97.9456C447.593 102.99 440.43 107.533 433.467 112.362C428.171 116.036 422.14 115.825 416.197 115.532C412.813 115.37 409.347 114.709 406.136 113.633C400.672 111.806 398.048 107.511 397.223 101.924C395.865 92.7249 394.379 83.547 392.98 74.3529C391.998 67.8681 391.075 61.3751 390.121 54.8824C389.589 51.2636 388.159 48.2912 384.437 46.949C381.992 46.0697 379.589 45.0353 377.099 44.2911C372.373 42.8705 367.438 42.0044 362.88 40.1781C354.888 36.9725 349.463 31.1637 347.234 22.6355C345.231 14.9527 343.303 7.25152 341.099 -0.371199C339.386 -6.34109 337.294 -12.2062 335.362 -18.1196" stroke="#F9FAFC" stroke-width="3" stroke-miterlimit="10" stroke-linecap="round" stroke-linejoin="round"/>
<path d="M711.319 182.741C704.491 183.606 699.99 187.947 696.659 193.389C691.343 202.079 685.033 209.956 677.984 217.21C672.46 222.891 669.566 229.786 667.473 237.14C666.189 241.663 665.275 246.295 664.189 250.875C660.719 265.528 671.468 283.524 684.713 287.401C686.89 288.04 689.009 288.851 691.155 289.583" stroke="#F9FAFC" stroke-width="3" stroke-miterlimit="10" stroke-linecap="round" stroke-linejoin="round"/>
<path d="M458.241 65.7811C457.937 62.2706 458.625 58.6272 456.633 55.3464C453.405 50.0371 445.279 46.4342 438.178 47.6725C429.045 49.2651 421.397 53.8861 415.215 60.6312C407.767 68.7563 411.814 79.3444 420.642 83.6543C427.892 87.1964 435.816 87.8563 443.601 84.5536C450.448 81.6485 454.716 76.4679 456.91 69.4466C457.262 68.3054 457.756 67.2106 458.182 66.0963" stroke="#F9FAFC" stroke-width="3" stroke-miterlimit="10" stroke-linecap="round" stroke-linejoin="round"/>
<path d="M510.923 537.244C515.799 537.695 520.518 537.736 525.279 535.789C535.627 531.56 537.592 519.038 528.39 512.144C520.749 506.42 512.14 503.366 502.63 503.431C493.884 503.491 489.014 510.83 491.035 519.489C493.264 529.022 499.732 533.801 508.458 536.472C509.192 536.696 509.857 537.154 510.549 537.5" stroke="#F9FAFC" stroke-width="3" stroke-miterlimit="10" stroke-linecap="round" stroke-linejoin="round"/>
<path d="M644.526 536.672C638.529 535.866 634.733 539.099 631.782 543.738C629.152 547.883 626.288 551.717 622.248 554.721C618.02 557.859 613.29 558.775 608.289 559.228C605.161 559.512 601.925 559.574 598.95 560.462C591.17 562.773 586.326 568.55 592.413 578.289C595.917 583.899 600.79 588.624 606.604 592.234C612.903 596.145 619.796 596.976 626.938 597.006C628.993 597.015 631.048 597.122 633.106 597.184" stroke="#F9FAFC" stroke-width="3" stroke-miterlimit="10" stroke-linecap="round" stroke-linejoin="round"/>
<path d="M318.351 402.329C318.684 406.204 319.202 410.068 322.632 412.576C326.693 415.549 331.296 417.515 336.327 417.733C344.044 418.073 351.339 416.395 357.424 411.303C360.152 409.023 362.643 406.412 363.338 402.659C364.047 398.831 362.837 395.769 359.919 393.175C355.32 389.076 349.919 387.704 343.925 387.885C338.2 388.058 332.745 389.013 327.512 391.596C322.913 393.862 320.377 397.613 318.41 402.02" stroke="#F9FAFC" stroke-width="3" stroke-miterlimit="10" stroke-linecap="round" stroke-linejoin="round"/>
<path d="M189.351 658.683C189.194 657.786 188.851 656.872 188.914 655.983C189.42 648.774 186.554 644.173 180.072 640.541C174.281 637.294 168.171 635.148 161.789 633.546C156.69 632.27 151.726 630.243 146.564 629.51C137.275 628.195 127.9 627.855 118.522 629.29C108.964 630.75 100.292 634.088 92.9223 640.485" stroke="#F9FAFC" stroke-width="3" stroke-miterlimit="10" stroke-linecap="round" stroke-linejoin="round"/>
<path d="M235.59 -35.968C228.647 -33.6293 221.433 -33.7635 214.234 -33.3922C206.482 -32.9947 199.945 -30.1094 196.472 -22.4615C194.373 -17.8441 195.649 -12.7401 199.497 -9.12843C207.033 -2.05303 215.757 -3.37693 221.486 -9.93972C226.674 -15.8802 231.636 -22.0396 236.359 -28.3549C238.776 -31.5805 238.302 -33.8764 235.905 -35.9085" stroke="#F9FAFC" stroke-width="3" stroke-miterlimit="10" stroke-linecap="round" stroke-linejoin="round"/>
<path d="M347.971 -15.74C349.038 -10.4274 350.057 -5.10413 351.178 0.199119C352.473 6.33835 353.412 12.606 355.32 18.5474C357.446 25.1632 362.169 29.919 369.083 31.5373C373.247 32.5124 377.792 32.6064 381.853 31.0489C390.367 27.786 397.996 23.0243 403.121 15.2049C406.898 9.44213 408.868 3.01832 408.74 -3.95136" stroke="#F9FAFC" stroke-width="3" stroke-miterlimit="10" stroke-linecap="round" stroke-linejoin="round"/>
<path d="M83.494 91.994C83.5655 96.8381 86.6981 99.5052 90.5287 101.449C100.053 106.288 107.948 103.372 113.906 96.7413C116.269 94.1126 118.582 91.4028 120.656 88.5432C122.976 85.3451 123.694 81.9229 121.369 78.2267C119.427 75.1315 113.702 73.1242 110.302 74.5714C105.582 76.579 100.918 78.7408 96.3501 81.0839C93.3949 82.5955 90.5013 84.3341 87.8864 86.3604C86.0674 87.7666 84.7677 89.8452 83.2371 91.6257" stroke="#F9FAFC" stroke-width="3" stroke-miterlimit="10" stroke-linecap="round" stroke-linejoin="round"/>
<path d="M623.469 648.243C619.372 647.47 615.292 646.608 611.174 645.942C602.217 644.493 594.746 648.109 587.983 653.367C585.741 655.112 584.158 657.757 582.418 660.092C580.478 662.696 580.55 665.667 581.845 668.424C583.658 672.272 585.756 675.991 587.845 679.694C590.074 683.653 592.464 687.525 594.745 691.454C598.865 698.538 604.911 703.413 612.25 706.828" stroke="#F9FAFC" stroke-width="3" stroke-miterlimit="10" stroke-linecap="round" stroke-linejoin="round"/>
<path d="M242.863 644.956C243.486 640.132 243.042 635.564 239.051 632.186C235.19 628.918 230.779 628.843 226.3 630.746C222.538 632.347 219.924 636.789 220.119 640.983C220.398 647.114 222.088 652.857 225.054 658.208C225.627 659.25 226.564 660.132 227.454 660.953C229.671 663.003 231.666 663.19 233.894 661.176C237.671 657.763 240.423 653.628 241.855 648.67C242.189 647.525 242.695 646.432 243.127 645.319" stroke="#F9FAFC" stroke-width="3" stroke-miterlimit="10" stroke-linecap="round" stroke-linejoin="round"/>
<path d="M60.4785 634.198C60.249 629.637 60.3475 625.034 59.7211 620.535C58.8096 613.986 55.7604 608.351 50.8614 603.836C47.9144 601.119 44.6083 599.856 40.3853 600.475C26.5069 602.517 15.667 609.212 7.85223 620.838C7.15393 621.875 6.56588 622.985 5.93216 624.06" stroke="#F9FAFC" stroke-width="3" stroke-miterlimit="10" stroke-linecap="round" stroke-linejoin="round"/>
<path d="M361.521 -13.1826C362.016 -6.01942 361.497 1.40265 363.232 8.25799C366.512 21.2473 377.048 21.5581 385.926 14.5384C392.578 9.27907 396.066 1.9342 397.45 -6.40182" stroke="#F9FAFC" stroke-width="3" stroke-miterlimit="10" stroke-linecap="round" stroke-linejoin="round"/>
<path d="M705.968 211.105C700.307 216.891 694.239 222.339 689.092 228.548C682.966 235.931 679.397 244.363 683.49 254.184C685.814 259.753 690.668 262.327 695.916 264.369" stroke="#F9FAFC" stroke-width="3" stroke-miterlimit="10" stroke-linecap="round" stroke-linejoin="round"/>
<path d="M661.654 445.904C655.278 443.441 648.906 443.825 642.673 446.272C635.574 449.057 635.224 455.03 639.576 459.572C644.728 464.957 650.652 469.613 656.241 474.585" stroke="#F9FAFC" stroke-width="3" stroke-miterlimit="10" stroke-linecap="round" stroke-linejoin="round"/>
<path d="M188.925 219.93C187.96 214.493 183.662 212.226 177.895 214.663C174.306 216.179 171.05 218.417 168.886 221.997C167.501 224.288 167.656 226.302 168.694 228.515C169.786 230.856 172.077 230.994 174.082 231.098C179.324 231.37 185.695 227.017 187.891 222.02C188.164 221.405 188.539 220.836 188.872 220.247" stroke="#F9FAFC" stroke-width="3" stroke-miterlimit="10" stroke-linecap="round" stroke-linejoin="round"/>
<path d="M561.648 24.5867C563.244 28.1322 564.257 31.9005 567.184 34.8227C572.782 40.4095 579.573 41.6781 586.977 40.7384C590.977 40.2269 592.338 36.8216 593.551 33.5386C593.883 32.6481 593.932 31.6587 594.111 30.7132" stroke="#F9FAFC" stroke-width="3" stroke-miterlimit="10" stroke-linecap="round" stroke-linejoin="round"/>
<path d="M49.1333 632.057C48.1395 623.729 42.8118 618.892 35.299 617.089C30.2901 615.889 25.0066 617.32 20.8801 621.026C19.1595 622.568 17.6285 624.316 16.0109 625.969" stroke="#F9FAFC" stroke-width="3" stroke-miterlimit="10" stroke-linecap="round" stroke-linejoin="round"/>
<path d="M397.697 549.167C393.871 548.478 391.02 550.303 388.875 553.09C387.698 554.624 387.618 556.704 388.734 558.573C389.84 560.427 391.4 560.982 393.55 560.833C396.465 560.639 398.726 559.414 400.409 557.173C403.227 553.416 402.565 551.215 398.071 548.911" stroke="#F9FAFC" stroke-width="3" stroke-miterlimit="10" stroke-linecap="round" stroke-linejoin="round"/>
<path d="M150.899 651.426C146.508 645.154 140.263 643.414 133.018 644.135C130.031 644.433 126.943 644.366 124.425 646.43" stroke="#F9FAFC" stroke-width="3" stroke-miterlimit="10" stroke-linecap="round" stroke-linejoin="round"/>
<path d="M724.407 113.401C722.673 113.942 720.839 114.282 719.221 115.073C715.087 117.093 712.531 123.648 714.5 128.432C715.741 131.441 718.135 133.975 720.005 136.724" stroke="#F9FAFC" stroke-width="3" stroke-miterlimit="10" stroke-linecap="round" stroke-linejoin="round"/>
<path d="M663.768 43.8593C660.499 45.0246 657.503 44.7791 654.943 42.1938" stroke="#F9FAFC" stroke-width="3" stroke-miterlimit="10" stroke-linecap="round" stroke-linejoin="round"/>
<path d="M491.353 374.595C481.882 374.864 473.109 377.562 464.535 381.551C451.482 387.626 441.092 396.332 434.162 409.15C430.976 415.031 427.53 420.804 422.691 425.655C417.555 430.803 411.496 432.466 404.467 432.008C397.619 431.564 390.684 430.053 383.924 432.08C378.651 433.663 373.357 435.491 368.473 437.99C357.678 443.512 346.215 446.662 334.388 448.765C327.302 450.025 320.13 451.054 313.524 454.025C305.965 457.416 300.198 463.136 294.912 469.391C287.176 478.558 279.838 488.108 270.89 496.158C265.197 501.279 263.375 507.372 264.08 514.842C265.326 528.061 270.472 539.013 281.717 546.462C285.187 548.762 289.088 550.817 293.084 551.813C301.321 553.863 306.554 551.143 311.248 543.98C314.419 539.147 317.632 534.264 321.45 529.945C328.007 522.526 336.874 519.121 346.328 516.936C356.253 514.638 366.587 513.808 375.865 509.129C380.2 506.944 384.46 504.575 388.614 502.069C393.564 499.087 398.593 496.374 404.484 495.978C409.152 495.664 413.6 496.412 418.212 497.674C424.506 499.397 431.023 501.358 437.808 499.336C444.124 497.453 448.079 493.167 450.455 487.322C452.123 483.224 453.415 478.97 454.821 474.771C456.794 468.883 461.39 466.081 466.918 464.324C474.508 461.912 482.235 461.542 489.982 463.174C496.072 464.46 501.343 467.557 506.486 471.054C512.334 475.037 518.534 478.367 525.704 479.734C533.562 481.23 540.207 479.403 546.049 474.043C553.155 467.518 559.376 460.186 565.035 452.441C569.673 446.097 568.836 441.297 562.219 436.648C558.455 434.005 554.322 431.867 550.617 429.151C543.942 424.261 539.816 417.242 535.511 410.372C530.816 402.873 527.208 394.705 520.819 388.257C514.799 382.179 507.988 377.832 499.557 376.156C496.933 375.635 494.308 375.159 491.679 374.663" stroke="#F9FAFC" stroke-width="3" stroke-miterlimit="10" stroke-linecap="round" stroke-linejoin="round"/>
<path d="M16.158 384.792C6.07348 385.513 -1.63621 390.945 -9.391 396.858C-21.3706 405.995 -31.0212 417.595 -42.5077 427.197C-54.3657 437.107 -68.2017 442.937 -83.7326 443.531C-100.842 444.186 -117.988 444.07 -135.112 444.39C-144.526 444.565 -153.947 444.745 -163.343 445.309C-170.797 445.756 -178.318 446.282 -185.628 447.69C-195.369 449.566 -203.691 446.964 -211.648 441.708C-217.296 437.979 -222.851 433.967 -228.919 431.046C-238.697 426.335 -249.142 426.094 -259.492 429.121C-265.261 430.807 -269.201 434.946 -271.447 440.515C-274.706 448.582 -276.17 456.929 -274.91 465.646C-273.632 474.505 -268.983 481.178 -261.872 486.424C-257.128 489.924 -251.937 492.373 -246.288 493.883C-239.029 495.821 -232.062 494.668 -225.306 491.661C-218.422 488.599 -211.516 485.594 -204.651 482.49C-194.882 478.08 -185.987 480.203 -177.56 485.984C-171.243 490.316 -166.196 495.916 -161.643 502.024C-154.13 512.091 -146.285 521.921 -139.013 532.158C-133.329 540.157 -129.025 548.933 -126.586 558.565C-125.348 563.453 -124.157 568.346 -121.224 572.731C-117.665 578.05 -112.41 580.23 -106.691 580.781C-101.17 581.307 -95.5014 580.601 -89.923 580.133C-87.3828 579.921 -84.8709 579.063 -82.3914 578.343C-73.8735 575.857 -69.5328 577.277 -64.2684 584.387C-61.928 587.551 -59.782 590.881 -57.2073 593.841C-51.4171 600.482 -44.456 605.243 -35.5366 606.821C-28.6 608.046 -21.9948 606.91 -16.0505 603.534C-5.51607 597.558 2.38809 588.951 6.8047 577.551C9.164 571.449 9.74254 565.063 8.18232 558.561C6.25551 550.507 4.12256 542.474 2.73571 534.326C1.82553 528.945 2.33578 523.336 1.73305 517.882C1.18179 512.883 0.236841 507.893 -0.988771 503.007C-3.01798 494.909 -4.72761 486.811 -2.79755 478.487C-1.41053 472.521 1.40962 467.263 6.51687 463.618C11.9325 459.757 17.559 456.198 22.9656 452.316C30.9389 446.594 37.5119 439.368 44.0585 432.143C46.7549 429.166 49.1879 426.029 50.345 421.939C51.999 416.114 50.0967 411.356 46.4637 407.223C42.0614 402.221 37.0733 397.729 32.6336 392.752C28.2525 387.845 22.8284 385.49 16.4606 384.85" stroke="#F9FAFC" stroke-width="3" stroke-miterlimit="10" stroke-linecap="round" stroke-linejoin="round"/>
<path d="M376.862 455.478C360.893 456.942 345.735 461.543 330.879 467.349C323.317 470.302 317.162 474.931 313.78 482.44C312.489 485.303 311.84 488.64 311.702 491.793C311.548 495.374 314.451 498.501 318.662 499.256C332.207 501.682 345.84 502.669 359.404 499.458C365.546 498.006 370.55 494.218 374.571 489.584C379.502 483.896 383.67 477.587 387.061 470.791C390.784 463.341 386.748 456.678 379.386 455.941C378.643 455.866 377.916 455.67 377.179 455.531" stroke="#F9FAFC" stroke-width="3" stroke-miterlimit="10" stroke-linecap="round" stroke-linejoin="round"/>
<path d="M326.049 306.191C318.184 306.429 313.718 315.013 313.481 322.11C313.302 327.383 314.641 332.049 319.174 334.353C322.318 335.958 326.486 335.799 330.217 335.954C334.99 336.157 339.378 334.661 343.393 331.998C346.803 329.737 348.286 324.37 346.559 320.48C343.328 313.179 338.004 308.564 330.146 306.964C328.889 306.707 327.625 306.488 326.364 306.25" stroke="#F9FAFC" stroke-width="3" stroke-miterlimit="10" stroke-linecap="round" stroke-linejoin="round"/>
<path d="M318.634 283.249C309.255 283.033 304.97 288.791 302.321 296.81C299.776 304.516 296.972 312.146 294.084 319.735C292.26 324.522 289.557 328.849 285.553 332.147C281.38 335.583 276.232 336.778 271.106 337.926C261.005 340.191 251.585 344.099 242.81 349.571C240.628 350.929 238.542 352.435 236.436 353.911C232.15 356.907 229.643 360.952 228.518 366.118C226.853 373.768 227.93 380.924 231.326 387.87C237.676 400.851 256.958 406.39 268.69 397.944C274.795 393.541 279.542 387.968 284.533 382.552C288.818 377.903 292.792 372.967 297.071 368.311C301.048 363.983 306.643 362.63 312.027 361.773C322.304 360.135 332.675 358.933 343.05 358.162C348.597 357.753 354.243 358.728 359.846 358.891C364.306 359.021 368.866 359.418 373.218 358.699C378.522 357.82 382.37 354.205 384.137 349.133C387.009 340.902 388.087 332.384 383.203 324.575C379.809 319.143 375.601 314.184 371.465 309.259C364.892 301.438 356.102 296.926 346.819 293.086C337.7 289.315 328.794 285.003 318.948 283.315" stroke="#F9FAFC" stroke-width="3" stroke-miterlimit="10" stroke-linecap="round" stroke-linejoin="round"/>
<path d="M357.059 473.934C352.21 474.07 347.824 475.553 344.105 478.69C341.527 480.867 342.007 484.652 344.928 486.333C349.689 489.085 358.117 487.079 360.99 482.51C363.397 478.675 361.893 475.127 357.374 473.994" stroke="#F9FAFC" stroke-width="3" stroke-miterlimit="10" stroke-linecap="round" stroke-linejoin="round"/>
<path d="M639.877 334.737C634.856 334.886 633.72 339.176 632.706 342.542C631.016 348.138 630.173 354.024 629.376 359.84C629.094 361.888 629.709 364.198 630.42 366.205C631.449 369.122 634.03 370.079 637.303 369.169C647.972 366.215 654.912 354.103 647.683 341.766C645.9 338.727 643.699 336.039 640.2 334.792" stroke="#F9FAFC" stroke-width="3" stroke-miterlimit="10" stroke-linecap="round" stroke-linejoin="round"/>
<path d="M187.835 194.592C183.5 195.08 178.991 194.966 174.861 196.165C161.962 199.899 152.966 208.516 147.809 220.69C145.276 226.674 145.572 233.408 147.059 239.747C150.189 253.112 155.49 265.602 163.526 276.806C167.181 281.895 172.331 285.322 178.293 286.656C185.891 288.357 192.896 285.828 198.231 279.452C202.647 274.182 203.63 268.107 201.208 261.775C197.852 252.995 199.916 245.035 203.918 237.108C206.347 232.299 208.949 227.47 210.522 222.355C212.696 215.297 211.676 205.966 202.09 200.24C197.754 197.652 193.254 195.347 188.139 194.643" stroke="#F9FAFC" stroke-width="3" stroke-miterlimit="10" stroke-linecap="round" stroke-linejoin="round"/>
<path d="M282.512 201.364C275.303 200.891 269.359 203.954 264.541 208.796C256.249 217.14 257.015 225.882 264.4 233.477C270.917 240.177 279.102 243.778 288.333 244.848C293.348 245.429 298.933 241.293 300.075 236.006C302.593 224.359 299.241 214.202 291.528 205.37C289.279 202.791 286.115 201.881 282.828 201.417" stroke="#F9FAFC" stroke-width="3" stroke-miterlimit="10" stroke-linecap="round" stroke-linejoin="round"/>
<path d="M25.3211 151.191C21.3113 151.858 20.6269 153.132 21.5688 157.031C22.6409 161.45 28.2245 166.453 32.8142 164.963C34.3713 164.46 36.582 163.676 36.9869 162.499C37.4725 161.103 36.7757 158.811 35.8028 157.498C33.3093 154.142 29.7376 152.175 25.6363 151.251" stroke="#F9FAFC" stroke-width="3" stroke-miterlimit="10" stroke-linecap="round" stroke-linejoin="round"/>
<path d="M610.744 246.99C598.201 247.391 589.803 254.704 582.409 263.825C578.028 269.225 577.926 275.022 580.934 280.806C583.67 286.061 587.662 290.47 592.392 294.111C597.504 298.053 602.949 301.613 607.739 305.912C615.872 313.211 619.963 322.561 619.849 333.578C619.783 340.047 618.948 346.339 617.103 352.656C615.318 358.762 614.163 365.294 614.174 371.635C614.197 381.718 618.257 390.226 627.928 394.741C632.757 396.997 637.699 395.201 641.354 392.053C649.239 385.276 655.839 377.252 661.576 368.543C666.734 360.717 665.904 352.283 663.889 343.867C661.899 335.56 658.19 327.921 653.237 320.961C647.097 312.334 640.709 303.883 634.65 295.206C630.503 289.266 627.538 282.767 626.557 275.446C625.817 269.921 625.051 264.365 623.757 258.944C622.186 252.361 617.686 248.464 611.06 247.05" stroke="#F9FAFC" stroke-width="3" stroke-miterlimit="10" stroke-linecap="round" stroke-linejoin="round"/>
<path d="M405.564 178.89C402.106 179.327 398.639 179.678 395.201 180.218C390.499 180.956 387.768 184.324 386.288 188.327C384.975 191.892 384.618 195.826 384.044 199.628C382.835 207.657 381.376 215.529 375.03 221.447C373.889 222.511 372.913 223.808 372.052 225.121C370.522 227.45 370.71 230.919 372.296 232.335C373.799 233.676 378.369 233.5 380.196 231.848C381.794 230.4 383.46 228.906 384.649 227.139C388.701 221.095 394.413 217.702 401.223 215.553C408.983 213.101 416.643 210.323 424.283 207.509C426.69 206.619 428.97 205.293 431.165 203.938C437.697 199.903 436.714 193.836 433.185 189.429C429.762 185.154 424.792 182.741 419.419 181.537C414.933 180.54 410.392 179.801 405.872 178.948" stroke="#F9FAFC" stroke-width="3" stroke-miterlimit="10" stroke-linecap="round" stroke-linejoin="round"/>
<path d="M402.626 163.319C400.783 163.298 398.936 163.223 397.088 163.26C383.742 163.522 376.044 171.175 371.519 182.907C369.687 187.666 368.123 192.528 366.154 197.222C363.482 203.598 358.715 208.587 354.569 213.986C351.619 217.823 348.932 221.891 348.244 226.814C347.122 234.834 349.25 241.581 355.802 246.917C361.523 251.574 368.063 254.381 374.908 256.607C382.19 258.98 389.614 254.747 393.477 246.455C394.979 243.233 396.328 239.891 398.264 236.933C403.385 229.1 410.869 224.448 419.89 222.443C425.191 221.263 430.624 220.598 436.016 219.905C442.311 219.102 448.625 218.329 453.477 213.689C460.121 207.331 461.377 198.182 457.618 189.737C453.752 181.063 446.822 175.381 437.751 172.598C431.814 170.78 425.732 169.423 419.725 167.839C414.128 166.365 408.537 164.859 402.942 163.372" stroke="#F9FAFC" stroke-width="3" stroke-miterlimit="10" stroke-linecap="round" stroke-linejoin="round"/>
<path d="M388.034 441.265C379.671 441.306 372.32 445.01 364.615 447.545C355.401 450.571 346.05 453.219 336.662 455.677C326.068 458.443 315.534 461.404 307.701 469.567C300.68 476.885 295.267 485.4 291.434 494.847C287.908 503.536 285.938 512.454 287.659 521.872C287.957 523.508 288.298 525.23 289.062 526.68C291.057 530.464 295.147 531.902 298.82 529.801C302.742 527.558 306.446 524.882 310.084 522.174C319.515 515.161 330.211 511.683 341.735 510.183C348.609 509.287 355.507 508.363 362.248 506.815C368.41 505.399 374.198 502.51 378.844 498.229C387.536 490.222 396.867 483.425 407.708 478.492C415.193 475.081 416.875 470.039 414.816 461.993C412.458 452.768 405.89 447.41 397.664 443.82C394.756 442.554 391.473 442.136 388.361 441.334" stroke="#F9FAFC" stroke-width="3" stroke-miterlimit="10" stroke-linecap="round" stroke-linejoin="round"/>
<path d="M487.198 386.216C480.93 386.358 474.718 386.83 468.728 388.925C455.821 393.428 446.945 401.93 442.59 415.006C440.679 420.742 438.244 426.347 436.85 432.207C434.895 440.422 436.519 447.211 446.814 449.735C454.563 451.635 462.422 450.526 470.21 450.181C479.715 449.762 489.201 448.896 498.683 448.081C501.742 447.816 504.845 447.39 507.771 446.519C515.547 444.194 518.777 437.838 520.516 430.698C523.5 418.48 519.48 407.995 512.011 398.386C505.75 390.331 497.057 387.515 487.504 386.286" stroke="#F9FAFC" stroke-width="3" stroke-miterlimit="10" stroke-linecap="round" stroke-linejoin="round"/>
<path d="M369.541 580.738C362.229 580.951 355.962 584.207 349.964 587.866C342.452 592.454 334.367 595.589 326.076 598.326C318.076 600.968 309.976 603.663 303.059 608.455C296.091 613.282 292.137 620.291 292.487 629.196C292.614 632.464 292.311 635.763 292.66 639.001C293.405 645.911 297.159 648.16 303.201 644.855C314.295 638.782 326.375 635.618 338.296 631.875C341.96 630.726 345.479 628.785 348.732 626.697C356.427 621.758 364.836 617.809 371.307 611.093C377.972 604.171 380.079 595.293 376.1 585.866C374.873 582.958 372.802 581.412 369.845 580.789" stroke="#F9FAFC" stroke-width="3" stroke-miterlimit="10" stroke-linecap="round" stroke-linejoin="round"/>
<path d="M540.564 179.564C531.83 181.081 527.261 186.962 525.35 194.977C523.941 200.886 523.098 206.981 522.58 213.046C522.003 219.804 523.961 221.916 530.471 222.629C535.192 223.142 539.995 223.219 544.744 223.064C554.419 222.749 558.501 218.519 558.531 208.433C558.545 203.344 557.858 198.233 557.208 193.169C556.638 188.753 554.31 184.9 550.683 182.635C547.88 180.886 544.178 180.579 540.878 179.629" stroke="#F9FAFC" stroke-width="3" stroke-miterlimit="10" stroke-linecap="round" stroke-linejoin="round"/>
<path d="M275.207 350.777C266.416 350.175 258.564 352.904 251.399 357.733C246.118 361.293 241.413 365.399 240.459 372.289C239.528 379.02 244.009 386.269 250.975 387.512C257.252 388.631 262.382 386.701 266.993 383.4C273.416 378.802 278.879 373.064 282.456 365.84C283.269 364.192 283.94 362.439 284.405 360.666C285.385 356.889 284.204 353.049 279.3 351.569C278.077 351.201 276.782 351.074 275.522 350.836" stroke="#F9FAFC" stroke-width="3" stroke-miterlimit="10" stroke-linecap="round" stroke-linejoin="round"/>
<path d="M81.9652 316.264C77.5284 316.771 74.0207 318.616 71.2749 322.373C66.8619 328.428 66.787 335.431 75.3236 339.418C81.5804 342.342 90.0134 341.414 92.3814 333.57C94.6767 325.974 90.0967 318.281 82.274 316.322" stroke="#F9FAFC" stroke-width="3" stroke-miterlimit="10" stroke-linecap="round" stroke-linejoin="round"/>
<path d="M399.961 149.761C397.676 149.767 395.385 149.694 393.103 149.785C382.373 150.221 374.178 154.837 369.11 164.501C366.005 170.437 362.648 176.259 359.934 182.373C356.054 191.099 350.071 198.417 344.852 206.252C341.61 211.117 339.092 216.432 338.207 221.989C336.636 231.87 337.142 241.881 342.436 250.805C345.977 256.774 351.612 260.88 357.458 264.392C363.597 268.077 369.902 271.577 376.436 274.482C384.862 278.226 390.931 284.254 395.634 291.918C398.405 296.436 400.959 301.096 403.871 305.516C409.305 313.768 411.472 322.97 412.465 332.617C413.458 342.302 414.42 352.008 415.84 361.637C417.329 371.736 421.229 372.863 430.34 370.901C439.281 368.972 446.613 363.743 453.511 358.223C460.408 352.703 465.773 345.686 469.675 337.565C473.848 328.874 474.278 320.129 471.334 311.1C467.328 298.81 458.698 290.026 449.041 282.12C439.033 273.925 428.428 266.61 416.908 260.617C410.091 257.065 407.206 250.078 411.187 242.643C413.838 237.693 418.614 235.389 423.838 234.312C428.226 233.404 432.731 232.916 437.205 232.559C451.256 231.431 462.017 225.158 469.008 212.743C474.053 203.786 479.235 194.907 484.131 185.876C485.933 182.554 485.197 179.987 481.686 178.319C478.062 176.597 474.136 175.503 470.486 173.816C464.345 170.966 458.371 167.756 452.229 164.919C449.496 163.659 446.575 162.743 443.658 161.977C432.535 159.068 421.105 157.335 410.499 152.52C407.33 151.08 403.687 150.706 400.26 149.837" stroke="#F9FAFC" stroke-width="3" stroke-miterlimit="10" stroke-linecap="round" stroke-linejoin="round"/>
<path d="M314.087 130.943C304.191 132.085 300.913 138.523 298.907 146.037C297.615 150.878 296.937 155.888 296.05 160.832C294.372 170.209 289.767 177.624 281.768 182.962C273.688 188.35 265.516 193.636 258.787 200.793C253.281 206.654 249.879 213.506 249.413 221.545C249.188 225.433 250.315 229.151 252.438 232.6C257.708 241.167 265.59 246.721 274.026 251.623C279.261 254.667 284.474 257.76 290.56 259.065C299.745 261.033 305.067 256.111 308.498 249.969C312.698 242.452 313.139 234.062 312.524 225.629C311.994 218.335 310.909 211.048 310.907 203.756C310.905 195.465 313.411 187.863 319.773 181.929C323.655 178.307 327.479 174.61 331.018 170.662C337.756 163.154 339.863 155.757 336.372 148.349C332.123 139.315 325.212 132.351 314.391 130.994" stroke="#F9FAFC" stroke-width="3" stroke-miterlimit="10" stroke-linecap="round" stroke-linejoin="round"/>
<path d="M499.653 154.216C493.005 154.267 486.333 154.718 479.719 154.273C470.961 153.677 462.245 152.365 453.512 151.39C448.289 150.808 443.049 150.348 437.835 149.717C429.481 148.702 421.855 145.323 414.086 142.349C405.806 139.181 397.131 137.864 388.323 137.043C383.557 136.601 378.86 135.336 374.133 134.444C366.758 133.052 365.398 133.931 363.715 141.29C363.335 142.955 363.043 144.643 362.757 146.332C360.099 162.248 353.56 176.387 343.651 189.113C340.04 193.752 336.858 198.785 334.013 203.933C330.725 209.867 329.497 216.548 329.388 223.251C329.271 230.475 329.824 237.714 330.105 244.942C330.608 257.74 336.915 266.829 348.022 272.796C353.445 275.713 358.829 278.694 364.356 281.401C373.135 285.695 381.187 290.936 387.141 298.822C392.341 305.718 397.896 312.361 401.074 320.631C403.572 327.114 403.855 333.846 404.382 340.565C405.01 348.582 403.915 356.529 401.812 364.213C400.026 370.737 396.384 376.166 389.948 379.312C385.676 381.398 381.225 381.152 377.148 379.684C368.719 376.65 360.371 373.286 351.414 372.425C343.163 371.631 334.964 372.597 326.83 374.47C321.261 375.749 315.896 377.198 311.043 380.362C302.387 386 297.456 394.45 293.36 403.495C290.597 409.593 288.805 416.011 287.675 422.652C286.844 427.541 289.259 431.104 294.126 432.088C304.125 434.106 314.205 434.409 324.36 434.563C333.068 434.698 341.574 434.319 350.018 431.878C357.075 429.835 363.585 426.645 369.582 422.678C379.645 416.019 390.275 410.851 401.884 407.657C407.751 406.042 412.191 402.265 416.083 397.901C423.42 389.67 432.047 383.249 441.427 377.473C455.17 369.028 468.342 359.692 479.175 347.5C482.268 344.016 485.55 340.699 488.597 337.181C492.398 332.781 493.6 327.518 492.426 321.943C490.098 310.896 486.089 300.452 480.036 290.882C476 284.494 469.804 280.315 464.004 275.728C458.365 271.263 452.609 266.86 448.538 260.759C443.878 253.769 445.532 249.988 450.744 245.508C456.518 240.546 462.446 235.732 467.883 230.412C472.39 226.002 476.109 220.789 480.492 216.244C484.461 212.13 488.651 208.155 493.133 204.608C501.139 198.259 506.392 190.281 509.077 180.481C509.875 177.569 511.309 174.811 511.896 171.874C512.581 168.419 512.951 164.833 512.897 161.311C512.855 158.594 510.094 156.245 507.209 155.655C504.8 155.168 502.375 154.736 499.961 154.281" stroke="#F9FAFC" stroke-width="3" stroke-miterlimit="10" stroke-linecap="round" stroke-linejoin="round"/>
<path d="M308.116 114.151C297.662 115.409 291.514 122.01 288.717 131.398C286.407 139.142 285.561 147.325 284.03 155.3C282.801 161.707 279.888 167.32 275.315 171.907C268.929 178.314 262.136 184.317 255.844 190.819C248.205 198.712 242.661 207.889 241.375 219.057C240.684 225.036 241.696 230.743 244.918 236.084C251.303 246.663 260.816 253.883 270.653 260.805C275.815 264.443 281.169 267.829 286.201 271.638C291.24 275.449 294.202 280.61 294.053 287.103C293.798 298.315 291.903 309.081 284.914 318.338C281.842 322.406 277.827 325.108 272.931 326.527C264.293 329.023 255.625 331.408 247.046 334.077C239.093 336.545 231.86 340.35 225.195 345.503C219.095 350.22 216.877 356.715 216.866 363.554C216.853 373.134 218.218 382.746 222.825 391.475C228.565 402.357 237.357 409.872 248.995 413.648C262.225 417.947 272.022 414.599 280.607 403.353C284.699 397.996 288.772 392.602 292.483 386.983C300.378 375.033 311.701 369.101 325.59 367.486C332.678 366.663 339.775 365.861 346.893 365.363C349.863 365.154 352.908 365.624 355.885 366.036C362.241 366.915 368.565 368.03 374.923 368.93C382.057 369.937 387.156 366.65 390.786 360.833C394.454 354.958 395.507 348.374 395.803 341.55C396.105 334.622 395.702 327.835 392.303 321.665C383.795 306.214 371.961 294.449 355.399 287.466C346.191 283.58 337.363 278.748 328.574 273.956C323.418 271.149 319.465 267.015 319.348 260.543C319.306 258.276 319.248 255.955 319.676 253.757C321.7 243.375 321.525 232.891 321.292 222.402C321.089 213.342 321.727 204.323 326.057 196.25C328.928 190.897 332.618 185.836 336.679 181.302C343.679 173.477 348.555 164.828 349.462 154.28C350.018 147.876 347.412 142.313 343.484 137.531C337.018 129.665 329.35 123.113 320.422 118.125C316.69 116.037 312.684 114.745 308.429 114.223" stroke="#F9FAFC" stroke-width="3" stroke-miterlimit="10" stroke-linecap="round" stroke-linejoin="round"/>
<path d="M549.854 652.627C542.364 652.741 538.126 657.314 536.151 663.769C534.72 668.447 535.337 673.303 539.339 677.107C543.236 680.806 547.88 680.586 551.998 678.654C555.602 676.958 559.078 674.207 561.562 671.078C566.639 664.686 565.598 660.449 558.942 656.079C556.375 654.393 553.108 653.783 550.162 652.686" stroke="#F9FAFC" stroke-width="3" stroke-miterlimit="10" stroke-linecap="round" stroke-linejoin="round"/>
<path d="M184.652 585.011C183.017 585.028 181.383 585.007 179.745 585.07C170.765 585.438 163.713 589.565 158.052 596.317C156.823 597.782 155.695 599.331 154.574 600.876C149.326 608.104 151.297 612.915 157.899 616.152C166.227 620.243 175.06 622.557 184.372 622.813C186.321 622.867 188.326 623.207 190.214 622.884C196.232 621.852 200.254 618.564 202.066 612.457C203.715 606.899 204.351 601.314 202.404 595.927C200.338 590.203 195.301 587.529 189.692 585.981C188.153 585.554 186.543 585.367 184.968 585.07" stroke="#F9FAFC" stroke-width="3" stroke-miterlimit="10" stroke-linecap="round" stroke-linejoin="round"/>
<path d="M438.034 643.273C430.352 643.057 422.877 643.892 415.517 646.433C410.832 648.049 406.981 650.638 403.724 654.129C400.359 657.744 400.324 666.922 403.612 671.982C405.256 674.511 407.347 676.786 409.446 678.977C415.492 685.302 421.562 691.604 427.799 697.742C429.296 699.22 431.344 700.337 433.341 701.066C438.066 702.8 441.532 700.798 444.576 697.083C448.732 692.012 451.068 686.069 453.206 680.068C454.966 675.133 456.129 669.973 457.442 664.888C460.054 654.747 455.098 648.942 446.99 645.969C444.17 644.934 441.233 644.203 438.355 643.334" stroke="#F9FAFC" stroke-width="3" stroke-miterlimit="10" stroke-linecap="round" stroke-linejoin="round"/>
<path d="M629.337 151.926C623.077 152.063 619.164 155.849 616.958 161.04C613.743 168.593 614.478 175.736 621.54 181.377C624.614 183.837 628.535 184.297 632.515 183.547C638.668 182.39 643.35 179.129 646.399 173.731C648.906 169.302 647.383 163.916 642.77 158.678C639.25 154.678 634.892 152.518 629.654 151.979" stroke="#F9FAFC" stroke-width="3" stroke-miterlimit="10" stroke-linecap="round" stroke-linejoin="round"/>
<path d="M-16.1762 2.68614C-22.3869 3.08071 -27.6293 5.74694 -32.1861 9.7959C-36.8301 13.9263 -36.5889 20.8457 -32.0562 26.1597C-27.8599 31.0773 -22.3784 31.5373 -16.6293 30.9251C-14.4906 30.6955 -12.439 29.6139 -10.3557 28.9169C-3.20165 26.5331 -1.1022 19.9054 -3.15489 13.0032C-4.99604 6.81324 -9.27315 3.25781 -15.861 2.74562" stroke="#F9FAFC" stroke-width="3" stroke-miterlimit="10" stroke-linecap="round" stroke-linejoin="round"/>
<path d="M334.648 66.9343C332.343 67.0411 329.997 66.9182 327.743 67.3087C321.621 68.3729 318.959 73.0341 320.209 79.243C322.453 90.4244 329.592 97.4576 339.557 101.662C344.521 103.754 349.874 102.787 354.024 98.9548C358.145 95.1433 360.209 90.2911 359.029 84.611C357.321 76.3702 351.302 72.1141 343.975 69.3995C341.077 68.3238 337.98 67.7851 334.969 66.995" stroke="#F9FAFC" stroke-width="3" stroke-miterlimit="10" stroke-linecap="round" stroke-linejoin="round"/>
<path d="M558.396 95.4545C555.222 95.6324 553.111 97.238 551.628 100.046C547.35 108.116 547.633 116.473 550.738 124.612C552.507 129.248 556.608 132.391 561.824 132.56C567.275 132.733 570.84 129.685 573.208 124.714C575.001 120.953 575.062 117.139 574.144 113.493C572.539 107.126 569.457 101.387 563.853 97.5289C562.38 96.5133 560.441 96.167 558.711 95.5139" stroke="#F9FAFC" stroke-width="3" stroke-miterlimit="10" stroke-linecap="round" stroke-linejoin="round"/>
<path d="M263.163 6.44325C257.942 6.6069 253.741 8.98 250.571 12.9057C245.914 18.6655 241.178 24.4236 237.184 30.6417C233.709 36.0502 233.27 42.4561 234.704 48.6933C235.834 53.6064 241.674 58.4948 247.558 57.9994C253.992 57.4577 259.976 55.5974 265.365 51.9143C270.905 48.1226 276.445 44.3964 280.85 39.1828C286.38 32.6411 287.119 27.1994 282.78 19.6829C278.554 12.3639 272.045 7.76713 263.477 6.50903" stroke="#F9FAFC" stroke-width="3" stroke-miterlimit="10" stroke-linecap="round" stroke-linejoin="round"/>
<path d="M479.781 397.872C475.219 398.316 470.724 398.682 466.445 400.845C456.141 406.048 452.157 418.372 455.263 427.509C457.295 433.487 462.447 435.067 467.797 435.325C477.272 435.795 486.319 433.964 494.537 428.746C505.922 421.514 503.231 408.375 494.01 402.137C489.739 399.242 484.834 398.975 480.096 397.931" stroke="#F9FAFC" stroke-width="3" stroke-miterlimit="10" stroke-linecap="round" stroke-linejoin="round"/>
<path d="M177.253 344.04C164.359 346.299 156.168 354.624 149.726 365.276C146.454 370.677 144.308 376.48 142.496 382.516C140.221 390.109 138.202 397.836 134.132 404.77C131.04 410.049 127.183 414.746 122.091 418.106C116.662 421.69 110.826 424.662 105.275 428.067C100.122 431.226 94.8935 434.339 90.0601 437.951C81.8137 444.117 72.709 448.639 63.3734 452.759C52.6994 457.468 46.7731 466.318 42.606 476.603C40.087 482.825 39.0021 489.161 41.1038 495.942C43.0309 502.161 47.803 505.653 52.3742 509.414C58.4536 514.42 62.2476 520.293 59.4533 528.389C58.2995 531.735 56.3405 534.851 54.4486 537.889C51.3807 542.8 48.2788 547.717 47.6658 553.594C46.8365 561.447 47.6079 569.224 50.4938 576.623C52.2007 580.999 55.5759 582.243 59.2792 579.534C63.2633 576.618 66.7112 572.979 70.3672 569.622C72.0027 568.116 73.4624 566.401 75.1872 565.009C81.4317 559.973 88.1598 559.258 96.2955 563.744C100.027 565.8 103.816 567.755 107.549 569.798C116.229 574.55 125.258 574.407 134.068 570.788C142.404 567.368 150.427 563.177 158.505 559.152C166.828 554.998 174.422 549.388 183.423 546.589C187.667 545.268 192.005 544.213 196.202 542.76C205.403 539.561 210.721 532.275 215.038 524.139C218.872 516.899 219.296 508.872 219.796 500.897C220.08 496.382 220.198 491.847 220.769 487.373C221.334 482.923 222.171 478.492 223.266 474.142C224.392 469.661 225.912 465.274 227.355 460.879C230.039 452.677 232.296 444.486 230.513 435.67C229.035 428.354 225.126 422.466 219.761 417.758C209.585 408.827 204.449 397.374 201.589 384.542C199.869 376.815 196.781 369.587 192.963 362.697C190.252 357.799 187.249 353.061 184.266 348.32C182.744 345.905 180.539 344.34 177.575 344.1" stroke="#F9FAFC" stroke-width="3" stroke-miterlimit="10" stroke-linecap="round" stroke-linejoin="round"/>
<path d="M424.229 287.511C417.988 287.547 417.429 291.201 418.48 295.558C419.481 299.696 420.95 303.747 421.603 307.93C422.619 314.441 423.066 321.034 423.86 327.581C424.628 333.927 424.895 340.362 427.789 346.3C430.141 351.131 433.078 352.586 438.318 351.212C447.616 348.782 452.798 342.109 455.252 333.499C459.282 319.343 453.58 308.083 443.324 298.641C437.875 293.617 431.857 289.466 424.538 287.569" stroke="#F9FAFC" stroke-width="3" stroke-miterlimit="10" stroke-linecap="round" stroke-linejoin="round"/>
<rect x="-348.001" y="-171" width="1068" height="817" fill="url(#paint0_linear)"/>
<defs>
<linearGradient id="paint0_linear" x1="-237.518" y1="-171" x2="290.69" y2="636.787" gradientUnits="userSpaceOnUse">
<stop stop-color="white" stop-opacity="0"/>
<stop offset="1" stop-color="white"/>
</linearGradient>
</defs>
</svg>
