<svg width="1440" height="815" fill="none" xmlns="http://www.w3.org/2000/svg"><mask id="a" maskUnits="userSpaceOnUse" x="0" y="0" width="1440" height="815"><path fill="#fff" d="M0 0h1440v815H0z"/></mask><g mask="url(#a)"><path d="M667.777 343.442c-8.87 3.764-17.615 7.871-26.646 11.206-9.684 3.577-19.764 5.833-30.159 6.123-7.343.201-13.083-3.487-18.381-8.032-2.658-2.277-5.13-4.78-7.847-6.984-2.916-2.365-6.174-3.573-10.145-3.35-4.42.243-8.983-.07-12.828-2.695-2.742-1.869-5.007-4.222-5.41-7.83-.359-3.182.38-4.883 3.17-6.243 1.459-.71 2.995-1.38 4.57-1.736 6.513-1.473 10.51-5.601 12.976-11.612 2.614-6.38 5.179-12.809 8.213-18.993 2.538-5.181 5.732-10.035 8.634-15.036 2.186-3.765 2.87-7.945 2.905-12.175.06-7.822-4.368-13.312-9.886-18.211-8.193-7.265-17.106-13.719-24.248-22.156-6.046-7.153-12.27-14.157-18.535-21.123-2.773-3.083-5.878-5.862-8.738-8.869-5.799-6.108-6.025-11.242-3.706-16.334 2.779-6.114 8.118-8.358 15.769-7.873 6.038.382 12.128 1.525 18.112-.747 7.03-2.662 12.469-6.786 13.12-14.836.232-2.854-.16-6.068-1.294-8.671-3.866-8.916-5.427-18.114-5.159-27.797.224-8.105-3.733-13.741-10.974-17.503-6.194-3.219-12.622-5.411-19.538-5.496-10.838-.132-17.512 6.213-21.789 15.42-2.428 5.221-4.364 10.672-6.34 16.089-2.729 7.475-7.702 13.208-13.882 17.904-6.5 4.935-12.556 10.392-17.666 16.68-3.562 4.38-6.706 9.316-7.868 15.09-1.094 5.453.745 9.749 4.943 13.381 5.796 5.017 12.73 7.984 19.398 11.462 4.677 2.443 9.415 4.799 13.894 7.563 5.21 3.21 6.896 8.424 6.43 14.217-.845 10.357-.06 20.343 4.456 29.93 2.35 4.98 4.25 10.202 5.888 15.466 1.68 5.382 2.799 10.933 4.141 16.415.158.65.282 1.34.267 2.009-.172 7.449-4.146 10.518-11.53 9.281-6.53-1.096-12.613-3.556-18.897-5.44-7.204-2.156-14.606-3.266-21.738.969-8.345 4.96-16.773 9.773-25.251 14.499-8.551 4.77-16.476 10.377-23.15 17.551-2.858 3.071-5.146 6.653-7.816 9.903-3.96 4.828-7.582 9.98-13.481 12.836-4.476 2.171-9.279 3.197-14.076 3.401-9.423.395-17.82 3.589-25.957 7.935-7.934 4.234-15.882 8.576-24.807 10.274-7.997 1.526-16.068 2.992-24.175 3.545-13.325.906-24.257 6.082-33.047 16.062-5.119 5.817-10.422 11.5-17.015 15.687a114.088 114.088 0 0 1-12.375 6.804c-7.635 3.618-11.673 9.553-13.207 17.783-1.449 7.782-.74 15.442-.044 23.165.359 3.978.353 8.024 1.092 11.924 1.091 5.774 4.624 10.09 9.514 13.232 8.034 5.166 15.939 10.561 24.257 15.225 4.481 2.51 9.567 4.306 14.606 5.381 9.79 2.083 19.307-2.688 23.567-12.048 2.965-6.51 5.403-13.303 9.976-19.065 4.658-5.865 10.334-10.172 17.43-12.28 9.434-2.809 19.074-4.945 28.499-7.808 7.236-2.198 14.186-5.332 21.411-7.572 7.14-2.21 14.284-.875 21.251 1.334 7.279 2.314 14.626 4.784 22.312 4.427 10.886-.505 17.38-7.315 21.802-16.664 2.431-5.136 4.839-10.321 7.813-15.146 3.574-5.794 9.526-7.034 15.823-6.466 8.165.732 15.273 4.717 22.702 7.758 7.361 3.021 14.938 5.593 22.886 6.643 11.269 1.48 20.442-1.952 27.371-11.409 4.511-6.159 9.624-11.944 16.066-16.231 6.788-4.523 14.166-7.406 22.542-7.235 5.248.109 9.568 2.399 13.699 5.242 5.795 3.985 11.598 7.966 17.295 12.09 6.743 4.876 13.375 9.894 20.049 14.861 1.346.998 2.667 2.025 3.996 3.039M-16.77 549.783c9.255-8.332 17.95-17.221 25.89-26.807 3.81-4.594 7.778-9.081 10.422-14.62 2.754-5.773 3.63-11.626 2.583-17.804-1.02-6.008-2.512-11.937-3.378-17.969-1.045-7.293-1.911-14.637-2.365-21.988-.486-7.905-1.28-15.771-3.932-23.198-4.23-11.863-1.118-21.329 7.91-29.593 8.64-7.913 16.924-16.213 25.534-24.165 3.612-3.333 7.499-6.424 11.53-9.241 6.907-4.813 12.264-10.924 16.43-18.16 3.038-5.27 7.399-8.004 13.627-8.284 5.227-.235 10.556-.313 15.521-2.515 6.47-2.872 11.202-7.332 13.771-14.061 2.505-6.564 2.243-13.513 3.305-20.278 1.073-6.9 3.959-13.301 8.888-18.559 5.091-5.43 10.429-10.676 15.102-16.446 6.491-8.006 5.78-14.335.929-21.941-2.191-3.436-4.827-6.591-7.234-9.885-6.86-9.382-10.202-20.242-13.444-31.22-2.334-7.902-4.484-15.913-8.561-23.23-2.629-4.713-8.138-8.207-13.583-7.72-7.781.692-15.542 1.59-23.312 2.428-12.262 1.329-19.587-4.93-24.111-14.022-2.476-4.972-4.841-9.942-8.731-14.097-5.192-5.555-15.69-6.316-21.911-2.229-5.894 3.869-10.105 8.988-13.413 14.898-4.166 7.439-9.587 13.577-16.577 18.414-2.178 1.508-4.22 3.238-6.178 5.029-6.839 6.249-6.766 17.275-.093 24.743 7.943 8.895 15.695 17.904 22.174 27.985 3.265 5.081 7.424 9.574 10.866 14.545 5.909 8.537 8.772 17.995 7.36 28.447-.53 3.915-.982 7.936-2.279 11.627-1.789 5.087-5.872 8.044-10.89 10.106-8.167 3.361-16.437 6.749-23.257 12.551-8.127 6.913-16.143 13.971-23.913 21.278-7.063 6.638-13.63 13.8-20.605 20.526-8.427 8.13-18.971 11.63-30.353 12.132-9.855.438-19.75-.118-29.627-.258-7.591-.108-15.188-.151-22.777-.408-6.571-.222-13.145-.562-19.701-1.107-10.604-.885-21.17-1.972-31.847-.808-8.844.962-16.918-1.913-24.657-5.907-7.728-3.984-15.356-8.185-23.258-11.798-4.88-2.233-10.304-3.27-15.272-5.344-6.215-2.595-12.456-5.288-18.25-8.692-10.62-6.234-20.997-12.854-32.754-16.861-5.225-1.783-10.452-3.559-15.587-5.579-4.734-1.86-7.659-5.63-9.476-10.249-1.564-3.957.111-9.131 3.489-11.744 4.294-3.315 9.3-5.073 14.346-6.732 6.437-2.114 13.085-3.647 18.983-7.195 3.637-2.186 7.404-4.158 10.976-6.447 4.946-3.173 10.427-4.541 16.055-3.648 4.202.669 8.143 2.855 12.284 4.087 7.201 2.142 14.383 4.418 21.716 5.998 8.31 1.797 16.454 3.96 24.583 6.474 6.404 1.972 13.383 4.321 20.114.408 2.215-1.292 4.707-2.493 6.305-4.392 5.948-7.063 14.066-9.709 22.541-11.654 5.608-1.285 11.253-2.557 16.947-3.29 8.162-1.051 15.819 1.164 23.335 4.266 5.868 2.42 11.813 4.991 18.452 4.195 9.464-1.132 15.84-6.868 20.957-14.33 2.099-3.064 3.155-6.448.883-9.906-1.035-1.572-2.257-3.187-3.757-4.267-4.816-3.467-9.834-6.66-14.72-10.03-10.253-7.073-15.463-16.855-15.33-29.325.089-7.94 2.33-15.423 4.867-22.914 4.214-12.437 5.427-25.264 3.014-38.246-1.276-6.867-2.777-13.717-4.641-20.447-2.459-8.865-7.688-15.225-17.293-17.011-9.776-1.812-19.483-4.2-29.331-5.353-7.09-.829-14.367-.009-21.553-.014-6.063-.008-11.952-.832-17.739-2.923-4.926-1.778-10.046-3.221-15.197-4.154-4.841-.875-9.863-.726-14.774-1.307-5.523-.65-11.166-1.05-16.476-2.56-7.279-2.073-14.557-3.597-22.097-4.047-5.042-.299-10.072-.798-15.115-1.195-.753-.057-1.552-.247-2.256-.08-8.433 1.967-10.102 5.066-7.26 14.565 1.413 4.725 3.073 9.314 3.119 14.33.074 7.456-5.089 11.984-10.948 12.974-7.1 1.199-13.554-.783-19.368-4.432-5.615-3.521-10.607-8.027-16.154-11.666-3.596-2.356-7.529-4.521-11.618-5.75-9.49-2.848-19.189-2.544-28.919-.758-3.869.713-5.579 2.786-6.449 6.362a104.945 104.945 0 0 1-3.448 11.419c-2.495 6.788-7.574 11.353-13.561 15.092-2.819 1.76-5.635 3.572-8.225 5.642-3.837 3.068-7.893 5.71-12.739 6.656-6.262 1.221-11.422-1.842-15.392-5.953-4.058-4.199-7.37-9.237-10.416-14.264-7.2-11.902-17.204-14.997-30.3-7.24-7.541 4.465-14.629 9.682-22.045 14.353-5.756 3.627-11.734 6.833-18.704 7.619-7.143.807-13.072-1.435-17.597-6.963-3.639-4.447-6.921-9.192-10.543-13.662-1.307-1.617-3.131-2.81-4.717-4.199" stroke="#F9FAFC" stroke-width="3" stroke-miterlimit="10" stroke-linecap="round" stroke-linejoin="round"/><path d="M-493-143.595c13.592 3.172 24.748 10.441 33.475 21.097 5.735 7.003 10.376 14.89 15.862 22.107 6.916 9.112 14.266 17.902 21.281 26.942 3.193 4.114 6.44 8.285 8.945 12.825 3.728 6.742 1.634 13.064-2.488 19.062-2.447 3.559-5.026 7.191-6.586 11.166-2.261 5.755-.237 11.497 2.735 16.399 5.721 9.428 13.044 17.358 23.522 21.849 7.731 3.313 15.372 2.529 22.885-.336 5.008-1.907 9.684-4.687 14.7-6.567 5.794-2.164 11.838-2.955 17.444.648 5.938 3.817 9.828 9.075 9.582 16.47-.136 4.179-2.619 7.51-4.927 10.814-3.419 4.904-7.234 9.589-10.193 14.755-4.897 8.548-6.724 18.021-6.269 27.82.327 6.982 4.548 11.773 10.651 14.296 6.449 2.666 13.256 4.512 19.983 6.428 2.125.604 4.512.408 6.775.352 2.794-.067 4.841-1.508 5.983-4.067 1.607-3.6 3.196-7.21 4.663-10.87 3.971-9.904 11.706-13.706 21.883-13.842 8.094-.104 16.186-.398 24.277-.62 7.743-.217 14.981 1.658 21.893 5.09 5.341 2.654 10.747 5.176 16.188 7.612 2.156.962 4.474 1.582 6.743 2.285 7.401 2.291 15.007 4.053 22.164 6.944 8.092 3.264 16.278 4.371 24.81 3.54 9.789-.953 19.508-.6 29.27.563 5.458.651 11.053.127 16.534.66 14 1.362 26.02 7.75 28.536 24.616 1.263 8.522 1.42 17.208 2.08 25.818.471 6.18 1.348 12.364 1.272 18.538-.068 5.758-1.014 11.428-2.555 17.137-2.275 8.422-5.67 16.835-4.444 25.899.8 5.961 3.602 10.733 8.266 14.694 5.906 5.025 12.82 7.923 19.928 10.524 8.663 3.176 17.795 5.154 25.866 9.843 2.547 1.479 4.998 3.261 7.153 5.266 5.655 5.278 3.841 12.091-1.135 16.354-4.26 3.648-9.349 5.919-14.742 7.343-9.067 2.388-17.086 6.763-24.528 12.363-3.98 2.996-8.345 5.481-13.271 6.229-6.144.936-12.379 1.463-18.589 1.747-8.862.403-17.745-.953-26.61.846-7.609 1.541-12.744 5.886-15.721 12.772-3.811 8.812-7.284 17.772-10.962 26.641-2.241 5.407-2.783 10.768.264 16.037 2.519 4.359 6.638 6.886 11.038 8.924 6.34 2.933 13.054 4.161 20.033 4.538 5.874.319 11.708 1.367 17.578 1.914 10.527.981 21.015 3 31.657 1.744 10.629-1.251 19.265-6.058 26.25-14.257 7.779-9.12 15.919-17.937 23.944-26.841 5.722-6.349 11.307-12.835 17.36-18.86 3.35-3.33 7.437-5.96 11.36-8.66 4.014-2.761 8.612-4.745 11.447-8.976 5.046-7.54 2.742-16.605-2.405-21.95-3.969-4.117-8.36-7.825-12.393-11.883-3.116-3.134-6.143-6.394-8.906-9.847-4.672-5.856-9.492-11.655-13.512-17.956-3.264-5.12-5.67-10.836-8.02-16.475-1.609-3.861-2.383-8.061-3.69-12.062-1.9-5.815.482-10.027 5.134-13.026 6.49-4.187 13.042-8.33 19.887-11.881 7.665-3.985 13.158-9.985 17.81-16.96 5.192-7.794 11.078-14.837 19.885-18.749 12.034-5.347 26.077-3.487 33.91 8.691 2.867 4.458 5.533 9.041 8.208 13.619 4.07 6.963 12.783 10.298 21.712 7.603 7.013-2.117 13.841-4.849 20.693-7.466 5.756-2.204 8.996-.489 11.814 3.502 2.693 3.818 3.852 8.156 5.05 12.462 3.516 12.675 6.731 25.423 10.171 38.117 2.972 10.953 8.599 20.364 16.392 28.637 3.35 3.557 6.401 7.553 8.834 11.785 3.444 5.997 2.558 12.181-1.657 17.528-3.554 4.513-7.56 8.685-11.52 12.86-4.881 5.143-9.687 10.34-12.578 16.909-1.12 2.544-1.847 5.292-2.515 7.999-1.784 7.275-2.789 14.814-5.287 21.823-3.75 10.527-11.657 17.593-21.675 22.393-5.706 2.736-11.432 5.474-16.919 8.603-3.393 1.932-6.235 4.816-9.56 6.898-5.516 3.463-11.01 7.08-16.893 9.822-11.275 5.261-19.123 13.99-25.994 23.901-1.938 2.794-3.898 5.571-5.816 8.368-5.414 7.895-5.923 16.475-3.498 25.451 2.105 7.8 4.557 15.529 6.233 23.424.974 4.59.855 9.444 1.006 14.179.252 7.861.362 15.722.465 23.581.085 6.812.004 13.605-2.783 20.038-1.958 4.526-5.228 8.054-8.992 10.98-8.617 6.71-15.56 14.996-22.58 23.214-1.61 1.884-2.955 3.999-4.424 6.007" stroke="#F9FAFC" stroke-width="3" stroke-miterlimit="10" stroke-linecap="round" stroke-linejoin="round"/><path d="M282.037-97.857c2.277 7.545 7.396 13.042 13.312 17.807 5.655 4.553 11.435 9 17.443 13.071 9.393 6.368 13.795 15.588 15.89 26.245 1.477 7.53 3.175 15.137 9.346 20.211 3.854 3.169 8.651 5.282 13.209 7.487 6.908 3.347 13.596 6.79 17.638 13.806 4.397 7.625 6.031 15.741 4.822 24.43-.984 7.08-3.089 13.844-5.761 20.461-.995 2.47-1.518 5.138-2.154 7.747-1.269 5.237-3.332 6.343-8.331 4.296-7.92-3.244-15.083-7.8-22.101-12.637-8.162-5.627-16.251-11.364-24.618-16.664-6.927-4.389-14.061-4.567-20.399 1.346-2.179 2.03-3.992 4.547-5.599 7.077-6.414 10.122-8.939 21.565-10.877 33.178-.824 4.956-1.295 10.011-2.567 14.85-1.811 6.865-6.866 11.544-12.057 16.015-4.77 4.107-10.196 7.607-13.534 13.12-2.731 4.504-5.63 9.042-7.424 13.946-2.229 6.107-3.808 12.532-4.947 18.95-2.129 11.975.363 22.844 8.838 32.068 3.324 3.624 6.089 7.755 9.316 11.478 4.691 5.409 10.959 8.792 16.828 12.7 5.265 3.507 10.367 7.192 13.205 13.218 5.92 12.56-.777 28.608-15.475 30.182-9.661 1.036-17.217-1.474-22.717-9.614-.505-.748-1.36-1.269-1.879-2.013-5.555-8.059-11.454-4.681-14.942 1.796-2.312 4.296-3.74 9.059-5.608 13.596-2.352 5.719-5.716 10.743-9.657 15.542-2.925 3.567-5.514 7.706-7.059 12.017-1.105 3.088-.827 7.012-.118 10.344 2.603 12.222 5.579 24.397 10.494 35.919 3.304 7.745 8.917 13.975 15.176 19.549 7.975 7.1 14.668 15.322 21.367 23.584 4.65 5.728 4.804 11.449 1.207 17.572-3.504 5.978-6.986 11.979-10.573 17.908-5.479 9.071-7.564 19.051-8.173 29.472-.33 5.584-.477 11.209-1.265 16.733-1.009 7.043-4.393 13.278-7.845 19.396-1.246 2.206-2.787 4.252-4.116 6.417-4.84 7.867-12.334 11.015-21.082 11.296-13.025.421-24.846 4.744-36.224 10.554-8.806 4.494-17.348 9.495-26.19 13.903-7.062 3.524-14.698 5.106-22.627 4.229-5.526-.605-10.99-1.813-16.52-2.36-4.672-.464-9.457-1.465-13.961 1.197-5.482 3.241-9.03 7.722-10.526 14.026-1.295 5.442-.783 10.858-.317 16.24.66 7.671-.96 15.016-2.346 22.425m-205.724-743.183c-2.592 6.3-5.6 12.482-6.237 19.385-.336 3.651-.692 7.37-.412 11.007.829 10.758 2.021 21.493 2.962 32.245.517 5.908 2.384 11.443 5.515 16.297 5.066 7.85 6.239 16.505 5.773 25.34-.514 9.78 4.384 15.34 12.45 19.362 3.86 1.93 7.729 4.05 11.106 6.698 5.756 4.507 7.45 11.165 8.031 18.083.961 11.475 2.729 22.69 7.35 33.42 3.587 8.347 4.464 17.155 1.684 26.044-1.546 4.937-3.097 9.873-4.753 14.77-1.917 5.663.58 12.982 5.875 15.738 4.78 2.488 9.88 4.338 14.68 6.79 6.5 3.323 12.785 7.068 19.277 10.409 6.73 3.457 13.81 5.687 21.551 5.105 4.166-.317 6.687-2.433 8.08-6.322 1.215-3.394 2.77-6.658 4.126-9.999 4.673-11.514 17.983-16.907 29.352-15.44 9.03 1.162 15.399 6.574 21.444 12.382 9.605 9.222 20.528 16.545 31.926 23.187 9.479 5.53 15.223 13.175 14.883 24.423-.184 6.095-2.898 11.34-10.774 9.044-4.852-1.411-9.728-2.762-14.504-4.401-4.806-1.652-9.723-1.953-14.689-1.722-7.733.369-15.392 1.378-22.65 4.212-5.595 2.182-9.733 6.153-12.941 11.221-3.535 5.586-6.916 11.326-11.01 16.487-6.54 8.257-15.681 12.942-25.493 16.058-10.93 3.473-22.042 6.383-33.096 9.473-2.956.826-6.801-1.146-7.901-4.448-1.62-4.842-3.148-9.779-4.043-14.791-1.323-7.418-2.558-14.916-2.866-22.416-.212-5.275 1.207-10.615 1.852-15.931.742-6.114.641-12.152-2.92-17.498-2.6-3.898-5.281-7.779-8.325-11.33-3.392-3.956-7.122-7.643-10.911-11.224-5.873-5.548-12.521-7.886-20.619-4.962-5.885 2.127-11.863 4.334-17.993 5.338-11.269 1.843-22.651 3.109-34.037 4.047-6 .493-11.624-1.874-17.105-4.377-10.284-4.695-20.855-8.799-30.95-13.864-6.076-3.052-11.622-7.252-17.136-11.309-5.972-4.397-11.254-9.996-18.696-11.831-4.122-1.02-8.527-.957-12.817-1.192-1.869-.098-4.3.886-5.235-1.112-1.038-2.213 1.169-3.774 2.53-5.313 10.3-11.614 23.893-17.646 38.179-22.503 7.275-2.472 14.699-4.765 22.405-4.467 9.247.362 13.772 1.53 16.651 10.8.942 3.03 2.945 5.837 4.885 8.43 2.277 3.047 10.149 4.16 13.55 2.289 6.497-3.572 7.619-8.1 3.329-14.353-1.628-2.37-3.467-4.702-5.619-6.577-3.975-3.466-5.611-7.626-5.405-12.835.442-11.302-2.464-21.981-6.198-32.53-3.126-8.828-4.734-18.016-4.916-27.36-.098-5.155.372-10.341.943-15.475.548-4.877-.93-9.256-3.161-13.274-6.039-10.86-12.228-21.65-18.734-32.245-2.916-4.748-7.037-8.75-10.047-13.45-3.674-5.747-6.872-11.807-10.045-17.857-1.926-3.666-1.588-7.532-.211-11.437 2.195-6.199 4.133-12.492 6.193-18.735.376-1.13.846-2.236 1.278-3.349" stroke="#F9FAFC" stroke-width="3" stroke-miterlimit="10" stroke-linecap="round" stroke-linejoin="round"/><path d="M-102.41-170.739c-2.212 4.805-4.252 9.701-6.672 14.395-6.129 11.892-7.72 24.334-4.642 37.292.891 3.752 2.719 7.276 4.061 10.924 1.676 4.54 3.825 8.993 4.827 13.68 2.293 10.714 7.482 19.676 15.683 26.655 8.741 7.434 14.486 16.841 19.297 26.94 3.441 7.223 6.565 14.608 9.557 22.034 2.508 6.218 4.557 12.623 6.937 18.895 2.838 7.481 7.704 13.452 14.22 18.005 4.81 3.362 10.285 5.068 16.122 4.302 6.466-.849 13.028-1.719 19.249-3.587 11.565-3.483 22.966-2.494 34.226.52 6.388 1.707 11.378 6.292 16.286 10.724 6.413 5.799 13.28 10.855 22.052 12.726 11.302 2.407 22.498 5.31 33.827 7.54 4.507.889 9.266.886 13.886.688 5.666-.243 11.199.22 16.757 1.243 5.255.972 10.557 1.862 15.876 2.317 6.571.568 10.314-3.25 9.606-9.532-.803-7.156-1.8-14.29-2.791-21.423-.907-6.503-3.738-12.05-8.183-16.93-5.803-6.363-12.13-12.03-19.39-16.696-11.858-7.623-23.959-8.706-36.81-2.423-6.674 3.264-13.968 4.107-21.309 2.5-2.313-.509-4.849-1.392-6.559-2.916-2.962-2.635-3.335-6.609-1.973-10.02 2.216-5.549 5.042-10.87 7.878-16.145 1.488-2.768 3.99-5.024 5.244-7.862 3.153-7.16 1.684-12.523-6.574-14.839-3.472-.975-7.197-1.019-10.812-1.479-8.064-1.026-15.024-4.2-20.167-10.673-6.245-7.863-12.01-16.086-19.457-22.982-7.935-7.346-16.341-14.031-25.303-20.057-6.054-4.067-12.083-8.129-17.045-13.622-4.914-5.438-6.265-12.045-6.802-18.955-.2-2.577.073-5.195.126-7.796" stroke="#F9FAFC" stroke-width="3" stroke-miterlimit="10" stroke-linecap="round" stroke-linejoin="round"/><path d="M-123.525-174.724c-1.699 3.812-3.191 7.741-5.144 11.413-2.995 5.63-4.077 11.744-3.848 17.865.401 10.879.494 21.903 3.952 32.393 1.53 4.656 3.839 9.061 5.872 13.544 3.234 7.144 4.705 14.779 6.191 22.397 1.29 6.654 4.8 11.82 10.068 15.935a760.147 760.147 0 0 1 10.216 8.13c5.784 4.668 8.35 11.138 9.593 18.142 2.233 12.59 6.156 24.624 11.129 36.36 2.764 6.52 5.176 13.248 5.486 20.324.206 4.752-.621 9.655-1.668 14.334-1.708 7.635.833 12.952 7.28 17.113 6.302 4.068 12.97 6.997 20.39 7.98 5.45.722 9.704-2.098 13.434-5.605 9.26-8.697 20.235-13.865 32.7-15.612 13.324-1.872 24.656 2.349 33.929 12.193 3.801 4.034 7.708 7.996 11.837 11.68 7.955 7.103 17.596 9.32 27.995 8.907 6.373-.253 12.803-1.325 19.094-.764 7.088.633 14.072 2.604 21.065 4.152 2.933.651 5.81 1.593 8.65 2.592 10.925 3.857 21.798 7.848 32.727 11.68 5.492 1.924 10.949 4.311 16.629 5.24 5.3.87 10.879.258 16.32-.034 4.788-.258 9.556-.932 14.323-1.494 5.102-.604 6.349-1.61 7.054-6.49.659-4.562.964-9.185 1.329-13.784.439-5.472.84-10.952 1.142-16.43.451-8.232-1.862-15.83-5.793-22.949-3.663-6.638-7.703-13.073-11.206-19.799-3.172-6.088-3.799-12.832-3.87-19.615-.03-2.956.16-5.969-.339-8.857-1.421-8.14-5.125-9.578-12.42-8.245-5.626 1.027-11.223 2.36-16.899 2.927-6.146.61-11.921-1.447-17.523-3.862-9.544-4.112-18.19-9.7-26.333-16.087-5.555-4.358-8.002-10.244-8.197-17.2-.09-3.19.053-6.44-.536-9.541-1.677-8.79-8.35-13.209-15.811-16.288-7.885-3.257-16.071-5.781-24.15-8.565-7.77-2.681-15.107-6.214-22.22-10.343-9.236-5.366-18.736-10.267-28.057-15.498-8.2-4.596-16.54-9.004-24.38-14.158-8.153-5.358-12.563-13.293-12.98-23.222-.024-.259-.336-.507-.505-.754m-161.658 550.472c.15 5.054 3.695 8.198 6.607 11.691 6.474 7.756 13.064 15.417 19.399 23.284 4.363 5.419 8.545 11 12.512 16.716 9.106 13.116 17.477 26.662 23.917 41.344 4.853 11.054 14.149 12.436 23.279 7.605 4.25-2.246 7.977-5.466 12.052-8.065 2.553-1.633 5.254-3.076 7.993-4.373 7.765-3.685 14.27-1.733 18.903 5.193 3.87 5.783 7.41 11.79 11.462 17.438 3.536 4.924 7.85 8.937 13.797 11.26 6.694 2.614 14.532-.456 18.33-5.118 5.356-6.588 6.15-14.115 3.953-21.743-3.307-11.499-7.619-22.653-14.236-32.8-5.38-8.255-7.155-17.291-4.72-26.976 1.568-6.232 3.578-12.387 4.716-18.693 1.12-6.212 1.62-12.561 1.983-18.877.452-8.035 3.509-13.092 11.473-13.887 2.98-.299 5.902-1.249 8.857-1.86 12.351-2.565 22.142-8.681 28.941-19.631 3.172-5.113 3.648-9.887 1.134-15.172-2.409-5.05-6.076-9.104-10.872-11.746-6.456-3.562-12.707-1.778-18.617 1.937-8.947 5.623-16.192 12.912-21.434 22.08-4.397 7.702-10.323 13.124-19.21 15.39-7.311 1.865-14.392 4.621-21.59 6.925-10.025 3.206-20.435 3.957-30.835 4.24-13.288.365-26.601-.138-39.869.505-10.041.488-20.043 2.053-30.029 3.393-4.837.654-9.629 1.937-13.621 4.93-1.65 1.236-2.821 3.117-4.204 4.703" stroke="#F9FAFC" stroke-width="3" stroke-miterlimit="10" stroke-linecap="round" stroke-linejoin="round"/><path d="M-9.43-153.19c.757 2.316 1.3 4.736 2.32 6.939 3.233 7.008 9.178 11.067 15.817 14.487 6.86 3.534 14.276 4.986 21.741 5.899 8.365 1.024 14.932 5.037 20.859 10.575 7.819 7.305 16.71 12.73 27.093 15.551a1669.83 1669.83 0 0 0 16.467 4.407c3.626.952 7.23 2.09 10.922 2.662 6.556 1.022 13.181 1.62 19.765 2.496 9.576 1.28 12.043 8.338 10.921 16.084-.674 4.644-2.048 9.19-3.183 13.754-2.645 10.657 2.476 16.14 9.499 20.468 10.615 6.534 21.248 5.884 32.131 1.103a251.279 251.279 0 0 1 6.387-2.711c7.009-2.862 14-2.476 20.193 1.65 5.294 3.526 7.433 9.21 7.213 15.599-.214 6.148-.41 12.306-.888 18.437-.684 8.71 2.681 16.166 7.137 23.163 5.857 9.193 12.23 18.04 19.42 26.29 4.147 4.765 4.828 10.945 5.71 16.993a48.106 48.106 0 0 0 2.448 9.581c1.044 2.841 3.438 4.892 6.465 5.072 3.216.19 5.516-2.105 6.736-4.839 3.055-6.846 3.961-14.24 4.769-21.601.909-8.309.449-16.803 3.714-24.765 2.295-5.585 6.023-10.123 10.517-13.975C283.902 2.274 293.534-4.8 305.05-9.056c7.691-2.844 12.293-10.592 12.131-19.174-.097-5.09-.278-10.15-1.976-15.093-2.624-7.61-7.917-13.186-13.554-18.493-6.114-5.756-12.492-11.222-18.636-16.957-5.921-5.53-10.388-11.988-11.894-20.164-.093-.508-.452-.96-.687-1.442m-99.684 476.33c-1.082-1.183-2.642-2.189-3.169-3.581-2.673-7.072-1.557-14.127 4.213-19.037 3.103-2.639 6.432-5.059 9.847-7.28 7.083-4.597 9.765-11.135 9.932-19.387.143-7.017-.403-13.772-3.895-19.934-1.743-3.077-3.65-6.289-6.22-8.615-6.831-6.179-12.948-4.376-18.47 1.292-5.547 5.697-8.826 12.591-10.609 20.206-1.217 5.202-2.282 10.464-2.96 15.754-1.284 9.916-5.661 17.197-15.404 20.985-8.531 3.319-17.034 6.832-25.197 10.964-5.904 2.985-11.516 6.75-16.712 10.861-4.651 3.686-9.575 6.673-14.887 9.189-4.618 2.19-9.32 4.279-13.666 6.932-5.215 3.181-8.138 8.426-9.46 14.149-1.667 7.212.857 13.518 6.592 18.171 8.548 6.934 14.603 15.25 16.638 26.327.58 3.158 1.995 6.239 3.46 9.133 2.48 4.881 7.225 7.408 11.92 9.339 7.22 2.975 13.727 6.886 19.58 11.985 8.818 7.683 18.653 7.666 28.979 3.831 7.759-2.89 15.096-6.59 21.775-11.544 7.576-5.621 16.434-8.525 25.068-11.974 9.304-3.708 14.628-10.785 16.725-20.618 1.455-6.808.687-13.599.856-20.408.193-7.771 1.608-15.305 3.861-22.778a227.96 227.96 0 0 0 5.713-23.388c1.224-6.487-2.448-12.657-8.373-15.609-3.712-1.849-7.05.066-10.332 1.373-1.56.619-2.795 2.044-4.212 3.05-6.537 4.648-13.058 9.351-21.266 10.68m139.644 235.407c3.006-6.62 6.523-13.013 11.668-18.139 6.65-6.63 14.956-10.448 24.133-12.516 7.104-1.603 14.478-2.933 20.32-7.602 10.615-8.48 21.336-16.966 30.165-27.325 3.774-4.431 6.48-10.089 8.521-15.612 3.529-9.53 9.762-16.755 17.266-23.14 5.202-4.423 10.63-8.589 15.8-13.051 6.168-5.324 8.965-12.082 8.13-20.321-.589-5.868-4.136-9.56-8.797-12.392-7.169-4.355-14.932-7.322-22.881-10.03-8.79-2.99-17.323-1.565-25.814.259-9.152 1.968-18.15 4.683-27.176 7.196-8.344 2.323-15.124 6.703-18.497 15.101a117.293 117.293 0 0 0-3.598 10.418c-1.609 5.447-4.713 9.888-8.826 13.662-8.73 8-18.929 12.786-30.863 13.034-5.799.12-11.618-.769-17.432-.881-6.434-.118-12.875.11-19.31.24-2.201.041-4.43.058-6.598.406-8.369 1.352-9.113 6.538-6.822 12.63 1.847 4.912 4.833 9.464 7.731 13.895 3.293 5.034 6.641 10.124 7.889 15.961 1.22 5.713 1.797 11.717 1.595 17.56-.342 9.904-.844 19.758 1.059 29.563.207 1.051.047 2.176.064 3.263" stroke="#F9FAFC" stroke-width="3" stroke-miterlimit="10" stroke-linecap="round" stroke-linejoin="round"/><path d="M-112.806-172.701c-2.971 6.509-6.359 12.874-8.762 19.588-1.56 4.36-2.176 9.212-2.345 13.88-.294 8.404.194 16.819 3.374 24.803 2.205 5.54 4.601 11.006 6.611 16.614 2.048 5.713 3.849 11.53 5.55 17.354 1.898 6.514 6.331 11.078 11.117 15.5 4.069 3.757 8.15 7.556 11.79 11.723 4.444 5.088 6.15 11.645 8.42 17.85 3.114 8.506 6.032 17.086 9.259 25.548 2.806 7.37 5.592 14.783 8.984 21.886 2.797 5.861 6.154 11.528 9.86 16.862 3.824 5.507 10.058 6.618 16.273 6.681 8.62.093 16.806-2.573 25.037-4.714 8.623-2.25 17.284-3.553 26.086-1.526 7.126 1.638 13.552 4.875 19.039 9.768 4.977 4.445 9.65 9.257 14.835 13.434 2.516 2.028 5.79 3.319 8.92 4.34 6.986 2.278 14.336 1.243 21.513 1.854 3.315.28 6.675.359 9.941.936 11.261 2.008 22.545 3.955 33.706 6.42 6.286 1.389 12.344 3.772 18.519 5.675 4.831 1.486 9.633 3.091 14.525 4.321 3.41.853 6.941 1.447 10.448 1.646 7.311.413 12.689-3.35 16.986-8.826 4.553-5.792 7.699-12.222 7.311-19.816-.277-5.418-2.527-10.099-6.068-14.233-5.21-6.082-9.458-12.7-11.862-20.471-2.867-9.263-9.729-14.585-18.276-18.62-7.743-3.662-15.14-8.12-22.424-12.653-8.939-5.558-18.111-10.54-28.046-14.067-2.166-.768-4.278-1.754-6.315-2.824-2.989-1.562-4.948-3.943-5.119-7.467-.248-5.152-.183-10.342-.737-15.46-.962-8.812-6.182-14.497-14.227-17.7-5.623-2.236-11.373-3.726-17.516-4.07-9.152-.519-16.533-5.234-22.94-11.444-8.268-8.003-17.75-14.421-27.076-21.038-7.496-5.318-15.353-10.137-22.814-15.501-7.37-5.294-12.935-11.985-13.907-21.503-.26-2.628-.322-5.277-.477-7.917m319.492 764.655c4.904-5.818 10.083-11.434 14.657-17.51 6.627-8.795 15.281-14.421 25.606-17.629 13.383-4.153 25.893-9.978 37.094-18.484 7.291-5.531 13.556-11.921 16.919-20.641 1.401-3.619 2.779-7.289 3.686-11.054 1.725-7.169 6.403-12.102 11.684-16.739 4.704-4.139 9.519-8.204 13.754-12.797 3.046-3.309 5.887-7.153 7.609-11.261 2.309-5.524-.256-12.099-7.739-16.794-9.42-5.91-19.639-5.828-29.918-3.871-6.432 1.221-13.032 2.436-18.582 6.487-3.337 2.432-5.373 5.54-6.07 9.645-.954 5.643-1.956 11.336-5.927 15.841-1.878 2.133-3.848 4.235-6.041 6.034-15.854 12.995-34.44 19.71-54.318 23.413-3.436.638-6.842 1.457-10.227 2.307-7.435 1.867-11.671 5.983-10.857 14.877 1.143 12.449-.15 24.837.047 37.251.132 8.256 2.268 16.029 6.084 23.31 1.147 2.188 2.889 4.064 4.356 6.077" stroke="#F9FAFC" stroke-width="3" stroke-miterlimit="10" stroke-linecap="round" stroke-linejoin="round"/><path d="M-40.633-159.08c.092 9.79-.505 19.626 4.656 28.668 3.086 5.406 7.928 8.84 12.819 12.081 11.82 7.831 23.535 15.656 33.263 26.2 6.514 7.059 11.924 14.745 16.104 23.348 3.264 6.713 7.06 13.089 12.147 18.618 3.505 3.808 6.4 8.076 5.493 13.44-.575 3.358-2.23 6.59-3.704 9.733-2.271 4.839-4.98 9.472-7.19 14.33C28.163-2.138 19.849 2.73 8.587 4.083c-6.265.75-12.376 2.9-18.515 4.542-5.266 1.408-10.478 2.735-16.029 1.883-8.399-1.29-14.077-6.28-17.59-13.535-3.134-6.467-5.082-13.506-8.135-20.023-4.138-8.823-9.078-17.269-13.224-26.087-5.234-11.112-14.193-19.122-22.15-28.014-3.843-4.296-6.859-9.14-8.37-14.896-2.433-9.246-5.169-18.412-7.801-27.603-2.192-7.653-2.478-15.267.722-22.712 3.725-8.671 7.596-17.282 11.4-25.924m389.276 73.147c4.276 5.775 10.682 8.668 16.714 11.883 10.387 5.53 16.474 14.297 19.991 25.099 1.566 4.813 2.513 9.822 3.808 14.72 2.776 10.545 9.141 17.876 19.332 21.986 4.003 1.617 7.952 3.524 11.622 5.797 7.317 4.534 10.161 12.055 12.235 19.882 1.796 6.775 2.902 13.675 2.63 20.72-.159 4.2-.359 8.405-.75 12.587-.886 9.436 3.923 16.362 13.428 18.887 8.926 2.37 17.977 4.19 26.682 7.49 6.785 2.58 13.894 4.104 21.386 2.593 5.7-1.15 9.937-4.574 13.849-8.287 5.717-5.423 10.932-11.365 16.371-17.082 5.367-5.645 8.042-12.726 10.597-19.868 2.913-8.133 3.797-16.556 3.439-25.136-.508-12.186-3.027-23.739-12.207-32.548-3.024-2.9-7.05-4.777-10.69-7.005-4.629-2.831-9.673-4.815-13.763-8.7-4.572-4.35-6.995-9.533-8.436-15.419m206.023 502.036c-5.658-4.332-11.274-8.715-16.977-12.983-7.133-5.335-14.735-9.883-22.899-13.494-4.176-1.845-8.304-3.63-12.879-4.428-11.497-2-23.597 7.323-24.104 19.004-.195 4.526 1.564 8.664 3.398 12.744.956 2.132 1.847 4.363 2.318 6.639 1.014 4.898-1.421 9.086-6.363 11.509-3.216 1.58-9.461.531-11.944-2.294-2.698-3.068-5.051-6.443-7.708-9.555-3.255-3.814-7.822-5.733-12.296-7.485-6.936-2.712-13.985-5.211-21.145-7.254-8.126-2.324-16.346-4.495-24.661-5.888-5.809-.972-11.245.92-14.88 6.174-5.432 7.853-7.827 16.566-7.17 26.057.406 5.841 3.419 10.385 7.724 14.207 6.502 5.777 13.857 10.181 22.073 12.854 4.539 1.477 9.489 1.641 14.129 2.856 4.206 1.101 9.034 1.633 11.153 6.316.889 1.963 1.564 4.335 1.353 6.424-.65 6.555-2.828 12.77-5.071 18.946-2.323 6.396-4.365 12.891-6.627 19.306-2.895 8.214-2.286 16.782-2.898 25.251-.589 8.101-1.663 16.215-3.258 24.178-1.864 9.29-.671 18.295 1.193 27.303 1.974 9.498 7.323 16.781 15.358 22.182 8.463 5.69 14.613 13.261 18.216 22.845" stroke="#F9FAFC" stroke-width="3" stroke-miterlimit="10" stroke-linecap="round" stroke-linejoin="round"/><path d="M523.428 651.732c-3.699-5.646-9.35-9.05-15.111-11.834-6.586-3.182-9.012-8.144-9.236-14.949-.338-10.417-.912-20.833-1.211-31.249-.088-2.994.263-6.028.706-8.999 1.165-7.83 3.035-15.597 3.573-23.46.479-6.966-.689-14.028-.695-21.053-.006-7.782.489-15.561.744-23.347.061-1.842.286-3.725.02-5.532-.511-3.451-4.464-6.129-9.142-6.66-4.04-.455-8.095-.901-12.093-1.642-8.609-1.599-17.107-1.121-25.604.736-7.756 1.695-14.924 4.671-21.347 9.373-6.52 4.768-11.082 10.918-13.673 18.628-3.096 9.214-8.206 16.919-16.256 22.802-6.981 5.1-14.352 9.917-19.842 16.766-4.457 5.556-8.647 11.333-12.714 17.178-3.394 4.875-7.899 7.093-13.742 6.852-3.563-.144-7.128-.346-10.7-.374-9.008-.075-15.935 4.01-21.318 10.984-1.867 2.422-3.569 4.973-5.346 7.471M-76.25-165.802c-4.11 5.694-8.59 11.167-11.18 17.8-3.638 9.314-5.072 18.712-2.265 28.674 1.768 6.261 2.797 12.781 3.573 19.253 1.093 9.15 5.262 16.843 11.893 22.624 10.538 9.19 16.797 20.92 22.785 33.121 5.056 10.29 10.678 20.313 16.475 30.206 4.853 8.286 11.003 10.635 20.96 7.925 5.395-1.469 10.712-3.39 16.197-4.365 13.521-2.397 20.32-14.626 19.356-27.4-.907-12.006-4.276-23.518-10.01-34.261C6.324-81.982-1.35-89.468-9.682-96.472c-8.321-6.995-17.92-11.999-26.998-17.818-5.217-3.348-10.274-6.959-12.51-13.132-.712-1.969-1.165-4.065-1.46-6.138-1.366-9.566-2.01-19.264-5.43-28.435m284.136 358.802c.958-5.388-1.328-10.082-3.495-14.649-3.282-6.925-3.515-13.961-2.528-21.405 1.017-7.668 1.281-15.432 1.851-23.158.624-8.493-4.372-13.359-11.213-16.752-5.802-2.877-11.667-5.766-17.784-7.841-5.601-1.899-11.611-2.086-17.587-1.863-5.212.191-10.442-.045-15.661.04-5.403.091-10.014 1.211-12.54 7.054-3.045 7.037-6.862 13.738-10.299 20.603-3.825 7.647-4.345 15.794-3.581 24.13 1.51 16.422 5.983 32.15 11.652 47.529 3.368 9.135 9.956 16.077 17.313 22.198 6.45 5.363 13.031 10.476 18.356 17.127 5.959 7.437 12.359 4.728 16.937-2.652 3.357-5.405 5.273-11.682 8.383-17.264 3.147-5.64 6.76-11.055 10.554-16.286 3.778-5.215 7.584-10.365 9.893-16.444M462.688-64.09c2.575 4.932 6.812 8.493 11.335 11.128 11.928 6.945 18.721 17.608 23.29 30.03 3.658 9.948 6.947 20.053 12.168 29.33 1.849 3.28 4.155 6.313 6.356 9.385 7.017 9.79 9.568 21.004 10.837 32.72.812 7.523 1.983 15.016 3.271 22.478.595 3.455 2.791 5.932 5.969 7.733 5.956 3.377 12.312 5.64 18.861 7.392 4.649 1.243 9.325 2.51 14.062 3.28 13.631 2.214 24.311-1.94 31.425-14.247 2.17-3.748 4.368-7.479 6.678-11.136 3.593-5.686 4.768-11.464 1.384-17.71-3.442-6.355-6.658-12.837-10.121-19.183-4.143-7.59-8.408-15.119-12.694-22.638-3.835-6.73-9.279-11.883-15.953-15.74-7.117-4.111-13.369-9-16.754-16.864-2.191-5.094-2.273-10.404-2.218-15.78.009-1.087-.02-2.177-.029-3.269" stroke="#F9FAFC" stroke-width="3" stroke-miterlimit="10" stroke-linecap="round" stroke-linejoin="round"/><path d="M491.688-58.617c10.752 15.53 17.27 33.255 25.924 49.87 2.951 5.668 6.726 10.983 10.654 16.045 5.409 6.968 6.804 15 7.626 23.373.903 9.225 1.315 18.455 3.797 27.547 3.851 14.148 22.767 22.352 35.568 16.51 6.378-2.908 9.741-8.103 12.379-14.055 4.711-10.639 2.25-20.706-3.145-30.236-3.343-5.912-7.185-11.566-11.111-17.118-4.034-5.71-10.159-8.608-16.497-10.96-5.893-2.19-11.052-5.05-14.327-10.837-3.534-6.249-6.967-12.615-6.488-19.895.469-7.118 2.094-14.168 3.213-21.242M134.322 473.852c7.737.925 14.23-2.002 20.47-6.216 5.767-3.893 11.725-7.514 17.744-11.006 3.166-1.838 6.861-2.805 9.945-4.756 8.931-5.645 9.325-14.755 4.602-22.827-2.942-5.027-8.426-5.612-13.801-5.98-8.791-.601-16.904-2.302-22.628-10.328-4.635-6.502-7.964-13.528-10.98-20.788-1.898-4.575-4.184-8.891-8.206-11.967-5.042-3.863-10.55-3.59-16.31-1.818-5.898 1.818-10.604 5.518-14.782 9.704-5.991 6.011-13.037 10.171-20.61 13.703-3.858 1.798-7.13 4.19-7.975 8.914-.439 2.43.42 4.348 1.573 6.126 1.804 2.788 3.704 5.588 5.995 7.973 4.907 5.097 7.278 11.524 9.546 17.905 2.598 7.299 7.224 12.5 14.122 15.623 8.317 3.77 16.455 7.793 24.006 12.991 2.027 1.401 4.591 2.029 6.907 3.007m329.292 166.262c2.545-8.646 6.389-16.7 11.127-24.338 4.146-6.679 7.541-13.598 8.694-21.54 1.01-6.977 2.795-13.84 3.786-20.821.781-5.525 1.21-11.15 1.213-16.737.001-12.735-6.508-21.445-17.727-26.82-4.233-2.026-8.544-4.021-13.024-5.356-10.433-3.105-17.319 2.665-19.817 13.481-1.775 7.674-5.055 14.399-12.05 18.569-3.398 2.028-7.184 3.41-10.725 5.222-6.487 3.312-13.1 6.392-18.531 11.477-4.029 3.777-6.655 8.177-8.523 13.406-1.756 4.911-2.125 9.809-1.543 14.716.902 7.567 5.736 12.911 11.177 17.875 3.431 3.128 6.374 6.797 9.534 10.22M680.408 275.65c-1.344-5.261-2.438-10.598-4.109-15.757-1.891-5.853-6.784-9.708-10.729-14.056-10.651-11.736-19.147-24.829-24.978-39.488-1.948-4.898-2.472-10.493-2.933-15.829-.61-7.008-1.511-13.889-3.707-20.589-1.648-5.031-4.561-9.315-7.997-13.208-3.62-4.097-8.288-3.855-12.929-2.126-6.197 2.296-11.522 6.122-16.619 10.232-5.972 4.807-11.813 9.776-17.801 14.56-3.305 2.64-6.924 4.901-10.186 7.588-6.022 4.967-7.486 9.75-3.935 19.122 3.554 9.392 9.92 16.788 17.469 23.207 5.394 4.589 11.11 8.821 16.319 13.596 8.974 8.241 13.282 18.383 10.497 30.645a149.66 149.66 0 0 1-5.393 18.233c-4.866 13.299-2.661 25.759 4.158 37.602 2.016 3.501 4.136 7.002 7.835 9.541 5.962 4.102 12.133 4.47 18.743 3.034 8.166-1.762 15.026-6.081 21.388-11.291 5.813-4.758 11.601-9.554 17.4-14.335m-584.277-1.572c4.104.148 8.4.287 11.267-3.148 2.166-2.587 4.025-5.624 5.251-8.768 3.363-8.615 7.154-16.98 12.876-24.295 3.276-4.18 7.001-8.007 10.38-12.109 3.717-4.514 6.687-9.456 5.187-15.621-.689-2.819-1.687-5.795-3.368-8.097-8.085-11.083-12.07-23.97-16.948-36.517-1.781-4.572-4.415-8.843-6.951-13.081-3.379-5.651-9.19-7.342-15.147-7.664-6.636-.364-13.344.589-19.985.257-9.726-.485-19.007-2.745-25.669-10.681-1.925-2.289-3.152-5.158-4.809-7.69-1.201-1.832-2.4-3.717-3.912-5.282-3.014-3.121-7.356-2.909-9.811.76-1.747 2.614-3.046 5.659-3.944 8.688-1.665 5.64-2.633 11.495-4.396 17.103-.922 2.946-3.047 5.489-4.367 8.334-2.603 5.593-1.32 11.312.5 16.682 2.682 7.896 6.003 15.651 11.089 22.323 8.462 11.095 12.633 23.652 14.153 37.321.43 3.88 1.201 7.675 3.369 11.132 2.394 3.814 5.636 6.593 9.53 8.581 8.22 4.182 16.02 8.853 23.041 14.989 3.446 3.014 8.186 4.535 12.34 6.735m167.236 286.464c-.146-2.097-.525-4.205-.395-6.283.207-3.309.878-6.584 1.137-9.897.482-6.117 1.432-12.289 1.071-18.369-.637-10.702-7.023-18.129-15.611-23.849-2.754-1.838-5.642-3.486-8.476-5.209-5.253-3.192-8.002-8.097-9.453-13.868-1.553-6.194-3.411-12.224-9.076-16.035-1.843-1.235-3.845-2.39-5.943-3.066-18.088-5.816-35.396-4.207-51.68 5.874-6.238 3.862-12.153 8.294-18.622 11.715-7.549 3.993-15.983 5.098-24.475 5.649-4.375.284-8.781.837-13.053 1.786-8.375 1.866-11.262 7.373-11.79 14.669-.543 7.477.046 15.043.18 22.568.018 1.009.253 2.013.39 3.018" stroke="#F9FAFC" stroke-width="3" stroke-miterlimit="10" stroke-linecap="round" stroke-linejoin="round"/><path d="M35.526 215.633c-.589 7.481 2.384 13.76 6.336 19.833 3.456 5.313 5.794 11.087 6.586 17.51.658 5.334 1.925 10.586 2.797 15.895 1.083 6.575 5.511 10.642 10.914 13.353 6.756 3.39 13.792 6.232 21.396 7.517 4.788.812 9.184-.134 12.538-3.032 8.631-7.478 14.542-16.97 18.049-27.843 1.436-4.461.478-8.964-1.072-13.238-3.663-10.098-7.358-20.196-11.322-30.181-1.243-3.133-3.133-6.094-5.167-8.802-4.428-5.908-10.918-7.315-17.833-7.308-7.425.015-14.841.228-22.265.341-9.788.15-16.561 4.702-20.231 13.807-.244.6-.453 1.22-.672 1.832M184.081-116.67c-2.26 2.185-4.372 4.561-6.822 6.507-2.955 2.341-6.131 4.431-9.344 6.41-3.864 2.384-5.887 5.84-6.807 10.165-1.401 6.59-3.053 13.132-4.29 19.753-.529 2.838-.607 5.845-.348 8.727.476 5.365 4.778 8.618 10.2 7.768a78.335 78.335 0 0 0 10.91-2.504c6.794-2.1 13.27-.511 19.631 1.55 3.647 1.185 7.028 3.194 10.523 4.84 9.467 4.456 12.784 12.334 12.82 22.316.028 7.564-.101 15.236 1.055 22.668 1.386 8.878 7.573 14.524 15.779 17.633 3.68 1.393 7.567.2 10.996-1.47 5.06-2.459 10.177-4.907 14.857-7.986 8.459-5.565 16.677-11.508 24.866-17.476 3.066-2.235 5.956-4.784 8.598-7.51 7.296-7.527 6.333-14.635 1.955-22.707-4.668-8.61-11.588-15.386-19.318-21.434-4.488-3.51-8.82-7.429-12.41-11.827-4.859-5.97-7.074-13.118-6.25-20.979m387.11 551.566c-7.764-6.146-15.364-12.503-23.365-18.327-3.34-2.432-7.35-4.462-11.343-5.34-5.761-1.257-11.721-.254-12.046 7.003-.241 5.425.018 10.866-.229 16.289-.161 3.521-.456 7.121-1.368 10.5-1.375 5.107-5.997 7.289-10.212 9.458-9.681 4.981-20.075 8.62-28.917 15.177-5.73 4.245-9.456 10.083-11.919 16.668-1.158 3.091-2.136 6.373-2.446 9.637-.75 7.92 1.838 10.53 7.693 12.334 7.915 2.44 16.47 2.801 23.795 7.05 4.014 2.324 8.159 4.673 11.535 7.784 6.344 5.852 12.935 9.217 21.957 7.101 6.23-1.462 12.765-1.638 19.16-2.39m-3.766 20.829c-5.937-1.988-12.029-3.608-17.76-6.067-6.376-2.738-12.073-1.815-17.91 1.268-5.771 3.049-11.663 6.455-18.402 5.881-5.609-.477-11.17-1.932-16.635-3.414-3.758-1.015-7.295-2.852-10.954-4.254-4.024-1.542-8.134-.412-10.346 3.283-2.171 3.618-4.321 7.364-5.682 11.324-2.3 6.688-4.66 13.489-5.75 20.437-1.5 9.574-.2 18.907 6.924 26.439 4.369 4.624 9.947 7.407 15.971 8.766 5.404 1.215 11.062 1.879 16.598 1.807 5.124-.064 9.04 1.53 12.045 5.394 4.454 5.73 10.617 9.256 16.474 13.188 5.772 3.87 11.607 7.641 17.415 11.459m112.815-673.94c-4.63 7.554-11.275 13.291-17.716 19.126-9.061 8.199-15.818 17.786-20.21 29.19-1.294 3.366-3.012 6.658-6.146 9.01-4.981 3.741-10.668 3.504-16.351 3.384-7.393-.155-14.804-.627-21.733 2.779-1.094.538-2.301.95-3.233 1.7-3.142 2.54-3.261 5.763-.364 8.712 3.829 3.889 8.505 6.573 13.31 9.027 2.143 1.096 4.51 1.771 6.606 2.944 4.231 2.378 8.595 1.602 12.914.714 2.941-.607 5.786-1.67 8.663-2.563 6.386-1.98 12.416-1.103 18.21 2.125 7.225 4.02 14.483 7.968 21.729 11.947m-344.55 185.306c-.024-5.958-2.152-11.151-5.421-16.07-4.095-6.178-8.28-12.301-14.594-16.371-8.822-5.693-18.327-9.98-28.908-10.985-7.023-.666-11.869 3.224-14.711 9.254-2.105 4.479-3.656 9.272-4.964 14.058-1.664 6.083-2.912 12.284-4.189 18.46-1.59 7.697 2.322 11.425 8.648 12.841 9.389 2.098 18.652 1.268 28.026.334 7.351-.727 14.76-.83 22.112-1.499 2.677-.246 5.355-1.118 7.893-2.075 3.436-1.297 4.81-4.458 6.035-7.628M714.353 96.667c-4.452-.625-8.884-1.56-13.362-1.804-11.003-.6-15.097 4.593-17.845 13.546-2.817 9.189-7.063 17.298-13.98 24.198-5.594 5.57-10.771 11.624-13.909 19.152-2.24 5.367-3.714 10.756-3.793 16.609-.043 3.406-.642 6.825-1.227 10.2-2.146 12.272-.159 23.777 6.265 34.461 2.494 4.146 5.044 8.277 7.822 12.235 4.758 6.786 11.409 10.802 19.48 12.515 1.256.263 2.521.482 3.781.72m-308.861 92.168c-.414-7.493-5.557-11.512-11.173-15.164-11.224-7.288-23.414-7.271-35.973-4.857-8.508 1.639-16.2 4.868-21.432 12.008-3.948 5.391-6.347 11.427-5.627 18.508.546 5.338 3.61 8.332 7.892 10.583 5.34 2.803 10.948 4.253 17.072 4.73 5.926.459 11.699.373 17.422-.858 7.729-1.661 14.614-5.284 20.555-10.475 3.072-2.684 5.865-5.721 8.497-8.841 1.252-1.481 1.828-3.532 2.708-5.325M627.206-33.04c-2.784 4.996-7.333 7.624-12.536 9.39-2.812.958-5.59 2.013-8.401 2.971-4.319 1.476-5.808 4.694-5.969 9.005-.314 8.407 3.19 15.648 6.873 22.8 1.797 3.485 4.202 6.648 6.208 10.03 4.563 7.715 11.398 11.238 20.194 10.6 8.161-.595 16.325-1.547 24.042-4.563 7.223-2.82 11.538-8.665 15.247-15.067 3.623-6.262 7.559-12.387 10.614-18.92 2.165-4.623 3.087-9.822 4.562-14.766M423.234-71.21c1.508 8.993 3.786 17.642 10.385 24.495 4.269 4.428 9.802 6.693 15.267 9.07 4.923 2.143 9.951 4.07 14.768 6.423 8.26 4.039 12.831 13.61 10.965 23.565-1.843 9.836-5.723 18.771-11.436 26.839-2.36 3.34-5.5 6.312-8.802 8.764-6.788 5.044-13.951 9.587-20.914 14.416-5.296 3.674-11.327 3.463-17.27 3.17a37.738 37.738 0 0 1-10.061-1.898c-5.464-1.828-8.088-6.123-8.913-11.71-1.358-9.2-2.844-18.377-4.243-27.571-.982-6.485-1.905-12.978-2.859-19.47-.532-3.62-1.962-6.592-5.684-7.934-2.445-.88-4.848-1.914-7.338-2.658-4.726-1.42-9.661-2.287-14.219-4.113-7.992-3.206-13.417-9.014-15.646-17.543-2.003-7.682-3.931-15.383-6.135-23.006-1.713-5.97-3.805-11.835-5.737-17.749" stroke="#F9FAFC" stroke-width="3" stroke-miterlimit="10" stroke-linecap="round" stroke-linejoin="round"/><path d="M711.319 112.741c-6.828.865-11.329 5.206-14.66 10.648-5.316 8.69-11.626 16.567-18.675 23.821-5.524 5.681-8.418 12.576-10.511 19.93-1.284 4.523-2.198 9.155-3.284 13.735-3.47 14.653 7.279 32.649 20.524 36.526 2.177.639 4.296 1.45 6.442 2.182M458.241-4.219c-.304-3.51.384-7.154-1.608-10.435-3.228-5.309-11.354-8.912-18.455-7.674-9.133 1.593-16.781 6.214-22.963 12.96-7.448 8.124-3.401 18.712 5.427 23.022 7.25 3.542 15.174 4.202 22.959.9 6.847-2.905 11.115-8.086 13.309-15.107.352-1.142.846-2.236 1.272-3.35m52.741 471.147c4.876.451 9.595.492 14.356-1.455 10.348-4.229 12.313-16.751 3.111-23.645-7.641-5.724-16.25-8.778-25.76-8.713-8.746.06-13.616 7.399-11.595 16.058 2.229 9.533 8.697 14.312 17.423 16.983.734.224 1.399.682 2.091 1.028m133.977-.828c-5.997-.806-9.793 2.427-12.744 7.066-2.63 4.145-5.494 7.979-9.534 10.983-4.228 3.138-8.958 4.054-13.959 4.507-3.128.284-6.364.346-9.339 1.234-7.78 2.311-12.624 8.088-6.537 17.827 3.504 5.61 8.377 10.335 14.191 13.945 6.299 3.911 13.192 4.742 20.334 4.772 2.055.009 4.11.116 6.168.178M318.351 332.329c.333 3.875.851 7.739 4.281 10.247 4.061 2.973 8.664 4.939 13.695 5.157 7.717.34 15.012-1.338 21.097-6.43 2.728-2.28 5.219-4.891 5.914-8.644.709-3.828-.501-6.89-3.419-9.484-4.599-4.099-10-5.471-15.994-5.29-5.725.173-11.18 1.128-16.413 3.711-4.599 2.266-7.135 6.017-9.102 10.424M189.351 588.683c-.157-.897-.5-1.811-.437-2.7.506-7.209-2.36-11.81-8.842-15.442-5.791-3.247-11.901-5.393-18.283-6.995-5.099-1.276-10.063-3.303-15.225-4.036-9.289-1.315-18.664-1.655-28.042-.22-9.558 1.46-18.23 4.798-25.6 11.195M83.494 21.994c.072 4.844 3.204 7.511 7.035 9.455 9.524 4.84 17.419 1.923 23.377-4.708 2.363-2.628 4.676-5.338 6.75-8.198 2.32-3.198 3.038-6.62.713-10.316-1.942-3.095-7.667-5.103-11.067-3.656a214.582 214.582 0 0 0-13.952 6.513c-2.955 1.511-5.849 3.25-8.464 5.276-1.819 1.407-3.118 3.485-4.649 5.266m540.232 556.617c-4.097-.773-8.177-1.635-12.295-2.301-8.957-1.449-16.428 2.167-23.191 7.425-2.242 1.745-3.825 4.39-5.565 6.725-1.94 2.604-1.868 5.575-.573 8.332 1.813 3.848 3.911 7.567 6 11.27 2.229 3.959 4.619 7.831 6.9 11.76 4.12 7.084 10.166 11.959 17.505 15.374m-369.387-61.872c.623-4.824.179-9.392-3.812-12.77-3.861-3.268-8.272-3.343-12.751-1.44-3.762 1.601-6.376 6.043-6.181 10.237.279 6.131 1.969 11.874 4.935 17.225.573 1.042 1.51 1.924 2.4 2.745 2.217 2.05 4.212 2.237 6.44.223 3.777-3.413 6.529-7.548 7.961-12.506.334-1.145.84-2.238 1.272-3.351M60.478 564.198c-.229-4.561-.13-9.164-.757-13.663-.911-6.549-3.96-12.184-8.86-16.699-2.947-2.717-6.253-3.98-10.476-3.361-13.878 2.042-24.718 8.737-32.533 20.363-.698 1.037-1.286 2.147-1.92 3.222" stroke="#F9FAFC" stroke-width="3" stroke-miterlimit="10" stroke-linecap="round" stroke-linejoin="round"/><path d="M705.968 141.105c-5.661 5.786-11.729 11.234-16.876 17.443-6.126 7.383-9.695 15.815-5.602 25.636 2.324 5.569 7.178 8.143 12.426 10.185m-34.262 181.535c-6.376-2.463-12.748-2.079-18.981.368-7.099 2.785-7.449 8.758-3.097 13.3 5.152 5.385 11.076 10.041 16.665 15.013M188.925 149.93c-.965-5.437-5.263-7.704-11.03-5.267-3.589 1.516-6.845 3.754-9.009 7.334-1.385 2.291-1.23 4.305-.192 6.518 1.092 2.341 3.383 2.479 5.388 2.583 5.242.272 11.613-4.081 13.809-9.078.273-.615.648-1.184.981-1.773M49.133 562.057c-.994-8.328-6.321-13.165-13.834-14.968-5.009-1.2-10.292.231-14.419 3.937-1.72 1.542-3.252 3.29-4.87 4.943m381.687-76.802c-3.826-.689-6.677 1.136-8.822 3.923-1.177 1.534-1.257 3.614-.141 5.483 1.106 1.854 2.666 2.409 4.816 2.26 2.915-.194 5.176-1.419 6.859-3.66 2.818-3.757 2.156-5.958-2.338-8.262M150.899 581.426c-4.391-6.272-10.636-8.012-17.881-7.291-2.987.298-6.075.231-8.593 2.295M724.407 43.401c-1.734.541-3.568.88-5.186 1.672-4.134 2.02-6.69 8.575-4.721 13.36 1.241 3.008 3.635 5.542 5.505 8.29M491.353 304.595c-9.471.269-18.244 2.967-26.818 6.956-13.053 6.075-23.443 14.781-30.373 27.599-3.186 5.881-6.632 11.654-11.471 16.505-5.136 5.148-11.195 6.811-18.224 6.353-6.848-.444-13.783-1.955-20.543.072-5.273 1.583-10.567 3.411-15.451 5.91-10.795 5.522-22.258 8.672-34.085 10.775-7.086 1.26-14.258 2.289-20.864 5.26-7.559 3.391-13.326 9.111-18.612 15.366-7.736 9.167-15.074 18.717-24.022 26.767-5.693 5.121-7.515 11.214-6.81 18.684 1.246 13.219 6.392 24.171 17.637 31.62 3.47 2.3 7.371 4.355 11.367 5.351 8.237 2.05 13.47-.67 18.164-7.833 3.171-4.833 6.384-9.716 10.202-14.035 6.557-7.419 15.424-10.824 24.878-13.009 9.925-2.298 20.259-3.128 29.537-7.807a192.18 192.18 0 0 0 12.749-7.06c4.95-2.982 9.979-5.695 15.87-6.091 4.668-.314 9.116.434 13.728 1.696 6.294 1.723 12.811 3.684 19.596 1.662 6.316-1.883 10.271-6.169 12.647-12.014 1.668-4.098 2.96-8.352 4.366-12.551 1.973-5.888 6.569-8.69 12.097-10.447 7.59-2.412 15.317-2.782 23.064-1.15 6.09 1.286 11.361 4.383 16.504 7.88 5.848 3.983 12.048 7.313 19.218 8.68 7.858 1.496 14.503-.331 20.345-5.691 7.106-6.525 13.327-13.857 18.986-21.602 4.638-6.344 3.801-11.144-2.816-15.793-3.764-2.643-7.897-4.781-11.602-7.497-6.675-4.89-10.801-11.909-15.106-18.779-4.695-7.499-8.303-15.667-14.692-22.115-6.02-6.078-12.831-10.425-21.262-12.101-2.624-.521-5.249-.997-7.878-1.493M16.158 314.792c-10.085.721-17.794 6.153-25.549 12.066-11.98 9.137-21.63 20.737-33.117 30.339-11.858 9.91-25.694 15.74-41.225 16.334-17.109.655-34.255.539-51.379.859-9.414.175-18.835.355-28.231.919-7.454.447-14.975.973-22.285 2.381-9.741 1.876-18.063-.726-26.02-5.982-5.648-3.729-11.203-7.741-17.271-10.662-9.778-4.711-20.223-4.952-30.573-1.925-5.769 1.686-9.709 5.825-11.955 11.394-3.259 8.067-4.723 16.414-3.463 25.131 1.278 8.859 5.927 15.532 13.038 20.778 4.744 3.5 9.935 5.949 15.584 7.459 7.259 1.938 14.226.785 20.982-2.222 6.884-3.062 13.79-6.067 20.655-9.171 9.769-4.41 18.664-2.287 27.091 3.494 6.317 4.332 11.364 9.932 15.917 16.04 7.513 10.067 15.358 19.897 22.63 30.134 5.684 7.999 9.988 16.775 12.427 26.407 1.238 4.888 2.429 9.781 5.362 14.166 3.559 5.319 8.814 7.499 14.533 8.05 5.521.526 11.19-.18 16.768-.648 2.54-.212 5.052-1.07 7.532-1.79 8.517-2.486 12.858-1.066 18.123 6.044 2.34 3.164 4.486 6.494 7.06 9.454 5.79 6.641 12.752 11.402 21.671 12.98 6.937 1.225 13.542.089 19.486-3.287 10.535-5.976 18.44-14.583 22.856-25.983 2.359-6.102 2.938-12.488 1.377-18.99-1.926-8.054-4.06-16.087-5.446-24.235-.91-5.381-.4-10.99-1.003-16.444-.551-4.999-1.496-9.989-2.722-14.875-2.029-8.098-3.739-16.196-1.809-24.52 1.387-5.966 4.208-11.224 9.315-14.869 5.415-3.861 11.042-7.42 16.449-11.302 7.973-5.722 14.546-12.948 21.093-20.173 2.696-2.977 5.129-6.114 6.286-10.204 1.654-5.825-.248-10.583-3.881-14.716-4.403-5.002-9.39-9.494-13.83-14.471-4.381-4.907-9.806-7.262-16.173-7.902" stroke="#F9FAFC" stroke-width="3" stroke-miterlimit="10" stroke-linecap="round" stroke-linejoin="round"/><path d="M376.862 385.478c-15.969 1.464-31.127 6.065-45.983 11.871-7.562 2.953-13.717 7.582-17.099 15.091-1.291 2.863-1.94 6.2-2.078 9.353-.154 3.581 2.749 6.708 6.96 7.463 13.545 2.426 27.178 3.413 40.742.202 6.142-1.452 11.146-5.24 15.167-9.874 4.931-5.688 9.099-11.997 12.49-18.793 3.723-7.45-.313-14.113-7.675-14.85-.743-.075-1.47-.271-2.207-.41m-51.13-149.34c-7.865.238-12.331 8.822-12.568 15.919-.179 5.273 1.16 9.939 5.693 12.243 3.144 1.605 7.312 1.446 11.043 1.601 4.773.203 9.161-1.293 13.176-3.956 3.41-2.261 4.893-7.628 3.166-11.518-3.231-7.301-8.555-11.916-16.413-13.516-1.257-.257-2.521-.476-3.782-.714" stroke="#F9FAFC" stroke-width="3" stroke-miterlimit="10" stroke-linecap="round" stroke-linejoin="round"/><path d="M318.634 213.249c-9.379-.216-13.664 5.542-16.313 13.561-2.545 7.706-5.349 15.336-8.237 22.925-1.824 4.787-4.527 9.114-8.531 12.412-4.173 3.436-9.321 4.631-14.447 5.779-10.101 2.265-19.521 6.173-28.296 11.645-2.182 1.358-4.268 2.864-6.374 4.34-4.286 2.996-6.793 7.041-7.918 12.207-1.665 7.65-.588 14.806 2.808 21.752 6.35 12.981 25.632 18.52 37.364 10.074 6.105-4.403 10.852-9.976 15.843-15.392 4.285-4.649 8.259-9.585 12.538-14.241 3.977-4.328 9.572-5.681 14.956-6.538a372.827 372.827 0 0 1 31.023-3.611c5.547-.409 11.193.566 16.796.729 4.46.13 9.02.527 13.372-.192 5.304-.879 9.152-4.494 10.919-9.566 2.872-8.231 3.95-16.749-.934-24.558-3.394-5.432-7.602-10.391-11.738-15.316-6.573-7.821-15.363-12.333-24.646-16.173-9.119-3.771-18.025-8.083-27.871-9.771m38.111 190.619c-4.849.136-9.235 1.619-12.954 4.756-2.578 2.177-2.098 5.962.823 7.643 4.761 2.752 13.189.746 16.062-3.823 2.407-3.835.903-7.383-3.616-8.516m282.503-139.257c-5.021.149-6.157 4.439-7.171 7.805-1.69 5.596-2.533 11.482-3.33 17.298-.282 2.048.333 4.358 1.044 6.365 1.029 2.917 3.61 3.874 6.883 2.964 10.669-2.954 17.609-15.066 10.38-27.403-1.783-3.039-3.984-5.727-7.483-6.974m-452.365-140.2c-4.335.488-8.844.374-12.974 1.573-12.899 3.734-21.895 12.351-27.052 24.525-2.533 5.984-2.237 12.718-.75 19.057 3.13 13.365 8.431 25.855 16.467 37.059 3.655 5.089 8.805 8.516 14.767 9.85 7.598 1.701 14.603-.828 19.938-7.204 4.416-5.27 5.399-11.345 2.977-17.677-3.356-8.78-1.292-16.74 2.71-24.667 2.429-4.809 5.031-9.638 6.604-14.753 2.174-7.058 1.154-16.389-8.432-22.115-4.336-2.588-8.836-4.893-13.951-5.597m94.373 6.721c-7.209-.473-13.153 2.59-17.971 7.432-8.292 8.344-7.526 17.086-.141 24.681 6.517 6.7 14.702 10.301 23.933 11.371 5.015.581 10.6-3.555 11.742-8.842 2.518-11.647-.834-21.804-8.547-30.636-2.249-2.579-5.413-3.489-8.7-3.953M25.321 81.192c-4.01.666-4.694 1.94-3.752 5.839 1.072 4.42 6.655 9.422 11.245 7.932 1.557-.503 3.768-1.287 4.173-2.463.485-1.397-.211-3.69-1.184-5.002-2.494-3.356-6.065-5.323-10.167-6.247" stroke="#F9FAFC" stroke-width="3" stroke-miterlimit="10" stroke-linecap="round" stroke-linejoin="round"/><path d="M610.744 176.99c-12.543.401-20.941 7.714-28.335 16.835-4.381 5.4-4.483 11.197-1.475 16.981 2.736 5.255 6.728 9.664 11.458 13.305 5.112 3.942 10.557 7.502 15.347 11.801 8.133 7.299 12.224 16.649 12.11 27.666-.066 6.469-.901 12.761-2.746 19.078-1.785 6.106-2.94 12.638-2.929 18.979.023 10.083 4.083 18.591 13.754 23.106 4.829 2.256 9.771.46 13.426-2.688 7.885-6.777 14.485-14.801 20.222-23.51 5.158-7.826 4.328-16.26 2.313-24.676-1.99-8.307-5.699-15.946-10.652-22.906-6.14-8.627-12.528-17.078-18.587-25.755-4.147-5.94-7.112-12.439-8.093-19.76-.74-5.525-1.506-11.081-2.8-16.502-1.571-6.583-6.071-10.48-12.697-11.894m-205.496-68.16c-3.458.437-6.925.788-10.363 1.328-4.702.738-7.433 4.106-8.913 8.109-1.313 3.565-1.67 7.499-2.244 11.301-1.209 8.029-2.668 15.901-9.014 21.819-1.141 1.064-2.117 2.361-2.978 3.674-1.53 2.329-1.342 5.798.244 7.214 1.503 1.341 6.073 1.165 7.9-.487 1.598-1.448 3.264-2.942 4.453-4.709 4.052-6.044 9.764-9.437 16.574-11.586 7.76-2.452 15.42-5.23 23.06-8.044 2.407-.89 4.687-2.216 6.882-3.571 6.532-4.035 5.549-10.102 2.02-14.509-3.423-4.275-8.393-6.688-13.766-7.892-4.486-.997-9.027-1.736-13.547-2.589" stroke="#F9FAFC" stroke-width="3" stroke-miterlimit="10" stroke-linecap="round" stroke-linejoin="round"/><path d="M402.626 93.32c-1.843-.022-3.69-.097-5.538-.06-13.346.262-21.044 7.915-25.569 19.647-1.832 4.759-3.396 9.621-5.365 14.315-2.672 6.376-7.439 11.365-11.585 16.764-2.95 3.837-5.637 7.905-6.325 12.828-1.122 8.02 1.006 14.767 7.558 20.103 5.721 4.657 12.261 7.464 19.106 9.69 7.282 2.373 14.706-1.86 18.569-10.152 1.502-3.222 2.851-6.564 4.787-9.522 5.121-7.833 12.605-12.485 21.626-14.49 5.301-1.18 10.734-1.845 16.126-2.538 6.295-.803 12.609-1.576 17.461-6.216 6.644-6.358 7.9-15.507 4.141-23.952-3.866-8.674-10.796-14.356-19.867-17.139-5.937-1.818-12.019-3.175-18.026-4.76-5.597-1.473-11.188-2.979-16.783-4.466m-14.908 277.893c-8.363.041-15.714 3.745-23.419 6.28-9.214 3.026-18.565 5.674-27.953 8.132-10.594 2.766-21.128 5.727-28.961 13.89-7.021 7.318-12.434 15.833-16.267 25.28-3.526 8.689-5.496 17.607-3.775 27.025.298 1.636.639 3.358 1.403 4.808 1.995 3.784 6.085 5.222 9.758 3.121 3.922-2.243 7.626-4.919 11.264-7.627 9.431-7.013 20.127-10.491 31.651-11.991 6.874-.896 13.772-1.82 20.513-3.368 6.162-1.416 11.95-4.305 16.596-8.586 8.692-8.007 18.023-14.804 28.864-19.737 7.485-3.411 9.167-8.453 7.108-16.499-2.358-9.225-8.926-14.583-17.152-18.173-2.908-1.266-6.191-1.684-9.303-2.486m98.837-55.118c-6.268.142-12.48.614-18.47 2.709-12.907 4.503-21.783 13.005-26.138 26.081-1.911 5.736-4.346 11.341-5.74 17.201-1.955 8.215-.331 15.004 9.964 17.528 7.749 1.9 15.608.791 23.396.446 9.505-.419 18.991-1.285 28.473-2.1 3.059-.265 6.162-.691 9.088-1.562 7.776-2.325 11.006-8.681 12.745-15.821 2.984-12.218-1.036-22.703-8.505-32.312-6.261-8.055-14.954-10.871-24.507-12.1M369.541 510.738c-7.312.213-13.579 3.469-19.577 7.128-7.512 4.588-15.597 7.723-23.888 10.46-8 2.642-16.1 5.337-23.017 10.129-6.968 4.827-10.922 11.836-10.572 20.741.127 3.268-.176 6.567.173 9.805.745 6.91 4.499 9.159 10.541 5.854 11.094-6.073 23.174-9.237 35.095-12.98 3.664-1.149 7.183-3.09 10.436-5.178 7.695-4.939 16.104-8.888 22.575-15.604 6.665-6.922 8.772-15.8 4.793-25.227-1.227-2.908-3.298-4.454-6.255-5.077m170.719-401.225c-8.734 1.517-13.303 7.398-15.214 15.413-1.409 5.909-2.252 12.004-2.77 18.069-.577 6.758 1.381 8.87 7.891 9.583 4.721.513 9.524.59 14.273.435 9.675-.315 13.757-4.545 13.787-14.631.014-5.089-.673-10.2-1.323-15.264-.57-4.416-2.898-8.269-6.525-10.534-2.803-1.749-6.505-2.056-9.805-3.006M275.207 280.777c-8.791-.602-16.643 2.127-23.808 6.956-5.281 3.56-9.986 7.666-10.94 14.556-.931 6.731 3.55 13.98 10.516 15.223 6.277 1.119 11.407-.811 16.018-4.112 6.423-4.598 11.886-10.336 15.463-17.56a27.63 27.63 0 0 0 1.949-5.174c.98-3.777-.201-7.617-5.105-9.097-1.223-.368-2.518-.495-3.778-.733M81.965 246.264c-4.437.507-7.944 2.352-10.69 6.109-4.413 6.055-4.488 13.058 4.049 17.045 6.256 2.924 14.69 1.996 17.057-5.848 2.296-7.596-2.284-15.289-10.107-17.248" stroke="#F9FAFC" stroke-width="3" stroke-miterlimit="10" stroke-linecap="round" stroke-linejoin="round"/><path d="M399.961 79.761c-2.285.006-4.576-.067-6.858.024-10.73.436-18.925 5.052-23.993 14.716-3.105 5.936-6.462 11.758-9.176 17.872-3.88 8.726-9.863 16.044-15.082 23.879-3.242 4.865-5.76 10.18-6.645 15.737-1.571 9.881-1.065 19.892 4.229 28.816 3.541 5.969 9.176 10.075 15.022 13.587 6.139 3.685 12.444 7.185 18.978 10.09 8.426 3.744 14.495 9.772 19.198 17.436 2.771 4.518 5.325 9.178 8.237 13.598 5.434 8.252 7.601 17.454 8.594 27.101.993 9.685 1.955 19.391 3.375 29.02 1.489 10.099 5.389 11.226 14.5 9.264 8.941-1.929 16.273-7.158 23.171-12.678 6.897-5.52 12.262-12.537 16.164-20.658 4.173-8.691 4.603-17.436 1.659-26.465-4.006-12.29-12.636-21.074-22.293-28.98-10.008-8.195-20.613-15.51-32.133-21.503-6.817-3.552-9.702-10.539-5.721-17.974 2.651-4.95 7.427-7.254 12.651-8.331 4.388-.908 8.893-1.396 13.367-1.753 14.051-1.128 24.812-7.401 31.803-19.816 5.045-8.957 10.227-17.836 15.123-26.867 1.802-3.322 1.066-5.889-2.445-7.557-3.624-1.722-7.55-2.816-11.2-4.503-6.141-2.85-12.115-6.06-18.257-8.897-2.733-1.26-5.654-2.176-8.571-2.942-11.123-2.909-22.553-4.642-33.159-9.457-3.169-1.44-6.812-1.814-10.239-2.683m-86.173-18.893c-9.896 1.141-13.174 7.58-15.18 15.093-1.292 4.841-1.97 9.85-2.857 14.795-1.678 9.377-6.283 16.792-14.282 22.13-8.08 5.388-16.252 10.674-22.981 17.831-5.506 5.861-8.908 12.713-9.374 20.752-.225 3.888.902 7.606 3.025 11.055 5.27 8.567 13.152 14.121 21.588 19.023 5.235 3.044 10.448 6.137 16.534 7.442 9.185 1.968 14.507-2.954 17.938-9.096 4.2-7.517 4.641-15.907 4.026-24.34-.53-7.294-1.615-14.581-1.617-21.873-.002-8.291 2.504-15.893 8.866-21.827 3.882-3.622 7.706-7.319 11.245-11.267 6.738-7.508 8.845-14.905 5.354-22.313-4.249-9.034-11.16-15.998-21.981-17.355" stroke="#F9FAFC" stroke-width="3" stroke-miterlimit="10" stroke-linecap="round" stroke-linejoin="round"/><path d="M499.653 84.216c-6.648.05-13.32.502-19.934.057-8.758-.596-17.474-1.908-26.207-2.883-5.223-.582-10.463-1.042-15.677-1.673-8.354-1.015-15.98-4.394-23.749-7.368-8.28-3.168-16.955-4.485-25.763-5.306-4.766-.442-9.463-1.707-14.19-2.6-7.375-1.391-8.735-.512-10.418 6.847-.38 1.665-.672 3.353-.958 5.042-2.658 15.916-9.197 30.055-19.106 42.781-3.611 4.639-6.793 9.672-9.638 14.82-3.288 5.934-4.516 12.615-4.625 19.318-.117 7.224.436 14.463.717 21.691.503 12.798 6.81 21.887 17.917 27.854 5.423 2.917 10.807 5.898 16.334 8.605 8.779 4.294 16.831 9.535 22.785 17.421 5.2 6.896 10.755 13.539 13.933 21.809 2.498 6.483 2.781 13.215 3.308 19.934.628 8.017-.467 15.964-2.57 23.648-1.786 6.524-5.428 11.953-11.864 15.099-4.272 2.086-8.723 1.84-12.8.372-8.429-3.034-16.777-6.398-25.734-7.259-8.251-.794-16.45.172-24.584 2.045-5.569 1.279-10.934 2.728-15.787 5.892-8.656 5.638-13.587 14.088-17.683 23.133-2.763 6.098-4.555 12.516-5.685 19.157-.831 4.889 1.584 8.452 6.451 9.436 9.999 2.018 20.079 2.321 30.234 2.475 8.708.135 17.214-.244 25.658-2.685 7.057-2.043 13.567-5.233 19.564-9.2 10.063-6.659 20.693-11.827 32.302-15.021 5.867-1.615 10.307-5.392 14.199-9.756 7.337-8.231 15.964-14.652 25.344-20.428 13.743-8.445 26.915-17.781 37.748-29.973 3.093-3.484 6.375-6.801 9.422-10.319 3.801-4.4 5.003-9.663 3.829-15.238-2.328-11.047-6.337-21.491-12.39-31.061-4.036-6.388-10.232-10.567-16.032-15.154-5.639-4.465-11.395-8.868-15.466-14.969-4.66-6.99-3.006-10.771 2.206-15.251 5.774-4.962 11.702-9.776 17.139-15.096 4.507-4.41 8.226-9.623 12.609-14.168 3.969-4.114 8.159-8.089 12.641-11.636 8.006-6.349 13.259-14.327 15.944-24.127.798-2.912 2.232-5.67 2.819-8.607.685-3.455 1.055-7.04 1.001-10.563-.042-2.717-2.803-5.066-5.688-5.656-2.409-.487-4.834-.919-7.248-1.374" stroke="#F9FAFC" stroke-width="3" stroke-miterlimit="10" stroke-linecap="round" stroke-linejoin="round"/><path d="M308.116 44.15c-10.454 1.26-16.602 7.86-19.399 17.248-2.31 7.744-3.156 15.927-4.687 23.902-1.229 6.407-4.142 12.02-8.715 16.607-6.386 6.407-13.179 12.41-19.471 18.912-7.639 7.893-13.183 17.07-14.469 28.238-.691 5.979.321 11.686 3.543 17.027 6.385 10.579 15.898 17.799 25.735 24.721 5.162 3.638 10.516 7.024 15.548 10.833 5.039 3.811 8.001 8.972 7.852 15.465-.255 11.212-2.15 21.978-9.139 31.235-3.072 4.068-7.087 6.77-11.983 8.189-8.638 2.496-17.306 4.881-25.885 7.55-7.953 2.468-15.186 6.273-21.851 11.426-6.1 4.717-8.318 11.212-8.329 18.051-.013 9.58 1.352 19.192 5.959 27.921 5.74 10.882 14.532 18.397 26.17 22.173 13.23 4.299 23.027.951 31.612-10.295 4.092-5.357 8.165-10.751 11.876-16.37 7.895-11.95 19.218-17.882 33.107-19.497 7.088-.823 14.185-1.625 21.303-2.123 2.97-.209 6.015.261 8.992.673 6.356.879 12.68 1.994 19.038 2.894 7.134 1.007 12.233-2.28 15.863-8.097 3.668-5.875 4.721-12.459 5.017-19.283.302-6.928-.101-13.715-3.5-19.885-8.508-15.451-20.342-27.216-36.904-34.199-9.208-3.886-18.036-8.718-26.825-13.51-5.156-2.807-9.109-6.941-9.226-13.413-.042-2.267-.1-4.588.328-6.786 2.024-10.382 1.849-20.866 1.616-31.355-.203-9.06.435-18.079 4.765-26.152 2.871-5.353 6.561-10.414 10.622-14.948 7-7.825 11.876-16.475 12.783-27.022.556-6.404-2.05-11.967-5.978-16.75-6.466-7.865-14.134-14.417-23.062-19.405-3.732-2.088-7.738-3.38-11.993-3.902m241.425 538.404c-7.49.114-11.728 4.687-13.703 11.142-1.431 4.678-.814 9.534 3.188 13.338 3.897 3.699 8.541 3.479 12.659 1.547 3.604-1.696 7.08-4.447 9.564-7.576 5.077-6.392 4.036-10.629-2.62-14.999-2.567-1.686-5.834-2.296-8.78-3.393m-365.51-67.675c-1.635.017-3.269-.004-4.907.059-8.98.368-16.032 4.495-21.693 11.247-1.229 1.465-2.357 3.014-3.478 4.559-5.248 7.228-3.277 12.039 3.325 15.276 8.328 4.091 17.161 6.405 26.473 6.661 1.949.054 3.954.394 5.842.071 6.018-1.032 10.04-4.32 11.852-10.427 1.649-5.558 2.285-11.143.338-16.53-2.066-5.724-7.103-8.398-12.712-9.946-1.539-.427-3.149-.614-4.724-.911m253.066 58.203c-7.682-.216-15.157.619-22.517 3.16-4.685 1.616-8.536 4.205-11.793 7.696-3.365 3.615-3.4 12.793-.112 17.853 1.644 2.529 3.735 4.804 5.834 6.995 6.046 6.325 12.116 12.627 18.353 18.765 1.497 1.478 3.545 2.595 5.542 3.324 4.725 1.734 8.191-.268 11.235-3.983 4.156-5.071 6.492-11.014 8.63-17.015 1.76-4.935 2.923-10.095 4.236-15.18 2.612-10.141-2.344-15.946-10.452-18.919-2.82-1.035-5.757-1.766-8.635-2.635M629.337 81.926c-6.26.138-10.173 3.923-12.379 9.114-3.215 7.553-2.48 14.696 4.582 20.337 3.074 2.46 6.995 2.92 10.975 2.17 6.153-1.157 10.835-4.418 13.884-9.816 2.507-4.43.984-9.815-3.629-15.052-3.52-4-7.878-6.161-13.116-6.7M334.648-3.066c-2.305.107-4.651-.016-6.905.375-6.122 1.064-8.784 5.725-7.534 11.934 2.244 11.181 9.383 18.215 19.348 22.42 4.964 2.091 10.317 1.124 14.467-2.708 4.121-3.812 6.185-8.664 5.005-14.344-1.708-8.24-7.727-12.497-15.054-15.212-2.898-1.075-5.995-1.614-9.006-2.404m223.427 28.459c-3.174.178-5.285 1.784-6.768 4.592-4.278 8.07-3.995 16.427-.89 24.566 1.769 4.636 5.87 7.78 11.086 7.948 5.451.173 9.016-2.875 11.384-7.846 1.793-3.761 1.854-7.575.936-11.221-1.605-6.367-4.687-12.106-10.291-15.964-1.473-1.016-3.412-1.362-5.142-2.015m-78.93 302.358c-4.562.444-9.057.81-13.336 2.973-10.304 5.203-14.288 17.527-11.182 26.664 2.032 5.978 7.184 7.558 12.534 7.816 9.475.47 18.522-1.361 26.74-6.579 11.385-7.232 8.694-20.371-.527-26.609-4.271-2.895-9.176-3.162-13.914-4.206M177.253 274.04c-12.894 2.259-21.085 10.584-27.527 21.236-3.272 5.401-5.418 11.204-7.23 17.24-2.275 7.593-4.294 15.32-8.364 22.254-3.092 5.279-6.949 9.976-12.041 13.336-5.429 3.584-11.265 6.556-16.816 9.961-5.153 3.159-10.382 6.272-15.215 9.884-8.246 6.166-17.351 10.688-26.687 14.808-10.674 4.709-16.6 13.559-20.767 23.844-2.519 6.222-3.604 12.558-1.502 19.339 1.927 6.219 6.699 9.711 11.27 13.472 6.08 5.006 9.874 10.879 7.08 18.975-1.154 3.346-3.114 6.462-5.005 9.5-3.068 4.911-6.17 9.828-6.783 15.705-.83 7.853-.058 15.63 2.828 23.029 1.707 4.376 5.082 5.62 8.785 2.911 3.984-2.916 7.432-6.555 11.088-9.912 1.636-1.506 3.095-3.221 4.82-4.613 6.245-5.036 12.973-5.751 21.109-1.265 3.731 2.056 7.52 4.011 11.253 6.054 8.68 4.752 17.709 4.609 26.519.99 8.336-3.42 16.359-7.611 24.437-11.636 8.323-4.154 15.917-9.764 24.918-12.563 4.244-1.321 8.582-2.376 12.779-3.829 9.201-3.199 14.519-10.485 18.836-18.621 3.834-7.24 4.258-15.267 4.758-23.242.284-4.515.402-9.05.973-13.524.565-4.45 1.402-8.881 2.497-13.231 1.126-4.481 2.646-8.868 4.089-13.263 2.684-8.202 4.941-16.393 3.158-25.209-1.478-7.316-5.387-13.204-10.752-17.912-10.176-8.931-15.312-20.384-18.172-33.216-1.72-7.727-4.808-14.955-8.626-21.845-2.711-4.898-5.714-9.636-8.697-14.377-1.522-2.415-3.727-3.98-6.691-4.22m246.654-56.589c-6.241.036-6.8 3.69-5.749 8.047 1.001 4.138 2.47 8.189 3.123 12.372 1.016 6.511 1.463 13.104 2.257 19.651.768 6.346 1.035 12.781 3.929 18.719 2.352 4.831 5.289 6.286 10.529 4.912 9.298-2.43 14.48-9.103 16.934-17.713 4.03-14.156-1.672-25.416-11.928-34.858-5.449-5.024-11.467-9.175-18.786-11.072" stroke="#F9FAFC" stroke-width="3" stroke-miterlimit="10" stroke-linecap="round" stroke-linejoin="round"/><path fill="url(#paint0_linear)" d="M-348.001-241h1068v817h-1068z"/></g><defs><linearGradient id="paint0_linear" x1="-237.518" y1="-241" x2="290.69" y2="566.787" gradientUnits="userSpaceOnUse"><stop stop-color="#fff" stop-opacity="0"/><stop offset="1" stop-color="#fff"/></linearGradient></defs></svg>