<svg width="1440" height="700" fill="none" xmlns="http://www.w3.org/2000/svg"><mask id="a" maskUnits="userSpaceOnUse" x="0" y="0" width="1440" height="700"><path fill="url(#paint0_linear)" d="M0 0h1440v700H0z"/></mask><g opacity=".4" stroke="#F9FAFC" stroke-width="3" stroke-miterlimit="10" stroke-linecap="round" stroke-linejoin="round" mask="url(#a)"><path d="M1509.08 525.987c-11.99 5.084-23.8 10.632-36 15.137-13.08 4.833-26.7 7.88-40.74 8.272-9.92.271-17.67-4.711-24.83-10.85-3.59-3.076-6.93-6.457-10.6-9.434-3.94-3.194-8.34-4.827-13.7-4.526-5.97.328-12.14-.094-17.33-3.641-3.7-2.524-6.76-5.703-7.31-10.576-.48-4.298.51-6.596 4.28-8.433 1.97-.96 4.05-1.864 6.18-2.345 8.79-1.99 14.19-7.567 17.52-15.686 3.54-8.619 7-17.303 11.1-25.656 3.43-6.999 7.74-13.556 11.66-20.312 2.96-5.086 3.88-10.731 3.93-16.445.08-10.567-5.9-17.983-13.36-24.601-11.07-9.813-23.11-18.532-32.75-29.929-8.17-9.663-16.58-19.124-25.04-28.534-3.75-4.163-7.94-7.918-11.8-11.98-7.84-8.251-8.14-15.186-5.01-22.064 3.75-8.26 10.97-11.29 21.3-10.636 8.16.517 16.38 2.061 24.47-1.008 9.49-3.596 16.84-9.166 17.72-20.041.31-3.856-.22-8.197-1.75-11.714-5.22-12.043-7.33-24.469-6.97-37.548.3-10.948-5.04-18.562-14.82-23.644-8.37-4.348-17.05-7.309-26.39-7.423-14.64-.18-23.66 8.392-29.44 20.828-3.28 7.053-5.89 14.416-8.56 21.734-3.69 10.098-10.4 17.842-18.75 24.185-8.78 6.667-16.96 14.038-23.87 22.533-4.81 5.917-9.06 12.584-10.62 20.383-1.48 7.366 1 13.17 6.67 18.076 7.83 6.777 17.2 10.785 26.21 15.483 6.31 3.299 12.71 6.483 18.76 10.217 7.04 4.335 9.32 11.379 8.69 19.205-1.14 13.99-.08 27.479 6.02 40.429 3.17 6.728 5.74 13.781 7.95 20.892 2.27 7.271 3.78 14.77 5.6 22.175.21.878.38 1.809.36 2.713-.24 10.062-5.6 14.207-15.58 12.536-8.82-1.479-17.04-4.802-25.52-7.348-9.74-2.912-19.74-4.411-29.37 1.31-11.27 6.699-22.66 13.201-34.11 19.585-11.55 6.444-22.26 14.017-31.27 23.709-3.86 4.148-6.95 8.987-10.56 13.377-5.35 6.521-10.24 13.481-18.21 17.339-6.05 2.932-12.53 4.318-19.01 4.594-12.73.534-24.07 4.848-35.07 10.719-10.71 5.719-21.45 11.585-33.51 13.878-10.8 2.062-21.7 4.043-32.65 4.789-18 1.223-32.77 8.216-44.644 21.697-6.915 7.857-14.078 15.535-22.984 21.191-5.361 3.406-10.975 6.473-16.717 9.19-10.313 4.888-15.768 12.906-17.84 24.022-1.957 10.512-1 20.86-.059 31.293.485 5.373.476 10.839 1.475 16.107 1.473 7.8 6.246 13.63 12.852 17.874 10.852 6.978 21.53 14.266 32.766 20.567 6.053 3.39 12.921 5.816 19.731 7.268 13.22 2.813 26.08-3.631 31.83-16.275 4.01-8.794 7.3-17.97 13.48-25.754 6.29-7.921 13.96-13.74 23.54-16.587 12.75-3.794 25.77-6.681 38.5-10.547 9.78-2.97 19.17-7.204 28.92-10.229 9.65-2.986 19.3-1.182 28.71 1.802 9.83 3.126 19.76 6.463 30.14 5.979 14.71-.681 23.48-9.881 29.45-22.51 3.29-6.937 6.54-13.941 10.56-20.458 4.82-7.828 12.86-9.502 21.37-8.735 11.03.988 20.63 6.371 30.67 10.479 9.94 4.081 20.17 7.556 30.91 8.974 15.22 1.999 27.62-2.637 36.97-15.412 6.1-8.32 13.01-16.134 21.71-21.926 9.17-6.109 19.13-10.003 30.45-9.773 7.09.148 12.92 3.242 18.5 7.082 7.83 5.383 15.67 10.76 23.37 16.331 9.1 6.587 18.06 13.365 27.08 20.075 1.82 1.349 3.6 2.735 5.4 4.105M584.369 804.719c12.503-11.255 24.248-23.262 34.972-36.211 5.149-6.207 10.508-12.267 14.08-19.75 3.72-7.798 4.904-15.705 3.49-24.049-1.379-8.117-3.394-16.125-4.564-24.274-1.412-9.851-2.582-19.772-3.195-29.702-.656-10.679-1.728-21.304-5.311-31.336-5.714-16.025-1.511-28.812 10.684-39.976 11.673-10.689 22.863-21.901 34.493-32.642 4.879-4.502 10.129-8.679 15.574-12.483 9.331-6.502 16.567-14.757 22.195-24.532 4.103-7.118 9.994-10.812 18.408-11.19 7.061-.317 14.259-.422 20.966-3.398 8.739-3.879 15.132-9.904 18.602-18.993 3.384-8.867 3.031-18.254 4.464-27.393 1.451-9.32 5.349-17.967 12.007-25.07 6.878-7.334 14.088-14.421 20.4-22.216 8.769-10.813 7.808-19.363 1.255-29.638-2.96-4.642-6.521-8.903-9.772-13.352-9.266-12.674-13.781-27.344-18.16-42.174-3.153-10.674-6.058-21.495-11.564-31.379-3.552-6.366-10.994-11.087-18.349-10.429-10.511.935-20.995 2.149-31.491 3.281-16.564 1.794-26.458-6.66-32.57-18.942-3.345-6.716-6.539-13.43-11.794-19.042-7.014-7.505-21.193-8.532-29.598-3.011-7.961 5.225-13.649 12.141-18.119 20.125-5.626 10.048-12.949 18.34-22.392 24.873-2.942 2.037-5.702 4.374-8.345 6.793-9.239 8.442-9.14 23.336-.127 33.423 10.731 12.016 21.202 24.186 29.955 37.804 4.409 6.864 10.028 12.933 14.677 19.648 7.982 11.532 11.849 24.308 9.943 38.427-.716 5.288-1.326 10.719-3.079 15.706-2.416 6.872-7.932 10.866-14.71 13.652-11.033 4.54-22.204 9.116-31.417 16.953-10.977 9.339-21.806 18.874-32.302 28.744-9.54 8.967-18.412 18.641-27.834 27.727-11.384 10.981-25.627 15.709-41.001 16.388-13.312.591-26.68-.159-40.021-.349-10.255-.145-20.517-.204-30.768-.551-8.876-.3-17.758-.759-26.613-1.495-14.324-1.196-28.597-2.664-43.02-1.091-11.947 1.299-22.854-2.585-33.308-7.98-10.439-5.382-20.743-11.057-31.418-15.937-6.591-3.017-13.919-4.417-20.63-7.218-8.394-3.507-16.825-7.144-24.652-11.743-14.345-8.421-28.362-17.362-44.245-22.776-7.058-2.408-14.119-4.807-21.055-7.536-6.395-2.512-10.345-7.605-12.801-13.844-2.113-5.346.15-12.335 4.714-15.865 5.801-4.478 12.562-6.853 19.378-9.094 8.696-2.856 17.676-4.926 25.643-9.719 4.914-2.952 10.002-5.616 14.827-8.709 6.682-4.286 14.085-6.133 21.688-4.928 5.676.904 11 3.857 16.594 5.522 9.727 2.894 19.428 5.968 29.334 8.102 11.226 2.427 22.226 5.35 33.207 8.745 8.65 2.664 18.078 5.836 27.17.551 2.993-1.746 6.359-3.368 8.518-5.932 8.035-9.541 19-13.115 30.448-15.743 7.576-1.736 15.202-3.454 22.893-4.445 11.026-1.42 21.369 1.573 31.521 5.764 7.928 3.269 15.958 6.742 24.927 5.665 12.783-1.529 21.397-9.277 28.308-19.356 2.836-4.139 4.263-8.711 1.194-13.381-1.398-2.125-3.05-4.306-5.076-5.764-6.506-4.685-13.284-8.997-19.885-13.55-13.849-9.553-20.887-22.768-20.706-39.612.119-10.726 3.147-20.834 6.573-30.954 5.693-16.8 7.332-34.127 4.072-51.664-1.724-9.275-3.752-18.529-6.269-27.619-3.321-11.976-10.386-20.566-23.36-22.98-13.206-2.448-26.319-5.672-39.622-7.23-9.577-1.12-19.406-.012-29.114-.019-8.189-.011-16.145-1.125-23.962-3.949-6.654-2.402-13.57-4.351-20.528-5.611-6.54-1.182-13.324-.981-19.957-1.765-7.462-.879-15.085-1.419-22.257-3.46-9.832-2.799-19.664-4.857-29.849-5.466-6.811-.403-13.606-1.077-20.418-1.613-1.017-.078-2.097-.334-3.048-.108-11.392 2.656-13.645 6.842-9.806 19.674 1.908 6.383 4.151 12.582 4.212 19.357.101 10.071-6.873 16.189-14.788 17.526-9.592 1.62-18.31-1.057-26.162-5.987-7.586-4.756-14.329-10.843-21.823-15.758-4.857-3.183-10.169-6.108-15.694-7.768-12.818-3.848-25.92-3.437-39.064-1.024-5.226.963-7.536 3.763-8.712 8.594-1.266 5.211-2.808 10.395-4.657 15.426-3.37 9.169-10.23 15.334-18.318 20.386-3.808 2.377-7.612 4.825-11.112 7.621-5.182 4.145-10.662 7.714-17.208 8.992-8.459 1.648-15.429-2.489-20.791-8.042-5.482-5.673-9.956-12.478-14.07-19.269-9.726-16.077-23.24-20.258-40.931-9.779-10.186 6.031-19.76 13.078-29.778 19.388-7.777 4.899-15.851 9.23-25.267 10.293-9.65 1.088-17.658-1.94-23.77-9.407-4.916-6.007-9.35-12.417-14.242-18.454-1.765-2.185-4.23-3.797-6.371-5.674"/><path d="M-58.937-131.917c18.362 4.286 33.43 14.105 45.22 28.499C-5.97-93.958.299-83.304 7.71-73.555c9.343 12.31 19.27 24.183 28.747 36.394 4.313 5.558 8.699 11.192 12.083 17.324 5.036 9.107 2.207 17.647-3.36 25.75-3.307 4.807-6.79 9.714-8.897 15.084-3.054 7.774-.32 15.53 3.694 22.15 7.728 12.738 17.62 23.449 31.774 29.515 10.443 4.475 20.766 3.417 30.914-.453 6.765-2.577 13.082-6.331 19.857-8.87 7.826-2.924 15.991-3.993 23.564.875 8.021 5.156 13.277 12.258 12.943 22.248-.183 5.644-3.536 10.144-6.654 14.608-4.619 6.624-9.772 12.952-13.77 19.931-6.615 11.547-9.083 24.343-8.468 37.581.442 9.43 6.143 15.903 14.388 19.311 8.712 3.601 17.906 6.095 26.994 8.683 2.87.815 6.095.551 9.151.475 3.774-.09 6.54-2.037 8.083-5.494 2.17-4.863 4.316-9.74 6.298-14.684 5.365-13.378 15.813-18.514 29.56-18.697 10.934-.141 21.864-.538 32.794-.839 10.46-.292 20.237 2.241 29.574 6.878 7.215 3.584 14.518 6.99 21.868 10.282 2.911 1.299 6.042 2.137 9.108 3.086 9.998 3.095 20.272 5.474 29.94 9.38 10.931 4.409 21.989 5.905 33.514 4.782 13.223-1.287 26.352-.811 39.538.76 7.373.88 14.931.173 22.335.891 18.912 1.841 35.148 10.469 38.547 33.253 1.707 11.512 1.918 23.244 2.809 34.876.638 8.348 1.821 16.701 1.72 25.042-.092 7.777-1.371 15.437-3.452 23.148-3.073 11.377-7.66 22.742-6.003 34.986 1.082 8.052 4.865 14.498 11.165 19.849 7.978 6.788 17.318 10.702 26.92 14.216 11.703 4.29 24.038 6.961 34.94 13.296 3.441 1.998 6.753 4.405 9.663 7.114 7.64 7.13 5.189 16.332-1.533 22.091-5.753 4.928-12.628 7.996-19.914 9.919-12.248 3.226-23.081 9.135-33.133 16.7-5.375 4.047-11.273 7.405-17.928 8.415-8.298 1.264-16.721 1.976-25.109 2.36-11.972.544-23.971-1.288-35.946 1.143-10.278 2.081-17.215 7.95-21.236 17.253-5.148 11.902-9.84 24.006-14.808 35.987-3.027 7.303-3.759 14.545.356 21.662 3.404 5.889 8.967 9.303 14.911 12.056 8.565 3.962 17.634 5.62 27.061 6.13 7.935.43 15.815 1.847 23.744 2.585 14.22 1.326 28.388 4.052 42.764 2.357 14.357-1.691 26.023-8.184 35.459-19.26 10.508-12.32 21.503-24.23 32.345-36.257 7.729-8.577 15.273-17.338 23.449-25.477 4.526-4.498 10.046-8.051 15.346-11.697 5.422-3.73 11.633-6.411 15.463-12.126 6.816-10.186 3.704-22.43-3.249-29.651-5.361-5.562-11.293-10.57-16.74-16.051-4.21-4.234-8.299-8.638-12.031-13.302-6.311-7.91-12.822-15.744-18.252-24.255-4.409-6.917-7.661-14.638-10.835-22.256-2.172-5.216-3.218-10.889-4.984-16.293-2.565-7.856.651-13.545 6.936-17.597 8.766-5.656 17.617-11.251 26.864-16.049 10.354-5.382 17.774-13.488 24.059-22.91 7.013-10.528 14.963-20.041 26.86-25.327 16.257-7.222 35.226-4.709 45.807 11.741 3.872 6.021 7.474 12.212 11.087 18.397 5.499 9.406 17.268 13.911 29.33 10.27 9.472-2.859 18.696-6.55 27.952-10.086 7.775-2.976 12.153-.66 15.958 4.732 3.639 5.157 5.205 11.017 6.823 16.834 4.749 17.121 9.091 34.342 13.739 51.488 4.015 14.797 11.615 27.509 22.143 38.684 4.525 4.805 8.647 10.204 11.933 15.92 4.652 8.101 3.455 16.455-2.238 23.678-4.801 6.095-10.212 11.732-15.562 17.371-6.593 6.948-13.085 13.967-16.991 22.842-1.513 3.435-2.495 7.148-3.397 10.804-2.41 9.827-3.768 20.012-7.142 29.48-5.065 14.22-15.746 23.765-29.28 30.249-7.707 3.695-15.442 7.394-22.854 11.621-4.584 2.61-8.423 6.506-12.913 9.318-7.452 4.678-14.873 9.564-22.82 13.267-15.23 7.108-25.833 18.898-35.114 32.287-2.617 3.774-5.265 7.525-7.856 11.304-7.313 10.665-8.001 22.255-4.725 34.38 2.844 10.537 6.155 20.976 8.419 31.641 1.317 6.201 1.155 12.757 1.359 19.154.341 10.619.489 21.238.628 31.854.115 9.202.006 18.378-3.759 27.068-2.644 6.114-7.062 10.88-12.146 14.832-11.64 9.064-21.018 20.256-30.503 31.358-2.173 2.544-3.991 5.402-5.976 8.114"/><path d="M-142.02 308.293c10.697 2.24 19.395 7.92 25.886 16.464 3.871 5.095 6.895 10.939 9.623 16.763 2.138 4.556 1.601 9.693.862 14.633-1.192 8.002-2.429 16.004-3.639 24.003-1.872 12.398 5.189 22.549 16.43 27.368 5.596 2.406 11.368 4.571 16.6 7.639 7.923 4.652 12.274 12.387 16.048 20.515 3.73 8.041 7.61 16.03 11.816 23.834 8.325 15.46 22.241 24.285 37.635 31.494 7.333 3.429 14.597 7.084 20.014 13.706 4.412 5.401 6.5 11.632 8.353 18.022 1.262 4.339 1.694 8.917 2.89 13.279 2.287 8.394 6.158 10.544 14.663 8.516 12.87-3.064 24.971-8.126 36.624-14.268 11.506-6.065 23.362-11.182 35.866-14.871 7.619-2.248 15.169-4.827 22.603-7.63 11.907-4.499 13.547-9.356 10.629-22.12-3.338-14.598-11.45-25.864-25.831-32.458-14.639-6.722-28.748-14.614-43.042-22.091-6.813-3.57-12.701-8.534-17.474-14.408-6.167-7.601-11.623-15.791-17.17-23.875-5.159-7.517-4.643-15.761-1.193-23.531 4.864-10.96 10.396-21.679 19.638-29.811 2.22-1.953 4.565-3.909 7.175-5.216 6.113-3.052 10.563-2.239 15.67 2.94 4.7 4.767 8.823 10.113 13.59 14.804 8.551 8.422 19.023 13.863 29.956 18.546 4.406 1.881 9.023 3.678 12.821 6.493 5.733 4.248 9.995 9.885 11.885 17.066 1.248 4.742 2.884 9.389 4.364 14.069 3.159 9.987 10.378 14.392 20.959 15.189 9.529.723 18.661.083 27.782-2.455 7.389-2.053 14.029-5.605 20.379-9.813 7.034-4.66 14.543-8.233 23.179-8.394 7.646-.144 14.525 2.891 21.386 5.783 10.251 4.324 20.403 9.167 31.5 10.644 12.034 1.601 24.196 3.226 36.351 1.2 6.446-1.077 11.726-4.71 16.284-9.237 9.156-9.083 18.382-18.109 27.186-27.523 6.606-7.06 13.887-9.848 23.555-7.529 10.799 2.585 21.826 4.243 32.75 6.304.707.134 1.418.294 2.129.402 10.203 1.493 14.928-2.377 14.662-12.647-.202-7.904-1.307-15.784-1.578-23.692-.491-14.078 2.125-27.755 6.407-41.1 7.537-23.488 7.927-46.906-1.503-69.875-4.603-11.213-12.671-18.696-25.284-21.853-16.208-4.064-32.383-5.591-48.971-4.648-13.576.772-27.009-.891-40.228-4.02-10.618-2.516-20.292-.179-29.24 5.557-10.835 6.949-21.451 14.231-32.27 21.193-9.888 6.369-20.903 9.74-32.27 12.595-16.329 4.096-32.98 3.784-49.517 5.063-7.589.587-14.421 2.869-19.698 8.637-4.325 4.739-8.588 9.525-12.854 14.328-13.898 15.657-31.166 23.332-52.191 21.851-7.223-.508-14.39-1.781-21.62-2.158-4.017-.211-8.096.659-12.129 1.141-3.04.362-6.042 1.038-9.077 1.329-10.244.968-18.594-3.756-26.404-9.427-13.595-9.867-24.337-22.661-35.3-35.223-4.943-5.669-10.37-10.458-18.5-11.631-7.15-1.032-13.271 1.261-18.85 4.652-11.335 6.891-22.268 14.456-33.308 21.835-6.892 4.607-14.272 8.293-22.278 10.204-6.934 1.654-14.001 2.049-21.31 1.154-9.014-1.11-17.464-4.089-26.207-6.03M988.006-70.132c3.077 10.193 9.991 17.617 17.984 24.055 7.64 6.15 15.45 12.156 23.56 17.656 12.69 8.603 18.64 21.056 21.47 35.452 1.99 10.174 4.29 20.447 12.62 27.303 5.21 4.28 11.69 7.134 17.84 10.113 9.34 4.521 18.37 9.171 23.83 18.65 5.94 10.3 8.15 21.263 6.51 33-1.33 9.564-4.17 18.7-7.78 27.64-1.34 3.335-2.05 6.94-2.91 10.464-1.71 7.075-4.5 8.569-11.25 5.804-10.7-4.382-20.38-10.538-29.86-17.072-11.02-7.6-21.95-15.35-33.25-22.51-9.36-5.928-19-6.168-27.558 1.819-2.942 2.743-5.392 6.143-7.562 9.56-8.665 13.673-12.076 29.131-14.693 44.818-1.113 6.694-1.749 13.523-3.468 20.059-2.447 9.273-9.274 15.595-16.287 21.634-6.444 5.548-13.773 10.275-18.282 17.722-3.688 6.085-7.605 12.215-10.028 18.839-3.012 8.249-5.144 16.93-6.683 25.598-2.877 16.177.49 30.859 11.938 43.319 4.491 4.895 8.226 10.476 12.585 15.505 6.337 7.307 14.804 11.877 22.732 17.156 7.112 4.737 14.003 9.715 17.837 17.854 7.997 16.968-1.05 38.646-20.904 40.771-13.05 1.4-23.256-1.99-30.687-12.987-.682-1.01-1.837-1.713-2.538-2.718-7.504-10.887-15.472-6.324-20.183 2.425-3.124 5.803-5.053 12.238-7.576 18.367-3.177 7.724-7.721 14.512-13.045 20.994-3.951 4.818-7.449 10.41-9.536 16.233-1.493 4.171-1.117 9.471-.159 13.973 3.515 16.509 7.536 32.956 14.175 48.52 4.463 10.463 12.046 18.878 20.501 26.408 10.773 9.59 19.814 20.697 28.863 31.857 6.282 7.738 6.49 15.466 1.631 23.738-4.734 8.074-9.438 16.181-14.283 24.19-7.401 12.254-10.218 25.734-11.041 39.811-.445 7.544-.644 15.142-1.709 22.604-1.363 9.514-5.933 17.936-10.597 26.201-1.682 2.98-3.764 5.744-5.56 8.668-6.537 10.626-16.661 14.879-28.478 15.259-17.594.569-33.563 6.408-48.932 14.257-11.895 6.07-23.434 12.825-35.378 18.781-9.54 4.76-19.855 6.896-30.566 5.712-7.464-.818-14.846-2.449-22.316-3.189-6.31-.626-12.774-1.978-18.858 1.618-7.405 4.378-12.198 10.431-14.22 18.947-1.748 7.35-1.057 14.667-.427 21.938.892 10.362-1.298 20.283-3.169 30.291"/><path d="M424.411-176.938c-3.502 8.509-7.565 16.861-8.425 26.186-.455 4.932-.936 9.956-.558 14.868 1.12 14.532 2.731 29.033 4.002 43.558.698 7.98 3.22 15.457 7.45 22.014 6.843 10.603 8.428 22.295 7.798 34.23-.694 13.211 5.922 20.72 16.818 26.155 5.214 2.606 10.44 5.47 15.003 9.048 7.775 6.088 10.063 15.082 10.848 24.427 1.298 15.5 3.686 30.65 9.927 45.144 4.847 11.276 6.032 23.174 2.276 35.181-2.088 6.669-4.184 13.337-6.42 19.952-2.59 7.65.782 17.537 7.936 21.259 6.456 3.361 13.347 5.861 19.829 9.174 8.782 4.488 17.272 9.547 26.041 14.059 9.092 4.67 18.655 7.683 29.112 6.896 5.627-.428 9.032-3.286 10.914-8.539 1.641-4.585 3.743-8.994 5.574-13.507 6.313-15.554 24.292-22.839 39.649-20.858 12.199 1.57 20.802 8.881 28.968 16.727 12.974 12.458 27.73 22.35 43.126 31.322 12.805 7.469 20.564 17.796 20.104 32.991-.249 8.233-3.914 15.319-14.554 12.217-6.554-1.907-13.14-3.732-19.591-5.946-6.493-2.23-13.135-2.637-19.843-2.325-10.446.498-20.792 1.861-30.597 5.689-7.557 2.948-13.146 8.312-17.48 15.157-4.776 7.547-9.343 15.3-14.874 22.272-8.833 11.154-21.182 17.483-34.436 21.692-14.765 4.691-29.775 8.622-44.707 12.796-3.993 1.116-9.187-1.548-10.673-6.008-2.187-6.542-4.253-13.21-5.462-19.981-1.786-10.019-3.454-20.149-3.87-30.28-.287-7.126 1.63-14.339 2.5-21.52 1.004-8.259.867-16.414-3.942-23.636-3.513-5.266-7.135-10.508-11.247-15.305-4.582-5.345-9.621-10.326-14.739-15.163-7.933-7.493-16.914-10.652-27.853-6.702-7.949 2.873-16.025 5.855-24.305 7.211-15.222 2.489-30.598 4.199-45.978 5.467-8.106.666-15.703-2.531-23.107-5.913-13.89-6.343-28.17-11.886-41.808-18.727-8.207-4.124-15.699-9.797-23.148-15.277-8.067-5.94-15.202-13.504-25.254-15.983-5.569-1.377-11.519-1.292-17.314-1.61-2.524-.132-5.808 1.197-7.071-1.502-1.402-2.989 1.579-5.098 3.418-7.176 13.913-15.69 32.275-23.837 51.573-30.398 9.827-3.339 19.856-6.437 30.264-6.034 12.492.488 18.605 2.065 22.493 14.589 1.273 4.094 3.979 7.885 6.599 11.386 3.076 4.117 13.709 5.62 18.304 3.093 8.777-4.825 10.292-10.94 4.497-19.389-2.2-3.202-4.683-6.35-7.591-8.884-5.368-4.681-7.579-10.301-7.3-17.338.597-15.266-3.329-29.693-8.374-43.942-4.221-11.925-6.394-24.337-6.64-36.958-.131-6.964.503-13.97 1.274-20.905.741-6.588-1.256-12.503-4.27-17.93-8.157-14.67-16.517-29.246-25.306-43.558-3.939-6.414-9.506-11.82-13.572-18.169-4.964-7.762-9.282-15.949-13.569-24.121-2.601-4.953-2.145-10.176-.285-15.45 2.965-8.374 5.583-16.874 8.365-25.308.509-1.527 1.143-3.02 1.727-4.524"/><path d="M468.685-168.583c-2.989 6.491-5.745 13.104-9.014 19.445-8.278 16.065-10.427 32.872-6.271 50.375 1.204 5.069 3.674 9.83 5.487 14.757 2.264 6.132 5.167 12.147 6.521 18.478 3.097 14.473 10.106 26.58 21.184 36.008C498.4-19.48 506.16-6.771 512.659 6.87c4.649 9.757 8.868 19.733 12.91 29.764 3.388 8.399 6.155 17.051 9.371 25.524 3.833 10.106 10.406 18.171 19.21 24.321 6.497 4.542 13.892 6.846 21.777 5.812 8.735-1.147 17.598-2.322 26.002-4.845 15.623-4.706 31.022-3.37 46.233.7 8.629 2.308 15.37 8.5 22 14.487 8.663 7.834 17.938 14.664 29.788 17.191 15.268 3.252 30.391 7.173 45.695 10.185 6.087 1.202 12.516 1.198 18.757.93 7.655-.328 15.129.298 22.637 1.68 7.097 1.313 14.26 2.514 21.445 3.13 8.876.767 13.932-4.39 12.977-12.877-1.086-9.667-2.433-19.303-3.771-28.938-1.226-8.785-5.049-16.279-11.054-22.87-7.839-8.596-16.386-16.25-26.192-22.553-16.019-10.298-32.365-11.76-49.725-3.274-9.015 4.41-18.868 5.548-28.784 3.377-3.124-.687-6.55-1.88-8.86-3.938-4.002-3.56-4.505-8.928-2.665-13.536 2.993-7.495 6.81-14.684 10.641-21.81 2.011-3.738 5.39-6.786 7.083-10.62 4.26-9.672 2.276-16.915-8.879-20.044-4.69-1.317-9.723-1.376-14.605-1.998-10.893-1.385-20.296-5.673-27.243-14.418-8.436-10.621-16.224-21.73-26.283-31.044-10.719-9.924-22.074-18.954-34.18-27.093-8.178-5.494-16.322-10.982-23.025-18.402-6.638-7.346-8.463-16.27-9.188-25.604-.269-3.481.098-7.019.171-10.532"/><path d="M440.161-173.966c-2.294 5.149-4.31 10.456-6.948 15.416-4.046 7.605-5.507 15.865-5.198 24.133.542 14.696.668 29.587 5.339 43.758 2.067 6.289 5.185 12.239 7.931 18.295 4.369 9.651 6.355 19.964 8.364 30.255 1.742 8.988 6.483 15.967 13.6 21.525 4.635 3.617 9.232 7.29 13.8 10.982 7.813 6.306 11.278 15.047 12.958 24.508 3.016 17.006 8.316 33.261 15.033 49.114 3.734 8.809 6.992 17.898 7.41 27.456.279 6.42-.838 13.042-2.252 19.363-2.308 10.313 1.125 17.495 9.835 23.116 8.513 5.495 17.518 9.452 27.541 10.78 7.364.975 13.109-2.835 18.148-7.572 12.508-11.748 27.334-18.729 44.173-21.089 17.998-2.529 33.306 3.173 45.831 16.471 5.136 5.449 10.413 10.801 15.99 15.778 10.746 9.594 23.77 12.59 37.816 12.031 8.61-.342 17.295-1.789 25.794-1.032 9.574.855 19.009 3.518 28.455 5.609 3.961.88 7.848 2.151 11.685 3.501 14.757 5.21 29.444 10.601 44.208 15.777 7.419 2.6 14.79 5.825 22.464 7.079 7.159 1.175 14.695.349 22.044-.046 6.468-.349 12.91-1.258 19.349-2.018 6.891-.816 8.576-2.173 9.529-8.766.89-6.163 1.301-12.408 1.794-18.62.593-7.392 1.135-14.794 1.544-22.195.608-11.119-2.517-21.382-7.827-30.999-4.947-8.967-10.405-17.66-15.137-26.745-4.285-8.225-5.132-17.335-5.228-26.498-.04-3.993.217-8.062-.458-11.964-1.919-10.997-6.923-12.937-16.777-11.138-7.599 1.388-15.16 3.188-22.827 3.955-8.303.822-16.103-1.955-23.671-5.217-12.892-5.555-24.572-13.103-35.571-21.73-7.504-5.887-10.809-13.839-11.073-23.236-.121-4.308.072-8.698-.724-12.888-2.266-11.873-11.28-17.842-21.359-22.002-10.65-4.4-21.708-7.809-32.621-11.57-10.497-3.622-20.408-8.393-30.016-13.972-12.476-7.248-25.309-13.868-37.899-20.935-11.077-6.208-22.343-12.162-32.933-19.125-11.015-7.237-16.972-17.955-17.536-31.368-.031-.35-.453-.685-.681-1.019M365.688 596.786c.201 6.828 4.991 11.073 8.923 15.793 8.746 10.477 17.648 20.825 26.206 31.452a396.41 396.41 0 0 1 16.902 22.581c12.299 17.718 23.607 36.015 32.307 55.849 6.555 14.931 19.112 16.798 31.446 10.273 5.74-3.035 10.776-7.384 16.28-10.896 3.449-2.206 7.097-4.154 10.797-5.907 10.489-4.978 19.277-2.34 25.536 7.015 5.227 7.812 10.009 15.927 15.483 23.556 4.776 6.651 10.605 12.072 18.636 15.21 9.042 3.532 19.631-.616 24.761-6.914 7.235-8.898 8.307-19.066 5.34-29.37-4.466-15.534-10.291-30.601-19.23-44.307-7.269-11.151-9.665-23.357-6.376-36.44 2.118-8.418 4.834-16.733 6.371-25.252 1.513-8.391 2.188-16.967 2.678-25.499.611-10.854 4.74-17.685 15.498-18.758 4.026-.405 7.972-1.688 11.964-2.513 16.685-3.465 29.91-11.727 39.095-26.518 4.284-6.908 4.928-13.356 1.531-20.495-3.254-6.822-8.207-12.299-14.685-15.867-8.722-4.811-17.166-2.402-25.15 2.617-12.085 7.595-21.871 17.441-28.952 29.826-5.941 10.404-13.945 17.729-25.951 20.789-9.876 2.519-19.44 6.242-29.163 9.354-13.542 4.332-27.604 5.346-41.653 5.728-17.949.492-35.934-.186-53.857.682-13.563.659-27.075 2.774-40.564 4.584-6.533.883-13.006 2.616-18.399 6.659-2.229 1.67-3.81 4.211-5.679 6.354"/><path d="M594.284-144.878c1.023 3.129 1.755 6.398 3.133 9.374 4.369 9.466 12.399 14.95 21.368 19.57 9.266 4.773 19.284 6.734 29.368 7.968 11.299 1.382 20.17 6.804 28.176 14.285 10.562 9.868 22.574 17.196 36.598 21.007a2251.923 2251.923 0 0 0 22.245 5.953c4.898 1.286 9.766 2.822 14.753 3.596 8.857 1.38 17.805 2.187 26.699 3.372 12.936 1.727 16.269 11.262 14.753 21.725-.911 6.274-2.766 12.414-4.3 18.58-3.572 14.395 3.345 21.803 12.832 27.65 14.339 8.826 28.702 7.947 43.404 1.49 2.856-1.26 5.732-2.481 8.627-3.663 9.468-3.866 18.911-3.344 27.277 2.229 7.152 4.762 10.041 12.441 9.744 21.071-.289 8.305-.554 16.623-1.199 24.905-.925 11.765 3.62 21.838 9.641 31.29 7.911 12.418 16.52 24.369 26.232 35.514 5.602 6.436 6.522 14.784 7.714 22.954a64.985 64.985 0 0 0 3.306 12.943c1.41 3.837 4.644 6.608 8.734 6.851 4.343.255 7.45-2.845 9.099-6.537 4.126-9.247 5.35-19.236 6.442-29.18 1.227-11.223.606-22.698 5.017-33.452 3.099-7.546 8.136-13.676 14.206-18.88 12.373-10.61 25.387-20.164 40.937-25.914 10.39-3.841 16.61-14.308 16.39-25.9-.13-6.877-.38-13.713-2.67-20.39-3.54-10.28-10.69-17.81-18.31-24.98-8.26-7.775-16.873-15.159-25.172-22.907-7.999-7.47-14.034-16.193-16.067-27.237-.127-.686-.611-1.297-.929-1.948M837.677 569.902c-1.462-1.599-3.569-2.957-4.281-4.838-3.611-9.552-2.104-19.082 5.691-25.715 4.191-3.565 8.688-6.834 13.302-9.835 9.567-6.21 13.191-15.041 13.417-26.188.192-9.478-.546-18.603-5.262-26.927-2.355-4.157-4.931-8.496-8.403-11.638-9.227-8.346-17.49-5.911-24.949 1.746-7.493 7.695-11.923 17.008-14.331 27.294-1.644 7.027-3.082 14.136-3.999 21.282-1.734 13.393-7.647 23.23-20.808 28.347-11.524 4.482-23.011 9.228-34.037 14.81-7.974 4.033-15.557 9.118-22.574 14.672-6.284 4.978-12.936 9.013-20.111 12.412-6.238 2.959-12.59 5.781-18.46 9.364-7.045 4.296-10.993 11.382-12.778 19.113-2.253 9.742 1.157 18.26 8.903 24.546 11.548 9.366 19.727 20.6 22.476 35.563.782 4.266 2.695 8.427 4.673 12.337 3.35 6.593 9.76 10.007 16.102 12.615 9.753 4.019 18.544 9.302 26.45 16.191 11.912 10.378 25.196 10.354 39.145 5.174 10.481-3.903 20.392-8.902 29.415-15.594 10.233-7.592 22.199-11.515 33.863-16.175 12.567-5.009 19.759-14.568 22.592-27.851 1.965-9.197.928-18.369 1.156-27.568.261-10.497 2.173-20.674 5.216-30.769a307.94 307.94 0 0 0 7.717-31.594c1.654-8.761-3.307-17.096-11.311-21.084-5.013-2.498-9.523.09-13.956 1.854-2.107.837-3.775 2.762-5.689 4.12-8.831 6.279-17.64 12.632-28.728 14.428M-55.401-150.651c5.152-.06 10.33.159 15.457-.231 8.283-.624 15.094.856 19.039 9.342 4.996 10.767 13.163 19.309 21.191 27.791 9.5 10.029 17.574 21.076 25.102 32.584 8.342 12.756 17.571 24.78 28.585 35.386 9 8.664 17.888 17.449 26.807 26.213 2.515 2.467 5.219 4.82 7.348 7.603C94.615-3.49 103.109-.652 113.54-1.399c15.501-1.114 30.527-4.01 42.962-13.735 6.993-5.47 13.048-12.37 18.688-19.312 10.173-12.506 22.678-21.063 38.025-25.944 5.872-1.863 11.472-4.81 16.909-7.778 6.999-3.82 10.842-10.493 12.984-17.778 3.047-10.395 5.564-20.978 7.719-31.602.976-4.798 1.14-9.961.604-14.833-.988-9.013-7.851-13.677-15.236-16.878-9.66-4.178-19.622-7.742-29.667-10.917-7.281-2.3-14.885-3.594-22.367-5.209-12.844-2.776-25.724-5.41-38.575-8.197-5.371-1.163-10.631-2.87-16.033-3.819-11.003-1.927-22.135-2.097-32.831 1.317-25.921 8.247-52.775 10.18-79.587 12.774a311.38 311.38 0 0 0-32.632 4.934c-5.641 1.158-9.786.693-12.916-4.359-5.369-8.65-12.865-15.232-20.64-21.55M1026.75 887.988c4.06-8.942 8.81-17.578 15.76-24.502 8.99-8.957 20.21-14.114 32.6-16.907 9.6-2.166 19.56-3.963 27.45-10.269 14.34-11.455 28.82-22.919 40.75-36.911 5.1-5.987 8.75-13.63 11.51-21.09 4.77-12.874 13.19-22.634 23.32-31.258 7.03-5.975 14.36-11.602 21.35-17.63 8.33-7.192 12.11-16.32 10.98-27.45-.8-7.927-5.59-12.914-11.88-16.739-9.69-5.884-20.17-9.891-30.91-13.549-11.88-4.04-23.4-2.115-34.87.35-12.36 2.658-24.52 6.325-36.71 9.72-11.27 3.137-20.43 9.054-24.99 20.398-1.85 4.599-3.45 9.313-4.86 14.074-2.17 7.358-6.37 13.357-11.92 18.454-11.79 10.808-25.57 17.273-41.69 17.608-7.84.161-15.696-1.04-23.55-1.191-8.691-.159-17.391.148-26.084.324-2.973.056-5.984.079-8.912.549-11.306 1.826-12.311 8.832-9.217 17.061 2.496 6.635 6.529 12.784 10.444 18.769 4.448 6.801 8.97 13.677 10.657 21.561 1.647 7.718 2.427 15.828 2.154 23.722-.461 13.378-1.139 26.688 1.431 39.933.279 1.42.063 2.94.086 4.408M-61.404-116.513c4.005 1.347 8.009 2.702 12.025 4.033 8.88 2.946 16.122 8.166 22.3 15.196 12.252 13.943 15.755 30.803 16.294 48.55.289 9.498 2.025 18.565 6.03 27.107C1.793-7.684 6.498 6.73 9.185 21.973c2.273 12.906 9.127 24.014 17.275 34.105 5.69 7.044 11.97 13.626 18.184 20.23C53.928 86.173 65.63 91.865 78.36 96.04c7.922 2.597 16.39 4.504 22.088 11.549 4.998 6.173 6.981 13.566 8.828 21.066 2.754 11.198 2.095 22.352-.199 33.48-1.957 9.48-4.133 18.91-6.209 28.368-.818 3.726-2.831 6.124-6.9 6.185-3.68.064-7.433.563-11.028.035-12.58-1.845-25.192-3.608-37.606-6.278-9.814-2.107-17.76-8.034-24.393-15.502-9.15-10.298-19.415-19.122-32.606-23.658-6.815-2.344-13.938-3.944-21.024-5.317-9.595-1.863-19.078-3.9-28.04-7.999-12.46-5.693-20.258-14.934-22.898-28.562-.949-4.923-2.568-9.752-4.303-14.48-2.31-6.309-6.844-10.789-12.755-13.906"/><path d="M454.642-171.233c-4.014 8.792-8.591 17.39-11.837 26.46-2.108 5.889-2.939 12.443-3.168 18.749-.397 11.353.262 22.72 4.558 33.504 2.979 7.485 6.215 14.868 8.93 22.443 2.767 7.718 5.2 15.575 7.498 23.443 2.563 8.799 8.551 14.964 15.016 20.937 5.497 5.076 11.01 10.208 15.926 15.836 6.004 6.874 8.31 15.73 11.375 24.113 4.207 11.49 8.148 23.08 12.507 34.51 3.791 9.957 7.554 19.97 12.136 29.565 3.779 7.918 8.313 15.572 13.32 22.778 5.165 7.438 13.585 8.939 21.982 9.025 11.642.125 22.701-3.476 33.819-6.368 11.65-3.04 23.348-4.8 35.238-2.062 9.626 2.213 18.307 6.585 25.719 13.195 6.724 6.005 13.036 12.504 20.04 18.147 3.398 2.74 7.822 4.483 12.05 5.863 9.437 3.077 19.365 1.68 29.059 2.504 4.479.378 9.018.485 13.429 1.264 15.211 2.712 30.455 5.342 45.531 8.673 8.491 1.875 16.675 5.095 25.016 7.666 6.526 2.008 13.013 4.175 19.621 5.837 4.606 1.152 9.375 1.955 14.113 2.223 9.877.559 17.141-4.525 22.946-11.922 6.15-7.824 10.4-16.511 9.875-26.768-.373-7.319-3.413-13.642-8.196-19.227-7.038-8.215-12.776-17.155-16.024-27.653-3.873-12.512-13.142-19.702-24.688-25.152-10.459-4.946-20.451-10.967-30.291-17.092-12.075-7.508-24.464-14.238-37.886-19.002-2.925-1.037-5.778-2.369-8.53-3.814-4.037-2.111-6.684-5.327-6.914-10.088-.336-6.959-.247-13.97-.997-20.884-1.298-11.902-8.349-19.582-19.217-23.908-7.595-3.02-15.363-5.034-23.662-5.497-12.362-.702-22.333-7.072-30.987-15.46-11.169-10.812-23.977-19.48-36.576-28.42-10.125-7.183-20.739-13.692-30.817-20.938-9.955-7.152-17.473-16.19-18.786-29.047-.353-3.55-.436-7.128-.644-10.695M1006.7 884.423c6.63-7.859 13.62-15.445 19.8-23.653 8.96-11.881 20.64-19.48 34.59-23.814 18.08-5.609 34.98-13.478 50.11-24.969 9.85-7.471 18.31-16.103 22.85-27.882 1.9-4.889 3.76-9.846 4.98-14.933 2.33-9.683 8.65-16.347 15.79-22.611 6.35-5.59 12.85-11.082 18.58-17.286 4.11-4.47 7.95-9.663 10.27-15.212 3.12-7.462-.34-16.343-10.45-22.686-12.73-7.984-26.53-7.873-40.41-5.229-8.69 1.65-17.61 3.291-25.1 8.763-4.51 3.285-7.26 7.484-8.2 13.029-1.29 7.623-2.65 15.312-8.01 21.398-2.54 2.881-5.2 5.721-8.16 8.151-21.42 17.554-46.52 26.625-73.37 31.627-4.65.861-9.25 1.968-13.82 3.116-10.044 2.522-15.767 8.082-14.666 20.097 1.544 16.817-.203 33.55.063 50.319.179 11.153 3.065 21.653 8.219 31.488 1.549 2.956 3.902 5.49 5.884 8.209"/><path d="M552.135-152.833c.124 13.223-.682 26.51 6.289 38.725 4.169 7.303 10.709 11.941 17.317 16.319 15.965 10.579 31.792 21.15 44.932 35.392 8.8 9.535 16.108 19.918 21.754 31.539 4.409 9.068 9.538 17.681 16.408 25.15 4.735 5.144 8.646 10.909 7.42 18.155-.777 4.536-3.012 8.902-5.003 13.147-3.068 6.537-6.727 12.795-9.711 19.357-6.475 14.218-17.707 20.793-32.92 22.622-8.462 1.013-16.717 3.917-25.01 6.135-7.114 1.903-14.154 3.695-21.653 2.545-11.345-1.745-19.015-8.483-23.761-18.285-4.233-8.735-6.865-18.244-10.989-27.047-5.59-11.918-12.263-23.327-17.863-35.24-7.07-15.01-19.172-25.83-29.921-37.84-5.192-5.804-9.265-12.349-11.307-20.123-3.287-12.49-6.982-24.871-10.538-37.288-2.96-10.338-3.347-20.622.976-30.679 5.032-11.713 10.261-23.345 15.401-35.02M350.681 760.394c5.261-11.335 15.143-16.648 26.315-20.43 4.983-1.687 10.225-2.876 14.161-6.957 5.657-5.863 7.284-12.619 3.56-19.565-2.01-3.739-4.77-7.197-7.715-10.283-8.845-9.297-16.686-19.145-22.03-31.009-2.586-5.735-6.763-10.8-12.636-13.972-7.298-3.943-14.397-1.932-21.3.91-5.326 2.196-10.408 5.011-15.583 7.579-8.785 4.356-17.71 6.137-27.691 4.218-11.385-2.193-21.67-7.035-32.277-11.153-11.774-4.568-23.712-8.364-36.539-7.213-4.799.434-9.501 1.937-14.25 2.945-3.674.779-7.321 1.784-11.027 2.266-3.997.525-7.281-1.603-8.907-6.072-1.757-4.847-3.011-9.88-4.298-14.885-2.736-10.684-8.714-18.681-19.06-22.962-8.826-3.649-17.75-2.344-26.48.32-8.095 2.476-15.868 6.379-24.109 7.946-9.648 1.829-19.645 1.865-29.5 2.589-11.455.845-22.912 1.372-33.778 5.917-9.182 3.84-12.649 12.26-12.742 21.025-.15 13.499 4.031 26.157 7.655 38.913 1.205 4.222 2.52 8.42 3.781 12.626M1009.8-66.46c5.78 7.8 14.43 11.709 22.58 16.05 14.03 7.472 22.25 19.315 27 33.906 2.12 6.5 3.4 13.268 5.15 19.885 3.75 14.244 12.34 24.146 26.11 29.699 5.41 2.184 10.74 4.76 15.7 7.83 9.88 6.125 13.73 16.285 16.53 26.857 2.42 9.153 3.92 18.473 3.55 27.99-.22 5.673-.48 11.353-1.01 17.003-1.2 12.745 5.3 22.102 18.14 25.512 12.05 3.202 24.28 5.659 36.04 10.118 9.16 3.485 18.77 5.544 28.89 3.504 7.7-1.554 13.42-6.179 18.71-11.196 7.72-7.325 14.76-15.352 22.11-23.074 7.25-7.626 10.86-17.191 14.31-26.839 3.94-10.985 5.13-22.364 4.65-33.954-.69-16.46-4.09-32.067-16.49-43.967-4.08-3.918-9.52-6.453-14.44-9.462-6.25-3.825-13.07-6.504-18.59-11.753-6.18-5.875-9.45-12.876-11.4-20.828M283.725-111.338c-10.418.441-17.162 5.852-20.283 16.453-1.921 6.534-3.344 13.231-5.57 19.654-3.554 10.237-10.703 16.763-21.267 19.892-7.557 2.242-14.953 5.132-22.268 8.099-10.82 4.395-19.002 11.863-24.511 22.225-7.255 13.63-15.043 27.001-21.65 40.939-4.851 10.239-.683 17.683 5.545 23.462 2.941 2.733 5.911 5.454 9.106 7.864 5.958 4.502 9.754 10.553 13.096 17.048 3.261 6.32 8.416 10.962 15.28 12.39 4.931 1.019 10.466.987 15.384-.121 18.279-4.108 36.627-8.158 54.543-13.568 14.427-4.35 28.68-9.781 42.254-16.293 12.558-6.034 15.982-14.505 14.5-29.643-.542-5.535-1.856-11.003-3.013-16.46-2.767-13.043-5.876-26.01-8.405-39.098-2.064-10.697-5.742-20.835-9.739-30.866-3.071-7.696-6.441-15.307-10.285-22.646-4.835-9.237-12.329-15.783-22.298-19.261M1485.64 648.985c-7.64-5.851-15.22-11.771-22.93-17.537-9.63-7.207-19.9-13.351-30.93-18.227-5.64-2.493-11.22-4.904-17.4-5.982-15.53-2.702-31.87 9.892-32.56 25.67-.26 6.115 2.11 11.704 4.59 17.215 1.29 2.881 2.5 5.894 3.13 8.968 1.37 6.617-1.92 12.274-8.59 15.547-4.35 2.134-12.78.718-16.14-3.098-3.64-4.144-6.82-8.703-10.41-12.908-4.4-5.151-10.56-7.744-16.61-10.11-9.37-3.664-18.89-7.039-28.56-9.8-10.98-3.138-22.08-6.072-33.31-7.953-7.85-1.314-15.19 1.242-20.11 8.34-7.33 10.608-10.57 22.378-9.68 35.199.55 7.89 4.62 14.028 10.43 19.191 8.79 7.804 18.72 13.752 29.82 17.364 6.13 1.995 12.82 2.216 19.09 3.858 5.68 1.486 12.2 2.206 15.06 8.53 1.2 2.652 2.11 5.858 1.83 8.678-.88 8.856-3.82 17.251-6.85 25.594-3.14 8.64-5.9 17.414-8.95 26.079-3.91 11.095-3.09 22.67-3.92 34.11-.79 10.942-2.24 21.903-4.4 32.66-2.52 12.549-.91 24.713 1.61 36.881 2.67 12.831 9.9 22.669 20.75 29.964 11.43 7.687 19.74 17.914 24.61 30.86M-146.275 330.859c4.429 3.772 9.041 7.368 13.26 11.365 7.949 7.549 9.51 17.499 9.76 27.811.208 8.522-.538 17.049 1.75 25.488 2.852 10.538 9.095 18.576 17.356 25.268 7.74 6.266 16.469 11.414 22.758 19.347 3.364 4.233 6.87 8.501 9.35 13.255 10.05 19.268 25.026 33.408 43.789 43.977 7.787 4.388 15.575 8.865 21.256 16.233C.65 523.511.25 536.936-9.749 546.645c-7.658 7.452-17.542 9.176-27.438 9.61-7.923.347-16.125-.16-23.84-1.89-10.093-2.266-20.033-5.385-29.438-10.079-8.002-3.997-16.046-7.957-25.022-9.784-9.401-1.906-19.371 3.866-22.638 13.047-2.92 8.187-5.276 16.605-7.407 25.047-2.405 9.519-4.917 19.089-6.229 28.797-1.768 13.105-3.197 26.521-.298 39.519 1.678 7.556 6.109 14.495 9.316 21.705.8 1.791 1.675 3.552 2.514 5.324M-93.864 55.486c11.918 6.747 23.412 14.11 30.689 26.153 3.092 5.107 5.607 10.705 7.472 16.383 3.538 10.782 11.1 16.592 21.661 18.946 4.503 1 9.171 1.634 13.77 1.7 8.005.108 15.145 2.876 22.243 6.058 9.26 4.155 15.833 11.374 21.971 19.128a1075.146 1075.146 0 0 0 14.298 17.689c6.127 7.391 13.702 11.969 23.477 13.39 10.761 1.573 22.463-6.28 25.453-17.356 5.287-19.601-7.41-39.139-26.04-47.285-10.508-4.593-20.78-9.689-28.167-18.957-4.912-6.165-9.731-12.4-14.573-18.614-4.153-5.325-8.265-10.687-12.42-16.003C-.846 47.98-3.852 37.65-6.013 27.094-9.09 12.043-14.327-2.164-22.422-15.155c-9.17-14.72-12.938-30.545-12.158-47.76.46-10.195-1.543-19.718-9.254-27.407-3.696-3.687-8.165-5.377-12.894-6.72-2.77-.787-5.663-1.112-8.506-1.649"/><path d="M504.021-161.914c-5.552 7.691-11.603 15.085-15.102 24.045-4.914 12.582-6.851 25.276-3.06 38.733 2.39 8.458 3.779 17.265 4.827 26.007 1.477 12.36 7.108 22.752 16.066 30.562 14.235 12.413 22.69 28.259 30.779 44.74 6.829 13.9 14.424 27.44 22.254 40.804 6.555 11.193 14.863 14.366 28.313 10.705 7.288-1.984 14.471-4.579 21.88-5.897 18.264-3.237 27.449-19.757 26.147-37.012-1.225-16.219-5.777-31.769-13.523-46.281-7.036-13.18-17.402-23.292-28.658-32.753-11.241-9.45-24.207-16.209-36.47-24.07-7.048-4.522-13.878-9.4-16.899-17.739-.962-2.659-1.574-5.491-1.971-8.29-1.847-12.923-2.717-26.024-7.336-38.412M915.087 327.908c1.294-7.277-1.795-13.618-4.722-19.788-4.433-9.355-4.747-18.858-3.414-28.915 1.373-10.358 1.73-20.845 2.5-31.282.843-11.472-5.906-18.045-15.146-22.628-7.838-3.887-15.761-7.789-24.024-10.592-7.566-2.566-15.684-2.819-23.756-2.517-7.042.258-14.107-.061-21.156.054-7.298.122-13.527 1.636-16.939 9.528-4.113 9.506-9.27 18.559-13.912 27.832-5.168 10.329-5.869 21.334-4.838 32.596 2.039 22.183 8.082 43.428 15.739 64.203 4.55 12.339 13.45 21.717 23.388 29.986 8.712 7.243 17.602 14.15 24.795 23.135 8.051 10.047 16.695 6.387 22.88-3.583 4.535-7.3 7.123-15.78 11.323-23.32 4.251-7.619 9.132-14.934 14.258-22 5.103-7.044 10.243-14.001 13.363-22.213M-150.292 352.146c9.45 7.629 13.362 17.83 14.799 29.652 1.978 16.202 7.495 31.167 16.932 44.755 8.964 12.917 17.475 26.181 25.575 39.658 6.315 10.504 15.835 17.159 25.606 23.695 12.636 8.46 25.439 16.687 37.907 25.381 2.72 1.897 4.88 5.118 6.346 8.19 2.663 5.564 1.033 10.415-3.892 14.177-6.329 4.846-13.67 5.568-21.271 5.244-17.161-.743-30.536-10.145-43.946-19.36-5.315-3.658-10.255-7.853-15.461-11.666-7.103-5.211-14.972-5.427-22.832-2.466-5.079 1.916-9.936 4.571-14.622 7.346-5.411 3.203-8.792 8.085-9.365 14.484-.68 7.526-1.065 15.081-1.676 22.62-.303 3.752-.617 7.52-1.246 11.228-3.32 19.505-6.471 39.051-10.259 58.468-1.525 7.798-4.596 15.287-6.812 22.964-1.359 4.725-2.416 9.534-3.617 14.308M1232.04-24.518c3.47 6.661 9.2 11.472 15.31 15.032 16.11 9.38 25.29 23.784 31.46 40.566 4.94 13.436 9.38 27.087 16.43 39.618 2.5 4.43 5.62 8.528 8.59 12.678 9.48 13.225 12.93 28.373 14.64 44.198 1.1 10.163 2.68 20.285 4.42 30.366.8 4.666 3.77 8.013 8.06 10.445 8.05 4.561 16.63 7.619 25.48 9.985 6.28 1.679 12.59 3.391 18.99 4.432 18.42 2.989 32.84-2.621 42.45-19.246 2.93-5.064 5.9-10.103 9.02-15.043 4.86-7.681 6.44-15.486 1.87-23.923-4.65-8.584-8.99-17.341-13.67-25.913-5.59-10.253-11.35-20.423-17.14-30.58-5.18-9.09-12.54-16.052-21.56-21.263-9.61-5.553-18.05-12.155-22.63-22.78-2.96-6.881-3.07-14.053-2.99-21.314.01-1.47-.03-2.942-.04-4.417M519.661 792.506c-8.867-13.851-20.8-23.325-37.584-25.082-9.694-1.009-19.513-.896-29.232-1.725-5.884-.502-11.888-1.212-17.493-2.957-5.479-1.713-7.265-6.918-7.825-12.314-.753-7.179-1.699-14.359-2.06-21.561-.72-14.642-6.222-27.585-15.435-38.432-10.246-12.057-19.51-24.74-28.544-37.661-3.513-5.028-7.852-9.604-12.34-13.81-12.208-11.431-26.321-12.014-41.104-6.012-7.086 2.878-13.938 6.338-20.817 9.704-9.394 4.594-18.943 6.504-29.474 4.226-17.383-3.766-32.786-11.302-46.438-22.556-8.401-6.929-12.853-16.323-16.207-26.4a902.596 902.596 0 0 0-8.012-23.099c-.799-2.214-2.042-4.274-3.184-6.35-2.729-4.977-7.312-5.648-12.278-4.936-6.117.874-12.049 2.541-18.442 1.934-5.892-.557-11.119-2.39-15.616-5.848-5.064-3.91-9.56-8.542-14.412-12.738-4.495-3.89-8.993-7.808-13.733-11.383-7.775-5.85-16.922-5.742-25.633-3.833-13.12 2.886-25.092 8.668-35.211 17.852-5.705 5.184-11.922 9.857-17.29 15.36-3.468 3.561-6.121 8.042-8.563 12.431-2.626 4.708-6.206 8.353-10.608 11.164-12.439 7.925-22.898 18.023-32.348 29.22-5.246 6.214-11.531 10.874-18.99 14.043-3.72 1.582-7.4 3.277-11.076 4.956-3.253 1.493-5.857 3.515-7.574 6.912-2.108 4.161-2.131 6.855.784 10.333 4.413 5.259 10.701 7.354 16.589 10.22 9.78 4.765 20.091 8.951 26.99 17.907 3.725 4.838 6.646 10.292 9.938 15.464"/><path d="M56.88 705.167c-1.2-6.108-2.302-12.233-3.624-18.311-1.437-6.638-3.787-13.157-4.463-19.854-1.54-15.291 4.566-26.669 21.815-29.665 8.524-1.478 17.3-2.141 25.951-2.148 12.779-.005 25.118-2.358 37.528-4.848 4.445-.89 9.331-1.317 13.703-.421 8.2 1.688 12.16 7.806 12.827 15.903.606 7.257.692 14.557 1.252 21.823.864 11.212 4.473 21.338 13.587 28.507 6.497 5.106 12.24 4.814 18.554-.89 3.275-2.962 5.908-6.68 8.605-10.227 6.428-8.452 12.895-16.693 24.282-18.812 7.166-1.337 14.248-.97 20.8 1.88 11.49 4.999 22.741 10.561 34.027 16.033 12.629 6.114 25.433 7.375 38.814 2.538 3.918-1.413 8.195-1.928 12.353-2.563 4.812-.732 8.71 1.414 11.289 5.225 5.528 8.178 3.795 20.496-3.364 27.539-7.775 7.651-16.707 10.965-27.549 8.046-2.5-.675-5.14-.847-7.653-1.498-14.481-3.729-29.252-3.21-43.966-2.901-6.747.147-13.469 1.233-20.203 1.823-10.633.929-19.946 4.718-27.482 12.458M1271.21-17.125c14.52 20.977 23.33 44.921 35.02 67.365 3.98 7.657 9.08 14.836 14.39 21.675 7.31 9.412 9.19 20.261 10.3 31.573 1.22 12.461 1.78 24.929 5.13 37.21 5.2 19.112 30.76 30.195 48.05 22.303 8.61-3.929 13.16-10.946 16.72-18.986 6.36-14.372 3.04-27.97-4.25-40.844-4.52-7.986-9.71-15.623-15.01-23.123-5.45-7.713-13.72-11.629-22.28-14.805-7.96-2.957-14.93-6.821-19.36-14.64-4.77-8.44-9.41-17.04-8.76-26.873.63-9.616 2.83-19.14 4.34-28.695M788.468 702.148c10.452 1.25 19.222-2.703 27.651-8.396 7.791-5.258 15.839-10.15 23.969-14.867 4.278-2.482 9.269-3.789 13.434-6.424 12.065-7.626 12.598-19.932 6.217-30.836-3.974-6.791-11.382-7.58-18.643-8.078-11.874-.812-22.833-3.11-30.567-13.952-6.261-8.782-10.757-18.273-14.832-28.08-2.563-6.18-5.652-12.01-11.084-16.166-6.81-5.218-14.252-4.85-22.031-2.456-7.968 2.456-14.326 7.455-19.969 13.109-8.093 8.12-17.61 13.74-27.84 18.511-5.212 2.429-9.631 5.66-10.773 12.04-.593 3.283.567 5.874 2.124 8.276 2.437 3.766 5.004 7.549 8.099 10.77 6.628 6.885 9.831 15.567 12.895 24.187 3.509 9.86 9.758 16.885 19.076 21.104 11.235 5.092 22.228 10.527 32.428 17.548 2.738 1.893 6.202 2.741 9.33 4.063M1526.14 434.412c-1.82-7.106-3.3-14.316-5.55-21.285-2.56-7.907-9.17-13.114-14.5-18.987-14.38-15.854-25.86-33.54-33.74-53.342-2.63-6.616-3.34-14.174-3.96-21.382-.82-9.467-2.04-18.762-5.01-27.813-2.22-6.796-6.16-12.582-10.8-17.841-4.89-5.535-11.19-5.208-17.46-2.873-8.38 3.103-15.57 8.271-22.45 13.823-8.07 6.493-15.96 13.205-24.05 19.667-4.46 3.567-9.35 6.621-13.76 10.251-8.13 6.71-10.11 13.171-5.31 25.831 4.8 12.687 13.4 22.678 23.59 31.348 7.29 6.199 15.01 11.915 22.05 18.366 12.12 11.133 17.94 24.832 14.18 41.396a201.452 201.452 0 0 1-7.29 24.63c-6.57 17.965-3.59 34.796 5.62 50.794 2.72 4.729 5.59 9.458 10.58 12.887 8.06 5.541 16.39 6.039 25.32 4.1 11.03-2.38 20.3-8.215 28.89-15.253 7.86-6.427 15.67-12.906 23.51-19.364M726.738 487.242c5.544.2 11.346.387 15.22-4.252 2.926-3.496 5.437-7.598 7.094-11.844 4.542-11.638 9.664-22.938 17.392-32.819 4.426-5.646 9.458-10.816 14.022-16.357 5.022-6.098 9.033-12.774 7.007-21.102-.93-3.808-2.279-7.828-4.55-10.937-10.921-14.971-16.304-32.38-22.894-49.328-2.405-6.177-5.964-11.945-9.389-17.671-4.564-7.634-12.413-9.918-20.462-10.352-8.963-.492-18.024.796-26.995.346-13.139-.654-25.675-3.708-34.675-14.427-2.6-3.092-4.258-6.968-6.496-10.388-1.623-2.476-3.241-5.021-5.285-7.135-4.071-4.216-9.936-3.93-13.253 1.026-2.359 3.532-4.114 7.645-5.327 11.737-2.249 7.617-3.557 15.527-5.939 23.102-1.245 3.98-4.115 7.415-5.899 11.259-3.516 7.554-1.781 15.28.677 22.534 3.622 10.665 8.108 21.141 14.978 30.154 11.431 14.987 17.065 31.95 19.118 50.414.58 5.242 1.623 10.368 4.551 15.038 3.234 5.152 7.614 8.906 12.874 11.592 11.103 5.649 21.64 11.958 31.125 20.247 4.654 4.071 11.057 6.126 16.668 9.098"/><path d="M371.968 764.41c5.375-5.59 12.734-7.437 19.583-10.13 5.258-2.068 10.384-4.046 14.361-8.348 7.371-7.982 8.363-17.442 6.415-27.448-2.106-10.802-8.241-19.271-15.967-26.928-7.584-7.516-13.808-16.124-19.227-25.444-3.766-6.487-7.828-12.906-13.994-17.941-10.077-8.233-20.759-8.45-31.902-3.983-9.396 3.764-18.39 8.53-27.617 12.75-5.462 2.496-11.209 2.717-17.136 2.118-14.994-1.524-28.243-8.275-41.957-13.685-9.43-3.72-18.905-7.342-28.318-11.103-6.404-2.557-11.413-6.95-15.235-12.583-4.781-7.049-9.69-14.025-16.769-18.941-5.887-4.082-12.392-6.994-19.588-8.203-5.839-.978-11.616-2.324-17.47-3.217-4.012-.607-8.113-1.073-12.151-.935-4.66.161-8.74 2.248-12.089 5.557-8.206 8.107-17.321 14.447-29.328 15.179-7.27.444-14.548.879-21.824 1.163-10.046.388-20.111.455-30.15.985-13.662.72-21.91 8.863-25.81 21.125-1.887 5.931-1.056 12.552 1.083 18.696 2.502 7.209 4.881 14.457 7.392 21.667 3.027 8.675 6.13 17.329 9.194 25.994M563.221 461.233c-.484-9.024-3.623-12.994-10.768-12.984-3.307.002-6.768.257-9.898 1.236-7.657 2.399-15.316 4.904-22.676 8.065-9.605 4.122-19.741 5.313-29.893 6.069-16.843 1.266-33.177 4.505-48.415 11.797-9.13 4.361-15.871 11.44-19.146 21.412-2.233 6.783 1.284 17.632 7.109 23.025 5.698 5.273 12.667 8.061 19.757 10.113 11.656 3.373 23.48 6.416 35.429 8.424 12.076 2.032 23.812-.206 33.641-8.086 6.463-5.183 11.385-11.872 15.578-19.044 5.417-9.268 10.481-18.762 16.377-27.719 4.671-7.09 9.857-13.819 12.816-21.884M655.014 353.339c-.797 10.106 3.22 18.588 8.558 26.791 4.669 7.177 7.826 14.978 8.896 23.654.889 7.204 2.601 14.3 3.778 21.47 1.463 8.883 7.445 14.377 14.743 18.038 9.127 4.579 18.631 8.419 28.903 10.155 6.468 1.097 12.406-.181 16.936-4.096 11.66-10.101 19.644-22.924 24.382-37.611 1.94-6.027.645-12.109-1.449-17.883-4.947-13.64-9.939-27.28-15.294-40.769-1.679-4.232-4.231-8.232-6.98-11.89-5.98-7.98-14.748-9.882-24.088-9.872-10.03.021-20.049.308-30.077.461-13.221.203-22.371 6.351-27.329 18.651-.329.811-.611 1.648-.908 2.474M855.684-95.545c-3.052 2.951-5.906 6.16-9.215 8.79-3.992 3.162-8.281 5.985-12.622 8.658-5.219 3.221-7.952 7.89-9.196 13.731-1.892 8.902-4.124 17.74-5.794 26.684-.715 3.833-.82 7.896-.47 11.789.643 7.246 6.453 11.64 13.777 10.492 4.971-.781 9.935-1.899 14.739-3.382 9.177-2.836 17.925-.691 26.517 2.095 4.927 1.6 9.494 4.313 14.216 6.536 12.787 6.02 17.269 16.662 17.317 30.145.038 10.219-.137 20.582 1.425 30.621 1.872 11.993 10.23 19.62 21.315 23.82 4.971 1.881 10.222.27 14.854-1.986 6.835-3.322 13.746-6.629 20.069-10.788 11.427-7.517 22.527-15.545 33.59-23.607 4.144-3.019 8.044-6.462 11.614-10.144 9.86-10.168 8.55-19.77 2.64-30.674-6.3-11.63-15.652-20.784-26.094-28.954-6.063-4.742-11.915-10.035-16.764-15.976-6.564-8.064-9.556-17.72-8.443-28.339M1482.08 669.037c-10.49-8.302-20.76-16.888-31.56-24.756-4.51-3.286-9.93-6.028-15.33-7.213-7.78-1.698-15.83-.343-16.27 9.459-.32 7.328.03 14.678-.31 22.005-.22 4.756-.61 9.619-1.84 14.183-1.86 6.898-8.11 9.846-13.8 12.775-13.08 6.729-27.12 11.646-39.06 20.502-7.74 5.735-12.77 13.621-16.1 22.516-1.57 4.176-2.89 8.609-3.31 13.018-1.01 10.699 2.49 14.225 10.4 16.661 10.69 3.296 22.24 3.784 32.14 9.523 5.42 3.139 11.02 6.313 15.58 10.515 8.57 7.905 17.47 12.451 29.66 9.593 8.42-1.975 17.24-2.213 25.88-3.228M313.453 294.168c-6.253-.739-12.277.434-17.408 3.84-16.64 11.03-31.436 24.295-44.066 39.724-11.837 14.458-8.319 30.298 7.344 40.097 11.018 6.894 23.201 11.116 36.07 11.94 13.102.85 24.502-3.066 33.297-14.157 9.454-11.919 11.55-25.597 13.259-39.93 1.687-14.125-5.114-24.298-13.723-33.77-3.695-4.066-8.989-6.291-14.257-8.096M1109.87 424.193c-.03-8.048-2.9-15.063-7.32-21.708-5.53-8.345-11.18-16.616-19.71-22.115-11.92-7.689-24.76-13.481-39.05-14.838-9.49-.9-16.04 4.355-19.88 12.501-2.84 6.05-4.93 12.524-6.7 18.99-2.25 8.217-3.94 16.593-5.66 24.936-2.15 10.397 3.14 15.433 11.68 17.345 12.68 2.835 25.2 1.713 37.86.452 9.93-.983 19.94-1.122 29.87-2.025 3.62-.332 7.23-1.51 10.66-2.803 4.64-1.752 6.5-6.022 8.15-10.304M1118.61 508.731c-.56-10.123-7.5-15.552-15.09-20.484-15.16-9.846-31.63-9.823-48.59-6.561-11.5 2.213-21.89 6.575-28.95 16.22-5.34 7.282-8.58 15.436-7.61 25.001.74 7.212 4.88 11.256 10.67 14.296 7.21 3.786 14.78 5.745 23.06 6.389 8 .62 15.8.505 23.53-1.158 10.44-2.244 19.74-7.138 27.77-14.15 4.15-3.626 7.92-7.729 11.47-11.943 1.7-2 2.48-4.772 3.66-7.193M1454.27 17.424c-3.76 6.75-9.91 10.299-16.93 12.685-3.8 1.293-7.55 2.72-11.35 4.013-5.84 1.994-7.85 6.341-8.06 12.164-.43 11.357 4.3 21.139 9.28 30.799 2.43 4.708 5.68 8.98 8.39 13.549 6.16 10.422 15.39 15.18 27.27 14.319 11.03-.803 22.06-2.091 32.48-6.164 9.76-3.81 15.59-11.705 20.6-20.353 4.89-8.46 10.21-16.732 14.33-25.556 2.93-6.247 4.17-13.27 6.17-19.948M1178.74-34.136c2.04 12.148 5.11 23.83 14.03 33.088 5.76 5.982 13.24 9.041 20.62 12.251 6.65 2.896 13.44 5.5 19.95 8.677 11.16 5.456 17.33 18.385 14.81 31.833-2.49 13.286-7.73 25.357-15.45 36.254-3.19 4.513-7.43 8.527-11.89 11.839-9.17 6.814-18.84 12.95-28.25 19.473-7.15 4.964-15.3 4.679-23.33 4.283a50.987 50.987 0 0 1-13.59-2.565c-7.38-2.469-10.92-8.269-12.04-15.817-1.83-12.427-3.84-24.824-5.73-37.244-1.33-8.76-2.57-17.53-3.86-26.301-.72-4.889-2.65-8.904-7.68-10.717-3.3-1.188-6.55-2.585-9.91-3.59-6.39-1.92-13.05-3.09-19.21-5.556-10.79-4.33-18.12-12.177-21.13-23.697-2.71-10.378-5.31-20.781-8.29-31.078-2.32-8.065-5.14-15.987-7.75-23.975M-89.067 27.734c3.695 3.783 7.661 7.345 11.032 11.394 11.062 13.25 24.239 23.656 40.166 30.419 2.524 1.067 5.224 2.035 7.921 2.324 4.467.49 8.123-.566 9.275-6.53 1.776-9.224 1.247-18.433.648-27.637-.746-11.42-2.62-22.751-8.382-32.824-4.403-7.692-9.3-15.203-14.776-22.162-6.922-8.784-11.831-18.423-15.146-28.987-1.864-5.915-3.252-12.015-5.633-17.72-1.252-2.987-4.15-5.29-6.304-7.9"/><path d="M160.336 724.689c-7.716-18.784-14.855-37.723-17.783-58.002-1.03-7.107-3.506-13.8-10.84-16.992-2.355-1.026-5.012-1.757-7.559-1.859-12.854-.53-25.737-1.277-38.582-1.012-7.763.158-15.13 2.471-20.027 9.677-3.136 4.611-4.088 9.607-3.476 14.776.659 5.574 2.202 11.041 3.385 16.546 1.398 6.516 2.832 13.03 4.248 19.54M1226.03 56.357c-.41-4.742.52-9.664-2.17-14.095-4.36-7.172-15.34-12.04-24.93-10.367-12.34 2.152-22.67 8.394-31.02 17.505-10.06 10.976-4.6 25.279 7.33 31.1 9.79 4.785 20.5 5.677 31.01 1.216 9.25-3.925 15.02-10.923 17.98-20.407.48-1.542 1.14-3.021 1.72-4.526M1297.19 693.223c6.59.609 12.96.665 19.39-1.966 13.98-5.712 16.64-22.627 4.21-31.939-10.33-7.733-21.95-11.859-34.8-11.77-11.81.081-18.39 9.994-15.66 21.69 3.01 12.878 11.74 19.333 23.53 22.942.99.302 1.89.921 2.83 1.389M1477.67 692.45c-8.1-1.088-13.23 3.279-17.22 9.546-3.55 5.599-7.42 10.777-12.88 14.835-5.71 4.239-12.1 5.476-18.85 6.088-4.23.384-8.6.468-12.62 1.667-10.51 3.122-17.05 10.926-8.83 24.082 4.73 7.577 11.32 13.96 19.17 18.838 8.51 5.283 17.82 6.405 27.47 6.445 2.77.012 5.55.157 8.33.24M1037.06 510.976c.45 5.234 1.15 10.454 5.78 13.842 5.49 4.016 11.71 6.671 18.5 6.966 10.43.459 20.28-1.808 28.5-8.687 3.69-3.078 7.05-6.606 7.99-11.675.96-5.172-.68-9.307-4.62-12.811-6.21-5.538-13.51-7.391-21.6-7.147-7.74.234-15.11 1.524-22.18 5.013-6.21 3.061-9.63 8.128-12.29 14.082M1077.07-53.764c1.44 7.176 2.82 14.367 4.33 21.53 1.75 8.294 3.02 16.76 5.6 24.786 2.87 8.937 9.25 15.361 18.59 17.547 5.63 1.318 11.77 1.445 17.25-.66 11.5-4.407 21.81-10.84 28.73-21.402 5.1-7.784 7.76-16.462 7.59-25.877M719.809 91.766c.096 6.544 4.328 10.147 9.502 12.772 12.867 6.538 23.53 2.598 31.579-6.359 3.192-3.55 6.316-7.211 9.118-11.074 3.134-4.32 4.103-8.943.963-13.936-2.623-4.181-10.357-6.893-14.949-4.938-6.376 2.712-12.677 5.632-18.847 8.797-3.992 2.042-7.901 4.391-11.433 7.128-2.457 1.9-4.213 4.708-6.28 7.113M308.816 321.07c-14.654-.146-26.229 15.394-26.79 27.994-.251 5.579 2.643 9.123 8.89 10.831 8.032 2.204 20.786-1.694 25.407-7.814 8.946-11.848 6.248-24.79-7.08-30.939M394.008 121.988c-9.59-.258-19.118.236-28.327 3.101-3.831 1.191-7.654 2.85-11.011 5.03-2.14 1.386-2.205 4.301-.938 6.745 4.059 7.882 15.313 13.851 25.293 11.061 6.981-1.946 13.821-3.803 18.857-9.369 1.327-1.469 2.427-3.281 3.162-5.117 2.227-5.541.724-7.994-6.617-11.381"/><path d="M120.744 717.219c1.642-5.571 4.266-11.063 4.708-16.721.884-11.411-.214-22.976-9.421-31.195-7.872-7.023-17.739-8.612-27.881-5.755-5.942 1.674-8.952 7.296-7.955 14.256.932 6.463 2.395 12.868 3.819 19.248 1.027 4.602 2.36 9.131 3.553 13.694M862.228 264.586c-1.303-7.345-7.11-10.407-14.9-7.115-4.848 2.048-9.246 5.071-12.169 9.907-1.872 3.095-1.662 5.815-.26 8.805 1.476 3.161 4.571 3.349 7.278 3.489 7.082.367 15.687-5.513 18.654-12.263.369-.83.875-1.599 1.325-2.396M1365.71.71c2.16 4.79 3.53 9.88 7.48 13.828 7.56 7.546 16.74 9.26 26.74 7.99 5.4-.69 7.24-5.29 8.88-9.725.45-1.203.51-2.54.75-3.817M158.092 150.213c.478 2.886 1.153 5.808 4.5 6.528 3.635.783 6.176-1.515 7.727-4.264 1.224-2.185 1.758-4.968 1.895-7.517.159-2.995-3.839-4.94-6.725-3.474-3.512 1.789-5.946 4.592-7.308 8.303M114.49 563.486c-.521-3.969-2.918-5.938-6.784-6.059-.806-.029-1.992.602-2.359 1.283-.434.808-.584 2.209-.164 2.976 1.778 3.237 5.775 4.114 8.791 2.153M429.127 38.674c.518.389 1.195.675 1.512 1.194 1.432 2.272 1.15 4.511-1.136 5.879-2.095 1.244-3.689-.264-4.334-2.123-.783-2.256-.28-4.268 2.592-4.767.319-.054.624-.173.932-.265M1270.76 473.511c-12.8.364-24.65 4.009-36.23 9.398-17.63 8.206-31.67 19.966-41.03 37.281-4.3 7.944-8.96 15.743-15.49 22.296-6.94 6.953-15.13 9.2-24.62 8.581-9.25-.6-18.62-2.641-27.75.097-7.13 2.139-14.28 4.608-20.87 7.983-14.59 7.46-30.07 11.715-46.05 14.555-9.57 1.703-19.26 3.093-28.18 7.106-10.21 4.58-18 12.307-25.14 20.757-10.452 12.383-20.364 25.283-32.452 36.158-7.69 6.917-10.151 15.147-9.198 25.238 1.682 17.857 8.634 32.652 23.824 42.714 4.687 3.107 9.957 5.883 15.356 7.228 11.13 2.77 18.19-.905 24.53-10.581 4.29-6.528 8.63-13.125 13.79-18.959 8.85-10.021 20.83-14.621 33.6-17.572 13.41-3.105 27.37-4.227 39.9-10.547a257.999 257.999 0 0 0 17.22-9.536c6.69-4.029 13.48-7.694 21.44-8.229 6.31-.424 12.32.587 18.55 2.292 8.5 2.327 17.3 4.976 26.47 2.244 8.53-2.543 13.87-8.333 17.08-16.228 2.25-5.536 4-11.282 5.9-16.955 2.66-7.954 8.87-11.738 16.34-14.112 10.25-3.258 20.69-3.757 31.15-1.553 8.23 1.737 15.35 5.921 22.3 10.644 7.9 5.38 16.27 9.879 25.96 11.725 10.61 2.021 19.59-.447 27.48-7.688 9.6-8.814 18-18.718 25.65-29.179 6.26-8.571 5.13-15.054-3.81-21.335-5.08-3.57-10.66-6.457-15.67-10.127-9.02-6.604-14.59-16.086-20.4-25.367-6.35-10.129-11.22-21.164-19.85-29.873-8.13-8.21-17.33-14.082-28.72-16.346-3.55-.704-7.09-1.347-10.64-2.017M628.85 487.287c-13.622.974-24.037 8.311-34.512 16.299-16.183 12.342-29.219 28.012-44.735 40.982-16.018 13.388-34.708 21.262-55.688 22.064-23.112.885-46.274.729-69.405 1.16-12.717.237-25.443.481-38.135 1.242-10.069.604-20.229 1.315-30.103 3.216-13.159 2.535-24.4-.98-35.149-8.079-7.63-5.038-15.134-10.458-23.331-14.403-13.207-6.364-27.316-6.69-41.298-2.6-7.792 2.277-13.116 7.868-16.149 15.39-4.402 10.898-6.38 22.173-4.679 33.949 1.728 11.966 8.007 20.981 17.613 28.067 6.409 4.728 13.421 8.035 21.052 10.075 9.805 2.618 19.217 1.061 28.343-3.001 9.299-4.136 18.627-8.195 27.901-12.388 13.196-5.958 25.212-3.09 36.595 4.719 8.534 5.852 15.351 13.417 21.501 21.668 10.149 13.599 20.747 26.877 30.57 40.706 7.678 10.805 13.492 22.66 16.786 35.671 1.672 6.603 3.282 13.212 7.243 19.136 4.808 7.185 11.906 10.13 19.632 10.874 7.458.711 15.115-.243 22.651-.875 3.431-.287 6.824-1.446 10.174-2.419 11.506-3.357 17.37-1.439 24.481 8.166 3.161 4.273 6.06 8.771 9.538 12.769 7.822 8.972 17.225 15.402 29.274 17.535 9.37 1.654 18.292.119 26.322-4.441 14.23-8.072 24.907-19.699 30.873-35.098 3.187-8.243 3.969-16.869 1.861-25.653-2.603-10.879-5.484-21.731-7.357-32.737-1.23-7.268-.54-14.845-1.355-22.212-.744-6.754-2.021-13.494-3.676-20.094-2.741-10.94-5.051-21.878-2.444-33.123 1.874-8.059 5.684-15.161 12.583-20.085 7.315-5.215 14.916-10.024 22.219-15.268 10.77-7.729 19.649-17.49 28.493-27.249 3.642-4.022 6.929-8.26 8.492-13.785 2.234-7.867-.336-14.296-5.243-19.878-5.947-6.757-12.685-12.825-18.682-19.548-5.918-6.628-13.245-9.81-21.847-10.675"/><path d="M1116.1 582.771c-21.57 1.978-42.05 8.193-62.12 16.036-10.21 3.989-18.53 10.242-23.09 20.385-1.75 3.868-2.63 8.376-2.81 12.635-.21 4.837 3.71 9.06 9.4 10.081 18.3 3.277 36.71 4.609 55.03.272 8.3-1.961 15.06-7.078 20.49-13.337 6.66-7.684 12.29-16.207 16.87-25.386 5.03-10.065-.42-19.065-10.36-20.06-1.01-.102-1.99-.366-2.98-.554M1047.46 381.109c-10.63.323-16.66 11.917-16.98 21.504-.24 7.123 1.57 13.426 7.69 16.539 4.25 2.168 9.88 1.952 14.92 2.163 6.45.273 12.37-1.747 17.8-5.345 4.6-3.054 6.61-10.304 4.27-15.559-4.36-9.862-11.55-16.096-22.17-18.258-1.69-.346-3.4-.642-5.11-.964M497.058 480.049c-5.948.35-11.948.276-17.817 1.144-7.966 1.186-14.723 4.655-20.317 10.98-7.59 8.585-4.237 17.639 2.735 23.54 6.736 5.707 14.67 9.082 23.018 11.293 13.755 3.654 29.447-4.972 34.299-18.579 1.202-3.38 2.534-7.07 2.323-10.532-.5-8.471-6.816-14.301-16.58-16.391-2.398-.514-4.826-.92-7.236-1.374"/><path d="M1037.44 350.119c-12.67-.292-18.46 7.486-22.03 18.318-3.44 10.41-7.23 20.717-11.13 30.968-2.46 6.466-6.116 12.311-11.525 16.767-5.637 4.641-12.591 6.256-19.515 7.806-13.645 3.06-26.37 8.339-38.223 15.731-2.947 1.834-5.765 3.868-8.61 5.862-5.791 4.048-9.176 9.511-10.696 16.49-2.25 10.334-.794 20 3.793 29.384 8.577 17.535 34.624 25.017 50.472 13.608 8.248-5.948 14.659-13.477 21.402-20.793 5.788-6.279 11.152-12.947 16.932-19.236 5.38-5.847 12.93-7.675 20.21-8.833a503.653 503.653 0 0 1 41.9-4.877c7.5-.552 15.12.764 22.69.984 6.03.176 12.19.712 18.07-.259 7.16-1.188 12.36-6.071 14.74-12.922 3.88-11.119 5.34-22.625-1.26-33.173-4.58-7.338-10.27-14.037-15.85-20.69-8.88-10.565-20.76-16.659-33.29-21.847-12.32-5.094-24.35-10.918-37.65-13.199M409.366 229.821c-4.326.356-8.739.326-12.977 1.149-14.425 2.798-16.624 9.075-17.416 20.001-.337 4.681.368 9.452-.165 14.096-.99 8.613-7.813 22.105-18.848 23.382-6.526.752-11.827-2.135-17.119-5.074-7.448-4.13-14.559-8.735-23.138-10.61-10.602-2.318-20.377-.054-29.861 4.223-5.234 2.363-10.14 5.414-15.243 8.066a39.653 39.653 0 0 1-5.752 2.442c-6.55 2.185-10.278 1.103-14.656-4.062-3.123-3.685-5.937-7.699-9.447-10.963-7.122-6.608-16.065-8.887-25.525-9.27-4.41-.18-8.847-.127-13.254.144-12.293.749-21.352 7.399-28.651 16.638-4.394 5.573-8.229 11.595-12.177 17.516-5.066 7.597-12.366 11.793-20.822 14.641-6.941 2.341-13.751 5.112-20.473 8.023-5.32 2.303-9.716 5.926-10.564 12.053-.361 2.613-.087 5.786 1.126 8.052 2.841 5.316 7.479 9.057 13.245 10.93 9.812 3.192 19.646 6.362 29.591 9.077 7.707 2.106 10.827 7.298 11.813 14.645a277.004 277.004 0 0 0 2.898 17.301c2.72 13.484 18.362 16.666 27.896 12.592 6.895-2.94 13.146-7.465 19.469-11.625 8.224-5.405 17.149-7.186 26.452-4.522 7.872 2.253 15.574 5.32 23.037 8.713 10.191 4.639 20.686 8.136 31.764 9.336 14.225 1.539 27.305-1.425 37.565-12.239 9.258-9.761 15.044-21.261 17.729-34.554 1.203-5.955 3.788-11.71 6.275-17.316 2.971-6.679 10.021-8.62 17.137-5.02 6.215 3.14 11.816 7.477 17.794 11.127 5.844 3.563 12.133 6.029 19.011 6.683 5.9.558 12.178-3.504 14.543-9.592 1.149-2.957 2.02-6.073 2.626-9.195 2.898-14.885 6.001-29.739 8.369-44.715 1.947-12.278 2.995-24.699-1.308-36.851-3.221-9.099-7.111-17.876-16.626-21.938-4.308-1.844-9.252-2.187-13.908-3.215M279.13 443.33c-4.989-.06-9.975-.04-14.954-.195-10.828-.333-17.129 9.086-17.119 17.959.01 11.483 4.906 20.493 12.742 28.453 9.154 9.294 20.233 15.582 31.701 21.397 7.413 3.754 14.559 8.083 22.095 11.56 13.334 6.158 26.462 5.752 38.842-2.749 5.025-3.452 10.585-6.282 13.75-11.928 4.683-8.367 2.734-21.124-4.208-29.056-6.122-6.993-14.378-9.927-22.787-12.607-8.235-2.622-16.164-5.696-23.735-10.062-6.473-3.734-13.687-6.304-20.772-8.849-4.871-1.757-10.075-2.589-15.13-3.843M7.285 402.609c-14.808.151-25.783 7.982-35.55 18.008-6.112 6.271-6.508 14.441-5.401 22.269 1.817 12.891 8.13 23.218 20.392 28.989a60.262 60.262 0 0 0 9.89 3.621c6.142 1.653 12.51 2.537 18.525 4.537 10.364 3.446 18.064 10.022 21.703 20.735a38.152 38.152 0 0 0 2.787 6.258c4.944 8.896 11.047 11.926 20.695 9.117 11.942-3.469 22.594-9.73 31.612-18.266 6.207-5.883 4.085-11.83-1.012-15.102a695.864 695.864 0 0 0-9.069-5.68c-8.248-5.119-14.874-11.969-20.49-19.775-8.24-11.431-16.132-23.114-24.41-34.526-7.334-10.105-16.24-18.144-29.238-20.103M1089.35 607.702c-6.55.184-12.48 2.187-17.5 6.424-3.48 2.941-2.83 8.054 1.11 10.324 6.43 3.718 17.82 1.008 21.7-5.164 3.25-5.179 1.22-9.972-4.89-11.503M-20.933 276.473c-13.167.989-21.42 8.549-26.17 20.219-1.379 3.381-2.102 7.495-1.64 11.074 2.084 16.01 9.038 29.439 24.377 36.187 11.105 4.891 24.388 4.594 33.051-7.713 3.88-5.511 4.407-12.139 3.185-18.745-2.254-12.215-7.514-22.934-15.933-32.151-4.501-4.932-9.983-7.704-16.445-8.791M549.573 229.83c-3.461.678-6.993 1.167-9.214 4.434-2.223 3.275-1.537 7.955 1.558 10.435 2.849 2.283 8.018 1.575 10.86-1.478 5.057-5.439 4.255-9.276-2.778-13.311"/><path d="M548.761 201.457c-18.083 2.275-29.635 13.534-33.417 31.611-1.717 8.212-1.095 16.08 2.464 23.295 4.849 9.821 13.715 14.89 24.473 14.239 16.529-1.007 30.025-8.178 39.594-22.297 8.226-12.142 5.777-23.741-3.542-32.907-8.144-8.01-17.777-12.711-29.148-13.852M860.755 230.359c-5.856.659-11.947.506-17.526 2.125-17.424 5.044-29.576 16.683-36.542 33.128-3.421 8.084-3.022 17.181-1.013 25.743 4.229 18.055 11.388 34.926 22.244 50.06 4.937 6.876 11.894 11.504 19.948 13.306 10.263 2.299 19.726-1.118 26.933-9.731 5.964-7.119 7.292-15.325 4.022-23.879-4.534-11.86-1.747-22.612 3.66-33.32 3.281-6.497 6.796-13.02 8.92-19.93 2.937-9.533 1.559-22.138-11.39-29.873-5.857-3.495-11.936-6.609-18.846-7.56M8.475 433.694c-4.223.226-7.088 2.136-8.284 6.372-.915 3.258-.16 5.896 2.493 7.957 2.137 1.665 7.583 1.731 10.105.144 2.631-1.655 4.725-3.641 4.007-7.171-.755-3.705-.994-5.805-7.044-7.061-.28-.062-.57-.108-.852-.161M988.647 239.506c-9.738-.639-17.767 3.498-24.275 10.039-11.201 11.272-10.167 23.08-.19 33.34 8.803 9.051 19.86 13.916 32.329 15.361 6.779.784 14.319-4.802 15.859-11.945 3.4-15.733-1.12-29.453-11.54-41.384-3.041-3.483-7.315-4.713-11.755-5.339M641.227 171.732c-5.416.9-6.341 2.621-5.068 7.888 1.448 5.969 8.99 12.728 15.19 10.715 2.104-.679 5.09-1.738 5.637-3.328.656-1.887-.285-4.983-1.6-6.757-3.368-4.533-8.193-7.189-13.733-8.438M1432.03 301.14c-16.94.541-28.28 10.419-38.27 22.74-5.92 7.295-6.06 15.126-2 22.939 3.7 7.099 9.09 13.055 15.48 17.973 6.91 5.325 14.26 10.134 20.73 15.941 10.99 9.859 16.52 22.489 16.36 37.371-.09 8.74-1.21 17.239-3.71 25.772-2.41 8.248-3.97 17.072-3.95 25.637.03 13.621 5.51 25.114 18.58 31.213 6.52 3.047 13.19.621 18.13-3.632 10.65-9.153 19.57-19.992 27.32-31.757 6.97-10.572 5.84-21.964 3.12-33.333-2.69-11.221-7.7-21.54-14.39-30.942-8.29-11.653-16.92-23.07-25.1-34.791-5.61-8.023-9.61-16.803-10.94-26.692-1-7.463-2.03-14.969-3.78-22.291-2.12-8.893-8.2-14.158-17.15-16.068M489.263 591.449c-6.745-.1-13.481-.198-20.227-.29-13.344-.173-26.696-.726-40.026-.367-9.562.25-18.715 2.632-26.823 8.403-5.409 3.847-6.371 8.621-4.766 14.55.841 3.113 2.607 6.091 4.453 8.785 5.428 7.92 11.381 15.481 16.62 23.515 8.252 12.668 15.818 25.798 24.211 38.378 4.875 7.295 10.141 14.576 16.435 20.614 7.333 7.028 10.88 10.193 22.796 4.479 11.111-5.328 21.032-12.106 27.002-23.51 3.765-7.19 4.204-14.612 2.88-22.41-1.699-10.011-3.31-19.98-1.469-30.249 1.326-7.396 1.721-14.957 2.578-22.441 1.081-9.513-3.469-15.636-13.029-17.45l-10.218-1.928M210.395 279.568c-9.112.573-16.238 3.99-20.139 12.936-4.311 9.9-1.145 19.518 8.76 24.086 3.278 1.509 6.854 2.978 10.381 3.211 9.752.659 15.636-3.415 17.701-13.281 1.061-5.064.603-10.953-.937-15.926-2.15-6.922-8.013-10.383-15.339-10.954M1154.87 209.147c-4.67.592-9.35 1.066-14 1.794-6.35.997-10.04 5.548-12.04 10.955-1.77 4.815-2.25 10.129-3.03 15.265-1.63 10.847-3.6 21.48-12.18 29.474-1.54 1.437-2.86 3.19-4.02 4.963-2.07 3.146-1.81 7.832.33 9.745 2.03 1.811 8.2 1.574 10.67-.658 2.16-1.956 4.41-3.974 6.02-6.361 5.47-8.164 13.19-12.748 22.39-15.65 10.48-3.312 20.83-7.065 31.15-10.867 3.25-1.202 6.33-2.993 9.29-4.823 8.83-5.451 7.5-13.647 2.73-19.599-4.62-5.776-11.34-9.036-18.59-10.661-6.06-1.347-12.2-2.346-18.3-3.498M287.286 568.322c-12.636.746-23.047 9.98-25.417 22.539-3.049 16.153 8.384 28.372 25.201 27.807 11.091-.367 19.831-5.323 27.758-12.142 5.672-4.873 6.707-11.573 2.407-17.473-7.405-10.154-15.975-19.081-29.523-20.651"/><path d="M468.006 605.956c-6.482.099-13.011-.207-19.445.43-4.844.48-9.754 1.687-14.286 3.459-5.645 2.206-7.87 7.686-6.156 13.697 4.609 16.231 10.852 31.791 20.52 45.696 5.203 7.473 11.695 13.583 21.232 15.612 9.81 2.081 16.995-3.891 18.994-12.799 1.767-7.867 2.21-16.055 2.914-24.132.506-5.812 1.11-11.721.595-17.497-1.177-13.105-2.977-20.482-20.1-23.669l-3.832-.724M1150.9 188.114c-2.49-.029-4.98-.129-7.48-.08-18.03.354-28.43 10.692-34.54 26.54-2.47 6.429-4.59 12.996-7.25 19.337-3.61 8.613-10.05 15.352-15.65 22.645-3.98 5.183-7.61 10.679-8.54 17.329-1.51 10.834 1.36 19.947 10.21 27.155 7.73 6.291 16.56 10.083 25.81 13.09 9.84 3.205 19.86-2.512 25.08-13.714 2.03-4.352 3.85-8.867 6.47-12.862 6.92-10.581 17.03-16.865 29.21-19.574 7.16-1.594 14.5-2.492 21.79-3.428 8.5-1.085 17.03-2.129 23.58-8.397 8.98-8.588 10.67-20.948 5.6-32.355-5.23-11.718-14.59-19.393-26.84-23.151-8.02-2.457-16.24-4.29-24.35-6.43-7.56-1.991-15.11-4.025-22.67-6.033M74.392 369.417c-10.648.962-15.912 10.118-11.216 19.902 3.805 7.923 9.711 13.773 17.796 17.565 6.79 3.177 13.709 4.968 21.237 4.422 4.14-.303 7.922-1.327 10.531-4.688 3.27-4.197 2.698-9.34-.845-13.836-4.98-6.319-12.024-9.879-18.603-13.942-5.853-3.609-12.292-6.262-18.474-9.342M1131.19 563.572c-11.3.055-21.23 5.059-31.64 8.482-12.44 4.089-25.07 7.665-37.75 10.986-14.32 3.737-28.54 7.735-39.13 18.763-9.48 9.885-16.79 21.388-21.97 34.149-4.764 11.738-7.425 23.783-5.1 36.506.403 2.21.864 4.536 1.896 6.495 2.694 5.111 8.214 7.053 13.184 4.216 5.3-3.03 10.3-6.645 15.21-10.303 12.74-9.473 27.19-14.171 42.76-16.198 9.28-1.21 18.6-2.459 27.71-4.55 8.32-1.912 16.14-5.815 22.42-11.597 11.74-10.817 24.34-19.999 38.99-26.662 10.11-4.608 12.38-11.419 9.6-22.287-3.19-12.462-12.06-19.7-23.17-24.549-3.93-1.711-8.36-2.274-12.57-3.359M1265.14 489.209c-8.46.192-16.85.831-24.95 3.66-17.43 6.083-29.42 17.567-35.3 35.231-2.59 7.749-5.88 15.32-7.76 23.236-2.64 11.097-.44 20.267 13.46 23.677 10.47 2.566 21.09 1.069 31.61.603 12.84-.566 25.65-1.737 38.46-2.838 4.13-.357 8.32-.933 12.27-2.11 10.51-3.141 14.87-11.726 17.22-21.371 4.03-16.504-1.4-30.668-11.49-43.648-8.46-10.881-20.2-14.685-33.1-16.344M1337.23 210.058c-11.8 2.05-17.97 9.994-20.55 20.82-1.9 7.983-3.04 16.216-3.74 24.408-.78 9.129 1.86 11.983 10.66 12.946 6.38.692 12.86.797 19.28.588 13.07-.426 18.58-6.14 18.62-19.765.02-6.874-.91-13.778-1.78-20.619-.77-5.965-3.92-11.17-8.82-14.229-3.78-2.363-8.79-2.778-13.24-4.06M978.779 441.337c-11.874-.812-22.481 2.874-32.16 9.398-7.133 4.808-13.488 10.355-14.777 19.662-1.258 9.092 4.795 18.885 14.204 20.563 8.48 1.513 15.409-1.095 21.639-5.554 8.676-6.211 16.056-13.962 20.887-23.72a37.29 37.29 0 0 0 2.633-6.99c1.324-5.102-.272-10.289-6.896-12.289-1.652-.497-3.401-.668-5.104-.989M717.743 394.716c-5.993.686-10.731 3.178-14.441 8.253-5.961 8.178-6.062 17.639 5.47 23.025 8.451 3.949 19.843 2.695 23.042-7.9 3.1-10.261-3.087-20.652-13.654-23.299"/><path d="M1147.3 169.799c-3.09.008-6.18-.09-9.26.033-14.5.589-25.57 6.824-32.41 19.879-4.2 8.018-8.73 15.883-12.4 24.141-5.24 11.789-13.32 21.674-20.37 32.256-4.38 6.572-7.78 13.752-8.98 21.26-2.12 13.346-1.44 26.87 5.71 38.925 4.79 8.063 12.4 13.609 20.3 18.353 8.29 4.978 16.81 9.706 25.63 13.63 11.38 5.058 19.58 13.201 25.94 23.553 3.74 6.103 7.19 12.398 11.12 18.369 7.34 11.147 10.27 23.577 11.61 36.608 1.34 13.083 2.64 26.194 4.56 39.201 2.01 13.642 7.28 15.165 19.59 12.515 12.08-2.606 21.98-9.669 31.3-17.126 9.31-7.456 16.56-16.935 21.83-27.906 5.64-11.74 6.22-23.552 2.24-35.749-5.41-16.602-17.07-28.467-30.11-39.148-13.52-11.069-27.84-20.951-43.41-29.046-9.21-4.798-13.1-14.237-7.72-24.28 3.58-6.687 10.03-9.799 17.08-11.254 5.93-1.227 12.02-1.886 18.06-2.368 18.98-1.523 33.52-9.997 42.96-26.767 6.82-12.1 13.82-24.094 20.43-36.293 2.43-4.488 1.44-7.956-3.3-10.209-4.9-2.326-10.2-3.803-15.13-6.083-8.3-3.849-16.37-8.185-24.66-12.017-3.7-1.702-7.64-2.941-11.58-3.975-15.03-3.929-30.47-6.27-44.79-12.775-4.28-1.945-9.21-2.451-13.83-3.624M-10.265 570.367c-6.546-.354-13.107-.543-19.633-1.096-9.963-.848-19.909-1.931-29.863-2.964a381.709 381.709 0 0 1-12.933-1.559c-6.73-.926-13.424-2.225-20.18-2.829-6.4-.573-13.011-1.424-19.251-.415-9.778 1.585-16.231 8.771-20.327 17.16-5.929 12.117-8.111 25.267-5.153 38.611 2.567 11.578 7.192 22.538 13.634 32.555 3.532 5.49 7.718 10.548 11.478 15.904 3.24 4.607 8.084 7.02 12.769 9.623 3.16 1.761 10.275-.009 13.395-3.882 3.316-4.11 5.993-8.763 8.768-13.283 4.841-7.896 9.156-16.041 15.28-23.209 7.82-9.15 17.635-14.714 28.44-19.306 11.88-5.059 22.272-12.233 28.337-24.139 2.127-4.167 3.834-8.633 5.09-13.14 1.17-4.188-.454-6.143-4.736-7.048-1.552-.329-3.124-.599-4.682-.893M1031.3 144.38c-13.37 1.543-17.8 10.239-20.51 20.389-1.74 6.54-2.66 13.307-3.86 19.985-2.26 12.667-8.482 22.683-19.287 29.894-10.915 7.278-21.954 14.419-31.045 24.087-7.437 7.917-12.032 17.173-12.662 28.033-.303 5.251 1.218 10.273 4.086 14.933 7.119 11.572 17.766 19.075 29.162 25.697 7.072 4.112 14.114 8.289 22.335 10.052 12.411 2.659 19.601-3.99 24.231-12.287 5.67-10.154 6.27-21.488 5.44-32.879-.72-9.852-2.18-19.697-2.19-29.547 0-11.199 3.39-21.468 11.98-29.484 5.24-4.892 10.41-9.887 15.19-15.219 9.1-10.143 11.95-20.134 7.23-30.142-5.74-12.203-15.07-21.61-29.69-23.443M255.829-12.555c-4.153.98-8.586 1.343-12.396 3.075-6.648 3.031-8.659 8.965-7.969 16.009 1.156 11.91 6.507 21.404 16.927 27.356 11.367 6.492 29.354 1.501 35.65-9.991 2.837-5.178 3.532-11.29.683-16.987-4.009-8.005-10.744-13.015-19.019-15.89-4.362-1.511-8.948-2.35-13.442-3.49"/><path d="M1281.97 175.817c-8.98.069-18 .678-26.93.077-11.83-.804-23.6-2.577-35.4-3.895-7.06-.785-14.13-1.406-21.18-2.259-11.28-1.372-21.58-5.935-32.08-9.952-11.18-4.28-22.9-6.06-34.8-7.168-6.44-.598-12.78-2.307-19.17-3.512-9.96-1.88-11.8-.692-14.07 9.249-.51 2.249-.91 4.528-1.3 6.81-3.59 21.5-12.42 40.599-25.8 57.79-4.88 6.266-9.18 13.065-13.02 20.02-4.44 8.015-6.1 17.041-6.25 26.095-.16 9.758.59 19.538.97 29.3.68 17.288 9.2 29.566 24.2 37.627 7.33 3.939 14.6 7.966 22.06 11.624 11.86 5.801 22.74 12.88 30.78 23.533 7.03 9.315 14.53 18.288 18.82 29.46 3.38 8.758 3.76 17.851 4.47 26.927.85 10.83-.63 21.564-3.47 31.945-2.41 8.812-7.33 16.146-16.03 20.396-5.77 2.817-11.78 2.485-17.29.502-11.38-4.098-22.66-8.642-34.76-9.806-11.14-1.072-22.22.233-33.21 2.762-7.52 1.729-14.77 3.686-21.32 7.96-11.7 7.616-18.36 19.031-23.89 31.249-3.731 8.237-6.152 16.907-7.678 25.878-1.123 6.604 2.14 11.417 8.718 12.746 13.5 2.725 27.12 3.135 40.84 3.343 11.76.183 23.25-.329 34.66-3.626 9.53-2.76 18.32-7.07 26.42-12.428 13.6-8.995 27.96-15.976 43.64-20.292 7.92-2.181 13.92-7.283 19.18-13.178 9.91-11.119 21.56-19.792 34.23-27.594 18.57-11.408 36.36-24.019 51-40.49 4.17-4.705 8.61-9.185 12.72-13.938 5.14-5.944 6.76-13.053 5.18-20.584-3.15-14.922-8.56-29.03-16.74-41.958-5.45-8.63-13.82-14.274-21.66-20.471-7.62-6.031-15.39-11.978-20.89-20.221-6.29-9.441-4.06-14.549 2.98-20.6 7.8-6.703 15.81-13.207 23.15-20.392 6.09-5.958 11.11-13 17.03-19.139 5.37-5.558 11.03-10.927 17.08-15.719 10.82-8.576 17.91-19.353 21.54-32.592 1.08-3.932 3.01-7.658 3.81-11.626.92-4.667 1.42-9.511 1.35-14.268-.06-3.671-3.79-6.844-7.69-7.641-3.25-.658-6.53-1.241-9.79-1.856"/><path d="M1023.23 121.696c-14.12 1.7-22.42 10.617-26.2 23.299-3.121 10.46-4.264 21.514-6.332 32.287-1.66 8.655-5.595 16.236-11.773 22.433-8.626 8.654-17.802 16.763-26.302 25.547-10.319 10.662-17.808 23.058-19.544 38.144-.934 8.078.433 15.787 4.785 23.001 8.626 14.291 21.476 24.044 34.764 33.394 6.973 4.914 14.205 9.489 21.002 14.634 6.81 5.147 10.81 12.119 10.61 20.89-.35 15.146-2.91 29.689-12.348 42.192-4.15 5.496-9.574 9.146-16.188 11.063-11.667 3.371-23.377 6.593-34.966 10.199-10.743 3.334-20.514 8.474-29.516 15.434-8.24 6.373-11.236 15.146-11.251 24.384-.018 12.942 1.826 25.926 8.049 37.717 7.754 14.7 19.63 24.851 35.351 29.952 17.872 5.806 31.106 1.285 42.702-13.907 5.528-7.237 11.03-14.523 16.047-22.113 10.66-16.143 25.96-24.156 44.72-26.338 9.57-1.112 19.16-2.195 28.77-2.867 4.02-.283 8.13.352 12.15.908 8.59 1.189 17.13 2.695 25.72 3.91 9.64 1.36 16.52-3.08 21.43-10.937 4.95-7.936 6.37-16.83 6.77-26.049.41-9.358-.13-18.526-4.72-26.861-11.5-20.872-27.48-36.763-49.85-46.197-12.44-5.249-24.37-11.776-36.24-18.249-6.97-3.793-12.31-9.377-12.46-18.119-.06-3.062-.14-6.198.44-9.167 2.73-14.024 2.5-28.187 2.18-42.355-.27-12.238.59-24.421 6.44-35.327 3.88-7.231 8.86-14.068 14.35-20.193 9.45-10.569 16.04-22.253 17.27-36.501.75-8.65-2.77-16.166-8.08-22.626-8.73-10.625-19.09-19.476-31.15-26.214-5.04-2.821-10.46-4.565-16.2-5.271M254.295-27.829c-5.548.567-11.264.484-16.601 1.85-10.295 2.642-16.275 9.423-18.583 20.16-2.302 10.702.128 20.296 4.847 29.494 2.584 5.046 6.246 9.564 9.575 14.214 5.772 8.055 14.722 9.974 23.557 10.442 13.133.688 25.355-3.143 36.067-11.076 6.959-5.15 12.24-11.358 13.587-20.363 1.432-9.553-1.481-17.757-7.219-25.154-6.354-8.2-15.411-12.07-24.975-14.8-6.526-1.867-13.215-3.147-19.829-4.687"/><path d="M271.296-43.141c-7.84.284-15.718.208-23.526.93-13.847 1.276-27.312 4.078-36.791 15.525-3.197 3.859-5.898 8.402-7.72 13.058-3.393 8.68-4.87 17.863-2.963 27.147.836 4.073 2.208 8.3 4.387 11.797 5.512 8.827 11.231 17.587 17.63 25.778 4.388 5.625 11.271 6.907 18.288 7.667 9.685 1.06 19.141.155 28.536-1.828 11.094-2.342 21.789-5.931 31.368-12.157 4.964-3.225 9.751-6.766 14.322-10.524 6.273-5.156 7.873-12.561 7.698-20.09-.369-15.66-5.097-30.044-14.295-42.837-4.206-5.847-10.029-9.194-16.946-10.667-6.495-1.376-13.047-2.498-19.578-3.73M1457.15 172.724c-8.46.186-13.74 5.299-16.72 12.311-4.35 10.203-3.35 19.852 6.19 27.473 4.15 3.323 9.45 3.943 14.82 2.93 8.31-1.562 14.64-5.968 18.76-13.259 3.38-5.983 1.33-13.258-4.9-20.334-4.76-5.403-10.65-8.322-17.72-9.049M241.318 685.743c-2.343.73-5.034.972-6.953 2.312-3.633 2.524-2.659 8.528 1.597 9.807 3.964 1.189 8.146 2.111 12.301.232 4.531-2.046 5.345-5.288 1.52-8.426-2.231-1.823-5.322-2.591-8.023-3.842M388.933-40.34c-3.711.181-7.447.12-11.117.591-11.098 1.433-16.84 8.356-17.463 19.596-.584 10.48 3.306 19.539 8.009 28.354 4.72 8.862 10.568 17.17 14.657 26.292 4.376 9.759 7.627 20.002 13.134 29.277 4.127 6.96 8.101 14.033 11.843 21.212 2.163 4.147 3.994 8.505 5.495 12.932 2.715 8.043 7.669 12.911 16.519 13.258 6.836.268 13.577.059 20.213-1.925 10.169-3.046 14.464-12.023 13.402-24.384-.683-7.924-1.712-15.834-2.039-23.77-.331-8.06.305-16.15.002-24.214-.329-8.633-.3-17.754-7.846-23.843-3.442-2.784-7.741-4.909-11.989-6.231-8.697-2.7-17.733-4.299-26.428-7.007-6.937-2.164-10.184-7.9-11.296-14.812-.618-3.873-1.096-7.79-1.308-11.71-.477-8.503-3.432-11.627-13.354-13.534M585.171-28.874c-8.389.533-15.471 4.135-21.626 9.604-6.274 5.58-5.948 14.927.175 22.105 5.669 6.643 13.073 7.264 20.839 6.437 2.889-.31 5.661-1.77 8.475-2.712 9.664-3.22 12.5-12.173 9.727-21.497-2.487-8.362-8.265-13.165-17.164-13.856M1059.07 57.915c-3.11.144-6.28-.022-9.32.506-8.27 1.437-11.87 7.734-10.18 16.12 3.03 15.105 12.68 24.606 26.14 30.285 6.7 2.827 13.93 1.519 19.54-3.657 5.56-5.149 8.35-11.703 6.76-19.376-2.31-11.132-10.44-16.881-20.34-20.548-3.91-1.453-8.1-2.18-12.16-3.248M1361.32 96.44c-4.29.241-7.14 2.41-9.14 6.203-5.78 10.902-5.4 22.191-1.2 33.185 2.39 6.262 7.92 10.508 14.97 10.736 7.36.234 12.18-3.883 15.38-10.599 2.42-5.08 2.5-10.232 1.26-15.157-2.17-8.602-6.33-16.353-13.9-21.565-1.99-1.372-4.61-1.84-6.94-2.722M-19.959 257.259c-11.029.035-19.65 6-27.314 12.64-7.948 6.886-14.946 15-21.637 23.164-5.887 7.178-7.068 15.535-2.486 24.151 6.444 12.115 12.484 24.498 21.633 34.937 5.95 6.784 13.85 10.488 22.256 12.903 5.235 1.509 10.782 2.397 16.23 2.64 13.49.615 24.23-5.18 32.891-15.282 5.654-6.596 9.618-14.048 11.73-22.485 2.17-8.691.48-16.929-3.82-24.477-8.037-14.136-17.16-27.515-29.228-38.655-5.662-5.23-12.11-8.634-19.837-9.457M962.509-23.798c-7.052.22-12.727 3.426-17.008 8.73C939.209-7.289 932.812.49 927.417 8.89c-4.694 7.306-5.287 15.959-3.35 24.384 1.525 6.637 9.415 13.24 17.363 12.571 8.691-.731 16.775-3.244 24.055-8.22 7.483-5.121 14.967-10.155 20.917-17.198 7.47-8.836 8.469-16.187 2.608-26.34-5.709-9.887-14.502-16.097-26.076-17.796M1255.12 504.954c-6.16.601-12.23 1.095-18.01 4.017-13.92 7.028-19.3 23.675-15.1 36.019 2.74 8.075 9.7 10.208 16.93 10.558 12.79.634 25.02-1.838 36.12-8.888 15.38-9.769 11.74-27.518-.71-35.944-5.77-3.911-12.4-4.27-18.8-5.681M846.462 432.237c-17.419 3.052-28.483 14.297-37.186 28.686-4.419 7.296-7.318 15.135-9.765 23.288-3.073 10.258-5.802 20.695-11.3 30.063-4.176 7.13-9.385 13.475-16.265 18.014-7.333 4.841-15.216 8.856-22.715 13.455-6.96 4.268-14.024 8.473-20.553 13.351-11.139 8.33-23.438 14.439-36.049 20.004-14.419 6.361-22.424 18.315-28.053 32.208-3.403 8.406-4.868 16.965-2.029 26.125 2.603 8.401 9.049 13.118 15.224 18.199 8.212 6.761 13.338 14.694 9.563 25.631-1.559 4.52-4.205 8.73-6.761 12.833-4.144 6.633-8.334 13.276-9.162 21.215-1.12 10.608-.078 21.113 3.82 31.108 2.306 5.911 6.865 7.592 11.868 3.933 5.382-3.94 10.039-8.855 14.978-13.39 2.209-2.034 4.181-4.352 6.511-6.231 8.435-6.803 17.523-7.769 28.513-1.709 5.041 2.777 10.159 5.418 15.202 8.178 11.725 6.419 23.922 6.225 35.823 1.337 11.259-4.62 22.098-10.282 33.009-15.718 11.244-5.611 21.501-13.19 33.661-16.971 5.733-1.784 11.592-3.209 17.263-5.172 12.428-4.321 19.612-14.164 25.443-25.153 5.179-9.781 5.753-20.624 6.428-31.396.384-6.1.543-12.225 1.314-18.27a151.484 151.484 0 0 1 3.373-17.873c1.521-6.053 3.574-11.979 5.524-17.916 3.625-11.079 6.674-22.143 4.266-34.052-1.997-9.883-7.277-17.837-14.525-24.196-13.745-12.065-20.684-27.536-24.547-44.869-2.324-10.439-6.495-20.203-11.652-29.509-3.663-6.617-7.719-13.017-11.749-19.421-2.056-3.263-5.034-5.377-9.038-5.7M1180.08 355.875c-8.43.049-9.18 4.986-7.76 10.871 1.35 5.59 3.33 11.061 4.22 16.713 1.37 8.795 1.97 17.7 3.05 26.544 1.03 8.573 1.39 17.265 5.3 25.287 3.18 6.525 7.15 8.491 14.23 6.635 12.55-3.282 19.56-12.296 22.87-23.927 5.44-19.122-2.26-34.332-16.11-47.087-7.36-6.786-15.49-12.394-25.38-14.957"/></g><defs><linearGradient id="paint0_linear" x1="148.965" y1="0" x2="499.068" y2="842.562" gradientUnits="userSpaceOnUse"><stop stop-color="#fff" stop-opacity="0"/><stop offset="1" stop-color="#fff"/></linearGradient></defs></svg>