<svg width="1440" height="815" viewBox="0 0 1440 815" fill="none" xmlns="http://www.w3.org/2000/svg">
<mask id="mask0" mask-type="alpha" maskUnits="userSpaceOnUse" x="0" y="0" width="1440" height="815">
<rect width="1440" height="815" fill="white"/>
</mask>
<g mask="url(#mask0)">
<path d="M667.777 343.442C658.907 347.206 650.162 351.313 641.131 354.648C631.447 358.225 621.367 360.481 610.972 360.771C603.629 360.972 597.889 357.284 592.591 352.739C589.933 350.462 587.461 347.959 584.744 345.755C581.828 343.39 578.57 342.182 574.599 342.405C570.179 342.648 565.616 342.335 561.771 339.71C559.029 337.841 556.764 335.488 556.361 331.88C556.002 328.698 556.741 326.997 559.531 325.637C560.99 324.927 562.526 324.257 564.101 323.901C570.614 322.428 574.611 318.3 577.077 312.289C579.691 305.909 582.256 299.48 585.29 293.296C587.828 288.115 591.022 283.261 593.924 278.26C596.11 274.495 596.794 270.315 596.829 266.085C596.889 258.263 592.461 252.773 586.943 247.874C578.75 240.609 569.837 234.155 562.695 225.718C556.649 218.565 550.425 211.561 544.16 204.595C541.387 201.512 538.282 198.733 535.422 195.726C529.623 189.618 529.397 184.484 531.716 179.392C534.495 173.278 539.834 171.034 547.485 171.519C553.523 171.901 559.613 173.044 565.597 170.772C572.627 168.11 578.066 163.986 578.717 155.936C578.949 153.082 578.557 149.868 577.423 147.265C573.557 138.349 571.996 129.151 572.264 119.468C572.488 111.363 568.531 105.727 561.29 101.965C555.096 98.7463 548.668 96.554 541.752 96.4694C530.914 96.3368 524.24 102.682 519.963 111.889C517.535 117.11 515.599 122.561 513.623 127.978C510.894 135.453 505.921 141.186 499.741 145.882C493.241 150.817 487.185 156.274 482.075 162.562C478.513 166.942 475.369 171.878 474.207 177.652C473.113 183.105 474.952 187.401 479.15 191.033C484.946 196.05 491.88 199.017 498.548 202.495C503.225 204.938 507.963 207.294 512.442 210.058C517.652 213.268 519.338 218.482 518.872 224.275C518.027 234.632 518.812 244.618 523.328 254.205C525.678 259.185 527.578 264.407 529.216 269.671C530.896 275.053 532.015 280.604 533.357 286.086C533.515 286.736 533.639 287.426 533.624 288.095C533.452 295.544 529.478 298.613 522.094 297.376C515.564 296.28 509.481 293.82 503.197 291.936C495.993 289.78 488.591 288.67 481.459 292.905C473.114 297.865 464.686 302.678 456.208 307.404C447.657 312.174 439.732 317.781 433.058 324.955C430.2 328.026 427.912 331.608 425.242 334.858C421.282 339.686 417.66 344.838 411.761 347.694C407.285 349.865 402.482 350.891 397.685 351.095C388.262 351.49 379.865 354.684 371.728 359.03C363.794 363.264 355.846 367.606 346.921 369.304C338.924 370.83 330.853 372.296 322.746 372.849C309.421 373.755 298.489 378.931 289.699 388.911C284.58 394.728 279.277 400.411 272.684 404.598C268.716 407.12 264.56 409.39 260.309 411.402C252.674 415.02 248.636 420.955 247.102 429.185C245.653 436.967 246.362 444.627 247.058 452.35C247.417 456.328 247.411 460.374 248.15 464.274C249.241 470.048 252.774 474.364 257.664 477.506C265.698 482.672 273.603 488.067 281.921 492.731C286.402 495.241 291.488 497.037 296.527 498.112C306.317 500.195 315.834 495.424 320.094 486.064C323.059 479.554 325.497 472.761 330.07 466.999C334.728 461.134 340.404 456.827 347.5 454.719C356.934 451.91 366.574 449.774 375.999 446.911C383.235 444.713 390.185 441.579 397.41 439.339C404.55 437.129 411.694 438.464 418.661 440.673C425.94 442.987 433.287 445.457 440.973 445.1C451.859 444.595 458.353 437.785 462.775 428.436C465.206 423.3 467.614 418.115 470.588 413.29C474.162 407.496 480.114 406.256 486.411 406.824C494.576 407.556 501.684 411.541 509.113 414.582C516.474 417.603 524.051 420.175 531.999 421.225C543.268 422.705 552.441 419.273 559.37 409.816C563.881 403.657 568.994 397.872 575.436 393.585C582.224 389.062 589.602 386.179 597.978 386.35C603.226 386.459 607.546 388.749 611.677 391.592C617.472 395.577 623.275 399.558 628.972 403.682C635.715 408.558 642.347 413.576 649.021 418.543C650.367 419.541 651.688 420.568 653.017 421.582" stroke="#F9FAFC" stroke-width="3" stroke-miterlimit="10" stroke-linecap="round" stroke-linejoin="round"/>
<path d="M-16.7704 549.783C-7.51454 541.451 1.18041 532.562 9.11923 522.976C12.9304 518.382 16.8975 513.895 19.5422 508.356C22.2964 502.583 23.1726 496.73 22.1254 490.552C21.1052 484.544 19.6129 478.615 18.7472 472.583C17.7018 465.29 16.8357 457.946 16.3822 450.595C15.8962 442.69 15.1025 434.824 12.4503 427.397C8.22004 415.534 11.3316 406.068 20.3592 397.804C29.0006 389.891 37.2843 381.591 45.8938 373.639C49.506 370.306 53.3927 367.215 57.4232 364.398C64.3306 359.585 69.6878 353.474 73.854 346.238C76.8917 340.968 81.2527 338.234 87.4809 337.954C92.7083 337.719 98.0367 337.641 103.002 335.439C109.472 332.567 114.204 328.107 116.773 321.378C119.278 314.814 119.016 307.865 120.078 301.1C121.151 294.2 124.037 287.799 128.966 282.541C134.057 277.111 139.395 271.865 144.068 266.095C150.559 258.089 149.848 251.76 144.997 244.154C142.806 240.718 140.17 237.563 137.763 234.269C130.903 224.887 127.561 214.027 124.319 203.049C121.985 195.147 119.835 187.136 115.758 179.819C113.129 175.106 107.62 171.612 102.175 172.099C94.394 172.791 86.6326 173.689 78.8629 174.527C66.6009 175.856 59.2763 169.597 54.7516 160.505C52.2757 155.533 49.9106 150.563 46.0208 146.408C40.8287 140.853 30.3317 140.092 24.1096 144.179C18.216 148.048 14.0054 153.167 10.6967 159.077C6.53144 166.516 1.11034 172.654 -5.8799 177.491C-8.05762 178.999 -10.1008 180.729 -12.0578 182.52C-18.8969 188.769 -18.8236 199.795 -12.1514 207.263C-4.20806 216.158 3.54402 225.167 10.0232 235.248C13.2878 240.329 17.4468 244.822 20.8888 249.793C26.7977 258.33 29.6607 267.788 28.2494 278.24C27.7195 282.155 27.2675 286.176 25.9703 289.867C24.1812 294.954 20.0981 297.911 15.0806 299.973C6.91313 303.334 -1.35723 306.722 -8.1772 312.524C-16.3036 319.437 -24.3202 326.495 -32.09 333.802C-39.1525 340.44 -45.7199 347.602 -52.6947 354.328C-61.1223 362.458 -71.6661 365.958 -83.0476 366.46C-92.9025 366.898 -102.798 366.342 -112.675 366.202C-120.266 366.094 -127.863 366.051 -135.452 365.794C-142.023 365.572 -148.597 365.232 -155.153 364.687C-165.757 363.802 -176.323 362.715 -187 363.879C-195.844 364.841 -203.918 361.966 -211.657 357.972C-219.385 353.988 -227.013 349.787 -234.915 346.174C-239.795 343.941 -245.219 342.904 -250.187 340.83C-256.402 338.235 -262.643 335.542 -268.437 332.138C-279.057 325.904 -289.434 319.284 -301.191 315.277C-306.416 313.494 -311.643 311.718 -316.778 309.698C-321.512 307.838 -324.437 304.068 -326.254 299.449C-327.818 295.492 -326.143 290.318 -322.765 287.705C-318.471 284.39 -313.465 282.632 -308.419 280.973C-301.982 278.859 -295.334 277.326 -289.436 273.778C-285.799 271.592 -282.032 269.62 -278.46 267.331C-273.514 264.158 -268.033 262.79 -262.405 263.683C-258.203 264.352 -254.262 266.538 -250.121 267.77C-242.92 269.912 -235.738 272.188 -228.405 273.768C-220.095 275.565 -211.951 277.728 -203.822 280.242C-197.418 282.214 -190.439 284.563 -183.708 280.65C-181.493 279.358 -179.001 278.157 -177.403 276.258C-171.455 269.195 -163.337 266.549 -154.862 264.604C-149.254 263.319 -143.609 262.047 -137.915 261.314C-129.753 260.263 -122.096 262.478 -114.58 265.58C-108.712 268 -102.767 270.571 -96.1278 269.775C-86.6641 268.643 -80.2875 262.907 -75.1714 255.445C-73.0723 252.381 -72.0158 248.997 -74.2877 245.539C-75.3226 243.967 -76.5453 242.352 -78.0454 241.272C-82.8613 237.805 -87.8793 234.612 -92.7658 231.242C-103.018 224.169 -108.228 214.387 -108.095 201.917C-108.006 193.977 -105.765 186.494 -103.228 179.003C-99.014 166.566 -97.8009 153.739 -100.214 140.757C-101.49 133.89 -102.991 127.04 -104.855 120.31C-107.314 111.445 -112.543 105.085 -122.148 103.299C-131.924 101.487 -141.631 99.0997 -151.479 97.9461C-158.569 97.1173 -165.846 97.9373 -173.032 97.9324C-179.095 97.924 -184.984 97.0998 -190.771 95.0088C-195.697 93.2305 -200.817 91.7878 -205.968 90.8549C-210.809 89.9803 -215.831 90.1292 -220.742 89.5484C-226.265 88.8976 -231.908 88.4985 -237.218 86.9873C-244.497 84.915 -251.775 83.3913 -259.315 82.941C-264.357 82.6423 -269.387 82.1434 -274.43 81.7465C-275.183 81.6893 -275.982 81.4992 -276.686 81.6666C-285.119 83.6328 -286.788 86.7319 -283.946 96.2311C-282.533 100.956 -280.873 105.545 -280.827 110.561C-280.753 118.017 -285.916 122.545 -291.775 123.535C-298.875 124.734 -305.329 122.752 -311.143 119.103C-316.758 115.582 -321.75 111.076 -327.297 107.437C-330.893 105.081 -334.826 102.916 -338.915 101.687C-348.405 98.8386 -358.104 99.1427 -367.834 100.929C-371.703 101.642 -373.413 103.715 -374.283 107.291C-375.22 111.148 -376.362 114.987 -377.731 118.71C-380.226 125.498 -385.305 130.063 -391.292 133.802C-394.111 135.562 -396.927 137.374 -399.517 139.444C-403.354 142.512 -407.41 145.154 -412.256 146.1C-418.518 147.321 -423.678 144.258 -427.648 140.147C-431.706 135.948 -435.018 130.91 -438.064 125.883C-445.264 113.981 -455.268 110.886 -468.364 118.643C-475.905 123.108 -482.993 128.325 -490.409 132.996C-496.165 136.623 -502.143 139.829 -509.113 140.615C-516.256 141.422 -522.185 139.18 -526.71 133.652C-530.349 129.205 -533.631 124.46 -537.253 119.99C-538.56 118.373 -540.384 117.18 -541.97 115.791" stroke="#F9FAFC" stroke-width="3" stroke-miterlimit="10" stroke-linecap="round" stroke-linejoin="round"/>
<path d="M-493.001 -143.595C-479.408 -140.423 -468.253 -133.154 -459.526 -122.499C-453.791 -115.496 -449.149 -107.609 -443.664 -100.391C-436.747 -91.2788 -429.398 -82.4891 -422.382 -73.4492C-419.19 -69.3347 -415.943 -65.1642 -413.438 -60.6246C-409.71 -53.8827 -411.804 -47.5607 -415.925 -41.5627C-418.373 -38.0034 -420.951 -34.371 -422.511 -30.3961C-424.772 -24.6409 -422.748 -18.8996 -419.776 -13.9977C-414.055 -4.56882 -406.733 3.36063 -396.254 7.8514C-388.524 11.1643 -380.882 10.3805 -373.37 7.51599C-368.362 5.60842 -363.685 2.82883 -358.67 0.948861C-352.876 -1.21509 -346.832 -2.00665 -341.226 1.59726C-335.288 5.41395 -331.397 10.672 -331.644 18.0672C-331.78 22.2455 -334.262 25.5762 -336.57 28.8811C-339.989 33.7846 -343.804 38.4696 -346.764 43.636C-351.66 52.1838 -353.487 61.6569 -353.033 71.4563C-352.705 78.4376 -348.485 83.2291 -342.381 85.752C-335.932 88.4183 -329.126 90.2641 -322.398 92.1801C-320.273 92.7835 -317.886 92.5878 -315.623 92.5317C-312.83 92.4649 -310.782 91.0236 -309.64 88.4648C-308.034 84.8643 -306.445 81.2539 -304.977 77.5946C-301.006 67.6905 -293.271 63.8889 -283.095 63.7532C-275 63.6489 -266.909 63.3546 -258.818 63.1321C-251.074 62.9159 -243.836 64.7911 -236.925 68.2236C-231.583 70.8767 -226.177 73.3983 -220.736 75.8352C-218.581 76.7969 -216.263 77.4171 -213.993 78.1197C-206.592 80.4108 -198.987 82.1725 -191.829 85.0638C-183.737 88.3275 -175.551 89.435 -167.019 88.6038C-157.23 87.6508 -147.511 88.0031 -137.75 89.1665C-132.292 89.818 -126.696 89.2943 -121.215 89.826C-107.216 91.1887 -95.1956 97.5762 -92.6799 114.443C-91.416 122.965 -91.26 131.65 -90.6004 140.261C-90.1281 146.441 -89.252 152.625 -89.3271 158.799C-89.3954 164.557 -90.3415 170.227 -91.8823 175.935C-94.1573 184.358 -97.5533 192.771 -96.3263 201.835C-95.5256 207.796 -92.7248 212.568 -88.0608 216.529C-82.1549 221.554 -75.2404 224.452 -68.1329 227.053C-59.4692 230.228 -50.3379 232.206 -42.2666 236.896C-39.7193 238.375 -37.268 240.156 -35.1138 242.162C-29.458 247.44 -31.2723 254.252 -36.2483 258.516C-40.5076 262.164 -45.597 264.435 -50.9901 265.858C-60.0576 268.247 -68.0769 272.621 -75.5181 278.221C-79.4976 281.217 -83.8638 283.703 -88.7899 284.451C-94.933 285.387 -101.169 285.914 -107.378 286.198C-116.241 286.601 -125.124 285.244 -133.989 287.044C-141.597 288.585 -146.732 292.93 -149.709 299.816C-153.52 308.628 -156.993 317.588 -160.671 326.457C-162.912 331.863 -163.454 337.225 -160.408 342.493C-157.888 346.853 -153.769 349.38 -149.369 351.418C-143.029 354.351 -136.315 355.579 -129.336 355.956C-123.463 356.274 -117.629 357.323 -111.759 357.87C-101.232 358.851 -90.7439 360.87 -80.1015 359.614C-69.473 358.363 -60.8368 353.556 -53.8517 345.357C-46.0726 336.237 -37.9329 327.42 -29.9075 318.516C-24.1855 312.167 -18.6008 305.681 -12.5482 299.656C-9.19757 296.326 -5.11095 293.696 -1.18737 290.996C2.82613 288.235 7.42427 286.25 10.2593 282.02C15.3054 274.48 13.0015 265.415 7.85448 260.07C3.88577 255.952 -0.506258 252.245 -4.53847 248.187C-7.65483 245.053 -10.682 241.792 -13.4445 238.34C-18.1165 232.484 -22.9363 226.685 -26.9564 220.384C-30.2202 215.264 -32.6273 209.548 -34.9771 203.909C-36.5853 200.047 -37.3594 195.848 -38.6672 191.847C-40.566 186.032 -38.1848 181.82 -33.5323 178.82C-27.0433 174.634 -20.4909 170.491 -13.6452 166.939C-5.98019 162.955 -0.487137 156.954 4.16499 149.979C9.35674 142.186 15.2423 135.143 24.0492 131.231C36.0839 125.884 50.1267 127.744 57.9597 139.922C60.8263 144.379 63.4929 148.963 66.167 153.541C70.2383 160.504 78.9504 163.839 87.8799 161.144C94.8922 159.027 101.72 156.295 108.572 153.678C114.328 151.474 117.569 153.189 120.386 157.18C123.08 160.998 124.239 165.336 125.437 169.642C128.952 182.317 132.167 195.065 135.607 207.758C138.58 218.712 144.206 228.123 151.999 236.396C155.349 239.952 158.401 243.949 160.833 248.181C164.278 254.177 163.391 260.362 159.177 265.709C155.623 270.221 151.617 274.394 147.657 278.569C142.776 283.712 137.97 288.908 135.078 295.478C133.958 298.021 133.231 300.77 132.563 303.477C130.779 310.751 129.774 318.291 127.276 325.3C123.527 335.827 115.62 342.893 105.601 347.693C99.8952 350.429 94.1692 353.167 88.6827 356.296C85.2892 358.228 82.4471 361.112 79.1232 363.194C73.6063 366.657 68.1125 370.274 62.2293 373.015C50.9549 378.277 43.1061 387.005 36.2352 396.917C34.2979 399.711 32.3378 402.487 30.4194 405.285C25.0061 413.18 24.4966 421.76 26.9216 430.736C29.0268 438.536 31.4785 446.264 33.1545 454.159C34.1291 458.75 34.0094 463.603 34.1602 468.339C34.413 476.2 34.5223 484.061 34.6253 491.92C34.7106 498.732 34.6297 505.525 31.8424 511.958C29.8849 516.484 26.6145 520.012 22.8506 522.938C14.2339 529.648 7.29117 537.933 0.269742 546.152C-1.33902 548.035 -2.68482 550.151 -4.15385 552.158" stroke="#F9FAFC" stroke-width="3" stroke-miterlimit="10" stroke-linecap="round" stroke-linejoin="round"/>
<path d="M282.037 -97.8568C284.314 -90.3116 289.433 -84.8153 295.349 -80.0497C301.004 -75.4965 306.784 -71.0503 312.792 -66.979C322.185 -60.6107 326.587 -51.3914 328.682 -40.7343C330.159 -33.2031 331.857 -25.5975 338.028 -20.5227C341.882 -17.354 346.679 -15.2409 351.237 -13.0359C358.145 -9.68896 364.833 -6.24651 368.875 0.769969C373.272 8.39528 374.906 16.5111 373.697 25.2C372.713 32.2798 370.608 39.0435 367.936 45.6612C366.941 48.1303 366.418 50.7993 365.782 53.408C364.513 58.6453 362.45 59.751 357.451 57.7043C349.531 54.4601 342.368 49.9032 335.35 45.0666C327.188 39.4397 319.099 33.7027 310.732 28.4026C303.805 24.0142 296.671 23.8363 290.333 29.749C288.154 31.7793 286.341 34.2963 284.734 36.8261C278.32 46.9479 275.795 58.3913 273.857 70.0043C273.033 74.9601 272.562 80.0152 271.29 84.8538C269.479 91.7187 264.424 96.3983 259.233 100.869C254.463 104.976 249.037 108.476 245.699 113.989C242.968 118.493 240.069 123.031 238.275 127.935C236.046 134.042 234.467 140.467 233.328 146.885C231.199 158.86 233.691 169.729 242.166 178.953C245.49 182.577 248.255 186.708 251.482 190.431C256.173 195.84 262.441 199.223 268.31 203.131C273.575 206.638 278.677 210.323 281.515 216.349C287.435 228.909 280.738 244.957 266.04 246.531C256.379 247.567 248.823 245.057 243.323 236.917C242.818 236.169 241.963 235.648 241.444 234.904C235.889 226.845 229.99 230.223 226.502 236.7C224.19 240.996 222.762 245.759 220.894 250.296C218.542 256.015 215.178 261.039 211.237 265.838C208.312 269.405 205.723 273.544 204.178 277.855C203.073 280.943 203.351 284.867 204.06 288.199C206.663 300.421 209.639 312.596 214.554 324.118C217.858 331.863 223.471 338.093 229.73 343.667C237.705 350.767 244.398 358.989 251.097 367.251C255.747 372.979 255.901 378.7 252.304 384.823C248.8 390.801 245.318 396.802 241.731 402.731C236.252 411.802 234.167 421.782 233.558 432.203C233.228 437.787 233.081 443.412 232.293 448.936C231.284 455.979 227.9 462.214 224.448 468.332C223.202 470.538 221.661 472.584 220.332 474.749C215.492 482.616 207.998 485.764 199.25 486.045C186.225 486.466 174.404 490.789 163.026 496.599C154.22 501.093 145.678 506.094 136.836 510.502C129.774 514.026 122.138 515.608 114.209 514.731C108.683 514.126 103.219 512.918 97.6884 512.371C93.0171 511.907 88.2317 510.906 83.7277 513.568C78.2462 516.809 74.6981 521.29 73.2015 527.594C71.9069 533.036 72.4186 538.452 72.8847 543.834C73.5455 551.505 71.9244 558.85 70.5392 566.259" stroke="#F9FAFC" stroke-width="3" stroke-miterlimit="10" stroke-linecap="round" stroke-linejoin="round"/>
<path d="M-135.185 -176.924C-137.777 -170.625 -140.785 -164.443 -141.422 -157.539C-141.758 -153.888 -142.114 -150.169 -141.834 -146.532C-141.005 -135.775 -139.813 -125.04 -138.872 -114.287C-138.355 -108.38 -136.488 -102.844 -133.357 -97.9905C-128.291 -90.1409 -127.118 -81.4855 -127.584 -72.6499C-128.098 -62.8702 -123.2 -57.3111 -115.134 -53.2885C-111.274 -51.359 -107.405 -49.2384 -104.028 -46.5904C-98.2719 -42.0835 -96.5779 -35.4252 -95.997 -28.507C-95.0357 -17.0324 -93.2683 -5.81687 -88.6478 4.91224C-85.0596 13.2597 -84.1826 22.0681 -86.9633 30.9565C-88.5087 35.8937 -90.0604 40.8296 -91.7157 45.7265C-93.6331 51.3898 -91.1369 58.7087 -85.8406 61.4642C-81.0617 63.9524 -75.9602 65.803 -71.1616 68.2557C-64.6602 71.5781 -58.3757 75.3231 -51.8841 78.6633C-45.1536 82.1204 -38.074 84.3508 -30.333 83.7685C-26.1671 83.4515 -23.6463 81.3357 -22.253 77.4469C-21.0381 74.0532 -19.4821 70.7892 -18.1269 67.4481C-13.4537 55.9336 -0.143831 50.5403 11.2251 52.007C20.2557 53.1695 26.6238 58.5818 32.6691 64.3902C42.2742 73.6121 53.1971 80.935 64.5946 87.5771C74.074 93.1066 79.8184 100.751 79.4776 112C79.2935 118.095 76.5801 123.34 68.7035 121.044C63.8521 119.632 58.9761 118.281 54.2002 116.642C49.394 114.991 44.4767 114.69 39.511 114.921C31.7778 115.29 24.1194 116.299 16.8609 119.133C11.2659 121.315 7.12844 125.286 3.92001 130.353C0.385083 135.94 -2.99594 141.679 -7.0903 146.841C-13.6295 155.098 -22.7714 159.783 -32.5834 162.899C-43.5137 166.372 -54.6249 169.282 -65.6789 172.372C-68.6352 173.198 -72.48 171.226 -73.5802 167.924C-75.1991 163.081 -76.7285 158.145 -77.6234 153.132C-78.9457 145.715 -80.1808 138.217 -80.4887 130.717C-80.7008 125.441 -79.2817 120.102 -78.6375 114.786C-77.8949 108.672 -77.9958 102.634 -81.5564 97.2883C-84.1564 93.39 -86.838 89.509 -89.8822 85.9578C-93.2742 82.0015 -97.0042 78.3143 -100.793 74.7334C-106.666 69.1862 -113.314 66.8479 -121.412 69.7716C-127.297 71.8988 -133.275 74.1062 -139.405 75.1101C-150.674 76.9523 -162.056 78.2183 -173.442 79.1572C-179.442 79.6502 -185.066 77.2832 -190.547 74.78C-200.831 70.0845 -211.402 65.981 -221.497 60.9162C-227.573 57.8634 -233.119 53.6637 -238.633 49.6072C-244.605 45.2096 -249.887 39.6106 -257.329 37.7754C-261.451 36.7558 -265.856 36.8188 -270.146 36.5836C-272.015 36.4856 -274.446 37.4694 -275.381 35.4717C-276.419 33.2586 -274.212 31.6973 -272.851 30.159C-262.551 18.5444 -248.958 12.5126 -234.672 7.65596C-227.397 5.18404 -219.973 2.89043 -212.267 3.18919C-203.02 3.55045 -198.495 4.71785 -195.616 13.9889C-194.674 17.0194 -192.671 19.8259 -190.731 22.4178C-188.454 25.4653 -180.582 26.5788 -177.181 24.7076C-170.684 21.1357 -169.562 16.6083 -173.852 10.3544C-175.48 7.9842 -177.319 5.6528 -179.471 3.77773C-183.446 0.312099 -185.082 -3.84824 -184.876 -9.0577C-184.434 -20.3589 -187.34 -31.0387 -191.074 -41.5874C-194.2 -50.4154 -195.808 -59.6034 -195.99 -68.9465C-196.088 -74.1023 -195.618 -79.2882 -195.047 -84.4224C-194.499 -89.2997 -195.977 -93.6781 -198.208 -97.6961C-204.247 -108.556 -210.436 -119.346 -216.942 -129.941C-219.858 -134.689 -223.979 -138.692 -226.989 -143.392C-230.663 -149.138 -233.861 -155.198 -237.034 -161.248C-238.96 -164.915 -238.622 -168.781 -237.245 -172.686C-235.05 -178.884 -233.112 -185.177 -231.052 -191.42C-230.676 -192.55 -230.206 -193.656 -229.774 -194.769" stroke="#F9FAFC" stroke-width="3" stroke-miterlimit="10" stroke-linecap="round" stroke-linejoin="round"/>
<path d="M-102.41 -170.739C-104.622 -165.934 -106.662 -161.038 -109.082 -156.344C-115.211 -144.452 -116.802 -132.01 -113.724 -119.052C-112.833 -115.3 -111.005 -111.776 -109.663 -108.128C-107.987 -103.588 -105.838 -99.1353 -104.836 -94.4485C-102.543 -83.7343 -97.3538 -74.7715 -89.1533 -67.7926C-80.4118 -60.3592 -74.6671 -50.952 -69.8559 -40.8527C-66.4146 -33.6297 -63.2911 -26.2447 -60.2992 -18.8192C-57.7909 -12.6013 -55.7424 -6.196 -53.3619 0.0761302C-50.5241 7.55734 -45.6584 13.5282 -39.1411 18.0809C-34.3314 21.4431 -28.8566 23.1487 -23.0198 22.3833C-16.5537 21.5343 -9.9921 20.6641 -3.77102 18.7962C7.79448 15.3127 19.1947 16.3023 30.4546 19.3151C36.8428 21.0234 41.8332 25.6078 46.7413 30.0396C53.1539 35.8389 60.0201 40.8948 68.7929 42.7658C80.0953 45.1731 91.2911 48.0759 102.62 50.3054C107.127 51.195 111.886 51.1924 116.506 50.9938C122.172 50.751 127.705 51.2143 133.263 52.2371C138.518 53.2092 143.82 54.0989 149.139 54.5544C155.71 55.1221 159.453 51.3047 158.745 45.0219C157.942 37.8659 156.945 30.732 155.954 23.5994C155.047 17.0961 152.216 11.5485 147.771 6.66886C141.968 0.305589 135.641 -5.36005 128.381 -10.0267C116.523 -17.6502 104.422 -18.7328 91.5709 -12.45C84.8969 -9.1857 77.6029 -8.3428 70.2621 -9.95015C67.9493 -10.4585 65.4134 -11.3418 63.7035 -12.8656C60.741 -15.5006 60.3682 -19.4746 61.7301 -22.8862C63.9458 -28.4346 66.7715 -33.7568 69.6078 -39.0313C71.0962 -41.7989 73.5979 -44.0554 74.8516 -46.8934C78.0046 -54.0535 76.536 -59.4159 68.278 -61.7316C64.8064 -62.7067 61.0807 -62.7505 57.4662 -63.2107C49.4021 -64.2365 42.4418 -67.4105 37.2989 -73.8841C31.0539 -81.7473 25.2881 -89.9704 17.842 -96.8656C9.90672 -104.212 1.50053 -110.897 -7.46087 -116.923C-13.5149 -120.99 -19.5438 -125.052 -24.5062 -130.545C-29.4203 -135.983 -30.7715 -142.59 -31.3083 -149.5C-31.5074 -152.077 -31.2352 -154.695 -31.1816 -157.296" stroke="#F9FAFC" stroke-width="3" stroke-miterlimit="10" stroke-linecap="round" stroke-linejoin="round"/>
<path d="M-123.525 -174.724C-125.224 -170.912 -126.716 -166.984 -128.669 -163.311C-131.664 -157.682 -132.746 -151.567 -132.517 -145.446C-132.116 -134.567 -132.023 -123.543 -128.565 -113.053C-127.035 -108.397 -124.726 -103.993 -122.693 -99.5095C-119.459 -92.3647 -117.988 -84.7303 -116.502 -77.1124C-115.212 -70.4585 -111.702 -65.2919 -106.434 -61.1773C-103.003 -58.4997 -99.599 -55.7814 -96.2178 -53.0478C-90.4339 -48.379 -87.8688 -41.9089 -86.6253 -34.9047C-84.3925 -22.3154 -80.4687 -10.2817 -75.4963 1.45386C-72.7319 7.97469 -70.32 14.7032 -70.0104 21.7791C-69.804 26.5311 -70.6314 31.4341 -71.6776 36.1129C-73.3862 43.748 -70.845 49.0647 -64.3974 53.2256C-58.0955 57.2938 -51.4285 60.2231 -44.0089 61.2056C-38.5573 61.9277 -34.3042 59.1074 -30.5743 55.6008C-21.3149 46.9037 -10.3389 41.7358 2.12613 39.9888C15.4503 38.1167 26.7825 42.3377 36.0546 52.1822C39.8563 56.2159 43.763 60.1779 47.8918 63.862C55.8471 70.9643 65.488 73.182 75.8866 72.7684C82.2599 72.5155 88.6896 71.4442 94.9811 72.0049C102.069 72.6374 109.053 74.6085 116.046 76.1567C118.979 76.808 121.856 77.7492 124.696 78.7488C135.621 82.6056 146.494 86.5964 157.423 90.4281C162.915 92.3524 168.372 94.7401 174.052 95.6686C179.352 96.5382 184.931 95.9265 190.372 95.6347C195.16 95.3764 199.928 94.7031 204.695 94.1405C209.797 93.5366 211.044 92.5316 211.749 87.6514C212.408 83.0887 212.713 78.4657 213.078 73.8672C213.517 68.3948 213.918 62.9152 214.22 57.4367C214.671 49.2052 212.358 41.6076 208.427 34.488C204.764 27.8498 200.724 21.4146 197.221 14.6891C194.049 8.6005 193.422 1.85642 193.351 -4.92642C193.321 -7.8826 193.511 -10.8953 193.012 -13.7834C191.591 -21.9242 187.887 -23.3609 180.592 -22.0286C174.966 -21.0013 169.369 -19.6686 163.693 -19.1012C157.547 -18.4922 151.772 -20.5481 146.17 -22.9631C136.626 -27.0753 127.98 -32.6629 119.837 -39.0498C114.282 -43.4079 111.835 -49.2943 111.64 -56.2507C111.55 -59.4402 111.693 -62.6902 111.104 -65.7912C109.427 -74.5809 102.754 -78.9998 95.2925 -82.079C87.4079 -85.3361 79.2218 -87.8602 71.1436 -90.6447C63.3722 -93.3255 56.0357 -96.8578 48.9229 -100.988C39.6868 -106.354 30.1866 -111.254 20.8665 -116.486C12.6667 -121.082 4.32674 -125.489 -3.51305 -130.644C-11.667 -136.001 -16.0773 -143.936 -16.4947 -153.865C-16.5176 -154.124 -16.8298 -154.372 -16.9985 -154.62" stroke="#F9FAFC" stroke-width="3" stroke-miterlimit="10" stroke-linecap="round" stroke-linejoin="round"/>
<path d="M-178.657 395.853C-178.507 400.907 -174.962 404.051 -172.05 407.544C-165.576 415.3 -158.986 422.961 -152.651 430.828C-148.288 436.247 -144.106 441.828 -140.139 447.544C-131.033 460.66 -122.662 474.206 -116.222 488.888C-111.369 499.942 -102.073 501.324 -92.9431 496.493C-88.6938 494.247 -84.9658 491.027 -80.8914 488.428C-78.3376 486.795 -75.6371 485.352 -72.8985 484.055C-65.1334 480.37 -58.628 482.322 -53.9947 489.248C-50.1249 495.031 -46.5848 501.038 -42.5328 506.686C-38.9969 511.61 -34.6821 515.623 -28.7363 517.946C-22.0425 520.56 -14.2041 517.49 -10.4062 512.828C-5.05039 506.24 -4.25651 498.713 -6.45296 491.085C-9.75959 479.586 -14.0715 468.432 -20.6885 458.285C-26.0697 450.03 -27.8436 440.994 -25.4088 431.309C-23.841 425.077 -21.8307 418.922 -20.6927 412.616C-19.5726 406.404 -19.0729 400.055 -18.71 393.739C-18.2576 385.704 -15.2012 380.647 -7.23737 379.852C-4.25643 379.553 -1.33539 378.603 1.61951 377.992C13.9712 375.427 23.7619 369.311 30.5612 358.361C33.7326 353.248 34.2092 348.474 31.6947 343.189C29.286 338.139 25.6186 334.085 20.8231 331.443C14.3669 327.881 8.11591 329.665 2.20552 333.38C-6.74131 339.003 -13.9855 346.292 -19.2277 355.46C-23.6254 363.162 -29.5512 368.584 -38.4388 370.85C-45.7495 372.715 -52.8302 375.471 -60.0279 377.775C-70.0527 380.981 -80.4628 381.732 -90.8628 382.015C-104.151 382.38 -117.464 381.877 -130.732 382.52C-140.773 383.008 -150.775 384.573 -160.761 385.913C-165.598 386.567 -170.39 387.85 -174.382 390.843C-176.032 392.079 -177.203 393.96 -178.586 395.546" stroke="#F9FAFC" stroke-width="3" stroke-miterlimit="10" stroke-linecap="round" stroke-linejoin="round"/>
<path d="M-9.43039 -153.191C-8.67301 -150.874 -8.13091 -148.454 -7.11058 -146.251C-3.87665 -139.244 2.06787 -135.184 8.70747 -131.764C15.5672 -128.23 22.9831 -126.778 30.4484 -125.865C38.8132 -124.842 45.38 -120.828 51.3067 -115.29C59.1258 -107.985 68.0177 -102.56 78.3999 -99.7388C83.8825 -98.2472 89.3675 -96.7681 94.8671 -95.332C98.4932 -94.38 102.097 -93.2428 105.789 -92.6703C112.345 -91.6482 118.97 -91.0509 125.554 -90.1738C135.13 -88.8952 137.597 -81.8364 136.475 -74.0908C135.801 -69.4461 134.427 -64.9008 133.292 -60.3368C130.647 -49.6797 135.768 -44.196 142.791 -39.8677C153.406 -33.334 164.039 -33.9842 174.922 -38.7649C177.037 -39.6975 179.166 -40.6013 181.309 -41.4763C188.318 -44.3378 195.309 -43.952 201.502 -39.8261C206.796 -36.3006 208.935 -30.6159 208.715 -24.2274C208.501 -18.0794 208.305 -11.9214 207.827 -5.79058C207.143 2.91904 210.508 10.3757 214.964 17.3725C220.821 26.5659 227.194 35.4128 234.384 43.6632C238.531 48.4278 239.212 54.6077 240.094 60.6558C240.571 63.9053 241.407 67.1572 242.542 70.2372C243.586 73.078 245.98 75.1291 249.007 75.3088C252.223 75.4978 254.523 73.2032 255.743 70.47C258.798 63.6243 259.704 56.2294 260.512 48.8684C261.421 40.5602 260.961 32.0655 264.226 24.1041C266.521 18.5184 270.249 13.9803 274.743 10.1283C283.902 2.2739 293.534 -4.79927 305.05 -9.05593C312.741 -11.8997 317.343 -19.648 317.181 -28.2301C317.084 -33.3206 316.903 -38.3811 315.205 -43.3233C312.581 -50.9339 307.288 -56.5089 301.651 -61.8159C295.537 -67.5719 289.159 -73.0382 283.015 -78.7738C277.094 -84.3042 272.627 -90.7612 271.121 -98.9375C271.028 -99.4448 270.669 -99.8976 270.434 -100.379" stroke="#F9FAFC" stroke-width="3" stroke-miterlimit="10" stroke-linecap="round" stroke-linejoin="round"/>
<path d="M170.75 375.951C169.668 374.768 168.108 373.762 167.581 372.37C164.908 365.298 166.024 358.243 171.794 353.333C174.897 350.694 178.226 348.274 181.641 346.053C188.724 341.456 191.406 334.918 191.573 326.666C191.716 319.649 191.17 312.894 187.678 306.732C185.935 303.655 184.028 300.443 181.458 298.117C174.627 291.938 168.51 293.741 162.988 299.409C157.441 305.106 154.162 312 152.379 319.615C151.162 324.817 150.097 330.079 149.419 335.369C148.135 345.285 143.758 352.566 134.015 356.354C125.484 359.673 116.981 363.186 108.818 367.318C102.914 370.303 97.3016 374.068 92.1063 378.179C87.4549 381.865 82.5305 384.852 77.2185 387.368C72.6012 389.558 67.8985 391.647 63.553 394.3C58.3375 397.481 55.4153 402.726 54.0936 408.449C52.4257 415.661 54.95 421.967 60.6846 426.62C69.2331 433.554 75.2881 441.87 77.3232 452.947C77.9023 456.105 79.3183 459.186 80.7827 462.08C83.2626 466.961 88.008 469.488 92.7027 471.419C99.9225 474.394 106.43 478.305 112.283 483.404C121.101 491.087 130.936 491.07 141.262 487.235C149.021 484.345 156.358 480.645 163.037 475.691C170.613 470.07 179.471 467.166 188.105 463.717C197.409 460.009 202.733 452.932 204.83 443.099C206.285 436.291 205.517 429.5 205.686 422.691C205.879 414.92 207.294 407.386 209.547 399.913C211.858 392.235 213.773 384.404 215.26 376.525C216.484 370.038 212.812 363.868 206.887 360.916C203.175 359.067 199.837 360.982 196.555 362.289C194.995 362.908 193.76 364.333 192.343 365.339C185.806 369.987 179.285 374.69 171.077 376.019" stroke="#F9FAFC" stroke-width="3" stroke-miterlimit="10" stroke-linecap="round" stroke-linejoin="round"/>
<path d="M310.721 611.426C313.727 604.806 317.244 598.413 322.389 593.287C329.039 586.657 337.345 582.839 346.522 580.771C353.626 579.168 361 577.838 366.842 573.169C377.457 564.689 388.178 556.203 397.007 545.844C400.781 541.413 403.487 535.755 405.528 530.232C409.057 520.702 415.29 513.477 422.794 507.092C427.996 502.669 433.424 498.503 438.594 494.041C444.762 488.717 447.559 481.959 446.724 473.72C446.135 467.852 442.588 464.16 437.927 461.328C430.758 456.973 422.995 454.006 415.046 451.298C406.256 448.308 397.723 449.733 389.232 451.557C380.08 453.525 371.082 456.24 362.056 458.753C353.712 461.076 346.932 465.456 343.559 473.854C342.192 477.258 341.004 480.748 339.961 484.272C338.352 489.719 335.248 494.16 331.135 497.934C322.405 505.934 312.206 510.72 300.272 510.968C294.473 511.088 288.654 510.199 282.84 510.087C276.406 509.969 269.965 510.197 263.53 510.327C261.329 510.368 259.1 510.385 256.932 510.733C248.563 512.085 247.819 517.271 250.11 523.363C251.957 528.275 254.943 532.827 257.841 537.258C261.134 542.292 264.482 547.382 265.73 553.219C266.95 558.932 267.527 564.936 267.325 570.779C266.983 580.683 266.481 590.537 268.384 600.342C268.591 601.393 268.431 602.518 268.448 603.605" stroke="#F9FAFC" stroke-width="3" stroke-miterlimit="10" stroke-linecap="round" stroke-linejoin="round"/>
<path d="M-112.806 -172.701C-115.777 -166.192 -119.165 -159.827 -121.568 -153.113C-123.128 -148.753 -123.744 -143.901 -123.913 -139.233C-124.207 -130.829 -123.719 -122.414 -120.539 -114.43C-118.334 -108.89 -115.938 -103.424 -113.928 -97.8161C-111.88 -92.1028 -110.079 -86.2861 -108.378 -80.462C-106.48 -73.9481 -102.047 -69.3841 -97.2615 -64.9623C-93.1922 -61.2046 -89.1113 -57.4055 -85.4717 -53.2392C-81.0269 -48.1507 -79.3202 -41.5945 -77.0511 -35.3891C-73.9368 -26.883 -71.0192 -18.3031 -67.7921 -9.84104C-64.9857 -2.4702 -62.2003 4.94239 -58.8081 12.0452C-56.0106 17.9064 -52.6541 23.5729 -48.9477 28.9072C-45.1237 34.4138 -38.8904 35.5249 -32.6747 35.5882C-24.0558 35.6808 -15.8694 33.0153 -7.6384 30.874C0.985257 28.6239 9.64559 27.3208 18.4478 29.3476C25.5738 30.9862 32 34.2226 37.4869 39.1161C42.4644 43.561 47.1376 48.3727 52.3223 52.5499C54.8378 54.5783 58.1128 55.8687 61.2427 56.8902C68.2285 59.1682 75.5783 58.1335 82.7548 58.7437C86.0703 59.0235 89.4303 59.1027 92.6963 59.6799C103.957 61.6876 115.241 63.6345 126.402 66.0999C132.688 67.4885 138.746 69.8722 144.921 71.7753C149.752 73.2614 154.554 74.8662 159.446 76.0963C162.856 76.9487 166.387 77.5432 169.894 77.7416C177.205 78.1553 182.583 74.3918 186.88 68.9165C191.433 63.1239 194.579 56.6936 194.191 49.1002C193.914 43.6821 191.664 39.0013 188.123 34.8667C182.913 28.7851 178.665 22.1671 176.261 14.3956C173.394 5.13326 166.532 -0.189389 157.985 -4.22432C150.242 -7.88554 142.845 -12.3431 135.561 -16.8774C126.622 -22.4354 117.45 -27.4172 107.515 -30.9439C105.349 -31.7117 103.237 -32.6977 101.2 -33.7676C98.2112 -35.3304 96.2517 -37.7108 96.0813 -41.2354C95.8329 -46.3871 95.8985 -51.5774 95.3435 -56.6955C94.3822 -65.5068 89.1623 -71.192 81.1172 -74.3945C75.4944 -76.6307 69.7439 -78.1207 63.6007 -78.4641C54.4487 -78.9837 47.0679 -83.6993 40.661 -89.9088C32.3927 -97.9123 22.9112 -104.33 13.5848 -110.947C6.08919 -116.265 -1.76833 -121.084 -9.22918 -126.448C-16.5987 -131.742 -22.1642 -138.433 -23.1357 -147.951C-23.3969 -150.579 -23.4584 -153.228 -23.6129 -155.868" stroke="#F9FAFC" stroke-width="3" stroke-miterlimit="10" stroke-linecap="round" stroke-linejoin="round"/>
<path d="M295.879 608.787C300.783 602.969 305.962 597.353 310.536 591.277C317.163 582.482 325.817 576.856 336.142 573.647C349.525 569.495 362.035 563.67 373.236 555.163C380.527 549.633 386.792 543.243 390.155 534.523C391.556 530.903 392.934 527.234 393.841 523.468C395.566 516.3 400.244 511.366 405.525 506.73C410.229 502.591 415.044 498.525 419.279 493.933C422.325 490.624 425.166 486.779 426.888 482.672C429.197 477.148 426.632 470.573 419.149 465.878C409.729 459.967 399.51 460.049 389.231 462.007C382.799 463.228 376.199 464.443 370.649 468.494C367.312 470.926 365.276 474.034 364.579 478.139C363.625 483.782 362.623 489.474 358.652 493.98C356.774 496.113 354.804 498.215 352.611 500.014C336.757 513.008 318.171 519.724 298.293 523.427C294.857 524.064 291.451 524.884 288.066 525.733C280.631 527.601 276.395 531.717 277.209 540.611C278.352 553.06 277.059 565.447 277.256 577.861C277.388 586.118 279.524 593.891 283.34 601.172C284.487 603.36 286.229 605.236 287.696 607.249" stroke="#F9FAFC" stroke-width="3" stroke-miterlimit="10" stroke-linecap="round" stroke-linejoin="round"/>
<path d="M-40.6326 -159.08C-40.5414 -149.29 -41.1378 -139.454 -35.977 -130.412C-32.8913 -125.006 -28.0494 -121.572 -23.158 -118.331C-11.3387 -110.5 0.377323 -102.675 10.1049 -92.1308C16.6192 -85.072 22.0295 -77.386 26.2092 -68.7833C29.4726 -62.0703 33.2696 -55.6941 38.3557 -50.1647C41.8606 -46.3568 44.7565 -42.0894 43.8486 -36.7251C43.2736 -33.3673 41.6191 -30.1349 40.1448 -26.9925C37.8737 -22.1531 35.165 -17.5204 32.9558 -12.6628C28.1623 -2.13715 19.8477 2.73013 8.58612 4.08414C2.32145 4.83407 -3.78963 6.98385 -9.92887 8.62567C-15.195 10.0341 -20.4067 11.3613 -25.9578 10.5095C-34.357 9.21814 -40.0348 4.22986 -43.5483 -3.02637C-46.6819 -9.49287 -48.6305 -16.5321 -51.6829 -23.0485C-55.821 -31.8718 -60.7614 -40.3178 -64.907 -49.136C-70.1406 -60.2485 -79.0996 -68.2583 -87.0567 -77.1495C-90.9003 -81.4457 -93.9158 -86.2905 -95.4276 -92.0462C-97.8605 -101.292 -100.596 -110.458 -103.228 -119.649C-105.42 -127.302 -105.706 -134.916 -102.506 -142.361C-98.7808 -151.032 -94.9101 -159.643 -91.1052 -168.285" stroke="#F9FAFC" stroke-width="3" stroke-miterlimit="10" stroke-linecap="round" stroke-linejoin="round"/>
<path d="M298.171 -95.1387C302.447 -89.364 308.853 -86.4707 314.885 -83.2564C325.272 -77.7255 331.359 -68.9586 334.876 -58.1571C336.442 -53.3443 337.389 -48.3348 338.684 -43.4361C341.46 -32.892 347.825 -25.5611 358.016 -21.4509C362.019 -19.8337 365.968 -17.9266 369.638 -15.6541C376.955 -11.1202 379.799 -3.59874 381.873 4.22794C383.669 11.0034 384.775 17.9033 384.503 24.9477C384.344 29.1477 384.144 33.3532 383.753 37.5355C382.867 46.9707 387.676 53.8971 397.181 56.422C406.107 58.7921 415.158 60.6112 423.863 63.9122C430.648 66.4918 437.757 68.0161 445.249 66.5055C450.949 65.3554 455.186 61.9313 459.098 58.2177C464.815 52.7949 470.03 46.853 475.469 41.1362C480.836 35.4908 483.511 28.4101 486.066 21.2679C488.979 13.1354 489.863 4.71172 489.505 -3.86832C488.997 -16.0537 486.478 -27.607 477.298 -36.4158C474.274 -39.3168 470.248 -41.1929 466.608 -43.4205C461.979 -46.2524 456.935 -48.2358 452.845 -52.1216C448.273 -56.4702 445.85 -61.6536 444.409 -67.5397" stroke="#F9FAFC" stroke-width="3" stroke-miterlimit="10" stroke-linecap="round" stroke-linejoin="round"/>
<path d="M650.432 434.496C644.774 430.164 639.158 425.781 633.455 421.513C626.322 416.178 618.72 411.63 610.556 408.019C606.38 406.174 602.252 404.389 597.677 403.591C586.18 401.591 574.08 410.914 573.573 422.595C573.378 427.121 575.137 431.259 576.971 435.339C577.927 437.471 578.818 439.702 579.289 441.978C580.303 446.876 577.868 451.064 572.926 453.487C569.71 455.067 563.465 454.018 560.982 451.193C558.284 448.125 555.931 444.75 553.274 441.638C550.019 437.824 545.452 435.905 540.978 434.153C534.042 431.441 526.993 428.942 519.833 426.899C511.707 424.575 503.487 422.404 495.172 421.011C489.363 420.039 483.927 421.931 480.292 427.185C474.86 435.038 472.465 443.751 473.122 453.242C473.528 459.083 476.541 463.627 480.846 467.449C487.348 473.226 494.703 477.63 502.919 480.303C507.458 481.78 512.408 481.944 517.048 483.159C521.254 484.26 526.082 484.792 528.201 489.475C529.09 491.438 529.765 493.81 529.554 495.899C528.904 502.454 526.726 508.669 524.483 514.845C522.16 521.241 520.118 527.736 517.856 534.151C514.961 542.365 515.57 550.933 514.958 559.402C514.369 567.503 513.295 575.617 511.7 583.58C509.836 592.87 511.029 601.875 512.893 610.883C514.867 620.381 520.216 627.664 528.251 633.065C536.714 638.755 542.864 646.326 546.467 655.91" stroke="#F9FAFC" stroke-width="3" stroke-miterlimit="10" stroke-linecap="round" stroke-linejoin="round"/>
<path d="M523.428 651.732C519.729 646.086 514.078 642.682 508.317 639.898C501.731 636.716 499.305 631.754 499.081 624.949C498.743 614.532 498.169 604.116 497.87 593.7C497.782 590.706 498.133 587.672 498.576 584.701C499.741 576.871 501.611 569.104 502.149 561.241C502.628 554.275 501.46 547.213 501.454 540.188C501.448 532.406 501.943 524.627 502.198 516.841C502.259 514.999 502.484 513.116 502.218 511.309C501.707 507.858 497.754 505.18 493.076 504.649C489.036 504.194 484.981 503.748 480.983 503.007C472.374 501.408 463.876 501.886 455.379 503.743C447.623 505.438 440.455 508.414 434.032 513.116C427.512 517.884 422.95 524.034 420.359 531.744C417.263 540.958 412.153 548.663 404.103 554.546C397.122 559.646 389.751 564.463 384.261 571.312C379.804 576.868 375.614 582.645 371.547 588.49C368.153 593.365 363.648 595.583 357.805 595.342C354.242 595.198 350.677 594.996 347.105 594.968C338.097 594.893 331.17 598.978 325.787 605.952C323.92 608.374 322.218 610.925 320.441 613.423" stroke="#F9FAFC" stroke-width="3" stroke-miterlimit="10" stroke-linecap="round" stroke-linejoin="round"/>
<path d="M-76.2506 -165.802C-80.3606 -160.109 -84.8403 -154.635 -87.4303 -148.002C-91.0682 -138.688 -92.5022 -129.291 -89.6954 -119.328C-87.9265 -113.067 -86.8982 -106.547 -86.1221 -100.075C-85.0289 -90.926 -80.8603 -83.2327 -74.229 -77.4509C-63.6908 -68.2618 -57.4315 -56.5315 -51.4438 -44.3302C-46.3877 -34.0411 -40.7659 -24.0173 -34.9693 -14.1238C-30.1162 -5.8379 -23.9663 -3.48918 -14.0091 -6.19907C-8.61401 -7.668 -3.29682 -9.58899 2.18791 -10.5645C15.709 -12.9608 22.5082 -25.1903 21.5441 -37.9645C20.6375 -49.9707 17.2678 -61.482 11.5337 -72.2255C6.32495 -81.982 -1.34894 -89.4685 -9.68185 -96.4724C-18.0034 -103.468 -27.6016 -108.471 -36.6802 -114.291C-41.8974 -117.638 -46.9539 -121.249 -49.1899 -127.422C-49.902 -129.391 -50.355 -131.487 -50.6493 -133.56C-52.0163 -143.127 -52.6601 -152.824 -56.0798 -161.995" stroke="#F9FAFC" stroke-width="3" stroke-miterlimit="10" stroke-linecap="round" stroke-linejoin="round"/>
<path d="M228.056 196.807C229.014 191.419 226.728 186.725 224.561 182.158C221.279 175.232 221.046 168.197 222.033 160.752C223.05 153.085 223.314 145.321 223.884 137.595C224.508 129.102 219.512 124.236 212.671 120.843C206.869 117.966 201.004 115.077 194.887 113.002C189.286 111.103 183.276 110.915 177.3 111.139C172.088 111.33 166.858 111.094 161.639 111.179C156.236 111.269 151.625 112.39 149.099 118.232C146.054 125.269 142.237 131.971 138.8 138.836C134.975 146.483 134.455 154.629 135.219 162.966C136.729 179.388 141.202 195.116 146.871 210.495C150.239 219.629 156.827 226.572 164.184 232.693C170.634 238.055 177.215 243.168 182.54 249.82C188.499 257.257 194.899 254.548 199.477 247.168C202.834 241.763 204.75 235.486 207.86 229.904C211.007 224.263 214.62 218.848 218.414 213.617C222.192 208.403 225.998 203.253 228.307 197.174" stroke="#F9FAFC" stroke-width="3" stroke-miterlimit="10" stroke-linecap="round" stroke-linejoin="round"/>
<path d="M462.688 -64.0898C465.263 -59.1584 469.5 -55.5975 474.023 -52.9619C485.951 -46.0172 492.744 -35.3545 497.313 -22.9315C500.971 -12.9845 504.26 -2.87879 509.481 6.39699C511.33 9.67687 513.636 12.7102 515.837 15.7825C522.854 25.5734 525.405 36.7867 526.674 48.5021C527.486 56.0254 528.657 63.5185 529.945 70.9813C530.54 74.4358 532.736 76.913 535.914 78.7141C541.87 82.0902 548.226 84.3537 554.775 86.1055C559.424 87.3483 564.1 88.616 568.837 89.3861C582.468 91.5994 593.148 87.4462 600.262 75.1391C602.432 71.3903 604.63 67.6601 606.94 64.0029C610.533 58.3163 611.708 52.539 608.324 46.2929C604.882 39.9379 601.666 33.4559 598.203 27.11C594.06 19.5197 589.795 11.9911 585.509 4.4715C581.674 -2.25787 576.23 -7.41098 569.556 -11.2687C562.439 -15.3796 556.187 -20.2673 552.802 -28.1326C550.611 -33.2267 550.529 -38.5362 550.584 -43.9113C550.593 -44.9997 550.564 -46.0888 550.555 -47.1808" stroke="#F9FAFC" stroke-width="3" stroke-miterlimit="10" stroke-linecap="round" stroke-linejoin="round"/>
<path d="M491.688 -58.6167C502.44 -43.0879 508.958 -25.3618 517.612 -8.74716C520.563 -3.07882 524.338 2.23584 528.266 7.29849C533.675 14.2662 535.07 22.2977 535.892 30.6714C536.795 39.896 537.207 49.1259 539.689 58.2176C543.54 72.3657 562.456 80.5705 575.257 74.7285C581.635 71.8197 584.998 66.625 587.636 60.6733C592.347 50.0341 589.886 39.9672 584.491 30.4366C581.148 24.5247 577.306 18.8711 573.38 13.319C569.346 7.6096 563.221 4.71082 556.883 2.35912C550.99 0.169898 545.831 -2.6903 542.556 -8.47841C539.022 -14.7267 535.589 -21.0931 536.068 -28.3725C536.537 -35.4909 538.162 -42.5412 539.281 -49.615" stroke="#F9FAFC" stroke-width="3" stroke-miterlimit="10" stroke-linecap="round" stroke-linejoin="round"/>
<path d="M134.322 473.852C142.059 474.777 148.552 471.85 154.792 467.636C160.559 463.743 166.517 460.122 172.536 456.63C175.702 454.792 179.397 453.825 182.481 451.874C191.412 446.229 191.806 437.119 187.083 429.047C184.141 424.02 178.657 423.435 173.282 423.067C164.491 422.466 156.378 420.765 150.654 412.739C146.019 406.237 142.69 399.211 139.674 391.951C137.776 387.376 135.49 383.06 131.468 379.984C126.426 376.121 120.918 376.394 115.158 378.166C109.26 379.984 104.554 383.684 100.376 387.87C94.3846 393.881 87.3392 398.041 79.7661 401.573C75.9082 403.371 72.6368 405.763 71.7911 410.487C71.352 412.917 72.2107 414.835 73.3635 416.613C75.1677 419.401 77.0677 422.201 79.3594 424.586C84.266 429.683 86.6368 436.11 88.9053 442.491C91.5032 449.79 96.1291 454.991 103.027 458.114C111.344 461.884 119.482 465.907 127.033 471.105C129.06 472.506 131.624 473.134 133.94 474.112" stroke="#F9FAFC" stroke-width="3" stroke-miterlimit="10" stroke-linecap="round" stroke-linejoin="round"/>
<path d="M463.232 640.374C465.777 631.728 469.621 623.674 474.359 616.036C478.505 609.357 481.9 602.438 483.053 594.496C484.063 587.519 485.848 580.656 486.839 573.675C487.62 568.15 488.049 562.525 488.052 556.938C488.053 544.203 481.544 535.493 470.325 530.118C466.092 528.092 461.781 526.097 457.301 524.762C446.868 521.657 439.982 527.427 437.484 538.243C435.709 545.917 432.429 552.642 425.434 556.812C422.036 558.84 418.25 560.222 414.709 562.034C408.222 565.346 401.609 568.426 396.178 573.511C392.149 577.288 389.523 581.688 387.655 586.917C385.899 591.828 385.53 596.726 386.112 601.633C387.014 609.2 391.848 614.544 397.289 619.508C400.72 622.636 403.663 626.305 406.823 629.728" stroke="#F9FAFC" stroke-width="3" stroke-miterlimit="10" stroke-linecap="round" stroke-linejoin="round"/>
<path d="M680.408 275.65C679.064 270.389 677.97 265.052 676.299 259.893C674.408 254.039 669.515 250.185 665.57 245.837C654.919 234.1 646.423 221.008 640.592 206.349C638.644 201.451 638.12 195.856 637.659 190.52C637.049 183.512 636.148 176.631 633.952 169.93C632.304 164.9 629.391 160.616 625.955 156.723C622.335 152.626 617.667 152.868 613.026 154.596C606.829 156.893 601.504 160.719 596.407 164.829C590.435 169.636 584.594 174.604 578.606 179.389C575.301 182.029 571.682 184.29 568.42 186.977C562.398 191.944 560.934 196.727 564.485 206.099C568.039 215.491 574.405 222.887 581.954 229.306C587.348 233.895 593.064 238.126 598.273 242.902C607.247 251.143 611.555 261.284 608.77 273.547C607.37 279.719 605.551 285.832 603.377 291.78C598.511 305.079 600.716 317.539 607.535 329.382C609.551 332.883 611.671 336.383 615.37 338.922C621.332 343.024 627.503 343.393 634.113 341.957C642.279 340.195 649.139 335.876 655.501 330.666C661.314 325.908 667.102 321.112 672.901 316.331" stroke="#F9FAFC" stroke-width="3" stroke-miterlimit="10" stroke-linecap="round" stroke-linejoin="round"/>
<path d="M88.6235 314.759C92.7278 314.907 97.0231 315.046 99.8907 311.611C102.057 309.024 103.916 305.987 105.142 302.843C108.505 294.228 112.296 285.863 118.018 278.548C121.294 274.368 125.019 270.541 128.398 266.439C132.115 261.925 135.085 256.983 133.585 250.818C132.896 247.999 131.898 245.023 130.217 242.721C122.132 231.638 118.147 218.751 113.269 206.204C111.488 201.632 108.854 197.361 106.318 193.123C102.939 187.472 97.1286 185.781 91.1706 185.459C84.5353 185.095 77.8274 186.048 71.1861 185.716C61.4596 185.231 52.1793 182.971 45.5171 175.035C43.5925 172.746 42.3649 169.877 40.7082 167.345C39.5069 165.513 38.3089 163.628 36.796 162.063C33.7817 158.942 29.4398 159.154 26.9849 162.823C25.2381 165.437 23.9389 168.482 23.0408 171.511C21.376 177.151 20.408 183.006 18.6447 188.614C17.723 191.56 15.5981 194.103 14.2778 196.948C11.6752 202.541 12.9589 208.26 14.7786 213.63C17.4598 221.526 20.7811 229.281 25.867 235.953C34.3287 247.048 38.4998 259.605 40.0196 273.274C40.4492 277.154 41.2214 280.949 43.3889 284.406C45.7829 288.22 49.025 290.999 52.919 292.987C61.1383 297.169 68.9388 301.84 75.9602 307.976C79.4061 310.99 84.1455 312.511 88.2997 314.711" stroke="#F9FAFC" stroke-width="3" stroke-miterlimit="10" stroke-linecap="round" stroke-linejoin="round"/>
<path d="M255.536 601.175C255.39 599.078 255.011 596.97 255.141 594.892C255.348 591.583 256.019 588.308 256.278 584.995C256.76 578.878 257.71 572.706 257.349 566.626C256.712 555.924 250.326 548.497 241.738 542.777C238.984 540.939 236.096 539.291 233.262 537.568C228.009 534.376 225.26 529.471 223.809 523.7C222.256 517.506 220.398 511.476 214.733 507.665C212.89 506.43 210.888 505.275 208.79 504.599C190.702 498.783 173.394 500.392 157.11 510.473C150.872 514.335 144.957 518.767 138.488 522.188C130.939 526.181 122.505 527.286 114.013 527.837C109.638 528.121 105.232 528.674 100.96 529.623C92.5847 531.489 89.698 536.996 89.1696 544.292C88.6268 551.769 89.2161 559.335 89.3494 566.86C89.3679 567.869 89.6027 568.873 89.7394 569.878" stroke="#F9FAFC" stroke-width="3" stroke-miterlimit="10" stroke-linecap="round" stroke-linejoin="round"/>
<path d="M35.5265 215.633C34.9372 223.114 37.9103 229.393 41.8625 235.466C45.3183 240.779 47.6557 246.553 48.4476 252.976C49.1057 258.309 50.373 263.562 51.2446 268.87C52.3276 275.446 56.7562 279.513 62.1589 282.223C68.9152 285.614 75.9511 288.456 83.5551 289.741C88.3434 290.553 92.7389 289.607 96.093 286.709C104.724 279.231 110.635 269.739 114.142 258.866C115.578 254.404 114.62 249.902 113.07 245.627C109.407 235.53 105.712 225.432 101.748 215.447C100.505 212.314 98.6155 209.353 96.5807 206.645C92.1535 200.737 85.6628 199.329 78.7484 199.337C71.3234 199.352 63.9067 199.564 56.4827 199.678C46.6952 199.828 39.922 204.379 36.2517 213.485C36.0079 214.085 35.7995 214.705 35.5796 215.316" stroke="#F9FAFC" stroke-width="3" stroke-miterlimit="10" stroke-linecap="round" stroke-linejoin="round"/>
<path d="M184.081 -116.67C181.821 -114.485 179.708 -112.109 177.258 -110.163C174.303 -107.822 171.128 -105.732 167.915 -103.753C164.051 -101.369 162.028 -97.9121 161.107 -93.5882C159.707 -86.9982 158.054 -80.4558 156.818 -73.8349C156.289 -70.9972 156.211 -67.9895 156.47 -65.1075C156.946 -59.7432 161.247 -56.4899 166.669 -57.3402C170.349 -57.9186 174.024 -58.7461 177.58 -59.844C184.373 -61.9434 190.849 -60.3555 197.21 -58.2934C200.858 -57.1089 204.239 -55.1 207.734 -53.4547C217.2 -48.9982 220.518 -41.1196 220.553 -31.1383C220.581 -23.5738 220.452 -15.9018 221.609 -8.47024C222.995 0.408126 229.181 6.0539 237.388 9.16281C241.068 10.5558 244.955 9.36367 248.384 7.69342C253.444 5.23425 258.56 2.78579 263.241 -0.29327C271.7 -5.85785 279.917 -11.801 288.107 -17.769C291.172 -20.004 294.062 -22.5528 296.705 -25.2788C304 -32.806 303.038 -39.9138 298.66 -47.9859C293.992 -56.5959 287.072 -63.3723 279.342 -69.4202C274.854 -72.9306 270.521 -76.849 266.932 -81.2473C262.072 -87.217 259.857 -94.3653 260.682 -102.226" stroke="#F9FAFC" stroke-width="3" stroke-miterlimit="10" stroke-linecap="round" stroke-linejoin="round"/>
<path d="M647.792 449.34C640.028 443.194 632.428 436.837 624.427 431.013C621.087 428.581 617.077 426.551 613.084 425.673C607.323 424.416 601.363 425.419 601.038 432.676C600.797 438.101 601.056 443.542 600.809 448.965C600.648 452.486 600.353 456.086 599.441 459.465C598.066 464.572 593.444 466.754 589.229 468.923C579.548 473.904 569.154 477.543 560.312 484.1C554.582 488.345 550.856 494.183 548.393 500.768C547.235 503.859 546.257 507.141 545.947 510.405C545.197 518.325 547.785 520.935 553.64 522.739C561.555 525.179 570.11 525.54 577.435 529.789C581.449 532.113 585.594 534.462 588.97 537.573C595.314 543.425 601.905 546.79 610.927 544.674C617.157 543.212 623.692 543.036 630.087 542.284" stroke="#F9FAFC" stroke-width="3" stroke-miterlimit="10" stroke-linecap="round" stroke-linejoin="round"/>
<path d="M626.321 563.113C620.384 561.124 614.292 559.505 608.561 557.046C602.185 554.308 596.488 555.231 590.651 558.313C584.88 561.363 578.988 564.768 572.249 564.195C566.64 563.717 561.079 562.263 555.614 560.781C551.856 559.765 548.319 557.929 544.66 556.527C540.636 554.984 536.526 556.115 534.314 559.81C532.143 563.428 529.993 567.174 528.632 571.134C526.332 577.822 523.972 584.622 522.882 591.571C521.382 601.145 522.682 610.477 529.806 618.01C534.175 622.634 539.753 625.417 545.777 626.775C551.181 627.991 556.839 628.654 562.375 628.583C567.499 628.518 571.415 630.113 574.42 633.976C578.874 639.706 585.037 643.232 590.894 647.165C596.666 651.035 602.501 654.806 608.309 658.624" stroke="#F9FAFC" stroke-width="3" stroke-miterlimit="10" stroke-linecap="round" stroke-linejoin="round"/>
<path d="M721.124 -15.316C716.494 -7.76248 709.849 -2.02513 703.408 3.8094C694.347 12.0087 687.59 21.5957 683.198 33.0002C681.904 36.3658 680.186 39.658 677.052 42.0107C672.071 45.751 666.384 45.5134 660.701 45.3939C653.308 45.239 645.897 44.7672 638.968 48.1726C637.874 48.7104 636.667 49.1223 635.735 49.8734C632.593 52.4137 632.474 55.6357 635.371 58.5846C639.2 62.4733 643.876 65.1576 648.681 67.6115C650.824 68.7079 653.191 69.383 655.287 70.5554C659.518 72.9337 663.882 72.1579 668.201 71.2693C671.142 70.6624 673.987 69.5999 676.864 68.7068C683.25 66.7264 689.28 67.6032 695.074 70.8315C702.299 74.8518 709.557 78.8001 716.803 82.7787" stroke="#F9FAFC" stroke-width="3" stroke-miterlimit="10" stroke-linecap="round" stroke-linejoin="round"/>
<path d="M372.253 268.085C372.229 262.127 370.101 256.934 366.832 252.015C362.737 245.837 358.552 239.714 352.238 235.644C343.416 229.951 333.911 225.664 323.33 224.659C316.307 223.993 311.461 227.883 308.619 233.913C306.514 238.392 304.963 243.185 303.655 247.971C301.991 254.054 300.743 260.255 299.466 266.431C297.876 274.128 301.788 277.856 308.114 279.272C317.503 281.37 326.766 280.54 336.14 279.606C343.491 278.879 350.9 278.776 358.252 278.107C360.929 277.861 363.607 276.989 366.145 276.032C369.581 274.735 370.955 271.574 372.18 268.404" stroke="#F9FAFC" stroke-width="3" stroke-miterlimit="10" stroke-linecap="round" stroke-linejoin="round"/>
<path d="M714.353 96.667C709.901 96.0423 705.469 95.1079 700.991 94.8634C689.988 94.2621 685.894 99.4559 683.146 108.409C680.329 117.598 676.083 125.707 669.166 132.607C663.572 138.177 658.395 144.231 655.257 151.759C653.017 157.126 651.543 162.515 651.464 168.368C651.421 171.774 650.822 175.193 650.237 178.568C648.091 190.84 650.078 202.345 656.502 213.029C658.996 217.175 661.546 221.306 664.324 225.264C669.082 232.05 675.733 236.066 683.804 237.779C685.06 238.042 686.325 238.261 687.585 238.499" stroke="#F9FAFC" stroke-width="3" stroke-miterlimit="10" stroke-linecap="round" stroke-linejoin="round"/>
<path d="M378.723 330.667C378.31 323.174 373.167 319.155 367.55 315.503C356.327 308.215 344.136 308.232 331.578 310.646C323.069 312.285 315.377 315.514 310.146 322.654C306.197 328.045 303.798 334.081 304.518 341.162C305.064 346.5 308.129 349.494 312.411 351.745C317.75 354.548 323.358 355.998 329.483 356.475C335.408 356.934 341.182 356.848 346.904 355.617C354.633 353.956 361.519 350.333 367.459 345.142C370.532 342.458 373.324 339.421 375.956 336.301C377.208 334.82 377.785 332.769 378.665 330.976" stroke="#F9FAFC" stroke-width="3" stroke-miterlimit="10" stroke-linecap="round" stroke-linejoin="round"/>
<path d="M627.206 -33.041C624.422 -28.0438 619.873 -25.4165 614.67 -23.6503C611.858 -22.6925 609.08 -21.637 606.269 -20.6792C601.95 -19.2031 600.461 -15.9851 600.3 -11.6744C599.986 -3.26701 603.49 3.97423 607.173 11.1254C608.97 14.611 611.375 17.7741 613.381 21.1554C617.944 28.8708 624.779 32.3934 633.575 31.7556C641.736 31.1612 649.9 30.2082 657.617 27.193C664.84 24.3719 669.155 18.5278 672.864 12.1254C676.487 5.8635 680.423 -0.260862 683.478 -6.79332C685.643 -11.4177 686.565 -16.616 688.04 -21.56" stroke="#F9FAFC" stroke-width="3" stroke-miterlimit="10" stroke-linecap="round" stroke-linejoin="round"/>
<path d="M423.234 -71.2094C424.742 -62.2166 427.02 -53.5681 433.619 -46.7152C437.888 -42.2866 443.421 -40.0217 448.886 -37.6455C453.809 -35.5023 458.837 -33.5742 463.654 -31.2223C471.914 -27.183 476.485 -17.6121 474.619 -7.65668C472.776 2.17895 468.896 11.1145 463.183 19.1818C460.823 22.5225 457.683 25.4942 454.381 27.9456C447.593 32.9901 440.43 37.5329 433.467 42.3616C428.171 46.0361 422.14 45.8248 416.197 45.5321C412.813 45.3701 409.347 44.7095 406.136 43.6335C400.672 41.8057 398.048 37.5114 397.223 31.9244C395.865 22.7249 394.379 13.547 392.98 4.35295C391.998 -2.13189 391.075 -8.62493 390.121 -15.1176C389.589 -18.7364 388.159 -21.7088 384.437 -23.051C381.992 -23.9303 379.589 -24.9647 377.099 -25.7089C372.373 -27.1295 367.438 -27.9956 362.88 -29.8219C354.888 -33.0275 349.463 -38.8363 347.234 -47.3645C345.231 -55.0473 343.303 -62.7485 341.099 -70.3712C339.386 -76.3411 337.294 -82.2062 335.362 -88.1196" stroke="#F9FAFC" stroke-width="3" stroke-miterlimit="10" stroke-linecap="round" stroke-linejoin="round"/>
<path d="M711.319 112.741C704.491 113.606 699.99 117.947 696.659 123.389C691.343 132.079 685.033 139.956 677.984 147.21C672.46 152.891 669.566 159.786 667.473 167.14C666.189 171.663 665.275 176.295 664.189 180.875C660.719 195.528 671.468 213.524 684.713 217.401C686.89 218.04 689.009 218.851 691.155 219.583" stroke="#F9FAFC" stroke-width="3" stroke-miterlimit="10" stroke-linecap="round" stroke-linejoin="round"/>
<path d="M458.241 -4.21887C457.937 -7.72941 458.625 -11.3728 456.633 -14.6536C453.405 -19.9629 445.279 -23.5658 438.178 -22.3275C429.045 -20.7349 421.397 -16.1139 415.215 -9.36884C407.767 -1.24372 411.814 9.34442 420.642 13.6543C427.892 17.1964 435.816 17.8563 443.601 14.5536C450.448 11.6485 454.716 6.46788 456.91 -0.553435C457.262 -1.69458 457.756 -2.78945 458.182 -3.9037" stroke="#F9FAFC" stroke-width="3" stroke-miterlimit="10" stroke-linecap="round" stroke-linejoin="round"/>
<path d="M510.923 467.244C515.799 467.695 520.518 467.736 525.279 465.789C535.627 461.56 537.592 449.038 528.39 442.144C520.749 436.42 512.14 433.366 502.63 433.431C493.884 433.491 489.014 440.83 491.035 449.489C493.264 459.022 499.732 463.801 508.458 466.472C509.192 466.696 509.857 467.154 510.549 467.5" stroke="#F9FAFC" stroke-width="3" stroke-miterlimit="10" stroke-linecap="round" stroke-linejoin="round"/>
<path d="M644.526 466.672C638.529 465.866 634.733 469.099 631.782 473.738C629.152 477.883 626.288 481.717 622.248 484.721C618.02 487.859 613.29 488.775 608.289 489.228C605.161 489.512 601.925 489.574 598.95 490.462C591.17 492.773 586.326 498.55 592.413 508.289C595.917 513.899 600.79 518.624 606.604 522.234C612.903 526.145 619.796 526.976 626.938 527.006C628.993 527.015 631.048 527.122 633.106 527.184" stroke="#F9FAFC" stroke-width="3" stroke-miterlimit="10" stroke-linecap="round" stroke-linejoin="round"/>
<path d="M318.351 332.329C318.684 336.204 319.202 340.068 322.632 342.576C326.693 345.549 331.296 347.514 336.327 347.733C344.044 348.073 351.339 346.394 357.424 341.302C360.152 339.023 362.643 336.412 363.338 332.659C364.047 328.831 362.837 325.769 359.919 323.175C355.32 319.076 349.919 317.704 343.925 317.885C338.2 318.058 332.745 319.013 327.512 321.596C322.913 323.861 320.377 327.613 318.41 332.02" stroke="#F9FAFC" stroke-width="3" stroke-miterlimit="10" stroke-linecap="round" stroke-linejoin="round"/>
<path d="M189.351 588.683C189.194 587.785 188.851 586.872 188.914 585.983C189.42 578.774 186.554 574.173 180.072 570.54C174.281 567.293 168.171 565.148 161.789 563.545C156.69 562.27 151.726 560.243 146.564 559.51C137.275 558.194 127.9 557.854 118.522 559.29C108.964 560.75 100.292 564.088 92.9223 570.484" stroke="#F9FAFC" stroke-width="3" stroke-miterlimit="10" stroke-linecap="round" stroke-linejoin="round"/>
<path d="M83.494 21.994C83.5655 26.8381 86.6981 29.5052 90.5287 31.4489C100.053 36.2884 107.948 33.372 113.906 26.7413C116.269 24.1126 118.582 21.4028 120.656 18.5432C122.976 15.3451 123.694 11.9229 121.369 8.22672C119.427 5.13154 113.702 3.12417 110.302 4.57142C105.582 6.57902 100.918 8.74076 96.3501 11.0839C93.3949 12.5955 90.5013 14.3341 87.8864 16.3604C86.0674 17.7666 84.7677 19.8452 83.2371 21.6257" stroke="#F9FAFC" stroke-width="3" stroke-miterlimit="10" stroke-linecap="round" stroke-linejoin="round"/>
<path d="M623.469 578.243C619.372 577.469 615.292 576.608 611.174 575.942C602.217 574.493 594.746 578.109 587.983 583.367C585.741 585.111 584.158 587.757 582.418 590.092C580.478 592.696 580.55 595.667 581.845 598.424C583.658 602.272 585.756 605.99 587.845 609.694C590.074 613.653 592.464 617.525 594.745 621.454C598.865 628.538 604.911 633.413 612.25 636.828" stroke="#F9FAFC" stroke-width="3" stroke-miterlimit="10" stroke-linecap="round" stroke-linejoin="round"/>
<path d="M242.863 574.956C243.486 570.132 243.042 565.563 239.051 562.186C235.19 558.918 230.779 558.843 226.3 560.746C222.538 562.347 219.924 566.788 220.119 570.983C220.398 577.113 222.088 582.857 225.054 588.208C225.627 589.25 226.564 590.132 227.454 590.952C229.671 593.003 231.666 593.19 233.894 591.176C237.671 587.763 240.423 583.628 241.855 578.669C242.189 577.525 242.695 576.432 243.127 575.319" stroke="#F9FAFC" stroke-width="3" stroke-miterlimit="10" stroke-linecap="round" stroke-linejoin="round"/>
<path d="M60.4785 564.198C60.249 559.637 60.3475 555.034 59.7211 550.535C58.8096 543.986 55.7604 538.351 50.8614 533.836C47.9144 531.119 44.6083 529.856 40.3853 530.475C26.5069 532.517 15.667 539.212 7.85223 550.838C7.15393 551.875 6.56588 552.985 5.93216 554.06" stroke="#F9FAFC" stroke-width="3" stroke-miterlimit="10" stroke-linecap="round" stroke-linejoin="round"/>
<path d="M705.968 141.105C700.307 146.891 694.239 152.339 689.092 158.548C682.966 165.931 679.397 174.363 683.49 184.183C685.814 189.753 690.668 192.327 695.916 194.369" stroke="#F9FAFC" stroke-width="3" stroke-miterlimit="10" stroke-linecap="round" stroke-linejoin="round"/>
<path d="M661.654 375.904C655.278 373.441 648.906 373.825 642.673 376.272C635.574 379.057 635.224 385.03 639.576 389.572C644.728 394.957 650.652 399.613 656.241 404.585" stroke="#F9FAFC" stroke-width="3" stroke-miterlimit="10" stroke-linecap="round" stroke-linejoin="round"/>
<path d="M188.925 149.93C187.96 144.493 183.662 142.226 177.895 144.663C174.306 146.179 171.05 148.417 168.886 151.997C167.501 154.288 167.656 156.302 168.694 158.515C169.786 160.856 172.077 160.994 174.082 161.098C179.324 161.37 185.695 157.017 187.891 152.02C188.164 151.405 188.539 150.836 188.872 150.247" stroke="#F9FAFC" stroke-width="3" stroke-miterlimit="10" stroke-linecap="round" stroke-linejoin="round"/>
<path d="M49.1328 562.057C48.139 553.729 42.8113 548.892 35.2986 547.089C30.2897 545.889 25.0062 547.32 20.8796 551.026C19.159 552.568 17.628 554.316 16.0104 555.969" stroke="#F9FAFC" stroke-width="3" stroke-miterlimit="10" stroke-linecap="round" stroke-linejoin="round"/>
<path d="M397.697 479.167C393.871 478.478 391.02 480.303 388.875 483.09C387.698 484.624 387.618 486.704 388.734 488.573C389.84 490.427 391.4 490.982 393.55 490.833C396.465 490.639 398.726 489.414 400.409 487.173C403.227 483.416 402.565 481.215 398.071 478.911" stroke="#F9FAFC" stroke-width="3" stroke-miterlimit="10" stroke-linecap="round" stroke-linejoin="round"/>
<path d="M150.899 581.427C146.508 575.154 140.263 573.414 133.018 574.135C130.03 574.433 126.942 574.366 124.425 576.43" stroke="#F9FAFC" stroke-width="3" stroke-miterlimit="10" stroke-linecap="round" stroke-linejoin="round"/>
<path d="M724.407 43.4012C722.673 43.9422 720.839 44.2817 719.221 45.073C715.087 47.0931 712.531 53.6478 714.5 58.4323C715.741 61.4408 718.135 63.975 720.005 66.7237" stroke="#F9FAFC" stroke-width="3" stroke-miterlimit="10" stroke-linecap="round" stroke-linejoin="round"/>
<path d="M491.353 304.595C481.882 304.864 473.109 307.562 464.535 311.551C451.482 317.626 441.092 326.332 434.162 339.15C430.976 345.031 427.53 350.804 422.691 355.655C417.555 360.803 411.496 362.466 404.467 362.008C397.619 361.564 390.684 360.053 383.924 362.08C378.651 363.663 373.357 365.491 368.473 367.99C357.678 373.512 346.215 376.662 334.388 378.765C327.302 380.025 320.13 381.054 313.524 384.025C305.965 387.416 300.198 393.136 294.912 399.391C287.176 408.558 279.838 418.108 270.89 426.158C265.197 431.279 263.375 437.372 264.08 444.842C265.326 458.061 270.472 469.013 281.717 476.462C285.187 478.762 289.088 480.817 293.084 481.813C301.321 483.863 306.554 481.143 311.248 473.98C314.419 469.147 317.632 464.264 321.45 459.945C328.007 452.526 336.874 449.121 346.328 446.936C356.253 444.638 366.587 443.808 375.865 439.129C380.2 436.944 384.46 434.575 388.614 432.069C393.564 429.087 398.593 426.374 404.484 425.978C409.152 425.664 413.6 426.412 418.212 427.674C424.506 429.397 431.023 431.358 437.808 429.336C444.124 427.453 448.079 423.167 450.455 417.322C452.123 413.224 453.415 408.97 454.821 404.771C456.794 398.883 461.39 396.081 466.918 394.324C474.508 391.912 482.235 391.542 489.982 393.174C496.072 394.46 501.343 397.557 506.486 401.054C512.334 405.037 518.534 408.367 525.704 409.734C533.562 411.23 540.207 409.403 546.049 404.043C553.155 397.518 559.376 390.186 565.035 382.441C569.673 376.097 568.836 371.297 562.219 366.648C558.455 364.005 554.322 361.867 550.617 359.151C543.942 354.261 539.816 347.242 535.511 340.372C530.816 332.873 527.208 324.705 520.819 318.257C514.799 312.179 507.988 307.832 499.557 306.156C496.933 305.635 494.308 305.159 491.679 304.663" stroke="#F9FAFC" stroke-width="3" stroke-miterlimit="10" stroke-linecap="round" stroke-linejoin="round"/>
<path d="M16.158 314.792C6.07348 315.513 -1.63621 320.945 -9.391 326.858C-21.3706 335.995 -31.0212 347.595 -42.5077 357.197C-54.3657 367.107 -68.2017 372.937 -83.7326 373.531C-100.842 374.186 -117.988 374.07 -135.112 374.39C-144.526 374.565 -153.947 374.745 -163.343 375.309C-170.797 375.756 -178.318 376.282 -185.628 377.69C-195.369 379.566 -203.691 376.964 -211.648 371.708C-217.296 367.979 -222.851 363.967 -228.919 361.046C-238.697 356.335 -249.142 356.094 -259.492 359.121C-265.261 360.807 -269.201 364.946 -271.447 370.515C-274.706 378.582 -276.17 386.929 -274.91 395.646C-273.632 404.505 -268.983 411.178 -261.872 416.424C-257.128 419.924 -251.937 422.373 -246.288 423.883C-239.029 425.821 -232.062 424.668 -225.306 421.661C-218.422 418.599 -211.516 415.594 -204.651 412.49C-194.882 408.08 -185.987 410.203 -177.56 415.984C-171.243 420.316 -166.196 425.916 -161.643 432.024C-154.13 442.091 -146.285 451.921 -139.013 462.158C-133.329 470.157 -129.025 478.933 -126.586 488.565C-125.348 493.453 -124.157 498.346 -121.224 502.731C-117.665 508.05 -112.41 510.23 -106.691 510.781C-101.17 511.307 -95.5014 510.601 -89.923 510.133C-87.3828 509.921 -84.8709 509.063 -82.3914 508.343C-73.8735 505.857 -69.5328 507.277 -64.2684 514.387C-61.928 517.551 -59.782 520.881 -57.2073 523.841C-51.4171 530.482 -44.456 535.243 -35.5366 536.821C-28.6 538.046 -21.9948 536.91 -16.0505 533.534C-5.51607 527.558 2.38809 518.951 6.8047 507.551C9.164 501.449 9.74254 495.063 8.18232 488.561C6.25551 480.507 4.12256 472.474 2.73571 464.326C1.82553 458.945 2.33578 453.336 1.73305 447.882C1.18179 442.883 0.236841 437.893 -0.988771 433.007C-3.01798 424.909 -4.72761 416.811 -2.79755 408.487C-1.41053 402.521 1.40962 397.263 6.51687 393.618C11.9325 389.757 17.559 386.198 22.9656 382.316C30.9389 376.594 37.5119 369.368 44.0585 362.143C46.7549 359.166 49.1879 356.029 50.345 351.939C51.999 346.114 50.0967 341.356 46.4637 337.223C42.0614 332.221 37.0733 327.729 32.6336 322.752C28.2525 317.845 22.8284 315.49 16.4606 314.85" stroke="#F9FAFC" stroke-width="3" stroke-miterlimit="10" stroke-linecap="round" stroke-linejoin="round"/>
<path d="M376.862 385.478C360.893 386.942 345.735 391.543 330.879 397.349C323.317 400.302 317.162 404.931 313.78 412.44C312.489 415.303 311.84 418.64 311.702 421.793C311.548 425.374 314.451 428.501 318.662 429.256C332.207 431.682 345.84 432.669 359.404 429.458C365.546 428.006 370.55 424.218 374.571 419.584C379.502 413.896 383.67 407.587 387.061 400.791C390.784 393.341 386.748 386.678 379.386 385.941C378.643 385.866 377.916 385.67 377.179 385.531" stroke="#F9FAFC" stroke-width="3" stroke-miterlimit="10" stroke-linecap="round" stroke-linejoin="round"/>
<path d="M326.049 236.191C318.184 236.429 313.718 245.013 313.481 252.11C313.302 257.383 314.641 262.049 319.174 264.353C322.318 265.958 326.486 265.799 330.217 265.954C334.99 266.157 339.378 264.661 343.393 261.998C346.803 259.737 348.286 254.37 346.559 250.48C343.328 243.179 338.004 238.564 330.146 236.964C328.889 236.707 327.625 236.488 326.364 236.25" stroke="#F9FAFC" stroke-width="3" stroke-miterlimit="10" stroke-linecap="round" stroke-linejoin="round"/>
<path d="M318.634 213.249C309.255 213.033 304.97 218.791 302.32 226.81C299.776 234.516 296.971 242.146 294.084 249.735C292.26 254.522 289.557 258.849 285.553 262.147C281.379 265.583 276.232 266.778 271.106 267.926C261.004 270.191 251.585 274.099 242.81 279.571C240.628 280.929 238.542 282.435 236.436 283.911C232.149 286.907 229.643 290.952 228.518 296.118C226.852 303.768 227.93 310.924 231.326 317.87C237.675 330.851 256.958 336.39 268.689 327.944C274.795 323.541 279.542 317.968 284.533 312.552C288.818 307.903 292.791 302.967 297.071 298.311C301.047 293.983 306.642 292.63 312.026 291.773C322.304 290.135 332.675 288.933 343.049 288.162C348.597 287.753 354.242 288.728 359.845 288.891C364.305 289.021 368.865 289.418 373.218 288.699C378.521 287.82 382.369 284.205 384.136 279.133C387.008 270.902 388.087 262.384 383.202 254.575C379.808 249.143 375.6 244.184 371.464 239.259C364.891 231.438 356.101 226.926 346.819 223.086C337.699 219.315 328.793 215.003 318.948 213.315" stroke="#F9FAFC" stroke-width="3" stroke-miterlimit="10" stroke-linecap="round" stroke-linejoin="round"/>
<path d="M357.059 403.934C352.21 404.07 347.824 405.553 344.105 408.69C341.527 410.867 342.007 414.652 344.928 416.333C349.689 419.085 358.117 417.079 360.99 412.51C363.397 408.675 361.893 405.127 357.374 403.994" stroke="#F9FAFC" stroke-width="3" stroke-miterlimit="10" stroke-linecap="round" stroke-linejoin="round"/>
<path d="M639.877 264.737C634.855 264.886 633.719 269.176 632.705 272.542C631.016 278.138 630.173 284.023 629.375 289.839C629.093 291.888 629.708 294.198 630.42 296.205C631.449 299.122 634.03 300.079 637.302 299.169C647.971 296.215 654.911 284.103 647.683 271.766C645.9 268.727 643.698 266.039 640.2 264.791" stroke="#F9FAFC" stroke-width="3" stroke-miterlimit="10" stroke-linecap="round" stroke-linejoin="round"/>
<path d="M187.835 124.592C183.5 125.08 178.991 124.966 174.861 126.165C161.962 129.899 152.966 138.516 147.809 150.69C145.276 156.674 145.572 163.408 147.059 169.747C150.189 183.112 155.49 195.602 163.526 206.806C167.181 211.895 172.331 215.322 178.293 216.656C185.891 218.357 192.896 215.828 198.231 209.452C202.647 204.182 203.63 198.107 201.208 191.775C197.852 182.995 199.916 175.035 203.918 167.108C206.347 162.299 208.949 157.47 210.522 152.355C212.696 145.297 211.676 135.966 202.09 130.24C197.754 127.652 193.254 125.347 188.139 124.643" stroke="#F9FAFC" stroke-width="3" stroke-miterlimit="10" stroke-linecap="round" stroke-linejoin="round"/>
<path d="M282.512 131.364C275.303 130.891 269.359 133.953 264.541 138.795C256.249 147.14 257.015 155.881 264.4 163.477C270.917 170.177 279.102 173.778 288.333 174.848C293.348 175.429 298.933 171.293 300.075 166.005C302.593 154.358 299.241 144.202 291.528 135.37C289.279 132.791 286.115 131.881 282.828 131.417" stroke="#F9FAFC" stroke-width="3" stroke-miterlimit="10" stroke-linecap="round" stroke-linejoin="round"/>
<path d="M25.3211 81.1915C21.3113 81.8578 20.6269 83.1321 21.5688 87.0307C22.6409 91.4501 28.2245 96.4532 32.8142 94.9629C34.3713 94.4603 36.582 93.6764 36.9869 92.4995C37.4725 91.1028 36.7757 88.8106 35.8028 87.4976C33.3093 84.1417 29.7376 82.1751 25.6363 81.2509" stroke="#F9FAFC" stroke-width="3" stroke-miterlimit="10" stroke-linecap="round" stroke-linejoin="round"/>
<path d="M610.744 176.99C598.2 177.391 589.802 184.704 582.408 193.825C578.027 199.225 577.925 205.022 580.933 210.806C583.669 216.061 587.661 220.47 592.392 224.111C597.504 228.053 602.948 231.613 607.738 235.912C615.872 243.211 619.963 252.561 619.848 263.578C619.783 270.047 618.948 276.339 617.103 282.656C615.317 288.762 614.163 295.294 614.174 301.635C614.197 311.718 618.257 320.226 627.928 324.741C632.757 326.997 637.698 325.201 641.354 322.053C649.239 315.276 655.839 307.252 661.575 298.543C666.734 290.717 665.904 282.283 663.889 273.867C661.899 265.56 658.19 257.921 653.237 250.961C647.097 242.334 640.708 233.883 634.649 225.206C630.502 219.266 627.538 212.767 626.556 205.446C625.817 199.921 625.051 194.365 623.757 188.944C622.185 182.361 617.686 178.464 611.059 177.05" stroke="#F9FAFC" stroke-width="3" stroke-miterlimit="10" stroke-linecap="round" stroke-linejoin="round"/>
<path d="M405.564 108.89C402.106 109.327 398.639 109.678 395.201 110.218C390.499 110.956 387.768 114.324 386.288 118.327C384.975 121.892 384.618 125.826 384.044 129.628C382.835 137.657 381.376 145.529 375.03 151.447C373.889 152.511 372.913 153.808 372.052 155.121C370.522 157.45 370.71 160.919 372.296 162.335C373.799 163.676 378.369 163.5 380.196 161.848C381.794 160.4 383.46 158.906 384.649 157.139C388.701 151.095 394.413 147.702 401.223 145.553C408.983 143.101 416.643 140.323 424.283 137.509C426.69 136.619 428.97 135.293 431.165 133.938C437.697 129.903 436.714 123.836 433.185 119.429C429.762 115.154 424.792 112.741 419.419 111.537C414.933 110.54 410.392 109.801 405.872 108.948" stroke="#F9FAFC" stroke-width="3" stroke-miterlimit="10" stroke-linecap="round" stroke-linejoin="round"/>
<path d="M402.626 93.3191C400.783 93.2976 398.936 93.2233 397.088 93.2598C383.742 93.5217 376.044 101.175 371.519 112.907C369.687 117.666 368.123 122.528 366.154 127.222C363.482 133.598 358.715 138.587 354.569 143.986C351.619 147.823 348.932 151.891 348.244 156.814C347.122 164.834 349.25 171.581 355.802 176.917C361.523 181.574 368.063 184.381 374.908 186.607C382.19 188.98 389.614 184.747 393.477 176.455C394.979 173.233 396.328 169.891 398.264 166.933C403.385 159.1 410.869 154.448 419.89 152.443C425.191 151.263 430.624 150.598 436.016 149.905C442.311 149.102 448.625 148.329 453.477 143.689C460.121 137.331 461.377 128.182 457.618 119.737C453.752 111.063 446.822 105.381 437.751 102.598C431.814 100.78 425.732 99.4227 419.725 97.8386C414.128 96.3646 408.537 94.859 402.942 93.3723" stroke="#F9FAFC" stroke-width="3" stroke-miterlimit="10" stroke-linecap="round" stroke-linejoin="round"/>
<path d="M388.034 371.265C379.671 371.306 372.32 375.01 364.615 377.545C355.401 380.571 346.05 383.219 336.662 385.677C326.068 388.443 315.534 391.404 307.701 399.567C300.68 406.885 295.267 415.4 291.434 424.847C287.908 433.536 285.938 442.454 287.659 451.872C287.957 453.508 288.298 455.23 289.062 456.68C291.057 460.464 295.147 461.902 298.82 459.801C302.742 457.558 306.446 454.882 310.084 452.174C319.515 445.161 330.211 441.683 341.735 440.183C348.609 439.287 355.507 438.363 362.248 436.815C368.41 435.399 374.198 432.51 378.844 428.229C387.536 420.222 396.867 413.425 407.708 408.492C415.193 405.081 416.875 400.039 414.816 391.993C412.458 382.768 405.89 377.41 397.664 373.82C394.756 372.554 391.473 372.136 388.361 371.334" stroke="#F9FAFC" stroke-width="3" stroke-miterlimit="10" stroke-linecap="round" stroke-linejoin="round"/>
<path d="M487.198 316.216C480.93 316.358 474.718 316.83 468.728 318.925C455.821 323.428 446.945 331.93 442.59 345.006C440.679 350.742 438.244 356.347 436.85 362.207C434.895 370.422 436.519 377.211 446.814 379.735C454.563 381.635 462.422 380.526 470.21 380.181C479.715 379.762 489.201 378.896 498.683 378.081C501.742 377.816 504.845 377.39 507.771 376.519C515.547 374.194 518.777 367.838 520.516 360.698C523.5 348.48 519.48 337.995 512.011 328.386C505.75 320.331 497.057 317.515 487.504 316.286" stroke="#F9FAFC" stroke-width="3" stroke-miterlimit="10" stroke-linecap="round" stroke-linejoin="round"/>
<path d="M369.541 510.738C362.229 510.951 355.961 514.207 349.963 517.866C342.452 522.454 334.366 525.589 326.075 528.326C318.076 530.968 309.975 533.663 303.059 538.455C296.09 543.282 292.136 550.291 292.486 559.196C292.613 562.464 292.311 565.763 292.659 569.001C293.405 575.911 297.158 578.16 303.2 574.855C314.295 568.782 326.375 565.618 338.296 561.875C341.959 560.726 345.479 558.785 348.732 556.697C356.427 551.758 364.836 547.809 371.306 541.093C377.972 534.171 380.078 525.293 376.1 515.866C374.873 512.958 372.802 511.412 369.845 510.789" stroke="#F9FAFC" stroke-width="3" stroke-miterlimit="10" stroke-linecap="round" stroke-linejoin="round"/>
<path d="M540.564 109.564C531.83 111.081 527.261 116.962 525.35 124.977C523.941 130.886 523.098 136.981 522.58 143.046C522.003 149.804 523.961 151.916 530.471 152.629C535.192 153.142 539.995 153.219 544.744 153.064C554.419 152.749 558.501 148.519 558.531 138.433C558.545 133.344 557.858 128.233 557.208 123.169C556.638 118.753 554.31 114.9 550.683 112.635C547.88 110.886 544.178 110.579 540.878 109.629" stroke="#F9FAFC" stroke-width="3" stroke-miterlimit="10" stroke-linecap="round" stroke-linejoin="round"/>
<path d="M275.207 280.777C266.416 280.175 258.564 282.904 251.399 287.733C246.118 291.293 241.413 295.399 240.459 302.289C239.528 309.02 244.009 316.269 250.975 317.512C257.252 318.631 262.382 316.701 266.993 313.4C273.416 308.802 278.879 303.064 282.456 295.84C283.269 294.192 283.94 292.439 284.405 290.666C285.385 286.889 284.204 283.049 279.3 281.569C278.077 281.201 276.782 281.074 275.522 280.836" stroke="#F9FAFC" stroke-width="3" stroke-miterlimit="10" stroke-linecap="round" stroke-linejoin="round"/>
<path d="M81.9647 246.264C77.5279 246.771 74.0203 248.616 71.2744 252.373C66.8614 258.428 66.7865 265.431 75.3232 269.418C81.5799 272.342 90.0129 271.414 92.381 263.57C94.6762 255.974 90.0962 248.281 82.2735 246.322" stroke="#F9FAFC" stroke-width="3" stroke-miterlimit="10" stroke-linecap="round" stroke-linejoin="round"/>
<path d="M399.961 79.761C397.676 79.767 395.385 79.6937 393.103 79.7852C382.373 80.2213 374.178 84.8369 369.11 94.5013C366.005 100.437 362.648 106.259 359.934 112.373C356.054 121.099 350.071 128.417 344.852 136.252C341.61 141.117 339.092 146.432 338.207 151.989C336.636 161.87 337.142 171.881 342.436 180.805C345.977 186.774 351.612 190.88 357.458 194.392C363.597 198.077 369.902 201.577 376.436 204.482C384.862 208.226 390.931 214.254 395.634 221.918C398.405 226.436 400.959 231.096 403.871 235.516C409.305 243.768 411.472 252.97 412.465 262.617C413.458 272.302 414.42 282.008 415.84 291.637C417.329 301.736 421.229 302.863 430.34 300.901C439.281 298.972 446.613 293.743 453.511 288.223C460.408 282.703 465.773 275.686 469.675 267.565C473.848 258.874 474.278 250.129 471.334 241.1C467.328 228.81 458.698 220.026 449.041 212.12C439.033 203.925 428.428 196.61 416.908 190.617C410.091 187.065 407.206 180.078 411.187 172.643C413.838 167.693 418.614 165.389 423.838 164.312C428.226 163.404 432.731 162.916 437.205 162.559C451.256 161.431 462.017 155.158 469.008 142.743C474.053 133.786 479.235 124.907 484.131 115.876C485.933 112.554 485.197 109.987 481.686 108.319C478.062 106.597 474.136 105.503 470.486 103.816C464.345 100.966 458.371 97.7563 452.229 94.9193C449.496 93.6595 446.575 92.7426 443.658 91.9767C432.535 89.068 421.105 87.3352 410.499 82.52C407.33 81.08 403.687 80.7056 400.26 79.837" stroke="#F9FAFC" stroke-width="3" stroke-miterlimit="10" stroke-linecap="round" stroke-linejoin="round"/>
<path d="M314.087 60.9435C304.19 62.0852 300.912 68.5232 298.907 76.0369C297.615 80.8782 296.937 85.8877 296.049 90.8316C294.371 100.209 289.767 107.624 281.768 112.962C273.688 118.35 265.516 123.636 258.786 130.793C253.28 136.654 249.879 143.506 249.412 151.545C249.188 155.433 250.314 159.151 252.437 162.6C257.707 171.167 265.589 176.721 274.025 181.623C279.261 184.667 284.474 187.76 290.559 189.065C299.745 191.033 305.067 186.111 308.498 179.969C312.697 172.452 313.138 164.062 312.523 155.629C311.994 148.335 310.908 141.048 310.907 133.756C310.905 125.465 313.41 117.863 319.772 111.929C323.654 108.307 327.479 104.61 331.018 100.662C337.755 93.1539 339.863 85.7573 336.371 78.3486C332.123 69.3151 325.212 62.3512 314.39 60.9943" stroke="#F9FAFC" stroke-width="3" stroke-miterlimit="10" stroke-linecap="round" stroke-linejoin="round"/>
<path d="M499.653 84.2159C493.005 84.2667 486.333 84.7179 479.719 84.2727C470.961 83.6771 462.245 82.3653 453.512 81.3895C448.289 80.8084 443.049 80.3482 437.835 79.7167C429.481 78.7016 421.855 75.3235 414.086 72.3494C405.806 69.1809 397.131 67.8636 388.323 67.0434C383.557 66.6007 378.86 65.3358 374.133 64.4436C366.758 63.0517 365.398 63.9308 363.715 71.2901C363.335 72.9549 363.043 74.6426 362.757 76.3316C360.099 92.2476 353.56 106.387 343.651 119.113C340.04 123.752 336.858 128.785 334.013 133.933C330.725 139.867 329.497 146.548 329.388 153.251C329.271 160.475 329.824 167.714 330.105 174.942C330.608 187.74 336.915 196.829 348.022 202.796C353.445 205.713 358.829 208.694 364.356 211.401C373.135 215.695 381.187 220.936 387.141 228.822C392.341 235.718 397.896 242.361 401.074 250.631C403.572 257.114 403.855 263.846 404.382 270.565C405.01 278.582 403.915 286.529 401.812 294.213C400.026 300.737 396.384 306.166 389.948 309.312C385.676 311.398 381.225 311.152 377.148 309.684C368.719 306.65 360.371 303.286 351.414 302.425C343.163 301.631 334.964 302.597 326.83 304.47C321.261 305.749 315.896 307.198 311.043 310.362C302.387 316 297.456 324.45 293.36 333.495C290.597 339.593 288.805 346.011 287.675 352.652C286.844 357.541 289.259 361.104 294.126 362.088C304.125 364.106 314.205 364.409 324.36 364.563C333.068 364.698 341.574 364.319 350.018 361.878C357.075 359.835 363.585 356.645 369.582 352.678C379.645 346.019 390.275 340.851 401.884 337.657C407.751 336.042 412.191 332.265 416.083 327.901C423.42 319.67 432.047 313.249 441.427 307.473C455.17 299.028 468.342 289.692 479.175 277.5C482.268 274.016 485.55 270.699 488.597 267.181C492.398 262.781 493.6 257.518 492.426 251.943C490.098 240.896 486.089 230.452 480.036 220.882C476 214.494 469.804 210.315 464.004 205.728C458.365 201.263 452.609 196.86 448.538 190.759C443.878 183.769 445.532 179.988 450.744 175.508C456.518 170.546 462.446 165.732 467.883 160.412C472.39 156.002 476.109 150.789 480.492 146.244C484.461 142.13 488.651 138.155 493.133 134.608C501.139 128.259 506.392 120.281 509.077 110.481C509.875 107.569 511.309 104.811 511.896 101.874C512.581 98.4189 512.951 94.8331 512.897 91.3111C512.855 88.5941 510.094 86.245 507.209 85.6549C504.8 85.1677 502.375 84.7361 499.961 84.2805" stroke="#F9FAFC" stroke-width="3" stroke-miterlimit="10" stroke-linecap="round" stroke-linejoin="round"/>
<path d="M308.115 44.1507C297.662 45.4091 291.514 52.0104 288.717 61.3985C286.407 69.1419 285.561 77.3249 284.03 85.3002C282.801 91.7072 279.888 97.3197 275.314 101.907C268.929 108.314 262.136 114.317 255.843 120.819C248.204 128.712 242.66 137.889 241.375 149.057C240.684 155.036 241.696 160.743 244.918 166.084C251.303 176.663 260.816 183.883 270.653 190.805C275.815 194.443 281.168 197.829 286.201 201.638C291.239 205.449 294.201 210.61 294.053 217.103C293.797 228.315 291.903 239.081 284.914 248.338C281.842 252.406 277.826 255.108 272.93 256.527C264.293 259.023 255.624 261.408 247.045 264.077C239.092 266.545 231.859 270.35 225.194 275.503C219.095 280.22 216.877 286.715 216.866 293.554C216.853 303.134 218.218 312.746 222.824 321.475C228.565 332.357 237.356 339.872 248.994 343.648C262.224 347.947 272.021 344.599 280.606 333.353C284.699 327.996 288.772 322.602 292.482 316.983C300.378 305.033 311.7 299.101 325.59 297.486C332.678 296.663 339.775 295.861 346.892 295.363C349.863 295.154 352.908 295.624 355.885 296.036C362.24 296.915 368.564 298.03 374.922 298.93C382.057 299.937 387.155 296.65 390.786 290.833C394.453 284.958 395.507 278.374 395.802 271.55C396.104 264.622 395.701 257.835 392.303 251.665C383.795 236.214 371.961 224.449 355.399 217.466C346.19 213.58 337.363 208.748 328.573 203.956C323.417 201.149 319.465 197.015 319.348 190.543C319.305 188.276 319.247 185.955 319.675 183.757C321.7 173.375 321.524 162.891 321.291 152.402C321.088 143.342 321.726 134.323 326.057 126.25C328.928 120.897 332.618 115.836 336.679 111.302C343.678 103.477 348.555 94.8275 349.462 84.2799C350.018 77.8765 347.412 72.3126 343.484 67.5305C337.017 59.6647 329.35 53.1129 320.421 48.1247C316.69 46.0366 312.684 44.7452 308.428 44.2228" stroke="#F9FAFC" stroke-width="3" stroke-miterlimit="10" stroke-linecap="round" stroke-linejoin="round"/>
<path d="M549.854 582.627C542.364 582.741 538.126 587.314 536.151 593.769C534.72 598.447 535.337 603.303 539.339 607.107C543.236 610.806 547.88 610.586 551.998 608.654C555.602 606.958 559.078 604.207 561.562 601.078C566.639 594.686 565.598 590.449 558.942 586.079C556.375 584.393 553.108 583.783 550.162 582.686" stroke="#F9FAFC" stroke-width="3" stroke-miterlimit="10" stroke-linecap="round" stroke-linejoin="round"/>
<path d="M184.652 515.011C183.017 515.028 181.383 515.007 179.745 515.07C170.765 515.438 163.713 519.565 158.052 526.317C156.823 527.782 155.695 529.331 154.574 530.876C149.326 538.104 151.297 542.915 157.899 546.152C166.227 550.243 175.06 552.557 184.372 552.813C186.321 552.867 188.326 553.207 190.214 552.884C196.232 551.852 200.254 548.564 202.066 542.457C203.715 536.899 204.351 531.314 202.404 525.927C200.338 520.203 195.301 517.529 189.692 515.981C188.153 515.554 186.543 515.367 184.968 515.07" stroke="#F9FAFC" stroke-width="3" stroke-miterlimit="10" stroke-linecap="round" stroke-linejoin="round"/>
<path d="M438.034 573.273C430.352 573.057 422.877 573.892 415.517 576.433C410.832 578.049 406.981 580.638 403.724 584.129C400.359 587.744 400.324 596.922 403.612 601.982C405.256 604.511 407.347 606.786 409.446 608.977C415.492 615.302 421.562 621.604 427.799 627.742C429.296 629.22 431.344 630.337 433.341 631.066C438.066 632.8 441.532 630.798 444.576 627.083C448.732 622.012 451.068 616.069 453.206 610.068C454.966 605.133 456.129 599.973 457.442 594.888C460.054 584.747 455.098 578.942 446.99 575.969C444.17 574.934 441.233 574.203 438.355 573.334" stroke="#F9FAFC" stroke-width="3" stroke-miterlimit="10" stroke-linecap="round" stroke-linejoin="round"/>
<path d="M629.337 81.926C623.077 82.0632 619.164 85.8486 616.958 91.0395C613.743 98.5927 614.478 105.736 621.54 111.377C624.614 113.837 628.535 114.297 632.515 113.546C638.668 112.39 643.35 109.128 646.399 103.731C648.906 99.3015 647.383 93.9159 642.77 88.6782C639.25 84.678 634.892 82.5174 629.654 81.9792" stroke="#F9FAFC" stroke-width="3" stroke-miterlimit="10" stroke-linecap="round" stroke-linejoin="round"/>
<path d="M334.648 -3.0657C332.343 -2.95888 329.997 -3.08184 327.743 -2.69125C321.621 -1.62709 318.959 3.03409 320.209 9.24302C322.453 20.4244 329.592 27.4576 339.557 31.6621C344.521 33.7544 349.874 32.7867 354.024 28.9548C358.145 25.1433 360.209 20.2911 359.029 14.611C357.321 6.37024 351.302 2.1141 343.975 -0.600514C341.077 -1.67615 337.98 -2.21494 334.969 -3.00503" stroke="#F9FAFC" stroke-width="3" stroke-miterlimit="10" stroke-linecap="round" stroke-linejoin="round"/>
<path d="M558.396 25.4545C555.222 25.6324 553.111 27.238 551.628 30.0458C547.35 38.1163 547.633 46.4732 550.738 54.612C552.507 59.2478 556.608 62.3912 561.824 62.5597C567.275 62.7333 570.84 59.6852 573.208 54.7139C575.001 50.9529 575.062 47.139 574.144 43.4929C572.539 37.1256 569.457 31.387 563.853 27.5289C562.38 26.5133 560.441 26.167 558.711 25.5139" stroke="#F9FAFC" stroke-width="3" stroke-miterlimit="10" stroke-linecap="round" stroke-linejoin="round"/>
<path d="M479.781 327.872C475.219 328.316 470.724 328.682 466.445 330.845C456.141 336.048 452.157 348.372 455.263 357.509C457.295 363.487 462.447 365.067 467.797 365.325C477.272 365.795 486.319 363.964 494.537 358.746C505.922 351.514 503.231 338.375 494.01 332.137C489.739 329.242 484.834 328.975 480.096 327.931" stroke="#F9FAFC" stroke-width="3" stroke-miterlimit="10" stroke-linecap="round" stroke-linejoin="round"/>
<path d="M177.253 274.04C164.359 276.299 156.168 284.624 149.726 295.276C146.454 300.677 144.308 306.48 142.496 312.516C140.221 320.109 138.202 327.836 134.132 334.77C131.04 340.049 127.183 344.746 122.091 348.106C116.662 351.69 110.826 354.662 105.275 358.067C100.122 361.226 94.8935 364.339 90.0601 367.951C81.8137 374.117 72.709 378.639 63.3734 382.759C52.6994 387.468 46.7731 396.318 42.606 406.603C40.087 412.825 39.0021 419.161 41.1038 425.942C43.0309 432.161 47.803 435.653 52.3742 439.414C58.4536 444.42 62.2476 450.293 59.4533 458.389C58.2995 461.735 56.3405 464.851 54.4486 467.889C51.3807 472.8 48.2788 477.717 47.6658 483.594C46.8365 491.447 47.6079 499.224 50.4938 506.623C52.2007 510.999 55.5759 512.243 59.2792 509.534C63.2633 506.618 66.7112 502.979 70.3672 499.622C72.0027 498.116 73.4624 496.401 75.1872 495.009C81.4317 489.973 88.1598 489.258 96.2955 493.744C100.027 495.8 103.816 497.755 107.549 499.798C116.229 504.55 125.258 504.407 134.068 500.788C142.404 497.368 150.427 493.177 158.505 489.152C166.828 484.998 174.422 479.388 183.423 476.589C187.667 475.268 192.005 474.213 196.202 472.76C205.403 469.561 210.721 462.275 215.038 454.139C218.872 446.899 219.296 438.872 219.796 430.897C220.08 426.382 220.198 421.847 220.769 417.373C221.334 412.923 222.171 408.492 223.266 404.142C224.392 399.661 225.912 395.274 227.355 390.879C230.039 382.677 232.296 374.486 230.513 365.67C229.035 358.354 225.126 352.466 219.761 347.758C209.585 338.827 204.449 327.374 201.589 314.542C199.869 306.815 196.781 299.587 192.963 292.697C190.252 287.799 187.249 283.061 184.266 278.32C182.744 275.905 180.539 274.34 177.575 274.1" stroke="#F9FAFC" stroke-width="3" stroke-miterlimit="10" stroke-linecap="round" stroke-linejoin="round"/>
<path d="M424.229 217.51C417.988 217.547 417.429 221.201 418.48 225.558C419.481 229.696 420.95 233.746 421.603 237.93C422.619 244.441 423.066 251.033 423.86 257.581C424.628 263.927 424.895 270.362 427.789 276.3C430.141 281.13 433.078 282.586 438.318 281.211C447.616 278.782 452.798 272.109 455.252 263.499C459.282 249.343 453.58 238.083 443.324 228.641C437.875 223.617 431.857 219.466 424.538 217.569" stroke="#F9FAFC" stroke-width="3" stroke-miterlimit="10" stroke-linecap="round" stroke-linejoin="round"/>
<rect y="-70" width="1440" height="812" fill="url(#paint0_linear)"/>
</g>
<defs>
<linearGradient id="paint0_linear" x1="-193.409" y1="-148" x2="195.958" y2="775.854" gradientUnits="userSpaceOnUse">
<stop stop-color="white" stop-opacity="0"/>
<stop offset="1" stop-color="white"/>
</linearGradient>
</defs>
</svg>
