<svg width="32" height="32" fill="none" xmlns="http://www.w3.org/2000/svg"><path d="M22.236 10.997c-2.723 1.55-3.78 1.525-4.149 1.525-.695 0-.487-.894-1.043-1.74-.418-.634-1.68-1.083-1.74-1.739-.038-.423.063-.77.163-1.023a7.952 7.952 0 0 0-4.16 1.507c.498.395 1.227 1.073 1.543 1.602.31.52 1 1.967.368 2.784-.715.924-2.783 1.236-2.783 2.087 0 .64.907 1.372 1.391 2.087.729 1.075.397 2.117 0 2.782-.158.266-.68.816-1.08 1.156A7.964 7.964 0 0 0 16 24c4.412 0 8-3.589 8-8a7.96 7.96 0 0 0-1.764-5.003zm-5.54 9.872c-1.044-.695.174-1.623-.686-4.24-.36-1.096 1.09-2.088 2.435-2.088s2.42.935 2.435 2.087c.029 2.145-2.908 5.092-4.184 4.241z" fill="#68DBF4"/><path d="M15.304 9.043c.035.378.466.686.906 1 .325.233.656.47.833.74.224.339.324.686.408.98.127.438.22.759.636.759h.017c.383 0 1.45.001 4.132-1.525a7.987 7.987 0 0 0-6.769-2.977c-.1.253-.201.6-.163 1.023zM11.826 20.87c.397-.666.729-1.708 0-2.783-.16-.236-.366-.474-.57-.71-.415-.478-.821-.948-.821-1.377 0-.467.623-.772 1.304-1.105.559-.273 1.156-.565 1.478-.982.632-.817-.057-2.264-.367-2.783-.316-.53-1.046-1.207-1.543-1.603A7.993 7.993 0 0 0 8 16a7.982 7.982 0 0 0 2.746 6.025c.399-.34.921-.89 1.08-1.155zM16.01 16.629c-.36-1.096 1.09-2.087 2.434-2.087 1.345 0 2.42.934 2.435 2.087.03 2.144-2.907 5.092-4.184 4.24-.52-.346-.478-.75-.412-1.393.067-.647.158-1.534-.273-2.847z" fill="#14C393"/></svg>