<svg width="177" height="145" fill="none" xmlns="http://www.w3.org/2000/svg"><path d="M131.876 57.23c-9.605-4.002-4.002 12.007 0 20.511.942 2.078 3.502 13.007 0 24.013-3.501 11.006-12.506 9.005-22.011 17.01-9.505 8.004-16.509-3.002-29.015 5.002-13.069 8.364-16.509 6.004-28.515 6.004s-27.014-1.001-32.517 5.002c-5.503 6.003-17.509-2.001-19.51 4.002-2.001 6.004 6.003 8.005 16.509 4.503 10.505-3.502 18.01-.5 35.518-4.503 17.51-4.002 16.509 1.501 38.02-4.002 21.511-5.503 31.016-8.004 41.521-16.008 10.506-8.005 11.506-22.513 13.507-29.016 2.001-6.504-1.5-27.515-13.507-32.518z" fill="#E7EAF3"/><path d="M54.636 119.964c.7-.6 4.202 10.306 4.202 10.306s-14.507 3.001-22.41 2.501c-7.905-.5-4.803-7.904-6.204-12.607-2.602-1.3-4.402-4.602-2.701-7.604a215.763 215.763 0 0 1 8.004-13.007c.3-.7.6-1.5.9-2.201 2.101-5.703 9.705-4.502 10.305 1.4.8 7.605 2.002 16.009 7.904 21.212zM132.877 83.745c-1.501-8.005-3.16-7.043-5.503-10.006-2.342-2.962.896-9.143 0-11.506-1.791-4.726-4.422-10.005-6.545-13.007-2.123-3.002-10.567-12.663-16.12-13.007-5.552-.344-17.284-3.854-23.284 7.866-9.583 7.466-10.21 28.732-8.06 38.845 6.372 30.263 37.377 39.949 47.464 30.831 10.087-9.118 13.549-22.012 12.048-30.016zm-28.168 17.143c1.075-2.268 2.149-4.442 3.493-6.522.358-.567 2.149-2.457 2.239-3.686.627.662 1.343 1.418 1.701 1.607 1.612.945 3.314 1.418 5.105 1.229 1.343-.095 2.597-.567 3.582-1.323-.627 4.064-1.791 8.317-4.657 10.869-.895.567-1.791 1.039-2.686 1.512-.269.189-.627.284-.896.473-3.135.756-6.717-.284-9.762-1.891.717-.378 1.344-1.134 1.881-2.268zM84.022 63.933c0-2.93.179-5.86.627-8.79 1.164.473 2.507.567 3.76.094 4.479-1.606 7.792.568 8.956 4.16-1.343 1.984-3.044 3.969-3.582 4.82-.985 1.417-1.79 2.93-2.507 4.536-.717-.85-1.344-1.701-2.06-2.552-1.522-1.985-3.403-2.646-5.194-2.268z" fill="#8AFFCE"/><path d="M124.573 19.71c-2.101 1.2-3.102 3.402-5.403 4.202-2.101.7-4.502.7-6.703.3-2.402-.4-4.603 1.901-3.202 4.203 2.301 4.102 6.904 6.303 11.506 5.603 4.402-.6 10.505-3.802 11.206-8.705.6-4.002-3.302-8.004-7.404-5.603zM155.189 9.104c-1.401-.1-2.601.5-3.802 1.101-.3.1-.5.3-.8.4l-.801.2c-.6.2-1.1.4-1.601.7-.1.1-.7.4-.3.2-1.2.601-2.501 1.402-2.401 2.902.2 3.102 3.402 4.803 6.203 4.903 3.402.2 6.904-1.3 8.004-4.703.801-2.901-1.701-5.603-4.502-5.703zM161.691 78.942c-1.8-.5-3.101.4-4.502 1.5.6-.5-.9.601-.8.601-.2.2-.4.4-.501.6-.4-.1-1.3-.4-1.6-.5-.301-.1-1.101-.5-1.801-.8-1.501-.6-3.802.7-4.102 2.301-.701 4.302 2.501 7.804 6.703 8.305 4.302.5 9.205-2.402 9.605-7.004.1-2.001-.8-4.303-3.002-5.003z" fill="#E7EAF3"/><path d="M174.299 64.234c-1.101 0-2.301-1-2.301-2.701v-.3c0-1.001.6-1.501.9-1.701.3-.3.8-.5 1.301-.4.5-.3 1-.3 1.5 0 .801.5 1.301 1.4 1.301 2.4 0 1.502-1.2 2.702-2.701 2.702z" fill="#181B2B"/><path d="M129.175 62.533c.8-.4 1.101-1.2.8-2-5.202-12.108-14.007-21.813-22.811-25.315-3.702-1.5-7.204-2.3-10.606-2.501h-1.4c-10.306 0-16.81 6.303-20.411 11.606-4.402 6.404-6.904 14.908-6.904 23.313 0 22.712 16.109 54.329 42.222 54.329 15.208 0 25.413-18.51 25.313-35.719 0-3.302-.3-6.604-.8-9.905" stroke="#181B2B" stroke-width="2" stroke-linecap="round" stroke-linejoin="round"/><path d="M78.15 41.022C66.342 55.129 56.037 69.237 45.131 84.145c-7.304 9.905-14.708 20.111-22.712 30.316-2.501 3.202-5.002 6.304-7.404 9.305-4.002 4.903-7.704 9.606-11.406 14.608-.4.5-.4 1.201-.1 1.701.3.4.8.701 1.301.701h.3l107.756-19.211M33.525 134.772c-2.901-5.003-6.903-12.907-8.804-22.312" stroke="#181B2B" stroke-width="2" stroke-linecap="round" stroke-linejoin="round"/><path d="M61.44 130.77c-.5 0-.9-.2-1.2-.6-9.706-13.908-15.308-30.317-15.308-45.125M100.36 80.543c1.601-4.402 5.803-7.604 10.106-7.604 2.201 0 3.201 1 4.002 1.7.7.601 1.1 1.101 2.701 1.101s2.301-1 3.502-3.001c1.401-2.201 3.001-5.003 7.204-5.003.3 0 .7.1 1.2.2.601.1 1.401.3 2.201.3 2.502 0 4.803-1.4 6.204-3.602M115.068 105.156c-.501 0-1.001-.2-1.601-.5-1.001-.5-2.802-1.301-6.403-2.301-.701-.2-1.201-.901-1.101-1.601-.4-.5-.4-1.2-.1-1.701 1.401-2.201 2.201-3.702 2.801-4.803.701-1.4 1.201-2.301 2.201-2.501 1.101-.3 1.901.3 3.302 1.2 1.001.7 2.602 1.701 5.003 3.002.4.2.7.6.8 1 .1.4 0 .901-.2 1.201-1.901 2.802-2.501 4.403-2.701 5.203-.2.701-.501 1.401-1.301 1.701-.2.1-.5.1-.7.1zM89.654 63.534c-2.801 0-5.002-2.101-5.002-4.903 0-2.701 1.7-6.403 4.802-6.103 1.701.2 3.202 1 4.403 2.501.6.8 1 2.001 1 3.202 0 2.601-2.1 5.303-5.203 5.303zM156.79 86.246c-1.401 0-2.702-1.1-4.903-2.902-.6-.5-1.3-1.1-2.101-1.7-.4-.3-.6-.7-.6-1.201-.1-.1-.2-.1-.3-.2-.601-.6-.501-1.601.1-2.101 2.501-2.302 3.302-4.103 3.902-5.303.5-.9.9-1.801 1.901-2.101 1.3-.3 2.201.4 5.203 2.601.8.6 1.8 1.4 3.001 2.201.6.4.8 1.3.4 1.901l-.9 1.801c-2.401 4.503-3.402 6.404-5.203 6.804-.1.2-.3.2-.5.2zM133.478 49.826c0-6.003 4.602-12.706 11.305-12.706 2.302 0 3.602 1.4 3.602 3.802 0 .5-.1 1-.1 1.5 0 .4-.1.8-.1 1.201 0 1.6 1.401 2.301 1.901 2.301 1.501 0 2.702-2.301 3.902-4.602 1.701-3.302 3.802-7.404 8.304-7.404 1.501 0 2.702 1.3 2.702 2.801 0 .3 0 .7-.1 1.1 0 .337-.1.664-.1 1.001 1.601-.2 3.001-1.7 4.302-3.101M118.569 28.715c-.3 0-.6-.1-.8-.2-.6-.4-1.201-.8-1.901-1.2-2.301-1.402-4.402-2.802-6.704-4.103-.7-.4-1-1.3-.6-2.001.1-.3.4-.5.6-.6.1-.3.301-.5.601-.7 2.901-3.503 4.202-5.604 4.902-7.005.701-1.2 1.201-1.9 2.201-2.1 1.001-.2 1.601.4 2.502 1.1 1.1 1 3.101 2.701 7.604 5.002.4.2.7.6.8 1.101.1.5 0 .9-.3 1.3-.1.1-7.504 8.706-7.704 8.906-.2.2-.4.4-.7.5h-.501zM150.386 13.707c-1.601 0-3.102-.7-4.202-1.801-1.201-1-2.001-2.602-2.001-4.503 0-3.101 2.201-6.403 5.402-6.403h1.001c3.001 0 5.903 3.202 5.903 6.504.1 3.802-3.102 6.203-6.103 6.203zM158.39 99.153l.901.3c2.801 1.001 9.304 3.302 12.306 3.302.3 0 .6 0 1.001-.1" stroke="#181B2B" stroke-width="2" stroke-linecap="round" stroke-linejoin="round"/></svg>