<svg width="360" height="693" fill="none" xmlns="http://www.w3.org/2000/svg"><path fill="#1C1F31" d="M0 0h360v693H0z"/><mask id="a" maskUnits="userSpaceOnUse" x="0" y="0" width="360" height="693"><rect width="360" height="693" rx="6" fill="#222639"/></mask><g opacity=".7" stroke="#222639" stroke-width="4" stroke-miterlimit="10" stroke-linecap="round" stroke-linejoin="round" mask="url(#a)"><path d="M588.975 421.473c-15.431 14.738-30.504 30.343-46.391 44.001-17.036 14.649-35.294 25.919-54.848 32.023-13.813 4.299-25.985-2.76-37.626-12.367-5.839-4.812-11.407-10.332-17.332-14.915-6.358-4.918-12.95-6.528-20.381-3.892-8.271 2.919-17.011 4.406-25.22-.743-5.852-3.662-10.975-8.881-13.024-18.453-1.815-8.439-1.024-13.428 3.765-18.541 2.506-2.672 5.173-5.273 8.024-7.042 11.789-7.325 17.875-20.558 20.394-38.109 2.666-18.63 5.221-37.366 8.752-55.678 2.95-15.339 7.259-30.13 10.962-45.168 2.79-11.323 2.592-23 1.148-34.482-2.679-21.231-13.011-33.845-25.195-44.302-18.085-15.498-37.244-28.431-53.761-47.645-13.987-16.294-28.257-32.094-42.589-47.769-6.345-6.935-13.209-12.88-19.69-19.568-13.147-13.587-15.406-27.387-12.838-42.372 3.073-17.994 12.369-26.804 27.01-29.405 11.554-2.052 23.479-2.07 33.985-11.288 12.344-10.81 21.158-24.769 19.516-46.92-.58-7.855-2.469-16.365-5.542-22.84-10.493-22.186-16.727-46.319-19.678-72.698-2.469-22.08-11.962-35.331-26.997-41.824-12.864-5.556-25.801-8.21-38.911-4.901-20.541 5.184-30.898 25.795-35.701 52.935-2.728 15.392-4.444 31.156-6.246 46.85-2.493 21.655-9.851 39.736-19.863 55.624-10.529 16.701-20.035 34.588-27.454 54.244-5.172 13.694-9.357 28.68-9.493 44.92-.123 15.34 4.888 26.044 14.122 33.74 12.752 10.633 26.924 15.127 40.775 21.142 9.715 4.229 19.517 8.192 28.973 13.393 10.999 6.033 16.048 19.303 17.233 35.243 2.098 28.502 7.147 55.165 19.109 78.837 6.222 12.296 11.678 25.477 16.653 38.905 5.098 13.729 9.197 28.202 13.69 42.373.531 1.681 1.013 3.486 1.222 5.308 2.334 20.275-4.086 30.625-18.492 31.05-12.74.371-25.121-3.185-37.676-5.078-14.394-2.158-28.787-1.38-40.762 13.747-14.011 17.71-28.232 35.066-42.576 52.21-14.468 17.303-27.455 36.552-37.516 59.41-4.308 9.784-7.357 20.665-11.246 30.838-5.765 15.109-10.777 30.926-20.912 41.683-7.69 8.174-16.406 13.411-25.405 16.418-17.677 5.892-32.417 18.843-46.255 34.783-13.493 15.534-26.973 31.369-43.244 40.533-14.579 8.227-29.318 16.33-44.453 21.974-24.874 9.271-43.7 28.892-56.76 60.437-7.605 18.382-15.604 36.499-26.578 51.219a261.032 261.032 0 0 1-20.974 24.769c-13.147 13.712-18.665 31.864-18.628 54.952.037 21.833 4.111 42.232 8.184 62.808 2.099 10.597 3.531 21.567 6.321 31.757 4.123 15.092 12.345 24.982 22.714 30.997 17.036 9.894 33.911 20.474 51.304 28.854 9.37 4.51 19.628 6.78 29.541 7.11 19.258.64 35.553-17.16 40.268-44.704 3.284-19.16 5.47-38.817 12.061-56.774 6.716-18.276 15.913-32.855 28.578-42.196 16.838-12.438 34.306-23.159 51.107-35.739 12.9-9.66 24.924-21.708 37.787-31.474 12.715-9.642 26.701-9.678 40.663-7.254 14.591 2.548 29.368 5.485 43.774.584 20.406-6.935 30.257-28.715 35.281-56.315 2.765-15.162 5.469-30.448 9.37-45.044 4.691-17.533 15.505-23.938 27.615-25.618 15.702-2.194 30.565 4.971 45.7 9.412 14.998 4.423 30.244 7.519 45.65 6.298 21.838-1.751 37.96-15.746 47.688-44.92 6.332-19.002 13.937-37.296 24.59-52.21 11.221-15.729 24.146-27.317 40.046-31.139 9.962-2.388 18.949 1.61 27.776 7.201 12.381 7.838 24.775 15.658 37.021 23.92 14.493 9.766 28.825 19.975 43.219 30.024 2.901 2.017 5.765 4.122 8.641 6.192"/><path d="M588.666 677.128c-12.246-8.847-24.43-17.852-36.738-26.503-15.393-10.81-31.392-19.25-48.119-24.858-8.555-2.866-16.999-5.591-25.936-5.414-22.455.46-42.009 31.917-38.799 63.834 1.246 12.367 6.049 22.681 10.974 32.801 2.568 5.29 5.049 10.881 6.753 16.808 3.666 12.756.555 25.353-7.926 34.447-5.518 5.927-17.702 6.28-23.405-.106-6.197-6.936-11.851-14.88-17.986-21.957-7.518-8.669-16.838-11.535-25.924-13.994-14.085-3.804-28.306-6.971-42.577-8.846-16.196-2.141-32.516-3.822-48.736-3.344-11.333.336-20.937 8.244-25.937 24.344-7.468 24.062-8.888 48.902-4.258 74.29 2.851 15.622 10.172 26.397 19.677 34.553 14.357 12.332 29.837 20.506 46.329 23.549 9.111 1.68 18.53-.407 27.739.513 8.345.831 17.665-.195 23.344 11.411 2.382 4.866 4.505 10.952 4.851 16.719 1.111 18.1-.79 36.057-2.827 53.944-2.111 18.524-3.654 37.172-5.641 55.711-2.543 23.75 1.666 46.66 3.53 69.92 1.778 22.26 2.642 44.8 2.469 67.2-.21 26.13 5.259 49.92 11.999 73.38 7.123 24.74 19.838 41.74 36.96 52.27 18.035 11.09 32.368 28.46 42.601 52.6M588.664 231.281c-4.419-13.57-8.394-27.476-13.394-40.603-5.666-14.897-16.295-22.841-25.306-32.607-24.332-26.362-45.071-57.5-61.329-94.247-5.431-12.278-8.419-27.175-11.196-41.4-3.654-18.683-7.814-36.87-14.357-53.908-4.913-12.791-11.95-22.911-19.838-31.705-8.308-9.253-17.048-6.21-25.208.85-10.9 9.394-19.603 22.486-27.775 36.233-9.579 16.083-18.85 32.536-28.467 48.566-5.308 8.846-11.344 16.825-16.554 25.777-9.616 16.543-10.678 30.254-.617 53.838 10.073 23.637 24.751 40.427 41.317 53.961 11.839 9.678 24.159 18.223 35.713 28.502 19.912 17.746 31.677 43.028 30.788 77.687-.444 17.445-1.704 34.942-3.691 52.175-4.456 38.533 4.16 71.176 21.282 99.784 5.061 8.457 10.32 16.861 18.221 21.85 12.739 8.068 24.541 5.909 36.528-1.362 14.813-8.953 26.244-24.168 36.416-41.542 9.296-15.87 18.53-31.828 27.788-47.751M3.221 368.394c-2.172-16.135-8.048-29.121-15.986-40.78-9.95-14.65-20.048-29.104-33.442-36.906-18.714-10.917-38.219-17.675-58.587-14.986-13.518 1.787-21.295 14.809-24.517 32.607-2.382 13.216-3.604 26.998-4.37 40.639-.975 17.339-1.123 34.783-1.333 52.175-.259 21.673 8.468 29.776 20.937 30.377 18.504.885 35.725-6.104 53.119-13.428 13.64-5.732 27.614-9.802 41.28-15.375 4.975-2.034 9.728-5.767 14.184-9.66 6.037-5.272 7.506-14.543 8.69-23.76M37.788 534.704c-3.456-20.098-14.616-28.361-26.541-35.385-23.825-14.012-46.873-7.731-69.76 5.237-15.505 8.793-28.898 21.479-36.244 43.506-5.542 16.63-7.925 34.216-4.036 53.041 2.938 14.189 9.802 20.735 18.702 24.645 11.098 4.866 22.22 5.927 33.972 4.087 11.37-1.787 22.258-4.971 32.64-11.234 14.023-8.457 25.75-21.797 35.133-38.906 4.851-8.846 9.048-18.506 12.912-28.307 1.84-4.653 2.197-10.509 3.222-15.817"/><path d="M-75.785 570.086c2.012 10.332 4.37 20.541 11.752 25.583 8.74 5.98 18.147 8.952 27.738 6.971 14.715-3.026 27.912-11.306 37.602-28.22 4.345-7.572 8.123-15.923 8.098-26.45-.024-10.739-3.407-18.417-9.85-23.955-10.16-8.757-20.863-9.713-32.134-6.157-10.764 3.397-20.739 8.776-29.713 18.453-7.889 8.492-11.345 19.957-13.493 32.908M241.476 406.435c-17.814 5.573-33.442 17.374-48.231 32.571-22.517 23.142-39.058 52.051-47.589 90.337-3.925 17.568-8.382 34.978-15.801 50.6-7.876 16.578-18.739 24.185-32.195 26.538-13.11 2.3-26.763 1.752-38.823 10.704-9.407 6.989-18.764 14.649-27.11 23.92-18.442 20.488-38.996 34.889-60.612 46.637-12.95 7.041-26.146 13.499-37.577 24.928-13.085 13.057-21.948 31.51-29.713 51.166-11.357 28.803-21.826 58.438-35.874 84.835-8.937 16.79-10.209 34.234-6.209 54.12 7.073 35.19 20.714 62.242 44.638 76.679 7.382 4.458 15.493 8.032 23.406 8.687 16.307 1.344 25.232-8.705 31.552-30.52 4.272-14.72 8.605-29.599 14.283-43.257 9.753-23.46 25.307-37.225 42.404-47.982 17.95-11.305 37.195-18.842 53.07-36.269 7.419-8.138 14.628-16.737 21.59-25.654 8.296-10.615 16.839-20.54 27.838-24.627 8.715-3.238 17.393-3.486 26.565-2.424 12.518 1.451 25.542 3.432 37.652-5.52 11.27-8.333 17.22-21.974 19.627-39.029 1.692-11.96 2.618-24.15 3.778-36.252 1.63-16.966 9.32-26.909 19.147-34.499 13.492-10.421 27.973-15.375 43.206-14.915 11.974.372 23.047 6.068 34.022 12.915 12.48 7.803 25.393 13.659 39.441 13.694 15.394.036 27.306-8.315 36.441-25.831 11.11-21.319 20.258-44.372 28.195-68.256 6.506-19.568 3.21-32.147-10.962-41.365-8.061-5.237-16.64-8.917-24.615-14.384-14.369-9.837-24.677-26.75-35.269-43.169-11.554-17.922-21.294-38.215-35.676-52.422-13.554-13.393-27.985-21.691-44.527-21.921-5.147-.07-10.283-.017-15.43-.017"/><path d="M53.835 684.204c-29.677 12.137-56.699 32.359-82.722 55.695-13.245 11.872-23.232 27.565-26.948 49.645-1.42 8.421-1.456 17.798-.592 26.414.987 9.784 7.592 16.773 15.825 16.666 26.48-.353 52.613-4.653 77.117-20.293 11.098-7.077 19.209-19.903 25.159-34.517 7.295-17.94 12.925-37.172 16.912-57.323 4.383-22.098-5.63-38.092-19.813-36.322-1.432.177-2.876.017-4.32.017M-117.755 247.205c-17.813 4.211-23.862 22.009-26.01 45.097-2.061 22.187-4.641 44.302-7.394 66.346-1.741 13.907-5.308 27.016-11.703 38.003-6.666 11.447-15.974 17.321-25.257 23.053-18.295 11.306-34.713 26.716-49.354 46.036-3.642 4.794-7.049 9.943-10.505 15.02-7.037 10.315-10.333 22.558-10.617 37.136-.419 21.585 4.173 40.427 13.073 57.518 16.641 31.935 55.082 37.083 74.253 8.192 9.975-15.057 16.962-32.59 24.467-49.822 6.444-14.791 12.197-30.201 18.629-45.009 5.974-13.765 16.072-20.293 25.948-25.371a572.6 572.6 0 0 1 57.378-25.653c10.345-3.946 21.369-4.194 32.022-6.617 8.48-1.929 17.245-3.185 25.22-7.36 9.715-5.096 15.702-16.861 17.233-31.51 2.494-23.779 1.494-47.416-10.53-66.081-8.357-12.986-18.085-24.274-27.664-35.508-15.221-17.834-33.454-25.566-52.378-31.227-18.592-5.555-36.973-12.685-56.193-12.225M9.394-80.102c-6.382 2.955-12.814 5.68-19.122 8.9-8.629 4.405-12.591 14.932-13.962 26.538-1.21 10.332-.481 21.178-.21 31.775.58 22.38.63 44.46-9.258 63.745-1.778 3.468-3.16 7.484-4.32 11.483-2.062 7.094-.47 16.4 3.036 19.426 3.32 2.866 11.9.053 14.764-5.361 2.506-4.742 5.123-9.642 6.74-15.038C-7.431 42.912 2.16 30.792 14.27 21.486 28.071 10.872 41.564-.575 55.007-12.11c4.235-3.645 8.074-8.404 11.74-13.199 10.913-14.277 6.889-30.218-1.358-40.356C57.39-75.502 47.132-79.5 36.54-80.013c-8.838-.407-17.689-.089-26.54-.089"/><path d="M-1.716-120.794c-3.494.884-7.012 1.627-10.493 2.671-25.146 7.537-36.972 32.218-41.342 66.329-1.766 13.835-2.988 27.812-5.037 41.54C-61.365 8.396-68.6 24.354-74.513 41.109c-4.21 11.907-7.838 24.309-7.382 38.003.741 22.309 7.172 39.506 21.467 50.617 12.481 9.695 25.85 13.959 39.59 16.489 14.616 2.707 27.146-12.561 31.491-37.012 1.691-9.5 3.05-19.25 5.654-28.254 6.888-23.85 19.381-40.286 35.725-50.335 9.605-5.91 19.64-10.491 29.59-15.127 11.617-5.396 23.282-10.721 30.8-25.778 10.296-20.629 9.407-46.07-.716-67.035-10.406-21.532-25.54-33.386-43.687-36.287-11.876-1.893-23.863-2.459-35.787-3.68-11.11-1.133-22.22-2.353-33.331-3.521M69.883 639.971c-15.801 4.387-28.38 18.187-42.046 28.997-16.344 12.916-33.084 24.875-49.959 36.34-19.048 12.915-37.91 26.326-49.81 52.458-10.666 23.424-17.863 49.273-21.74 76.837-3.567 25.353-4.11 50.529 2.507 75.175 1.148 4.281 2.407 8.775 4.37 12.313 5.123 9.236 13.369 11.04 19.566 3.468 6.617-8.085 12.665-17.232 18.578-26.432 15.333-23.832 34.319-38.729 55.576-48.689 12.678-5.945 25.393-11.978 37.59-19.621 11.147-6.988 21.06-17.781 28.318-31.758 13.58-26.149 28.8-49.343 47.54-68.256 12.937-13.075 14.319-27.6 7.554-48.353-7.752-23.796-22.084-34.96-38.922-40.48-5.95-1.946-12.308-1.398-18.48-1.982M237.77 440.049c-11.801 3.591-23.38 8.05-33.96 16.79-22.8 18.807-36.552 46.389-40.12 84.056-1.568 16.524-4.172 32.96-4.715 49.556-.766 23.265 4.728 40.833 25.096 42.408 15.332 1.185 29.8-5.838 44.404-10.757 17.826-5.997 35.454-13.198 53.094-20.257 5.691-2.283 11.407-5.025 16.628-8.882 13.876-10.279 17.715-29.157 18.456-49.397 1.284-34.641-10.061-61.003-27.615-83.224-14.715-18.63-32.158-21.815-50.663-20.258"/><path d="M-11.594-156.18c-4.32 1.186-8.678 2.159-12.961 3.574-20.135 6.67-33.985 23.372-40.12 52.157-3.753 17.675-8.025 35.172-10.975 53.13-4.222 25.636-12.925 48.53-19.998 72.432-4.395 14.844-7.259 30.537-6.95 46.053.555 27.582 5.085 54.457 18.282 75.935 8.826 14.366 20.949 22.611 33.257 29.139 12.924 6.847 26.096 13.11 39.49 17.639 17.27 5.839 30.899 19.073 42.527 37.437 6.852 10.828 13.345 22.151 20.43 32.642 13.222 19.586 20.604 43.417 25.925 69.053 5.332 25.743 10.616 51.556 16.739 76.926 6.419 26.609 14.196 27.671 30.726 17.693 16.221-9.802 28.22-27.724 39.293-46.213 11.073-18.488 18.714-40.249 23.195-64.258 4.79-25.689 2.482-49.609-6.308-72.574-11.962-31.262-31.417-50.652-52.502-67.142-21.85-17.09-44.514-31.492-68.438-41.842-14.16-6.139-22.11-23.601-17.233-45.787C46.03 75.04 54.24 66.354 63.733 60.763c7.975-4.706 16.32-8.333 24.653-11.588 26.17-10.244 44.28-32.749 53.069-69.973 6.345-26.857 12.975-53.573 19.011-80.553 2.222-9.926-.086-16.507-7.32-19.232-7.469-2.813-15.283-3.768-22.789-6.475-12.628-4.582-25.072-10.226-37.7-14.773-5.617-2.017-11.468-3.008-17.258-3.592-22.072-2.194-44.305-1.044-66.08-8.669-6.507-2.282-13.53-1.433-20.32-2.034"/><path d="M178.517-195.105c-12.554 3.539-25.01 8.174-37.676 10.35-16.776 2.866-33.725 3.769-50.588 5.591-10.085 1.097-20.159 2.53-30.244 3.485-16.16 1.522-31.788-3.733-47.54-7.82-16.788-4.352-33.663-3.485-50.613-1.203-9.172 1.239-18.504.212-27.763.212-14.443 0-16.702 3.079-17.258 23.885-.123 4.706-.074 9.43-.012 14.154.654 44.496-6.666 86.161-20.862 125.721-5.173 14.42-9.395 29.688-12.938 45.098-4.098 17.763-4.036 36.499-1.851 54.722 2.358 19.638 5.987 38.976 9.098 58.42 5.518 34.429 20.69 55.836 43.823 66.328 11.296 5.131 22.542 10.456 33.96 14.968 18.135 7.147 35.232 17.232 49.305 35.561 12.295 16.029 25.17 31.191 34.133 51.98 7.036 16.294 9.974 34.394 13.37 52.334 4.048 21.407 4.813 43.505 3.579 65.408-1.05 18.594-6 35.172-17.048 46.99-7.333 7.838-15.838 9.448-24.072 7.555-17.023-3.91-34.01-8.758-51.255-6.511-15.887 2.07-31.047 8.882-45.761 18.117-10.074 6.316-19.703 12.986-27.751 24.044-14.357 19.709-20.665 45.133-25.183 71.742-3.05 17.94-4.148 36.252-3.914 54.828.173 13.677 6.012 22.098 15.567 22.275 19.628.354 38.8-3.981 58.057-8.758 16.517-4.087 32.466-9.465 47.564-20.399 12.616-9.147 23.788-21.124 33.713-34.942 16.653-23.195 34.91-42.638 55.724-57.235 10.517-7.377 17.566-19.886 23.368-33.703 10.938-26.061 24.961-47.876 40.639-68.328 22.973-29.917 44.552-61.958 60.686-100.545 4.605-11.022 9.629-21.691 14.135-32.784 5.616-13.87 6.012-28.75 1.802-43.257-8.345-28.75-19.653-55.006-34.516-77.846-9.912-15.251-23.121-23.407-35.725-32.872-12.258-9.218-24.714-18.206-34.59-32.66-11.308-16.56-9.53-27.653-1.271-42.462 9.147-16.4 18.64-32.483 27.022-49.68 6.95-14.26 12.123-30.289 18.789-44.85 6.036-13.18 12.542-26.096 19.751-38.002 12.876-21.302 19.961-45.611 21.542-73.547.469-8.298 2.197-16.507 2.259-24.769.061-9.713-.519-19.621-1.877-29.14-1.049-7.342-7.11-12.296-12.776-12.42-4.728-.088-9.469-.017-14.197-.017"/><path d="M-197.996-205.719c-19.319 8.758-28.59 29.794-30.528 56.669-1.605 22.168-.284 44.779-.334 67.177-.037 17.993-3.543 34.695-10.554 49.468-9.79 20.629-20.492 40.374-30.072 61.215-11.629 25.3-18.838 53.006-17.282 83.932.827 16.56 4.777 31.51 12.776 44.337 15.851 25.406 36.417 40.108 57.489 53.837 11.061 7.219 22.394 13.659 33.269 21.408 10.888 7.749 18.332 20.222 20.369 37.897 3.518 30.519 3.777 60.667-6.135 89.328-4.358 12.597-10.987 21.974-19.739 28.326-15.444 11.181-30.986 22.079-46.256 33.703-14.159 10.757-26.479 24.769-37.244 42.143-9.851 15.906-11.727 34.642-9.308 53.183 3.395 25.972 9.407 51.325 21.233 72.627 14.74 26.556 34.047 42.426 57.403 46.708 26.553 4.883 43.885-9.201 56.106-44.072 5.827-16.613 11.604-33.315 16.616-50.441 10.666-36.428 29.961-58.296 55.65-69.778 13.11-5.856 26.245-11.659 39.527-16.648 5.543-2.088 11.469-2.371 17.246-2.778 12.332-.867 24.69-1.079 37.034-1.893 13.85-.92 22.319-12.438 27.109-30.059 4.839-17.799 4.48-36.181 2.604-54.829-1.9-18.93-5.086-37.118-13.714-52.103-21.604-37.526-48.182-63.356-81.994-73.812-18.8-5.821-37.219-14.402-55.551-22.894-10.752-4.972-19.702-14.154-22.232-31.634-.889-6.121-1.827-12.385-1.803-18.559.124-29.175-3.95-57.5-8.135-85.808-3.617-24.45-5.629-49.22-.321-73.316 3.518-15.976 8.691-31.581 14.752-45.947 10.444-24.787 16.579-50.724 14.53-79.775-1.235-17.639-8.148-31.386-17.283-42.337-15.036-18.011-31.874-31.846-50.539-40.798-7.802-3.751-15.838-5.202-24.072-4.441M227.896 475.437c-8.469 3.538-16.838 6.829-24.159 14.879-17.628 19.373-20.763 54.81-11.628 77.987 5.974 15.162 16.282 16.808 26.491 14.773 18.085-3.574 34.541-13.163 48.218-31.51 18.949-25.423 9.172-59.658-10.493-71.848-9.11-5.662-18.48-3.875-27.812-4.281M83.46 204.746c-11.788 3.291-11.541 13.481-7.998 24.751 3.37 10.704 7.591 20.93 10.32 31.935 4.246 17.126 7.443 34.765 11.283 52.104 3.715 16.807 6.517 34.11 14.109 48.724 6.173 11.889 12.246 14.331 21.665 7.926 16.715-11.341 24.134-32.076 25.702-56.668 2.568-40.427-12.234-68.027-34.997-88.373-12.098-10.828-24.961-19.001-39.478-20.399"/></g></svg>