<svg width="360" height="693" viewBox="0 0 360 693" fill="none" xmlns="http://www.w3.org/2000/svg">
<rect width="360" height="693" fill="#181B2B"/>
<mask id="mask0" mask-type="alpha" maskUnits="userSpaceOnUse" x="0" y="0" width="360" height="693">
<rect width="360" height="693" rx="6" fill="#181B2B"/>
</mask>
<g mask="url(#mask0)">
<g opacity="0.7">
<path d="M588.975 421.473C573.544 436.211 558.471 451.816 542.584 465.474C525.548 480.123 507.29 491.393 487.736 497.497C473.923 501.796 461.751 494.737 450.11 485.13C444.271 480.318 438.703 474.798 432.778 470.215C426.42 465.297 419.828 463.687 412.397 466.323C404.126 469.242 395.386 470.729 387.177 465.58C381.325 461.918 376.202 456.699 374.153 447.127C372.338 438.688 373.129 433.699 377.918 428.586C380.424 425.914 383.091 423.313 385.942 421.544C397.731 414.219 403.817 400.986 406.336 383.435C409.002 364.805 411.557 346.069 415.088 327.757C418.038 312.418 422.347 297.627 426.05 282.589C428.84 271.266 428.642 259.589 427.198 248.107C424.519 226.876 414.187 214.262 402.003 203.805C383.918 188.307 364.759 175.374 348.242 156.16C334.255 139.866 319.985 124.066 305.653 108.391C299.308 101.456 292.444 95.5111 285.963 88.8234C272.816 75.2358 270.557 61.4358 273.125 46.4505C276.198 28.4574 285.494 19.6467 300.135 17.0459C311.689 14.9936 323.614 14.9759 334.12 5.75827C346.464 -5.0517 355.278 -19.0109 353.636 -41.1616C353.056 -49.0169 351.167 -57.5269 348.094 -64.0023C337.601 -86.1884 331.367 -110.321 328.416 -136.7C325.947 -158.78 316.454 -172.031 301.419 -178.524C288.555 -184.08 275.618 -186.734 262.508 -183.425C241.967 -178.241 231.61 -157.63 226.807 -130.49C224.079 -115.098 222.363 -99.3337 220.561 -83.6407C218.068 -61.9854 210.71 -43.9039 200.698 -28.0162C190.169 -11.3148 180.663 6.57213 173.244 26.2282C168.072 39.922 163.887 54.9073 163.751 71.1488C163.628 86.488 168.639 97.1919 177.873 104.888C190.625 115.521 204.797 120.015 218.648 126.03C228.363 130.259 238.165 134.222 247.621 139.423C258.62 145.456 263.669 158.726 264.854 174.666C266.952 203.168 272.001 229.831 283.963 253.503C290.185 265.799 295.641 278.98 300.616 292.408C305.714 306.137 309.813 320.61 314.306 334.781C314.837 336.462 315.319 338.267 315.528 340.089C317.862 360.364 311.442 370.714 297.036 371.139C284.296 371.51 271.915 367.954 259.36 366.061C244.966 363.903 230.573 364.681 218.598 379.808C204.587 397.518 190.366 414.874 176.022 432.018C161.554 449.321 148.567 468.57 138.506 491.428C134.198 501.212 131.149 512.093 127.26 522.266C121.495 537.375 116.483 553.192 106.348 563.949C98.6577 572.123 89.9423 577.36 80.9431 580.367C63.2655 586.259 48.526 599.21 34.6877 615.15C21.195 630.684 7.71461 646.519 -8.55564 655.683C-23.1347 663.91 -37.8742 672.013 -53.0087 677.657C-77.8832 686.928 -96.7088 706.549 -109.769 738.094C-117.374 756.476 -125.373 774.593 -136.347 789.313C-142.952 798.177 -150.001 806.457 -157.321 814.082C-170.468 827.794 -175.986 845.946 -175.949 869.034C-175.912 890.867 -171.838 911.266 -167.765 931.842C-165.666 942.439 -164.234 953.409 -161.444 963.599C-157.321 978.691 -149.099 988.581 -138.73 994.596C-121.694 1004.49 -104.819 1015.07 -87.4256 1023.45C-78.056 1027.96 -67.7976 1030.23 -57.8848 1030.56C-38.6272 1031.2 -22.3322 1013.4 -17.6166 985.856C-14.3329 966.696 -12.1479 947.039 -5.55582 929.082C1.15967 910.806 10.3565 896.227 23.0221 886.886C39.8602 874.448 57.3277 863.727 74.1288 851.147C87.0289 841.487 99.0528 829.439 111.916 819.673C124.631 810.031 138.617 809.995 152.579 812.419C167.17 814.967 181.947 817.904 196.353 813.003C216.759 806.068 226.61 784.288 231.634 756.688C234.399 741.526 237.103 726.24 241.004 711.644C245.695 694.111 256.509 687.706 268.619 686.026C284.321 683.832 299.184 690.997 314.319 695.438C329.317 699.861 344.563 702.957 359.969 701.736C381.807 699.985 397.929 685.99 407.657 656.816C413.989 637.814 421.594 619.52 432.247 604.606C443.468 588.877 456.393 577.289 472.293 573.467C482.255 571.079 491.242 575.077 500.069 580.668C512.45 588.506 524.844 596.326 537.09 604.588C551.583 614.354 565.915 624.563 580.309 634.612C583.21 636.629 586.074 638.734 588.95 640.804" fill="#181B2B"/>
<path d="M588.975 421.473C573.544 436.211 558.471 451.816 542.584 465.474C525.548 480.123 507.29 491.393 487.736 497.497C473.923 501.796 461.751 494.737 450.11 485.13C444.271 480.318 438.703 474.798 432.778 470.215C426.42 465.297 419.828 463.687 412.397 466.323C404.126 469.242 395.386 470.729 387.177 465.58C381.325 461.918 376.202 456.699 374.153 447.127C372.338 438.688 373.129 433.699 377.918 428.586C380.424 425.914 383.091 423.313 385.942 421.544C397.731 414.219 403.817 400.986 406.336 383.435C409.002 364.805 411.557 346.069 415.088 327.757C418.038 312.418 422.347 297.627 426.05 282.589C428.84 271.266 428.642 259.589 427.198 248.107C424.519 226.876 414.187 214.262 402.003 203.805C383.918 188.307 364.759 175.374 348.242 156.16C334.255 139.866 319.985 124.066 305.653 108.391C299.308 101.456 292.444 95.5111 285.963 88.8234C272.816 75.2358 270.557 61.4358 273.125 46.4505C276.198 28.4574 285.494 19.6467 300.135 17.0459C311.689 14.9936 323.614 14.9759 334.12 5.75827C346.464 -5.0517 355.278 -19.0109 353.636 -41.1616C353.056 -49.0169 351.167 -57.5269 348.094 -64.0023C337.601 -86.1884 331.367 -110.321 328.416 -136.7C325.947 -158.78 316.454 -172.031 301.419 -178.524C288.555 -184.08 275.618 -186.734 262.508 -183.425C241.967 -178.241 231.61 -157.63 226.807 -130.49C224.079 -115.098 222.363 -99.3337 220.561 -83.6407C218.068 -61.9854 210.71 -43.9039 200.698 -28.0162C190.169 -11.3148 180.663 6.57213 173.244 26.2282C168.072 39.922 163.887 54.9073 163.751 71.1488C163.628 86.488 168.639 97.1919 177.873 104.888C190.625 115.521 204.797 120.015 218.648 126.03C228.363 130.259 238.165 134.222 247.621 139.423C258.62 145.456 263.669 158.726 264.854 174.666C266.952 203.168 272.001 229.831 283.963 253.503C290.185 265.799 295.641 278.98 300.616 292.408C305.714 306.137 309.813 320.61 314.306 334.781C314.837 336.462 315.319 338.267 315.528 340.089C317.862 360.364 311.442 370.714 297.036 371.139C284.296 371.51 271.915 367.954 259.36 366.061C244.966 363.903 230.573 364.681 218.598 379.808C204.587 397.518 190.366 414.874 176.022 432.018C161.554 449.321 148.567 468.57 138.506 491.428C134.198 501.212 131.149 512.093 127.26 522.266C121.495 537.375 116.483 553.192 106.348 563.949C98.6577 572.123 89.9423 577.36 80.9431 580.367C63.2655 586.259 48.526 599.21 34.6877 615.15C21.195 630.684 7.71461 646.519 -8.55564 655.683C-23.1347 663.91 -37.8742 672.013 -53.0087 677.657C-77.8832 686.928 -96.7088 706.549 -109.769 738.094C-117.374 756.476 -125.373 774.593 -136.347 789.313C-142.952 798.177 -150.001 806.457 -157.321 814.082C-170.468 827.794 -175.986 845.946 -175.949 869.034C-175.912 890.867 -171.838 911.266 -167.765 931.842C-165.666 942.439 -164.234 953.409 -161.444 963.599C-157.321 978.691 -149.099 988.581 -138.73 994.596C-121.694 1004.49 -104.819 1015.07 -87.4256 1023.45C-78.056 1027.96 -67.7976 1030.23 -57.8848 1030.56C-38.6272 1031.2 -22.3322 1013.4 -17.6166 985.856C-14.3329 966.696 -12.1479 947.039 -5.55582 929.082C1.15967 910.806 10.3565 896.227 23.0221 886.886C39.8602 874.448 57.3277 863.727 74.1288 851.147C87.0289 841.487 99.0528 829.439 111.916 819.673C124.631 810.031 138.617 809.995 152.579 812.419C167.17 814.967 181.947 817.904 196.353 813.003C216.759 806.068 226.61 784.288 231.634 756.688C234.399 741.526 237.103 726.24 241.004 711.644C245.695 694.111 256.509 687.706 268.619 686.026C284.321 683.832 299.184 690.997 314.319 695.438C329.317 699.861 344.563 702.957 359.969 701.736C381.807 699.985 397.929 685.99 407.657 656.816C413.989 637.814 421.594 619.52 432.247 604.606C443.468 588.877 456.393 577.289 472.293 573.467C482.255 571.079 491.242 575.077 500.069 580.668C512.45 588.506 524.844 596.326 537.09 604.588C551.583 614.354 565.915 624.563 580.309 634.612C583.21 636.629 586.074 638.734 588.95 640.804" stroke="#222639" stroke-width="4" stroke-miterlimit="10" stroke-linecap="round" stroke-linejoin="round"/>
<path d="M588.666 677.128C576.42 668.281 564.236 659.276 551.928 650.625C536.535 639.815 520.536 631.375 503.809 625.767C495.254 622.901 486.81 620.176 477.873 620.353C455.418 620.813 435.864 652.27 439.074 684.187C440.32 696.554 445.123 706.868 450.048 716.988C452.616 722.278 455.097 727.869 456.801 733.796C460.467 746.552 457.356 759.149 448.875 768.243C443.357 774.17 431.173 774.523 425.47 768.137C419.273 761.201 413.619 753.257 407.484 746.18C399.966 737.511 390.646 734.645 381.56 732.186C367.475 728.382 353.254 725.215 338.983 723.34C322.787 721.199 306.467 719.518 290.247 719.996C278.914 720.332 269.31 728.24 264.31 744.34C256.842 768.402 255.422 793.242 260.052 818.63C262.903 834.252 270.224 845.027 279.729 853.183C294.086 865.515 309.566 873.689 326.058 876.732C335.169 878.412 344.588 876.325 353.797 877.245C362.142 878.076 371.462 877.05 377.141 888.656C379.523 893.522 381.646 899.608 381.992 905.375C383.103 923.475 381.202 941.432 379.165 959.319C377.054 977.843 375.511 996.491 373.524 1015.03C370.981 1038.78 375.19 1061.69 377.054 1084.95C378.832 1107.21 379.696 1129.75 379.523 1152.15C379.313 1178.28 384.782 1202.07 391.522 1225.53C398.645 1250.27 411.36 1267.27 428.482 1277.8C446.517 1288.89 460.85 1306.26 471.083 1330.4" fill="#181B2B"/>
<path d="M588.666 677.128C576.42 668.281 564.236 659.276 551.928 650.625C536.535 639.815 520.536 631.375 503.809 625.767C495.254 622.901 486.81 620.176 477.873 620.353C455.418 620.813 435.864 652.27 439.074 684.187C440.32 696.554 445.123 706.868 450.048 716.988C452.616 722.278 455.097 727.869 456.801 733.796C460.467 746.552 457.356 759.149 448.875 768.243C443.357 774.17 431.173 774.523 425.47 768.137C419.273 761.201 413.619 753.257 407.484 746.18C399.966 737.511 390.646 734.645 381.56 732.186C367.475 728.382 353.254 725.215 338.983 723.34C322.787 721.199 306.467 719.518 290.247 719.996C278.914 720.332 269.31 728.24 264.31 744.34C256.842 768.402 255.422 793.242 260.052 818.63C262.903 834.252 270.224 845.027 279.729 853.183C294.086 865.515 309.566 873.689 326.058 876.732C335.169 878.412 344.588 876.325 353.797 877.245C362.142 878.076 371.462 877.05 377.141 888.656C379.523 893.522 381.646 899.608 381.992 905.375C383.103 923.475 381.202 941.432 379.165 959.319C377.054 977.843 375.511 996.491 373.524 1015.03C370.981 1038.78 375.19 1061.69 377.054 1084.95C378.832 1107.21 379.696 1129.75 379.523 1152.15C379.313 1178.28 384.782 1202.07 391.522 1225.53C398.645 1250.27 411.36 1267.27 428.482 1277.8C446.517 1288.89 460.85 1306.26 471.083 1330.4" stroke="#222639" stroke-width="4" stroke-miterlimit="10" stroke-linecap="round" stroke-linejoin="round"/>
<path d="M588.664 231.281C584.245 217.711 580.27 203.805 575.27 190.678C569.604 175.781 558.975 167.837 549.964 158.071C525.632 131.709 504.893 100.571 488.635 63.8242C483.204 51.5458 480.216 36.6489 477.439 22.4243C473.785 3.74129 469.625 -14.4464 463.082 -31.484C458.169 -44.2755 451.132 -54.3955 443.244 -63.1886C434.936 -72.4416 426.196 -69.3985 418.036 -62.3393C407.136 -52.9447 398.433 -39.8525 390.261 -26.1056C380.682 -10.0233 371.411 6.43049 361.794 22.4597C356.486 31.3058 350.45 39.285 345.24 48.2373C335.624 64.7796 334.562 78.4911 344.623 102.075C354.696 125.712 369.374 142.502 385.94 156.036C397.779 165.714 410.099 174.259 421.653 184.538C441.565 202.284 453.33 227.566 452.441 262.225C451.997 279.67 450.737 297.167 448.75 314.4C444.294 352.933 452.91 385.576 470.032 414.184C475.093 422.641 480.352 431.045 488.253 436.034C500.992 444.102 512.794 441.943 524.781 434.672C539.594 425.719 551.025 410.504 561.197 393.13C570.493 377.26 579.727 361.302 588.985 345.379" fill="#181B2B"/>
<path d="M588.664 231.281C584.245 217.711 580.27 203.805 575.27 190.678C569.604 175.781 558.975 167.837 549.964 158.071C525.632 131.709 504.893 100.571 488.635 63.8242C483.204 51.5458 480.216 36.6489 477.439 22.4243C473.785 3.74129 469.625 -14.4464 463.082 -31.484C458.169 -44.2755 451.132 -54.3955 443.244 -63.1886C434.936 -72.4416 426.196 -69.3985 418.036 -62.3393C407.136 -52.9447 398.433 -39.8525 390.261 -26.1056C380.682 -10.0233 371.411 6.43049 361.794 22.4597C356.486 31.3058 350.45 39.285 345.24 48.2373C335.624 64.7796 334.562 78.4911 344.623 102.075C354.696 125.712 369.374 142.502 385.94 156.036C397.779 165.714 410.099 174.259 421.653 184.538C441.565 202.284 453.33 227.566 452.441 262.225C451.997 279.67 450.737 297.167 448.75 314.4C444.294 352.933 452.91 385.576 470.032 414.184C475.093 422.641 480.352 431.045 488.253 436.034C500.992 444.102 512.794 441.943 524.781 434.672C539.594 425.719 551.025 410.504 561.197 393.13C570.493 377.26 579.727 361.302 588.985 345.379" stroke="#222639" stroke-width="4" stroke-miterlimit="10" stroke-linecap="round" stroke-linejoin="round"/>
<path d="M3.22145 368.394C1.04879 352.259 -4.82721 339.273 -12.7648 327.614C-22.7146 312.964 -32.8126 298.51 -46.2066 290.708C-64.9211 279.791 -84.4256 273.033 -104.794 275.722C-118.312 277.509 -126.089 290.531 -129.311 308.329C-131.693 321.545 -132.915 335.327 -133.681 348.968C-134.656 366.307 -134.804 383.751 -135.014 401.143C-135.273 422.816 -126.546 430.919 -114.077 431.52C-95.5728 432.405 -78.352 425.416 -60.9584 418.092C-47.3175 412.36 -33.3435 408.29 -19.6779 402.717C-14.703 400.683 -9.95037 396.95 -5.49395 393.057C0.542584 387.785 2.01165 378.514 3.19673 369.297" fill="#181B2B"/>
<path d="M3.22145 368.394C1.04879 352.259 -4.82721 339.273 -12.7648 327.614C-22.7146 312.964 -32.8126 298.51 -46.2066 290.708C-64.9211 279.791 -84.4256 273.033 -104.794 275.722C-118.312 277.509 -126.089 290.531 -129.311 308.329C-131.693 321.545 -132.915 335.327 -133.681 348.968C-134.656 366.307 -134.804 383.751 -135.014 401.143C-135.273 422.816 -126.546 430.919 -114.077 431.52C-95.5728 432.405 -78.352 425.416 -60.9584 418.092C-47.3175 412.36 -33.3435 408.29 -19.6779 402.717C-14.703 400.683 -9.95037 396.95 -5.49395 393.057C0.542584 387.785 2.01165 378.514 3.19673 369.297" stroke="#222639" stroke-width="4" stroke-miterlimit="10" stroke-linecap="round" stroke-linejoin="round"/>
<path d="M37.788 534.704C34.3315 514.606 23.1719 506.343 11.247 499.319C-12.5782 485.307 -35.6256 491.588 -58.5126 504.556C-74.0175 513.349 -87.4114 526.035 -94.7565 548.062C-100.299 564.692 -102.682 582.278 -98.7932 601.103C-95.8552 615.292 -88.9915 621.838 -80.091 625.748C-68.9932 630.614 -57.8706 631.675 -46.1185 629.835C-34.7491 628.048 -23.8612 624.864 -13.4794 618.601C0.544169 610.144 12.2717 596.804 21.6536 579.695C26.5051 570.849 30.7022 561.189 34.5661 551.388C36.4054 546.735 36.7634 540.879 37.788 535.571" fill="#181B2B"/>
<path d="M37.788 534.704C34.3315 514.606 23.1719 506.343 11.247 499.319C-12.5782 485.307 -35.6256 491.588 -58.5126 504.556C-74.0175 513.349 -87.4114 526.035 -94.7565 548.062C-100.299 564.692 -102.682 582.278 -98.7932 601.103C-95.8552 615.292 -88.9915 621.838 -80.091 625.748C-68.9932 630.614 -57.8706 631.675 -46.1185 629.835C-34.7491 628.048 -23.8612 624.864 -13.4794 618.601C0.544169 610.144 12.2717 596.804 21.6536 579.695C26.5051 570.849 30.7022 561.189 34.5661 551.388C36.4054 546.735 36.7634 540.879 37.788 535.571" stroke="#222639" stroke-width="4" stroke-miterlimit="10" stroke-linecap="round" stroke-linejoin="round"/>
<path d="M-75.7852 570.086C-73.773 580.418 -71.4151 590.627 -64.033 595.669C-55.293 601.649 -45.8864 604.621 -36.2946 602.64C-21.5798 599.614 -8.38343 591.334 1.30712 574.42C5.65243 566.848 9.42997 558.497 9.40528 547.97C9.38059 537.231 5.99818 529.553 -0.445728 524.015C-10.6054 515.258 -21.3082 514.302 -32.5789 517.858C-43.3434 521.255 -53.3178 526.634 -62.2924 536.311C-70.1806 544.803 -73.6372 556.268 -75.7852 569.219" fill="#181B2B"/>
<path d="M-75.7852 570.086C-73.773 580.418 -71.4151 590.627 -64.033 595.669C-55.293 601.649 -45.8864 604.621 -36.2946 602.64C-21.5798 599.614 -8.38343 591.334 1.30712 574.42C5.65243 566.848 9.42997 558.497 9.40528 547.97C9.38059 537.231 5.99818 529.553 -0.445728 524.015C-10.6054 515.258 -21.3082 514.302 -32.5789 517.858C-43.3434 521.255 -53.3178 526.634 -62.2924 536.311C-70.1806 544.803 -73.6372 556.268 -75.7852 569.219" stroke="#222639" stroke-width="4" stroke-miterlimit="10" stroke-linecap="round" stroke-linejoin="round"/>
<path d="M241.476 406.435C223.662 412.008 208.034 423.809 193.245 439.006C170.728 462.148 154.187 491.057 145.656 529.343C141.731 546.911 137.274 564.321 129.855 579.943C121.979 596.521 111.116 604.128 97.6604 606.481C84.5504 608.781 70.8973 608.233 58.8366 617.185C49.43 624.174 40.0726 631.834 31.7276 641.105C13.2847 661.593 -7.26909 675.994 -28.8846 687.742C-41.8341 694.783 -55.0305 701.241 -66.4616 712.67C-79.5469 725.727 -88.4105 744.18 -96.1753 763.836C-107.532 792.639 -118.001 822.274 -132.049 848.671C-140.986 865.461 -142.258 882.905 -138.258 902.791C-131.185 937.981 -117.544 965.033 -93.6198 979.47C-86.2377 983.928 -78.1274 987.502 -70.2144 988.157C-53.9072 989.501 -44.982 979.452 -38.6616 957.637C-34.3903 942.917 -30.0573 928.038 -24.3787 914.38C-14.6265 890.92 0.927759 877.155 18.0251 866.398C35.9742 855.093 55.2195 847.556 71.0947 830.129C78.5139 821.991 85.7231 813.392 92.6855 804.475C100.981 793.86 109.524 783.935 120.523 779.848C129.238 776.61 137.916 776.362 147.088 777.424C159.606 778.875 172.63 780.856 184.74 771.904C196.01 763.571 201.96 749.93 204.367 732.875C206.059 720.915 206.985 708.725 208.145 696.623C209.775 679.657 217.465 669.714 227.292 662.124C240.784 651.703 255.265 646.749 270.498 647.209C282.472 647.581 293.545 653.277 304.52 660.124C317 667.927 329.913 673.783 343.961 673.818C359.355 673.854 371.267 665.503 380.402 647.987C391.512 626.668 400.66 603.615 408.597 579.731C415.103 560.163 411.807 547.584 397.635 538.366C389.574 533.129 380.995 529.449 373.02 523.982C358.651 514.145 348.343 497.232 337.751 480.813C326.197 462.891 316.457 442.598 302.075 428.391C288.521 414.998 274.09 406.7 257.548 406.47C252.401 406.4 247.265 406.453 242.118 406.453" fill="#181B2B"/>
<path d="M241.476 406.435C223.662 412.008 208.034 423.809 193.245 439.006C170.728 462.148 154.187 491.057 145.656 529.343C141.731 546.911 137.274 564.321 129.855 579.943C121.979 596.521 111.116 604.128 97.6604 606.481C84.5504 608.781 70.8973 608.233 58.8366 617.185C49.43 624.174 40.0726 631.834 31.7276 641.105C13.2847 661.593 -7.26909 675.994 -28.8846 687.742C-41.8341 694.783 -55.0305 701.241 -66.4616 712.67C-79.5469 725.727 -88.4105 744.18 -96.1753 763.836C-107.532 792.639 -118.001 822.274 -132.049 848.671C-140.986 865.461 -142.258 882.905 -138.258 902.791C-131.185 937.981 -117.544 965.033 -93.6198 979.47C-86.2377 983.928 -78.1274 987.502 -70.2144 988.157C-53.9072 989.501 -44.982 979.452 -38.6616 957.637C-34.3903 942.917 -30.0573 928.038 -24.3787 914.38C-14.6265 890.92 0.927759 877.155 18.0251 866.398C35.9742 855.093 55.2195 847.556 71.0947 830.129C78.5139 821.991 85.7231 813.392 92.6855 804.475C100.981 793.86 109.524 783.935 120.523 779.848C129.238 776.61 137.916 776.362 147.088 777.424C159.606 778.875 172.63 780.856 184.74 771.904C196.01 763.571 201.96 749.93 204.367 732.875C206.059 720.915 206.985 708.725 208.145 696.623C209.775 679.657 217.465 669.714 227.292 662.124C240.784 651.703 255.265 646.749 270.498 647.209C282.472 647.581 293.545 653.277 304.52 660.124C317 667.927 329.913 673.783 343.961 673.818C359.355 673.854 371.267 665.503 380.402 647.987C391.512 626.668 400.66 603.615 408.597 579.731C415.103 560.163 411.807 547.584 397.635 538.366C389.574 533.129 380.995 529.449 373.02 523.982C358.651 514.145 348.343 497.232 337.751 480.813C326.197 462.891 316.457 442.598 302.075 428.391C288.521 414.998 274.09 406.7 257.548 406.47C252.401 406.4 247.265 406.453 242.118 406.453" stroke="#222639" stroke-width="4" stroke-miterlimit="10" stroke-linecap="round" stroke-linejoin="round"/>
<path d="M53.835 684.204C24.1585 696.341 -2.86397 716.563 -28.8865 739.899C-42.1323 751.771 -52.1191 767.464 -55.8348 789.544C-57.2544 797.965 -57.2915 807.342 -56.4273 815.958C-55.4398 825.742 -48.8354 832.731 -40.6016 832.624C-14.1223 832.271 12.0113 827.971 36.5154 812.331C47.6133 805.254 55.7237 792.428 61.6738 777.814C68.9695 759.874 74.5988 740.642 78.5861 720.491C82.9685 698.393 72.9569 682.399 58.7729 684.169C57.3409 684.346 55.8966 684.186 54.4523 684.186" fill="#181B2B"/>
<path d="M53.835 684.204C24.1585 696.341 -2.86397 716.563 -28.8865 739.899C-42.1323 751.771 -52.1191 767.464 -55.8348 789.544C-57.2544 797.965 -57.2915 807.342 -56.4273 815.958C-55.4398 825.742 -48.8354 832.731 -40.6016 832.624C-14.1223 832.271 12.0113 827.971 36.5154 812.331C47.6133 805.254 55.7237 792.428 61.6738 777.814C68.9695 759.874 74.5988 740.642 78.5861 720.491C82.9685 698.393 72.9569 682.399 58.7729 684.169C57.3409 684.346 55.8966 684.186 54.4523 684.186" stroke="#222639" stroke-width="4" stroke-miterlimit="10" stroke-linecap="round" stroke-linejoin="round"/>
<path d="M-117.755 247.205C-135.568 251.416 -141.617 269.214 -143.765 292.302C-145.826 314.489 -148.406 336.604 -151.159 358.648C-152.9 372.555 -156.467 385.664 -162.862 396.651C-169.528 408.098 -178.836 413.972 -188.119 419.704C-206.414 431.01 -222.832 446.42 -237.473 465.74C-241.115 470.534 -244.522 475.683 -247.978 480.76C-255.015 491.075 -258.311 503.318 -258.595 517.896C-259.014 539.481 -254.422 558.323 -245.522 575.414C-228.881 607.349 -190.44 612.497 -171.269 583.606C-161.294 568.549 -154.307 551.016 -146.802 533.784C-140.358 518.993 -134.605 503.583 -128.173 488.775C-122.199 475.01 -112.101 468.482 -102.225 463.404C-83.3748 453.709 -64.1911 445.146 -44.847 437.751C-34.5022 433.805 -23.4785 433.557 -12.8251 431.134C-4.34432 429.205 4.42045 427.949 12.3951 423.774C22.1103 418.678 28.0974 406.913 29.6282 392.264C32.1218 368.485 31.1218 344.848 19.0982 326.183C10.7408 313.197 1.0132 301.909 -8.56625 290.675C-23.7872 272.841 -42.0202 265.109 -60.9445 259.448C-79.5356 253.893 -97.9168 246.763 -117.137 247.223" fill="#181B2B"/>
<path d="M-117.755 247.205C-135.568 251.416 -141.617 269.214 -143.765 292.302C-145.826 314.489 -148.406 336.604 -151.159 358.648C-152.9 372.555 -156.467 385.664 -162.862 396.651C-169.528 408.098 -178.836 413.972 -188.119 419.704C-206.414 431.01 -222.832 446.42 -237.473 465.74C-241.115 470.534 -244.522 475.683 -247.978 480.76C-255.015 491.075 -258.311 503.318 -258.595 517.896C-259.014 539.481 -254.422 558.323 -245.522 575.414C-228.881 607.349 -190.44 612.497 -171.269 583.606C-161.294 568.549 -154.307 551.016 -146.802 533.784C-140.358 518.993 -134.605 503.583 -128.173 488.775C-122.199 475.01 -112.101 468.482 -102.225 463.404C-83.3748 453.709 -64.1911 445.146 -44.847 437.751C-34.5022 433.805 -23.4785 433.557 -12.8251 431.134C-4.34432 429.205 4.42045 427.949 12.3951 423.774C22.1103 418.678 28.0974 406.913 29.6282 392.264C32.1218 368.485 31.1218 344.848 19.0982 326.183C10.7408 313.197 1.0132 301.909 -8.56625 290.675C-23.7872 272.841 -42.0202 265.109 -60.9445 259.448C-79.5356 253.893 -97.9168 246.763 -117.137 247.223" stroke="#222639" stroke-width="4" stroke-miterlimit="10" stroke-linecap="round" stroke-linejoin="round"/>
<path d="M9.39405 -80.1018C3.01186 -77.1472 -3.41969 -74.4225 -9.7278 -71.2026C-18.3567 -66.7972 -22.3194 -56.2703 -23.6897 -44.6642C-24.8994 -34.3319 -24.171 -23.4865 -23.8994 -12.8889C-23.3192 9.49183 -23.2699 31.5718 -33.1579 50.8563C-34.9356 54.324 -36.3182 58.3402 -37.4785 62.3387C-39.5401 69.4332 -37.9477 78.7393 -34.4418 81.7647C-31.1211 84.6309 -22.5416 81.8178 -19.6777 76.404C-17.1717 71.6624 -14.5545 66.7617 -12.9374 61.3655C-7.43167 42.9125 2.16002 30.7934 14.2701 21.4872C28.0714 10.8719 41.5641 -0.575057 55.0075 -12.1104C59.2417 -15.755 63.0809 -20.5142 66.7472 -25.3088C77.6599 -39.5865 73.6356 -55.5272 65.3894 -65.6649C57.39 -75.5018 47.1316 -79.5002 36.5399 -80.0133C27.7011 -80.4202 18.85 -80.1018 9.99892 -80.1018" fill="#181B2B"/>
<path d="M9.39405 -80.1018C3.01186 -77.1472 -3.41969 -74.4225 -9.7278 -71.2026C-18.3567 -66.7972 -22.3194 -56.2703 -23.6897 -44.6642C-24.8994 -34.3319 -24.171 -23.4865 -23.8994 -12.8889C-23.3192 9.49183 -23.2699 31.5718 -33.1579 50.8563C-34.9356 54.324 -36.3182 58.3402 -37.4785 62.3387C-39.5401 69.4332 -37.9477 78.7393 -34.4418 81.7647C-31.1211 84.6309 -22.5416 81.8178 -19.6777 76.404C-17.1717 71.6624 -14.5545 66.7617 -12.9374 61.3655C-7.43167 42.9125 2.16002 30.7934 14.2701 21.4872C28.0714 10.8719 41.5641 -0.575057 55.0075 -12.1104C59.2417 -15.755 63.0809 -20.5142 66.7472 -25.3088C77.6599 -39.5865 73.6356 -55.5272 65.3894 -65.6649C57.39 -75.5018 47.1316 -79.5002 36.5399 -80.0133C27.7011 -80.4202 18.85 -80.1018 9.99892 -80.1018" stroke="#222639" stroke-width="4" stroke-miterlimit="10" stroke-linecap="round" stroke-linejoin="round"/>
<path d="M-1.71623 -120.794C-5.20976 -119.91 -8.72798 -119.167 -12.2092 -118.123C-37.3552 -110.586 -49.1814 -85.9052 -53.5514 -51.7945C-55.3167 -37.9591 -56.5387 -23.9822 -58.588 -10.2531C-61.3655 8.39459 -68.5995 24.353 -74.5126 41.1076C-78.7221 53.0145 -82.3514 65.4167 -81.8947 79.1105C-81.154 101.42 -74.7226 118.617 -60.4275 129.728C-47.947 139.423 -34.5777 143.687 -20.8381 146.217C-6.22201 148.924 6.30782 133.656 10.6531 109.205C12.3444 99.7043 13.7022 89.9559 16.3069 80.9505C23.1952 57.1014 35.6881 40.6652 52.0324 30.616C61.6366 24.7068 71.6727 20.1245 81.6225 15.4892C93.2388 10.093 104.904 4.76764 112.422 -10.2885C122.718 -30.9176 121.829 -56.3591 111.706 -77.3244C101.3 -98.8559 86.1653 -110.71 68.0187 -113.611C56.1431 -115.504 44.1565 -116.07 32.2316 -117.291C21.1214 -118.424 10.0112 -119.644 -1.09899 -120.812" fill="#181B2B"/>
<path d="M-1.71623 -120.794C-5.20976 -119.91 -8.72798 -119.167 -12.2092 -118.123C-37.3552 -110.586 -49.1814 -85.9052 -53.5514 -51.7945C-55.3167 -37.9591 -56.5387 -23.9822 -58.588 -10.2531C-61.3655 8.39459 -68.5995 24.353 -74.5126 41.1076C-78.7221 53.0145 -82.3514 65.4167 -81.8947 79.1105C-81.154 101.42 -74.7226 118.617 -60.4275 129.728C-47.947 139.423 -34.5777 143.687 -20.8381 146.217C-6.22201 148.924 6.30782 133.656 10.6531 109.205C12.3444 99.7043 13.7022 89.9559 16.3069 80.9505C23.1952 57.1014 35.6881 40.6652 52.0324 30.616C61.6366 24.7068 71.6727 20.1245 81.6225 15.4892C93.2388 10.093 104.904 4.76764 112.422 -10.2885C122.718 -30.9176 121.829 -56.3591 111.706 -77.3244C101.3 -98.8559 86.1653 -110.71 68.0187 -113.611C56.1431 -115.504 44.1565 -116.07 32.2316 -117.291C21.1214 -118.424 10.0112 -119.644 -1.09899 -120.812" stroke="#222639" stroke-width="4" stroke-miterlimit="10" stroke-linecap="round" stroke-linejoin="round"/>
<path d="M69.8829 639.971C54.0817 644.358 41.5024 658.158 27.8369 668.968C11.4926 681.884 -5.2467 693.843 -22.1218 705.308C-41.1696 718.223 -60.0322 731.634 -71.9325 757.766C-82.5982 781.19 -89.7951 807.039 -93.6714 834.603C-97.239 859.956 -97.7821 885.132 -91.1654 909.778C-90.0173 914.059 -88.7583 918.553 -86.7955 922.091C-81.6724 931.327 -73.4261 933.131 -67.2291 925.559C-60.6123 917.474 -54.5636 908.327 -48.6505 899.127C-33.3184 875.295 -14.3323 860.398 6.92516 850.438C19.6031 844.493 32.318 838.46 44.5146 830.817C55.6618 823.829 65.5746 813.036 72.8333 799.059C86.4124 772.91 101.633 749.716 120.373 730.803C133.31 717.728 134.692 703.203 127.927 682.45C120.175 658.654 105.843 647.49 89.0047 641.97C83.0546 640.024 76.6971 640.572 70.5248 639.988" fill="#181B2B"/>
<path d="M69.8829 639.971C54.0817 644.358 41.5024 658.158 27.8369 668.968C11.4926 681.884 -5.2467 693.843 -22.1218 705.308C-41.1696 718.223 -60.0322 731.634 -71.9325 757.766C-82.5982 781.19 -89.7951 807.039 -93.6714 834.603C-97.239 859.956 -97.7821 885.132 -91.1654 909.778C-90.0173 914.059 -88.7583 918.553 -86.7955 922.091C-81.6724 931.327 -73.4261 933.131 -67.2291 925.559C-60.6123 917.474 -54.5636 908.327 -48.6505 899.127C-33.3184 875.295 -14.3323 860.398 6.92516 850.438C19.6031 844.493 32.318 838.46 44.5146 830.817C55.6618 823.829 65.5746 813.036 72.8333 799.059C86.4124 772.91 101.633 749.716 120.373 730.803C133.31 717.728 134.692 703.203 127.927 682.45C120.175 658.654 105.843 647.49 89.0047 641.97C83.0546 640.024 76.6971 640.572 70.5248 639.988" stroke="#222639" stroke-width="4" stroke-miterlimit="10" stroke-linecap="round" stroke-linejoin="round"/>
<path d="M237.77 440.049C225.969 443.64 214.39 448.099 203.81 456.839C181.01 475.646 167.258 503.228 163.69 540.895C162.122 557.419 159.518 573.855 158.975 590.451C158.209 613.716 163.703 631.284 184.071 632.859C199.403 634.044 213.871 627.021 228.475 622.102C246.301 616.105 263.929 608.904 281.569 601.845C287.26 599.562 292.976 596.82 298.197 592.963C312.073 582.684 315.912 563.806 316.653 543.566C317.937 508.925 306.592 482.563 289.038 460.342C274.323 441.712 256.88 438.527 238.375 440.084" fill="#181B2B"/>
<path d="M237.77 440.049C225.969 443.64 214.39 448.099 203.81 456.839C181.01 475.646 167.258 503.228 163.69 540.895C162.122 557.419 159.518 573.855 158.975 590.451C158.209 613.716 163.703 631.284 184.071 632.859C199.403 634.044 213.871 627.021 228.475 622.102C246.301 616.105 263.929 608.904 281.569 601.845C287.26 599.562 292.976 596.82 298.197 592.963C312.073 582.684 315.912 563.806 316.653 543.566C317.937 508.925 306.592 482.563 289.038 460.342C274.323 441.712 256.88 438.527 238.375 440.084" stroke="#222639" stroke-width="4" stroke-miterlimit="10" stroke-linecap="round" stroke-linejoin="round"/>
<path d="M-11.5937 -156.18C-15.9143 -154.994 -20.272 -154.021 -24.5555 -152.606C-44.6897 -145.936 -58.5404 -129.234 -64.6757 -100.449C-68.4284 -82.7744 -72.6997 -65.2767 -75.6501 -47.3191C-79.8719 -21.683 -88.5749 1.21077 -95.6483 25.113C-100.043 39.9568 -102.907 55.6498 -102.598 71.166C-102.043 98.7482 -97.5125 125.623 -84.316 147.101C-75.4896 161.467 -63.3671 169.712 -51.0595 176.24C-38.1346 183.087 -24.9629 189.35 -11.5689 193.879C5.70122 199.718 19.3296 212.952 30.9583 231.316C37.8096 242.144 44.3029 253.467 51.3888 263.958C64.6099 283.544 71.992 307.375 77.3125 333.011C82.6454 358.754 87.9289 384.567 94.0518 409.937C100.471 436.546 108.248 437.608 124.778 427.63C140.999 417.828 152.998 399.906 164.071 381.417C175.144 362.929 182.785 341.168 187.266 317.159C192.056 291.47 189.748 267.55 180.958 244.585C168.996 213.323 149.541 193.933 128.456 177.443C106.606 160.353 83.9416 145.951 60.0177 135.601C45.8584 129.462 37.9084 112 42.7846 89.8136C46.0312 75.0406 54.2404 66.3537 63.7334 60.7629C71.7081 56.0568 80.053 52.4299 88.3857 49.1745C114.556 38.9307 132.666 16.4261 141.455 -20.7984C147.8 -47.6553 154.43 -74.3706 160.466 -101.351C162.688 -111.277 160.38 -117.858 153.146 -120.583C145.677 -123.396 137.863 -124.351 130.357 -127.058C117.729 -131.64 105.285 -137.284 92.6569 -141.831C87.04 -143.848 81.1887 -144.839 75.3991 -145.423C53.3268 -147.617 31.0941 -146.467 9.3181 -154.092C2.81247 -156.374 -4.21159 -155.525 -11.0011 -156.126" fill="#181B2B"/>
<path d="M-11.5937 -156.18C-15.9143 -154.994 -20.272 -154.021 -24.5555 -152.606C-44.6897 -145.936 -58.5404 -129.234 -64.6757 -100.449C-68.4284 -82.7744 -72.6997 -65.2767 -75.6501 -47.3191C-79.8719 -21.683 -88.5749 1.21077 -95.6483 25.113C-100.043 39.9568 -102.907 55.6498 -102.598 71.166C-102.043 98.7482 -97.5125 125.623 -84.316 147.101C-75.4896 161.467 -63.3671 169.712 -51.0595 176.24C-38.1346 183.087 -24.9629 189.35 -11.5689 193.879C5.70122 199.718 19.3296 212.952 30.9583 231.316C37.8096 242.144 44.3029 253.467 51.3888 263.958C64.6099 283.544 71.992 307.375 77.3125 333.011C82.6454 358.754 87.9289 384.567 94.0518 409.937C100.471 436.546 108.248 437.608 124.778 427.63C140.999 417.828 152.998 399.906 164.071 381.417C175.144 362.929 182.785 341.168 187.266 317.159C192.056 291.47 189.748 267.55 180.958 244.585C168.996 213.323 149.541 193.933 128.456 177.443C106.606 160.353 83.9416 145.951 60.0177 135.601C45.8584 129.462 37.9084 112 42.7846 89.8136C46.0312 75.0406 54.2404 66.3537 63.7334 60.7629C71.7081 56.0568 80.053 52.4299 88.3857 49.1745C114.556 38.9307 132.666 16.4261 141.455 -20.7984C147.8 -47.6553 154.43 -74.3706 160.466 -101.351C162.688 -111.277 160.38 -117.858 153.146 -120.583C145.677 -123.396 137.863 -124.351 130.357 -127.058C117.729 -131.64 105.285 -137.284 92.6569 -141.831C87.04 -143.848 81.1887 -144.839 75.3991 -145.423C53.3268 -147.617 31.0941 -146.467 9.3181 -154.092C2.81247 -156.374 -4.21159 -155.525 -11.0011 -156.126" stroke="#222639" stroke-width="4" stroke-miterlimit="10" stroke-linecap="round" stroke-linejoin="round"/>
<path d="M178.517 -195.105C165.963 -191.566 153.507 -186.931 140.841 -184.755C124.065 -181.889 107.116 -180.986 90.253 -179.164C80.1675 -178.067 70.0942 -176.634 60.0086 -175.679C43.8495 -174.157 28.2212 -179.412 12.4694 -183.499C-4.31934 -187.851 -21.1945 -186.984 -38.1437 -184.702C-47.3157 -183.463 -56.6483 -184.49 -65.9068 -184.49C-80.35 -184.49 -82.6091 -181.411 -83.1646 -160.605C-83.288 -155.899 -83.2386 -151.175 -83.1769 -146.451C-82.5227 -101.955 -89.8431 -60.2899 -104.039 -20.73C-109.212 -6.31079 -113.434 8.95761 -116.977 24.3676C-121.075 42.1306 -121.013 60.8667 -118.828 79.0898C-116.47 98.7282 -112.841 118.066 -109.73 137.51C-104.212 171.939 -89.0406 193.346 -65.9068 203.838C-54.6114 208.969 -43.3654 214.294 -31.9466 218.806C-13.8123 225.953 3.28492 236.038 17.3578 254.367C29.6531 270.396 42.5286 285.558 51.4908 306.347C58.5273 322.641 61.4654 340.741 64.8602 358.681C68.9092 380.088 69.6744 402.186 68.44 424.089C67.3907 442.683 62.4406 459.261 51.3921 471.079C44.0594 478.917 35.5539 480.527 27.32 478.634C10.2968 474.724 -6.6895 469.876 -23.935 472.123C-39.8225 474.193 -54.9817 481.005 -69.6965 490.24C-79.7697 496.556 -89.3987 503.226 -97.4474 514.284C-111.804 533.993 -118.112 559.417 -122.63 586.026C-125.68 603.966 -126.778 622.278 -126.544 640.854C-126.371 654.531 -120.532 662.952 -110.977 663.129C-91.3491 663.483 -72.1778 659.148 -52.9202 654.371C-36.403 650.284 -20.4537 644.906 -5.35621 633.972C7.26002 624.825 18.4318 612.848 28.3569 599.03C45.0099 575.835 63.2676 556.392 84.0807 541.795C94.5983 534.418 101.647 521.909 107.449 508.092C118.387 482.031 132.41 460.216 148.088 439.764C171.061 409.847 192.64 377.806 208.774 339.219C213.379 328.197 218.403 317.528 222.909 306.435C228.525 292.565 228.921 277.685 224.711 263.178C216.366 234.428 205.058 208.172 190.195 185.332C180.283 170.081 167.074 161.925 154.47 152.46C142.212 143.242 129.756 134.254 119.88 119.8C108.572 103.24 110.35 92.1466 118.609 77.3382C127.756 60.9375 137.249 44.8552 145.631 27.6584C152.581 13.3984 157.754 -2.6308 164.42 -17.1915C170.456 -30.3723 176.962 -43.2876 184.171 -55.1945C197.047 -76.496 204.132 -100.805 205.713 -128.741C206.182 -137.039 207.91 -145.248 207.972 -153.51C208.033 -163.223 207.453 -173.131 206.095 -182.65C205.046 -189.992 198.985 -194.946 193.319 -195.07C188.591 -195.158 183.85 -195.087 179.122 -195.087" fill="#181B2B"/>
<path d="M178.517 -195.105C165.963 -191.566 153.507 -186.931 140.841 -184.755C124.065 -181.889 107.116 -180.986 90.253 -179.164C80.1675 -178.067 70.0942 -176.634 60.0086 -175.679C43.8495 -174.157 28.2212 -179.412 12.4694 -183.499C-4.31934 -187.851 -21.1945 -186.984 -38.1437 -184.702C-47.3157 -183.463 -56.6483 -184.49 -65.9068 -184.49C-80.35 -184.49 -82.6091 -181.411 -83.1646 -160.605C-83.288 -155.899 -83.2386 -151.175 -83.1769 -146.451C-82.5227 -101.955 -89.8431 -60.2899 -104.039 -20.73C-109.212 -6.31079 -113.434 8.95761 -116.977 24.3676C-121.075 42.1306 -121.013 60.8667 -118.828 79.0898C-116.47 98.7282 -112.841 118.066 -109.73 137.51C-104.212 171.939 -89.0406 193.346 -65.9068 203.838C-54.6114 208.969 -43.3654 214.294 -31.9466 218.806C-13.8123 225.953 3.28492 236.038 17.3578 254.367C29.6531 270.396 42.5286 285.558 51.4908 306.347C58.5273 322.641 61.4654 340.741 64.8602 358.681C68.9092 380.088 69.6744 402.186 68.44 424.089C67.3907 442.683 62.4406 459.261 51.3921 471.079C44.0594 478.917 35.5539 480.527 27.32 478.634C10.2968 474.724 -6.6895 469.876 -23.935 472.123C-39.8225 474.193 -54.9817 481.005 -69.6965 490.24C-79.7697 496.556 -89.3987 503.226 -97.4474 514.284C-111.804 533.993 -118.112 559.417 -122.63 586.026C-125.68 603.966 -126.778 622.278 -126.544 640.854C-126.371 654.531 -120.532 662.952 -110.977 663.129C-91.3491 663.483 -72.1778 659.148 -52.9202 654.371C-36.403 650.284 -20.4537 644.906 -5.35621 633.972C7.26002 624.825 18.4318 612.848 28.3569 599.03C45.0099 575.835 63.2676 556.392 84.0807 541.795C94.5983 534.418 101.647 521.909 107.449 508.092C118.387 482.031 132.41 460.216 148.088 439.764C171.061 409.847 192.64 377.806 208.774 339.219C213.379 328.197 218.403 317.528 222.909 306.435C228.525 292.565 228.921 277.685 224.711 263.178C216.366 234.428 205.058 208.172 190.195 185.332C180.283 170.081 167.074 161.925 154.47 152.46C142.212 143.242 129.756 134.254 119.88 119.8C108.572 103.24 110.35 92.1466 118.609 77.3382C127.756 60.9375 137.249 44.8552 145.631 27.6584C152.581 13.3984 157.754 -2.6308 164.42 -17.1915C170.456 -30.3723 176.962 -43.2876 184.171 -55.1945C197.047 -76.496 204.132 -100.805 205.713 -128.741C206.182 -137.039 207.91 -145.248 207.972 -153.51C208.033 -163.223 207.453 -173.131 206.095 -182.65C205.046 -189.992 198.985 -194.946 193.319 -195.07C188.591 -195.158 183.85 -195.087 179.122 -195.087" stroke="#222639" stroke-width="4" stroke-miterlimit="10" stroke-linecap="round" stroke-linejoin="round"/>
<path d="M-197.996 -205.719C-217.315 -196.961 -226.586 -175.925 -228.524 -149.05C-230.129 -126.882 -228.808 -104.271 -228.858 -81.8728C-228.895 -63.8797 -232.401 -47.1782 -239.412 -32.4052C-249.202 -11.776 -259.904 7.96855 -269.484 28.81C-281.113 54.11 -288.322 81.8161 -286.766 112.742C-285.939 129.302 -281.989 144.252 -273.99 157.079C-258.139 182.485 -237.573 197.187 -216.501 210.916C-205.44 218.135 -194.107 224.575 -183.232 232.324C-172.344 240.073 -164.9 252.546 -162.863 270.221C-159.345 300.74 -159.086 330.888 -168.998 359.549C-173.356 372.146 -179.985 381.523 -188.737 387.875C-204.181 399.056 -219.723 409.954 -234.993 421.578C-249.152 432.335 -261.472 446.347 -272.237 463.721C-282.088 479.627 -283.964 498.363 -281.545 516.904C-278.15 542.876 -272.138 568.229 -260.312 589.531C-245.572 616.087 -226.265 631.957 -202.909 636.239C-176.356 641.122 -159.024 627.038 -146.803 592.167C-140.976 575.554 -135.199 558.852 -130.187 541.726C-119.521 505.298 -100.226 483.43 -74.5371 471.948C-61.4271 466.092 -48.2924 460.289 -35.0096 455.3C-29.4668 453.212 -23.5414 452.929 -17.7641 452.522C-5.43182 451.655 6.92518 451.443 19.2698 450.629C33.1205 449.709 41.5889 438.191 46.3786 420.57C51.2177 402.771 50.8597 384.389 48.9833 365.741C47.0823 346.811 43.8974 328.623 35.2685 313.638C13.6653 276.112 -12.9126 250.282 -46.7246 239.826C-65.5255 234.005 -83.9437 225.424 -102.276 216.932C-113.028 211.96 -121.978 202.778 -124.508 185.298C-125.397 179.177 -126.335 172.913 -126.311 166.739C-126.187 137.564 -130.261 109.239 -134.446 80.9314C-138.063 56.4807 -140.075 31.7115 -134.767 7.61468C-131.249 -8.36143 -126.076 -23.966 -120.015 -38.3321C-109.571 -63.119 -103.436 -89.0558 -105.485 -118.107C-106.72 -135.746 -113.633 -149.493 -122.768 -160.444C-137.804 -178.455 -154.642 -192.29 -173.307 -201.242C-181.109 -204.993 -189.145 -206.444 -197.379 -205.683" fill="#181B2B"/>
<path d="M-197.996 -205.719C-217.315 -196.961 -226.586 -175.925 -228.524 -149.05C-230.129 -126.882 -228.808 -104.271 -228.858 -81.8728C-228.895 -63.8797 -232.401 -47.1782 -239.412 -32.4052C-249.202 -11.776 -259.904 7.96855 -269.484 28.81C-281.113 54.11 -288.322 81.8161 -286.766 112.742C-285.939 129.302 -281.989 144.252 -273.99 157.079C-258.139 182.485 -237.573 197.187 -216.501 210.916C-205.44 218.135 -194.107 224.575 -183.232 232.324C-172.344 240.073 -164.9 252.546 -162.863 270.221C-159.345 300.74 -159.086 330.888 -168.998 359.549C-173.356 372.146 -179.985 381.523 -188.737 387.875C-204.181 399.056 -219.723 409.954 -234.993 421.578C-249.152 432.335 -261.472 446.347 -272.237 463.721C-282.088 479.627 -283.964 498.363 -281.545 516.904C-278.15 542.876 -272.138 568.229 -260.312 589.531C-245.572 616.087 -226.265 631.957 -202.909 636.239C-176.356 641.122 -159.024 627.038 -146.803 592.167C-140.976 575.554 -135.199 558.852 -130.187 541.726C-119.521 505.298 -100.226 483.43 -74.5371 471.948C-61.4271 466.092 -48.2924 460.289 -35.0096 455.3C-29.4668 453.212 -23.5414 452.929 -17.7641 452.522C-5.43182 451.655 6.92518 451.443 19.2698 450.629C33.1205 449.709 41.5889 438.191 46.3786 420.57C51.2177 402.771 50.8597 384.389 48.9833 365.741C47.0823 346.811 43.8974 328.623 35.2685 313.638C13.6653 276.112 -12.9126 250.282 -46.7246 239.826C-65.5255 234.005 -83.9437 225.424 -102.276 216.932C-113.028 211.96 -121.978 202.778 -124.508 185.298C-125.397 179.177 -126.335 172.913 -126.311 166.739C-126.187 137.564 -130.261 109.239 -134.446 80.9314C-138.063 56.4807 -140.075 31.7115 -134.767 7.61468C-131.249 -8.36143 -126.076 -23.966 -120.015 -38.3321C-109.571 -63.119 -103.436 -89.0558 -105.485 -118.107C-106.72 -135.746 -113.633 -149.493 -122.768 -160.444C-137.804 -178.455 -154.642 -192.29 -173.307 -201.242C-181.109 -204.993 -189.145 -206.444 -197.379 -205.683" stroke="#222639" stroke-width="4" stroke-miterlimit="10" stroke-linecap="round" stroke-linejoin="round"/>
<path d="M227.896 475.437C219.427 478.975 211.058 482.266 203.737 490.316C186.109 509.689 182.974 545.126 192.109 568.303C198.083 583.465 208.391 585.111 218.6 583.076C236.685 579.502 253.141 569.913 266.818 551.566C285.767 526.143 275.99 491.908 256.325 479.718C247.215 474.056 237.845 475.843 228.513 475.437" fill="#181B2B"/>
<path d="M227.896 475.437C219.427 478.975 211.058 482.266 203.737 490.316C186.109 509.689 182.974 545.126 192.109 568.303C198.083 583.465 208.391 585.111 218.6 583.076C236.685 579.502 253.141 569.913 266.818 551.566C285.767 526.143 275.99 491.908 256.325 479.718C247.215 474.056 237.845 475.843 228.513 475.437" stroke="#222639" stroke-width="4" stroke-miterlimit="10" stroke-linecap="round" stroke-linejoin="round"/>
<path d="M83.4608 204.746C71.6716 208.037 71.9186 218.227 75.4615 229.497C78.8316 240.201 83.0534 250.427 85.7816 261.432C90.0281 278.558 93.2254 296.197 97.0646 313.536C100.78 330.343 103.582 347.646 111.174 362.26C117.347 374.149 123.42 376.591 132.839 370.186C149.554 358.845 156.973 338.11 158.541 313.518C161.109 273.091 146.307 245.491 123.544 225.145C111.446 214.317 98.583 206.144 84.0656 204.746" fill="#181B2B"/>
<path d="M83.4608 204.746C71.6716 208.037 71.9186 218.227 75.4615 229.497C78.8316 240.201 83.0534 250.427 85.7816 261.432C90.0281 278.558 93.2254 296.197 97.0646 313.536C100.78 330.343 103.582 347.646 111.174 362.26C117.347 374.149 123.42 376.591 132.839 370.186C149.554 358.845 156.973 338.11 158.541 313.518C161.109 273.091 146.307 245.491 123.544 225.145C111.446 214.317 98.583 206.144 84.0656 204.746" stroke="#222639" stroke-width="4" stroke-miterlimit="10" stroke-linecap="round" stroke-linejoin="round"/>
</g>
</g>
</svg>
