<svg width="17" height="18" fill="none" xmlns="http://www.w3.org/2000/svg"><path d="M6.88 9.179a.543.543 0 0 0 .076.033c-.025-.008-.034-.016-.076-.033z" fill="#181B2B"/><path d="M14.094 5.294c-2.756-1.159-5.698.366-6.591 3.17-.026.076-.196.527-.281.766-.068-.009-.128-.017-.153-.017-.06-.009-.085 0-.102.008.102.051.144.068.127.068-.025-.017-.068-.034-.127-.06-.238-.084-.689-.28-.732-.297-.28-.12-.56-.23-.85-.35-2.033-.809-4.006 1.219-4.065 3.101-.128 3.655 3.563 6.126 6.872 6.305 3.878.213 6.735-2.377 8.24-5.75 1.183-2.667.57-5.717-2.338-6.944z" fill="#8AFFCE"/><path d="M7.663 14.614c-.323 0-.63-.119-.867-.34-1.14-1.057-2.262-2.139-3.385-3.22A235.155 235.155 0 0 0 .409 8.19 1.312 1.312 0 0 1 0 7.296c-.008-.34.111-.673.35-.92l.569-.605C2.603 3.974 4.338 2.117 6.14.361a1.268 1.268 0 0 1 1.718-.05c1.233 1.056 2.415 2.18 3.555 3.262.876.835 1.786 1.696 2.696 2.514.527.468.57 1.269.11 1.797-.867.988-1.734 1.951-2.602 2.922a281.391 281.391 0 0 0-2.994 3.365c-.23.264-.552.418-.893.435-.025.008-.05.008-.068.008zM3.08 7.203c.706.664 1.403 1.337 2.1 2.01a203.99 203.99 0 0 0 2.39 2.283c.715-.81 1.43-1.601 2.153-2.41.586-.648 1.173-1.304 1.752-1.952-.621-.57-1.225-1.15-1.82-1.712-.843-.8-1.702-1.619-2.578-2.402A203.561 203.561 0 0 0 3.08 7.203z" fill="#2F354D"/></svg>