<svg width="129" height="26" fill="none" xmlns="http://www.w3.org/2000/svg"><path d="M0 16.983c0-.614.157-1.074.47-1.38.315-.308.739-.46 1.273-.46.535 0 .959.153 1.273.46.314.306.47.766.47 1.38 0 .636-.156 1.107-.47 1.413-.314.306-.738.46-1.273.46-.534 0-.958-.154-1.272-.46C.157 18.09 0 17.62 0 16.983zM5.995 22.596c.464.29 1.014.538 1.652.742a6.373 6.373 0 0 0 1.964.308c.764 0 1.413-.2 1.946-.6.533-.401.8-1.05.8-1.949 0-.752-.163-1.371-.487-1.857a5.64 5.64 0 0 0-1.234-1.311 12.916 12.916 0 0 0-1.617-1.07 8.616 8.616 0 0 1-1.616-1.173 5.812 5.812 0 0 1-1.234-1.623c-.325-.626-.487-1.42-.487-2.382 0-1.54.4-2.7 1.2-3.483.799-.782 1.929-1.173 3.389-1.173.95 0 1.772.091 2.467.272.695.18 1.298.429 1.808.742l-.66 2.173c-.44-.242-.95-.44-1.53-.598a6.774 6.774 0 0 0-1.772-.235c-.835 0-1.443.18-1.825.543-.383.362-.574.93-.574 1.702 0 .604.162 1.117.486 1.539.325.423.736.809 1.234 1.16.498.35 1.037.705 1.617 1.067.579.363 1.118.79 1.617 1.286.498.494.909 1.086 1.234 1.774.324.687.486 1.552.486 2.588 0 .677-.104 1.316-.313 1.92a4.243 4.243 0 0 1-.956 1.575c-.429.447-.961.803-1.599 1.068-.638.266-1.385.399-2.242.399-1.02 0-1.9-.103-2.642-.308-.742-.205-1.368-.477-1.878-.815l.766-2.28zM17.85 8.546c.672-.434 1.489-.773 2.451-1.014a12.454 12.454 0 0 1 3.042-.362c.973 0 1.755.151 2.346.452a3.538 3.538 0 0 1 1.391 1.23c.336.52.557 1.111.66 1.775.105.664.156 1.358.156 2.082 0 1.449-.03 2.86-.089 4.236-.06 1.377-.089 2.68-.089 3.91 0 .919.03 1.77.09 2.553.06.785.17 1.527.333 2.228h-1.96l-.608-2.137h-.138c-.345.628-.85 1.171-1.517 1.63-.667.458-1.565.687-2.692.687-1.243 0-2.26-.452-3.054-1.358-.794-.905-1.19-2.154-1.19-3.748 0-1.038.165-1.907.5-2.607a4.35 4.35 0 0 1 1.414-1.702c.608-.434 1.332-.742 2.172-.924.838-.18 1.776-.271 2.81-.271h.689c.23 0 .471.012.725.036.069-.748.103-1.413.103-1.992 0-1.376-.196-2.341-.586-2.897-.39-.555-1.103-.833-2.135-.833-.644 0-1.343.103-2.101.308-.758.205-1.39.466-1.895.779l-.828-2.061zm7.474 8.764a13.135 13.135 0 0 0-1.373-.073c-.55 0-1.088.049-1.615.145a4.299 4.299 0 0 0-1.409.506 2.698 2.698 0 0 0-.979.978c-.24.41-.36.93-.36 1.557 0 .966.223 1.714.67 2.245.446.531 1.024.797 1.734.797.961 0 1.706-.241 2.232-.724.527-.483.892-1.014 1.099-1.593V17.31zM40.827 25.566V14.52c0-1.81-.203-3.12-.609-3.929-.406-.808-1.13-1.212-2.173-1.212-.927 0-1.692.29-2.294.869a5.135 5.135 0 0 0-1.321 2.136v13.182h-2.503V7.459h1.808l.452 1.92h.104c.44-.653 1.037-1.207 1.79-1.666.754-.459 1.652-.688 2.695-.688.741 0 1.396.11 1.964.326a3.145 3.145 0 0 1 1.425 1.105c.382.519.672 1.212.87 2.082.197.87.296 1.968.296 3.295v11.733h-2.504zM45.45 7.46h2.121V3.875l2.503-.833v4.419h3.754v2.353h-3.754v10.791c0 1.063.122 1.829.366 2.3.243.47.643.705 1.199.705.463 0 .862-.054 1.198-.162.336-.11.701-.248 1.096-.416l.486 2.064a7.871 7.871 0 0 1-3.615.869c-1.16 0-1.987-.393-2.485-1.177-.498-.785-.748-2.058-.748-3.821V9.813h-2.12V7.46zM56.713 1.956c0-.58.156-1.05.47-1.413.313-.362.724-.543 1.234-.543s.933.176 1.27.525c.335.35.503.827.503 1.43 0 .58-.168 1.033-.504 1.359-.336.326-.759.488-1.269.488-.51 0-.92-.168-1.233-.506-.314-.339-.47-.785-.47-1.34zm.453 5.503h2.503v18.107h-2.503V7.459zM72.427 25.566V14.811c0-.965-.03-1.792-.088-2.48-.058-.688-.18-1.25-.365-1.685-.186-.434-.44-.754-.765-.96-.325-.204-.753-.307-1.286-.307-.788 0-1.455.32-1.999.96a5.39 5.39 0 0 0-1.13 2.19v13.036h-2.502V7.46h1.772l.452 1.919h.105a6.25 6.25 0 0 1 1.738-1.702c.671-.434 1.53-.653 2.572-.653.88 0 1.604.2 2.173.598.568.398 1.014 1.105 1.339 2.118a4.792 4.792 0 0 1 1.79-1.992 4.744 4.744 0 0 1 2.555-.724c.765 0 1.419.103 1.964.308.544.205.984.568 1.32 1.087.336.519.586 1.207.748 2.063.162.858.243 1.938.243 3.242v11.841h-2.502V14.051c0-1.57-.146-2.74-.435-3.513-.29-.772-.955-1.159-1.998-1.159-.881 0-1.582.284-2.103.851-.522.568-.887 1.334-1.096 2.3v13.035h-2.502v.001zM97.316 24.334c-.556.531-1.264.942-2.12 1.231a8.411 8.411 0 0 1-2.712.434c-1.09 0-2.033-.223-2.833-.67-.8-.445-1.46-1.086-1.981-1.919-.522-.833-.904-1.828-1.147-2.987-.243-1.16-.365-2.463-.365-3.91 0-3.09.544-5.445 1.634-7.062 1.09-1.618 2.63-2.427 4.623-2.427.649 0 1.292.085 1.93.254.637.17 1.21.507 1.72 1.014.51.506.921 1.22 1.234 2.136.314.918.47 2.113.47 3.585 0 .411-.018.851-.053 1.322-.035.47-.075.96-.12 1.467h-8.83c0 1.038.08 1.98.242 2.825.162.845.417 1.563.765 2.155.348.591.794 1.05 1.339 1.376.544.326 1.222.489 2.033.489a5.03 5.03 0 0 0 1.86-.363c.614-.241 1.083-.53 1.409-.87l.902 1.92zM95.37 14.63c.046-1.81-.197-3.138-.73-3.983-.533-.845-1.264-1.267-2.19-1.267-1.066 0-1.912.423-2.537 1.267-.626.845-.997 2.173-1.113 3.983h6.57zM110.178 25.566V14.52c0-1.81-.203-3.12-.609-3.929-.406-.808-1.13-1.212-2.173-1.212-.927 0-1.692.29-2.294.869a5.132 5.132 0 0 0-1.321 2.136v13.182h-2.503V7.459h1.808l.452 1.92h.104c.44-.653 1.037-1.207 1.791-1.666.753-.459 1.651-.688 2.693-.688.742 0 1.396.11 1.964.326a3.139 3.139 0 0 1 1.425 1.105c.383.519.671 1.212.869 2.082.197.87.296 1.968.296 3.295v11.733h-2.502zM114.801 7.46h2.121V3.875l2.503-.833v4.419h3.754v2.353h-3.754v10.791c0 1.063.121 1.829.365 2.3.243.47.643.705 1.199.705.463 0 .863-.054 1.199-.162.335-.11.701-.248 1.095-.416l.487 2.064a7.881 7.881 0 0 1-3.615.869c-1.16 0-1.987-.393-2.486-1.177-.498-.785-.747-2.058-.747-3.821V9.813h-2.121V7.46zM125.514 16.698c0-.613.156-1.074.47-1.38.314-.308.738-.46 1.273-.46.535 0 .959.153 1.273.46.314.306.47.767.47 1.38 0 .636-.156 1.107-.47 1.413-.314.306-.738.46-1.273.46-.535 0-.959-.154-1.273-.46-.314-.306-.47-.777-.47-1.413z" fill="#181B2B"/></svg>