<svg width="160" height="32" fill="none" xmlns="http://www.w3.org/2000/svg"><path d="M0 20.902c0-.755.194-1.322.584-1.7.39-.377.915-.566 1.578-.566s1.19.19 1.579.567c.39.378.583.944.583 1.699 0 .783-.194 1.363-.583 1.74-.39.376-.916.566-1.579.566-.663 0-1.189-.19-1.578-.567-.39-.376-.584-.956-.584-1.74zM7.436 27.81c.575.358 1.258.662 2.049.914.79.253 1.602.38 2.436.38.948 0 1.752-.247 2.414-.74.66-.494.991-1.293.991-2.399 0-.925-.202-1.687-.603-2.285a6.962 6.962 0 0 0-1.53-1.614 16.023 16.023 0 0 0-2.006-1.317 10.68 10.68 0 0 1-2.005-1.443 7.16 7.16 0 0 1-1.53-1.998c-.403-.77-.604-1.747-.604-2.932 0-1.895.495-3.323 1.487-4.286.992-.963 2.394-1.444 4.204-1.444 1.178 0 2.199.112 3.061.335.862.222 1.61.528 2.242.913l-.819 2.674a8.724 8.724 0 0 0-1.897-.735 8.463 8.463 0 0 0-2.199-.29c-1.035 0-1.788.223-2.263.669-.475.446-.712 1.144-.712 2.095 0 .743.2 1.374.604 1.894.402.52.912.995 1.53 1.426.618.431 1.286.869 2.005 1.315.718.446 1.386.973 2.006 1.582a7.642 7.642 0 0 1 1.53 2.183c.403.846.603 1.91.603 3.186 0 .833-.13 1.62-.388 2.363a5.215 5.215 0 0 1-1.185 1.938c-.533.55-1.193.988-1.984 1.315-.79.327-1.718.49-2.78.49-1.265 0-2.358-.126-3.278-.378-.92-.252-1.696-.587-2.328-1.003l.95-2.807zM22.14 10.518c.833-.534 1.846-.95 3.04-1.248a15.559 15.559 0 0 1 3.773-.446c1.207 0 2.177.187 2.91.557.734.371 1.308.877 1.725 1.515.416.638.69 1.367.82 2.183.129.818.193 1.671.193 2.563 0 1.783-.038 3.52-.111 5.214-.075 1.693-.11 3.298-.11 4.813 0 1.13.035 2.177.11 3.141.075.966.212 1.879.414 2.742h-2.431l-.754-2.63h-.17c-.429.773-1.056 1.441-1.883 2.006-.828.564-1.94.846-3.339.846-1.541 0-2.803-.557-3.788-1.672-.985-1.114-1.476-2.651-1.476-4.612 0-1.278.205-2.348.62-3.209a5.363 5.363 0 0 1 1.754-2.095c.755-.534 1.653-.913 2.694-1.137 1.04-.223 2.203-.334 3.485-.334h.855c.285 0 .584.015.9.044a26.9 26.9 0 0 0 .127-2.451c0-1.694-.243-2.882-.726-3.566-.485-.683-1.368-1.025-2.649-1.025-.798 0-1.666.127-2.606.38-.94.251-1.723.572-2.35.957l-1.027-2.536zm9.27 10.786a16.405 16.405 0 0 0-1.704-.09c-.681 0-1.348.06-2.002.179a5.358 5.358 0 0 0-1.747.623 3.332 3.332 0 0 0-1.214 1.203c-.298.506-.448 1.145-.448 1.916 0 1.19.277 2.11.831 2.764.554.654 1.27.98 2.15.98 1.194 0 2.117-.296 2.77-.89.654-.594 1.107-1.248 1.363-1.961v-4.724h.001zM50.638 31.466V17.872c0-2.228-.252-3.84-.755-4.835-.503-.996-1.401-1.493-2.695-1.493-1.15 0-2.099.357-2.846 1.07-.747.713-1.293 1.59-1.638 2.63v16.223H39.6V9.18h2.242l.56 2.362h.13c.546-.803 1.286-1.485 2.22-2.05.934-.565 2.049-.847 3.342-.847.92 0 1.732.135 2.436.402.705.267 1.294.72 1.768 1.36.474.638.834 1.492 1.079 2.562.244 1.07.366 2.422.366 4.056v14.44h-3.105zM56.373 9.18h2.63V4.77l3.105-1.026v5.438h4.656v2.897h-4.656V25.36c0 1.308.152 2.25.453 2.83.302.58.798.869 1.487.869.575 0 1.07-.068 1.487-.2.416-.135.87-.305 1.359-.512l.603 2.54a9.807 9.807 0 0 1-4.484 1.07c-1.438 0-2.464-.484-3.082-1.45-.618-.965-.927-2.532-.927-4.702V12.078h-2.63V9.18zM70.343 2.407c0-.713.193-1.292.581-1.738.389-.447.9-.669 1.532-.669s1.156.216 1.574.646c.416.431.625 1.018.625 1.761 0 .713-.21 1.27-.625 1.671-.418.402-.942.602-1.574.602-.632 0-1.142-.208-1.53-.624-.389-.416-.584-.965-.584-1.649zm.561 6.774h3.104v22.285h-3.104V9.18zM89.832 31.466V18.229c0-1.188-.036-2.206-.108-3.053-.072-.847-.224-1.538-.453-2.073-.231-.535-.546-.928-.949-1.18-.403-.253-.934-.38-1.595-.38-.978 0-1.805.394-2.48 1.18a6.616 6.616 0 0 0-1.401 2.697v16.045h-3.104V9.18h2.199l.56 2.362h.13a7.725 7.725 0 0 1 2.155-2.095c.834-.534 1.897-.803 3.191-.803 1.092 0 1.99.245 2.695.736.705.49 1.258 1.36 1.66 2.607a5.913 5.913 0 0 1 2.221-2.452 5.919 5.919 0 0 1 3.169-.89c.949 0 1.76.126 2.436.378.675.253 1.221.699 1.638 1.337.416.64.726 1.487.927 2.54.201 1.055.302 2.385.302 3.99v14.574h-3.104V17.293c0-1.931-.18-3.371-.539-4.323-.36-.95-1.185-1.427-2.479-1.427-1.093 0-1.962.35-2.609 1.048-.646.698-1.1 1.641-1.358 2.83v16.044h-3.104zM120.702 29.95c-.69.653-1.567 1.16-2.63 1.515a10.506 10.506 0 0 1-3.362.534c-1.352 0-2.523-.275-3.514-.824-.992-.55-1.811-1.337-2.458-2.362-.647-1.026-1.12-2.25-1.422-3.677-.302-1.427-.453-3.031-.453-4.813 0-3.803.675-6.7 2.027-8.692 1.351-1.99 3.261-2.986 5.734-2.986.804 0 1.603.105 2.394.312.79.209 1.501.624 2.134 1.248.632.624 1.142 1.501 1.53 2.63.388 1.129.582 2.6.582 4.412 0 .506-.022 1.048-.065 1.627-.043.579-.094 1.18-.15 1.805h-10.952c0 1.278.099 2.437.301 3.477.201 1.04.517 1.924.949 2.652.432.728.985 1.293 1.66 1.694.676.401 1.516.601 2.522.601a6.28 6.28 0 0 0 2.307-.446c.761-.297 1.343-.653 1.747-1.07l1.119 2.363zm-2.414-11.944c.058-2.228-.244-3.862-.905-4.902s-1.567-1.56-2.716-1.56c-1.322 0-2.371.521-3.147 1.56-.777 1.04-1.236 2.674-1.38 4.902h8.148zM136.656 31.466V17.872c0-2.228-.253-3.84-.755-4.835-.504-.996-1.402-1.493-2.696-1.493-1.15 0-2.099.357-2.845 1.07-.748.713-1.294 1.59-1.639 2.63v16.223h-3.104V9.18h2.242l.561 2.362h.129c.546-.803 1.287-1.485 2.221-2.05.934-.565 2.048-.847 3.341-.847.919 0 1.731.135 2.435.402a3.89 3.89 0 0 1 1.768 1.36c.474.638.833 1.492 1.078 2.562.244 1.07.367 2.422.367 4.056v14.44h-3.103zM142.39 9.18h2.63V4.77l3.104-1.026v5.438h4.656v2.897h-4.656V25.36c0 1.308.15 2.25.453 2.83.302.58.797.869 1.487.869.575 0 1.07-.068 1.488-.2.416-.135.869-.305 1.358-.512l.604 2.54a9.835 9.835 0 0 1-4.485 1.07c-1.437 0-2.464-.484-3.082-1.45-.618-.965-.927-2.532-.927-4.702V12.078h-2.63V9.18zM155.676 20.551c0-.755.194-1.32.583-1.699.39-.378.916-.566 1.579-.566.663 0 1.189.19 1.578.566.39.378.584.944.584 1.7 0 .782-.194 1.362-.584 1.739-.389.377-.915.566-1.578.566s-1.189-.19-1.579-.566c-.389-.377-.583-.957-.583-1.74z" fill="#fff"/></svg>