<svg width="329" height="200" viewBox="0 0 329 200" fill="none" xmlns="http://www.w3.org/2000/svg">
<rect x="329" y="200" width="329" height="200" rx="6" transform="rotate(-180 329 200)" fill="#222639"/>
<mask id="mask0" mask-type="alpha" maskUnits="userSpaceOnUse" x="0" y="0" width="329" height="200">
<rect x="329" y="200" width="329" height="200" rx="6" transform="rotate(-180 329 200)" fill="#222639"/>
</mask>
<g mask="url(#mask0)">
<g opacity="0.2">
<path d="M-8.71613 127.263C-7.33424 128.074 -5.69217 128.767 -3.78991 129.341C-1.89053 129.915 0.0637636 130.203 2.06721 130.203C4.34819 130.203 6.28226 129.643 7.87229 128.521C9.46233 127.399 10.2573 125.581 10.2573 123.065C10.2573 120.959 9.77166 119.227 8.80608 117.867C7.8376 116.507 6.61182 115.283 5.12586 114.195C3.6399 113.109 2.03252 112.109 0.303715 111.199C-1.42509 110.288 -3.03247 109.197 -4.51843 107.917C-6.00439 106.636 -7.23306 105.121 -8.19864 103.371C-9.16712 101.619 -9.64991 99.3967 -9.64991 96.7028C-9.64991 92.3919 -8.45883 89.1439 -6.07378 86.9532C-3.68872 84.7624 -0.317844 83.6685 4.03597 83.6685C6.86912 83.6685 9.32356 83.9229 11.3964 84.4289C13.4692 84.9349 15.2674 85.6302 16.7881 86.5066L14.8193 92.5898C13.5068 91.9142 11.9833 91.3573 10.2573 90.9163C8.52854 90.4782 6.76505 90.2577 4.96975 90.2577C2.48062 90.2577 0.667977 90.7637 -0.473958 91.7785C-1.61589 92.7933 -2.18542 94.382 -2.18542 96.5445C-2.18542 98.2349 -1.70262 99.6709 -0.734144 100.852C0.234332 102.037 1.4601 103.117 2.94607 104.098C4.43203 105.079 6.03941 106.074 7.76822 107.088C9.49413 108.103 11.1015 109.302 12.5904 110.687C14.0763 112.072 15.3021 113.729 16.2706 115.654C17.239 117.579 17.7218 119.998 17.7218 122.901C17.7218 124.795 17.4096 126.585 16.7881 128.275C16.1665 129.966 15.2154 131.435 13.9376 132.685C12.6569 133.937 11.0697 134.932 9.16745 135.676C7.26519 136.419 5.03624 136.792 2.48062 136.792C-0.560687 136.792 -3.18858 136.504 -5.40018 135.93C-7.61178 135.356 -9.47935 134.596 -11 133.649L-8.71613 127.263Z" fill="#2F354D"/>
<path d="M26.6438 87.9261C28.6472 86.7106 31.0843 85.7637 33.955 85.0881C36.8229 84.4125 39.8468 84.0732 43.0269 84.0732C45.9294 84.0732 48.2624 84.4973 50.0259 85.3396C51.7894 86.1848 53.1713 87.3353 54.1744 88.7855C55.1747 90.2385 55.8338 91.8949 56.1432 93.7521C56.4554 95.6122 56.6086 97.5542 56.6086 99.581C56.6086 103.637 56.519 107.589 56.3426 111.442C56.1634 115.295 56.0767 118.944 56.0767 122.39C56.0767 124.96 56.1634 127.343 56.3426 129.536C56.5219 131.733 56.8515 133.81 57.3371 135.772H51.4916L49.679 129.791H49.2685C48.2393 131.549 46.7302 133.07 44.7412 134.353C42.7522 135.637 40.0752 136.278 36.713 136.278C33.0068 136.278 29.9713 135.012 27.6036 132.476C25.2359 129.941 24.0535 126.444 24.0535 121.983C24.0535 119.077 24.5478 116.643 25.5452 114.684C26.5397 112.726 27.9447 111.137 29.7631 109.919C31.5786 108.703 33.7382 107.841 36.2418 107.332C38.7425 106.826 41.538 106.572 44.6227 106.572C45.3078 106.572 45.993 106.572 46.6782 106.572C47.3633 106.572 48.0832 106.606 48.8406 106.673C49.0459 104.579 49.147 102.719 49.147 101.096C49.147 97.2432 48.5631 94.5408 47.4009 92.9861C46.2358 91.4314 44.111 90.654 41.0321 90.654C39.1125 90.654 37.0252 90.9423 34.7645 91.5162C32.5038 92.09 30.6217 92.8193 29.1127 93.6956L26.6438 87.9261ZM48.936 112.463C48.2508 112.395 47.5715 112.344 46.8863 112.31C46.204 112.276 45.5218 112.259 44.8395 112.259C43.2003 112.259 41.5958 112.395 40.0232 112.663C38.4505 112.935 37.0512 113.407 35.8226 114.082C34.5939 114.758 33.6197 115.671 32.9027 116.819C32.1858 117.969 31.8273 119.422 31.8273 121.178C31.8273 123.883 32.4922 125.977 33.8249 127.464C35.1577 128.951 36.8807 129.695 38.9969 129.695C41.8647 129.695 44.085 129.019 45.6548 127.668C47.2274 126.317 48.3173 124.83 48.9331 123.207V112.463H48.936Z" fill="#2F354D"/>
<path d="M95.1743 135.577V104.654C95.1743 99.5861 94.5672 95.9197 93.3587 93.6555C92.1474 91.3912 89.9879 90.2605 86.8773 90.2605C84.1106 90.2605 81.8297 91.0718 80.0344 92.6944C78.2362 94.3169 76.9237 96.3098 76.0941 98.6758V135.579H68.6296V84.884H74.0212L75.3684 90.2577H75.6806C76.9931 88.4316 78.774 86.8797 81.0202 85.5935C83.2665 84.3101 85.9464 83.6685 89.057 83.6685C91.2686 83.6685 93.22 83.9737 94.9141 84.5815C96.6082 85.1893 98.0247 86.221 99.1666 87.674C100.306 89.127 101.17 91.069 101.76 93.5028C102.347 95.9367 102.642 99.0122 102.642 102.729V135.577H95.1743Z" fill="#2F354D"/>
<path d="M108.965 84.8843H115.29V74.8492L122.755 72.5171V84.8871H133.951V91.4763H122.755V121.689C122.755 124.663 123.119 126.808 123.844 128.126C124.57 129.443 125.764 130.101 127.421 130.101C128.802 130.101 129.994 129.949 130.997 129.646C131.997 129.341 133.087 128.954 134.264 128.482L135.715 134.26C134.194 135.003 132.517 135.594 130.684 136.035C128.852 136.473 126.935 136.694 124.931 136.694C121.474 136.694 119.005 135.594 117.519 133.397C116.033 131.201 115.29 127.637 115.29 122.701V91.4735H108.965V84.8843Z" fill="#2F354D"/>
<path d="M142.557 69.4755C142.557 67.8529 143.022 66.5356 143.956 65.5208C144.89 64.506 146.119 64 147.639 64C149.16 64 150.42 64.4919 151.423 65.4699C152.424 66.4508 152.927 67.7851 152.927 69.4755C152.927 71.0981 152.424 72.3644 151.423 73.2775C150.42 74.1905 149.16 74.6457 147.639 74.6457C146.119 74.6457 144.893 74.1736 143.959 73.2266C143.025 72.2796 142.557 71.0302 142.557 69.4755ZM143.907 84.8843H151.371V135.577H143.907V84.8843Z" fill="#2F354D"/>
<path d="M189.424 135.576V105.465C189.424 102.763 189.337 100.448 189.163 98.52C188.99 96.595 188.626 95.0233 188.074 93.805C187.518 92.5894 186.761 91.6933 185.793 91.1195C184.824 90.5457 183.546 90.2573 181.956 90.2573C179.606 90.2573 177.617 91.1534 175.995 92.9428C174.37 94.735 173.249 96.7787 172.624 99.0769V135.573H165.16V84.8836H170.447L171.794 90.2573H172.107C173.558 88.2984 175.287 86.7097 177.29 85.4914C179.294 84.2759 181.852 83.6653 184.963 83.6653C187.588 83.6653 189.747 84.2222 191.444 85.3387C193.138 86.4525 194.468 88.4312 195.437 91.2693C196.68 88.9033 198.461 87.0461 200.776 85.6921C203.092 84.3409 205.63 83.6653 208.397 83.6653C210.678 83.6653 212.629 83.9536 214.254 84.5275C215.879 85.1013 217.191 86.1161 218.195 87.5691C219.195 89.022 219.941 90.9499 220.423 93.347C220.906 95.747 221.149 98.7716 221.149 102.421V135.573H213.685V103.337C213.685 98.944 213.251 95.6678 212.389 93.5025C211.525 91.34 209.539 90.2573 206.428 90.2573C203.8 90.2573 201.71 91.0517 200.155 92.6403C198.6 94.229 197.51 96.3745 196.888 99.0769V135.573H189.424V135.576Z" fill="#2F354D"/>
<path d="M263.661 132.128C262.001 133.615 259.891 134.765 257.335 135.573C254.777 136.385 252.082 136.789 249.249 136.789C246 136.789 243.184 136.164 240.799 134.915C238.414 133.665 236.445 131.873 234.89 129.541C233.334 127.209 232.195 124.422 231.47 121.177C230.744 117.932 230.38 114.282 230.38 110.229C230.38 101.579 232.005 94.9865 235.254 90.458C238.504 85.9295 243.097 83.6653 249.044 83.6653C250.978 83.6653 252.898 83.9027 254.8 84.3748C256.699 84.8497 258.411 85.7939 259.931 87.2129C261.452 88.6319 262.678 90.6276 263.612 93.1944C264.545 95.7639 265.011 99.1108 265.011 103.232C265.011 104.383 264.959 105.615 264.855 106.933C264.751 108.25 264.629 109.618 264.493 111.04H238.157C238.157 113.946 238.397 116.583 238.882 118.949C239.365 121.315 240.125 123.325 241.163 124.982C242.201 126.638 243.531 127.921 245.156 128.834C246.78 129.747 248.801 130.203 251.221 130.203C253.088 130.203 254.936 129.866 256.769 129.188C258.599 128.512 259.998 127.701 260.969 126.754L263.661 132.128ZM257.856 104.959C257.994 99.891 257.269 96.1738 255.679 93.8078C254.089 91.4418 251.909 90.2602 249.148 90.2602C245.968 90.2602 243.444 91.4446 241.58 93.8078C239.712 96.1738 238.608 99.891 238.261 104.959H257.856Z" fill="#2F354D"/>
<path d="M302.022 135.577V104.654C302.022 99.5861 301.415 95.9197 300.207 93.6555C298.996 91.3912 296.836 90.2605 293.725 90.2605C290.959 90.2605 288.678 91.0718 286.882 92.6944C285.084 94.3169 283.772 96.3098 282.942 98.6758V135.579H275.478V84.884H280.869L282.216 90.2577H282.529C283.841 88.4316 285.622 86.8797 287.868 85.5935C290.115 84.3101 292.794 83.6685 295.902 83.6685C298.114 83.6685 300.065 83.9737 301.759 84.5815C303.453 85.1893 304.87 86.221 306.009 87.674C307.151 89.127 308.013 91.069 308.602 93.5028C309.189 95.9367 309.484 99.0122 309.484 102.729V135.577H302.022Z" fill="#2F354D"/>
<path d="M315.812 84.8843H322.138V74.8492L329.602 72.5171V84.8871H340.799V91.4763H329.602V121.689C329.602 124.663 329.964 126.808 330.692 128.126C331.418 129.443 332.609 130.101 334.268 130.101C335.65 130.101 336.841 129.949 337.845 129.646C338.845 129.341 339.935 128.954 341.111 128.482L342.563 134.26C341.042 135.003 339.365 135.594 337.535 136.035C335.702 136.473 333.786 136.694 331.779 136.694C328.322 136.694 325.853 135.594 324.367 133.397C322.881 131.201 322.138 127.637 322.138 122.701V91.4735H315.812V84.8843Z" fill="#2F354D"/>
</g>
</g>
<path opacity="0.3" d="M165 130C181.569 130 195 116.569 195 100C195 83.4315 181.569 70 165 70C148.431 70 135 83.4315 135 100C135 116.569 148.431 130 165 130Z" fill="white"/>
<path d="M157.089 84.0532V115.945L181.075 99.9992L157.089 84.0532Z" fill="white"/>
</svg>
